999
dxflib 2.0.4.8
  0
SECTION
  2
HEADER
  9
$ACADVER
  1
AC1015
  9
$HANDSEED
  5
FFFF
  9
$DIMASZ
 40
2.5
  9
$DIMGAP
 40
0.625
  9
$MEASUREMENT
 70
1
  9
$INSUNITS
 70
4
  9
$DIMEXO
 40
0.625
  9
$DIMTXT
 40
2.5
  9
$DIMSTYLE
  2
Standard
  9
$PLIMMIN
 10
0.0
 20
0.0
  9
$PLIMMAX
 10
210.0
 20
297.0
  9
$DIMEXE
 40
1.25
  0
ENDSEC
  0
SECTION
  2
TABLES
  0
TABLE
  2
VPORT
  5
8
100
AcDbSymbolTable
 70
1
  0
VPORT
  5
30
100
AcDbSymbolTableRecord
100
AcDbViewportTableRecord
  2
*Active
 70
0
 10
0.0
 20
0.0
 11
1.0
 21
1.0
 12
286.3055555555554861
 22
148.5
 13
0.0
 23
0.0
 14
10.0
 24
10.0
 15
10.0
 25
10.0
 16
0.0
 26
0.0
 36
1.0
 17
0.0
 27
0.0
 37
0.0
 40
297.0
 41
1.92798353909465
 42
50.0
 43
0.0
 44
0.0
 50
0.0
 51
0.0
 71
0
 72
100
 73
1
 74
3
 75
1
 76
1
 77
0
 78
0
281
0
 65
1
110
0.0
120
0.0
130
0.0
111
1.0
121
0.0
131
0.0
112
0.0
122
1.0
132
0.0
 79
0
146
0.0
  0
ENDTAB
  0
TABLE
  2
LTYPE
  5
5
100
AcDbSymbolTable
 70
21
  0
LTYPE
  5
14
100
AcDbSymbolTableRecord
100
AcDbLinetypeTableRecord
  2
ByBlock
 70
0
  3

 72
65
 73
0
 40
0.0
  0
LTYPE
  5
15
100
AcDbSymbolTableRecord
100
AcDbLinetypeTableRecord
  2
ByLayer
 70
0
  3

 72
65
 73
0
 40
0.0
  0
LTYPE
  5
16
100
AcDbSymbolTableRecord
100
AcDbLinetypeTableRecord
  2
CONTINUOUS
 70
0
  3
Solid line
 72
65
 73
0
 40
0.0
  0
LTYPE
  5
31
100
AcDbSymbolTableRecord
100
AcDbLinetypeTableRecord
  2
DOT
 70
0
  3
Dot . . . . . . . . . . . . . . . . . . . . . .
 72
65
 73
2
 40
6.3499999999999996
 49
0.0
 74
0
 49
-6.3499999999999996
 74
0
  0
LTYPE
  5
32
100
AcDbSymbolTableRecord
100
AcDbLinetypeTableRecord
  2
DOT2
 70
0
  3
Dot (.5x) .....................................
 72
65
 73
2
 40
3.1749999999999998
 49
0.0
 74
0
 49
-3.1749999999999998
 74
0
  0
LTYPE
  5
33
100
AcDbSymbolTableRecord
100
AcDbLinetypeTableRecord
  2
DOTX2
 70
0
  3
Dot (2x) .  .  .  .  .  .  .  .  .  .  .  .  .
 72
65
 73
2
 40
12.6999999999999993
 49
0.0
 74
0
 49
-12.6999999999999993
 74
0
  0
LTYPE
  5
34
100
AcDbSymbolTableRecord
100
AcDbLinetypeTableRecord
  2
DASHED
 70
0
  3
Dashed __ __ __ __ __ __ __ __ __ __ __ __ __ _
 72
65
 73
2
 40
19.0500000000000007
 49
12.6999999999999993
 74
0
 49
-6.3499999999999996
 74
0
  0
LTYPE
  5
35
100
AcDbSymbolTableRecord
100
AcDbLinetypeTableRecord
  2
DASHED2
 70
0
  3
Dashed (.5x) _ _ _ _ _ _ _ _ _ _ _ _ _ _ _ _ _
 72
65
 73
2
 40
9.5250000000000004
 49
6.3499999999999996
 74
0
 49
-3.1749999999999998
 74
0
  0
LTYPE
  5
36
100
AcDbSymbolTableRecord
100
AcDbLinetypeTableRecord
  2
DASHEDX2
 70
0
  3
Dashed (2x) ____  ____  ____  ____  ____  ___
 72
65
 73
2
 40
38.1000000000000014
 49
25.3999999999999986
 74
0
 49
-12.6999999999999993
 74
0
  0
LTYPE
  5
37
100
AcDbSymbolTableRecord
100
AcDbLinetypeTableRecord
  2
DASHDOT
 70
0
  3
Dash dot __ . __ . __ . __ . __ . __ . __ . __
 72
65
 73
4
 40
25.3999999999999986
 49
12.6999999999999993
 74
0
 49
-6.3499999999999996
 74
0
 49
0.0
 74
0
 49
-6.3499999999999996
 74
0
  0
LTYPE
  5
38
100
AcDbSymbolTableRecord
100
AcDbLinetypeTableRecord
  2
DASHDOT2
 70
0
  3
Dash dot (.5x) _._._._._._._._._._._._._._._.
 72
65
 73
4
 40
12.6999999999999993
 49
6.3499999999999996
 74
0
 49
-3.1749999999999998
 74
0
 49
0.0
 74
0
 49
-3.1749999999999998
 74
0
  0
LTYPE
  5
39
100
AcDbSymbolTableRecord
100
AcDbLinetypeTableRecord
  2
DASHDOTX2
 70
0
  3
Dash dot (2x) ____  .  ____  .  ____  .  ___
 72
65
 73
4
 40
50.7999999999999972
 49
25.3999999999999986
 74
0
 49
-12.6999999999999993
 74
0
 49
0.0
 74
0
 49
-12.6999999999999993
 74
0
  0
LTYPE
  5
3A
100
AcDbSymbolTableRecord
100
AcDbLinetypeTableRecord
  2
DIVIDE
 70
0
  3
Divide ____ . . ____ . . ____ . . ____ . . ____
 72
65
 73
6
 40
31.75
 49
12.6999999999999993
 74
0
 49
-6.3499999999999996
 74
0
 49
0.0
 74
0
 49
-6.3499999999999996
 74
0
 49
0.0
 74
0
 49
-6.3499999999999996
 74
0
  0
LTYPE
  5
3B
100
AcDbSymbolTableRecord
100
AcDbLinetypeTableRecord
  2
DIVIDE2
 70
0
  3
Divide (.5x) __..__..__..__..__..__..__..__.._
 72
65
 73
6
 40
15.875
 49
6.3499999999999996
 74
0
 49
-3.1749999999999998
 74
0
 49
0.0
 74
0
 49
-3.1749999999999998
 74
0
 49
0.0
 74
0
 49
-3.1749999999999998
 74
0
  0
LTYPE
  5
3C
100
AcDbSymbolTableRecord
100
AcDbLinetypeTableRecord
  2
DIVIDEX2
 70
0
  3
Divide (2x) ________  .  .  ________  .  .  _
 72
65
 73
6
 40
63.5
 49
25.3999999999999986
 74
0
 49
-12.6999999999999993
 74
0
 49
0.0
 74
0
 49
-12.6999999999999993
 74
0
 49
0.0
 74
0
 49
-12.6999999999999993
 74
0
  0
LTYPE
  5
3D
100
AcDbSymbolTableRecord
100
AcDbLinetypeTableRecord
  2
CENTER
 70
0
  3
Center ____ _ ____ _ ____ _ ____ _ ____ _ ____
 72
65
 73
4
 40
50.7999999999999972
 49
31.75
 74
0
 49
-6.3499999999999996
 74
0
 49
6.3499999999999996
 74
0
 49
-6.3499999999999996
 74
0
  0
LTYPE
  5
3E
100
AcDbSymbolTableRecord
100
AcDbLinetypeTableRecord
  2
CENTER2
 70
0
  3
Center (.5x) ___ _ ___ _ ___ _ ___ _ ___ _ ___
 72
65
 73
4
 40
28.5749999999999993
 49
19.0500000000000007
 74
0
 49
-3.1749999999999998
 74
0
 49
3.1749999999999998
 74
0
 49
-3.1749999999999998
 74
0
  0
LTYPE
  5
3F
100
AcDbSymbolTableRecord
100
AcDbLinetypeTableRecord
  2
CENTERX2
 70
0
  3
Center (2x) ________  __  ________  __  _____
 72
65
 73
4
 40
101.5999999999999943
 49
63.5
 74
0
 49
-12.6999999999999993
 74
0
 49
12.6999999999999993
 74
0
 49
-12.6999999999999993
 74
0
  0
LTYPE
  5
40
100
AcDbSymbolTableRecord
100
AcDbLinetypeTableRecord
  2
BORDER
 70
0
  3
Border __ __ . __ __ . __ __ . __ __ . __ __ .
 72
65
 73
6
 40
44.4500000000000028
 49
12.6999999999999993
 74
0
 49
-6.3499999999999996
 74
0
 49
12.6999999999999993
 74
0
 49
-6.3499999999999996
 74
0
 49
0.0
 74
0
 49
-6.3499999999999996
 74
0
  0
LTYPE
  5
41
100
AcDbSymbolTableRecord
100
AcDbLinetypeTableRecord
  2
BORDER2
 70
0
  3
Border (.5x) __.__.__.__.__.__.__.__.__.__.__.
 72
65
 73
6
 40
22.2250000000000014
 49
6.3499999999999996
 74
0
 49
-3.1749999999999998
 74
0
 49
6.3499999999999996
 74
0
 49
-3.1749999999999998
 74
0
 49
0.0
 74
0
 49
-3.1749999999999998
 74
0
  0
LTYPE
  5
42
100
AcDbSymbolTableRecord
100
AcDbLinetypeTableRecord
  2
BORDERX2
 70
0
  3
Border (2x) ____  ____  .  ____  ____  .  ___
 72
65
 73
6
 40
88.9000000000000057
 49
25.3999999999999986
 74
0
 49
-12.6999999999999993
 74
0
 49
25.3999999999999986
 74
0
 49
-12.6999999999999993
 74
0
 49
0.0
 74
0
 49
-12.6999999999999993
 74
0
  0
ENDTAB
  0
TABLE
  2
LAYER
  5
2
100
AcDbSymbolTable
 70
1
  0
LAYER
  5
10
100
AcDbSymbolTableRecord
100
AcDbLayerTableRecord
  2
0
 70
0
 62
7
  6
CONTINUOUS
390
F
  0
ENDTAB
  0
TABLE
  2
STYLE
  5
3
100
AcDbSymbolTable
 70
1
  0
STYLE
  5
11
100
AcDbSymbolTableRecord
100
AcDbTextStyleTableRecord
  2
Standard
 70
0
 40
0.0
 41
0.75
 50
0.0
 71
0
 42
2.5
  3
txt
  4

  0
ENDTAB
  0
TABLE
  2
VIEW
  5
6
100
AcDbSymbolTable
 70
0
  0
ENDTAB
  0
TABLE
  2
UCS
  5
7
100
AcDbSymbolTable
 70
0
  0
ENDTAB
  0
TABLE
  2
APPID
  5
9
100
AcDbSymbolTable
 70
1
  0
APPID
  5
12
100
AcDbSymbolTableRecord
100
AcDbRegAppTableRecord
  2
ACAD
 70
0
  0
ENDTAB
  0
TABLE
  2
DIMSTYLE
  5
A
100
AcDbSymbolTable
 70
1
100
AcDbDimStyleTable
 71
0
  0
DIMSTYLE
105
27
100
AcDbSymbolTableRecord
100
AcDbDimStyleTableRecord
  2
Standard
 41
2.5
 42
0.625
 43
3.75
 44
1.25
 70
0
 73
0
 74
0
 77
1
 78
8
140
2.5
141
2.5
143
0.03937007874016
147
0.625
171
3
172
1
271
2
272
2
274
3
278
44
283
0
284
8
340
11
  0
ENDTAB
  0
TABLE
  2
BLOCK_RECORD
  5
1
100
AcDbSymbolTable
 70
1
  0
BLOCK_RECORD
  5
1F
100
AcDbSymbolTableRecord
100
AcDbBlockTableRecord
  2
*Model_Space
340
22
  0
BLOCK_RECORD
  5
1B
100
AcDbSymbolTableRecord
100
AcDbBlockTableRecord
  2
*Paper_Space
340
1E
  0
BLOCK_RECORD
  5
23
100
AcDbSymbolTableRecord
100
AcDbBlockTableRecord
  2
*Paper_Space0
340
26
  0
ENDTAB
  0
ENDSEC
  0
SECTION
  2
BLOCKS
  0
BLOCK
  5
20
100
AcDbEntity
  8
0
100
AcDbBlockBegin
  2
*Model_Space
 70
0
 10
0.0
 20
0.0
 30
0.0
  3
*Model_Space
  1

  0
ENDBLK
  5
21
100
AcDbEntity
  8
0
100
AcDbBlockEnd
  0
BLOCK
  5
1C
100
AcDbEntity
 67
1
  8
0
100
AcDbBlockBegin
  2
*Paper_Space
 70
0
 10
0.0
 20
0.0
 30
0.0
  3
*Paper_Space
  1

  0
ENDBLK
  5
1D
100
AcDbEntity
 67
1
  8
0
100
AcDbBlockEnd
  0
BLOCK
  5
24
100
AcDbEntity
  8
0
100
AcDbBlockBegin
  2
*Paper_Space0
 70
0
 10
0.0
 20
0.0
 30
0.0
  3
*Paper_Space0
  1

  0
ENDBLK
  5
25
100
AcDbEntity
  8
0
100
AcDbBlockEnd
  0
ENDSEC
  0
SECTION
  2
ENTITIES
  0
LINE
  5
43
100
AcDbEntity
100
AcDbLine
  8
0
 62
7
370
-1
  6
ByLayer
 10
-1.1298684780000001
 20
0.4262966445
 30
0.0
 11
-1.1109505682178173
 21
0.4262819516158739
 31
0.0
  0
LINE
  5
44
100
AcDbEntity
100
AcDbLine
  8
0
 62
7
370
-1
  6
ByLayer
 10
-1.1109505682178173
 20
0.4262819516158739
 30
0.0
 11
-1.0929419631015407
 21
0.4262364841158574
 31
0.0
  0
LINE
  5
45
100
AcDbEntity
100
AcDbLine
  8
0
 62
7
370
-1
  6
ByLayer
 10
-1.0929419631015407
 20
0.4262364841158574
 30
0.0
 11
-1.0758195767385117
 21
0.4261581587284919
 31
0.0
  0
LINE
  5
46
100
AcDbEntity
100
AcDbLine
  8
0
 62
7
370
-1
  6
ByLayer
 10
-1.0758195767385117
 20
0.4261581587284919
 30
0.0
 11
-1.059560323216072
 21
0.4260448921823203
 31
0.0
  0
LINE
  5
47
100
AcDbEntity
100
AcDbLine
  8
0
 62
7
370
-1
  6
ByLayer
 10
-1.059560323216072
 20
0.4260448921823203
 30
0.0
 11
-1.0441411166215635
 21
0.4258946012058843
 31
0.0
  0
LINE
  5
48
100
AcDbEntity
100
AcDbLine
  8
0
 62
7
370
-1
  6
ByLayer
 10
-1.0441411166215635
 20
0.4258946012058843
 30
0.0
 11
-1.0295388710423283
 21
0.4257052025277266
 31
0.0
  0
LINE
  5
49
100
AcDbEntity
100
AcDbLine
  8
0
 62
7
370
-1
  6
ByLayer
 10
-1.0295388710423283
 20
0.4257052025277266
 30
0.0
 11
-1.0157305005657078
 21
0.4254746128763889
 31
0.0
  0
LINE
  5
4A
100
AcDbEntity
100
AcDbLine
  8
0
 62
7
370
-1
  6
ByLayer
 10
-1.0157305005657078
 20
0.4254746128763889
 30
0.0
 11
-1.0026929192790439
 21
0.4252007489804136
 31
0.0
  0
LINE
  5
4B
100
AcDbEntity
100
AcDbLine
  8
0
 62
7
370
-1
  6
ByLayer
 10
-1.0026929192790439
 20
0.4252007489804136
 30
0.0
 11
-0.9904030412696789
 21
0.4248815275683427
 31
0.0
  0
LINE
  5
4C
100
AcDbEntity
100
AcDbLine
  8
0
 62
7
370
-1
  6
ByLayer
 10
-0.9904030412696789
 20
0.4248815275683427
 30
0.0
 11
-0.978837780624954
 21
0.4245148653687186
 31
0.0
  0
LINE
  5
4D
100
AcDbEntity
100
AcDbLine
  8
0
 62
7
370
-1
  6
ByLayer
 10
-0.978837780624954
 20
0.4245148653687186
 30
0.0
 11
-0.967974051432211
 21
0.4240986791100836
 31
0.0
  0
LINE
  5
4E
100
AcDbEntity
100
AcDbLine
  8
0
 62
7
370
-1
  6
ByLayer
 10
-0.967974051432211
 20
0.4240986791100836
 30
0.0
 11
-0.9577887677787923
 21
0.4236308855209795
 31
0.0
  0
LINE
  5
4F
100
AcDbEntity
100
AcDbLine
  8
0
 62
7
370
-1
  6
ByLayer
 10
-0.9577887677787923
 20
0.4236308855209795
 30
0.0
 11
-0.9482588437520393
 21
0.4231094013299486
 31
0.0
  0
LINE
  5
50
100
AcDbEntity
100
AcDbLine
  8
0
 62
7
370
-1
  6
ByLayer
 10
-0.9482588437520393
 20
0.4231094013299486
 30
0.0
 11
-0.9393611934392937
 21
0.4225321432655331
 31
0.0
  0
LINE
  5
51
100
AcDbEntity
100
AcDbLine
  8
0
 62
7
370
-1
  6
ByLayer
 10
-0.9393611934392937
 20
0.4225321432655331
 30
0.0
 11
-0.9310727309278977
 21
0.4218970280562754
 31
0.0
  0
LINE
  5
52
100
AcDbEntity
100
AcDbLine
  8
0
 62
7
370
-1
  6
ByLayer
 10
-0.9310727309278977
 20
0.4218970280562754
 30
0.0
 11
-0.9233703703051929
 21
0.4212019724307172
 31
0.0
  0
LINE
  5
53
100
AcDbEntity
100
AcDbLine
  8
0
 62
7
370
-1
  6
ByLayer
 10
-0.9233703703051929
 20
0.4212019724307172
 30
0.0
 11
-0.916231025658521
 21
0.4204448931174012
 31
0.0
  0
LINE
  5
54
100
AcDbEntity
100
AcDbLine
  8
0
 62
7
370
-1
  6
ByLayer
 10
-0.916231025658521
 20
0.4204448931174012
 30
0.0
 11
-0.9096316110752241
 21
0.4196237068448693
 31
0.0
  0
LINE
  5
55
100
AcDbEntity
100
AcDbLine
  8
0
 62
7
370
-1
  6
ByLayer
 10
-0.9096316110752241
 20
0.4196237068448693
 30
0.0
 11
-0.9035490406426437
 21
0.4187363303416636
 31
0.0
  0
LINE
  5
56
100
AcDbEntity
100
AcDbLine
  8
0
 62
7
370
-1
  6
ByLayer
 10
-0.9035490406426437
 20
0.4187363303416636
 30
0.0
 11
-0.8979602284481221
 21
0.4177806803363264
 31
0.0
  0
LINE
  5
57
100
AcDbEntity
100
AcDbLine
  8
0
 62
7
370
-1
  6
ByLayer
 10
-0.8979602284481221
 20
0.4177806803363264
 30
0.0
 11
-0.8928420885790004
 21
0.4167546735574
 31
0.0
  0
LINE
  5
58
100
AcDbEntity
100
AcDbLine
  8
0
 62
7
370
-1
  6
ByLayer
 10
-0.8928420885790004
 20
0.4167546735574
 30
0.0
 11
-0.888171535122621
 21
0.4156562267334263
 31
0.0
  0
LINE
  5
59
100
AcDbEntity
100
AcDbLine
  8
0
 62
7
370
-1
  6
ByLayer
 10
-0.888171535122621
 20
0.4156562267334263
 30
0.0
 11
-0.8839254821663255
 21
0.4144832565929475
 31
0.0
  0
LINE
  5
5A
100
AcDbEntity
100
AcDbLine
  8
0
 62
7
370
-1
  6
ByLayer
 10
-0.8839254821663255
 20
0.4144832565929475
 30
0.0
 11
-0.8800808437974557
 21
0.413233679864506
 31
0.0
  0
LINE
  5
5B
100
AcDbEntity
100
AcDbLine
  8
0
 62
7
370
-1
  6
ByLayer
 10
-0.8800808437974557
 20
0.413233679864506
 30
0.0
 11
-0.8766145341033533
 21
0.411905413276644
 31
0.0
  0
LINE
  5
5C
100
AcDbEntity
100
AcDbLine
  8
0
 62
7
370
-1
  6
ByLayer
 10
-0.8766145341033533
 20
0.411905413276644
 30
0.0
 11
-0.8735034671713605
 21
0.4104963735579034
 31
0.0
  0
LINE
  5
5D
100
AcDbEntity
100
AcDbLine
  8
0
 62
7
370
-1
  6
ByLayer
 10
-0.8735034671713605
 20
0.4104963735579034
 30
0.0
 11
-0.8707245570888189
 21
0.4090044774368267
 31
0.0
  0
LINE
  5
5E
100
AcDbEntity
100
AcDbLine
  8
0
 62
7
370
-1
  6
ByLayer
 10
-0.8707245570888189
 20
0.4090044774368267
 30
0.0
 11
-0.8682547179430702
 21
0.4074276416419558
 31
0.0
  0
LINE
  5
5F
100
AcDbEntity
100
AcDbLine
  8
0
 62
7
370
-1
  6
ByLayer
 10
-0.8682547179430702
 20
0.4074276416419558
 30
0.0
 11
-0.8660708638214563
 21
0.4057637829018328
 31
0.0
  0
LINE
  5
60
100
AcDbEntity
100
AcDbLine
  8
0
 62
7
370
-1
  6
ByLayer
 10
-0.8660708638214563
 20
0.4057637829018328
 30
0.0
 11
-0.8641499088113189
 21
0.4040108179450002
 31
0.0
  0
LINE
  5
61
100
AcDbEntity
100
AcDbLine
  8
0
 62
7
370
-1
  6
ByLayer
 10
-0.8641499088113189
 20
0.4040108179450002
 30
0.0
 11
-0.8624687670000001
 21
0.4021666635
 31
0.0
  0
LINE
  5
62
100
AcDbEntity
100
AcDbLine
  8
0
 62
7
370
-1
  6
ByLayer
 10
-0.8624687670000001
 20
0.4021666635
 30
0.0
 11
-0.8545633190661944
 21
0.3987564626363165
 31
0.0
  0
LINE
  5
63
100
AcDbEntity
100
AcDbLine
  8
0
 62
7
370
-1
  6
ByLayer
 10
-0.8545633190661944
 20
0.3987564626363165
 30
0.0
 11
-0.8371339713901178
 21
0.3955736084968783
 31
0.0
  0
LINE
  5
64
100
AcDbEntity
100
AcDbLine
  8
0
 62
7
370
-1
  6
ByLayer
 10
-0.8371339713901178
 20
0.3955736084968783
 30
0.0
 11
-0.8108375446436508
 21
0.3926181010816858
 31
0.0
  0
LINE
  5
65
100
AcDbEntity
100
AcDbLine
  8
0
 62
7
370
-1
  6
ByLayer
 10
-0.8108375446436508
 20
0.3926181010816858
 30
0.0
 11
-0.7763308594986742
 21
0.3898899403907389
 31
0.0
  0
LINE
  5
66
100
AcDbEntity
100
AcDbLine
  8
0
 62
7
370
-1
  6
ByLayer
 10
-0.7763308594986742
 20
0.3898899403907389
 30
0.0
 11
-0.7342707366270688
 21
0.3873891264240374
 31
0.0
  0
LINE
  5
67
100
AcDbEntity
100
AcDbLine
  8
0
 62
7
370
-1
  6
ByLayer
 10
-0.7342707366270688
 20
0.3873891264240374
 30
0.0
 11
-0.685313996700715
 21
0.3851156591815819
 31
0.0
  0
LINE
  5
68
100
AcDbEntity
100
AcDbLine
  8
0
 62
7
370
-1
  6
ByLayer
 10
-0.685313996700715
 20
0.3851156591815819
 30
0.0
 11
-0.6301174603914941
 21
0.3830695386633715
 31
0.0
  0
LINE
  5
69
100
AcDbEntity
100
AcDbLine
  8
0
 62
7
370
-1
  6
ByLayer
 10
-0.6301174603914941
 20
0.3830695386633715
 30
0.0
 11
-0.5693379483712866
 21
0.3812507648694069
 31
0.0
  0
LINE
  5
6A
100
AcDbEntity
100
AcDbLine
  8
0
 62
7
370
-1
  6
ByLayer
 10
-0.5693379483712866
 20
0.3812507648694069
 30
0.0
 11
-0.5036322813119737
 21
0.3796593377996878
 31
0.0
  0
LINE
  5
6B
100
AcDbEntity
100
AcDbLine
  8
0
 62
7
370
-1
  6
ByLayer
 10
-0.5036322813119737
 20
0.3796593377996878
 30
0.0
 11
-0.4336572798854356
 21
0.3782952574542142
 31
0.0
  0
LINE
  5
6C
100
AcDbEntity
100
AcDbLine
  8
0
 62
7
370
-1
  6
ByLayer
 10
-0.4336572798854356
 20
0.3782952574542142
 30
0.0
 11
-0.3600697647635531
 21
0.3771585238329864
 31
0.0
  0
LINE
  5
6D
100
AcDbEntity
100
AcDbLine
  8
0
 62
7
370
-1
  6
ByLayer
 10
-0.3600697647635531
 20
0.3771585238329864
 30
0.0
 11
-0.2835265566182072
 21
0.3762491369360041
 31
0.0
  0
LINE
  5
6E
100
AcDbEntity
100
AcDbLine
  8
0
 62
7
370
-1
  6
ByLayer
 10
-0.2835265566182072
 20
0.3762491369360041
 30
0.0
 11
-0.2046844761212785
 21
0.3755670967632674
 31
0.0
  0
LINE
  5
6F
100
AcDbEntity
100
AcDbLine
  8
0
 62
7
370
-1
  6
ByLayer
 10
-0.2046844761212785
 20
0.3755670967632674
 30
0.0
 11
-0.1242003439446481
 21
0.3751124033147762
 31
0.0
  0
LINE
  5
70
100
AcDbEntity
100
AcDbLine
  8
0
 62
7
370
-1
  6
ByLayer
 10
-0.1242003439446481
 20
0.3751124033147762
 30
0.0
 11
-0.0427309807601964
 21
0.3748850565905308
 31
0.0
  0
LINE
  5
71
100
AcDbEntity
100
AcDbLine
  8
0
 62
7
370
-1
  6
ByLayer
 10
-0.0427309807601964
 20
0.3748850565905308
 30
0.0
 11
0.0390667927601954
 21
0.3748850565905307
 31
0.0
  0
LINE
  5
72
100
AcDbEntity
100
AcDbLine
  8
0
 62
7
370
-1
  6
ByLayer
 10
0.0390667927601954
 20
0.3748850565905307
 30
0.0
 11
0.1205361559446471
 21
0.3751124033147762
 31
0.0
  0
LINE
  5
73
100
AcDbEntity
100
AcDbLine
  8
0
 62
7
370
-1
  6
ByLayer
 10
0.1205361559446471
 20
0.3751124033147762
 30
0.0
 11
0.2010202881212775
 21
0.3755670967632674
 31
0.0
  0
LINE
  5
74
100
AcDbEntity
100
AcDbLine
  8
0
 62
7
370
-1
  6
ByLayer
 10
0.2010202881212775
 20
0.3755670967632674
 30
0.0
 11
0.279862368618206
 21
0.3762491369360041
 31
0.0
  0
LINE
  5
75
100
AcDbEntity
100
AcDbLine
  8
0
 62
7
370
-1
  6
ByLayer
 10
0.279862368618206
 20
0.3762491369360041
 30
0.0
 11
0.3564055767635519
 21
0.3771585238329863
 31
0.0
  0
LINE
  5
76
100
AcDbEntity
100
AcDbLine
  8
0
 62
7
370
-1
  6
ByLayer
 10
0.3564055767635519
 20
0.3771585238329863
 30
0.0
 11
0.4299930918854346
 21
0.3782952574542144
 31
0.0
  0
LINE
  5
77
100
AcDbEntity
100
AcDbLine
  8
0
 62
7
370
-1
  6
ByLayer
 10
0.4299930918854346
 20
0.3782952574542144
 30
0.0
 11
0.499968093311973
 21
0.3796593377996878
 31
0.0
  0
LINE
  5
78
100
AcDbEntity
100
AcDbLine
  8
0
 62
7
370
-1
  6
ByLayer
 10
0.499968093311973
 20
0.3796593377996878
 30
0.0
 11
0.565673760371286
 21
0.3812507648694069
 31
0.0
  0
LINE
  5
79
100
AcDbEntity
100
AcDbLine
  8
0
 62
7
370
-1
  6
ByLayer
 10
0.565673760371286
 20
0.3812507648694069
 30
0.0
 11
0.6264532723914937
 21
0.3830695386633715
 31
0.0
  0
LINE
  5
7A
100
AcDbEntity
100
AcDbLine
  8
0
 62
7
370
-1
  6
ByLayer
 10
0.6264532723914937
 20
0.3830695386633715
 30
0.0
 11
0.6816498087007142
 21
0.3851156591815816
 31
0.0
  0
LINE
  5
7B
100
AcDbEntity
100
AcDbLine
  8
0
 62
7
370
-1
  6
ByLayer
 10
0.6816498087007142
 20
0.3851156591815816
 30
0.0
 11
0.7306065486270678
 21
0.3873891264240374
 31
0.0
  0
LINE
  5
7C
100
AcDbEntity
100
AcDbLine
  8
0
 62
7
370
-1
  6
ByLayer
 10
0.7306065486270678
 20
0.3873891264240374
 30
0.0
 11
0.7726666714986736
 21
0.3898899403907388
 31
0.0
  0
LINE
  5
7D
100
AcDbEntity
100
AcDbLine
  8
0
 62
7
370
-1
  6
ByLayer
 10
0.7726666714986736
 20
0.3898899403907388
 30
0.0
 11
0.8071733566436504
 21
0.3926181010816858
 31
0.0
  0
LINE
  5
7E
100
AcDbEntity
100
AcDbLine
  8
0
 62
7
370
-1
  6
ByLayer
 10
0.8071733566436504
 20
0.3926181010816858
 30
0.0
 11
0.8334697833901175
 21
0.3955736084968782
 31
0.0
  0
LINE
  5
7F
100
AcDbEntity
100
AcDbLine
  8
0
 62
7
370
-1
  6
ByLayer
 10
0.8334697833901175
 20
0.3955736084968782
 30
0.0
 11
0.8508991310661942
 21
0.3987564626363163
 31
0.0
  0
LINE
  5
80
100
AcDbEntity
100
AcDbLine
  8
0
 62
7
370
-1
  6
ByLayer
 10
0.8508991310661942
 20
0.3987564626363163
 30
0.0
 11
0.8588045790000002
 21
0.4021666635
 31
0.0
  0
LINE
  5
81
100
AcDbEntity
100
AcDbLine
  8
0
 62
7
370
-1
  6
ByLayer
 10
0.8588045790000002
 20
0.4021666635
 30
0.0
 11
0.8604932261142635
 21
0.404016283562133
 31
0.0
  0
LINE
  5
82
100
AcDbEntity
100
AcDbLine
  8
0
 62
7
370
-1
  6
ByLayer
 10
0.8604932261142635
 20
0.404016283562133
 30
0.0
 11
0.8624277508860059
 21
0.4057739975329631
 31
0.0
  0
LINE
  5
83
100
AcDbEntity
100
AcDbLine
  8
0
 62
7
370
-1
  6
ByLayer
 10
0.8624277508860059
 20
0.4057739975329631
 30
0.0
 11
0.8646323494909203
 21
0.4074419251213958
 31
0.0
  0
LINE
  5
84
100
AcDbEntity
100
AcDbLine
  8
0
 62
7
370
-1
  6
ByLayer
 10
0.8646323494909203
 20
0.4074419251213958
 30
0.0
 11
0.8671312181046963
 21
0.4090221860363367
 31
0.0
  0
LINE
  5
85
100
AcDbEntity
100
AcDbLine
  8
0
 62
7
370
-1
  6
ByLayer
 10
0.8671312181046963
 20
0.4090221860363367
 30
0.0
 11
0.8699485529030244
 21
0.4105168999866906
 31
0.0
  0
LINE
  5
86
100
AcDbEntity
100
AcDbLine
  8
0
 62
7
370
-1
  6
ByLayer
 10
0.8699485529030244
 20
0.4105168999866906
 30
0.0
 11
0.8731085500615963
 21
0.4119281866813636
 31
0.0
  0
LINE
  5
87
100
AcDbEntity
100
AcDbLine
  8
0
 62
7
370
-1
  6
ByLayer
 10
0.8731085500615963
 20
0.4119281866813636
 30
0.0
 11
0.8766354057561005
 21
0.4132581658292606
 31
0.0
  0
LINE
  5
88
100
AcDbEntity
100
AcDbLine
  8
0
 62
7
370
-1
  6
ByLayer
 10
0.8766354057561005
 20
0.4132581658292606
 30
0.0
 11
0.8805533161622303
 21
0.414508957139287
 31
0.0
  0
LINE
  5
89
100
AcDbEntity
100
AcDbLine
  8
0
 62
7
370
-1
  6
ByLayer
 10
0.8805533161622303
 20
0.414508957139287
 30
0.0
 11
0.8848864774556744
 21
0.4156826803203484
 31
0.0
  0
LINE
  5
8A
100
AcDbEntity
100
AcDbLine
  8
0
 62
7
370
-1
  6
ByLayer
 10
0.8848864774556744
 20
0.4156826803203484
 30
0.0
 11
0.8896590858121243
 21
0.4167814550813499
 31
0.0
  0
LINE
  5
8B
100
AcDbEntity
100
AcDbLine
  8
0
 62
7
370
-1
  6
ByLayer
 10
0.8896590858121243
 20
0.4167814550813499
 30
0.0
 11
0.8948953374072709
 21
0.4178074011311974
 31
0.0
  0
LINE
  5
8C
100
AcDbEntity
100
AcDbLine
  8
0
 62
7
370
-1
  6
ByLayer
 10
0.8948953374072709
 20
0.4178074011311974
 30
0.0
 11
0.9006194284168035
 21
0.4187626381787956
 31
0.0
  0
LINE
  5
8D
100
AcDbEntity
100
AcDbLine
  8
0
 62
7
370
-1
  6
ByLayer
 10
0.9006194284168035
 20
0.4187626381787956
 30
0.0
 11
0.9068555550164146
 21
0.4196492859330502
 31
0.0
  0
LINE
  5
8E
100
AcDbEntity
100
AcDbLine
  8
0
 62
7
370
-1
  6
ByLayer
 10
0.9068555550164146
 20
0.4196492859330502
 30
0.0
 11
0.9136279133817928
 21
0.4204694641028667
 31
0.0
  0
LINE
  5
8F
100
AcDbEntity
100
AcDbLine
  8
0
 62
7
370
-1
  6
ByLayer
 10
0.9136279133817928
 20
0.4204694641028667
 30
0.0
 11
0.9209606996886309
 21
0.4212252923971502
 31
0.0
  0
LINE
  5
90
100
AcDbEntity
100
AcDbLine
  8
0
 62
7
370
-1
  6
ByLayer
 10
0.9209606996886309
 20
0.4212252923971502
 30
0.0
 11
0.9288781101126178
 21
0.4219188905248061
 31
0.0
  0
LINE
  5
91
100
AcDbEntity
100
AcDbLine
  8
0
 62
7
370
-1
  6
ByLayer
 10
0.9288781101126178
 20
0.4219188905248061
 30
0.0
 11
0.9374043408294455
 21
0.42255237819474
 31
0.0
  0
LINE
  5
92
100
AcDbEntity
100
AcDbLine
  8
0
 62
7
370
-1
  6
ByLayer
 10
0.9374043408294455
 20
0.42255237819474
 30
0.0
 11
0.9465635880148032
 21
0.4231278751158573
 31
0.0
  0
LINE
  5
93
100
AcDbEntity
100
AcDbLine
  8
0
 62
7
370
-1
  6
ByLayer
 10
0.9465635880148032
 20
0.4231278751158573
 30
0.0
 11
0.9563800478443825
 21
0.4236475009970629
 31
0.0
  0
LINE
  5
94
100
AcDbEntity
100
AcDbLine
  8
0
 62
7
370
-1
  6
ByLayer
 10
0.9563800478443825
 20
0.4236475009970629
 30
0.0
 11
0.9668779164938738
 21
0.4241133755472625
 31
0.0
  0
LINE
  5
95
100
AcDbEntity
100
AcDbLine
  8
0
 62
7
370
-1
  6
ByLayer
 10
0.9668779164938738
 20
0.4241133755472625
 30
0.0
 11
0.9780813901389681
 21
0.4245276184753617
 31
0.0
  0
LINE
  5
96
100
AcDbEntity
100
AcDbLine
  8
0
 62
7
370
-1
  6
ByLayer
 10
0.9780813901389681
 20
0.4245276184753617
 30
0.0
 11
0.9900146649553557
 21
0.4248923494902656
 31
0.0
  0
LINE
  5
97
100
AcDbEntity
100
AcDbLine
  8
0
 62
7
370
-1
  6
ByLayer
 10
0.9900146649553557
 20
0.4248923494902656
 30
0.0
 11
1.0027019371187271
 21
0.4252096883008795
 31
0.0
  0
LINE
  5
98
100
AcDbEntity
100
AcDbLine
  8
0
 62
7
370
-1
  6
ByLayer
 10
1.0027019371187271
 20
0.4252096883008795
 30
0.0
 11
1.0161674028047729
 21
0.425481754616109
 31
0.0
  0
LINE
  5
99
100
AcDbEntity
100
AcDbLine
  8
0
 62
7
370
-1
  6
ByLayer
 10
1.0161674028047729
 20
0.425481754616109
 30
0.0
 11
1.0304352581891845
 21
0.4257106681448591
 31
0.0
  0
LINE
  5
9A
100
AcDbEntity
100
AcDbLine
  8
0
 62
7
370
-1
  6
ByLayer
 10
1.0304352581891845
 20
0.4257106681448591
 30
0.0
 11
1.0455296994476517
 21
0.4258985485960357
 31
0.0
  0
LINE
  5
9B
100
AcDbEntity
100
AcDbLine
  8
0
 62
7
370
-1
  6
ByLayer
 10
1.0455296994476517
 20
0.4258985485960357
 30
0.0
 11
1.0614749227558657
 21
0.4260475156785438
 31
0.0
  0
LINE
  5
9C
100
AcDbEntity
100
AcDbLine
  8
0
 62
7
370
-1
  6
ByLayer
 10
1.0614749227558657
 20
0.4260475156785438
 30
0.0
 11
1.0782951242895167
 21
0.4261596891012889
 31
0.0
  0
LINE
  5
9D
100
AcDbEntity
100
AcDbLine
  8
0
 62
7
370
-1
  6
ByLayer
 10
1.0782951242895167
 20
0.4261596891012889
 30
0.0
 11
1.0960145002242954
 21
0.4262371885731764
 31
0.0
  0
LINE
  5
9E
100
AcDbEntity
100
AcDbLine
  8
0
 62
7
370
-1
  6
ByLayer
 10
1.0960145002242954
 20
0.4262371885731764
 30
0.0
 11
1.1146572467358931
 21
0.4262821338031118
 31
0.0
  0
LINE
  5
9F
100
AcDbEntity
100
AcDbLine
  8
0
 62
7
370
-1
  6
ByLayer
 10
1.1146572467358931
 20
0.4262821338031118
 30
0.0
 11
1.1342475600000002
 21
0.4262966445
 31
0.0
  0
LINE
  5
A0
100
AcDbEntity
100
AcDbLine
  8
0
 62
7
370
-1
  6
ByLayer
 10
-1.3772420940000001
 20
0.0160866825
 30
0.0
 11
-1.3772420940000001
 21
0.4262966445
 31
0.0
  0
LINE
  5
A1
100
AcDbEntity
100
AcDbLine
  8
0
 62
7
370
-1
  6
ByLayer
 10
-1.3772420940000001
 20
0.4262966445
 30
0.0
 11
-1.1298684780000001
 21
0.4262966445
 31
0.0
  0
LINE
  5
A2
100
AcDbEntity
100
AcDbLine
  8
0
 62
7
370
-1
  6
ByLayer
 10
1.1332273170000002
 20
-0.3941233365
 30
0.0
 11
1.1185101165927969
 21
-0.3941033083366621
 31
0.0
  0
LINE
  5
A3
100
AcDbEntity
100
AcDbLine
  8
0
 62
7
370
-1
  6
ByLayer
 10
1.1185101165927969
 20
-0.3941033083366621
 30
0.0
 11
1.1040959242938815
 21
-0.3940436623358564
 31
0.0
  0
LINE
  5
A4
100
AcDbEntity
100
AcDbLine
  8
0
 62
7
370
-1
  6
ByLayer
 10
1.1040959242938815
 20
-0.3940436623358564
 30
0.0
 11
1.0899956311001984
 21
-0.3939450562313954
 31
0.0
  0
LINE
  5
A5
100
AcDbEntity
100
AcDbLine
  8
0
 62
7
370
-1
  6
ByLayer
 10
1.0899956311001984
 20
-0.3939450562313954
 30
0.0
 11
1.076220128008694
 21
-0.3938081477570911
 31
0.0
  0
LINE
  5
A6
100
AcDbEntity
100
AcDbLine
  8
0
 62
7
370
-1
  6
ByLayer
 10
1.076220128008694
 20
-0.3938081477570911
 30
0.0
 11
1.0627803060163137
 21
-0.3936335946467558
 31
0.0
  0
LINE
  5
A7
100
AcDbEntity
100
AcDbLine
  8
0
 62
7
370
-1
  6
ByLayer
 10
1.0627803060163137
 20
-0.3936335946467558
 30
0.0
 11
1.0496870561200029
 21
-0.3934220546342016
 31
0.0
  0
LINE
  5
A8
100
AcDbEntity
100
AcDbLine
  8
0
 62
7
370
-1
  6
ByLayer
 10
1.0496870561200029
 20
-0.3934220546342016
 30
0.0
 11
1.0369512693167064
 21
-0.393174185453241
 31
0.0
  0
LINE
  5
A9
100
AcDbEntity
100
AcDbLine
  8
0
 62
7
370
-1
  6
ByLayer
 10
1.0369512693167064
 20
-0.393174185453241
 30
0.0
 11
1.0245838366033699
 21
-0.3928906448376859
 31
0.0
  0
LINE
  5
AA
100
AcDbEntity
100
AcDbLine
  8
0
 62
7
370
-1
  6
ByLayer
 10
1.0245838366033699
 20
-0.3928906448376859
 30
0.0
 11
1.0125956489769392
 21
-0.3925720905213487
 31
0.0
  0
LINE
  5
AB
100
AcDbEntity
100
AcDbLine
  8
0
 62
7
370
-1
  6
ByLayer
 10
1.0125956489769392
 20
-0.3925720905213487
 30
0.0
 11
1.000997597434359
 21
-0.3922191802380418
 31
0.0
  0
LINE
  5
AC
100
AcDbEntity
100
AcDbLine
  8
0
 62
7
370
-1
  6
ByLayer
 10
1.000997597434359
 20
-0.3922191802380418
 30
0.0
 11
0.9898005729725758
 21
-0.391832571721577
 31
0.0
  0
LINE
  5
AD
100
AcDbEntity
100
AcDbLine
  8
0
 62
7
370
-1
  6
ByLayer
 10
0.9898005729725758
 20
-0.391832571721577
 30
0.0
 11
0.9790154665885337
 21
-0.3914129227057669
 31
0.0
  0
LINE
  5
AE
100
AcDbEntity
100
AcDbLine
  8
0
 62
7
370
-1
  6
ByLayer
 10
0.9790154665885337
 20
-0.3914129227057669
 30
0.0
 11
0.9686531692791783
 21
-0.3909608909244235
 31
0.0
  0
LINE
  5
AF
100
AcDbEntity
100
AcDbLine
  8
0
 62
7
370
-1
  6
ByLayer
 10
0.9686531692791783
 20
-0.3909608909244235
 30
0.0
 11
0.9587245720414554
 21
-0.3904771341113592
 31
0.0
  0
LINE
  5
B0
100
AcDbEntity
100
AcDbLine
  8
0
 62
7
370
-1
  6
ByLayer
 10
0.9587245720414554
 20
-0.3904771341113592
 30
0.0
 11
0.9492405658723104
 21
-0.3899623100003861
 31
0.0
  0
LINE
  5
B1
100
AcDbEntity
100
AcDbLine
  8
0
 62
7
370
-1
  6
ByLayer
 10
0.9492405658723104
 20
-0.3899623100003861
 30
0.0
 11
0.9402120417686888
 21
-0.3894170763253165
 31
0.0
  0
LINE
  5
B2
100
AcDbEntity
100
AcDbLine
  8
0
 62
7
370
-1
  6
ByLayer
 10
0.9402120417686888
 20
-0.3894170763253165
 30
0.0
 11
0.931649890727535
 21
-0.3888420908199624
 31
0.0
  0
LINE
  5
B3
100
AcDbEntity
100
AcDbLine
  8
0
 62
7
370
-1
  6
ByLayer
 10
0.931649890727535
 20
-0.3888420908199624
 30
0.0
 11
0.9235650037457961
 21
-0.3882380112181363
 31
0.0
  0
LINE
  5
B4
100
AcDbEntity
100
AcDbLine
  8
0
 62
7
370
-1
  6
ByLayer
 10
0.9235650037457961
 20
-0.3882380112181363
 30
0.0
 11
0.9159682718204157
 21
-0.3876054952536505
 31
0.0
  0
LINE
  5
B5
100
AcDbEntity
100
AcDbLine
  8
0
 62
7
370
-1
  6
ByLayer
 10
0.9159682718204157
 20
-0.3876054952536505
 30
0.0
 11
0.9088705859483398
 21
-0.386945200660317
 31
0.0
  0
LINE
  5
B6
100
AcDbEntity
100
AcDbLine
  8
0
 62
7
370
-1
  6
ByLayer
 10
0.9088705859483398
 20
-0.386945200660317
 30
0.0
 11
0.902282837126515
 21
-0.386257785171948
 31
0.0
  0
LINE
  5
B7
100
AcDbEntity
100
AcDbLine
  8
0
 62
7
370
-1
  6
ByLayer
 10
0.902282837126515
 20
-0.386257785171948
 30
0.0
 11
0.8962159163518849
 21
-0.3855439065223558
 31
0.0
  0
LINE
  5
B8
100
AcDbEntity
100
AcDbLine
  8
0
 62
7
370
-1
  6
ByLayer
 10
0.8962159163518849
 20
-0.3855439065223558
 30
0.0
 11
0.8906807146213956
 21
-0.3848042224453526
 31
0.0
  0
LINE
  5
B9
100
AcDbEntity
100
AcDbLine
  8
0
 62
7
370
-1
  6
ByLayer
 10
0.8906807146213956
 20
-0.3848042224453526
 30
0.0
 11
0.8856881229319933
 21
-0.3840393906747508
 31
0.0
  0
LINE
  5
BA
100
AcDbEntity
100
AcDbLine
  8
0
 62
7
370
-1
  6
ByLayer
 10
0.8856881229319933
 20
-0.3840393906747508
 30
0.0
 11
0.8812490322806216
 21
-0.3832500689443624
 31
0.0
  0
LINE
  5
BB
100
AcDbEntity
100
AcDbLine
  8
0
 62
7
370
-1
  6
ByLayer
 10
0.8812490322806216
 20
-0.3832500689443624
 30
0.0
 11
0.8773743336642276
 21
-0.3824369149879998
 31
0.0
  0
LINE
  5
BC
100
AcDbEntity
100
AcDbLine
  8
0
 62
7
370
-1
  6
ByLayer
 10
0.8773743336642276
 20
-0.3824369149879998
 30
0.0
 11
0.8740749180797557
 21
-0.381600586539475
 31
0.0
  0
LINE
  5
BD
100
AcDbEntity
100
AcDbLine
  8
0
 62
7
370
-1
  6
ByLayer
 10
0.8740749180797557
 20
-0.381600586539475
 30
0.0
 11
0.8713616765241513
 21
-0.3807417413326005
 31
0.0
  0
LINE
  5
BE
100
AcDbEntity
100
AcDbLine
  8
0
 62
7
370
-1
  6
ByLayer
 10
0.8713616765241513
 20
-0.3807417413326005
 30
0.0
 11
0.8692454999943604
 21
-0.3798610371011883
 31
0.0
  0
LINE
  5
BF
100
AcDbEntity
100
AcDbLine
  8
0
 62
7
370
-1
  6
ByLayer
 10
0.8692454999943604
 20
-0.3798610371011883
 30
0.0
 11
0.8677372794873284
 21
-0.3789591315790508
 31
0.0
  0
LINE
  5
C0
100
AcDbEntity
100
AcDbLine
  8
0
 62
7
370
-1
  6
ByLayer
 10
0.8677372794873284
 20
-0.3789591315790508
 30
0.0
 11
0.8668479059999999
 21
-0.3780366824999999
 31
0.0
  0
LINE
  5
C1
100
AcDbEntity
100
AcDbLine
  8
0
 62
7
370
-1
  6
ByLayer
 10
0.8668479059999999
 20
-0.3780366824999999
 30
0.0
 11
0.860343690797758
 21
-0.3759658920733611
 31
0.0
  0
LINE
  5
C2
100
AcDbEntity
100
AcDbLine
  8
0
 62
7
370
-1
  6
ByLayer
 10
0.860343690797758
 20
-0.3759658920733611
 30
0.0
 11
0.8439315440865363
 21
-0.3740331543418315
 31
0.0
  0
LINE
  5
C3
100
AcDbEntity
100
AcDbLine
  8
0
 62
7
370
-1
  6
ByLayer
 10
0.8439315440865363
 20
-0.3740331543418315
 30
0.0
 11
0.8182947714999164
 21
-0.372238469305411
 31
0.0
  0
LINE
  5
C4
100
AcDbEntity
100
AcDbLine
  8
0
 62
7
370
-1
  6
ByLayer
 10
0.8182947714999164
 20
-0.372238469305411
 30
0.0
 11
0.7841166786714779
 21
-0.3705818369641
 31
0.0
  0
LINE
  5
C5
100
AcDbEntity
100
AcDbLine
  8
0
 62
7
370
-1
  6
ByLayer
 10
0.7841166786714779
 20
-0.3705818369641
 30
0.0
 11
0.7420805712348019
 21
-0.3690632573178981
 31
0.0
  0
LINE
  5
C6
100
AcDbEntity
100
AcDbLine
  8
0
 62
7
370
-1
  6
ByLayer
 10
0.7420805712348019
 20
-0.3690632573178981
 30
0.0
 11
0.6928697548234702
 21
-0.3676827303668054
 31
0.0
  0
LINE
  5
C7
100
AcDbEntity
100
AcDbLine
  8
0
 62
7
370
-1
  6
ByLayer
 10
0.6928697548234702
 20
-0.3676827303668054
 30
0.0
 11
0.6371675350710617
 21
-0.366440256110822
 31
0.0
  0
LINE
  5
C8
100
AcDbEntity
100
AcDbLine
  8
0
 62
7
370
-1
  6
ByLayer
 10
0.6371675350710617
 20
-0.366440256110822
 30
0.0
 11
0.5756572176111578
 21
-0.365335834549948
 31
0.0
  0
LINE
  5
C9
100
AcDbEntity
100
AcDbLine
  8
0
 62
7
370
-1
  6
ByLayer
 10
0.5756572176111578
 20
-0.365335834549948
 30
0.0
 11
0.5090221080773383
 21
-0.3643694656841832
 31
0.0
  0
LINE
  5
CA
100
AcDbEntity
100
AcDbLine
  8
0
 62
7
370
-1
  6
ByLayer
 10
0.5090221080773383
 20
-0.3643694656841832
 30
0.0
 11
0.4379455121031854
 21
-0.3635411495135277
 31
0.0
  0
LINE
  5
CB
100
AcDbEntity
100
AcDbLine
  8
0
 62
7
370
-1
  6
ByLayer
 10
0.4379455121031854
 20
-0.3635411495135277
 30
0.0
 11
0.3631107353222787
 21
-0.3628508860379813
 31
0.0
  0
LINE
  5
CC
100
AcDbEntity
100
AcDbLine
  8
0
 62
7
370
-1
  6
ByLayer
 10
0.3631107353222787
 20
-0.3628508860379813
 30
0.0
 11
0.2852010833681985
 21
-0.3622986752575442
 31
0.0
  0
LINE
  5
CD
100
AcDbEntity
100
AcDbLine
  8
0
 62
7
370
-1
  6
ByLayer
 10
0.2852010833681985
 20
-0.3622986752575442
 30
0.0
 11
0.2048998618745263
 21
-0.3618845171722165
 31
0.0
  0
LINE
  5
CE
100
AcDbEntity
100
AcDbLine
  8
0
 62
7
370
-1
  6
ByLayer
 10
0.2048998618745263
 20
-0.3618845171722165
 30
0.0
 11
0.1228903764748419
 21
-0.361608411781998
 31
0.0
  0
LINE
  5
CF
100
AcDbEntity
100
AcDbLine
  8
0
 62
7
370
-1
  6
ByLayer
 10
0.1228903764748419
 20
-0.361608411781998
 30
0.0
 11
0.0398559328027262
 21
-0.3614703590868886
 31
0.0
  0
LINE
  5
D0
100
AcDbEntity
100
AcDbLine
  8
0
 62
7
370
-1
  6
ByLayer
 10
0.0398559328027262
 20
-0.3614703590868886
 30
0.0
 11
-0.0435201635082401
 21
-0.3614703590868886
 31
0.0
  0
LINE
  5
D1
100
AcDbEntity
100
AcDbLine
  8
0
 62
7
370
-1
  6
ByLayer
 10
-0.0435201635082401
 20
-0.3614703590868886
 30
0.0
 11
-0.1265546068244765
 21
-0.361608411781998
 31
0.0
  0
LINE
  5
D2
100
AcDbEntity
100
AcDbLine
  8
0
 62
7
370
-1
  6
ByLayer
 10
-0.1265546068244765
 20
-0.361608411781998
 30
0.0
 11
-0.2085640915124025
 21
-0.3618845171722165
 31
0.0
  0
LINE
  5
D3
100
AcDbEntity
100
AcDbLine
  8
0
 62
7
370
-1
  6
ByLayer
 10
-0.2085640915124025
 20
-0.3618845171722165
 30
0.0
 11
-0.2888653119384371
 21
-0.3622986752575442
 31
0.0
  0
LINE
  5
D4
100
AcDbEntity
100
AcDbLine
  8
0
 62
7
370
-1
  6
ByLayer
 10
-0.2888653119384371
 20
-0.3622986752575442
 30
0.0
 11
-0.3667749624690001
 21
-0.3628508860379813
 31
0.0
  0
LINE
  5
D5
100
AcDbEntity
100
AcDbLine
  8
0
 62
7
370
-1
  6
ByLayer
 10
-0.3667749624690001
 20
-0.3628508860379813
 30
0.0
 11
-0.4416097374705104
 21
-0.3635411495135276
 31
0.0
  0
LINE
  5
D6
100
AcDbEntity
100
AcDbLine
  8
0
 62
7
370
-1
  6
ByLayer
 10
-0.4416097374705104
 20
-0.3635411495135276
 30
0.0
 11
-0.5126863313093878
 21
-0.3643694656841832
 31
0.0
  0
LINE
  5
D7
100
AcDbEntity
100
AcDbLine
  8
0
 62
7
370
-1
  6
ByLayer
 10
-0.5126863313093878
 20
-0.3643694656841832
 30
0.0
 11
-0.5793214383520517
 21
-0.3653358345499479
 31
0.0
  0
LINE
  5
D8
100
AcDbEntity
100
AcDbLine
  8
0
 62
7
370
-1
  6
ByLayer
 10
-0.5793214383520517
 20
-0.3653358345499479
 30
0.0
 11
-0.6408317529649216
 21
-0.366440256110822
 31
0.0
  0
LINE
  5
D9
100
AcDbEntity
100
AcDbLine
  8
0
 62
7
370
-1
  6
ByLayer
 10
-0.6408317529649216
 20
-0.366440256110822
 30
0.0
 11
-0.6965339695144163
 21
-0.3676827303668054
 31
0.0
  0
LINE
  5
DA
100
AcDbEntity
100
AcDbLine
  8
0
 62
7
370
-1
  6
ByLayer
 10
-0.6965339695144163
 20
-0.3676827303668054
 30
0.0
 11
-0.7457447823669558
 21
-0.369063257317898
 31
0.0
  0
LINE
  5
DB
100
AcDbEntity
100
AcDbLine
  8
0
 62
7
370
-1
  6
ByLayer
 10
-0.7457447823669558
 20
-0.369063257317898
 30
0.0
 11
-0.7877808858889592
 21
-0.3705818369640999
 31
0.0
  0
LINE
  5
DC
100
AcDbEntity
100
AcDbLine
  8
0
 62
7
370
-1
  6
ByLayer
 10
-0.7877808858889592
 20
-0.3705818369640999
 30
0.0
 11
-0.8219589744468458
 21
-0.372238469305411
 31
0.0
  0
LINE
  5
DD
100
AcDbEntity
100
AcDbLine
  8
0
 62
7
370
-1
  6
ByLayer
 10
-0.8219589744468458
 20
-0.372238469305411
 30
0.0
 11
-0.8475957424070354
 21
-0.3740331543418314
 31
0.0
  0
LINE
  5
DE
100
AcDbEntity
100
AcDbLine
  8
0
 62
7
370
-1
  6
ByLayer
 10
-0.8475957424070354
 20
-0.3740331543418314
 30
0.0
 11
-0.864007884135947
 21
-0.3759658920733611
 31
0.0
  0
LINE
  5
DF
100
AcDbEntity
100
AcDbLine
  8
0
 62
7
370
-1
  6
ByLayer
 10
-0.864007884135947
 20
-0.3759658920733611
 30
0.0
 11
-0.8705120940000001
 21
-0.3780366824999999
 31
0.0
  0
LINE
  5
E0
100
AcDbEntity
100
AcDbLine
  8
0
 62
7
370
-1
  6
ByLayer
 10
-0.8705120940000001
 20
-0.3780366824999999
 30
0.0
 11
-0.8713911245043134
 21
-0.3789559389973985
 31
0.0
  0
LINE
  5
E1
100
AcDbEntity
100
AcDbLine
  8
0
 62
7
370
-1
  6
ByLayer
 10
-0.8713911245043134
 20
-0.3789559389973985
 30
0.0
 11
-0.8728725215912188
 21
-0.3798550705208116
 31
0.0
  0
LINE
  5
E2
100
AcDbEntity
100
AcDbLine
  8
0
 62
7
370
-1
  6
ByLayer
 10
-0.8728725215912188
 20
-0.3798550705208116
 30
0.0
 11
-0.8749453810732771
 21
-0.3807333980525495
 31
0.0
  0
LINE
  5
E3
100
AcDbEntity
100
AcDbLine
  8
0
 62
7
370
-1
  6
ByLayer
 10
-0.8749453810732771
 20
-0.3807333980525495
 30
0.0
 11
-0.8775987987630492
 21
-0.381590242574922
 31
0.0
  0
LINE
  5
E4
100
AcDbEntity
100
AcDbLine
  8
0
 62
7
370
-1
  6
ByLayer
 10
-0.8775987987630492
 20
-0.381590242574922
 30
0.0
 11
-0.880821870473096
 21
-0.3824249250702394
 31
0.0
  0
LINE
  5
E5
100
AcDbEntity
100
AcDbLine
  8
0
 62
7
370
-1
  6
ByLayer
 10
-0.880821870473096
 20
-0.3824249250702394
 30
0.0
 11
-0.884603692015978
 21
-0.3832367665208117
 31
0.0
  0
LINE
  5
E6
100
AcDbEntity
100
AcDbLine
  8
0
 62
7
370
-1
  6
ByLayer
 10
-0.884603692015978
 20
-0.3832367665208117
 30
0.0
 11
-0.8889333592042563
 21
-0.384025087908949
 31
0.0
  0
LINE
  5
E7
100
AcDbEntity
100
AcDbLine
  8
0
 62
7
370
-1
  6
ByLayer
 10
-0.8889333592042563
 20
-0.384025087908949
 30
0.0
 11
-0.8937999678504918
 21
-0.3847892102169615
 31
0.0
  0
LINE
  5
E8
100
AcDbEntity
100
AcDbLine
  8
0
 62
7
370
-1
  6
ByLayer
 10
-0.8937999678504918
 20
-0.3847892102169615
 30
0.0
 11
-0.8991926137672452
 21
-0.3855284544271593
 31
0.0
  0
LINE
  5
E9
100
AcDbEntity
100
AcDbLine
  8
0
 62
7
370
-1
  6
ByLayer
 10
-0.8991926137672452
 20
-0.3855284544271593
 30
0.0
 11
-0.9051003927670774
 21
-0.3862421415218522
 31
0.0
  0
LINE
  5
EA
100
AcDbEntity
100
AcDbLine
  8
0
 62
7
370
-1
  6
ByLayer
 10
-0.9051003927670774
 20
-0.3862421415218522
 30
0.0
 11
-0.9115124006625491
 21
-0.3869295924833507
 31
0.0
  0
LINE
  5
EB
100
AcDbEntity
100
AcDbLine
  8
0
 62
7
370
-1
  6
ByLayer
 10
-0.9115124006625491
 20
-0.3869295924833507
 30
0.0
 11
-0.9184177332662214
 21
-0.3875901282939646
 31
0.0
  0
LINE
  5
EC
100
AcDbEntity
100
AcDbLine
  8
0
 62
7
370
-1
  6
ByLayer
 10
-0.9184177332662214
 20
-0.3875901282939646
 30
0.0
 11
-0.925805486390655
 21
-0.3882230699360042
 31
0.0
  0
LINE
  5
ED
100
AcDbEntity
100
AcDbLine
  8
0
 62
7
370
-1
  6
ByLayer
 10
-0.925805486390655
 20
-0.3882230699360042
 30
0.0
 11
-0.9336647558484106
 21
-0.3888277383917795
 31
0.0
  0
LINE
  5
EE
100
AcDbEntity
100
AcDbLine
  8
0
 62
7
370
-1
  6
ByLayer
 10
-0.9336647558484106
 20
-0.3888277383917795
 30
0.0
 11
-0.9419846374520492
 21
-0.3894034546436004
 31
0.0
  0
LINE
  5
EF
100
AcDbEntity
100
AcDbLine
  8
0
 62
7
370
-1
  6
ByLayer
 10
-0.9419846374520492
 20
-0.3894034546436004
 30
0.0
 11
-0.9507542270141317
 21
-0.3899495396737773
 31
0.0
  0
LINE
  5
F0
100
AcDbEntity
100
AcDbLine
  8
0
 62
7
370
-1
  6
ByLayer
 10
-0.9507542270141317
 20
-0.3899495396737773
 30
0.0
 11
-0.959962620347219
 21
-0.3904653144646202
 31
0.0
  0
LINE
  5
F1
100
AcDbEntity
100
AcDbLine
  8
0
 62
7
370
-1
  6
ByLayer
 10
-0.959962620347219
 20
-0.3904653144646202
 30
0.0
 11
-0.9695989132638716
 21
-0.3909500999984392
 31
0.0
  0
LINE
  5
F2
100
AcDbEntity
100
AcDbLine
  8
0
 62
7
370
-1
  6
ByLayer
 10
-0.9695989132638716
 20
-0.3909500999984392
 30
0.0
 11
-0.9796522015766504
 21
-0.3914032172575442
 31
0.0
  0
LINE
  5
F3
100
AcDbEntity
100
AcDbLine
  8
0
 62
7
370
-1
  6
ByLayer
 10
-0.9796522015766504
 20
-0.3914032172575442
 30
0.0
 11
-0.9901115810981167
 21
-0.3918239872242456
 31
0.0
  0
LINE
  5
F4
100
AcDbEntity
100
AcDbLine
  8
0
 62
7
370
-1
  6
ByLayer
 10
-0.9901115810981167
 20
-0.3918239872242456
 30
0.0
 11
-1.0009661476408309
 21
-0.3922117308808533
 31
0.0
  0
LINE
  5
F5
100
AcDbEntity
100
AcDbLine
  8
0
 62
7
370
-1
  6
ByLayer
 10
-1.0009661476408309
 20
-0.3922117308808533
 30
0.0
 11
-1.0122049970173541
 21
-0.3925657692096774
 31
0.0
  0
LINE
  5
F6
100
AcDbEntity
100
AcDbLine
  8
0
 62
7
370
-1
  6
ByLayer
 10
-1.0122049970173541
 20
-0.3925657692096774
 30
0.0
 11
-1.0238172250402471
 21
-0.3928854231930281
 31
0.0
  0
LINE
  5
F7
100
AcDbEntity
100
AcDbLine
  8
0
 62
7
370
-1
  6
ByLayer
 10
-1.0238172250402471
 20
-0.3928854231930281
 30
0.0
 11
-1.0357919275220702
 21
-0.3931700138132154
 31
0.0
  0
LINE
  5
F8
100
AcDbEntity
100
AcDbLine
  8
0
 62
7
370
-1
  6
ByLayer
 10
-1.0357919275220702
 20
-0.3931700138132154
 30
0.0
 11
-1.048118200275385
 21
-0.3934188620525494
 31
0.0
  0
LINE
  5
F9
100
AcDbEntity
100
AcDbLine
  8
0
 62
7
370
-1
  6
ByLayer
 10
-1.048118200275385
 20
-0.3934188620525494
 30
0.0
 11
-1.0607851391127521
 21
-0.3936312888933403
 31
0.0
  0
LINE
  5
FA
100
AcDbEntity
100
AcDbLine
  8
0
 62
7
370
-1
  6
ByLayer
 10
-1.0607851391127521
 20
-0.3936312888933403
 30
0.0
 11
-1.073781839846732
 21
-0.393806615317898
 31
0.0
  0
LINE
  5
FB
100
AcDbEntity
100
AcDbLine
  8
0
 62
7
370
-1
  6
ByLayer
 10
-1.073781839846732
 20
-0.393806615317898
 30
0.0
 11
-1.0870973982898859
 21
-0.3939441623085328
 31
0.0
  0
LINE
  5
FC
100
AcDbEntity
100
AcDbLine
  8
0
 62
7
370
-1
  6
ByLayer
 10
-1.0870973982898859
 20
-0.3939441623085328
 30
0.0
 11
-1.1007209102547748
 21
-0.3940432508475546
 31
0.0
  0
LINE
  5
FD
100
AcDbEntity
100
AcDbLine
  8
0
 62
7
370
-1
  6
ByLayer
 10
-1.1007209102547748
 20
-0.3940432508475546
 30
0.0
 11
-1.114641471553959
 21
-0.3941032019172737
 31
0.0
  0
LINE
  5
FE
100
AcDbEntity
100
AcDbLine
  8
0
 62
7
370
-1
  6
ByLayer
 10
-1.114641471553959
 20
-0.3941032019172737
 30
0.0
 11
-1.1288481780000001
 21
-0.3941233365
 31
0.0
  0
LINE
  5
FF
100
AcDbEntity
100
AcDbLine
  8
0
 62
7
370
-1
  6
ByLayer
 10
1.1342475600000002
 20
0.4262966445
 30
0.0
 11
1.3896645600000002
 21
0.4262966445
 31
0.0
  0
LINE
  5
100
100
AcDbEntity
100
AcDbLine
  8
0
 62
7
370
-1
  6
ByLayer
 10
1.3896645600000002
 20
0.4262966445
 30
0.0
 11
1.3896645600000002
 21
0.0160866825
 31
0.0
  0
LINE
  5
101
100
AcDbEntity
100
AcDbLine
  8
0
 62
7
370
-1
  6
ByLayer
 10
1.3896645600000002
 20
0.0160866825
 30
0.0
 11
1.3896645600000002
 21
-0.3941233365
 31
0.0
  0
LINE
  5
102
100
AcDbEntity
100
AcDbLine
  8
0
 62
7
370
-1
  6
ByLayer
 10
1.3896645600000002
 20
-0.3941233365
 30
0.0
 11
1.1332273170000002
 21
-0.3941233365
 31
0.0
  0
LINE
  5
103
100
AcDbEntity
100
AcDbLine
  8
0
 62
7
370
-1
  6
ByLayer
 10
-0.4184535870000001
 20
-0.2485533735
 30
0.0
 11
-0.4148153451853243
 21
-0.2467546295837166
 31
0.0
  0
LINE
  5
104
100
AcDbEntity
100
AcDbLine
  8
0
 62
7
370
-1
  6
ByLayer
 10
-0.4148153451853243
 20
-0.2467546295837166
 30
0.0
 11
-0.4111536575377461
 21
-0.2448707969605753
 31
0.0
  0
LINE
  5
105
100
AcDbEntity
100
AcDbLine
  8
0
 62
7
370
-1
  6
ByLayer
 10
-0.4111536575377461
 20
-0.2448707969605753
 30
0.0
 11
-0.4074751450422612
 21
-0.2429069784804303
 31
0.0
  0
LINE
  5
106
100
AcDbEntity
100
AcDbLine
  8
0
 62
7
370
-1
  6
ByLayer
 10
-0.4074751450422612
 20
-0.2429069784804303
 30
0.0
 11
-0.4037864286838642
 21
-0.2408682769931355
 31
0.0
  0
LINE
  5
107
100
AcDbEntity
100
AcDbLine
  8
0
 62
7
370
-1
  6
ByLayer
 10
-0.4037864286838642
 20
-0.2408682769931355
 30
0.0
 11
-0.4000941294475512
 21
-0.2387597953485449
 31
0.0
  0
LINE
  5
108
100
AcDbEntity
100
AcDbLine
  8
0
 62
7
370
-1
  6
ByLayer
 10
-0.4000941294475512
 20
-0.2387597953485449
 30
0.0
 11
-0.3964048683183178
 21
-0.2365866363965123
 31
0.0
  0
LINE
  5
109
100
AcDbEntity
100
AcDbLine
  8
0
 62
7
370
-1
  6
ByLayer
 10
-0.3964048683183178
 20
-0.2365866363965123
 30
0.0
 11
-0.3927252662811591
 21
-0.234353902986892
 31
0.0
  0
LINE
  5
10A
100
AcDbEntity
100
AcDbLine
  8
0
 62
7
370
-1
  6
ByLayer
 10
-0.3927252662811591
 20
-0.234353902986892
 30
0.0
 11
-0.3890619443210701
 21
-0.2320666979695378
 31
0.0
  0
LINE
  5
10B
100
AcDbEntity
100
AcDbLine
  8
0
 62
7
370
-1
  6
ByLayer
 10
-0.3890619443210701
 20
-0.2320666979695378
 30
0.0
 11
-0.3854215234230474
 21
-0.2297301241943037
 31
0.0
  0
LINE
  5
10C
100
AcDbEntity
100
AcDbLine
  8
0
 62
7
370
-1
  6
ByLayer
 10
-0.3854215234230474
 20
-0.2297301241943037
 30
0.0
 11
-0.3818106245720857
 21
-0.2273492845110437
 31
0.0
  0
LINE
  5
10D
100
AcDbEntity
100
AcDbLine
  8
0
 62
7
370
-1
  6
ByLayer
 10
-0.3818106245720857
 20
-0.2273492845110437
 30
0.0
 11
-0.3782358687531806
 21
-0.2249292817696116
 31
0.0
  0
LINE
  5
10E
100
AcDbEntity
100
AcDbLine
  8
0
 62
7
370
-1
  6
ByLayer
 10
-0.3782358687531806
 20
-0.2249292817696116
 30
0.0
 11
-0.3747038769513275
 21
-0.2224752188198617
 31
0.0
  0
LINE
  5
10F
100
AcDbEntity
100
AcDbLine
  8
0
 62
7
370
-1
  6
ByLayer
 10
-0.3747038769513275
 20
-0.2224752188198617
 30
0.0
 11
-0.3712212701515223
 21
-0.2199921985116478
 31
0.0
  0
LINE
  5
110
100
AcDbEntity
100
AcDbLine
  8
0
 62
7
370
-1
  6
ByLayer
 10
-0.3712212701515223
 20
-0.2199921985116478
 30
0.0
 11
-0.3677946693387603
 21
-0.217485323694824
 31
0.0
  0
LINE
  5
111
100
AcDbEntity
100
AcDbLine
  8
0
 62
7
370
-1
  6
ByLayer
 10
-0.3677946693387603
 20
-0.217485323694824
 30
0.0
 11
-0.3644306954980364
 21
-0.2149596972192441
 31
0.0
  0
LINE
  5
112
100
AcDbEntity
100
AcDbLine
  8
0
 62
7
370
-1
  6
ByLayer
 10
-0.3644306954980364
 20
-0.2149596972192441
 30
0.0
 11
-0.3611359696143468
 21
-0.2124204219347622
 31
0.0
  0
LINE
  5
113
100
AcDbEntity
100
AcDbLine
  8
0
 62
7
370
-1
  6
ByLayer
 10
-0.3611359696143468
 20
-0.2124204219347622
 30
0.0
 11
-0.3579171126726864
 21
-0.2098726006912323
 31
0.0
  0
LINE
  5
114
100
AcDbEntity
100
AcDbLine
  8
0
 62
7
370
-1
  6
ByLayer
 10
-0.3579171126726864
 20
-0.2098726006912323
 30
0.0
 11
-0.3547807456580511
 21
-0.2073213363385083
 31
0.0
  0
LINE
  5
115
100
AcDbEntity
100
AcDbLine
  8
0
 62
7
370
-1
  6
ByLayer
 10
-0.3547807456580511
 20
-0.2073213363385083
 30
0.0
 11
-0.3517334895554364
 21
-0.2047717317264443
 31
0.0
  0
LINE
  5
116
100
AcDbEntity
100
AcDbLine
  8
0
 62
7
370
-1
  6
ByLayer
 10
-0.3517334895554364
 20
-0.2047717317264443
 30
0.0
 11
-0.3487819653498372
 21
-0.2022288897048941
 31
0.0
  0
LINE
  5
117
100
AcDbEntity
100
AcDbLine
  8
0
 62
7
370
-1
  6
ByLayer
 10
-0.3487819653498372
 20
-0.2022288897048941
 30
0.0
 11
-0.3459327940262494
 21
-0.1996979131237119
 31
0.0
  0
LINE
  5
118
100
AcDbEntity
100
AcDbLine
  8
0
 62
7
370
-1
  6
ByLayer
 10
-0.3459327940262494
 20
-0.1996979131237119
 30
0.0
 11
-0.3431925965696688
 21
-0.1971839048327516
 31
0.0
  0
LINE
  5
119
100
AcDbEntity
100
AcDbLine
  8
0
 62
7
370
-1
  6
ByLayer
 10
-0.3431925965696688
 20
-0.1971839048327516
 30
0.0
 11
-0.3405679939650901
 21
-0.1946919676818671
 31
0.0
  0
LINE
  5
11A
100
AcDbEntity
100
AcDbLine
  8
0
 62
7
370
-1
  6
ByLayer
 10
-0.3405679939650901
 20
-0.1946919676818671
 30
0.0
 11
-0.3380656071975094
 21
-0.1922272045209124
 31
0.0
  0
LINE
  5
11B
100
AcDbEntity
100
AcDbLine
  8
0
 62
7
370
-1
  6
ByLayer
 10
-0.3380656071975094
 20
-0.1922272045209124
 30
0.0
 11
-0.335692057251922
 21
-0.1897947181997416
 31
0.0
  0
LINE
  5
11C
100
AcDbEntity
100
AcDbLine
  8
0
 62
7
370
-1
  6
ByLayer
 10
-0.335692057251922
 20
-0.1897947181997416
 30
0.0
 11
-0.333453965113323
 21
-0.1873996115682086
 31
0.0
  0
LINE
  5
11D
100
AcDbEntity
100
AcDbLine
  8
0
 62
7
370
-1
  6
ByLayer
 10
-0.333453965113323
 20
-0.1873996115682086
 30
0.0
 11
-0.3313579517667082
 21
-0.1850469874761674
 31
0.0
  0
LINE
  5
11E
100
AcDbEntity
100
AcDbLine
  8
0
 62
7
370
-1
  6
ByLayer
 10
-0.3313579517667082
 20
-0.1850469874761674
 30
0.0
 11
-0.3294106381970728
 21
-0.1827419487734719
 31
0.0
  0
LINE
  5
11F
100
AcDbEntity
100
AcDbLine
  8
0
 62
7
370
-1
  6
ByLayer
 10
-0.3294106381970728
 20
-0.1827419487734719
 30
0.0
 11
-0.327618645389413
 21
-0.1804895983099763
 31
0.0
  0
LINE
  5
120
100
AcDbEntity
100
AcDbLine
  8
0
 62
7
370
-1
  6
ByLayer
 10
-0.327618645389413
 20
-0.1804895983099763
 30
0.0
 11
-0.3259885943287234
 21
-0.1782950389355343
 31
0.0
  0
LINE
  5
121
100
AcDbEntity
100
AcDbLine
  8
0
 62
7
370
-1
  6
ByLayer
 10
-0.3259885943287234
 20
-0.1782950389355343
 30
0.0
 11
-0.324527106
 21
-0.1761633735
 31
0.0
  0
LINE
  5
122
100
AcDbEntity
100
AcDbLine
  8
0
 62
7
370
-1
  6
ByLayer
 10
-1.1288481780000001
 20
-0.3941233365
 30
0.0
 11
-1.3772420940000001
 21
-0.3941233365
 31
0.0
  0
LINE
  5
123
100
AcDbEntity
100
AcDbLine
  8
0
 62
7
370
-1
  6
ByLayer
 10
-1.3772420940000001
 20
-0.3941233365
 30
0.0
 11
-1.3772420940000001
 21
0.0160866825
 31
0.0
  0
LINE
  5
124
100
AcDbEntity
100
AcDbLine
  8
0
 62
7
370
-1
  6
ByLayer
 10
-1.3772420940000001
 20
0.0160866825
 30
0.0
 11
-1.3772420940000001
 21
0.0160866825
 31
0.0
  0
LINE
  5
125
100
AcDbEntity
100
AcDbLine
  8
0
 62
7
370
-1
  6
ByLayer
 10
0.3324082680000001
 20
-0.1789743285
 30
0.0
 11
0.3366532606235106
 21
-0.1841069757291632
 31
0.0
  0
LINE
  5
126
100
AcDbEntity
100
AcDbLine
  8
0
 62
7
370
-1
  6
ByLayer
 10
0.3366532606235106
 20
-0.1841069757291632
 30
0.0
 11
0.3412759796707061
 21
-0.1892022514883522
 31
0.0
  0
LINE
  5
127
100
AcDbEntity
100
AcDbLine
  8
0
 62
7
370
-1
  6
ByLayer
 10
0.3412759796707061
 20
-0.1892022514883522
 30
0.0
 11
0.3462571842291635
 21
-0.1942512795625357
 31
0.0
  0
LINE
  5
128
100
AcDbEntity
100
AcDbLine
  8
0
 62
7
370
-1
  6
ByLayer
 10
0.3462571842291635
 20
-0.1942512795625357
 30
0.0
 11
0.3515776333864589
 21
-0.1992451837366823
 31
0.0
  0
LINE
  5
129
100
AcDbEntity
100
AcDbLine
  8
0
 62
7
370
-1
  6
ByLayer
 10
0.3515776333864589
 20
-0.1992451837366823
 30
0.0
 11
0.3572180862301701
 21
-0.2041750877957605
 31
0.0
  0
LINE
  5
12A
100
AcDbEntity
100
AcDbLine
  8
0
 62
7
370
-1
  6
ByLayer
 10
0.3572180862301701
 20
-0.2041750877957605
 30
0.0
 11
0.3631593018478737
 21
-0.209032115524739
 31
0.0
  0
LINE
  5
12B
100
AcDbEntity
100
AcDbLine
  8
0
 62
7
370
-1
  6
ByLayer
 10
0.3631593018478737
 20
-0.209032115524739
 30
0.0
 11
0.3693820393271459
 21
-0.2138073907085865
 31
0.0
  0
LINE
  5
12C
100
AcDbEntity
100
AcDbLine
  8
0
 62
7
370
-1
  6
ByLayer
 10
0.3693820393271459
 20
-0.2138073907085865
 30
0.0
 11
0.3758670577555638
 21
-0.2184920371322715
 31
0.0
  0
LINE
  5
12D
100
AcDbEntity
100
AcDbLine
  8
0
 62
7
370
-1
  6
ByLayer
 10
0.3758670577555638
 20
-0.2184920371322715
 30
0.0
 11
0.3825951162207037
 21
-0.2230771785807627
 31
0.0
  0
LINE
  5
12E
100
AcDbEntity
100
AcDbLine
  8
0
 62
7
370
-1
  6
ByLayer
 10
0.3825951162207037
 20
-0.2230771785807627
 30
0.0
 11
0.3895469738101436
 21
-0.2275539388390286
 31
0.0
  0
LINE
  5
12F
100
AcDbEntity
100
AcDbLine
  8
0
 62
7
370
-1
  6
ByLayer
 10
0.3895469738101436
 20
-0.2275539388390286
 30
0.0
 11
0.39670338961146
 21
-0.2319134416920379
 31
0.0
  0
LINE
  5
130
100
AcDbEntity
100
AcDbLine
  8
0
 62
7
370
-1
  6
ByLayer
 10
0.39670338961146
 20
-0.2319134416920379
 30
0.0
 11
0.4040451227122283
 21
-0.2361468109247592
 31
0.0
  0
LINE
  5
131
100
AcDbEntity
100
AcDbLine
  8
0
 62
7
370
-1
  6
ByLayer
 10
0.4040451227122283
 20
-0.2361468109247592
 30
0.0
 11
0.4115529322000268
 21
-0.240245170322161
 31
0.0
  0
LINE
  5
132
100
AcDbEntity
100
AcDbLine
  8
0
 62
7
370
-1
  6
ByLayer
 10
0.4115529322000268
 20
-0.240245170322161
 30
0.0
 11
0.4192075771624316
 21
-0.2441996436692122
 31
0.0
  0
LINE
  5
133
100
AcDbEntity
100
AcDbLine
  8
0
 62
7
370
-1
  6
ByLayer
 10
0.4192075771624316
 20
-0.2441996436692122
 30
0.0
 11
0.4269898166870198
 21
-0.2480013547508811
 31
0.0
  0
LINE
  5
134
100
AcDbEntity
100
AcDbLine
  8
0
 62
7
370
-1
  6
ByLayer
 10
0.4269898166870198
 20
-0.2480013547508811
 30
0.0
 11
0.4348804098613676
 21
-0.2516414273521366
 31
0.0
  0
LINE
  5
135
100
AcDbEntity
100
AcDbLine
  8
0
 62
7
370
-1
  6
ByLayer
 10
0.4348804098613676
 20
-0.2516414273521366
 30
0.0
 11
0.4428601157730522
 21
-0.255110985257947
 31
0.0
  0
LINE
  5
136
100
AcDbEntity
100
AcDbLine
  8
0
 62
7
370
-1
  6
ByLayer
 10
0.4428601157730522
 20
-0.255110985257947
 30
0.0
 11
0.4509096935096505
 21
-0.2584011522532812
 31
0.0
  0
LINE
  5
137
100
AcDbEntity
100
AcDbLine
  8
0
 62
7
370
-1
  6
ByLayer
 10
0.4509096935096505
 20
-0.2584011522532812
 30
0.0
 11
0.4590099021587389
 21
-0.2615030521231076
 31
0.0
  0
LINE
  5
138
100
AcDbEntity
100
AcDbLine
  8
0
 62
7
370
-1
  6
ByLayer
 10
0.4590099021587389
 20
-0.2615030521231076
 30
0.0
 11
0.4671415008078949
 21
-0.264407808652395
 31
0.0
  0
LINE
  5
139
100
AcDbEntity
100
AcDbLine
  8
0
 62
7
370
-1
  6
ByLayer
 10
0.4671415008078949
 20
-0.264407808652395
 30
0.0
 11
0.4752852485446946
 21
-0.2671065456261119
 31
0.0
  0
LINE
  5
13A
100
AcDbEntity
100
AcDbLine
  8
0
 62
7
370
-1
  6
ByLayer
 10
0.4752852485446946
 20
-0.2671065456261119
 30
0.0
 11
0.4834219044567152
 21
-0.2695903868292269
 31
0.0
  0
LINE
  5
13B
100
AcDbEntity
100
AcDbLine
  8
0
 62
7
370
-1
  6
ByLayer
 10
0.4834219044567152
 20
-0.2695903868292269
 30
0.0
 11
0.4915322276315327
 21
-0.2718504560467087
 31
0.0
  0
LINE
  5
13C
100
AcDbEntity
100
AcDbLine
  8
0
 62
7
370
-1
  6
ByLayer
 10
0.4915322276315327
 20
-0.2718504560467087
 30
0.0
 11
0.499596977156725
 21
-0.2738778770635259
 31
0.0
  0
LINE
  5
13D
100
AcDbEntity
100
AcDbLine
  8
0
 62
7
370
-1
  6
ByLayer
 10
0.499596977156725
 20
-0.2738778770635259
 30
0.0
 11
0.5075969121198682
 21
-0.275663773664647
 31
0.0
  0
LINE
  5
13E
100
AcDbEntity
100
AcDbLine
  8
0
 62
7
370
-1
  6
ByLayer
 10
0.5075969121198682
 20
-0.275663773664647
 30
0.0
 11
0.5155127916085391
 21
-0.2771992696350408
 31
0.0
  0
LINE
  5
13F
100
AcDbEntity
100
AcDbLine
  8
0
 62
7
370
-1
  6
ByLayer
 10
0.5155127916085391
 20
-0.2771992696350408
 30
0.0
 11
0.523325374710315
 21
-0.2784754887596758
 31
0.0
  0
LINE
  5
140
100
AcDbEntity
100
AcDbLine
  8
0
 62
7
370
-1
  6
ByLayer
 10
0.523325374710315
 20
-0.2784754887596758
 30
0.0
 11
0.5310154205127721
 21
-0.2794835548235205
 31
0.0
  0
LINE
  5
141
100
AcDbEntity
100
AcDbLine
  8
0
 62
7
370
-1
  6
ByLayer
 10
0.5310154205127721
 20
-0.2794835548235205
 30
0.0
 11
0.5385636881034873
 21
-0.2802145916115438
 31
0.0
  0
LINE
  5
142
100
AcDbEntity
100
AcDbLine
  8
0
 62
7
370
-1
  6
ByLayer
 10
0.5385636881034873
 20
-0.2802145916115438
 30
0.0
 11
0.5459509365700378
 21
-0.2806597229087141
 31
0.0
  0
LINE
  5
143
100
AcDbEntity
100
AcDbLine
  8
0
 62
7
370
-1
  6
ByLayer
 10
0.5459509365700378
 20
-0.2806597229087141
 30
0.0
 11
0.5531579250000001
 21
-0.2808100725
 31
0.0
  0
LINE
  5
144
100
AcDbEntity
100
AcDbLine
  8
0
 62
7
370
-1
  6
ByLayer
 10
0.5531579250000001
 20
-0.2808100725
 30
0.0
 11
0.5762896528580105
 21
-0.2799005892324359
 31
0.0
  0
LINE
  5
145
100
AcDbEntity
100
AcDbLine
  8
0
 62
7
370
-1
  6
ByLayer
 10
0.5762896528580105
 20
-0.2799005892324359
 30
0.0
 11
0.5987239449525363
 21
-0.277227279658135
 31
0.0
  0
LINE
  5
146
100
AcDbEntity
100
AcDbLine
  8
0
 62
7
370
-1
  6
ByLayer
 10
0.5987239449525363
 20
-0.277227279658135
 30
0.0
 11
0.6204225084191534
 21
-0.2728728541196838
 31
0.0
  0
LINE
  5
147
100
AcDbEntity
100
AcDbLine
  8
0
 62
7
370
-1
  6
ByLayer
 10
0.6204225084191534
 20
-0.2728728541196838
 30
0.0
 11
0.6413470503934411
 21
-0.266920022959669
 31
0.0
  0
LINE
  5
148
100
AcDbEntity
100
AcDbLine
  8
0
 62
7
370
-1
  6
ByLayer
 10
0.6413470503934411
 20
-0.266920022959669
 30
0.0
 11
0.6614592780109764
 21
-0.2594514965206774
 31
0.0
  0
LINE
  5
149
100
AcDbEntity
100
AcDbLine
  8
0
 62
7
370
-1
  6
ByLayer
 10
0.6614592780109764
 20
-0.2594514965206774
 30
0.0
 11
0.6807208984073375
 21
-0.2505499851452955
 31
0.0
  0
LINE
  5
14A
100
AcDbEntity
100
AcDbLine
  8
0
 62
7
370
-1
  6
ByLayer
 10
0.6807208984073375
 20
-0.2505499851452955
 30
0.0
 11
0.6990936187181028
 21
-0.2402981991761103
 31
0.0
  0
LINE
  5
14B
100
AcDbEntity
100
AcDbLine
  8
0
 62
7
370
-1
  6
ByLayer
 10
0.6990936187181028
 20
-0.2402981991761103
 30
0.0
 11
0.7165391460788491
 21
-0.2287788489557082
 31
0.0
  0
LINE
  5
14C
100
AcDbEntity
100
AcDbLine
  8
0
 62
7
370
-1
  6
ByLayer
 10
0.7165391460788491
 20
-0.2287788489557082
 30
0.0
 11
0.7330191876251548
 21
-0.2160746448266759
 31
0.0
  0
LINE
  5
14D
100
AcDbEntity
100
AcDbLine
  8
0
 62
7
370
-1
  6
ByLayer
 10
0.7330191876251548
 20
-0.2160746448266759
 30
0.0
 11
0.7484954504925976
 21
-0.2022682971316003
 31
0.0
  0
LINE
  5
14E
100
AcDbEntity
100
AcDbLine
  8
0
 62
7
370
-1
  6
ByLayer
 10
0.7484954504925976
 20
-0.2022682971316003
 30
0.0
 11
0.7629296418167569
 21
-0.1874425162130678
 31
0.0
  0
LINE
  5
14F
100
AcDbEntity
100
AcDbLine
  8
0
 62
7
370
-1
  6
ByLayer
 10
0.7629296418167569
 20
-0.1874425162130678
 30
0.0
 11
0.7762834687332077
 21
-0.1716800124136653
 31
0.0
  0
LINE
  5
150
100
AcDbEntity
100
AcDbLine
  8
0
 62
7
370
-1
  6
ByLayer
 10
0.7762834687332077
 20
-0.1716800124136653
 30
0.0
 11
0.7885186383775301
 21
-0.1550634960759794
 31
0.0
  0
LINE
  5
151
100
AcDbEntity
100
AcDbLine
  8
0
 62
7
370
-1
  6
ByLayer
 10
0.7885186383775301
 20
-0.1550634960759794
 30
0.0
 11
0.7995968578853004
 21
-0.1376756775425968
 31
0.0
  0
LINE
  5
152
100
AcDbEntity
100
AcDbLine
  8
0
 62
7
370
-1
  6
ByLayer
 10
0.7995968578853004
 20
-0.1376756775425968
 30
0.0
 11
0.8094798343920978
 21
-0.1195992671561043
 31
0.0
  0
LINE
  5
153
100
AcDbEntity
100
AcDbLine
  8
0
 62
7
370
-1
  6
ByLayer
 10
0.8094798343920978
 20
-0.1195992671561043
 30
0.0
 11
0.8181292750334999
 21
-0.1009169752590885
 31
0.0
  0
LINE
  5
154
100
AcDbEntity
100
AcDbLine
  8
0
 62
7
370
-1
  6
ByLayer
 10
0.8181292750334999
 20
-0.1009169752590885
 30
0.0
 11
0.8255068869450836
 21
-0.081711512194136
 31
0.0
  0
LINE
  5
155
100
AcDbEntity
100
AcDbLine
  8
0
 62
7
370
-1
  6
ByLayer
 10
0.8255068869450836
 20
-0.081711512194136
 30
0.0
 11
0.8315743772624283
 21
-0.0620655883038336
 31
0.0
  0
LINE
  5
156
100
AcDbEntity
100
AcDbLine
  8
0
 62
7
370
-1
  6
ByLayer
 10
0.8315743772624283
 20
-0.0620655883038336
 30
0.0
 11
0.8362934531211105
 21
-0.0420619139307679
 31
0.0
  0
LINE
  5
157
100
AcDbEntity
100
AcDbLine
  8
0
 62
7
370
-1
  6
ByLayer
 10
0.8362934531211105
 20
-0.0420619139307679
 30
0.0
 11
0.8396258216567085
 21
-0.0217831994175257
 31
0.0
  0
LINE
  5
158
100
AcDbEntity
100
AcDbLine
  8
0
 62
7
370
-1
  6
ByLayer
 10
0.8396258216567085
 20
-0.0217831994175257
 30
0.0
 11
0.8415331900048001
 21
-0.0013121551066935
 31
0.0
  0
LINE
  5
159
100
AcDbEntity
100
AcDbLine
  8
0
 62
7
370
-1
  6
ByLayer
 10
0.8415331900048001
 20
-0.0013121551066935
 30
0.0
 11
0.8419772653009631
 21
0.0192685086591418
 31
0.0
  0
LINE
  5
15A
100
AcDbEntity
100
AcDbLine
  8
0
 62
7
370
-1
  6
ByLayer
 10
0.8419772653009631
 20
0.0192685086591418
 30
0.0
 11
0.840919754680776
 21
0.0398760815373936
 31
0.0
  0
LINE
  5
15B
100
AcDbEntity
100
AcDbLine
  8
0
 62
7
370
-1
  6
ByLayer
 10
0.840919754680776
 20
0.0398760815373936
 30
0.0
 11
0.838322365279816
 21
0.0604278531854752
 31
0.0
  0
LINE
  5
15C
100
AcDbEntity
100
AcDbLine
  8
0
 62
7
370
-1
  6
ByLayer
 10
0.838322365279816
 20
0.0604278531854752
 30
0.0
 11
0.8341468042336615
 21
0.0808411132607999
 31
0.0
  0
LINE
  5
15D
100
AcDbEntity
100
AcDbLine
  8
0
 62
7
370
-1
  6
ByLayer
 10
0.8341468042336615
 20
0.0808411132607999
 30
0.0
 11
0.8283547786778892
 21
0.1010331514207811
 31
0.0
  0
LINE
  5
15E
100
AcDbEntity
100
AcDbLine
  8
0
 62
7
370
-1
  6
ByLayer
 10
0.8283547786778892
 20
0.1010331514207811
 30
0.0
 11
0.8209079957480786
 21
0.1209212573228321
 31
0.0
  0
LINE
  5
15F
100
AcDbEntity
100
AcDbLine
  8
0
 62
7
370
-1
  6
ByLayer
 10
0.8209079957480786
 20
0.1209212573228321
 30
0.0
 11
0.811768162579806
 21
0.1404227206243661
 31
0.0
  0
LINE
  5
160
100
AcDbEntity
100
AcDbLine
  8
0
 62
7
370
-1
  6
ByLayer
 10
0.811768162579806
 20
0.1404227206243661
 30
0.0
 11
0.8008969863086504
 21
0.1594548309827964
 31
0.0
  0
LINE
  5
161
100
AcDbEntity
100
AcDbLine
  8
0
 62
7
370
-1
  6
ByLayer
 10
0.8008969863086504
 20
0.1594548309827964
 30
0.0
 11
0.788256174070189
 21
0.1779348780555365
 31
0.0
  0
LINE
  5
162
100
AcDbEntity
100
AcDbLine
  8
0
 62
7
370
-1
  6
ByLayer
 10
0.788256174070189
 20
0.1779348780555365
 30
0.0
 11
0.7738074329999999
 21
0.1957801515
 31
0.0
  0
LINE
  5
163
100
AcDbEntity
100
AcDbLine
  8
0
 62
7
370
-1
  6
ByLayer
 10
0.7738074329999999
 20
0.1957801515
 30
0.0
 11
0.7618295469903998
 21
0.2087208844714345
 31
0.0
  0
LINE
  5
164
100
AcDbEntity
100
AcDbLine
  8
0
 62
7
370
-1
  6
ByLayer
 10
0.7618295469903998
 20
0.2087208844714345
 30
0.0
 11
0.7493992357806386
 21
0.2207979273297472
 31
0.0
  0
LINE
  5
165
100
AcDbEntity
100
AcDbLine
  8
0
 62
7
370
-1
  6
ByLayer
 10
0.7493992357806386
 20
0.2207979273297472
 30
0.0
 11
0.7365476653734686
 21
0.2320113043780505
 31
0.0
  0
LINE
  5
166
100
AcDbEntity
100
AcDbLine
  8
0
 62
7
370
-1
  6
ByLayer
 10
0.7365476653734686
 20
0.2320113043780505
 30
0.0
 11
0.7233060017716426
 21
0.2423610399194555
 31
0.0
  0
LINE
  5
167
100
AcDbEntity
100
AcDbLine
  8
0
 62
7
370
-1
  6
ByLayer
 10
0.7233060017716426
 20
0.2423610399194555
 30
0.0
 11
0.7097054109779122
 21
0.2518471582570742
 31
0.0
  0
LINE
  5
168
100
AcDbEntity
100
AcDbLine
  8
0
 62
7
370
-1
  6
ByLayer
 10
0.7097054109779122
 20
0.2518471582570742
 30
0.0
 11
0.6957770589950324
 21
0.2604696836940184
 31
0.0
  0
LINE
  5
169
100
AcDbEntity
100
AcDbLine
  8
0
 62
7
370
-1
  6
ByLayer
 10
0.6957770589950324
 20
0.2604696836940184
 30
0.0
 11
0.6815521118257525
 21
0.2682286405333992
 31
0.0
  0
LINE
  5
16A
100
AcDbEntity
100
AcDbLine
  8
0
 62
7
370
-1
  6
ByLayer
 10
0.6815521118257525
 20
0.2682286405333992
 30
0.0
 11
0.6670617354728272
 21
0.275124053078329
 31
0.0
  0
LINE
  5
16B
100
AcDbEntity
100
AcDbLine
  8
0
 62
7
370
-1
  6
ByLayer
 10
0.6670617354728272
 20
0.275124053078329
 30
0.0
 11
0.6523370959390081
 21
0.2811559456319189
 31
0.0
  0
LINE
  5
16C
100
AcDbEntity
100
AcDbLine
  8
0
 62
7
370
-1
  6
ByLayer
 10
0.6523370959390081
 20
0.2811559456319189
 30
0.0
 11
0.637409359227048
 21
0.2863243424972808
 31
0.0
  0
LINE
  5
16D
100
AcDbEntity
100
AcDbLine
  8
0
 62
7
370
-1
  6
ByLayer
 10
0.637409359227048
 20
0.2863243424972808
 30
0.0
 11
0.6223096913396997
 21
0.2906292679775268
 31
0.0
  0
LINE
  5
16E
100
AcDbEntity
100
AcDbLine
  8
0
 62
7
370
-1
  6
ByLayer
 10
0.6223096913396997
 20
0.2906292679775268
 30
0.0
 11
0.6070692582797154
 21
0.2940707463757678
 31
0.0
  0
LINE
  5
16F
100
AcDbEntity
100
AcDbLine
  8
0
 62
7
370
-1
  6
ByLayer
 10
0.6070692582797154
 20
0.2940707463757678
 30
0.0
 11
0.5917192260498472
 21
0.296648801995116
 31
0.0
  0
LINE
  5
170
100
AcDbEntity
100
AcDbLine
  8
0
 62
7
370
-1
  6
ByLayer
 10
0.5917192260498472
 20
0.296648801995116
 30
0.0
 11
0.5762907606528485
 21
0.2983634591386828
 31
0.0
  0
LINE
  5
171
100
AcDbEntity
100
AcDbLine
  8
0
 62
7
370
-1
  6
ByLayer
 10
0.5762907606528485
 20
0.2983634591386828
 30
0.0
 11
0.5608150280914707
 21
0.29921474210958
 31
0.0
  0
LINE
  5
172
100
AcDbEntity
100
AcDbLine
  8
0
 62
7
370
-1
  6
ByLayer
 10
0.5608150280914707
 20
0.29921474210958
 30
0.0
 11
0.545323194368467
 21
0.2992026752109194
 31
0.0
  0
LINE
  5
173
100
AcDbEntity
100
AcDbLine
  8
0
 62
7
370
-1
  6
ByLayer
 10
0.545323194368467
 20
0.2992026752109194
 30
0.0
 11
0.5298464254865899
 21
0.2983272827458126
 31
0.0
  0
LINE
  5
174
100
AcDbEntity
100
AcDbLine
  8
0
 62
7
370
-1
  6
ByLayer
 10
0.5298464254865899
 20
0.2983272827458126
 30
0.0
 11
0.514415887448592
 21
0.2965885890173711
 31
0.0
  0
LINE
  5
175
100
AcDbEntity
100
AcDbLine
  8
0
 62
7
370
-1
  6
ByLayer
 10
0.514415887448592
 20
0.2965885890173711
 30
0.0
 11
0.4990627462572257
 21
0.2939866183287066
 31
0.0
  0
LINE
  5
176
100
AcDbEntity
100
AcDbLine
  8
0
 62
7
370
-1
  6
ByLayer
 10
0.4990627462572257
 20
0.2939866183287066
 30
0.0
 11
0.4838181679152431
 21
0.2905213949829311
 31
0.0
  0
LINE
  5
177
100
AcDbEntity
100
AcDbLine
  8
0
 62
7
370
-1
  6
ByLayer
 10
0.4838181679152431
 20
0.2905213949829311
 30
0.0
 11
0.4687133184253971
 21
0.2861929432831561
 31
0.0
  0
LINE
  5
178
100
AcDbEntity
100
AcDbLine
  8
0
 62
7
370
-1
  6
ByLayer
 10
0.4687133184253971
 20
0.2861929432831561
 30
0.0
 11
0.4537793637904403
 21
0.2810012875324931
 31
0.0
  0
LINE
  5
179
100
AcDbEntity
100
AcDbLine
  8
0
 62
7
370
-1
  6
ByLayer
 10
0.4537793637904403
 20
0.2810012875324931
 30
0.0
 11
0.4390474700131249
 21
0.274946452034054
 31
0.0
  0
LINE
  5
17A
100
AcDbEntity
100
AcDbLine
  8
0
 62
7
370
-1
  6
ByLayer
 10
0.4390474700131249
 20
0.274946452034054
 30
0.0
 11
0.4245488030962039
 21
0.2680284610909504
 31
0.0
  0
LINE
  5
17B
100
AcDbEntity
100
AcDbLine
  8
0
 62
7
370
-1
  6
ByLayer
 10
0.4245488030962039
 20
0.2680284610909504
 30
0.0
 11
0.4103145290424289
 21
0.2602473390062939
 31
0.0
  0
LINE
  5
17C
100
AcDbEntity
100
AcDbLine
  8
0
 62
7
370
-1
  6
ByLayer
 10
0.4103145290424289
 20
0.2602473390062939
 30
0.0
 11
0.3963758138545534
 21
0.2516031100831964
 31
0.0
  0
LINE
  5
17D
100
AcDbEntity
100
AcDbLine
  8
0
 62
7
370
-1
  6
ByLayer
 10
0.3963758138545534
 20
0.2516031100831964
 30
0.0
 11
0.3827638235353296
 21
0.2420957986247694
 31
0.0
  0
LINE
  5
17E
100
AcDbEntity
100
AcDbLine
  8
0
 62
7
370
-1
  6
ByLayer
 10
0.3827638235353296
 20
0.2420957986247694
 30
0.0
 11
0.3695097240875099
 21
0.2317254289341246
 31
0.0
  0
LINE
  5
17F
100
AcDbEntity
100
AcDbLine
  8
0
 62
7
370
-1
  6
ByLayer
 10
0.3695097240875099
 20
0.2317254289341246
 30
0.0
 11
0.3566446815138465
 21
0.2204920253143735
 31
0.0
  0
LINE
  5
180
100
AcDbEntity
100
AcDbLine
  8
0
 62
7
370
-1
  6
ByLayer
 10
0.3566446815138465
 20
0.2204920253143735
 30
0.0
 11
0.3441998618170927
 21
0.2083956120686283
 31
0.0
  0
LINE
  5
181
100
AcDbEntity
100
AcDbLine
  8
0
 62
7
370
-1
  6
ByLayer
 10
0.3441998618170927
 20
0.2083956120686283
 30
0.0
 11
0.332206431
 21
0.1954362135
 31
0.0
  0
LINE
  5
182
100
AcDbEntity
100
AcDbLine
  8
0
 62
7
370
-1
  6
ByLayer
 10
-0.324527106
 20
-0.1761633735
 30
0.0
 11
-0.2986937370000001
 21
-0.1367366445
 31
0.0
  0
LINE
  5
183
100
AcDbEntity
100
AcDbLine
  8
0
 62
7
370
-1
  6
ByLayer
 10
-0.2986937370000001
 20
-0.1367366445
 30
0.0
 11
0.000245214
 21
-0.1367366445
 31
0.0
  0
LINE
  5
184
100
AcDbEntity
100
AcDbLine
  8
0
 62
7
370
-1
  6
ByLayer
 10
0.000245214
 20
-0.1367366445
 30
0.0
 11
0.2991841649999999
 21
-0.1367366445
 31
0.0
  0
LINE
  5
185
100
AcDbEntity
100
AcDbLine
  8
0
 62
7
370
-1
  6
ByLayer
 10
0.2991841649999999
 20
-0.1367366445
 30
0.0
 11
0.3324082680000001
 21
-0.1789743285
 31
0.0
  0
LINE
  5
186
100
AcDbEntity
100
AcDbLine
  8
0
 62
7
370
-1
  6
ByLayer
 10
-0.315781425
 20
0.1853608365
 30
0.0
 11
-0.3264141028033297
 21
0.1991815602184385
 31
0.0
  0
LINE
  5
187
100
AcDbEntity
100
AcDbLine
  8
0
 62
7
370
-1
  6
ByLayer
 10
-0.3264141028033297
 20
0.1991815602184385
 30
0.0
 11
-0.3379299263881371
 21
0.2120766029342924
 31
0.0
  0
LINE
  5
188
100
AcDbEntity
100
AcDbLine
  8
0
 62
7
370
-1
  6
ByLayer
 10
-0.3379299263881371
 20
0.2120766029342924
 30
0.0
 11
-0.3502680763392299
 21
0.2240461288915949
 31
0.0
  0
LINE
  5
189
100
AcDbEntity
100
AcDbLine
  8
0
 62
7
370
-1
  6
ByLayer
 10
-0.3502680763392299
 20
0.2240461288915949
 30
0.0
 11
-0.3633677332414149
 21
0.2350903023343796
 31
0.0
  0
LINE
  5
18A
100
AcDbEntity
100
AcDbLine
  8
0
 62
7
370
-1
  6
ByLayer
 10
-0.3633677332414149
 20
0.2350903023343796
 30
0.0
 11
-0.3771680776795008
 21
0.2452092875066798
 31
0.0
  0
LINE
  5
18B
100
AcDbEntity
100
AcDbLine
  8
0
 62
7
370
-1
  6
ByLayer
 10
-0.3771680776795008
 20
0.2452092875066798
 30
0.0
 11
-0.3916082902382932
 21
0.2544032486525295
 31
0.0
  0
LINE
  5
18C
100
AcDbEntity
100
AcDbLine
  8
0
 62
7
370
-1
  6
ByLayer
 10
-0.3916082902382932
 20
0.2544032486525295
 30
0.0
 11
-0.4066275515026016
 21
0.2626723500159612
 31
0.0
  0
LINE
  5
18D
100
AcDbEntity
100
AcDbLine
  8
0
 62
7
370
-1
  6
ByLayer
 10
-0.4066275515026016
 20
0.2626723500159612
 30
0.0
 11
-0.422165042057232
 21
0.2700167558410091
 31
0.0
  0
LINE
  5
18E
100
AcDbEntity
100
AcDbLine
  8
0
 62
7
370
-1
  6
ByLayer
 10
-0.422165042057232
 20
0.2700167558410091
 30
0.0
 11
-0.4381599424869929
 21
0.2764366303717062
 31
0.0
  0
LINE
  5
18F
100
AcDbEntity
100
AcDbLine
  8
0
 62
7
370
-1
  6
ByLayer
 10
-0.4381599424869929
 20
0.2764366303717062
 30
0.0
 11
-0.454551433376691
 21
0.2819321378520861
 31
0.0
  0
LINE
  5
190
100
AcDbEntity
100
AcDbLine
  8
0
 62
7
370
-1
  6
ByLayer
 10
-0.454551433376691
 20
0.2819321378520861
 30
0.0
 11
-0.4712786953111343
 21
0.2865034425261824
 31
0.0
  0
LINE
  5
191
100
AcDbEntity
100
AcDbLine
  8
0
 62
7
370
-1
  6
ByLayer
 10
-0.4712786953111343
 20
0.2865034425261824
 30
0.0
 11
-0.48828090887513
 21
0.2901507086380282
 31
0.0
  0
LINE
  5
192
100
AcDbEntity
100
AcDbLine
  8
0
 62
7
370
-1
  6
ByLayer
 10
-0.48828090887513
 20
0.2901507086380282
 30
0.0
 11
-0.5054972546534858
 21
0.2928741004316572
 31
0.0
  0
LINE
  5
193
100
AcDbEntity
100
AcDbLine
  8
0
 62
7
370
-1
  6
ByLayer
 10
-0.5054972546534858
 20
0.2928741004316572
 30
0.0
 11
-0.5228669132310092
 21
0.2946737821511027
 31
0.0
  0
LINE
  5
194
100
AcDbEntity
100
AcDbLine
  8
0
 62
7
370
-1
  6
ByLayer
 10
-0.5228669132310092
 20
0.2946737821511027
 30
0.0
 11
-0.5403290651925076
 21
0.2955499180403982
 31
0.0
  0
LINE
  5
195
100
AcDbEntity
100
AcDbLine
  8
0
 62
7
370
-1
  6
ByLayer
 10
-0.5403290651925076
 20
0.2955499180403982
 30
0.0
 11
-0.5578228911227886
 21
0.2955026723435769
 31
0.0
  0
LINE
  5
196
100
AcDbEntity
100
AcDbLine
  8
0
 62
7
370
-1
  6
ByLayer
 10
-0.5578228911227886
 20
0.2955026723435769
 30
0.0
 11
-0.5752875716066594
 21
0.2945322093046726
 31
0.0
  0
LINE
  5
197
100
AcDbEntity
100
AcDbLine
  8
0
 62
7
370
-1
  6
ByLayer
 10
-0.5752875716066594
 20
0.2945322093046726
 30
0.0
 11
-0.5926622872289279
 21
0.2926386931677185
 31
0.0
  0
LINE
  5
198
100
AcDbEntity
100
AcDbLine
  8
0
 62
7
370
-1
  6
ByLayer
 10
-0.5926622872289279
 20
0.2926386931677185
 30
0.0
 11
-0.6098862185744015
 21
0.289822288176748
 31
0.0
  0
LINE
  5
199
100
AcDbEntity
100
AcDbLine
  8
0
 62
7
370
-1
  6
ByLayer
 10
-0.6098862185744015
 20
0.289822288176748
 30
0.0
 11
-0.6268985462278874
 21
0.2860831585757947
 31
0.0
  0
LINE
  5
19A
100
AcDbEntity
100
AcDbLine
  8
0
 62
7
370
-1
  6
ByLayer
 10
-0.6268985462278874
 20
0.2860831585757947
 30
0.0
 11
-0.6436384507741932
 21
0.2814214686088921
 31
0.0
  0
LINE
  5
19B
100
AcDbEntity
100
AcDbLine
  8
0
 62
7
370
-1
  6
ByLayer
 10
-0.6436384507741932
 20
0.2814214686088921
 30
0.0
 11
-0.6600451127981267
 21
0.2758373825200733
 31
0.0
  0
LINE
  5
19C
100
AcDbEntity
100
AcDbLine
  8
0
 62
7
370
-1
  6
ByLayer
 10
-0.6600451127981267
 20
0.2758373825200733
 30
0.0
 11
-0.6760577128844951
 21
0.2693310645533719
 31
0.0
  0
LINE
  5
19D
100
AcDbEntity
100
AcDbLine
  8
0
 62
7
370
-1
  6
ByLayer
 10
-0.6760577128844951
 20
0.2693310645533719
 30
0.0
 11
-0.6916154316181059
 21
0.2619026789528214
 31
0.0
  0
LINE
  5
19E
100
AcDbEntity
100
AcDbLine
  8
0
 62
7
370
-1
  6
ByLayer
 10
-0.6916154316181059
 20
0.2619026789528214
 30
0.0
 11
-0.7066574495837668
 21
0.2535523899624553
 31
0.0
  0
LINE
  5
19F
100
AcDbEntity
100
AcDbLine
  8
0
 62
7
370
-1
  6
ByLayer
 10
-0.7066574495837668
 20
0.2535523899624553
 30
0.0
 11
-0.721122947366285
 21
0.2442803618263067
 31
0.0
  0
LINE
  5
1A0
100
AcDbEntity
100
AcDbLine
  8
0
 62
7
370
-1
  6
ByLayer
 10
-0.721122947366285
 20
0.2442803618263067
 30
0.0
 11
-0.7349511055504681
 21
0.2340867587884095
 31
0.0
  0
LINE
  5
1A1
100
AcDbEntity
100
AcDbLine
  8
0
 62
7
370
-1
  6
ByLayer
 10
-0.7349511055504681
 20
0.2340867587884095
 30
0.0
 11
-0.7480811047211237
 21
0.2229717450927967
 31
0.0
  0
LINE
  5
1A2
100
AcDbEntity
100
AcDbLine
  8
0
 62
7
370
-1
  6
ByLayer
 10
-0.7480811047211237
 20
0.2229717450927967
 30
0.0
 11
-0.7604521254630592
 21
0.2109354849835019
 31
0.0
  0
LINE
  5
1A3
100
AcDbEntity
100
AcDbLine
  8
0
 62
7
370
-1
  6
ByLayer
 10
-0.7604521254630592
 20
0.2109354849835019
 30
0.0
 11
-0.7720033483610821
 21
0.1979781427045587
 31
0.0
  0
LINE
  5
1A4
100
AcDbEntity
100
AcDbLine
  8
0
 62
7
370
-1
  6
ByLayer
 10
-0.7720033483610821
 20
0.1979781427045587
 30
0.0
 11
-0.7826739540000001
 21
0.1840998825
 31
0.0
  0
LINE
  5
1A5
100
AcDbEntity
100
AcDbLine
  8
0
 62
7
370
-1
  6
ByLayer
 10
-0.7826739540000001
 20
0.1840998825
 30
0.0
 11
-0.7923851725221711
 21
0.1696176022498237
 31
0.0
  0
LINE
  5
1A6
100
AcDbEntity
100
AcDbLine
  8
0
 62
7
370
-1
  6
ByLayer
 10
-0.7923851725221711
 20
0.1696176022498237
 30
0.0
 11
-0.8011475039796583
 21
0.1548126172353229
 31
0.0
  0
LINE
  5
1A7
100
AcDbEntity
100
AcDbLine
  8
0
 62
7
370
-1
  6
ByLayer
 10
-0.8011475039796583
 20
0.1548126172353229
 30
0.0
 11
-0.808969660596019
 21
0.1397221547379577
 31
0.0
  0
LINE
  5
1A8
100
AcDbEntity
100
AcDbLine
  8
0
 62
7
370
-1
  6
ByLayer
 10
-0.808969660596019
 20
0.1397221547379577
 30
0.0
 11
-0.8158603545948105
 21
0.1243834420391898
 31
0.0
  0
LINE
  5
1A9
100
AcDbEntity
100
AcDbLine
  8
0
 62
7
370
-1
  6
ByLayer
 10
-0.8158603545948105
 20
0.1243834420391898
 30
0.0
 11
-0.8218282981995906
 21
0.1088337064204793
 31
0.0
  0
LINE
  5
1AA
100
AcDbEntity
100
AcDbLine
  8
0
 62
7
370
-1
  6
ByLayer
 10
-0.8218282981995906
 20
0.1088337064204793
 30
0.0
 11
-0.8268822036339163
 21
0.0931101751632877
 31
0.0
  0
LINE
  5
1AB
100
AcDbEntity
100
AcDbLine
  8
0
 62
7
370
-1
  6
ByLayer
 10
-0.8268822036339163
 20
0.0931101751632877
 30
0.0
 11
-0.8310307831213455
 21
0.0772500755490752
 31
0.0
  0
LINE
  5
1AC
100
AcDbEntity
100
AcDbLine
  8
0
 62
7
370
-1
  6
ByLayer
 10
-0.8310307831213455
 20
0.0772500755490752
 30
0.0
 11
-0.8342827488854353
 21
0.0612906348593032
 31
0.0
  0
LINE
  5
1AD
100
AcDbEntity
100
AcDbLine
  8
0
 62
7
370
-1
  6
ByLayer
 10
-0.8342827488854353
 20
0.0612906348593032
 30
0.0
 11
-0.8366468131497433
 21
0.0452690803754321
 31
0.0
  0
LINE
  5
1AE
100
AcDbEntity
100
AcDbLine
  8
0
 62
7
370
-1
  6
ByLayer
 10
-0.8366468131497433
 20
0.0452690803754321
 30
0.0
 11
-0.8381316881378271
 21
0.0292226393789231
 31
0.0
  0
LINE
  5
1AF
100
AcDbEntity
100
AcDbLine
  8
0
 62
7
370
-1
  6
ByLayer
 10
-0.8381316881378271
 20
0.0292226393789231
 30
0.0
 11
-0.8387460860732436
 21
0.013188539151237
 31
0.0
  0
LINE
  5
1B0
100
AcDbEntity
100
AcDbLine
  8
0
 62
7
370
-1
  6
ByLayer
 10
-0.8387460860732436
 20
0.013188539151237
 30
0.0
 11
-0.8384987191795509
 21
-0.0027959930261655
 31
0.0
  0
LINE
  5
1B1
100
AcDbEntity
100
AcDbLine
  8
0
 62
7
370
-1
  6
ByLayer
 10
-0.8384987191795509
 20
-0.0027959930261655
 30
0.0
 11
-0.8373982996803062
 21
-0.0186937298718237
 31
0.0
  0
LINE
  5
1B2
100
AcDbEntity
100
AcDbLine
  8
0
 62
7
370
-1
  6
ByLayer
 10
-0.8373982996803062
 20
-0.0186937298718237
 30
0.0
 11
-0.835453539799067
 21
-0.0344674441042763
 31
0.0
  0
LINE
  5
1B3
100
AcDbEntity
100
AcDbLine
  8
0
 62
7
370
-1
  6
ByLayer
 10
-0.835453539799067
 20
-0.0344674441042763
 30
0.0
 11
-0.8326731517593905
 21
-0.0500799084420629
 31
0.0
  0
LINE
  5
1B4
100
AcDbEntity
100
AcDbLine
  8
0
 62
7
370
-1
  6
ByLayer
 10
-0.8326731517593905
 20
-0.0500799084420629
 30
0.0
 11
-0.8290658477848345
 21
-0.0654938956037225
 31
0.0
  0
LINE
  5
1B5
100
AcDbEntity
100
AcDbLine
  8
0
 62
7
370
-1
  6
ByLayer
 10
-0.8290658477848345
 20
-0.0654938956037225
 30
0.0
 11
-0.8246403400989561
 21
-0.0806721783077942
 31
0.0
  0
LINE
  5
1B6
100
AcDbEntity
100
AcDbLine
  8
0
 62
7
370
-1
  6
ByLayer
 10
-0.8246403400989561
 20
-0.0806721783077942
 30
0.0
 11
-0.8194053409253131
 21
-0.0955775292728172
 31
0.0
  0
LINE
  5
1B7
100
AcDbEntity
100
AcDbLine
  8
0
 62
7
370
-1
  6
ByLayer
 10
-0.8194053409253131
 20
-0.0955775292728172
 30
0.0
 11
-0.8133695624874628
 21
-0.1101727212173306
 31
0.0
  0
LINE
  5
1B8
100
AcDbEntity
100
AcDbLine
  8
0
 62
7
370
-1
  6
ByLayer
 10
-0.8133695624874628
 20
-0.1101727212173306
 30
0.0
 11
-0.8065417170089626
 21
-0.1244205268598737
 31
0.0
  0
LINE
  5
1B9
100
AcDbEntity
100
AcDbLine
  8
0
 62
7
370
-1
  6
ByLayer
 10
-0.8065417170089626
 20
-0.1244205268598737
 30
0.0
 11
-0.7989305167133699
 21
-0.1382837189189854
 31
0.0
  0
LINE
  5
1BA
100
AcDbEntity
100
AcDbLine
  8
0
 62
7
370
-1
  6
ByLayer
 10
-0.7989305167133699
 20
-0.1382837189189854
 30
0.0
 11
-0.7905446738242423
 21
-0.1517250701132052
 31
0.0
  0
LINE
  5
1BB
100
AcDbEntity
100
AcDbLine
  8
0
 62
7
370
-1
  6
ByLayer
 10
-0.7905446738242423
 20
-0.1517250701132052
 30
0.0
 11
-0.7813929005651372
 21
-0.164707353161072
 31
0.0
  0
LINE
  5
1BC
100
AcDbEntity
100
AcDbLine
  8
0
 62
7
370
-1
  6
ByLayer
 10
-0.7813929005651372
 20
-0.164707353161072
 30
0.0
 11
-0.7714839091596122
 21
-0.177193340781125
 31
0.0
  0
LINE
  5
1BD
100
AcDbEntity
100
AcDbLine
  8
0
 62
7
370
-1
  6
ByLayer
 10
-0.7714839091596122
 20
-0.177193340781125
 30
0.0
 11
-0.7608264118312245
 21
-0.1891458056919035
 31
0.0
  0
LINE
  5
1BE
100
AcDbEntity
100
AcDbLine
  8
0
 62
7
370
-1
  6
ByLayer
 10
-0.7608264118312245
 20
-0.1891458056919035
 30
0.0
 11
-0.7494291208035315
 21
-0.2005275206119464
 31
0.0
  0
LINE
  5
1BF
100
AcDbEntity
100
AcDbLine
  8
0
 62
7
370
-1
  6
ByLayer
 10
-0.7494291208035315
 20
-0.2005275206119464
 30
0.0
 11
-0.7373007483000908
 21
-0.2113012582597931
 31
0.0
  0
LINE
  5
1C0
100
AcDbEntity
100
AcDbLine
  8
0
 62
7
370
-1
  6
ByLayer
 10
-0.7373007483000908
 20
-0.2113012582597931
 30
0.0
 11
-0.7244500065444599
 21
-0.2214297913539826
 31
0.0
  0
LINE
  5
1C1
100
AcDbEntity
100
AcDbLine
  8
0
 62
7
370
-1
  6
ByLayer
 10
-0.7244500065444599
 20
-0.2214297913539826
 30
0.0
 11
-0.7108856077601964
 21
-0.2308758926130541
 31
0.0
  0
LINE
  5
1C2
100
AcDbEntity
100
AcDbLine
  8
0
 62
7
370
-1
  6
ByLayer
 10
-0.7108856077601964
 20
-0.2308758926130541
 30
0.0
 11
-0.6966162641708573
 21
-0.2396023347555468
 31
0.0
  0
LINE
  5
1C3
100
AcDbEntity
100
AcDbLine
  8
0
 62
7
370
-1
  6
ByLayer
 10
-0.6966162641708573
 20
-0.2396023347555468
 30
0.0
 11
-0.6816506879999999
 21
-0.2475718905
 31
0.0
  0
LINE
  5
1C4
100
AcDbEntity
100
AcDbLine
  8
0
 62
7
370
-1
  6
ByLayer
 10
-0.6816506879999999
 20
-0.2475718905
 30
0.0
 11
-0.6732676736567084
 21
-0.2515841969930013
 31
0.0
  0
LINE
  5
1C5
100
AcDbEntity
100
AcDbLine
  8
0
 62
7
370
-1
  6
ByLayer
 10
-0.6732676736567084
 20
-0.2515841969930013
 30
0.0
 11
-0.6648670274805142
 21
-0.2553311661651337
 31
0.0
  0
LINE
  5
1C6
100
AcDbEntity
100
AcDbLine
  8
0
 62
7
370
-1
  6
ByLayer
 10
-0.6648670274805142
 20
-0.2553311661651337
 30
0.0
 11
-0.6564498340422611
 21
-0.2588127939754456
 31
0.0
  0
LINE
  5
1C7
100
AcDbEntity
100
AcDbLine
  8
0
 62
7
370
-1
  6
ByLayer
 10
-0.6564498340422611
 20
-0.2588127939754456
 30
0.0
 11
-0.6480171779127925
 21
-0.2620290763829848
 31
0.0
  0
LINE
  5
1C8
100
AcDbEntity
100
AcDbLine
  8
0
 62
7
370
-1
  6
ByLayer
 10
-0.6480171779127925
 20
-0.2620290763829848
 30
0.0
 11
-0.639570143662952
 21
-0.2649800093467994
 31
0.0
  0
LINE
  5
1C9
100
AcDbEntity
100
AcDbLine
  8
0
 62
7
370
-1
  6
ByLayer
 10
-0.639570143662952
 20
-0.2649800093467994
 30
0.0
 11
-0.6311098158635829
 21
-0.2676655888259373
 31
0.0
  0
LINE
  5
1CA
100
AcDbEntity
100
AcDbLine
  8
0
 62
7
370
-1
  6
ByLayer
 10
-0.6311098158635829
 20
-0.2676655888259373
 30
0.0
 11
-0.6226372790855292
 21
-0.2700858107794468
 31
0.0
  0
LINE
  5
1CB
100
AcDbEntity
100
AcDbLine
  8
0
 62
7
370
-1
  6
ByLayer
 10
-0.6226372790855292
 20
-0.2700858107794468
 30
0.0
 11
-0.6141536178996341
 21
-0.2722406711663758
 31
0.0
  0
LINE
  5
1CC
100
AcDbEntity
100
AcDbLine
  8
0
 62
7
370
-1
  6
ByLayer
 10
-0.6141536178996341
 20
-0.2722406711663758
 30
0.0
 11
-0.6056599168767414
 21
-0.2741301659457722
 31
0.0
  0
LINE
  5
1CD
100
AcDbEntity
100
AcDbLine
  8
0
 62
7
370
-1
  6
ByLayer
 10
-0.6056599168767414
 20
-0.2741301659457722
 30
0.0
 11
-0.5971572605876945
 21
-0.2757542910766843
 31
0.0
  0
LINE
  5
1CE
100
AcDbEntity
100
AcDbLine
  8
0
 62
7
370
-1
  6
ByLayer
 10
-0.5971572605876945
 20
-0.2757542910766843
 30
0.0
 11
-0.5886467336033366
 21
-0.2771130425181598
 31
0.0
  0
LINE
  5
1CF
100
AcDbEntity
100
AcDbLine
  8
0
 62
7
370
-1
  6
ByLayer
 10
-0.5886467336033366
 20
-0.2771130425181598
 30
0.0
 11
-0.5801294204945118
 21
-0.2782064162292471
 31
0.0
  0
LINE
  5
1D0
100
AcDbEntity
100
AcDbLine
  8
0
 62
7
370
-1
  6
ByLayer
 10
-0.5801294204945118
 20
-0.2782064162292471
 30
0.0
 11
-0.5716064058320633
 21
-0.279034408168994
 31
0.0
  0
LINE
  5
1D1
100
AcDbEntity
100
AcDbLine
  8
0
 62
7
370
-1
  6
ByLayer
 10
-0.5716064058320633
 20
-0.279034408168994
 30
0.0
 11
-0.5630787741868351
 21
-0.2795970142964486
 31
0.0
  0
LINE
  5
1D2
100
AcDbEntity
100
AcDbLine
  8
0
 62
7
370
-1
  6
ByLayer
 10
-0.5630787741868351
 20
-0.2795970142964486
 30
0.0
 11
-0.55454761012967
 21
-0.2798942305706589
 31
0.0
  0
LINE
  5
1D3
100
AcDbEntity
100
AcDbLine
  8
0
 62
7
370
-1
  6
ByLayer
 10
-0.55454761012967
 20
-0.2798942305706589
 30
0.0
 11
-0.5460139982314124
 21
-0.2799260529506731
 31
0.0
  0
LINE
  5
1D4
100
AcDbEntity
100
AcDbLine
  8
0
 62
7
370
-1
  6
ByLayer
 10
-0.5460139982314124
 20
-0.2799260529506731
 30
0.0
 11
-0.537479023062905
 21
-0.2796924773955389
 31
0.0
  0
LINE
  5
1D5
100
AcDbEntity
100
AcDbLine
  8
0
 62
7
370
-1
  6
ByLayer
 10
-0.537479023062905
 20
-0.2796924773955389
 30
0.0
 11
-0.528943769194992
 21
-0.2791934998643046
 31
0.0
  0
LINE
  5
1D6
100
AcDbEntity
100
AcDbLine
  8
0
 62
7
370
-1
  6
ByLayer
 10
-0.528943769194992
 20
-0.2791934998643046
 30
0.0
 11
-0.5204093211985164
 21
-0.2784291163160183
 31
0.0
  0
LINE
  5
1D7
100
AcDbEntity
100
AcDbLine
  8
0
 62
7
370
-1
  6
ByLayer
 10
-0.5204093211985164
 20
-0.2784291163160183
 30
0.0
 11
-0.5118767636443222
 21
-0.2773993227097278
 31
0.0
  0
LINE
  5
1D8
100
AcDbEntity
100
AcDbLine
  8
0
 62
7
370
-1
  6
ByLayer
 10
-0.5118767636443222
 20
-0.2773993227097278
 30
0.0
 11
-0.5033471811032527
 21
-0.2761041150044812
 31
0.0
  0
LINE
  5
1D9
100
AcDbEntity
100
AcDbLine
  8
0
 62
7
370
-1
  6
ByLayer
 10
-0.5033471811032527
 20
-0.2761041150044812
 30
0.0
 11
-0.4948216581461516
 21
-0.2745434891593266
 31
0.0
  0
LINE
  5
1DA
100
AcDbEntity
100
AcDbLine
  8
0
 62
7
370
-1
  6
ByLayer
 10
-0.4948216581461516
 20
-0.2745434891593266
 30
0.0
 11
-0.4863012793438625
 21
-0.2727174411333121
 31
0.0
  0
LINE
  5
1DB
100
AcDbEntity
100
AcDbLine
  8
0
 62
7
370
-1
  6
ByLayer
 10
-0.4863012793438625
 20
-0.2727174411333121
 30
0.0
 11
-0.4777871292672286
 21
-0.2706259668854856
 31
0.0
  0
LINE
  5
1DC
100
AcDbEntity
100
AcDbLine
  8
0
 62
7
370
-1
  6
ByLayer
 10
-0.4777871292672286
 20
-0.2706259668854856
 30
0.0
 11
-0.4692802924870937
 21
-0.2682690623748951
 31
0.0
  0
LINE
  5
1DD
100
AcDbEntity
100
AcDbLine
  8
0
 62
7
370
-1
  6
ByLayer
 10
-0.4692802924870937
 20
-0.2682690623748951
 30
0.0
 11
-0.4607818535743011
 21
-0.2656467235605888
 31
0.0
  0
LINE
  5
1DE
100
AcDbEntity
100
AcDbLine
  8
0
 62
7
370
-1
  6
ByLayer
 10
-0.4607818535743011
 20
-0.2656467235605888
 30
0.0
 11
-0.4522928970996947
 21
-0.2627589464016146
 31
0.0
  0
LINE
  5
1DF
100
AcDbEntity
100
AcDbLine
  8
0
 62
7
370
-1
  6
ByLayer
 10
-0.4522928970996947
 20
-0.2627589464016146
 30
0.0
 11
-0.4438145076341179
 21
-0.2596057268570207
 31
0.0
  0
LINE
  5
1E0
100
AcDbEntity
100
AcDbLine
  8
0
 62
7
370
-1
  6
ByLayer
 10
-0.4438145076341179
 20
-0.2596057268570207
 30
0.0
 11
-0.4353477697484143
 21
-0.2561870608858549
 31
0.0
  0
LINE
  5
1E1
100
AcDbEntity
100
AcDbLine
  8
0
 62
7
370
-1
  6
ByLayer
 10
-0.4353477697484143
 20
-0.2561870608858549
 30
0.0
 11
-0.4268937680134273
 21
-0.2525029444471653
 31
0.0
  0
LINE
  5
1E2
100
AcDbEntity
100
AcDbLine
  8
0
 62
7
370
-1
  6
ByLayer
 10
-0.4268937680134273
 20
-0.2525029444471653
 30
0.0
 11
-0.4184535870000001
 21
-0.2485533735
 31
0.0
  0
LINE
  5
1E3
100
AcDbEntity
100
AcDbLine
  8
0
 62
7
370
-1
  6
ByLayer
 10
0.332206431
 20
0.1954362135
 30
0.0
 11
0.280667487
 21
0.1367366445
 31
0.0
  0
LINE
  5
1E4
100
AcDbEntity
100
AcDbLine
  8
0
 62
7
370
-1
  6
ByLayer
 10
0.280667487
 20
0.1367366445
 30
0.0
 11
-0.000245214
 21
0.1367366445
 31
0.0
  0
LINE
  5
1E5
100
AcDbEntity
100
AcDbLine
  8
0
 62
7
370
-1
  6
ByLayer
 10
-0.000245214
 20
0.1367366445
 30
0.0
 11
-0.281157972
 21
0.1367366445
 31
0.0
  0
LINE
  5
1E6
100
AcDbEntity
100
AcDbLine
  8
0
 62
7
370
-1
  6
ByLayer
 10
-0.281157972
 20
0.1367366445
 30
0.0
 11
-0.315781425
 21
0.1853608365
 31
0.0
  0
LINE
  5
1E7
100
AcDbEntity
100
AcDbLine
  8
0
 62
7
370
-1
  6
ByLayer
 10
-0.4184535870000001
 20
-0.2485533735
 30
0.0
 11
-0.4184535870000001
 21
-0.2485533735
 31
0.0
  0
ENDSEC
  0
SECTION
  2
OBJECTS
  0
DICTIONARY
  5
C
100
AcDbDictionary
280
0
281
1
  3
ACAD_GROUP
350
D
  3
ACAD_LAYOUT
350
1A
  3
ACAD_MLINESTYLE
350
17
  3
ACAD_PLOTSETTINGS
350
19
  3
ACAD_PLOTSTYLENAME
350
E
  3
AcDbVariableDictionary
350
1E8
  0
DICTIONARY
  5
D
100
AcDbDictionary
280
0
281
1
  0
ACDBDICTIONARYWDFLT
  5
E
100
AcDbDictionary
281
1
  3
Normal
350
F
100
AcDbDictionaryWithDefault
340
F
  0
ACDBPLACEHOLDER
  5
F
  0
DICTIONARY
  5
17
100
AcDbDictionary
280
0
281
1
  3
Standard
350
18
  0
MLINESTYLE
  5
18
100
AcDbMlineStyle
  2
STANDARD
 70
0
  3

 62
256
 51
90.0
 52
90.0
 71
2
 49
0.5
 62
256
  6
BYLAYER
 49
-0.5
 62
256
  6
BYLAYER
  0
DICTIONARY
  5
19
100
AcDbDictionary
280
0
281
1
  0
DICTIONARY
  5
1A
100
AcDbDictionary
281
1
  3
Layout1
350
1E
  3
Layout2
350
26
  3
Model
350
22
  0
LAYOUT
  5
1E
100
AcDbPlotSettings
  1

  2
C:\Program Files\AutoCAD 2002\plotters\DWF ePlot (optimized for plotting).pc3
  4

  6

 40
0.0
 41
0.0
 42
0.0
 43
0.0
 44
0.0
 45
0.0
 46
0.0
 47
0.0
 48
0.0
 49
0.0
140
0.0
141
0.0
142
1.0
143
1.0
 70
688
 72
0
 73
0
 74
5
  7

 75
16
147
1.0
148
0.0
149
0.0
100
AcDbLayout
  1
Layout1
 70
1
 71
1
 10
0.0
 20
0.0
 11
420.0
 21
297.0
 12
0.0
 22
0.0
 32
0.0
 14
100000000000000000000.0
 24
100000000000000000000.0
 34
100000000000000000000.0
 15
-100000000000000000000.0
 25
-100000000000000000000.0
 35
-100000000000000000000.0
146
0.0
 13
0.0
 23
0.0
 33
0.0
 16
1.0
 26
0.0
 36
0.0
 17
0.0
 27
1.0
 37
0.0
 76
0
330
1B
  0
LAYOUT
  5
22
100
AcDbPlotSettings
  1

  2
C:\Program Files\AutoCAD 2002\plotters\DWF ePlot (optimized for plotting).pc3
  4

  6

 40
0.0
 41
0.0
 42
0.0
 43
0.0
 44
0.0
 45
0.0
 46
0.0
 47
0.0
 48
0.0
 49
0.0
140
0.0
141
0.0
142
1.0
143
1.0
 70
1712
 72
0
 73
0
 74
0
  7

 75
0
147
1.0
148
0.0
149
0.0
100
AcDbLayout
  1
Model
 70
1
 71
0
 10
0.0
 20
0.0
 11
12.0
 21
9.0
 12
0.0
 22
0.0
 32
0.0
 14
0.0
 24
0.0
 34
0.0
 15
0.0
 25
0.0
 35
0.0
146
0.0
 13
0.0
 23
0.0
 33
0.0
 16
1.0
 26
0.0
 36
0.0
 17
0.0
 27
1.0
 37
0.0
 76
0
330
1F
  0
LAYOUT
  5
26
100
AcDbPlotSettings
  1

  2
C:\Program Files\AutoCAD 2002\plotters\DWF ePlot (optimized for plotting).pc3
  4

  6

 40
0.0
 41
0.0
 42
0.0
 43
0.0
 44
0.0
 45
0.0
 46
0.0
 47
0.0
 48
0.0
 49
0.0
140
0.0
141
0.0
142
1.0
143
1.0
 70
688
 72
0
 73
0
 74
5
  7

 75
16
147
1.0
148
0.0
149
0.0
100
AcDbLayout
  1
Layout2
 70
1
 71
2
 10
0.0
 20
0.0
 11
12.0
 21
9.0
 12
0.0
 22
0.0
 32
0.0
 14
0.0
 24
0.0
 34
0.0
 15
0.0
 25
0.0
 35
0.0
146
0.0
 13
0.0
 23
0.0
 33
0.0
 16
1.0
 26
0.0
 36
0.0
 17
0.0
 27
1.0
 37
0.0
 76
0
330
23
  0
DICTIONARY
  5
1E8
100
AcDbDictionary
281
1
  3
DIMASSOC
350
1EA
  3
HIDETEXT
350
1E9
  0
DICTIONARYVAR
  5
1E9
100
DictionaryVariables
280
0
  1
2
  0
DICTIONARYVAR
  5
1EA
100
DictionaryVariables
280
0
  1
1
  0
ENDSEC
  0
EOF
