  0
SECTION
  2
HEADER
  9
$ACADVER
  1
AC1015
  0
ENDSEC
  0
SECTION
  2
BLOCKS
  0
ENDSEC
  0
SECTION
  2
ENTITIES
  0
LWPOLYLINE
  8
0
  90
5
  70
1
 10
-3.500000
 20
-3.750000
 10
-3.500000
 20
3.750000
 10
3.500000
 20
3.750000
 10
3.500000
 20
-3.750000
 10
-3.500000
 20
-3.750000
  0
LWPOLYLINE
  8
0
  90
51
  70
1
 10
-2.630000
 20
-3.375000
 10
-2.629000
 20
-3.359000
 10
-2.626000
 20
-3.343000
 10
-2.621000
 20
-3.327000
 10
-2.614000
 20
-3.312000
 10
-2.605000
 20
-3.299000
 10
-2.595000
 20
-3.286000
 10
-2.583000
 20
-3.275000
 10
-2.570000
 20
-3.265000
 10
-2.555000
 20
-3.257000
 10
-2.540000
 20
-3.251000
 10
-2.524000
 20
-3.247000
 10
-2.508000
 20
-3.245000
 10
-2.492000
 20
-3.245000
 10
-2.476000
 20
-3.247000
 10
-2.460000
 20
-3.251000
 10
-2.445000
 20
-3.257000
 10
-2.430000
 20
-3.265000
 10
-2.417000
 20
-3.275000
 10
-2.405000
 20
-3.286000
 10
-2.395000
 20
-3.299000
 10
-2.386000
 20
-3.312000
 10
-2.379000
 20
-3.327000
 10
-2.374000
 20
-3.343000
 10
-2.371000
 20
-3.359000
 10
-2.370000
 20
-3.375000
 10
-2.371000
 20
-3.391000
 10
-2.374000
 20
-3.407000
 10
-2.379000
 20
-3.423000
 10
-2.386000
 20
-3.438000
 10
-2.395000
 20
-3.451000
 10
-2.405000
 20
-3.464000
 10
-2.417000
 20
-3.475000
 10
-2.430000
 20
-3.485000
 10
-2.445000
 20
-3.493000
 10
-2.460000
 20
-3.499000
 10
-2.476000
 20
-3.503000
 10
-2.492000
 20
-3.505000
 10
-2.508000
 20
-3.505000
 10
-2.524000
 20
-3.503000
 10
-2.540000
 20
-3.499000
 10
-2.555000
 20
-3.493000
 10
-2.570000
 20
-3.485000
 10
-2.583000
 20
-3.475000
 10
-2.595000
 20
-3.464000
 10
-2.605000
 20
-3.451000
 10
-2.614000
 20
-3.438000
 10
-2.621000
 20
-3.423000
 10
-2.626000
 20
-3.407000
 10
-2.629000
 20
-3.391000
 10
-2.630000
 20
-3.375000
  0
LWPOLYLINE
  8
0
  90
51
  70
1
 10
-2.630000
 20
-1.500000
 10
-2.629000
 20
-1.484000
 10
-2.626000
 20
-1.468000
 10
-2.621000
 20
-1.452000
 10
-2.614000
 20
-1.437000
 10
-2.605000
 20
-1.424000
 10
-2.595000
 20
-1.411000
 10
-2.583000
 20
-1.400000
 10
-2.570000
 20
-1.390000
 10
-2.555000
 20
-1.382000
 10
-2.540000
 20
-1.376000
 10
-2.524000
 20
-1.372000
 10
-2.508000
 20
-1.370000
 10
-2.492000
 20
-1.370000
 10
-2.476000
 20
-1.372000
 10
-2.460000
 20
-1.376000
 10
-2.445000
 20
-1.382000
 10
-2.430000
 20
-1.390000
 10
-2.417000
 20
-1.400000
 10
-2.405000
 20
-1.411000
 10
-2.395000
 20
-1.424000
 10
-2.386000
 20
-1.437000
 10
-2.379000
 20
-1.452000
 10
-2.374000
 20
-1.468000
 10
-2.371000
 20
-1.484000
 10
-2.370000
 20
-1.500000
 10
-2.371000
 20
-1.516000
 10
-2.374000
 20
-1.532000
 10
-2.379000
 20
-1.548000
 10
-2.386000
 20
-1.563000
 10
-2.395000
 20
-1.576000
 10
-2.405000
 20
-1.589000
 10
-2.417000
 20
-1.600000
 10
-2.430000
 20
-1.610000
 10
-2.445000
 20
-1.618000
 10
-2.460000
 20
-1.624000
 10
-2.476000
 20
-1.628000
 10
-2.492000
 20
-1.630000
 10
-2.508000
 20
-1.630000
 10
-2.524000
 20
-1.628000
 10
-2.540000
 20
-1.624000
 10
-2.555000
 20
-1.618000
 10
-2.570000
 20
-1.610000
 10
-2.583000
 20
-1.600000
 10
-2.595000
 20
-1.589000
 10
-2.605000
 20
-1.576000
 10
-2.614000
 20
-1.563000
 10
-2.621000
 20
-1.548000
 10
-2.626000
 20
-1.532000
 10
-2.629000
 20
-1.516000
 10
-2.630000
 20
-1.500000
  0
LWPOLYLINE
  8
0
  90
51
  70
1
 10
-2.630000
 20
1.500000
 10
-2.629000
 20
1.516000
 10
-2.626000
 20
1.532000
 10
-2.621000
 20
1.548000
 10
-2.614000
 20
1.563000
 10
-2.605000
 20
1.576000
 10
-2.595000
 20
1.589000
 10
-2.583000
 20
1.600000
 10
-2.570000
 20
1.610000
 10
-2.555000
 20
1.618000
 10
-2.540000
 20
1.624000
 10
-2.524000
 20
1.628000
 10
-2.508000
 20
1.630000
 10
-2.492000
 20
1.630000
 10
-2.476000
 20
1.628000
 10
-2.460000
 20
1.624000
 10
-2.445000
 20
1.618000
 10
-2.430000
 20
1.610000
 10
-2.417000
 20
1.600000
 10
-2.405000
 20
1.589000
 10
-2.395000
 20
1.576000
 10
-2.386000
 20
1.563000
 10
-2.379000
 20
1.548000
 10
-2.374000
 20
1.532000
 10
-2.371000
 20
1.516000
 10
-2.370000
 20
1.500000
 10
-2.371000
 20
1.484000
 10
-2.374000
 20
1.468000
 10
-2.379000
 20
1.452000
 10
-2.386000
 20
1.437000
 10
-2.395000
 20
1.424000
 10
-2.405000
 20
1.411000
 10
-2.417000
 20
1.400000
 10
-2.430000
 20
1.390000
 10
-2.445000
 20
1.382000
 10
-2.460000
 20
1.376000
 10
-2.476000
 20
1.372000
 10
-2.492000
 20
1.370000
 10
-2.508000
 20
1.370000
 10
-2.524000
 20
1.372000
 10
-2.540000
 20
1.376000
 10
-2.555000
 20
1.382000
 10
-2.570000
 20
1.390000
 10
-2.583000
 20
1.400000
 10
-2.595000
 20
1.411000
 10
-2.605000
 20
1.424000
 10
-2.614000
 20
1.437000
 10
-2.621000
 20
1.452000
 10
-2.626000
 20
1.468000
 10
-2.629000
 20
1.484000
 10
-2.630000
 20
1.500000
  0
LWPOLYLINE
  8
0
  90
51
  70
1
 10
-2.630000
 20
3.375000
 10
-2.629000
 20
3.391000
 10
-2.626000
 20
3.407000
 10
-2.621000
 20
3.423000
 10
-2.614000
 20
3.438000
 10
-2.605000
 20
3.451000
 10
-2.595000
 20
3.464000
 10
-2.583000
 20
3.475000
 10
-2.570000
 20
3.485000
 10
-2.555000
 20
3.493000
 10
-2.540000
 20
3.499000
 10
-2.524000
 20
3.503000
 10
-2.508000
 20
3.505000
 10
-2.492000
 20
3.505000
 10
-2.476000
 20
3.503000
 10
-2.460000
 20
3.499000
 10
-2.445000
 20
3.493000
 10
-2.430000
 20
3.485000
 10
-2.417000
 20
3.475000
 10
-2.405000
 20
3.464000
 10
-2.395000
 20
3.451000
 10
-2.386000
 20
3.438000
 10
-2.379000
 20
3.423000
 10
-2.374000
 20
3.407000
 10
-2.371000
 20
3.391000
 10
-2.370000
 20
3.375000
 10
-2.371000
 20
3.359000
 10
-2.374000
 20
3.343000
 10
-2.379000
 20
3.327000
 10
-2.386000
 20
3.312000
 10
-2.395000
 20
3.299000
 10
-2.405000
 20
3.286000
 10
-2.417000
 20
3.275000
 10
-2.430000
 20
3.265000
 10
-2.445000
 20
3.257000
 10
-2.460000
 20
3.251000
 10
-2.476000
 20
3.247000
 10
-2.492000
 20
3.245000
 10
-2.508000
 20
3.245000
 10
-2.524000
 20
3.247000
 10
-2.540000
 20
3.251000
 10
-2.555000
 20
3.257000
 10
-2.570000
 20
3.265000
 10
-2.583000
 20
3.275000
 10
-2.595000
 20
3.286000
 10
-2.605000
 20
3.299000
 10
-2.614000
 20
3.312000
 10
-2.621000
 20
3.327000
 10
-2.626000
 20
3.343000
 10
-2.629000
 20
3.359000
 10
-2.630000
 20
3.375000
  0
LWPOLYLINE
  8
0
  90
51
  70
1
 10
-0.130000
 20
-1.500000
 10
-0.129000
 20
-1.484000
 10
-0.126000
 20
-1.468000
 10
-0.121000
 20
-1.452000
 10
-0.114000
 20
-1.437000
 10
-0.105000
 20
-1.424000
 10
-0.095000
 20
-1.411000
 10
-0.083000
 20
-1.400000
 10
-0.070000
 20
-1.390000
 10
-0.055000
 20
-1.382000
 10
-0.040000
 20
-1.376000
 10
-0.024000
 20
-1.372000
 10
-0.008000
 20
-1.370000
 10
0.008000
 20
-1.370000
 10
0.024000
 20
-1.372000
 10
0.040000
 20
-1.376000
 10
0.055000
 20
-1.382000
 10
0.070000
 20
-1.390000
 10
0.083000
 20
-1.400000
 10
0.095000
 20
-1.411000
 10
0.105000
 20
-1.424000
 10
0.114000
 20
-1.437000
 10
0.121000
 20
-1.452000
 10
0.126000
 20
-1.468000
 10
0.129000
 20
-1.484000
 10
0.130000
 20
-1.500000
 10
0.129000
 20
-1.516000
 10
0.126000
 20
-1.532000
 10
0.121000
 20
-1.548000
 10
0.114000
 20
-1.563000
 10
0.105000
 20
-1.576000
 10
0.095000
 20
-1.589000
 10
0.083000
 20
-1.600000
 10
0.070000
 20
-1.610000
 10
0.055000
 20
-1.618000
 10
0.040000
 20
-1.624000
 10
0.024000
 20
-1.628000
 10
0.008000
 20
-1.630000
 10
-0.008000
 20
-1.630000
 10
-0.024000
 20
-1.628000
 10
-0.040000
 20
-1.624000
 10
-0.055000
 20
-1.618000
 10
-0.070000
 20
-1.610000
 10
-0.083000
 20
-1.600000
 10
-0.095000
 20
-1.589000
 10
-0.105000
 20
-1.576000
 10
-0.114000
 20
-1.563000
 10
-0.121000
 20
-1.548000
 10
-0.126000
 20
-1.532000
 10
-0.129000
 20
-1.516000
 10
-0.130000
 20
-1.500000
  0
LWPOLYLINE
  8
0
  90
51
  70
1
 10
-0.130000
 20
1.500000
 10
-0.129000
 20
1.516000
 10
-0.126000
 20
1.532000
 10
-0.121000
 20
1.548000
 10
-0.114000
 20
1.563000
 10
-0.105000
 20
1.576000
 10
-0.095000
 20
1.589000
 10
-0.083000
 20
1.600000
 10
-0.070000
 20
1.610000
 10
-0.055000
 20
1.618000
 10
-0.040000
 20
1.624000
 10
-0.024000
 20
1.628000
 10
-0.008000
 20
1.630000
 10
0.008000
 20
1.630000
 10
0.024000
 20
1.628000
 10
0.040000
 20
1.624000
 10
0.055000
 20
1.618000
 10
0.070000
 20
1.610000
 10
0.083000
 20
1.600000
 10
0.095000
 20
1.589000
 10
0.105000
 20
1.576000
 10
0.114000
 20
1.563000
 10
0.121000
 20
1.548000
 10
0.126000
 20
1.532000
 10
0.129000
 20
1.516000
 10
0.130000
 20
1.500000
 10
0.129000
 20
1.484000
 10
0.126000
 20
1.468000
 10
0.121000
 20
1.452000
 10
0.114000
 20
1.437000
 10
0.105000
 20
1.424000
 10
0.095000
 20
1.411000
 10
0.083000
 20
1.400000
 10
0.070000
 20
1.390000
 10
0.055000
 20
1.382000
 10
0.040000
 20
1.376000
 10
0.024000
 20
1.372000
 10
0.008000
 20
1.370000
 10
-0.008000
 20
1.370000
 10
-0.024000
 20
1.372000
 10
-0.040000
 20
1.376000
 10
-0.055000
 20
1.382000
 10
-0.070000
 20
1.390000
 10
-0.083000
 20
1.400000
 10
-0.095000
 20
1.411000
 10
-0.105000
 20
1.424000
 10
-0.114000
 20
1.437000
 10
-0.121000
 20
1.452000
 10
-0.126000
 20
1.468000
 10
-0.129000
 20
1.484000
 10
-0.130000
 20
1.500000
  0
LWPOLYLINE
  8
0
  90
51
  70
1
 10
2.370000
 20
-3.375000
 10
2.371000
 20
-3.359000
 10
2.374000
 20
-3.343000
 10
2.379000
 20
-3.327000
 10
2.386000
 20
-3.312000
 10
2.395000
 20
-3.299000
 10
2.405000
 20
-3.286000
 10
2.417000
 20
-3.275000
 10
2.430000
 20
-3.265000
 10
2.445000
 20
-3.257000
 10
2.460000
 20
-3.251000
 10
2.476000
 20
-3.247000
 10
2.492000
 20
-3.245000
 10
2.508000
 20
-3.245000
 10
2.524000
 20
-3.247000
 10
2.540000
 20
-3.251000
 10
2.555000
 20
-3.257000
 10
2.570000
 20
-3.265000
 10
2.583000
 20
-3.275000
 10
2.595000
 20
-3.286000
 10
2.605000
 20
-3.299000
 10
2.614000
 20
-3.312000
 10
2.621000
 20
-3.327000
 10
2.626000
 20
-3.343000
 10
2.629000
 20
-3.359000
 10
2.630000
 20
-3.375000
 10
2.629000
 20
-3.391000
 10
2.626000
 20
-3.407000
 10
2.621000
 20
-3.423000
 10
2.614000
 20
-3.438000
 10
2.605000
 20
-3.451000
 10
2.595000
 20
-3.464000
 10
2.583000
 20
-3.475000
 10
2.570000
 20
-3.485000
 10
2.555000
 20
-3.493000
 10
2.540000
 20
-3.499000
 10
2.524000
 20
-3.503000
 10
2.508000
 20
-3.505000
 10
2.492000
 20
-3.505000
 10
2.476000
 20
-3.503000
 10
2.460000
 20
-3.499000
 10
2.445000
 20
-3.493000
 10
2.430000
 20
-3.485000
 10
2.417000
 20
-3.475000
 10
2.405000
 20
-3.464000
 10
2.395000
 20
-3.451000
 10
2.386000
 20
-3.438000
 10
2.379000
 20
-3.423000
 10
2.374000
 20
-3.407000
 10
2.371000
 20
-3.391000
 10
2.370000
 20
-3.375000
  0
LWPOLYLINE
  8
0
  90
51
  70
1
 10
2.370000
 20
-1.500000
 10
2.371000
 20
-1.484000
 10
2.374000
 20
-1.468000
 10
2.379000
 20
-1.452000
 10
2.386000
 20
-1.437000
 10
2.395000
 20
-1.424000
 10
2.405000
 20
-1.411000
 10
2.417000
 20
-1.400000
 10
2.430000
 20
-1.390000
 10
2.445000
 20
-1.382000
 10
2.460000
 20
-1.376000
 10
2.476000
 20
-1.372000
 10
2.492000
 20
-1.370000
 10
2.508000
 20
-1.370000
 10
2.524000
 20
-1.372000
 10
2.540000
 20
-1.376000
 10
2.555000
 20
-1.382000
 10
2.570000
 20
-1.390000
 10
2.583000
 20
-1.400000
 10
2.595000
 20
-1.411000
 10
2.605000
 20
-1.424000
 10
2.614000
 20
-1.437000
 10
2.621000
 20
-1.452000
 10
2.626000
 20
-1.468000
 10
2.629000
 20
-1.484000
 10
2.630000
 20
-1.500000
 10
2.629000
 20
-1.516000
 10
2.626000
 20
-1.532000
 10
2.621000
 20
-1.548000
 10
2.614000
 20
-1.563000
 10
2.605000
 20
-1.576000
 10
2.595000
 20
-1.589000
 10
2.583000
 20
-1.600000
 10
2.570000
 20
-1.610000
 10
2.555000
 20
-1.618000
 10
2.540000
 20
-1.624000
 10
2.524000
 20
-1.628000
 10
2.508000
 20
-1.630000
 10
2.492000
 20
-1.630000
 10
2.476000
 20
-1.628000
 10
2.460000
 20
-1.624000
 10
2.445000
 20
-1.618000
 10
2.430000
 20
-1.610000
 10
2.417000
 20
-1.600000
 10
2.405000
 20
-1.589000
 10
2.395000
 20
-1.576000
 10
2.386000
 20
-1.563000
 10
2.379000
 20
-1.548000
 10
2.374000
 20
-1.532000
 10
2.371000
 20
-1.516000
 10
2.370000
 20
-1.500000
  0
LWPOLYLINE
  8
0
  90
51
  70
1
 10
2.370000
 20
1.500000
 10
2.371000
 20
1.516000
 10
2.374000
 20
1.532000
 10
2.379000
 20
1.548000
 10
2.386000
 20
1.563000
 10
2.395000
 20
1.576000
 10
2.405000
 20
1.589000
 10
2.417000
 20
1.600000
 10
2.430000
 20
1.610000
 10
2.445000
 20
1.618000
 10
2.460000
 20
1.624000
 10
2.476000
 20
1.628000
 10
2.492000
 20
1.630000
 10
2.508000
 20
1.630000
 10
2.524000
 20
1.628000
 10
2.540000
 20
1.624000
 10
2.555000
 20
1.618000
 10
2.570000
 20
1.610000
 10
2.583000
 20
1.600000
 10
2.595000
 20
1.589000
 10
2.605000
 20
1.576000
 10
2.614000
 20
1.563000
 10
2.621000
 20
1.548000
 10
2.626000
 20
1.532000
 10
2.629000
 20
1.516000
 10
2.630000
 20
1.500000
 10
2.629000
 20
1.484000
 10
2.626000
 20
1.468000
 10
2.621000
 20
1.452000
 10
2.614000
 20
1.437000
 10
2.605000
 20
1.424000
 10
2.595000
 20
1.411000
 10
2.583000
 20
1.400000
 10
2.570000
 20
1.390000
 10
2.555000
 20
1.382000
 10
2.540000
 20
1.376000
 10
2.524000
 20
1.372000
 10
2.508000
 20
1.370000
 10
2.492000
 20
1.370000
 10
2.476000
 20
1.372000
 10
2.460000
 20
1.376000
 10
2.445000
 20
1.382000
 10
2.430000
 20
1.390000
 10
2.417000
 20
1.400000
 10
2.405000
 20
1.411000
 10
2.395000
 20
1.424000
 10
2.386000
 20
1.437000
 10
2.379000
 20
1.452000
 10
2.374000
 20
1.468000
 10
2.371000
 20
1.484000
 10
2.370000
 20
1.500000
  0
LWPOLYLINE
  8
0
  90
51
  70
1
 10
2.370000
 20
3.375000
 10
2.371000
 20
3.391000
 10
2.374000
 20
3.407000
 10
2.379000
 20
3.423000
 10
2.386000
 20
3.438000
 10
2.395000
 20
3.451000
 10
2.405000
 20
3.464000
 10
2.417000
 20
3.475000
 10
2.430000
 20
3.485000
 10
2.445000
 20
3.493000
 10
2.460000
 20
3.499000
 10
2.476000
 20
3.503000
 10
2.492000
 20
3.505000
 10
2.508000
 20
3.505000
 10
2.524000
 20
3.503000
 10
2.540000
 20
3.499000
 10
2.555000
 20
3.493000
 10
2.570000
 20
3.485000
 10
2.583000
 20
3.475000
 10
2.595000
 20
3.464000
 10
2.605000
 20
3.451000
 10
2.614000
 20
3.438000
 10
2.621000
 20
3.423000
 10
2.626000
 20
3.407000
 10
2.629000
 20
3.391000
 10
2.630000
 20
3.375000
 10
2.629000
 20
3.359000
 10
2.626000
 20
3.343000
 10
2.621000
 20
3.327000
 10
2.614000
 20
3.312000
 10
2.605000
 20
3.299000
 10
2.595000
 20
3.286000
 10
2.583000
 20
3.275000
 10
2.570000
 20
3.265000
 10
2.555000
 20
3.257000
 10
2.540000
 20
3.251000
 10
2.524000
 20
3.247000
 10
2.508000
 20
3.245000
 10
2.492000
 20
3.245000
 10
2.476000
 20
3.247000
 10
2.460000
 20
3.251000
 10
2.445000
 20
3.257000
 10
2.430000
 20
3.265000
 10
2.417000
 20
3.275000
 10
2.405000
 20
3.286000
 10
2.395000
 20
3.299000
 10
2.386000
 20
3.312000
 10
2.379000
 20
3.327000
 10
2.374000
 20
3.343000
 10
2.371000
 20
3.359000
 10
2.370000
 20
3.375000
  0
ENDSEC
  0
SECTION
  2
OBJECTS
  0
DICTIONARY
  0
ENDSEC
  0
EOF
