  0
SECTION
  2
HEADER
  9
$ACADVER
  1
AC1015
  0
ENDSEC
  0
SECTION
  2
BLOCKS
  0
ENDSEC
  0
SECTION
  2
ENTITIES
  0
LWPOLYLINE
  8
0
  90
5
  70
1
 10
-0.500000
 20
-3.000000
 10
-0.500000
 20
3.000000
 10
0.500000
 20
3.000000
 10
0.500000
 20
-3.000000
 10
-0.500000
 20
-3.000000
  0
LWPOLYLINE
  8
0
  90
51
  70
1
 10
-0.130000
 20
-2.500000
 10
-0.129000
 20
-2.484000
 10
-0.126000
 20
-2.468000
 10
-0.121000
 20
-2.452000
 10
-0.114000
 20
-2.437000
 10
-0.105000
 20
-2.424000
 10
-0.095000
 20
-2.411000
 10
-0.083000
 20
-2.400000
 10
-0.070000
 20
-2.390000
 10
-0.055000
 20
-2.382000
 10
-0.040000
 20
-2.376000
 10
-0.024000
 20
-2.372000
 10
-0.008000
 20
-2.370000
 10
0.008000
 20
-2.370000
 10
0.024000
 20
-2.372000
 10
0.040000
 20
-2.376000
 10
0.055000
 20
-2.382000
 10
0.070000
 20
-2.390000
 10
0.083000
 20
-2.400000
 10
0.095000
 20
-2.411000
 10
0.105000
 20
-2.424000
 10
0.114000
 20
-2.437000
 10
0.121000
 20
-2.452000
 10
0.126000
 20
-2.468000
 10
0.129000
 20
-2.484000
 10
0.130000
 20
-2.500000
 10
0.129000
 20
-2.516000
 10
0.126000
 20
-2.532000
 10
0.121000
 20
-2.548000
 10
0.114000
 20
-2.563000
 10
0.105000
 20
-2.576000
 10
0.095000
 20
-2.589000
 10
0.083000
 20
-2.600000
 10
0.070000
 20
-2.610000
 10
0.055000
 20
-2.618000
 10
0.040000
 20
-2.624000
 10
0.024000
 20
-2.628000
 10
0.008000
 20
-2.630000
 10
-0.008000
 20
-2.630000
 10
-0.024000
 20
-2.628000
 10
-0.040000
 20
-2.624000
 10
-0.055000
 20
-2.618000
 10
-0.070000
 20
-2.610000
 10
-0.083000
 20
-2.600000
 10
-0.095000
 20
-2.589000
 10
-0.105000
 20
-2.576000
 10
-0.114000
 20
-2.563000
 10
-0.121000
 20
-2.548000
 10
-0.126000
 20
-2.532000
 10
-0.129000
 20
-2.516000
 10
-0.130000
 20
-2.500000
  0
LWPOLYLINE
  8
0
  90
51
  70
1
 10
-0.130000
 20
2.500000
 10
-0.129000
 20
2.516000
 10
-0.126000
 20
2.532000
 10
-0.121000
 20
2.548000
 10
-0.114000
 20
2.563000
 10
-0.105000
 20
2.576000
 10
-0.095000
 20
2.589000
 10
-0.083000
 20
2.600000
 10
-0.070000
 20
2.610000
 10
-0.055000
 20
2.618000
 10
-0.040000
 20
2.624000
 10
-0.024000
 20
2.628000
 10
-0.008000
 20
2.630000
 10
0.008000
 20
2.630000
 10
0.024000
 20
2.628000
 10
0.040000
 20
2.624000
 10
0.055000
 20
2.618000
 10
0.070000
 20
2.610000
 10
0.083000
 20
2.600000
 10
0.095000
 20
2.589000
 10
0.105000
 20
2.576000
 10
0.114000
 20
2.563000
 10
0.121000
 20
2.548000
 10
0.126000
 20
2.532000
 10
0.129000
 20
2.516000
 10
0.130000
 20
2.500000
 10
0.129000
 20
2.484000
 10
0.126000
 20
2.468000
 10
0.121000
 20
2.452000
 10
0.114000
 20
2.437000
 10
0.105000
 20
2.424000
 10
0.095000
 20
2.411000
 10
0.083000
 20
2.400000
 10
0.070000
 20
2.390000
 10
0.055000
 20
2.382000
 10
0.040000
 20
2.376000
 10
0.024000
 20
2.372000
 10
0.008000
 20
2.370000
 10
-0.008000
 20
2.370000
 10
-0.024000
 20
2.372000
 10
-0.040000
 20
2.376000
 10
-0.055000
 20
2.382000
 10
-0.070000
 20
2.390000
 10
-0.083000
 20
2.400000
 10
-0.095000
 20
2.411000
 10
-0.105000
 20
2.424000
 10
-0.114000
 20
2.437000
 10
-0.121000
 20
2.452000
 10
-0.126000
 20
2.468000
 10
-0.129000
 20
2.484000
 10
-0.130000
 20
2.500000
  0
ENDSEC
  0
SECTION
  2
OBJECTS
  0
DICTIONARY
  0
ENDSEC
  0
EOF
