999
dxflib 2.0.4.8
  0
SECTION
  2
HEADER
  9
$ACADVER
  1
AC1015
  9
$HANDSEED
  5
FFFF
  9
$DIMASZ
 40
2.5
  9
$DIMGAP
 40
0.625
  9
$DIMEXO
 40
0.625
  9
$INSUNITS
 70
4
  9
$DIMTXT
 40
2.5
  9
$DIMSTYLE
  2
Standard
  9
$PLIMMAX
 10
210.0
 20
297.0
  9
$PLIMMIN
 10
0.0
 20
0.0
  9
$PINSBASE
 10
105.0
 20
148.5
 30
0.0
  9
$DIMEXE
 40
1.25
  0
ENDSEC
  0
SECTION
  2
TABLES
  0
TABLE
  2
VPORT
  5
8
100
AcDbSymbolTable
 70
1
  0
VPORT
  5
30
100
AcDbSymbolTableRecord
100
AcDbViewportTableRecord
  2
*Active
 70
0
 10
0.0
 20
0.0
 11
1.0
 21
1.0
 12
286.3055555555554861
 22
148.5
 13
0.0
 23
0.0
 14
10.0
 24
10.0
 15
10.0
 25
10.0
 16
0.0
 26
0.0
 36
1.0
 17
0.0
 27
0.0
 37
0.0
 40
297.0
 41
1.92798353909465
 42
50.0
 43
0.0
 44
0.0
 50
0.0
 51
0.0
 71
0
 72
100
 73
1
 74
3
 75
1
 76
1
 77
0
 78
0
281
0
 65
1
110
0.0
120
0.0
130
0.0
111
1.0
121
0.0
131
0.0
112
0.0
122
1.0
132
0.0
 79
0
146
0.0
  0
ENDTAB
  0
TABLE
  2
LTYPE
  5
5
100
AcDbSymbolTable
 70
21
  0
LTYPE
  5
14
100
AcDbSymbolTableRecord
100
AcDbLinetypeTableRecord
  2
ByBlock
 70
0
  3

 72
65
 73
0
 40
0.0
  0
LTYPE
  5
15
100
AcDbSymbolTableRecord
100
AcDbLinetypeTableRecord
  2
ByLayer
 70
0
  3

 72
65
 73
0
 40
0.0
  0
LTYPE
  5
16
100
AcDbSymbolTableRecord
100
AcDbLinetypeTableRecord
  2
CONTINUOUS
 70
0
  3
Solid line
 72
65
 73
0
 40
0.0
  0
LTYPE
  5
31
100
AcDbSymbolTableRecord
100
AcDbLinetypeTableRecord
  2
DOT
 70
0
  3
Dot . . . . . . . . . . . . . . . . . . . . . .
 72
65
 73
2
 40
6.3499999999999996
 49
0.0
 74
0
 49
-6.3499999999999996
 74
0
  0
LTYPE
  5
32
100
AcDbSymbolTableRecord
100
AcDbLinetypeTableRecord
  2
DOT2
 70
0
  3
Dot (.5x) .....................................
 72
65
 73
2
 40
3.1749999999999998
 49
0.0
 74
0
 49
-3.1749999999999998
 74
0
  0
LTYPE
  5
33
100
AcDbSymbolTableRecord
100
AcDbLinetypeTableRecord
  2
DOTX2
 70
0
  3
Dot (2x) .  .  .  .  .  .  .  .  .  .  .  .  .
 72
65
 73
2
 40
12.6999999999999993
 49
0.0
 74
0
 49
-12.6999999999999993
 74
0
  0
LTYPE
  5
34
100
AcDbSymbolTableRecord
100
AcDbLinetypeTableRecord
  2
DASHED
 70
0
  3
Dashed __ __ __ __ __ __ __ __ __ __ __ __ __ _
 72
65
 73
2
 40
19.0500000000000007
 49
12.6999999999999993
 74
0
 49
-6.3499999999999996
 74
0
  0
LTYPE
  5
35
100
AcDbSymbolTableRecord
100
AcDbLinetypeTableRecord
  2
DASHED2
 70
0
  3
Dashed (.5x) _ _ _ _ _ _ _ _ _ _ _ _ _ _ _ _ _
 72
65
 73
2
 40
9.5250000000000004
 49
6.3499999999999996
 74
0
 49
-3.1749999999999998
 74
0
  0
LTYPE
  5
36
100
AcDbSymbolTableRecord
100
AcDbLinetypeTableRecord
  2
DASHEDX2
 70
0
  3
Dashed (2x) ____  ____  ____  ____  ____  ___
 72
65
 73
2
 40
38.1000000000000014
 49
25.3999999999999986
 74
0
 49
-12.6999999999999993
 74
0
  0
LTYPE
  5
37
100
AcDbSymbolTableRecord
100
AcDbLinetypeTableRecord
  2
DASHDOT
 70
0
  3
Dash dot __ . __ . __ . __ . __ . __ . __ . __
 72
65
 73
4
 40
25.3999999999999986
 49
12.6999999999999993
 74
0
 49
-6.3499999999999996
 74
0
 49
0.0
 74
0
 49
-6.3499999999999996
 74
0
  0
LTYPE
  5
38
100
AcDbSymbolTableRecord
100
AcDbLinetypeTableRecord
  2
DASHDOT2
 70
0
  3
Dash dot (.5x) _._._._._._._._._._._._._._._.
 72
65
 73
4
 40
12.6999999999999993
 49
6.3499999999999996
 74
0
 49
-3.1749999999999998
 74
0
 49
0.0
 74
0
 49
-3.1749999999999998
 74
0
  0
LTYPE
  5
39
100
AcDbSymbolTableRecord
100
AcDbLinetypeTableRecord
  2
DASHDOTX2
 70
0
  3
Dash dot (2x) ____  .  ____  .  ____  .  ___
 72
65
 73
4
 40
50.7999999999999972
 49
25.3999999999999986
 74
0
 49
-12.6999999999999993
 74
0
 49
0.0
 74
0
 49
-12.6999999999999993
 74
0
  0
LTYPE
  5
3A
100
AcDbSymbolTableRecord
100
AcDbLinetypeTableRecord
  2
DIVIDE
 70
0
  3
Divide ____ . . ____ . . ____ . . ____ . . ____
 72
65
 73
6
 40
31.75
 49
12.6999999999999993
 74
0
 49
-6.3499999999999996
 74
0
 49
0.0
 74
0
 49
-6.3499999999999996
 74
0
 49
0.0
 74
0
 49
-6.3499999999999996
 74
0
  0
LTYPE
  5
3B
100
AcDbSymbolTableRecord
100
AcDbLinetypeTableRecord
  2
DIVIDE2
 70
0
  3
Divide (.5x) __..__..__..__..__..__..__..__.._
 72
65
 73
6
 40
15.875
 49
6.3499999999999996
 74
0
 49
-3.1749999999999998
 74
0
 49
0.0
 74
0
 49
-3.1749999999999998
 74
0
 49
0.0
 74
0
 49
-3.1749999999999998
 74
0
  0
LTYPE
  5
3C
100
AcDbSymbolTableRecord
100
AcDbLinetypeTableRecord
  2
DIVIDEX2
 70
0
  3
Divide (2x) ________  .  .  ________  .  .  _
 72
65
 73
6
 40
63.5
 49
25.3999999999999986
 74
0
 49
-12.6999999999999993
 74
0
 49
0.0
 74
0
 49
-12.6999999999999993
 74
0
 49
0.0
 74
0
 49
-12.6999999999999993
 74
0
  0
LTYPE
  5
3D
100
AcDbSymbolTableRecord
100
AcDbLinetypeTableRecord
  2
CENTER
 70
0
  3
Center ____ _ ____ _ ____ _ ____ _ ____ _ ____
 72
65
 73
4
 40
50.7999999999999972
 49
31.75
 74
0
 49
-6.3499999999999996
 74
0
 49
6.3499999999999996
 74
0
 49
-6.3499999999999996
 74
0
  0
LTYPE
  5
3E
100
AcDbSymbolTableRecord
100
AcDbLinetypeTableRecord
  2
CENTER2
 70
0
  3
Center (.5x) ___ _ ___ _ ___ _ ___ _ ___ _ ___
 72
65
 73
4
 40
28.5749999999999993
 49
19.0500000000000007
 74
0
 49
-3.1749999999999998
 74
0
 49
3.1749999999999998
 74
0
 49
-3.1749999999999998
 74
0
  0
LTYPE
  5
3F
100
AcDbSymbolTableRecord
100
AcDbLinetypeTableRecord
  2
CENTERX2
 70
0
  3
Center (2x) ________  __  ________  __  _____
 72
65
 73
4
 40
101.5999999999999943
 49
63.5
 74
0
 49
-12.6999999999999993
 74
0
 49
12.6999999999999993
 74
0
 49
-12.6999999999999993
 74
0
  0
LTYPE
  5
40
100
AcDbSymbolTableRecord
100
AcDbLinetypeTableRecord
  2
BORDER
 70
0
  3
Border __ __ . __ __ . __ __ . __ __ . __ __ .
 72
65
 73
6
 40
44.4500000000000028
 49
12.6999999999999993
 74
0
 49
-6.3499999999999996
 74
0
 49
12.6999999999999993
 74
0
 49
-6.3499999999999996
 74
0
 49
0.0
 74
0
 49
-6.3499999999999996
 74
0
  0
LTYPE
  5
41
100
AcDbSymbolTableRecord
100
AcDbLinetypeTableRecord
  2
BORDER2
 70
0
  3
Border (.5x) __.__.__.__.__.__.__.__.__.__.__.
 72
65
 73
6
 40
22.2250000000000014
 49
6.3499999999999996
 74
0
 49
-3.1749999999999998
 74
0
 49
6.3499999999999996
 74
0
 49
-3.1749999999999998
 74
0
 49
0.0
 74
0
 49
-3.1749999999999998
 74
0
  0
LTYPE
  5
42
100
AcDbSymbolTableRecord
100
AcDbLinetypeTableRecord
  2
BORDERX2
 70
0
  3
Border (2x) ____  ____  .  ____  ____  .  ___
 72
65
 73
6
 40
88.9000000000000057
 49
25.3999999999999986
 74
0
 49
-12.6999999999999993
 74
0
 49
25.3999999999999986
 74
0
 49
-12.6999999999999993
 74
0
 49
0.0
 74
0
 49
-12.6999999999999993
 74
0
  0
ENDTAB
  0
TABLE
  2
LAYER
  5
2
100
AcDbSymbolTable
 70
1
  0
LAYER
  5
10
100
AcDbSymbolTableRecord
100
AcDbLayerTableRecord
  2
0
 70
0
 62
7
  6
CONTINUOUS
370
0
390
F
  0
ENDTAB
  0
TABLE
  2
STYLE
  5
3
100
AcDbSymbolTable
 70
1
  0
STYLE
  5
11
100
AcDbSymbolTableRecord
100
AcDbTextStyleTableRecord
  2
Standard
 70
0
 40
0.0
 41
0.75
 50
0.0
 71
0
 42
2.5
  3
txt
  4

  0
ENDTAB
  0
TABLE
  2
VIEW
  5
6
100
AcDbSymbolTable
 70
0
  0
ENDTAB
  0
TABLE
  2
UCS
  5
7
100
AcDbSymbolTable
 70
0
  0
ENDTAB
  0
TABLE
  2
APPID
  5
9
100
AcDbSymbolTable
 70
1
  0
APPID
  5
12
100
AcDbSymbolTableRecord
100
AcDbRegAppTableRecord
  2
ACAD
 70
0
  0
ENDTAB
  0
TABLE
  2
DIMSTYLE
  5
A
100
AcDbSymbolTable
 70
1
100
AcDbDimStyleTable
 71
0
  0
DIMSTYLE
105
27
100
AcDbSymbolTableRecord
100
AcDbDimStyleTableRecord
  2
Standard
 41
2.5
 42
0.625
 43
3.75
 44
1.25
 70
0
 73
0
 74
0
 77
1
 78
8
140
2.5
141
2.5
143
0.03937007874016
147
0.625
171
3
172
1
271
2
272
2
274
3
278
44
283
0
284
8
340
11
  0
ENDTAB
  0
TABLE
  2
BLOCK_RECORD
  5
1
100
AcDbSymbolTable
 70
1
  0
BLOCK_RECORD
  5
1F
100
AcDbSymbolTableRecord
100
AcDbBlockTableRecord
  2
*Model_Space
340
22
  0
BLOCK_RECORD
  5
1B
100
AcDbSymbolTableRecord
100
AcDbBlockTableRecord
  2
*Paper_Space
340
1E
  0
BLOCK_RECORD
  5
23
100
AcDbSymbolTableRecord
100
AcDbBlockTableRecord
  2
*Paper_Space0
340
26
  0
ENDTAB
  0
ENDSEC
  0
SECTION
  2
BLOCKS
  0
BLOCK
  5
20
100
AcDbEntity
  8
0
100
AcDbBlockBegin
  2
*Model_Space
 70
0
 10
0.0
 20
0.0
 30
0.0
  3
*Model_Space
  1

  0
ENDBLK
  5
21
100
AcDbEntity
  8
0
100
AcDbBlockEnd
  0
BLOCK
  5
1C
100
AcDbEntity
 67
1
  8
0
100
AcDbBlockBegin
  2
*Paper_Space
 70
0
 10
0.0
 20
0.0
 30
0.0
  3
*Paper_Space
  1

  0
ENDBLK
  5
1D
100
AcDbEntity
 67
1
  8
0
100
AcDbBlockEnd
  0
BLOCK
  5
24
100
AcDbEntity
  8
0
100
AcDbBlockBegin
  2
*Paper_Space0
 70
0
 10
0.0
 20
0.0
 30
0.0
  3
*Paper_Space0
  1

  0
ENDBLK
  5
25
100
AcDbEntity
  8
0
100
AcDbBlockEnd
  0
ENDSEC
  0
SECTION
  2
ENTITIES
  0
LWPOLYLINE
  5
43
  8
0
 62
256
370
-1
  6
ByLayer
100
AcDbEntity
100
AcDbPolyline
 90
5
 70
1
 10
-9.5
 20
-3.5
 10
-9.5
 20
3.5
 10
-5.5
 20
3.5
 10
-5.5
 20
-3.5
 10
-9.5
 20
-3.5
  0
LWPOLYLINE
  5
44
  8
0
 62
256
370
-1
  6
ByLayer
100
AcDbEntity
100
AcDbPolyline
 90
51
 70
1
 10
-9.125
 20
-3.0
 10
-9.1240000000000006
 20
-2.984
 10
-9.1210000000000004
 20
-2.9689999999999999
 10
-9.1159999999999997
 20
-2.9540000000000002
 10
-9.1099999999999994
 20
-2.9399999999999999
 10
-9.1010000000000009
 20
-2.927
 10
-9.0909999999999993
 20
-2.9140000000000001
 10
-9.0800000000000001
 20
-2.9039999999999999
 10
-9.0670000000000002
 20
-2.8940000000000001
 10
-9.0530000000000008
 20
-2.887
 10
-9.0389999999999997
 20
-2.8809999999999998
 10
-9.0229999999999997
 20
-2.8769999999999998
 10
-9.0079999999999991
 20
-2.875
 10
-8.9920000000000009
 20
-2.875
 10
-8.9770000000000003
 20
-2.8769999999999998
 10
-8.9610000000000003
 20
-2.8809999999999998
 10
-8.9469999999999992
 20
-2.887
 10
-8.9329999999999998
 20
-2.8940000000000001
 10
-8.9199999999999999
 20
-2.9039999999999999
 10
-8.9090000000000007
 20
-2.9140000000000001
 10
-8.8989999999999991
 20
-2.927
 10
-8.8900000000000006
 20
-2.9399999999999999
 10
-8.8840000000000003
 20
-2.9540000000000002
 10
-8.8789999999999996
 20
-2.9689999999999999
 10
-8.8759999999999994
 20
-2.984
 10
-8.875
 20
-3.0
 10
-8.8759999999999994
 20
-3.016
 10
-8.8789999999999996
 20
-3.0310000000000001
 10
-8.8840000000000003
 20
-3.0459999999999998
 10
-8.8900000000000006
 20
-3.0600000000000001
 10
-8.8989999999999991
 20
-3.073
 10
-8.9090000000000007
 20
-3.0859999999999999
 10
-8.9199999999999999
 20
-3.0960000000000001
 10
-8.9329999999999998
 20
-3.1059999999999999
 10
-8.9469999999999992
 20
-3.113
 10
-8.9610000000000003
 20
-3.1190000000000002
 10
-8.9770000000000003
 20
-3.1230000000000002
 10
-8.9920000000000009
 20
-3.125
 10
-9.0079999999999991
 20
-3.125
 10
-9.0229999999999997
 20
-3.1230000000000002
 10
-9.0389999999999997
 20
-3.1190000000000002
 10
-9.0530000000000008
 20
-3.113
 10
-9.0670000000000002
 20
-3.1059999999999999
 10
-9.0800000000000001
 20
-3.0960000000000001
 10
-9.0909999999999993
 20
-3.0859999999999999
 10
-9.1010000000000009
 20
-3.073
 10
-9.1099999999999994
 20
-3.0600000000000001
 10
-9.1159999999999997
 20
-3.0459999999999998
 10
-9.1210000000000004
 20
-3.0310000000000001
 10
-9.1240000000000006
 20
-3.016
 10
-9.125
 20
-3.0
  0
LWPOLYLINE
  5
45
  8
0
 62
256
370
-1
  6
ByLayer
100
AcDbEntity
100
AcDbPolyline
 90
51
 70
1
 10
-9.125
 20
3.0
 10
-9.1240000000000006
 20
3.016
 10
-9.1210000000000004
 20
3.0310000000000001
 10
-9.1159999999999997
 20
3.0459999999999998
 10
-9.1099999999999994
 20
3.0600000000000001
 10
-9.1010000000000009
 20
3.073
 10
-9.0909999999999993
 20
3.0859999999999999
 10
-9.0800000000000001
 20
3.0960000000000001
 10
-9.0670000000000002
 20
3.1059999999999999
 10
-9.0530000000000008
 20
3.113
 10
-9.0389999999999997
 20
3.1190000000000002
 10
-9.0229999999999997
 20
3.1230000000000002
 10
-9.0079999999999991
 20
3.125
 10
-8.9920000000000009
 20
3.125
 10
-8.9770000000000003
 20
3.1230000000000002
 10
-8.9610000000000003
 20
3.1190000000000002
 10
-8.9469999999999992
 20
3.113
 10
-8.9329999999999998
 20
3.1059999999999999
 10
-8.9199999999999999
 20
3.0960000000000001
 10
-8.9090000000000007
 20
3.0859999999999999
 10
-8.8989999999999991
 20
3.073
 10
-8.8900000000000006
 20
3.0600000000000001
 10
-8.8840000000000003
 20
3.0459999999999998
 10
-8.8789999999999996
 20
3.0310000000000001
 10
-8.8759999999999994
 20
3.016
 10
-8.875
 20
3.0
 10
-8.8759999999999994
 20
2.984
 10
-8.8789999999999996
 20
2.9689999999999999
 10
-8.8840000000000003
 20
2.9540000000000002
 10
-8.8900000000000006
 20
2.9399999999999999
 10
-8.8989999999999991
 20
2.927
 10
-8.9090000000000007
 20
2.9140000000000001
 10
-8.9199999999999999
 20
2.9039999999999999
 10
-8.9329999999999998
 20
2.8940000000000001
 10
-8.9469999999999992
 20
2.887
 10
-8.9610000000000003
 20
2.8809999999999998
 10
-8.9770000000000003
 20
2.8769999999999998
 10
-8.9920000000000009
 20
2.875
 10
-9.0079999999999991
 20
2.875
 10
-9.0229999999999997
 20
2.8769999999999998
 10
-9.0389999999999997
 20
2.8809999999999998
 10
-9.0530000000000008
 20
2.887
 10
-9.0670000000000002
 20
2.8940000000000001
 10
-9.0800000000000001
 20
2.9039999999999999
 10
-9.0909999999999993
 20
2.9140000000000001
 10
-9.1010000000000009
 20
2.927
 10
-9.1099999999999994
 20
2.9399999999999999
 10
-9.1159999999999997
 20
2.9540000000000002
 10
-9.1210000000000004
 20
2.9689999999999999
 10
-9.1240000000000006
 20
2.984
 10
-9.125
 20
3.0
  0
LWPOLYLINE
  5
46
  8
0
 62
256
370
-1
  6
ByLayer
100
AcDbEntity
100
AcDbPolyline
 90
51
 70
1
 10
-8.4589999999999996
 20
-1.661
 10
-8.4570000000000007
 20
-1.6299999999999999
 10
-8.4510000000000005
 20
-1.599
 10
-8.4410000000000007
 20
-1.569
 10
-8.4280000000000008
 20
-1.5409999999999999
 10
-8.4109999999999996
 20
-1.514
 10
-8.391
 20
-1.49
 10
-8.3680000000000003
 20
-1.468
 10
-8.343
 20
-1.45
 10
-8.3149999999999995
 20
-1.4350000000000001
 10
-8.2859999999999996
 20
-1.423
 10
-8.2560000000000002
 20
-1.415
 10
-8.2249999999999996
 20
-1.411
 10
-8.1929999999999996
 20
-1.411
 10
-8.1620000000000008
 20
-1.415
 10
-8.1319999999999997
 20
-1.423
 10
-8.1029999999999998
 20
-1.4350000000000001
 10
-8.0749999999999993
 20
-1.45
 10
-8.0500000000000007
 20
-1.468
 10
-8.0269999999999992
 20
-1.49
 10
-8.0069999999999997
 20
-1.514
 10
-7.9900000000000002
 20
-1.5409999999999999
 10
-7.9770000000000003
 20
-1.569
 10
-7.9669999999999996
 20
-1.599
 10
-7.9610000000000003
 20
-1.6299999999999999
 10
-7.9589999999999996
 20
-1.661
 10
-7.9610000000000003
 20
-1.6919999999999999
 10
-7.9669999999999996
 20
-1.7230000000000001
 10
-7.9770000000000003
 20
-1.7529999999999999
 10
-7.9900000000000002
 20
-1.7809999999999999
 10
-8.0069999999999997
 20
-1.8080000000000001
 10
-8.0269999999999992
 20
-1.8320000000000001
 10
-8.0500000000000007
 20
-1.8540000000000001
 10
-8.0749999999999993
 20
-1.8720000000000001
 10
-8.1029999999999998
 20
-1.887
 10
-8.1319999999999997
 20
-1.899
 10
-8.1620000000000008
 20
-1.907
 10
-8.1929999999999996
 20
-1.911
 10
-8.2249999999999996
 20
-1.911
 10
-8.2560000000000002
 20
-1.907
 10
-8.2859999999999996
 20
-1.899
 10
-8.3149999999999995
 20
-1.887
 10
-8.343
 20
-1.8720000000000001
 10
-8.3680000000000003
 20
-1.8540000000000001
 10
-8.391
 20
-1.8320000000000001
 10
-8.4109999999999996
 20
-1.8080000000000001
 10
-8.4280000000000008
 20
-1.7809999999999999
 10
-8.4410000000000007
 20
-1.7529999999999999
 10
-8.4510000000000005
 20
-1.7230000000000001
 10
-8.4570000000000007
 20
-1.6919999999999999
 10
-8.4589999999999996
 20
-1.661
  0
LWPOLYLINE
  5
47
  8
0
 62
256
370
-1
  6
ByLayer
100
AcDbEntity
100
AcDbPolyline
 90
51
 70
1
 10
-8.4589999999999996
 20
1.661
 10
-8.4570000000000007
 20
1.6919999999999999
 10
-8.4510000000000005
 20
1.7230000000000001
 10
-8.4410000000000007
 20
1.7529999999999999
 10
-8.4280000000000008
 20
1.7809999999999999
 10
-8.4109999999999996
 20
1.8080000000000001
 10
-8.391
 20
1.8320000000000001
 10
-8.3680000000000003
 20
1.8540000000000001
 10
-8.343
 20
1.8720000000000001
 10
-8.3149999999999995
 20
1.887
 10
-8.2859999999999996
 20
1.899
 10
-8.2560000000000002
 20
1.907
 10
-8.2249999999999996
 20
1.911
 10
-8.1929999999999996
 20
1.911
 10
-8.1620000000000008
 20
1.907
 10
-8.1319999999999997
 20
1.899
 10
-8.1029999999999998
 20
1.887
 10
-8.0749999999999993
 20
1.8720000000000001
 10
-8.0500000000000007
 20
1.8540000000000001
 10
-8.0269999999999992
 20
1.8320000000000001
 10
-8.0069999999999997
 20
1.8080000000000001
 10
-7.9900000000000002
 20
1.7809999999999999
 10
-7.9770000000000003
 20
1.7529999999999999
 10
-7.9669999999999996
 20
1.7230000000000001
 10
-7.9610000000000003
 20
1.6919999999999999
 10
-7.9589999999999996
 20
1.661
 10
-7.9610000000000003
 20
1.6299999999999999
 10
-7.9669999999999996
 20
1.599
 10
-7.9770000000000003
 20
1.569
 10
-7.9900000000000002
 20
1.5409999999999999
 10
-8.0069999999999997
 20
1.514
 10
-8.0269999999999992
 20
1.49
 10
-8.0500000000000007
 20
1.468
 10
-8.0749999999999993
 20
1.45
 10
-8.1029999999999998
 20
1.4350000000000001
 10
-8.1319999999999997
 20
1.423
 10
-8.1620000000000008
 20
1.415
 10
-8.1929999999999996
 20
1.411
 10
-8.2249999999999996
 20
1.411
 10
-8.2560000000000002
 20
1.415
 10
-8.2859999999999996
 20
1.423
 10
-8.3149999999999995
 20
1.4350000000000001
 10
-8.343
 20
1.45
 10
-8.3680000000000003
 20
1.468
 10
-8.391
 20
1.49
 10
-8.4109999999999996
 20
1.514
 10
-8.4280000000000008
 20
1.5409999999999999
 10
-8.4410000000000007
 20
1.569
 10
-8.4510000000000005
 20
1.599
 10
-8.4570000000000007
 20
1.6299999999999999
 10
-8.4589999999999996
 20
1.661
  0
LWPOLYLINE
  5
48
  8
0
 62
256
370
-1
  6
ByLayer
100
AcDbEntity
100
AcDbPolyline
 90
51
 70
1
 10
-7.0410000000000004
 20
-1.661
 10
-7.0389999999999997
 20
-1.6299999999999999
 10
-7.0330000000000004
 20
-1.599
 10
-7.0229999999999997
 20
-1.569
 10
-7.0099999999999998
 20
-1.5409999999999999
 10
-6.9930000000000003
 20
-1.514
 10
-6.9729999999999999
 20
-1.49
 10
-6.9500000000000002
 20
-1.468
 10
-6.9249999999999998
 20
-1.45
 10
-6.8970000000000002
 20
-1.4350000000000001
 10
-6.8680000000000003
 20
-1.423
 10
-6.8380000000000001
 20
-1.415
 10
-6.8070000000000004
 20
-1.411
 10
-6.7750000000000004
 20
-1.411
 10
-6.7439999999999998
 20
-1.415
 10
-6.7140000000000004
 20
-1.423
 10
-6.6849999999999996
 20
-1.4350000000000001
 10
-6.657
 20
-1.45
 10
-6.6319999999999997
 20
-1.468
 10
-6.609
 20
-1.49
 10
-6.5890000000000004
 20
-1.514
 10
-6.5720000000000001
 20
-1.5409999999999999
 10
-6.5590000000000002
 20
-1.569
 10
-6.5490000000000004
 20
-1.599
 10
-6.5430000000000001
 20
-1.6299999999999999
 10
-6.5410000000000004
 20
-1.661
 10
-6.5430000000000001
 20
-1.6919999999999999
 10
-6.5490000000000004
 20
-1.7230000000000001
 10
-6.5590000000000002
 20
-1.7529999999999999
 10
-6.5720000000000001
 20
-1.7809999999999999
 10
-6.5890000000000004
 20
-1.8080000000000001
 10
-6.609
 20
-1.8320000000000001
 10
-6.6319999999999997
 20
-1.8540000000000001
 10
-6.657
 20
-1.8720000000000001
 10
-6.6849999999999996
 20
-1.887
 10
-6.7140000000000004
 20
-1.899
 10
-6.7439999999999998
 20
-1.907
 10
-6.7750000000000004
 20
-1.911
 10
-6.8070000000000004
 20
-1.911
 10
-6.8380000000000001
 20
-1.907
 10
-6.8680000000000003
 20
-1.899
 10
-6.8970000000000002
 20
-1.887
 10
-6.9249999999999998
 20
-1.8720000000000001
 10
-6.9500000000000002
 20
-1.8540000000000001
 10
-6.9729999999999999
 20
-1.8320000000000001
 10
-6.9930000000000003
 20
-1.8080000000000001
 10
-7.0099999999999998
 20
-1.7809999999999999
 10
-7.0229999999999997
 20
-1.7529999999999999
 10
-7.0330000000000004
 20
-1.7230000000000001
 10
-7.0389999999999997
 20
-1.6919999999999999
 10
-7.0410000000000004
 20
-1.661
  0
LWPOLYLINE
  5
49
  8
0
 62
256
370
-1
  6
ByLayer
100
AcDbEntity
100
AcDbPolyline
 90
51
 70
1
 10
-7.0410000000000004
 20
1.661
 10
-7.0389999999999997
 20
1.6919999999999999
 10
-7.0330000000000004
 20
1.7230000000000001
 10
-7.0229999999999997
 20
1.7529999999999999
 10
-7.0099999999999998
 20
1.7809999999999999
 10
-6.9930000000000003
 20
1.8080000000000001
 10
-6.9729999999999999
 20
1.8320000000000001
 10
-6.9500000000000002
 20
1.8540000000000001
 10
-6.9249999999999998
 20
1.8720000000000001
 10
-6.8970000000000002
 20
1.887
 10
-6.8680000000000003
 20
1.899
 10
-6.8380000000000001
 20
1.907
 10
-6.8070000000000004
 20
1.911
 10
-6.7750000000000004
 20
1.911
 10
-6.7439999999999998
 20
1.907
 10
-6.7140000000000004
 20
1.899
 10
-6.6849999999999996
 20
1.887
 10
-6.657
 20
1.8720000000000001
 10
-6.6319999999999997
 20
1.8540000000000001
 10
-6.609
 20
1.8320000000000001
 10
-6.5890000000000004
 20
1.8080000000000001
 10
-6.5720000000000001
 20
1.7809999999999999
 10
-6.5590000000000002
 20
1.7529999999999999
 10
-6.5490000000000004
 20
1.7230000000000001
 10
-6.5430000000000001
 20
1.6919999999999999
 10
-6.5410000000000004
 20
1.661
 10
-6.5430000000000001
 20
1.6299999999999999
 10
-6.5490000000000004
 20
1.599
 10
-6.5590000000000002
 20
1.569
 10
-6.5720000000000001
 20
1.5409999999999999
 10
-6.5890000000000004
 20
1.514
 10
-6.609
 20
1.49
 10
-6.6319999999999997
 20
1.468
 10
-6.657
 20
1.45
 10
-6.6849999999999996
 20
1.4350000000000001
 10
-6.7140000000000004
 20
1.423
 10
-6.7439999999999998
 20
1.415
 10
-6.7750000000000004
 20
1.411
 10
-6.8070000000000004
 20
1.411
 10
-6.8380000000000001
 20
1.415
 10
-6.8680000000000003
 20
1.423
 10
-6.8970000000000002
 20
1.4350000000000001
 10
-6.9249999999999998
 20
1.45
 10
-6.9500000000000002
 20
1.468
 10
-6.9729999999999999
 20
1.49
 10
-6.9930000000000003
 20
1.514
 10
-7.0099999999999998
 20
1.5409999999999999
 10
-7.0229999999999997
 20
1.569
 10
-7.0330000000000004
 20
1.599
 10
-7.0389999999999997
 20
1.6299999999999999
 10
-7.0410000000000004
 20
1.661
  0
LWPOLYLINE
  5
4A
  8
0
 62
256
370
-1
  6
ByLayer
100
AcDbEntity
100
AcDbPolyline
 90
51
 70
1
 10
-6.125
 20
-3.0
 10
-6.1239999999999997
 20
-2.984
 10
-6.1210000000000004
 20
-2.9689999999999999
 10
-6.1159999999999997
 20
-2.9540000000000002
 10
-6.1100000000000003
 20
-2.9399999999999999
 10
-6.101
 20
-2.927
 10
-6.0910000000000002
 20
-2.9140000000000001
 10
-6.0800000000000001
 20
-2.9039999999999999
 10
-6.0670000000000002
 20
-2.8940000000000001
 10
-6.0529999999999999
 20
-2.887
 10
-6.0389999999999997
 20
-2.8809999999999998
 10
-6.0229999999999997
 20
-2.8769999999999998
 10
-6.008
 20
-2.875
 10
-5.992
 20
-2.875
 10
-5.9770000000000003
 20
-2.8769999999999998
 10
-5.9610000000000003
 20
-2.8809999999999998
 10
-5.9470000000000001
 20
-2.887
 10
-5.9329999999999998
 20
-2.8940000000000001
 10
-5.9199999999999999
 20
-2.9039999999999999
 10
-5.9089999999999998
 20
-2.9140000000000001
 10
-5.899
 20
-2.927
 10
-5.8899999999999997
 20
-2.9399999999999999
 10
-5.8840000000000003
 20
-2.9540000000000002
 10
-5.8789999999999996
 20
-2.9689999999999999
 10
-5.8760000000000003
 20
-2.984
 10
-5.875
 20
-3.0
 10
-5.8760000000000003
 20
-3.016
 10
-5.8789999999999996
 20
-3.0310000000000001
 10
-5.8840000000000003
 20
-3.0459999999999998
 10
-5.8899999999999997
 20
-3.0600000000000001
 10
-5.899
 20
-3.073
 10
-5.9089999999999998
 20
-3.0859999999999999
 10
-5.9199999999999999
 20
-3.0960000000000001
 10
-5.9329999999999998
 20
-3.1059999999999999
 10
-5.9470000000000001
 20
-3.113
 10
-5.9610000000000003
 20
-3.1190000000000002
 10
-5.9770000000000003
 20
-3.1230000000000002
 10
-5.992
 20
-3.125
 10
-6.008
 20
-3.125
 10
-6.0229999999999997
 20
-3.1230000000000002
 10
-6.0389999999999997
 20
-3.1190000000000002
 10
-6.0529999999999999
 20
-3.113
 10
-6.0670000000000002
 20
-3.1059999999999999
 10
-6.0800000000000001
 20
-3.0960000000000001
 10
-6.0910000000000002
 20
-3.0859999999999999
 10
-6.101
 20
-3.073
 10
-6.1100000000000003
 20
-3.0600000000000001
 10
-6.1159999999999997
 20
-3.0459999999999998
 10
-6.1210000000000004
 20
-3.0310000000000001
 10
-6.1239999999999997
 20
-3.016
 10
-6.125
 20
-3.0
  0
LWPOLYLINE
  5
4B
  8
0
 62
256
370
-1
  6
ByLayer
100
AcDbEntity
100
AcDbPolyline
 90
51
 70
1
 10
-6.125
 20
3.0
 10
-6.1239999999999997
 20
3.016
 10
-6.1210000000000004
 20
3.0310000000000001
 10
-6.1159999999999997
 20
3.0459999999999998
 10
-6.1100000000000003
 20
3.0600000000000001
 10
-6.101
 20
3.073
 10
-6.0910000000000002
 20
3.0859999999999999
 10
-6.0800000000000001
 20
3.0960000000000001
 10
-6.0670000000000002
 20
3.1059999999999999
 10
-6.0529999999999999
 20
3.113
 10
-6.0389999999999997
 20
3.1190000000000002
 10
-6.0229999999999997
 20
3.1230000000000002
 10
-6.008
 20
3.125
 10
-5.992
 20
3.125
 10
-5.9770000000000003
 20
3.1230000000000002
 10
-5.9610000000000003
 20
3.1190000000000002
 10
-5.9470000000000001
 20
3.113
 10
-5.9329999999999998
 20
3.1059999999999999
 10
-5.9199999999999999
 20
3.0960000000000001
 10
-5.9089999999999998
 20
3.0859999999999999
 10
-5.899
 20
3.073
 10
-5.8899999999999997
 20
3.0600000000000001
 10
-5.8840000000000003
 20
3.0459999999999998
 10
-5.8789999999999996
 20
3.0310000000000001
 10
-5.8760000000000003
 20
3.016
 10
-5.875
 20
3.0
 10
-5.8760000000000003
 20
2.984
 10
-5.8789999999999996
 20
2.9689999999999999
 10
-5.8840000000000003
 20
2.9540000000000002
 10
-5.8899999999999997
 20
2.9399999999999999
 10
-5.899
 20
2.927
 10
-5.9089999999999998
 20
2.9140000000000001
 10
-5.9199999999999999
 20
2.9039999999999999
 10
-5.9329999999999998
 20
2.8940000000000001
 10
-5.9470000000000001
 20
2.887
 10
-5.9610000000000003
 20
2.8809999999999998
 10
-5.9770000000000003
 20
2.8769999999999998
 10
-5.992
 20
2.875
 10
-6.008
 20
2.875
 10
-6.0229999999999997
 20
2.8769999999999998
 10
-6.0389999999999997
 20
2.8809999999999998
 10
-6.0529999999999999
 20
2.887
 10
-6.0670000000000002
 20
2.8940000000000001
 10
-6.0800000000000001
 20
2.9039999999999999
 10
-6.0910000000000002
 20
2.9140000000000001
 10
-6.101
 20
2.927
 10
-6.1100000000000003
 20
2.9399999999999999
 10
-6.1159999999999997
 20
2.9540000000000002
 10
-6.1210000000000004
 20
2.9689999999999999
 10
-6.1239999999999997
 20
2.984
 10
-6.125
 20
3.0
  0
LWPOLYLINE
  5
4C
  8
0
 62
256
370
-1
  6
ByLayer
100
AcDbEntity
100
AcDbPolyline
 90
5
 70
1
 10
-5.0
 20
-5.0
 10
-5.0
 20
5.0
 10
5.0
 20
5.0
 10
5.0
 20
-5.0
 10
-5.0
 20
-5.0
  0
LWPOLYLINE
  5
4D
  8
0
 62
256
370
-1
  6
ByLayer
100
AcDbEntity
100
AcDbPolyline
 90
51
 70
1
 10
-4.125
 20
-0.5
 10
-4.1239999999999997
 20
-0.484
 10
-4.1210000000000004
 20
-0.469
 10
-4.1159999999999997
 20
-0.454
 10
-4.1100000000000003
 20
-0.44
 10
-4.101
 20
-0.427
 10
-4.0910000000000002
 20
-0.414
 10
-4.0800000000000001
 20
-0.404
 10
-4.0670000000000002
 20
-0.394
 10
-4.0529999999999999
 20
-0.387
 10
-4.0389999999999997
 20
-0.381
 10
-4.0229999999999997
 20
-0.377
 10
-4.008
 20
-0.375
 10
-3.992
 20
-0.375
 10
-3.9769999999999999
 20
-0.377
 10
-3.9609999999999999
 20
-0.381
 10
-3.9470000000000001
 20
-0.387
 10
-3.9329999999999998
 20
-0.394
 10
-3.9199999999999999
 20
-0.404
 10
-3.9089999999999998
 20
-0.414
 10
-3.899
 20
-0.427
 10
-3.8900000000000001
 20
-0.44
 10
-3.8839999999999999
 20
-0.454
 10
-3.879
 20
-0.469
 10
-3.8759999999999999
 20
-0.484
 10
-3.875
 20
-0.5
 10
-3.8759999999999999
 20
-0.516
 10
-3.879
 20
-0.531
 10
-3.8839999999999999
 20
-0.546
 10
-3.8900000000000001
 20
-0.5600000000000001
 10
-3.899
 20
-0.573
 10
-3.9089999999999998
 20
-0.586
 10
-3.9199999999999999
 20
-0.596
 10
-3.9329999999999998
 20
-0.606
 10
-3.9470000000000001
 20
-0.613
 10
-3.9609999999999999
 20
-0.619
 10
-3.9769999999999999
 20
-0.623
 10
-3.992
 20
-0.625
 10
-4.008
 20
-0.625
 10
-4.0229999999999997
 20
-0.623
 10
-4.0389999999999997
 20
-0.619
 10
-4.0529999999999999
 20
-0.613
 10
-4.0670000000000002
 20
-0.606
 10
-4.0800000000000001
 20
-0.596
 10
-4.0910000000000002
 20
-0.586
 10
-4.101
 20
-0.573
 10
-4.1100000000000003
 20
-0.5600000000000001
 10
-4.1159999999999997
 20
-0.546
 10
-4.1210000000000004
 20
-0.531
 10
-4.1239999999999997
 20
-0.516
 10
-4.125
 20
-0.5
  0
LWPOLYLINE
  5
4E
  8
0
 62
256
370
-1
  6
ByLayer
100
AcDbEntity
100
AcDbPolyline
 90
51
 70
1
 10
-4.125
 20
0.5
 10
-4.1239999999999997
 20
0.516
 10
-4.1210000000000004
 20
0.531
 10
-4.1159999999999997
 20
0.546
 10
-4.1100000000000003
 20
0.5600000000000001
 10
-4.101
 20
0.573
 10
-4.0910000000000002
 20
0.586
 10
-4.0800000000000001
 20
0.596
 10
-4.0670000000000002
 20
0.606
 10
-4.0529999999999999
 20
0.613
 10
-4.0389999999999997
 20
0.619
 10
-4.0229999999999997
 20
0.623
 10
-4.008
 20
0.625
 10
-3.992
 20
0.625
 10
-3.9769999999999999
 20
0.623
 10
-3.9609999999999999
 20
0.619
 10
-3.9470000000000001
 20
0.613
 10
-3.9329999999999998
 20
0.606
 10
-3.9199999999999999
 20
0.596
 10
-3.9089999999999998
 20
0.586
 10
-3.899
 20
0.573
 10
-3.8900000000000001
 20
0.5600000000000001
 10
-3.8839999999999999
 20
0.546
 10
-3.879
 20
0.531
 10
-3.8759999999999999
 20
0.516
 10
-3.875
 20
0.5
 10
-3.8759999999999999
 20
0.484
 10
-3.879
 20
0.469
 10
-3.8839999999999999
 20
0.454
 10
-3.8900000000000001
 20
0.44
 10
-3.899
 20
0.427
 10
-3.9089999999999998
 20
0.414
 10
-3.9199999999999999
 20
0.404
 10
-3.9329999999999998
 20
0.394
 10
-3.9470000000000001
 20
0.387
 10
-3.9609999999999999
 20
0.381
 10
-3.9769999999999999
 20
0.377
 10
-3.992
 20
0.375
 10
-4.008
 20
0.375
 10
-4.0229999999999997
 20
0.377
 10
-4.0389999999999997
 20
0.381
 10
-4.0529999999999999
 20
0.387
 10
-4.0670000000000002
 20
0.394
 10
-4.0800000000000001
 20
0.404
 10
-4.0910000000000002
 20
0.414
 10
-4.101
 20
0.427
 10
-4.1100000000000003
 20
0.44
 10
-4.1159999999999997
 20
0.454
 10
-4.1210000000000004
 20
0.469
 10
-4.1239999999999997
 20
0.484
 10
-4.125
 20
0.5
  0
LWPOLYLINE
  5
4F
  8
0
 62
256
370
-1
  6
ByLayer
100
AcDbEntity
100
AcDbPolyline
 90
5
 70
1
 10
-3.0
 20
-9.625
 10
-3.0
 20
-5.375
 10
3.0
 20
-5.375
 10
3.0
 20
-9.625
 10
-3.0
 20
-9.625
  0
LWPOLYLINE
  5
50
  8
0
 62
256
370
-1
  6
ByLayer
100
AcDbEntity
100
AcDbPolyline
 90
51
 70
1
 10
-2.625
 20
-8.5
 10
-2.6240000000000001
 20
-8.484
 10
-2.621
 20
-8.4689999999999994
 10
-2.6160000000000001
 20
-8.4540000000000006
 10
-2.6099999999999999
 20
-8.4399999999999995
 10
-2.601
 20
-8.4269999999999996
 10
-2.5910000000000002
 20
-8.4139999999999997
 10
-2.5800000000000001
 20
-8.4039999999999999
 10
-2.5670000000000002
 20
-8.3940000000000001
 10
-2.5529999999999999
 20
-8.3870000000000005
 10
-2.5390000000000001
 20
-8.3810000000000002
 10
-2.5230000000000001
 20
-8.3770000000000007
 10
-2.508
 20
-8.375
 10
-2.492
 20
-8.375
 10
-2.4769999999999999
 20
-8.3770000000000007
 10
-2.4609999999999999
 20
-8.3810000000000002
 10
-2.4470000000000001
 20
-8.3870000000000005
 10
-2.4329999999999998
 20
-8.3940000000000001
 10
-2.4199999999999999
 20
-8.4039999999999999
 10
-2.4089999999999998
 20
-8.4139999999999997
 10
-2.399
 20
-8.4269999999999996
 10
-2.3900000000000001
 20
-8.4399999999999995
 10
-2.3839999999999999
 20
-8.4540000000000006
 10
-2.379
 20
-8.4689999999999994
 10
-2.3759999999999999
 20
-8.484
 10
-2.375
 20
-8.5
 10
-2.3759999999999999
 20
-8.516
 10
-2.379
 20
-8.5310000000000006
 10
-2.3839999999999999
 20
-8.5459999999999994
 10
-2.3900000000000001
 20
-8.5600000000000005
 10
-2.399
 20
-8.5730000000000004
 10
-2.4089999999999998
 20
-8.5860000000000003
 10
-2.4199999999999999
 20
-8.5960000000000001
 10
-2.4329999999999998
 20
-8.6059999999999999
 10
-2.4470000000000001
 20
-8.6129999999999995
 10
-2.4609999999999999
 20
-8.6189999999999998
 10
-2.4769999999999999
 20
-8.6229999999999993
 10
-2.492
 20
-8.625
 10
-2.508
 20
-8.625
 10
-2.5230000000000001
 20
-8.6229999999999993
 10
-2.5390000000000001
 20
-8.6189999999999998
 10
-2.5529999999999999
 20
-8.6129999999999995
 10
-2.5670000000000002
 20
-8.6059999999999999
 10
-2.5800000000000001
 20
-8.5960000000000001
 10
-2.5910000000000002
 20
-8.5860000000000003
 10
-2.601
 20
-8.5730000000000004
 10
-2.6099999999999999
 20
-8.5600000000000005
 10
-2.6160000000000001
 20
-8.5459999999999994
 10
-2.621
 20
-8.5310000000000006
 10
-2.6240000000000001
 20
-8.516
 10
-2.625
 20
-8.5
  0
LWPOLYLINE
  5
51
  8
0
 62
256
370
-1
  6
ByLayer
100
AcDbEntity
100
AcDbPolyline
 90
51
 70
1
 10
-2.625
 20
-7.5
 10
-2.6240000000000001
 20
-7.484
 10
-2.621
 20
-7.4690000000000003
 10
-2.6160000000000001
 20
-7.4539999999999997
 10
-2.6099999999999999
 20
-7.4400000000000004
 10
-2.601
 20
-7.4269999999999996
 10
-2.5910000000000002
 20
-7.4139999999999997
 10
-2.5800000000000001
 20
-7.4039999999999999
 10
-2.5670000000000002
 20
-7.3940000000000001
 10
-2.5529999999999999
 20
-7.3869999999999996
 10
-2.5390000000000001
 20
-7.3810000000000002
 10
-2.5230000000000001
 20
-7.3769999999999998
 10
-2.508
 20
-7.375
 10
-2.492
 20
-7.375
 10
-2.4769999999999999
 20
-7.3769999999999998
 10
-2.4609999999999999
 20
-7.3810000000000002
 10
-2.4470000000000001
 20
-7.3869999999999996
 10
-2.4329999999999998
 20
-7.3940000000000001
 10
-2.4199999999999999
 20
-7.4039999999999999
 10
-2.4089999999999998
 20
-7.4139999999999997
 10
-2.399
 20
-7.4269999999999996
 10
-2.3900000000000001
 20
-7.4400000000000004
 10
-2.3839999999999999
 20
-7.4539999999999997
 10
-2.379
 20
-7.4690000000000003
 10
-2.3759999999999999
 20
-7.484
 10
-2.375
 20
-7.5
 10
-2.3759999999999999
 20
-7.516
 10
-2.379
 20
-7.5309999999999997
 10
-2.3839999999999999
 20
-7.5460000000000003
 10
-2.3900000000000001
 20
-7.5599999999999996
 10
-2.399
 20
-7.5730000000000004
 10
-2.4089999999999998
 20
-7.5860000000000003
 10
-2.4199999999999999
 20
-7.5960000000000001
 10
-2.4329999999999998
 20
-7.6059999999999999
 10
-2.4470000000000001
 20
-7.6130000000000004
 10
-2.4609999999999999
 20
-7.6189999999999998
 10
-2.4769999999999999
 20
-7.6230000000000002
 10
-2.492
 20
-7.625
 10
-2.508
 20
-7.625
 10
-2.5230000000000001
 20
-7.6230000000000002
 10
-2.5390000000000001
 20
-7.6189999999999998
 10
-2.5529999999999999
 20
-7.6130000000000004
 10
-2.5670000000000002
 20
-7.6059999999999999
 10
-2.5800000000000001
 20
-7.5960000000000001
 10
-2.5910000000000002
 20
-7.5860000000000003
 10
-2.601
 20
-7.5730000000000004
 10
-2.6099999999999999
 20
-7.5599999999999996
 10
-2.6160000000000001
 20
-7.5460000000000003
 10
-2.621
 20
-7.5309999999999997
 10
-2.6240000000000001
 20
-7.516
 10
-2.625
 20
-7.5
  0
LWPOLYLINE
  5
52
  8
0
 62
256
370
-1
  6
ByLayer
100
AcDbEntity
100
AcDbPolyline
 90
51
 70
1
 10
-2.625
 20
-6.5
 10
-2.6240000000000001
 20
-6.484
 10
-2.621
 20
-6.4690000000000003
 10
-2.6160000000000001
 20
-6.4539999999999997
 10
-2.6099999999999999
 20
-6.4400000000000004
 10
-2.601
 20
-6.4269999999999996
 10
-2.5910000000000002
 20
-6.4139999999999997
 10
-2.5800000000000001
 20
-6.4039999999999999
 10
-2.5670000000000002
 20
-6.3940000000000001
 10
-2.5529999999999999
 20
-6.3869999999999996
 10
-2.5390000000000001
 20
-6.3810000000000002
 10
-2.5230000000000001
 20
-6.3769999999999998
 10
-2.508
 20
-6.375
 10
-2.492
 20
-6.375
 10
-2.4769999999999999
 20
-6.3769999999999998
 10
-2.4609999999999999
 20
-6.3810000000000002
 10
-2.4470000000000001
 20
-6.3869999999999996
 10
-2.4329999999999998
 20
-6.3940000000000001
 10
-2.4199999999999999
 20
-6.4039999999999999
 10
-2.4089999999999998
 20
-6.4139999999999997
 10
-2.399
 20
-6.4269999999999996
 10
-2.3900000000000001
 20
-6.4400000000000004
 10
-2.3839999999999999
 20
-6.4539999999999997
 10
-2.379
 20
-6.4690000000000003
 10
-2.3759999999999999
 20
-6.484
 10
-2.375
 20
-6.5
 10
-2.3759999999999999
 20
-6.516
 10
-2.379
 20
-6.5309999999999997
 10
-2.3839999999999999
 20
-6.5460000000000003
 10
-2.3900000000000001
 20
-6.5599999999999996
 10
-2.399
 20
-6.5730000000000004
 10
-2.4089999999999998
 20
-6.5860000000000003
 10
-2.4199999999999999
 20
-6.5960000000000001
 10
-2.4329999999999998
 20
-6.6059999999999999
 10
-2.4470000000000001
 20
-6.6130000000000004
 10
-2.4609999999999999
 20
-6.6189999999999998
 10
-2.4769999999999999
 20
-6.6230000000000002
 10
-2.492
 20
-6.625
 10
-2.508
 20
-6.625
 10
-2.5230000000000001
 20
-6.6230000000000002
 10
-2.5390000000000001
 20
-6.6189999999999998
 10
-2.5529999999999999
 20
-6.6130000000000004
 10
-2.5670000000000002
 20
-6.6059999999999999
 10
-2.5800000000000001
 20
-6.5960000000000001
 10
-2.5910000000000002
 20
-6.5860000000000003
 10
-2.601
 20
-6.5730000000000004
 10
-2.6099999999999999
 20
-6.5599999999999996
 10
-2.6160000000000001
 20
-6.5460000000000003
 10
-2.621
 20
-6.5309999999999997
 10
-2.6240000000000001
 20
-6.516
 10
-2.625
 20
-6.5
  0
LWPOLYLINE
  5
53
  8
0
 62
256
370
-1
  6
ByLayer
100
AcDbEntity
100
AcDbPolyline
 90
5
 70
1
 10
-1.625
 20
5.375
 10
-1.625
 20
9.625
 10
1.625
 20
9.625
 10
1.625
 20
5.375
 10
-1.625
 20
5.375
  0
LWPOLYLINE
  5
54
  8
0
 62
256
370
-1
  6
ByLayer
100
AcDbEntity
100
AcDbPolyline
 90
50
 70
1
 10
-1.3500000000000001
 20
5.6280000000000001
 10
-1.349
 20
5.6360000000000001
 10
-1.3480000000000001
 20
5.6440000000000001
 10
-1.345
 20
5.6509999999999998
 10
-1.3420000000000001
 20
5.6580000000000004
 10
-1.3380000000000001
 20
5.665
 10
-1.333
 20
5.6710000000000003
 10
-1.327
 20
5.6760000000000002
 10
-1.3200000000000001
 20
5.681
 10
-1.3140000000000001
 20
5.6849999999999996
 10
-1.306
 20
5.6870000000000003
 10
-1.2989999999999999
 20
5.6890000000000001
 10
-1.2909999999999999
 20
5.6900000000000004
 10
-1.2829999999999999
 20
5.6900000000000004
 10
-1.2749999999999999
 20
5.6890000000000001
 10
-1.268
 20
5.6870000000000003
 10
-1.26
 20
5.6849999999999996
 10
-1.254
 20
5.681
 10
-1.2470000000000001
 20
5.6760000000000002
 10
-1.2410000000000001
 20
5.6710000000000003
 10
-1.236
 20
5.665
 10
-1.232
 20
5.6580000000000004
 10
-1.2290000000000001
 20
5.6509999999999998
 10
-1.226
 20
5.6440000000000001
 10
-1.2250000000000001
 20
5.6360000000000001
 10
-1.2250000000000001
 20
5.6200000000000001
 10
-1.226
 20
5.6120000000000001
 10
-1.2290000000000001
 20
5.6050000000000004
 10
-1.232
 20
5.5979999999999999
 10
-1.236
 20
5.5910000000000002
 10
-1.2410000000000001
 20
5.585
 10
-1.2470000000000001
 20
5.5800000000000001
 10
-1.254
 20
5.5750000000000002
 10
-1.26
 20
5.5709999999999997
 10
-1.268
 20
5.569
 10
-1.2749999999999999
 20
5.5670000000000002
 10
-1.2829999999999999
 20
5.5659999999999998
 10
-1.2909999999999999
 20
5.5659999999999998
 10
-1.2989999999999999
 20
5.5670000000000002
 10
-1.306
 20
5.569
 10
-1.3140000000000001
 20
5.5709999999999997
 10
-1.3200000000000001
 20
5.5750000000000002
 10
-1.327
 20
5.5800000000000001
 10
-1.333
 20
5.585
 10
-1.3380000000000001
 20
5.5910000000000002
 10
-1.3420000000000001
 20
5.5979999999999999
 10
-1.345
 20
5.6050000000000004
 10
-1.3480000000000001
 20
5.6120000000000001
 10
-1.349
 20
5.6200000000000001
 10
-1.3500000000000001
 20
5.6280000000000001
  0
LWPOLYLINE
  5
55
  8
0
 62
256
370
-1
  6
ByLayer
100
AcDbEntity
100
AcDbPolyline
 90
50
 70
1
 10
-1.3500000000000001
 20
7.8719999999999999
 10
-1.349
 20
7.8799999999999999
 10
-1.3480000000000001
 20
7.8879999999999999
 10
-1.345
 20
7.8949999999999996
 10
-1.3420000000000001
 20
7.9020000000000001
 10
-1.3380000000000001
 20
7.9089999999999998
 10
-1.333
 20
7.915
 10
-1.327
 20
7.9199999999999999
 10
-1.3200000000000001
 20
7.9249999999999998
 10
-1.3140000000000001
 20
7.9290000000000003
 10
-1.306
 20
7.931
 10
-1.2989999999999999
 20
7.9329999999999998
 10
-1.2909999999999999
 20
7.9340000000000002
 10
-1.2829999999999999
 20
7.9340000000000002
 10
-1.2749999999999999
 20
7.9329999999999998
 10
-1.268
 20
7.931
 10
-1.26
 20
7.9290000000000003
 10
-1.254
 20
7.9249999999999998
 10
-1.2470000000000001
 20
7.9199999999999999
 10
-1.2410000000000001
 20
7.915
 10
-1.236
 20
7.9089999999999998
 10
-1.232
 20
7.9020000000000001
 10
-1.2290000000000001
 20
7.8949999999999996
 10
-1.226
 20
7.8879999999999999
 10
-1.2250000000000001
 20
7.8799999999999999
 10
-1.2250000000000001
 20
7.8639999999999999
 10
-1.226
 20
7.8559999999999999
 10
-1.2290000000000001
 20
7.8490000000000002
 10
-1.232
 20
7.8419999999999996
 10
-1.236
 20
7.835
 10
-1.2410000000000001
 20
7.8289999999999997
 10
-1.2470000000000001
 20
7.8239999999999998
 10
-1.254
 20
7.819
 10
-1.26
 20
7.8150000000000004
 10
-1.268
 20
7.8129999999999997
 10
-1.2749999999999999
 20
7.8109999999999999
 10
-1.2829999999999999
 20
7.8099999999999996
 10
-1.2909999999999999
 20
7.8099999999999996
 10
-1.2989999999999999
 20
7.8109999999999999
 10
-1.306
 20
7.8129999999999997
 10
-1.3140000000000001
 20
7.8150000000000004
 10
-1.3200000000000001
 20
7.819
 10
-1.327
 20
7.8239999999999998
 10
-1.333
 20
7.8289999999999997
 10
-1.3380000000000001
 20
7.835
 10
-1.3420000000000001
 20
7.8419999999999996
 10
-1.345
 20
7.8490000000000002
 10
-1.3480000000000001
 20
7.8559999999999999
 10
-1.349
 20
7.8639999999999999
 10
-1.3500000000000001
 20
7.8719999999999999
  0
LWPOLYLINE
  5
56
  8
0
 62
256
370
-1
  6
ByLayer
100
AcDbEntity
100
AcDbPolyline
 90
51
 70
1
 10
-0.125
 20
6.0
 10
-0.124
 20
6.016
 10
-0.121
 20
6.0309999999999997
 10
-0.116
 20
6.0460000000000003
 10
-0.11
 20
6.0599999999999996
 10
-0.101
 20
6.0730000000000004
 10
-0.091
 20
6.0860000000000003
 10
-0.08
 20
6.0960000000000001
 10
-0.067
 20
6.1059999999999999
 10
-0.053
 20
6.1130000000000004
 10
-0.039
 20
6.1189999999999998
 10
-0.023
 20
6.1230000000000002
 10
-0.008
 20
6.125
 10
0.008
 20
6.125
 10
0.023
 20
6.1230000000000002
 10
0.039
 20
6.1189999999999998
 10
0.053
 20
6.1130000000000004
 10
0.067
 20
6.1059999999999999
 10
0.08
 20
6.0960000000000001
 10
0.091
 20
6.0860000000000003
 10
0.101
 20
6.0730000000000004
 10
0.11
 20
6.0599999999999996
 10
0.116
 20
6.0460000000000003
 10
0.121
 20
6.0309999999999997
 10
0.124
 20
6.016
 10
0.125
 20
6.0
 10
0.124
 20
5.984
 10
0.121
 20
5.9690000000000003
 10
0.116
 20
5.9539999999999997
 10
0.11
 20
5.9400000000000004
 10
0.101
 20
5.9269999999999996
 10
0.091
 20
5.9139999999999997
 10
0.08
 20
5.9039999999999999
 10
0.067
 20
5.8940000000000001
 10
0.053
 20
5.8869999999999996
 10
0.039
 20
5.8810000000000002
 10
0.023
 20
5.8769999999999998
 10
0.008
 20
5.875
 10
-0.008
 20
5.875
 10
-0.023
 20
5.8769999999999998
 10
-0.039
 20
5.8810000000000002
 10
-0.053
 20
5.8869999999999996
 10
-0.067
 20
5.8940000000000001
 10
-0.08
 20
5.9039999999999999
 10
-0.091
 20
5.9139999999999997
 10
-0.101
 20
5.9269999999999996
 10
-0.11
 20
5.9400000000000004
 10
-0.116
 20
5.9539999999999997
 10
-0.121
 20
5.9690000000000003
 10
-0.124
 20
5.984
 10
-0.125
 20
6.0
  0
LWPOLYLINE
  5
57
  8
0
 62
256
370
-1
  6
ByLayer
100
AcDbEntity
100
AcDbPolyline
 90
51
 70
1
 10
-0.125
 20
7.5
 10
-0.124
 20
7.516
 10
-0.121
 20
7.5309999999999997
 10
-0.116
 20
7.5460000000000003
 10
-0.11
 20
7.5599999999999996
 10
-0.101
 20
7.5730000000000004
 10
-0.091
 20
7.5860000000000003
 10
-0.08
 20
7.5960000000000001
 10
-0.067
 20
7.6059999999999999
 10
-0.053
 20
7.6130000000000004
 10
-0.039
 20
7.6189999999999998
 10
-0.023
 20
7.6230000000000002
 10
-0.008
 20
7.625
 10
0.008
 20
7.625
 10
0.023
 20
7.6230000000000002
 10
0.039
 20
7.6189999999999998
 10
0.053
 20
7.6130000000000004
 10
0.067
 20
7.6059999999999999
 10
0.08
 20
7.5960000000000001
 10
0.091
 20
7.5860000000000003
 10
0.101
 20
7.5730000000000004
 10
0.11
 20
7.5599999999999996
 10
0.116
 20
7.5460000000000003
 10
0.121
 20
7.5309999999999997
 10
0.124
 20
7.516
 10
0.125
 20
7.5
 10
0.124
 20
7.484
 10
0.121
 20
7.4690000000000003
 10
0.116
 20
7.4539999999999997
 10
0.11
 20
7.4400000000000004
 10
0.101
 20
7.4269999999999996
 10
0.091
 20
7.4139999999999997
 10
0.08
 20
7.4039999999999999
 10
0.067
 20
7.3940000000000001
 10
0.053
 20
7.3869999999999996
 10
0.039
 20
7.3810000000000002
 10
0.023
 20
7.3769999999999998
 10
0.008
 20
7.375
 10
-0.008
 20
7.375
 10
-0.023
 20
7.3769999999999998
 10
-0.039
 20
7.3810000000000002
 10
-0.053
 20
7.3869999999999996
 10
-0.067
 20
7.3940000000000001
 10
-0.08
 20
7.4039999999999999
 10
-0.091
 20
7.4139999999999997
 10
-0.101
 20
7.4269999999999996
 10
-0.11
 20
7.4400000000000004
 10
-0.116
 20
7.4539999999999997
 10
-0.121
 20
7.4690000000000003
 10
-0.124
 20
7.484
 10
-0.125
 20
7.5
  0
LWPOLYLINE
  5
58
  8
0
 62
256
370
-1
  6
ByLayer
100
AcDbEntity
100
AcDbPolyline
 90
51
 70
1
 10
-0.125
 20
9.0
 10
-0.124
 20
9.016
 10
-0.121
 20
9.0310000000000006
 10
-0.116
 20
9.0459999999999994
 10
-0.11
 20
9.0600000000000005
 10
-0.101
 20
9.0730000000000004
 10
-0.091
 20
9.0860000000000003
 10
-0.08
 20
9.0960000000000001
 10
-0.067
 20
9.1059999999999999
 10
-0.053
 20
9.1129999999999995
 10
-0.039
 20
9.1189999999999998
 10
-0.023
 20
9.1229999999999993
 10
-0.008
 20
9.125
 10
0.008
 20
9.125
 10
0.023
 20
9.1229999999999993
 10
0.039
 20
9.1189999999999998
 10
0.053
 20
9.1129999999999995
 10
0.067
 20
9.1059999999999999
 10
0.08
 20
9.0960000000000001
 10
0.091
 20
9.0860000000000003
 10
0.101
 20
9.0730000000000004
 10
0.11
 20
9.0600000000000005
 10
0.116
 20
9.0459999999999994
 10
0.121
 20
9.0310000000000006
 10
0.124
 20
9.016
 10
0.125
 20
9.0
 10
0.124
 20
8.984
 10
0.121
 20
8.9689999999999994
 10
0.116
 20
8.9540000000000006
 10
0.11
 20
8.9399999999999995
 10
0.101
 20
8.9269999999999996
 10
0.091
 20
8.9139999999999997
 10
0.08
 20
8.9039999999999999
 10
0.067
 20
8.8940000000000001
 10
0.053
 20
8.8870000000000005
 10
0.039
 20
8.8810000000000002
 10
0.023
 20
8.8770000000000007
 10
0.008
 20
8.875
 10
-0.008
 20
8.875
 10
-0.023
 20
8.8770000000000007
 10
-0.039
 20
8.8810000000000002
 10
-0.053
 20
8.8870000000000005
 10
-0.067
 20
8.8940000000000001
 10
-0.08
 20
8.9039999999999999
 10
-0.091
 20
8.9139999999999997
 10
-0.101
 20
8.9269999999999996
 10
-0.11
 20
8.9399999999999995
 10
-0.116
 20
8.9540000000000006
 10
-0.121
 20
8.9689999999999994
 10
-0.124
 20
8.984
 10
-0.125
 20
9.0
  0
LWPOLYLINE
  5
59
  8
0
 62
256
370
-1
  6
ByLayer
100
AcDbEntity
100
AcDbPolyline
 90
48
 70
1
 10
0.224
 20
5.6280000000000001
 10
0.226
 20
5.6440000000000001
 10
0.229
 20
5.6509999999999998
 10
0.232
 20
5.6580000000000004
 10
0.236
 20
5.665
 10
0.241
 20
5.6710000000000003
 10
0.247
 20
5.6760000000000002
 10
0.254
 20
5.681
 10
0.26
 20
5.6849999999999996
 10
0.268
 20
5.6870000000000003
 10
0.275
 20
5.6890000000000001
 10
0.283
 20
5.6900000000000004
 10
0.291
 20
5.6900000000000004
 10
0.299
 20
5.6890000000000001
 10
0.306
 20
5.6870000000000003
 10
0.314
 20
5.6849999999999996
 10
0.32
 20
5.681
 10
0.327
 20
5.6760000000000002
 10
0.333
 20
5.6710000000000003
 10
0.338
 20
5.665
 10
0.342
 20
5.6580000000000004
 10
0.345
 20
5.6509999999999998
 10
0.348
 20
5.6440000000000001
 10
0.349
 20
5.6360000000000001
 10
0.349
 20
5.6200000000000001
 10
0.348
 20
5.6120000000000001
 10
0.345
 20
5.6050000000000004
 10
0.342
 20
5.5979999999999999
 10
0.338
 20
5.5910000000000002
 10
0.333
 20
5.585
 10
0.327
 20
5.5800000000000001
 10
0.32
 20
5.5750000000000002
 10
0.314
 20
5.5709999999999997
 10
0.306
 20
5.569
 10
0.299
 20
5.5670000000000002
 10
0.291
 20
5.5659999999999998
 10
0.283
 20
5.5659999999999998
 10
0.275
 20
5.5670000000000002
 10
0.268
 20
5.569
 10
0.26
 20
5.5709999999999997
 10
0.254
 20
5.5750000000000002
 10
0.247
 20
5.5800000000000001
 10
0.241
 20
5.585
 10
0.236
 20
5.5910000000000002
 10
0.232
 20
5.5979999999999999
 10
0.229
 20
5.6050000000000004
 10
0.226
 20
5.6120000000000001
 10
0.224
 20
5.6280000000000001
  0
LWPOLYLINE
  5
5A
  8
0
 62
256
370
-1
  6
ByLayer
100
AcDbEntity
100
AcDbPolyline
 90
46
 70
1
 10
0.224
 20
7.8719999999999999
 10
0.226
 20
7.8879999999999999
 10
0.229
 20
7.8949999999999996
 10
0.232
 20
7.9020000000000001
 10
0.236
 20
7.9089999999999998
 10
0.241
 20
7.915
 10
0.247
 20
7.9199999999999999
 10
0.254
 20
7.9249999999999998
 10
0.26
 20
7.9290000000000003
 10
0.268
 20
7.931
 10
0.275
 20
7.9329999999999998
 10
0.283
 20
7.9340000000000002
 10
0.291
 20
7.9340000000000002
 10
0.299
 20
7.9329999999999998
 10
0.306
 20
7.931
 10
0.314
 20
7.9290000000000003
 10
0.32
 20
7.9249999999999998
 10
0.327
 20
7.9199999999999999
 10
0.333
 20
7.915
 10
0.338
 20
7.9089999999999998
 10
0.342
 20
7.9020000000000001
 10
0.345
 20
7.8949999999999996
 10
0.348
 20
7.8879999999999999
 10
0.349
 20
7.8799999999999999
 10
0.349
 20
7.8639999999999999
 10
0.348
 20
7.8559999999999999
 10
0.342
 20
7.8419999999999996
 10
0.338
 20
7.835
 10
0.333
 20
7.8289999999999997
 10
0.327
 20
7.8239999999999998
 10
0.32
 20
7.819
 10
0.314
 20
7.8150000000000004
 10
0.306
 20
7.8129999999999997
 10
0.299
 20
7.8109999999999999
 10
0.291
 20
7.8099999999999996
 10
0.283
 20
7.8099999999999996
 10
0.275
 20
7.8109999999999999
 10
0.268
 20
7.8129999999999997
 10
0.26
 20
7.8150000000000004
 10
0.254
 20
7.819
 10
0.247
 20
7.8239999999999998
 10
0.241
 20
7.8289999999999997
 10
0.236
 20
7.835
 10
0.232
 20
7.8419999999999996
 10
0.226
 20
7.8559999999999999
 10
0.224
 20
7.8719999999999999
  0
LWPOLYLINE
  5
5B
  8
0
 62
256
370
-1
  6
ByLayer
100
AcDbEntity
100
AcDbPolyline
 90
51
 70
1
 10
0.875
 20
6.0
 10
0.876
 20
6.016
 10
0.879
 20
6.0309999999999997
 10
0.884
 20
6.0460000000000003
 10
0.89
 20
6.0599999999999996
 10
0.899
 20
6.0730000000000004
 10
0.909
 20
6.0860000000000003
 10
0.92
 20
6.0960000000000001
 10
0.9330000000000001
 20
6.1059999999999999
 10
0.947
 20
6.1130000000000004
 10
0.961
 20
6.1189999999999998
 10
0.977
 20
6.1230000000000002
 10
0.992
 20
6.125
 10
1.008
 20
6.125
 10
1.0229999999999999
 20
6.1230000000000002
 10
1.0389999999999999
 20
6.1189999999999998
 10
1.0529999999999999
 20
6.1130000000000004
 10
1.0669999999999999
 20
6.1059999999999999
 10
1.0800000000000001
 20
6.0960000000000001
 10
1.091
 20
6.0860000000000003
 10
1.101
 20
6.0730000000000004
 10
1.1100000000000001
 20
6.0599999999999996
 10
1.1160000000000001
 20
6.0460000000000003
 10
1.121
 20
6.0309999999999997
 10
1.1240000000000001
 20
6.016
 10
1.125
 20
6.0
 10
1.1240000000000001
 20
5.984
 10
1.121
 20
5.9690000000000003
 10
1.1160000000000001
 20
5.9539999999999997
 10
1.1100000000000001
 20
5.9400000000000004
 10
1.101
 20
5.9269999999999996
 10
1.091
 20
5.9139999999999997
 10
1.0800000000000001
 20
5.9039999999999999
 10
1.0669999999999999
 20
5.8940000000000001
 10
1.0529999999999999
 20
5.8869999999999996
 10
1.0389999999999999
 20
5.8810000000000002
 10
1.0229999999999999
 20
5.8769999999999998
 10
1.008
 20
5.875
 10
0.992
 20
5.875
 10
0.977
 20
5.8769999999999998
 10
0.961
 20
5.8810000000000002
 10
0.947
 20
5.8869999999999996
 10
0.9330000000000001
 20
5.8940000000000001
 10
0.92
 20
5.9039999999999999
 10
0.909
 20
5.9139999999999997
 10
0.899
 20
5.9269999999999996
 10
0.89
 20
5.9400000000000004
 10
0.884
 20
5.9539999999999997
 10
0.879
 20
5.9690000000000003
 10
0.876
 20
5.984
 10
0.875
 20
6.0
  0
LWPOLYLINE
  5
5C
  8
0
 62
256
370
-1
  6
ByLayer
100
AcDbEntity
100
AcDbPolyline
 90
51
 70
1
 10
0.875
 20
7.5
 10
0.876
 20
7.516
 10
0.879
 20
7.5309999999999997
 10
0.884
 20
7.5460000000000003
 10
0.89
 20
7.5599999999999996
 10
0.899
 20
7.5730000000000004
 10
0.909
 20
7.5860000000000003
 10
0.92
 20
7.5960000000000001
 10
0.9330000000000001
 20
7.6059999999999999
 10
0.947
 20
7.6130000000000004
 10
0.961
 20
7.6189999999999998
 10
0.977
 20
7.6230000000000002
 10
0.992
 20
7.625
 10
1.008
 20
7.625
 10
1.0229999999999999
 20
7.6230000000000002
 10
1.0389999999999999
 20
7.6189999999999998
 10
1.0529999999999999
 20
7.6130000000000004
 10
1.0669999999999999
 20
7.6059999999999999
 10
1.0800000000000001
 20
7.5960000000000001
 10
1.091
 20
7.5860000000000003
 10
1.101
 20
7.5730000000000004
 10
1.1100000000000001
 20
7.5599999999999996
 10
1.1160000000000001
 20
7.5460000000000003
 10
1.121
 20
7.5309999999999997
 10
1.1240000000000001
 20
7.516
 10
1.125
 20
7.5
 10
1.1240000000000001
 20
7.484
 10
1.121
 20
7.4690000000000003
 10
1.1160000000000001
 20
7.4539999999999997
 10
1.1100000000000001
 20
7.4400000000000004
 10
1.101
 20
7.4269999999999996
 10
1.091
 20
7.4139999999999997
 10
1.0800000000000001
 20
7.4039999999999999
 10
1.0669999999999999
 20
7.3940000000000001
 10
1.0529999999999999
 20
7.3869999999999996
 10
1.0389999999999999
 20
7.3810000000000002
 10
1.0229999999999999
 20
7.3769999999999998
 10
1.008
 20
7.375
 10
0.992
 20
7.375
 10
0.977
 20
7.3769999999999998
 10
0.961
 20
7.3810000000000002
 10
0.947
 20
7.3869999999999996
 10
0.9330000000000001
 20
7.3940000000000001
 10
0.92
 20
7.4039999999999999
 10
0.909
 20
7.4139999999999997
 10
0.899
 20
7.4269999999999996
 10
0.89
 20
7.4400000000000004
 10
0.884
 20
7.4539999999999997
 10
0.879
 20
7.4690000000000003
 10
0.876
 20
7.484
 10
0.875
 20
7.5
  0
LWPOLYLINE
  5
5D
  8
0
 62
256
370
-1
  6
ByLayer
100
AcDbEntity
100
AcDbPolyline
 90
51
 70
1
 10
0.875
 20
9.0
 10
0.876
 20
9.016
 10
0.879
 20
9.0310000000000006
 10
0.884
 20
9.0459999999999994
 10
0.89
 20
9.0600000000000005
 10
0.899
 20
9.0730000000000004
 10
0.909
 20
9.0860000000000003
 10
0.92
 20
9.0960000000000001
 10
0.9330000000000001
 20
9.1059999999999999
 10
0.947
 20
9.1129999999999995
 10
0.96
 20
9.1189999999999998
 10
0.977
 20
9.1229999999999993
 10
0.992
 20
9.125
 10
1.008
 20
9.125
 10
1.0229999999999999
 20
9.1229999999999993
 10
1.0389999999999999
 20
9.1189999999999998
 10
1.0529999999999999
 20
9.1129999999999995
 10
1.0669999999999999
 20
9.1059999999999999
 10
1.0800000000000001
 20
9.0960000000000001
 10
1.091
 20
9.0860000000000003
 10
1.101
 20
9.0730000000000004
 10
1.1100000000000001
 20
9.0600000000000005
 10
1.1160000000000001
 20
9.0459999999999994
 10
1.121
 20
9.0310000000000006
 10
1.1240000000000001
 20
9.016
 10
1.125
 20
9.0
 10
1.1240000000000001
 20
8.984
 10
1.121
 20
8.9689999999999994
 10
1.1160000000000001
 20
8.9540000000000006
 10
1.1100000000000001
 20
8.9399999999999995
 10
1.101
 20
8.9269999999999996
 10
1.091
 20
8.9139999999999997
 10
1.0800000000000001
 20
8.9039999999999999
 10
1.0669999999999999
 20
8.8940000000000001
 10
1.0529999999999999
 20
8.8870000000000005
 10
1.0389999999999999
 20
8.8810000000000002
 10
1.0229999999999999
 20
8.8770000000000007
 10
1.008
 20
8.875
 10
0.992
 20
8.875
 10
0.977
 20
8.8770000000000007
 10
0.961
 20
8.8810000000000002
 10
0.947
 20
8.8870000000000005
 10
0.9330000000000001
 20
8.8940000000000001
 10
0.92
 20
8.9039999999999999
 10
0.909
 20
8.9139999999999997
 10
0.899
 20
8.9269999999999996
 10
0.89
 20
8.9399999999999995
 10
0.884
 20
8.9540000000000006
 10
0.879
 20
8.9689999999999994
 10
0.876
 20
8.984
 10
0.875
 20
9.0
  0
LWPOLYLINE
  5
5E
  8
0
 62
256
370
-1
  6
ByLayer
100
AcDbEntity
100
AcDbPolyline
 90
51
 70
1
 10
2.375
 20
-8.5
 10
2.3759999999999999
 20
-8.484
 10
2.379
 20
-8.4689999999999994
 10
2.3839999999999999
 20
-8.4540000000000006
 10
2.3900000000000001
 20
-8.4399999999999995
 10
2.399
 20
-8.4269999999999996
 10
2.4089999999999998
 20
-8.4139999999999997
 10
2.4199999999999999
 20
-8.4039999999999999
 10
2.4329999999999998
 20
-8.3940000000000001
 10
2.4470000000000001
 20
-8.3870000000000005
 10
2.4609999999999999
 20
-8.3810000000000002
 10
2.4769999999999999
 20
-8.3770000000000007
 10
2.492
 20
-8.375
 10
2.508
 20
-8.375
 10
2.5230000000000001
 20
-8.3770000000000007
 10
2.5390000000000001
 20
-8.3810000000000002
 10
2.5529999999999999
 20
-8.3870000000000005
 10
2.5670000000000002
 20
-8.3940000000000001
 10
2.5800000000000001
 20
-8.4039999999999999
 10
2.5910000000000002
 20
-8.4139999999999997
 10
2.601
 20
-8.4269999999999996
 10
2.6099999999999999
 20
-8.4399999999999995
 10
2.6160000000000001
 20
-8.4540000000000006
 10
2.621
 20
-8.4689999999999994
 10
2.6240000000000001
 20
-8.484
 10
2.625
 20
-8.5
 10
2.6240000000000001
 20
-8.516
 10
2.621
 20
-8.5310000000000006
 10
2.6160000000000001
 20
-8.5459999999999994
 10
2.6099999999999999
 20
-8.5600000000000005
 10
2.601
 20
-8.5730000000000004
 10
2.5910000000000002
 20
-8.5860000000000003
 10
2.5800000000000001
 20
-8.5960000000000001
 10
2.5670000000000002
 20
-8.6059999999999999
 10
2.5529999999999999
 20
-8.6129999999999995
 10
2.5390000000000001
 20
-8.6189999999999998
 10
2.5230000000000001
 20
-8.6229999999999993
 10
2.508
 20
-8.625
 10
2.492
 20
-8.625
 10
2.4769999999999999
 20
-8.6229999999999993
 10
2.4609999999999999
 20
-8.6189999999999998
 10
2.4470000000000001
 20
-8.6129999999999995
 10
2.4329999999999998
 20
-8.6059999999999999
 10
2.4199999999999999
 20
-8.5960000000000001
 10
2.4089999999999998
 20
-8.5860000000000003
 10
2.399
 20
-8.5730000000000004
 10
2.3900000000000001
 20
-8.5600000000000005
 10
2.3839999999999999
 20
-8.5459999999999994
 10
2.379
 20
-8.5310000000000006
 10
2.3759999999999999
 20
-8.516
 10
2.375
 20
-8.5
  0
LWPOLYLINE
  5
5F
  8
0
 62
256
370
-1
  6
ByLayer
100
AcDbEntity
100
AcDbPolyline
 90
51
 70
1
 10
2.375
 20
-7.5
 10
2.3759999999999999
 20
-7.484
 10
2.379
 20
-7.4690000000000003
 10
2.3839999999999999
 20
-7.4539999999999997
 10
2.3900000000000001
 20
-7.4400000000000004
 10
2.399
 20
-7.4269999999999996
 10
2.4089999999999998
 20
-7.4139999999999997
 10
2.4199999999999999
 20
-7.4039999999999999
 10
2.4329999999999998
 20
-7.3940000000000001
 10
2.4470000000000001
 20
-7.3869999999999996
 10
2.4609999999999999
 20
-7.3810000000000002
 10
2.4769999999999999
 20
-7.3769999999999998
 10
2.492
 20
-7.375
 10
2.508
 20
-7.375
 10
2.5230000000000001
 20
-7.3769999999999998
 10
2.5390000000000001
 20
-7.3810000000000002
 10
2.5529999999999999
 20
-7.3869999999999996
 10
2.5670000000000002
 20
-7.3940000000000001
 10
2.5800000000000001
 20
-7.4039999999999999
 10
2.5910000000000002
 20
-7.4139999999999997
 10
2.601
 20
-7.4269999999999996
 10
2.6099999999999999
 20
-7.4400000000000004
 10
2.6160000000000001
 20
-7.4539999999999997
 10
2.621
 20
-7.4690000000000003
 10
2.6240000000000001
 20
-7.484
 10
2.625
 20
-7.5
 10
2.6240000000000001
 20
-7.516
 10
2.621
 20
-7.5309999999999997
 10
2.6160000000000001
 20
-7.5460000000000003
 10
2.6099999999999999
 20
-7.5599999999999996
 10
2.601
 20
-7.5730000000000004
 10
2.5910000000000002
 20
-7.5860000000000003
 10
2.5800000000000001
 20
-7.5960000000000001
 10
2.5670000000000002
 20
-7.6059999999999999
 10
2.5529999999999999
 20
-7.6130000000000004
 10
2.5390000000000001
 20
-7.6189999999999998
 10
2.5230000000000001
 20
-7.6230000000000002
 10
2.508
 20
-7.625
 10
2.492
 20
-7.625
 10
2.4769999999999999
 20
-7.6230000000000002
 10
2.4609999999999999
 20
-7.6189999999999998
 10
2.4470000000000001
 20
-7.6130000000000004
 10
2.4329999999999998
 20
-7.6059999999999999
 10
2.4199999999999999
 20
-7.5960000000000001
 10
2.4089999999999998
 20
-7.5860000000000003
 10
2.399
 20
-7.5730000000000004
 10
2.3900000000000001
 20
-7.5599999999999996
 10
2.3839999999999999
 20
-7.5460000000000003
 10
2.379
 20
-7.5309999999999997
 10
2.3759999999999999
 20
-7.516
 10
2.375
 20
-7.5
  0
LWPOLYLINE
  5
60
  8
0
 62
256
370
-1
  6
ByLayer
100
AcDbEntity
100
AcDbPolyline
 90
51
 70
1
 10
2.375
 20
-6.5
 10
2.3759999999999999
 20
-6.484
 10
2.379
 20
-6.4690000000000003
 10
2.3839999999999999
 20
-6.4539999999999997
 10
2.3900000000000001
 20
-6.4400000000000004
 10
2.399
 20
-6.4269999999999996
 10
2.4089999999999998
 20
-6.4139999999999997
 10
2.4199999999999999
 20
-6.4039999999999999
 10
2.4329999999999998
 20
-6.3940000000000001
 10
2.4470000000000001
 20
-6.3869999999999996
 10
2.4609999999999999
 20
-6.3810000000000002
 10
2.4769999999999999
 20
-6.3769999999999998
 10
2.492
 20
-6.375
 10
2.508
 20
-6.375
 10
2.5230000000000001
 20
-6.3769999999999998
 10
2.5390000000000001
 20
-6.3810000000000002
 10
2.5529999999999999
 20
-6.3869999999999996
 10
2.5670000000000002
 20
-6.3940000000000001
 10
2.5800000000000001
 20
-6.4039999999999999
 10
2.5910000000000002
 20
-6.4139999999999997
 10
2.601
 20
-6.4269999999999996
 10
2.6099999999999999
 20
-6.4400000000000004
 10
2.6160000000000001
 20
-6.4539999999999997
 10
2.621
 20
-6.4690000000000003
 10
2.6240000000000001
 20
-6.484
 10
2.625
 20
-6.5
 10
2.6240000000000001
 20
-6.516
 10
2.621
 20
-6.5309999999999997
 10
2.6160000000000001
 20
-6.5460000000000003
 10
2.6099999999999999
 20
-6.5599999999999996
 10
2.601
 20
-6.5730000000000004
 10
2.5910000000000002
 20
-6.5860000000000003
 10
2.5800000000000001
 20
-6.5960000000000001
 10
2.5670000000000002
 20
-6.6059999999999999
 10
2.5529999999999999
 20
-6.6130000000000004
 10
2.5390000000000001
 20
-6.6189999999999998
 10
2.5230000000000001
 20
-6.6230000000000002
 10
2.508
 20
-6.625
 10
2.492
 20
-6.625
 10
2.4769999999999999
 20
-6.6230000000000002
 10
2.4609999999999999
 20
-6.6189999999999998
 10
2.4470000000000001
 20
-6.6130000000000004
 10
2.4329999999999998
 20
-6.6059999999999999
 10
2.4199999999999999
 20
-6.5960000000000001
 10
2.4089999999999998
 20
-6.5860000000000003
 10
2.399
 20
-6.5730000000000004
 10
2.3900000000000001
 20
-6.5599999999999996
 10
2.3839999999999999
 20
-6.5460000000000003
 10
2.379
 20
-6.5309999999999997
 10
2.3759999999999999
 20
-6.516
 10
2.375
 20
-6.5
  0
LWPOLYLINE
  5
61
  8
0
 62
256
370
-1
  6
ByLayer
100
AcDbEntity
100
AcDbPolyline
 90
51
 70
1
 10
3.875
 20
-0.5
 10
3.8759999999999999
 20
-0.484
 10
3.879
 20
-0.469
 10
3.8839999999999999
 20
-0.454
 10
3.8900000000000001
 20
-0.44
 10
3.899
 20
-0.427
 10
3.9089999999999998
 20
-0.414
 10
3.9199999999999999
 20
-0.404
 10
3.9329999999999998
 20
-0.394
 10
3.9470000000000001
 20
-0.387
 10
3.9609999999999999
 20
-0.381
 10
3.9769999999999999
 20
-0.377
 10
3.992
 20
-0.375
 10
4.008
 20
-0.375
 10
4.0229999999999997
 20
-0.377
 10
4.0389999999999997
 20
-0.381
 10
4.0529999999999999
 20
-0.387
 10
4.0670000000000002
 20
-0.394
 10
4.0800000000000001
 20
-0.404
 10
4.0910000000000002
 20
-0.414
 10
4.101
 20
-0.427
 10
4.1100000000000003
 20
-0.44
 10
4.1159999999999997
 20
-0.454
 10
4.1210000000000004
 20
-0.469
 10
4.1239999999999997
 20
-0.484
 10
4.125
 20
-0.5
 10
4.1239999999999997
 20
-0.516
 10
4.1210000000000004
 20
-0.531
 10
4.1159999999999997
 20
-0.546
 10
4.1100000000000003
 20
-0.5600000000000001
 10
4.101
 20
-0.573
 10
4.0910000000000002
 20
-0.586
 10
4.0800000000000001
 20
-0.596
 10
4.0670000000000002
 20
-0.606
 10
4.0529999999999999
 20
-0.613
 10
4.0389999999999997
 20
-0.619
 10
4.0229999999999997
 20
-0.623
 10
4.008
 20
-0.625
 10
3.992
 20
-0.625
 10
3.9769999999999999
 20
-0.623
 10
3.9609999999999999
 20
-0.619
 10
3.9470000000000001
 20
-0.613
 10
3.9329999999999998
 20
-0.606
 10
3.9199999999999999
 20
-0.596
 10
3.9089999999999998
 20
-0.586
 10
3.899
 20
-0.573
 10
3.8900000000000001
 20
-0.5600000000000001
 10
3.8839999999999999
 20
-0.546
 10
3.879
 20
-0.531
 10
3.8759999999999999
 20
-0.516
 10
3.875
 20
-0.5
  0
LWPOLYLINE
  5
62
  8
0
 62
256
370
-1
  6
ByLayer
100
AcDbEntity
100
AcDbPolyline
 90
51
 70
1
 10
3.875
 20
0.5
 10
3.8759999999999999
 20
0.516
 10
3.879
 20
0.531
 10
3.8839999999999999
 20
0.546
 10
3.8900000000000001
 20
0.5600000000000001
 10
3.899
 20
0.573
 10
3.9089999999999998
 20
0.586
 10
3.9199999999999999
 20
0.596
 10
3.9329999999999998
 20
0.606
 10
3.9470000000000001
 20
0.613
 10
3.9609999999999999
 20
0.619
 10
3.9769999999999999
 20
0.623
 10
3.992
 20
0.625
 10
4.008
 20
0.625
 10
4.0229999999999997
 20
0.623
 10
4.0389999999999997
 20
0.619
 10
4.0529999999999999
 20
0.613
 10
4.0670000000000002
 20
0.606
 10
4.0800000000000001
 20
0.596
 10
4.0910000000000002
 20
0.586
 10
4.101
 20
0.573
 10
4.1100000000000003
 20
0.5600000000000001
 10
4.1159999999999997
 20
0.546
 10
4.1210000000000004
 20
0.531
 10
4.1239999999999997
 20
0.516
 10
4.125
 20
0.5
 10
4.1239999999999997
 20
0.484
 10
4.1210000000000004
 20
0.469
 10
4.1159999999999997
 20
0.454
 10
4.1100000000000003
 20
0.44
 10
4.101
 20
0.427
 10
4.0910000000000002
 20
0.414
 10
4.0800000000000001
 20
0.404
 10
4.0670000000000002
 20
0.394
 10
4.0529999999999999
 20
0.387
 10
4.0389999999999997
 20
0.381
 10
4.0229999999999997
 20
0.377
 10
4.008
 20
0.375
 10
3.992
 20
0.375
 10
3.9769999999999999
 20
0.377
 10
3.9609999999999999
 20
0.381
 10
3.9470000000000001
 20
0.387
 10
3.9329999999999998
 20
0.394
 10
3.9199999999999999
 20
0.404
 10
3.9089999999999998
 20
0.414
 10
3.899
 20
0.427
 10
3.8900000000000001
 20
0.44
 10
3.8839999999999999
 20
0.454
 10
3.879
 20
0.469
 10
3.8759999999999999
 20
0.484
 10
3.875
 20
0.5
  0
LWPOLYLINE
  5
63
  8
0
 62
256
370
-1
  6
ByLayer
100
AcDbEntity
100
AcDbPolyline
 90
5
 70
1
 10
5.5
 20
-3.5
 10
5.5
 20
3.5
 10
9.5
 20
3.5
 10
9.5
 20
-3.5
 10
5.5
 20
-3.5
  0
LWPOLYLINE
  5
64
  8
0
 62
256
370
-1
  6
ByLayer
100
AcDbEntity
100
AcDbPolyline
 90
51
 70
1
 10
5.875
 20
-3.0
 10
5.8760000000000003
 20
-2.984
 10
5.8789999999999996
 20
-2.9689999999999999
 10
5.8840000000000003
 20
-2.9540000000000002
 10
5.8899999999999997
 20
-2.9399999999999999
 10
5.899
 20
-2.927
 10
5.9089999999999998
 20
-2.9140000000000001
 10
5.9199999999999999
 20
-2.9039999999999999
 10
5.9329999999999998
 20
-2.8940000000000001
 10
5.9470000000000001
 20
-2.887
 10
5.9610000000000003
 20
-2.8809999999999998
 10
5.9770000000000003
 20
-2.8769999999999998
 10
5.992
 20
-2.875
 10
6.008
 20
-2.875
 10
6.0229999999999997
 20
-2.8769999999999998
 10
6.0389999999999997
 20
-2.8809999999999998
 10
6.0529999999999999
 20
-2.887
 10
6.0670000000000002
 20
-2.8940000000000001
 10
6.0800000000000001
 20
-2.9039999999999999
 10
6.0910000000000002
 20
-2.9140000000000001
 10
6.101
 20
-2.927
 10
6.1100000000000003
 20
-2.9399999999999999
 10
6.1159999999999997
 20
-2.9540000000000002
 10
6.1210000000000004
 20
-2.9689999999999999
 10
6.1239999999999997
 20
-2.984
 10
6.125
 20
-3.0
 10
6.1239999999999997
 20
-3.016
 10
6.1210000000000004
 20
-3.0310000000000001
 10
6.1159999999999997
 20
-3.0459999999999998
 10
6.1100000000000003
 20
-3.0600000000000001
 10
6.101
 20
-3.073
 10
6.0910000000000002
 20
-3.0859999999999999
 10
6.0800000000000001
 20
-3.0960000000000001
 10
6.0670000000000002
 20
-3.1059999999999999
 10
6.0529999999999999
 20
-3.113
 10
6.0389999999999997
 20
-3.1190000000000002
 10
6.0229999999999997
 20
-3.1230000000000002
 10
6.008
 20
-3.125
 10
5.992
 20
-3.125
 10
5.9770000000000003
 20
-3.1230000000000002
 10
5.9610000000000003
 20
-3.1190000000000002
 10
5.9470000000000001
 20
-3.113
 10
5.9329999999999998
 20
-3.1059999999999999
 10
5.9199999999999999
 20
-3.0960000000000001
 10
5.9089999999999998
 20
-3.0859999999999999
 10
5.899
 20
-3.073
 10
5.8899999999999997
 20
-3.0600000000000001
 10
5.8840000000000003
 20
-3.0459999999999998
 10
5.8789999999999996
 20
-3.0310000000000001
 10
5.8760000000000003
 20
-3.016
 10
5.875
 20
-3.0
  0
LWPOLYLINE
  5
65
  8
0
 62
256
370
-1
  6
ByLayer
100
AcDbEntity
100
AcDbPolyline
 90
51
 70
1
 10
5.875
 20
3.0
 10
5.8760000000000003
 20
3.016
 10
5.8789999999999996
 20
3.0310000000000001
 10
5.8840000000000003
 20
3.0459999999999998
 10
5.8899999999999997
 20
3.0600000000000001
 10
5.899
 20
3.073
 10
5.9089999999999998
 20
3.0859999999999999
 10
5.9199999999999999
 20
3.0960000000000001
 10
5.9329999999999998
 20
3.1059999999999999
 10
5.9470000000000001
 20
3.113
 10
5.9610000000000003
 20
3.1190000000000002
 10
5.9770000000000003
 20
3.1230000000000002
 10
5.992
 20
3.125
 10
6.008
 20
3.125
 10
6.0229999999999997
 20
3.1230000000000002
 10
6.0389999999999997
 20
3.1190000000000002
 10
6.0529999999999999
 20
3.113
 10
6.0670000000000002
 20
3.1059999999999999
 10
6.0800000000000001
 20
3.0960000000000001
 10
6.0910000000000002
 20
3.0859999999999999
 10
6.101
 20
3.073
 10
6.1100000000000003
 20
3.0600000000000001
 10
6.1159999999999997
 20
3.0459999999999998
 10
6.1210000000000004
 20
3.0310000000000001
 10
6.1239999999999997
 20
3.016
 10
6.125
 20
3.0
 10
6.1239999999999997
 20
2.984
 10
6.1210000000000004
 20
2.9689999999999999
 10
6.1159999999999997
 20
2.9540000000000002
 10
6.1100000000000003
 20
2.9399999999999999
 10
6.101
 20
2.927
 10
6.0910000000000002
 20
2.9140000000000001
 10
6.0800000000000001
 20
2.9039999999999999
 10
6.0670000000000002
 20
2.8940000000000001
 10
6.0529999999999999
 20
2.887
 10
6.0389999999999997
 20
2.8809999999999998
 10
6.0229999999999997
 20
2.8769999999999998
 10
6.008
 20
2.875
 10
5.992
 20
2.875
 10
5.9770000000000003
 20
2.8769999999999998
 10
5.9610000000000003
 20
2.8809999999999998
 10
5.9470000000000001
 20
2.887
 10
5.9329999999999998
 20
2.8940000000000001
 10
5.9199999999999999
 20
2.9039999999999999
 10
5.9089999999999998
 20
2.9140000000000001
 10
5.899
 20
2.927
 10
5.8899999999999997
 20
2.9399999999999999
 10
5.8840000000000003
 20
2.9540000000000002
 10
5.8789999999999996
 20
2.9689999999999999
 10
5.8760000000000003
 20
2.984
 10
5.875
 20
3.0
  0
LWPOLYLINE
  5
66
  8
0
 62
256
370
-1
  6
ByLayer
100
AcDbEntity
100
AcDbPolyline
 90
51
 70
1
 10
6.6660000000000004
 20
-1.661
 10
6.6669999999999998
 20
-1.645
 10
6.6699999999999999
 20
-1.6299999999999999
 10
6.6749999999999998
 20
-1.615
 10
6.681
 20
-1.601
 10
6.6900000000000004
 20
-1.5880000000000001
 10
6.7000000000000002
 20
-1.575
 10
6.7110000000000003
 20
-1.5649999999999999
 10
6.7240000000000002
 20
-1.5549999999999999
 10
6.7380000000000004
 20
-1.548
 10
6.7519999999999998
 20
-1.542
 10
6.7679999999999998
 20
-1.538
 10
6.7830000000000004
 20
-1.536
 10
6.7990000000000004
 20
-1.536
 10
6.8140000000000001
 20
-1.538
 10
6.8300000000000001
 20
-1.542
 10
6.8440000000000003
 20
-1.548
 10
6.8579999999999997
 20
-1.5549999999999999
 10
6.8710000000000004
 20
-1.5649999999999999
 10
6.8819999999999997
 20
-1.575
 10
6.8920000000000003
 20
-1.5880000000000001
 10
6.9009999999999998
 20
-1.601
 10
6.907
 20
-1.615
 10
6.9119999999999999
 20
-1.6299999999999999
 10
6.915
 20
-1.645
 10
6.9160000000000004
 20
-1.661
 10
6.915
 20
-1.677
 10
6.9119999999999999
 20
-1.6919999999999999
 10
6.907
 20
-1.7070000000000001
 10
6.9009999999999998
 20
-1.7210000000000001
 10
6.8920000000000003
 20
-1.734
 10
6.8819999999999997
 20
-1.7470000000000001
 10
6.8710000000000004
 20
-1.7569999999999999
 10
6.8579999999999997
 20
-1.7669999999999999
 10
6.8440000000000003
 20
-1.774
 10
6.8300000000000001
 20
-1.78
 10
6.8140000000000001
 20
-1.784
 10
6.7990000000000004
 20
-1.786
 10
6.7830000000000004
 20
-1.786
 10
6.7679999999999998
 20
-1.784
 10
6.7519999999999998
 20
-1.78
 10
6.7380000000000004
 20
-1.774
 10
6.7240000000000002
 20
-1.7669999999999999
 10
6.7110000000000003
 20
-1.7569999999999999
 10
6.7000000000000002
 20
-1.7470000000000001
 10
6.6900000000000004
 20
-1.734
 10
6.681
 20
-1.7210000000000001
 10
6.6749999999999998
 20
-1.7070000000000001
 10
6.6699999999999999
 20
-1.6919999999999999
 10
6.6669999999999998
 20
-1.677
 10
6.6660000000000004
 20
-1.661
  0
LWPOLYLINE
  5
67
  8
0
 62
256
370
-1
  6
ByLayer
100
AcDbEntity
100
AcDbPolyline
 90
51
 70
1
 10
6.6660000000000004
 20
1.661
 10
6.6669999999999998
 20
1.677
 10
6.6699999999999999
 20
1.6919999999999999
 10
6.6749999999999998
 20
1.7070000000000001
 10
6.681
 20
1.7210000000000001
 10
6.6900000000000004
 20
1.734
 10
6.7000000000000002
 20
1.7470000000000001
 10
6.7110000000000003
 20
1.7569999999999999
 10
6.7240000000000002
 20
1.7669999999999999
 10
6.7380000000000004
 20
1.774
 10
6.7519999999999998
 20
1.78
 10
6.7679999999999998
 20
1.784
 10
6.7830000000000004
 20
1.786
 10
6.7990000000000004
 20
1.786
 10
6.8140000000000001
 20
1.784
 10
6.8300000000000001
 20
1.78
 10
6.8440000000000003
 20
1.774
 10
6.8579999999999997
 20
1.7669999999999999
 10
6.8710000000000004
 20
1.7569999999999999
 10
6.8819999999999997
 20
1.7470000000000001
 10
6.8920000000000003
 20
1.734
 10
6.9009999999999998
 20
1.7210000000000001
 10
6.907
 20
1.7070000000000001
 10
6.9119999999999999
 20
1.6919999999999999
 10
6.915
 20
1.677
 10
6.9160000000000004
 20
1.661
 10
6.915
 20
1.645
 10
6.9119999999999999
 20
1.6299999999999999
 10
6.907
 20
1.615
 10
6.9009999999999998
 20
1.601
 10
6.8920000000000003
 20
1.5880000000000001
 10
6.8819999999999997
 20
1.575
 10
6.8710000000000004
 20
1.5649999999999999
 10
6.8579999999999997
 20
1.5549999999999999
 10
6.8440000000000003
 20
1.548
 10
6.8300000000000001
 20
1.542
 10
6.8140000000000001
 20
1.538
 10
6.7990000000000004
 20
1.536
 10
6.7830000000000004
 20
1.536
 10
6.7679999999999998
 20
1.538
 10
6.7519999999999998
 20
1.542
 10
6.7380000000000004
 20
1.548
 10
6.7240000000000002
 20
1.5549999999999999
 10
6.7110000000000003
 20
1.5649999999999999
 10
6.7000000000000002
 20
1.575
 10
6.6900000000000004
 20
1.5880000000000001
 10
6.681
 20
1.601
 10
6.6749999999999998
 20
1.615
 10
6.6699999999999999
 20
1.6299999999999999
 10
6.6669999999999998
 20
1.645
 10
6.6660000000000004
 20
1.661
  0
LWPOLYLINE
  5
68
  8
0
 62
256
370
-1
  6
ByLayer
100
AcDbEntity
100
AcDbPolyline
 90
5
 70
1
 10
7.0
 20
7.0
 10
7.0
 20
8.0
 10
8.0
 20
8.0
 10
8.0
 20
7.0
 10
7.0
 20
7.0
  0
LWPOLYLINE
  5
69
  8
0
 62
256
370
-1
  6
ByLayer
100
AcDbEntity
100
AcDbPolyline
 90
51
 70
1
 10
8.0839999999999996
 20
-1.661
 10
8.0850000000000009
 20
-1.645
 10
8.0879999999999992
 20
-1.6299999999999999
 10
8.093
 20
-1.615
 10
8.0990000000000002
 20
-1.601
 10
8.1080000000000005
 20
-1.5880000000000001
 10
8.1180000000000003
 20
-1.575
 10
8.1289999999999996
 20
-1.5649999999999999
 10
8.1419999999999995
 20
-1.5549999999999999
 10
8.1560000000000006
 20
-1.548
 10
8.1699999999999999
 20
-1.542
 10
8.1859999999999999
 20
-1.538
 10
8.2010000000000005
 20
-1.536
 10
8.2170000000000005
 20
-1.536
 10
8.2319999999999993
 20
-1.538
 10
8.2479999999999993
 20
-1.542
 10
8.2620000000000005
 20
-1.548
 10
8.2759999999999998
 20
-1.5549999999999999
 10
8.2889999999999997
 20
-1.5649999999999999
 10
8.3000000000000007
 20
-1.575
 10
8.3100000000000005
 20
-1.5880000000000001
 10
8.3190000000000008
 20
-1.601
 10
8.3249999999999993
 20
-1.615
 10
8.3300000000000001
 20
-1.6299999999999999
 10
8.3330000000000002
 20
-1.645
 10
8.3339999999999996
 20
-1.661
 10
8.3330000000000002
 20
-1.677
 10
8.3300000000000001
 20
-1.6919999999999999
 10
8.3249999999999993
 20
-1.7070000000000001
 10
8.3190000000000008
 20
-1.7210000000000001
 10
8.3100000000000005
 20
-1.734
 10
8.3000000000000007
 20
-1.7470000000000001
 10
8.2889999999999997
 20
-1.7569999999999999
 10
8.2759999999999998
 20
-1.7669999999999999
 10
8.2620000000000005
 20
-1.774
 10
8.2479999999999993
 20
-1.78
 10
8.2319999999999993
 20
-1.784
 10
8.2170000000000005
 20
-1.786
 10
8.2010000000000005
 20
-1.786
 10
8.1859999999999999
 20
-1.784
 10
8.1699999999999999
 20
-1.78
 10
8.1560000000000006
 20
-1.774
 10
8.1419999999999995
 20
-1.7669999999999999
 10
8.1289999999999996
 20
-1.7569999999999999
 10
8.1180000000000003
 20
-1.7470000000000001
 10
8.1080000000000005
 20
-1.734
 10
8.0990000000000002
 20
-1.7210000000000001
 10
8.093
 20
-1.7070000000000001
 10
8.0879999999999992
 20
-1.6919999999999999
 10
8.0850000000000009
 20
-1.677
 10
8.0839999999999996
 20
-1.661
  0
LWPOLYLINE
  5
6A
  8
0
 62
256
370
-1
  6
ByLayer
100
AcDbEntity
100
AcDbPolyline
 90
51
 70
1
 10
8.0839999999999996
 20
1.661
 10
8.0850000000000009
 20
1.677
 10
8.0879999999999992
 20
1.6919999999999999
 10
8.093
 20
1.7070000000000001
 10
8.0990000000000002
 20
1.7210000000000001
 10
8.1080000000000005
 20
1.734
 10
8.1180000000000003
 20
1.7470000000000001
 10
8.1289999999999996
 20
1.7569999999999999
 10
8.1419999999999995
 20
1.7669999999999999
 10
8.1560000000000006
 20
1.774
 10
8.1699999999999999
 20
1.78
 10
8.1859999999999999
 20
1.784
 10
8.2010000000000005
 20
1.786
 10
8.2170000000000005
 20
1.786
 10
8.2319999999999993
 20
1.784
 10
8.2479999999999993
 20
1.78
 10
8.2620000000000005
 20
1.774
 10
8.2759999999999998
 20
1.7669999999999999
 10
8.2889999999999997
 20
1.7569999999999999
 10
8.3000000000000007
 20
1.7470000000000001
 10
8.3100000000000005
 20
1.734
 10
8.3190000000000008
 20
1.7210000000000001
 10
8.3249999999999993
 20
1.7070000000000001
 10
8.3300000000000001
 20
1.6919999999999999
 10
8.3330000000000002
 20
1.677
 10
8.3339999999999996
 20
1.661
 10
8.3330000000000002
 20
1.645
 10
8.3300000000000001
 20
1.6299999999999999
 10
8.3249999999999993
 20
1.615
 10
8.3190000000000008
 20
1.601
 10
8.3100000000000005
 20
1.5880000000000001
 10
8.3000000000000007
 20
1.575
 10
8.2889999999999997
 20
1.5649999999999999
 10
8.2759999999999998
 20
1.5549999999999999
 10
8.2620000000000005
 20
1.548
 10
8.2479999999999993
 20
1.542
 10
8.2319999999999993
 20
1.538
 10
8.2170000000000005
 20
1.536
 10
8.2010000000000005
 20
1.536
 10
8.1859999999999999
 20
1.538
 10
8.1699999999999999
 20
1.542
 10
8.1560000000000006
 20
1.548
 10
8.1419999999999995
 20
1.5549999999999999
 10
8.1289999999999996
 20
1.5649999999999999
 10
8.1180000000000003
 20
1.575
 10
8.1080000000000005
 20
1.5880000000000001
 10
8.0990000000000002
 20
1.601
 10
8.093
 20
1.615
 10
8.0879999999999992
 20
1.6299999999999999
 10
8.0850000000000009
 20
1.645
 10
8.0839999999999996
 20
1.661
  0
LWPOLYLINE
  5
6B
  8
0
 62
256
370
-1
  6
ByLayer
100
AcDbEntity
100
AcDbPolyline
 90
51
 70
1
 10
8.875
 20
-3.0
 10
8.8759999999999994
 20
-2.984
 10
8.8789999999999996
 20
-2.9689999999999999
 10
8.8840000000000003
 20
-2.9540000000000002
 10
8.8900000000000006
 20
-2.9399999999999999
 10
8.8989999999999991
 20
-2.927
 10
8.9090000000000007
 20
-2.9140000000000001
 10
8.9199999999999999
 20
-2.9039999999999999
 10
8.9329999999999998
 20
-2.8940000000000001
 10
8.9469999999999992
 20
-2.887
 10
8.9610000000000003
 20
-2.8809999999999998
 10
8.9770000000000003
 20
-2.8769999999999998
 10
8.9920000000000009
 20
-2.875
 10
9.0079999999999991
 20
-2.875
 10
9.0229999999999997
 20
-2.8769999999999998
 10
9.0389999999999997
 20
-2.8809999999999998
 10
9.0530000000000008
 20
-2.887
 10
9.0670000000000002
 20
-2.8940000000000001
 10
9.0800000000000001
 20
-2.9039999999999999
 10
9.0909999999999993
 20
-2.9140000000000001
 10
9.1010000000000009
 20
-2.927
 10
9.1099999999999994
 20
-2.9399999999999999
 10
9.1159999999999997
 20
-2.9540000000000002
 10
9.1210000000000004
 20
-2.9689999999999999
 10
9.1240000000000006
 20
-2.984
 10
9.125
 20
-3.0
 10
9.1240000000000006
 20
-3.016
 10
9.1210000000000004
 20
-3.0310000000000001
 10
9.1159999999999997
 20
-3.0459999999999998
 10
9.1099999999999994
 20
-3.0600000000000001
 10
9.1010000000000009
 20
-3.073
 10
9.0909999999999993
 20
-3.0859999999999999
 10
9.0800000000000001
 20
-3.0960000000000001
 10
9.0670000000000002
 20
-3.1059999999999999
 10
9.0530000000000008
 20
-3.113
 10
9.0389999999999997
 20
-3.1190000000000002
 10
9.0229999999999997
 20
-3.1230000000000002
 10
9.0079999999999991
 20
-3.125
 10
8.9920000000000009
 20
-3.125
 10
8.9770000000000003
 20
-3.1230000000000002
 10
8.9610000000000003
 20
-3.1190000000000002
 10
8.9469999999999992
 20
-3.113
 10
8.9329999999999998
 20
-3.1059999999999999
 10
8.9199999999999999
 20
-3.0960000000000001
 10
8.9090000000000007
 20
-3.0859999999999999
 10
8.8989999999999991
 20
-3.073
 10
8.8900000000000006
 20
-3.0600000000000001
 10
8.8840000000000003
 20
-3.0459999999999998
 10
8.8789999999999996
 20
-3.0310000000000001
 10
8.8759999999999994
 20
-3.016
 10
8.875
 20
-3.0
  0
LWPOLYLINE
  5
6C
  8
0
 62
256
370
-1
  6
ByLayer
100
AcDbEntity
100
AcDbPolyline
 90
51
 70
1
 10
8.875
 20
3.0
 10
8.8759999999999994
 20
3.016
 10
8.8789999999999996
 20
3.0310000000000001
 10
8.8840000000000003
 20
3.0459999999999998
 10
8.8900000000000006
 20
3.0600000000000001
 10
8.8989999999999991
 20
3.073
 10
8.9090000000000007
 20
3.0859999999999999
 10
8.9199999999999999
 20
3.0960000000000001
 10
8.9329999999999998
 20
3.1059999999999999
 10
8.9469999999999992
 20
3.113
 10
8.9610000000000003
 20
3.1190000000000002
 10
8.9770000000000003
 20
3.1230000000000002
 10
8.9920000000000009
 20
3.125
 10
9.0079999999999991
 20
3.125
 10
9.0229999999999997
 20
3.1230000000000002
 10
9.0389999999999997
 20
3.1190000000000002
 10
9.0530000000000008
 20
3.113
 10
9.0670000000000002
 20
3.1059999999999999
 10
9.0800000000000001
 20
3.0960000000000001
 10
9.0909999999999993
 20
3.0859999999999999
 10
9.1010000000000009
 20
3.073
 10
9.1099999999999994
 20
3.0600000000000001
 10
9.1159999999999997
 20
3.0459999999999998
 10
9.1210000000000004
 20
3.0310000000000001
 10
9.1240000000000006
 20
3.016
 10
9.125
 20
3.0
 10
9.1240000000000006
 20
2.984
 10
9.1210000000000004
 20
2.9689999999999999
 10
9.1159999999999997
 20
2.9540000000000002
 10
9.1099999999999994
 20
2.9399999999999999
 10
9.1010000000000009
 20
2.927
 10
9.0909999999999993
 20
2.9140000000000001
 10
9.0800000000000001
 20
2.9039999999999999
 10
9.0670000000000002
 20
2.8940000000000001
 10
9.0530000000000008
 20
2.887
 10
9.0389999999999997
 20
2.8809999999999998
 10
9.0229999999999997
 20
2.8769999999999998
 10
9.0079999999999991
 20
2.875
 10
8.9920000000000009
 20
2.875
 10
8.9770000000000003
 20
2.8769999999999998
 10
8.9610000000000003
 20
2.8809999999999998
 10
8.9469999999999992
 20
2.887
 10
8.9329999999999998
 20
2.8940000000000001
 10
8.9199999999999999
 20
2.9039999999999999
 10
8.9090000000000007
 20
2.9140000000000001
 10
8.8989999999999991
 20
2.927
 10
8.8900000000000006
 20
2.9399999999999999
 10
8.8840000000000003
 20
2.9540000000000002
 10
8.8789999999999996
 20
2.9689999999999999
 10
8.8759999999999994
 20
2.984
 10
8.875
 20
3.0
  0
MTEXT
  5
6D
100
AcDbEntity
100
AcDbMText
  8
0
 62
256
370
-1
  6
ByLayer
 10
8.4891304347827319
 20
7.5923913043479363
 30
0.0
 40
0.25
 41
100.0
 71
1
 72
0
  1
1"\~Reference\~Square
  7
normallatin1
 50
0.0
 73
1
 44
1.0
  0
ENDSEC
  0
SECTION
  2
OBJECTS
  0
DICTIONARY
  5
C
100
AcDbDictionary
280
0
281
1
  3
ACAD_GROUP
350
D
  3
ACAD_LAYOUT
350
1A
  3
ACAD_MLINESTYLE
350
17
  3
ACAD_PLOTSETTINGS
350
19
  3
ACAD_PLOTSTYLENAME
350
E
  3
AcDbVariableDictionary
350
6E
  0
DICTIONARY
  5
D
100
AcDbDictionary
280
0
281
1
  0
ACDBDICTIONARYWDFLT
  5
E
100
AcDbDictionary
281
1
  3
Normal
350
F
100
AcDbDictionaryWithDefault
340
F
  0
ACDBPLACEHOLDER
  5
F
  0
DICTIONARY
  5
17
100
AcDbDictionary
280
0
281
1
  3
Standard
350
18
  0
MLINESTYLE
  5
18
100
AcDbMlineStyle
  2
STANDARD
 70
0
  3

 62
256
 51
90.0
 52
90.0
 71
2
 49
0.5
 62
256
  6
BYLAYER
 49
-0.5
 62
256
  6
BYLAYER
  0
DICTIONARY
  5
19
100
AcDbDictionary
280
0
281
1
  0
DICTIONARY
  5
1A
100
AcDbDictionary
281
1
  3
Layout1
350
1E
  3
Layout2
350
26
  3
Model
350
22
  0
LAYOUT
  5
1E
100
AcDbPlotSettings
  1

  2
C:\Program Files\AutoCAD 2002\plotters\DWF ePlot (optimized for plotting).pc3
  4

  6

 40
0.0
 41
0.0
 42
0.0
 43
0.0
 44
0.0
 45
0.0
 46
0.0
 47
0.0
 48
0.0
 49
0.0
140
0.0
141
0.0
142
1.0
143
1.0
 70
688
 72
0
 73
0
 74
5
  7

 75
16
147
1.0
148
0.0
149
0.0
100
AcDbLayout
  1
Layout1
 70
1
 71
1
 10
0.0
 20
0.0
 11
420.0
 21
297.0
 12
0.0
 22
0.0
 32
0.0
 14
100000000000000000000.0
 24
100000000000000000000.0
 34
100000000000000000000.0
 15
-100000000000000000000.0
 25
-100000000000000000000.0
 35
-100000000000000000000.0
146
0.0
 13
0.0
 23
0.0
 33
0.0
 16
1.0
 26
0.0
 36
0.0
 17
0.0
 27
1.0
 37
0.0
 76
0
330
1B
  0
LAYOUT
  5
22
100
AcDbPlotSettings
  1

  2
C:\Program Files\AutoCAD 2002\plotters\DWF ePlot (optimized for plotting).pc3
  4

  6

 40
0.0
 41
0.0
 42
0.0
 43
0.0
 44
0.0
 45
0.0
 46
0.0
 47
0.0
 48
0.0
 49
0.0
140
0.0
141
0.0
142
1.0
143
1.0
 70
1712
 72
0
 73
0
 74
0
  7

 75
0
147
1.0
148
0.0
149
0.0
100
AcDbLayout
  1
Model
 70
1
 71
0
 10
0.0
 20
0.0
 11
12.0
 21
9.0
 12
0.0
 22
0.0
 32
0.0
 14
0.0
 24
0.0
 34
0.0
 15
0.0
 25
0.0
 35
0.0
146
0.0
 13
0.0
 23
0.0
 33
0.0
 16
1.0
 26
0.0
 36
0.0
 17
0.0
 27
1.0
 37
0.0
 76
0
330
1F
  0
LAYOUT
  5
26
100
AcDbPlotSettings
  1

  2
C:\Program Files\AutoCAD 2002\plotters\DWF ePlot (optimized for plotting).pc3
  4

  6

 40
0.0
 41
0.0
 42
0.0
 43
0.0
 44
0.0
 45
0.0
 46
0.0
 47
0.0
 48
0.0
 49
0.0
140
0.0
141
0.0
142
1.0
143
1.0
 70
688
 72
0
 73
0
 74
5
  7

 75
16
147
1.0
148
0.0
149
0.0
100
AcDbLayout
  1
Layout2
 70
1
 71
2
 10
0.0
 20
0.0
 11
12.0
 21
9.0
 12
0.0
 22
0.0
 32
0.0
 14
0.0
 24
0.0
 34
0.0
 15
0.0
 25
0.0
 35
0.0
146
0.0
 13
0.0
 23
0.0
 33
0.0
 16
1.0
 26
0.0
 36
0.0
 17
0.0
 27
1.0
 37
0.0
 76
0
330
23
  0
DICTIONARY
  5
6E
100
AcDbDictionary
281
1
  3
DIMASSOC
350
70
  3
HIDETEXT
350
6F
  0
DICTIONARYVAR
  5
6F
100
DictionaryVariables
280
0
  1
2
  0
DICTIONARYVAR
  5
70
100
DictionaryVariables
280
0
  1
1
  0
ENDSEC
  0
EOF
