  0
SECTION
  2
HEADER
  9
$ACADVER
  1
AC1015
  0
ENDSEC
  0
SECTION
  2
BLOCKS
  0
ENDSEC
  0
SECTION
  2
ENTITIES
  0
LWPOLYLINE
  8
0
  90
51
  70
1
 10
-2.630000
 20
0.000000
 10
-2.629000
 20
0.016000
 10
-2.626000
 20
0.032000
 10
-2.621000
 20
0.048000
 10
-2.614000
 20
0.063000
 10
-2.605000
 20
0.076000
 10
-2.595000
 20
0.089000
 10
-2.583000
 20
0.100000
 10
-2.570000
 20
0.110000
 10
-2.555000
 20
0.118000
 10
-2.540000
 20
0.124000
 10
-2.524000
 20
0.128000
 10
-2.508000
 20
0.130000
 10
-2.492000
 20
0.130000
 10
-2.476000
 20
0.128000
 10
-2.460000
 20
0.124000
 10
-2.445000
 20
0.118000
 10
-2.430000
 20
0.110000
 10
-2.417000
 20
0.100000
 10
-2.405000
 20
0.089000
 10
-2.395000
 20
0.076000
 10
-2.386000
 20
0.063000
 10
-2.379000
 20
0.048000
 10
-2.374000
 20
0.032000
 10
-2.371000
 20
0.016000
 10
-2.370000
 20
0.000000
 10
-2.371000
 20
-0.016000
 10
-2.374000
 20
-0.032000
 10
-2.379000
 20
-0.048000
 10
-2.386000
 20
-0.063000
 10
-2.395000
 20
-0.076000
 10
-2.405000
 20
-0.089000
 10
-2.417000
 20
-0.100000
 10
-2.430000
 20
-0.110000
 10
-2.445000
 20
-0.118000
 10
-2.460000
 20
-0.124000
 10
-2.476000
 20
-0.128000
 10
-2.492000
 20
-0.130000
 10
-2.508000
 20
-0.130000
 10
-2.524000
 20
-0.128000
 10
-2.540000
 20
-0.124000
 10
-2.555000
 20
-0.118000
 10
-2.570000
 20
-0.110000
 10
-2.583000
 20
-0.100000
 10
-2.595000
 20
-0.089000
 10
-2.605000
 20
-0.076000
 10
-2.614000
 20
-0.063000
 10
-2.621000
 20
-0.048000
 10
-2.626000
 20
-0.032000
 10
-2.629000
 20
-0.016000
 10
-2.630000
 20
0.000000
  0
LWPOLYLINE
  8
0
  90
45
  70
1
 10
-0.200000
 20
-0.008000
 10
-0.200000
 20
0.008000
 10
-0.199000
 20
0.016000
 10
-0.193000
 20
0.030000
 10
-0.189000
 20
0.037000
 10
-0.184000
 20
0.043000
 10
-0.178000
 20
0.048000
 10
-0.171000
 20
0.053000
 10
-0.165000
 20
0.057000
 10
-0.157000
 20
0.059000
 10
-0.150000
 20
0.061000
 10
-0.142000
 20
0.062000
 10
-0.134000
 20
0.062000
 10
-0.126000
 20
0.061000
 10
-0.119000
 20
0.059000
 10
-0.111000
 20
0.057000
 10
-0.105000
 20
0.053000
 10
-0.098000
 20
0.048000
 10
-0.092000
 20
0.043000
 10
-0.087000
 20
0.037000
 10
-0.083000
 20
0.030000
 10
-0.077000
 20
0.016000
 10
-0.076000
 20
0.008000
 10
-0.076000
 20
-0.008000
 10
-0.077000
 20
-0.016000
 10
-0.083000
 20
-0.030000
 10
-0.087000
 20
-0.037000
 10
-0.092000
 20
-0.043000
 10
-0.098000
 20
-0.048000
 10
-0.105000
 20
-0.053000
 10
-0.111000
 20
-0.057000
 10
-0.119000
 20
-0.059000
 10
-0.126000
 20
-0.061000
 10
-0.134000
 20
-0.062000
 10
-0.142000
 20
-0.062000
 10
-0.150000
 20
-0.061000
 10
-0.157000
 20
-0.059000
 10
-0.165000
 20
-0.057000
 10
-0.171000
 20
-0.053000
 10
-0.178000
 20
-0.048000
 10
-0.184000
 20
-0.043000
 10
-0.189000
 20
-0.037000
 10
-0.193000
 20
-0.030000
 10
-0.199000
 20
-0.016000
 10
-0.200000
 20
-0.008000
  0
LWPOLYLINE
  8
0
  90
45
  70
1
 10
0.076000
 20
-0.008000
 10
0.076000
 20
0.008000
 10
0.077000
 20
0.016000
 10
0.083000
 20
0.030000
 10
0.087000
 20
0.037000
 10
0.092000
 20
0.043000
 10
0.098000
 20
0.048000
 10
0.105000
 20
0.053000
 10
0.111000
 20
0.057000
 10
0.119000
 20
0.059000
 10
0.126000
 20
0.061000
 10
0.134000
 20
0.062000
 10
0.142000
 20
0.062000
 10
0.150000
 20
0.061000
 10
0.157000
 20
0.059000
 10
0.165000
 20
0.057000
 10
0.171000
 20
0.053000
 10
0.178000
 20
0.048000
 10
0.184000
 20
0.043000
 10
0.189000
 20
0.037000
 10
0.193000
 20
0.030000
 10
0.199000
 20
0.016000
 10
0.200000
 20
0.008000
 10
0.200000
 20
-0.008000
 10
0.199000
 20
-0.016000
 10
0.193000
 20
-0.030000
 10
0.189000
 20
-0.037000
 10
0.184000
 20
-0.043000
 10
0.178000
 20
-0.048000
 10
0.171000
 20
-0.053000
 10
0.165000
 20
-0.057000
 10
0.157000
 20
-0.059000
 10
0.150000
 20
-0.061000
 10
0.142000
 20
-0.062000
 10
0.134000
 20
-0.062000
 10
0.126000
 20
-0.061000
 10
0.119000
 20
-0.059000
 10
0.111000
 20
-0.057000
 10
0.105000
 20
-0.053000
 10
0.098000
 20
-0.048000
 10
0.092000
 20
-0.043000
 10
0.087000
 20
-0.037000
 10
0.083000
 20
-0.030000
 10
0.077000
 20
-0.016000
 10
0.076000
 20
-0.008000
  0
LWPOLYLINE
  8
0
  90
51
  70
1
 10
2.370000
 20
0.000000
 10
2.371000
 20
0.016000
 10
2.374000
 20
0.032000
 10
2.379000
 20
0.048000
 10
2.386000
 20
0.063000
 10
2.395000
 20
0.076000
 10
2.405000
 20
0.089000
 10
2.417000
 20
0.100000
 10
2.430000
 20
0.110000
 10
2.445000
 20
0.118000
 10
2.460000
 20
0.124000
 10
2.476000
 20
0.128000
 10
2.492000
 20
0.130000
 10
2.508000
 20
0.130000
 10
2.524000
 20
0.128000
 10
2.540000
 20
0.124000
 10
2.555000
 20
0.118000
 10
2.570000
 20
0.110000
 10
2.583000
 20
0.100000
 10
2.595000
 20
0.089000
 10
2.605000
 20
0.076000
 10
2.614000
 20
0.063000
 10
2.621000
 20
0.048000
 10
2.626000
 20
0.032000
 10
2.629000
 20
0.016000
 10
2.630000
 20
0.000000
 10
2.629000
 20
-0.016000
 10
2.626000
 20
-0.032000
 10
2.621000
 20
-0.048000
 10
2.614000
 20
-0.063000
 10
2.605000
 20
-0.076000
 10
2.595000
 20
-0.089000
 10
2.583000
 20
-0.100000
 10
2.570000
 20
-0.110000
 10
2.555000
 20
-0.118000
 10
2.540000
 20
-0.124000
 10
2.524000
 20
-0.128000
 10
2.508000
 20
-0.130000
 10
2.492000
 20
-0.130000
 10
2.476000
 20
-0.128000
 10
2.460000
 20
-0.124000
 10
2.445000
 20
-0.118000
 10
2.430000
 20
-0.110000
 10
2.417000
 20
-0.100000
 10
2.405000
 20
-0.089000
 10
2.395000
 20
-0.076000
 10
2.386000
 20
-0.063000
 10
2.379000
 20
-0.048000
 10
2.374000
 20
-0.032000
 10
2.371000
 20
-0.016000
 10
2.370000
 20
0.000000
  0
LWPOLYLINE
  8
0
  90
5
  70
1
 10
-3.000000
 20
-0.500000
 10
-3.000000
 20
0.500000
 10
3.000000
 20
0.500000
 10
3.000000
 20
-0.500000
 10
-3.000000
 20
-0.500000
  0
ENDSEC
  0
SECTION
  2
OBJECTS
  0
DICTIONARY
  0
ENDSEC
  0
EOF
