  0
SECTION
  2
HEADER
  9
$ACADVER
  1
AC1015
  0
ENDSEC
  0
SECTION
  2
BLOCKS
  0
ENDSEC
  0
SECTION
  2
ENTITIES
  0
LWPOLYLINE
  8
0
  90
51
  70
1
 10
-3.600000
 20
-1.500000
 10
-3.599000
 20
-1.487000
 10
-3.597000
 20
-1.475000
 10
-3.593000
 20
-1.463000
 10
-3.588000
 20
-1.452000
 10
-3.581000
 20
-1.441000
 10
-3.573000
 20
-1.432000
 10
-3.564000
 20
-1.423000
 10
-3.554000
 20
-1.416000
 10
-3.543000
 20
-1.410000
 10
-3.531000
 20
-1.405000
 10
-3.519000
 20
-1.402000
 10
-3.506000
 20
-1.400000
 10
-3.494000
 20
-1.400000
 10
-3.481000
 20
-1.402000
 10
-3.469000
 20
-1.405000
 10
-3.457000
 20
-1.410000
 10
-3.446000
 20
-1.416000
 10
-3.436000
 20
-1.423000
 10
-3.427000
 20
-1.432000
 10
-3.419000
 20
-1.441000
 10
-3.412000
 20
-1.452000
 10
-3.407000
 20
-1.463000
 10
-3.403000
 20
-1.475000
 10
-3.401000
 20
-1.487000
 10
-3.400000
 20
-1.500000
 10
-3.401000
 20
-1.513000
 10
-3.403000
 20
-1.525000
 10
-3.407000
 20
-1.537000
 10
-3.412000
 20
-1.548000
 10
-3.419000
 20
-1.559000
 10
-3.427000
 20
-1.568000
 10
-3.436000
 20
-1.577000
 10
-3.446000
 20
-1.584000
 10
-3.457000
 20
-1.590000
 10
-3.469000
 20
-1.595000
 10
-3.481000
 20
-1.598000
 10
-3.494000
 20
-1.600000
 10
-3.506000
 20
-1.600000
 10
-3.519000
 20
-1.598000
 10
-3.531000
 20
-1.595000
 10
-3.543000
 20
-1.590000
 10
-3.554000
 20
-1.584000
 10
-3.564000
 20
-1.577000
 10
-3.573000
 20
-1.568000
 10
-3.581000
 20
-1.559000
 10
-3.588000
 20
-1.548000
 10
-3.593000
 20
-1.537000
 10
-3.597000
 20
-1.525000
 10
-3.599000
 20
-1.513000
 10
-3.600000
 20
-1.500000
  0
LWPOLYLINE
  8
0
  90
51
  70
1
 10
-3.600000
 20
-0.500000
 10
-3.599000
 20
-0.487000
 10
-3.597000
 20
-0.475000
 10
-3.593000
 20
-0.463000
 10
-3.588000
 20
-0.452000
 10
-3.581000
 20
-0.441000
 10
-3.573000
 20
-0.432000
 10
-3.564000
 20
-0.423000
 10
-3.554000
 20
-0.416000
 10
-3.543000
 20
-0.410000
 10
-3.531000
 20
-0.405000
 10
-3.519000
 20
-0.402000
 10
-3.506000
 20
-0.400000
 10
-3.494000
 20
-0.400000
 10
-3.481000
 20
-0.402000
 10
-3.469000
 20
-0.405000
 10
-3.457000
 20
-0.410000
 10
-3.446000
 20
-0.416000
 10
-3.436000
 20
-0.423000
 10
-3.427000
 20
-0.432000
 10
-3.419000
 20
-0.441000
 10
-3.412000
 20
-0.452000
 10
-3.407000
 20
-0.463000
 10
-3.403000
 20
-0.475000
 10
-3.401000
 20
-0.487000
 10
-3.400000
 20
-0.500000
 10
-3.401000
 20
-0.513000
 10
-3.403000
 20
-0.525000
 10
-3.407000
 20
-0.537000
 10
-3.412000
 20
-0.548000
 10
-3.419000
 20
-0.559000
 10
-3.427000
 20
-0.568000
 10
-3.436000
 20
-0.577000
 10
-3.446000
 20
-0.584000
 10
-3.457000
 20
-0.590000
 10
-3.469000
 20
-0.595000
 10
-3.481000
 20
-0.598000
 10
-3.494000
 20
-0.600000
 10
-3.506000
 20
-0.600000
 10
-3.519000
 20
-0.598000
 10
-3.531000
 20
-0.595000
 10
-3.543000
 20
-0.590000
 10
-3.554000
 20
-0.584000
 10
-3.564000
 20
-0.577000
 10
-3.573000
 20
-0.568000
 10
-3.581000
 20
-0.559000
 10
-3.588000
 20
-0.548000
 10
-3.593000
 20
-0.537000
 10
-3.597000
 20
-0.525000
 10
-3.599000
 20
-0.513000
 10
-3.600000
 20
-0.500000
  0
LWPOLYLINE
  8
0
  90
51
  70
1
 10
-3.600000
 20
0.500000
 10
-3.599000
 20
0.513000
 10
-3.597000
 20
0.525000
 10
-3.593000
 20
0.537000
 10
-3.588000
 20
0.548000
 10
-3.581000
 20
0.559000
 10
-3.573000
 20
0.568000
 10
-3.564000
 20
0.577000
 10
-3.554000
 20
0.584000
 10
-3.543000
 20
0.590000
 10
-3.531000
 20
0.595000
 10
-3.519000
 20
0.598000
 10
-3.506000
 20
0.600000
 10
-3.494000
 20
0.600000
 10
-3.481000
 20
0.598000
 10
-3.469000
 20
0.595000
 10
-3.457000
 20
0.590000
 10
-3.446000
 20
0.584000
 10
-3.436000
 20
0.577000
 10
-3.427000
 20
0.568000
 10
-3.419000
 20
0.559000
 10
-3.412000
 20
0.548000
 10
-3.407000
 20
0.537000
 10
-3.403000
 20
0.525000
 10
-3.401000
 20
0.513000
 10
-3.400000
 20
0.500000
 10
-3.401000
 20
0.487000
 10
-3.403000
 20
0.475000
 10
-3.407000
 20
0.463000
 10
-3.412000
 20
0.452000
 10
-3.419000
 20
0.441000
 10
-3.427000
 20
0.432000
 10
-3.436000
 20
0.423000
 10
-3.446000
 20
0.416000
 10
-3.457000
 20
0.410000
 10
-3.469000
 20
0.405000
 10
-3.481000
 20
0.402000
 10
-3.494000
 20
0.400000
 10
-3.506000
 20
0.400000
 10
-3.519000
 20
0.402000
 10
-3.531000
 20
0.405000
 10
-3.543000
 20
0.410000
 10
-3.554000
 20
0.416000
 10
-3.564000
 20
0.423000
 10
-3.573000
 20
0.432000
 10
-3.581000
 20
0.441000
 10
-3.588000
 20
0.452000
 10
-3.593000
 20
0.463000
 10
-3.597000
 20
0.475000
 10
-3.599000
 20
0.487000
 10
-3.600000
 20
0.500000
  0
LWPOLYLINE
  8
0
  90
51
  70
1
 10
-3.600000
 20
1.500000
 10
-3.599000
 20
1.513000
 10
-3.597000
 20
1.525000
 10
-3.593000
 20
1.537000
 10
-3.588000
 20
1.548000
 10
-3.581000
 20
1.559000
 10
-3.573000
 20
1.568000
 10
-3.564000
 20
1.577000
 10
-3.554000
 20
1.584000
 10
-3.543000
 20
1.590000
 10
-3.531000
 20
1.595000
 10
-3.519000
 20
1.598000
 10
-3.506000
 20
1.600000
 10
-3.494000
 20
1.600000
 10
-3.481000
 20
1.598000
 10
-3.469000
 20
1.595000
 10
-3.457000
 20
1.590000
 10
-3.446000
 20
1.584000
 10
-3.436000
 20
1.577000
 10
-3.427000
 20
1.568000
 10
-3.419000
 20
1.559000
 10
-3.412000
 20
1.548000
 10
-3.407000
 20
1.537000
 10
-3.403000
 20
1.525000
 10
-3.401000
 20
1.513000
 10
-3.400000
 20
1.500000
 10
-3.401000
 20
1.487000
 10
-3.403000
 20
1.475000
 10
-3.407000
 20
1.463000
 10
-3.412000
 20
1.452000
 10
-3.419000
 20
1.441000
 10
-3.427000
 20
1.432000
 10
-3.436000
 20
1.423000
 10
-3.446000
 20
1.416000
 10
-3.457000
 20
1.410000
 10
-3.469000
 20
1.405000
 10
-3.481000
 20
1.402000
 10
-3.494000
 20
1.400000
 10
-3.506000
 20
1.400000
 10
-3.519000
 20
1.402000
 10
-3.531000
 20
1.405000
 10
-3.543000
 20
1.410000
 10
-3.554000
 20
1.416000
 10
-3.564000
 20
1.423000
 10
-3.573000
 20
1.432000
 10
-3.581000
 20
1.441000
 10
-3.588000
 20
1.452000
 10
-3.593000
 20
1.463000
 10
-3.597000
 20
1.475000
 10
-3.599000
 20
1.487000
 10
-3.600000
 20
1.500000
  0
LWPOLYLINE
  8
0
  90
5
  70
1
 10
-3.875000
 20
-2.500000
 10
-3.875000
 20
2.500000
 10
3.875000
 20
2.500000
 10
3.875000
 20
-2.500000
 10
-3.875000
 20
-2.500000
  0
LWPOLYLINE
  8
0
  90
51
  70
1
 10
-2.600000
 20
-1.500000
 10
-2.599000
 20
-1.487000
 10
-2.597000
 20
-1.475000
 10
-2.593000
 20
-1.463000
 10
-2.588000
 20
-1.452000
 10
-2.581000
 20
-1.441000
 10
-2.573000
 20
-1.432000
 10
-2.564000
 20
-1.423000
 10
-2.554000
 20
-1.416000
 10
-2.543000
 20
-1.410000
 10
-2.531000
 20
-1.405000
 10
-2.519000
 20
-1.402000
 10
-2.506000
 20
-1.400000
 10
-2.494000
 20
-1.400000
 10
-2.481000
 20
-1.402000
 10
-2.469000
 20
-1.405000
 10
-2.457000
 20
-1.410000
 10
-2.446000
 20
-1.416000
 10
-2.436000
 20
-1.423000
 10
-2.427000
 20
-1.432000
 10
-2.419000
 20
-1.441000
 10
-2.412000
 20
-1.452000
 10
-2.407000
 20
-1.463000
 10
-2.403000
 20
-1.475000
 10
-2.401000
 20
-1.487000
 10
-2.400000
 20
-1.500000
 10
-2.401000
 20
-1.513000
 10
-2.403000
 20
-1.525000
 10
-2.407000
 20
-1.537000
 10
-2.412000
 20
-1.548000
 10
-2.419000
 20
-1.559000
 10
-2.427000
 20
-1.568000
 10
-2.436000
 20
-1.577000
 10
-2.446000
 20
-1.584000
 10
-2.457000
 20
-1.590000
 10
-2.469000
 20
-1.595000
 10
-2.481000
 20
-1.598000
 10
-2.494000
 20
-1.600000
 10
-2.506000
 20
-1.600000
 10
-2.519000
 20
-1.598000
 10
-2.531000
 20
-1.595000
 10
-2.543000
 20
-1.590000
 10
-2.554000
 20
-1.584000
 10
-2.564000
 20
-1.577000
 10
-2.573000
 20
-1.568000
 10
-2.581000
 20
-1.559000
 10
-2.588000
 20
-1.548000
 10
-2.593000
 20
-1.537000
 10
-2.597000
 20
-1.525000
 10
-2.599000
 20
-1.513000
 10
-2.600000
 20
-1.500000
  0
LWPOLYLINE
  8
0
  90
51
  70
1
 10
-2.600000
 20
-0.500000
 10
-2.599000
 20
-0.487000
 10
-2.597000
 20
-0.475000
 10
-2.593000
 20
-0.463000
 10
-2.588000
 20
-0.452000
 10
-2.581000
 20
-0.441000
 10
-2.573000
 20
-0.432000
 10
-2.564000
 20
-0.423000
 10
-2.554000
 20
-0.416000
 10
-2.543000
 20
-0.410000
 10
-2.531000
 20
-0.405000
 10
-2.519000
 20
-0.402000
 10
-2.506000
 20
-0.400000
 10
-2.494000
 20
-0.400000
 10
-2.481000
 20
-0.402000
 10
-2.469000
 20
-0.405000
 10
-2.457000
 20
-0.410000
 10
-2.446000
 20
-0.416000
 10
-2.436000
 20
-0.423000
 10
-2.427000
 20
-0.432000
 10
-2.419000
 20
-0.441000
 10
-2.412000
 20
-0.452000
 10
-2.407000
 20
-0.463000
 10
-2.403000
 20
-0.475000
 10
-2.401000
 20
-0.487000
 10
-2.400000
 20
-0.500000
 10
-2.401000
 20
-0.513000
 10
-2.403000
 20
-0.525000
 10
-2.407000
 20
-0.537000
 10
-2.412000
 20
-0.548000
 10
-2.419000
 20
-0.559000
 10
-2.427000
 20
-0.568000
 10
-2.436000
 20
-0.577000
 10
-2.446000
 20
-0.584000
 10
-2.457000
 20
-0.590000
 10
-2.469000
 20
-0.595000
 10
-2.481000
 20
-0.598000
 10
-2.494000
 20
-0.600000
 10
-2.506000
 20
-0.600000
 10
-2.519000
 20
-0.598000
 10
-2.531000
 20
-0.595000
 10
-2.543000
 20
-0.590000
 10
-2.554000
 20
-0.584000
 10
-2.564000
 20
-0.577000
 10
-2.573000
 20
-0.568000
 10
-2.581000
 20
-0.559000
 10
-2.588000
 20
-0.548000
 10
-2.593000
 20
-0.537000
 10
-2.597000
 20
-0.525000
 10
-2.599000
 20
-0.513000
 10
-2.600000
 20
-0.500000
  0
LWPOLYLINE
  8
0
  90
51
  70
1
 10
-2.600000
 20
0.500000
 10
-2.599000
 20
0.513000
 10
-2.597000
 20
0.525000
 10
-2.593000
 20
0.537000
 10
-2.588000
 20
0.548000
 10
-2.581000
 20
0.559000
 10
-2.573000
 20
0.568000
 10
-2.564000
 20
0.577000
 10
-2.554000
 20
0.584000
 10
-2.543000
 20
0.590000
 10
-2.531000
 20
0.595000
 10
-2.519000
 20
0.598000
 10
-2.506000
 20
0.600000
 10
-2.494000
 20
0.600000
 10
-2.481000
 20
0.598000
 10
-2.469000
 20
0.595000
 10
-2.457000
 20
0.590000
 10
-2.446000
 20
0.584000
 10
-2.436000
 20
0.577000
 10
-2.427000
 20
0.568000
 10
-2.419000
 20
0.559000
 10
-2.412000
 20
0.548000
 10
-2.407000
 20
0.537000
 10
-2.403000
 20
0.525000
 10
-2.401000
 20
0.513000
 10
-2.400000
 20
0.500000
 10
-2.401000
 20
0.487000
 10
-2.403000
 20
0.475000
 10
-2.407000
 20
0.463000
 10
-2.412000
 20
0.452000
 10
-2.419000
 20
0.441000
 10
-2.427000
 20
0.432000
 10
-2.436000
 20
0.423000
 10
-2.446000
 20
0.416000
 10
-2.457000
 20
0.410000
 10
-2.469000
 20
0.405000
 10
-2.481000
 20
0.402000
 10
-2.494000
 20
0.400000
 10
-2.506000
 20
0.400000
 10
-2.519000
 20
0.402000
 10
-2.531000
 20
0.405000
 10
-2.543000
 20
0.410000
 10
-2.554000
 20
0.416000
 10
-2.564000
 20
0.423000
 10
-2.573000
 20
0.432000
 10
-2.581000
 20
0.441000
 10
-2.588000
 20
0.452000
 10
-2.593000
 20
0.463000
 10
-2.597000
 20
0.475000
 10
-2.599000
 20
0.487000
 10
-2.600000
 20
0.500000
  0
LWPOLYLINE
  8
0
  90
51
  70
1
 10
-2.600000
 20
1.500000
 10
-2.599000
 20
1.513000
 10
-2.597000
 20
1.525000
 10
-2.593000
 20
1.537000
 10
-2.588000
 20
1.548000
 10
-2.581000
 20
1.559000
 10
-2.573000
 20
1.568000
 10
-2.564000
 20
1.577000
 10
-2.554000
 20
1.584000
 10
-2.543000
 20
1.590000
 10
-2.531000
 20
1.595000
 10
-2.519000
 20
1.598000
 10
-2.506000
 20
1.600000
 10
-2.494000
 20
1.600000
 10
-2.481000
 20
1.598000
 10
-2.469000
 20
1.595000
 10
-2.457000
 20
1.590000
 10
-2.446000
 20
1.584000
 10
-2.436000
 20
1.577000
 10
-2.427000
 20
1.568000
 10
-2.419000
 20
1.559000
 10
-2.412000
 20
1.548000
 10
-2.407000
 20
1.537000
 10
-2.403000
 20
1.525000
 10
-2.401000
 20
1.513000
 10
-2.400000
 20
1.500000
 10
-2.401000
 20
1.487000
 10
-2.403000
 20
1.475000
 10
-2.407000
 20
1.463000
 10
-2.412000
 20
1.452000
 10
-2.419000
 20
1.441000
 10
-2.427000
 20
1.432000
 10
-2.436000
 20
1.423000
 10
-2.446000
 20
1.416000
 10
-2.457000
 20
1.410000
 10
-2.469000
 20
1.405000
 10
-2.481000
 20
1.402000
 10
-2.494000
 20
1.400000
 10
-2.506000
 20
1.400000
 10
-2.519000
 20
1.402000
 10
-2.531000
 20
1.405000
 10
-2.543000
 20
1.410000
 10
-2.554000
 20
1.416000
 10
-2.564000
 20
1.423000
 10
-2.573000
 20
1.432000
 10
-2.581000
 20
1.441000
 10
-2.588000
 20
1.452000
 10
-2.593000
 20
1.463000
 10
-2.597000
 20
1.475000
 10
-2.599000
 20
1.487000
 10
-2.600000
 20
1.500000
  0
LWPOLYLINE
  8
0
  90
53
  70
1
 10
-2.250000
 20
-0.500000
 10
-2.250000
 20
0.500000
 10
-2.249000
 20
0.516000
 10
-2.246000
 20
0.531000
 10
-2.241000
 20
0.546000
 10
-2.235000
 20
0.560000
 10
-2.226000
 20
0.573000
 10
-2.216000
 20
0.586000
 10
-2.205000
 20
0.596000
 10
-2.192000
 20
0.606000
 10
-2.178000
 20
0.613000
 10
-2.164000
 20
0.619000
 10
-2.148000
 20
0.623000
 10
-2.133000
 20
0.625000
 10
-2.117000
 20
0.625000
 10
-2.102000
 20
0.623000
 10
-2.086000
 20
0.619000
 10
-2.072000
 20
0.613000
 10
-2.058000
 20
0.606000
 10
-2.045000
 20
0.596000
 10
-2.034000
 20
0.586000
 10
-2.024000
 20
0.573000
 10
-2.015000
 20
0.560000
 10
-2.009000
 20
0.546000
 10
-2.004000
 20
0.531000
 10
-2.001000
 20
0.516000
 10
-2.000000
 20
0.500000
 10
-2.000000
 20
-0.500000
 10
-2.001000
 20
-0.516000
 10
-2.004000
 20
-0.531000
 10
-2.009000
 20
-0.546000
 10
-2.015000
 20
-0.560000
 10
-2.024000
 20
-0.573000
 10
-2.034000
 20
-0.586000
 10
-2.045000
 20
-0.596000
 10
-2.058000
 20
-0.606000
 10
-2.072000
 20
-0.613000
 10
-2.086000
 20
-0.619000
 10
-2.102000
 20
-0.623000
 10
-2.117000
 20
-0.625000
 10
-2.133000
 20
-0.625000
 10
-2.148000
 20
-0.623000
 10
-2.164000
 20
-0.619000
 10
-2.178000
 20
-0.613000
 10
-2.192000
 20
-0.606000
 10
-2.205000
 20
-0.596000
 10
-2.216000
 20
-0.586000
 10
-2.226000
 20
-0.573000
 10
-2.235000
 20
-0.560000
 10
-2.241000
 20
-0.546000
 10
-2.246000
 20
-0.531000
 10
-2.249000
 20
-0.516000
 10
-2.250000
 20
-0.500000
  0
LWPOLYLINE
  8
0
  90
51
  70
1
 10
-2.225000
 20
-2.313000
 10
-2.224000
 20
-2.300000
 10
-2.222000
 20
-2.288000
 10
-2.218000
 20
-2.276000
 10
-2.213000
 20
-2.264000
 10
-2.206000
 20
-2.254000
 10
-2.198000
 20
-2.244000
 10
-2.189000
 20
-2.235000
 10
-2.179000
 20
-2.228000
 10
-2.168000
 20
-2.222000
 10
-2.156000
 20
-2.217000
 10
-2.144000
 20
-2.214000
 10
-2.131000
 20
-2.213000
 10
-2.119000
 20
-2.213000
 10
-2.106000
 20
-2.214000
 10
-2.094000
 20
-2.217000
 10
-2.082000
 20
-2.222000
 10
-2.071000
 20
-2.228000
 10
-2.061000
 20
-2.235000
 10
-2.052000
 20
-2.244000
 10
-2.044000
 20
-2.254000
 10
-2.037000
 20
-2.264000
 10
-2.032000
 20
-2.276000
 10
-2.028000
 20
-2.288000
 10
-2.026000
 20
-2.300000
 10
-2.025000
 20
-2.313000
 10
-2.026000
 20
-2.325000
 10
-2.028000
 20
-2.337000
 10
-2.032000
 20
-2.349000
 10
-2.037000
 20
-2.361000
 10
-2.044000
 20
-2.371000
 10
-2.052000
 20
-2.381000
 10
-2.061000
 20
-2.390000
 10
-2.071000
 20
-2.397000
 10
-2.082000
 20
-2.403000
 10
-2.094000
 20
-2.408000
 10
-2.106000
 20
-2.411000
 10
-2.119000
 20
-2.412000
 10
-2.131000
 20
-2.412000
 10
-2.144000
 20
-2.411000
 10
-2.156000
 20
-2.408000
 10
-2.168000
 20
-2.403000
 10
-2.179000
 20
-2.397000
 10
-2.189000
 20
-2.390000
 10
-2.198000
 20
-2.381000
 10
-2.206000
 20
-2.371000
 10
-2.213000
 20
-2.361000
 10
-2.218000
 20
-2.349000
 10
-2.222000
 20
-2.337000
 10
-2.224000
 20
-2.325000
 10
-2.225000
 20
-2.313000
  0
LWPOLYLINE
  8
0
  90
51
  70
1
 10
-2.225000
 20
2.313000
 10
-2.224000
 20
2.325000
 10
-2.222000
 20
2.337000
 10
-2.218000
 20
2.349000
 10
-2.213000
 20
2.361000
 10
-2.206000
 20
2.371000
 10
-2.198000
 20
2.381000
 10
-2.189000
 20
2.390000
 10
-2.179000
 20
2.397000
 10
-2.168000
 20
2.403000
 10
-2.156000
 20
2.408000
 10
-2.144000
 20
2.411000
 10
-2.131000
 20
2.412000
 10
-2.119000
 20
2.412000
 10
-2.106000
 20
2.411000
 10
-2.094000
 20
2.408000
 10
-2.082000
 20
2.403000
 10
-2.071000
 20
2.397000
 10
-2.061000
 20
2.390000
 10
-2.052000
 20
2.381000
 10
-2.044000
 20
2.371000
 10
-2.037000
 20
2.361000
 10
-2.032000
 20
2.349000
 10
-2.028000
 20
2.337000
 10
-2.026000
 20
2.325000
 10
-2.025000
 20
2.313000
 10
-2.026000
 20
2.300000
 10
-2.028000
 20
2.288000
 10
-2.032000
 20
2.276000
 10
-2.037000
 20
2.264000
 10
-2.044000
 20
2.254000
 10
-2.052000
 20
2.244000
 10
-2.061000
 20
2.235000
 10
-2.071000
 20
2.228000
 10
-2.082000
 20
2.222000
 10
-2.094000
 20
2.217000
 10
-2.106000
 20
2.214000
 10
-2.119000
 20
2.213000
 10
-2.131000
 20
2.213000
 10
-2.144000
 20
2.214000
 10
-2.156000
 20
2.217000
 10
-2.168000
 20
2.222000
 10
-2.179000
 20
2.228000
 10
-2.189000
 20
2.235000
 10
-2.198000
 20
2.244000
 10
-2.206000
 20
2.254000
 10
-2.213000
 20
2.264000
 10
-2.218000
 20
2.276000
 10
-2.222000
 20
2.288000
 10
-2.224000
 20
2.300000
 10
-2.225000
 20
2.313000
  0
LWPOLYLINE
  8
0
  90
51
  70
1
 10
-1.350000
 20
-2.063000
 10
-1.349000
 20
-2.050000
 10
-1.347000
 20
-2.038000
 10
-1.343000
 20
-2.026000
 10
-1.338000
 20
-2.014000
 10
-1.331000
 20
-2.004000
 10
-1.323000
 20
-1.994000
 10
-1.314000
 20
-1.985000
 10
-1.304000
 20
-1.978000
 10
-1.293000
 20
-1.972000
 10
-1.281000
 20
-1.967000
 10
-1.269000
 20
-1.964000
 10
-1.256000
 20
-1.963000
 10
-1.244000
 20
-1.963000
 10
-1.231000
 20
-1.964000
 10
-1.219000
 20
-1.967000
 10
-1.207000
 20
-1.972000
 10
-1.196000
 20
-1.978000
 10
-1.186000
 20
-1.985000
 10
-1.177000
 20
-1.994000
 10
-1.169000
 20
-2.004000
 10
-1.162000
 20
-2.014000
 10
-1.157000
 20
-2.026000
 10
-1.153000
 20
-2.038000
 10
-1.151000
 20
-2.050000
 10
-1.150000
 20
-2.063000
 10
-1.151000
 20
-2.075000
 10
-1.153000
 20
-2.087000
 10
-1.157000
 20
-2.099000
 10
-1.162000
 20
-2.111000
 10
-1.169000
 20
-2.121000
 10
-1.177000
 20
-2.131000
 10
-1.186000
 20
-2.140000
 10
-1.196000
 20
-2.147000
 10
-1.207000
 20
-2.153000
 10
-1.219000
 20
-2.158000
 10
-1.231000
 20
-2.161000
 10
-1.244000
 20
-2.162000
 10
-1.256000
 20
-2.162000
 10
-1.269000
 20
-2.161000
 10
-1.281000
 20
-2.158000
 10
-1.293000
 20
-2.153000
 10
-1.304000
 20
-2.147000
 10
-1.314000
 20
-2.140000
 10
-1.323000
 20
-2.131000
 10
-1.331000
 20
-2.121000
 10
-1.338000
 20
-2.111000
 10
-1.343000
 20
-2.099000
 10
-1.347000
 20
-2.087000
 10
-1.349000
 20
-2.075000
 10
-1.350000
 20
-2.063000
  0
LWPOLYLINE
  8
0
  90
51
  70
1
 10
-1.350000
 20
2.063000
 10
-1.349000
 20
2.075000
 10
-1.347000
 20
2.087000
 10
-1.343000
 20
2.099000
 10
-1.338000
 20
2.111000
 10
-1.331000
 20
2.121000
 10
-1.323000
 20
2.131000
 10
-1.314000
 20
2.140000
 10
-1.304000
 20
2.147000
 10
-1.293000
 20
2.153000
 10
-1.281000
 20
2.158000
 10
-1.269000
 20
2.161000
 10
-1.256000
 20
2.162000
 10
-1.244000
 20
2.162000
 10
-1.231000
 20
2.161000
 10
-1.219000
 20
2.158000
 10
-1.207000
 20
2.153000
 10
-1.196000
 20
2.147000
 10
-1.186000
 20
2.140000
 10
-1.177000
 20
2.131000
 10
-1.169000
 20
2.121000
 10
-1.162000
 20
2.111000
 10
-1.157000
 20
2.099000
 10
-1.153000
 20
2.087000
 10
-1.151000
 20
2.075000
 10
-1.150000
 20
2.063000
 10
-1.151000
 20
2.050000
 10
-1.153000
 20
2.038000
 10
-1.157000
 20
2.026000
 10
-1.162000
 20
2.014000
 10
-1.169000
 20
2.004000
 10
-1.177000
 20
1.994000
 10
-1.186000
 20
1.985000
 10
-1.196000
 20
1.978000
 10
-1.207000
 20
1.972000
 10
-1.219000
 20
1.967000
 10
-1.231000
 20
1.964000
 10
-1.244000
 20
1.963000
 10
-1.256000
 20
1.963000
 10
-1.269000
 20
1.964000
 10
-1.281000
 20
1.967000
 10
-1.293000
 20
1.972000
 10
-1.304000
 20
1.978000
 10
-1.314000
 20
1.985000
 10
-1.323000
 20
1.994000
 10
-1.331000
 20
2.004000
 10
-1.338000
 20
2.014000
 10
-1.343000
 20
2.026000
 10
-1.347000
 20
2.038000
 10
-1.349000
 20
2.050000
 10
-1.350000
 20
2.063000
  0
LWPOLYLINE
  8
0
  90
51
  70
1
 10
1.150000
 20
-2.063000
 10
1.151000
 20
-2.050000
 10
1.153000
 20
-2.038000
 10
1.157000
 20
-2.026000
 10
1.162000
 20
-2.014000
 10
1.169000
 20
-2.004000
 10
1.177000
 20
-1.994000
 10
1.186000
 20
-1.985000
 10
1.196000
 20
-1.978000
 10
1.207000
 20
-1.972000
 10
1.219000
 20
-1.967000
 10
1.231000
 20
-1.964000
 10
1.244000
 20
-1.963000
 10
1.256000
 20
-1.963000
 10
1.269000
 20
-1.964000
 10
1.281000
 20
-1.967000
 10
1.293000
 20
-1.972000
 10
1.304000
 20
-1.978000
 10
1.314000
 20
-1.985000
 10
1.323000
 20
-1.994000
 10
1.331000
 20
-2.004000
 10
1.338000
 20
-2.014000
 10
1.343000
 20
-2.026000
 10
1.347000
 20
-2.038000
 10
1.349000
 20
-2.050000
 10
1.350000
 20
-2.063000
 10
1.349000
 20
-2.075000
 10
1.347000
 20
-2.087000
 10
1.343000
 20
-2.099000
 10
1.338000
 20
-2.111000
 10
1.331000
 20
-2.121000
 10
1.323000
 20
-2.131000
 10
1.314000
 20
-2.140000
 10
1.304000
 20
-2.147000
 10
1.293000
 20
-2.153000
 10
1.281000
 20
-2.158000
 10
1.269000
 20
-2.161000
 10
1.256000
 20
-2.162000
 10
1.244000
 20
-2.162000
 10
1.231000
 20
-2.161000
 10
1.219000
 20
-2.158000
 10
1.207000
 20
-2.153000
 10
1.196000
 20
-2.147000
 10
1.186000
 20
-2.140000
 10
1.177000
 20
-2.131000
 10
1.169000
 20
-2.121000
 10
1.162000
 20
-2.111000
 10
1.157000
 20
-2.099000
 10
1.153000
 20
-2.087000
 10
1.151000
 20
-2.075000
 10
1.150000
 20
-2.063000
  0
LWPOLYLINE
  8
0
  90
51
  70
1
 10
1.150000
 20
2.063000
 10
1.151000
 20
2.075000
 10
1.153000
 20
2.087000
 10
1.157000
 20
2.099000
 10
1.162000
 20
2.111000
 10
1.169000
 20
2.121000
 10
1.177000
 20
2.131000
 10
1.186000
 20
2.140000
 10
1.196000
 20
2.147000
 10
1.207000
 20
2.153000
 10
1.219000
 20
2.158000
 10
1.231000
 20
2.161000
 10
1.244000
 20
2.162000
 10
1.256000
 20
2.162000
 10
1.269000
 20
2.161000
 10
1.281000
 20
2.158000
 10
1.293000
 20
2.153000
 10
1.304000
 20
2.147000
 10
1.314000
 20
2.140000
 10
1.323000
 20
2.131000
 10
1.331000
 20
2.121000
 10
1.338000
 20
2.111000
 10
1.343000
 20
2.099000
 10
1.347000
 20
2.087000
 10
1.349000
 20
2.075000
 10
1.350000
 20
2.063000
 10
1.349000
 20
2.050000
 10
1.347000
 20
2.038000
 10
1.343000
 20
2.026000
 10
1.338000
 20
2.014000
 10
1.331000
 20
2.004000
 10
1.323000
 20
1.994000
 10
1.314000
 20
1.985000
 10
1.304000
 20
1.978000
 10
1.293000
 20
1.972000
 10
1.281000
 20
1.967000
 10
1.269000
 20
1.964000
 10
1.256000
 20
1.963000
 10
1.244000
 20
1.963000
 10
1.231000
 20
1.964000
 10
1.219000
 20
1.967000
 10
1.207000
 20
1.972000
 10
1.196000
 20
1.978000
 10
1.186000
 20
1.985000
 10
1.177000
 20
1.994000
 10
1.169000
 20
2.004000
 10
1.162000
 20
2.014000
 10
1.157000
 20
2.026000
 10
1.153000
 20
2.038000
 10
1.151000
 20
2.050000
 10
1.150000
 20
2.063000
  0
LWPOLYLINE
  8
0
  90
53
  70
1
 10
2.000000
 20
-0.500000
 10
2.000000
 20
0.500000
 10
2.001000
 20
0.516000
 10
2.004000
 20
0.531000
 10
2.009000
 20
0.546000
 10
2.015000
 20
0.560000
 10
2.024000
 20
0.573000
 10
2.034000
 20
0.586000
 10
2.045000
 20
0.596000
 10
2.058000
 20
0.606000
 10
2.072000
 20
0.613000
 10
2.086000
 20
0.619000
 10
2.102000
 20
0.623000
 10
2.117000
 20
0.625000
 10
2.133000
 20
0.625000
 10
2.148000
 20
0.623000
 10
2.164000
 20
0.619000
 10
2.178000
 20
0.613000
 10
2.192000
 20
0.606000
 10
2.205000
 20
0.596000
 10
2.216000
 20
0.586000
 10
2.226000
 20
0.573000
 10
2.235000
 20
0.560000
 10
2.241000
 20
0.546000
 10
2.246000
 20
0.531000
 10
2.249000
 20
0.516000
 10
2.250000
 20
0.500000
 10
2.250000
 20
-0.500000
 10
2.249000
 20
-0.516000
 10
2.246000
 20
-0.531000
 10
2.241000
 20
-0.546000
 10
2.235000
 20
-0.560000
 10
2.226000
 20
-0.573000
 10
2.216000
 20
-0.586000
 10
2.205000
 20
-0.596000
 10
2.192000
 20
-0.606000
 10
2.178000
 20
-0.613000
 10
2.164000
 20
-0.619000
 10
2.148000
 20
-0.623000
 10
2.133000
 20
-0.625000
 10
2.117000
 20
-0.625000
 10
2.102000
 20
-0.623000
 10
2.086000
 20
-0.619000
 10
2.072000
 20
-0.613000
 10
2.058000
 20
-0.606000
 10
2.045000
 20
-0.596000
 10
2.034000
 20
-0.586000
 10
2.024000
 20
-0.573000
 10
2.015000
 20
-0.560000
 10
2.009000
 20
-0.546000
 10
2.004000
 20
-0.531000
 10
2.001000
 20
-0.516000
 10
2.000000
 20
-0.500000
  0
LWPOLYLINE
  8
0
  90
51
  70
1
 10
2.025000
 20
-2.313000
 10
2.026000
 20
-2.300000
 10
2.028000
 20
-2.288000
 10
2.032000
 20
-2.276000
 10
2.037000
 20
-2.264000
 10
2.044000
 20
-2.254000
 10
2.052000
 20
-2.244000
 10
2.061000
 20
-2.235000
 10
2.071000
 20
-2.228000
 10
2.082000
 20
-2.222000
 10
2.094000
 20
-2.217000
 10
2.106000
 20
-2.214000
 10
2.119000
 20
-2.213000
 10
2.131000
 20
-2.213000
 10
2.144000
 20
-2.214000
 10
2.156000
 20
-2.217000
 10
2.168000
 20
-2.222000
 10
2.179000
 20
-2.228000
 10
2.189000
 20
-2.235000
 10
2.198000
 20
-2.244000
 10
2.206000
 20
-2.254000
 10
2.213000
 20
-2.264000
 10
2.218000
 20
-2.276000
 10
2.222000
 20
-2.288000
 10
2.224000
 20
-2.300000
 10
2.225000
 20
-2.313000
 10
2.224000
 20
-2.325000
 10
2.222000
 20
-2.337000
 10
2.218000
 20
-2.349000
 10
2.213000
 20
-2.361000
 10
2.206000
 20
-2.371000
 10
2.198000
 20
-2.381000
 10
2.189000
 20
-2.390000
 10
2.179000
 20
-2.397000
 10
2.168000
 20
-2.403000
 10
2.156000
 20
-2.408000
 10
2.144000
 20
-2.411000
 10
2.131000
 20
-2.412000
 10
2.119000
 20
-2.412000
 10
2.106000
 20
-2.411000
 10
2.094000
 20
-2.408000
 10
2.082000
 20
-2.403000
 10
2.071000
 20
-2.397000
 10
2.061000
 20
-2.390000
 10
2.052000
 20
-2.381000
 10
2.044000
 20
-2.371000
 10
2.037000
 20
-2.361000
 10
2.032000
 20
-2.349000
 10
2.028000
 20
-2.337000
 10
2.026000
 20
-2.325000
 10
2.025000
 20
-2.313000
  0
LWPOLYLINE
  8
0
  90
51
  70
1
 10
2.025000
 20
2.313000
 10
2.026000
 20
2.325000
 10
2.028000
 20
2.337000
 10
2.032000
 20
2.349000
 10
2.037000
 20
2.361000
 10
2.044000
 20
2.371000
 10
2.052000
 20
2.381000
 10
2.061000
 20
2.390000
 10
2.071000
 20
2.397000
 10
2.082000
 20
2.403000
 10
2.094000
 20
2.408000
 10
2.106000
 20
2.411000
 10
2.119000
 20
2.412000
 10
2.131000
 20
2.412000
 10
2.144000
 20
2.411000
 10
2.156000
 20
2.408000
 10
2.168000
 20
2.403000
 10
2.179000
 20
2.397000
 10
2.189000
 20
2.390000
 10
2.198000
 20
2.381000
 10
2.206000
 20
2.371000
 10
2.213000
 20
2.361000
 10
2.218000
 20
2.349000
 10
2.222000
 20
2.337000
 10
2.224000
 20
2.325000
 10
2.225000
 20
2.313000
 10
2.224000
 20
2.300000
 10
2.222000
 20
2.288000
 10
2.218000
 20
2.276000
 10
2.213000
 20
2.264000
 10
2.206000
 20
2.254000
 10
2.198000
 20
2.244000
 10
2.189000
 20
2.235000
 10
2.179000
 20
2.228000
 10
2.168000
 20
2.222000
 10
2.156000
 20
2.217000
 10
2.144000
 20
2.214000
 10
2.131000
 20
2.213000
 10
2.119000
 20
2.213000
 10
2.106000
 20
2.214000
 10
2.094000
 20
2.217000
 10
2.082000
 20
2.222000
 10
2.071000
 20
2.228000
 10
2.061000
 20
2.235000
 10
2.052000
 20
2.244000
 10
2.044000
 20
2.254000
 10
2.037000
 20
2.264000
 10
2.032000
 20
2.276000
 10
2.028000
 20
2.288000
 10
2.026000
 20
2.300000
 10
2.025000
 20
2.313000
  0
LWPOLYLINE
  8
0
  90
51
  70
1
 10
2.400000
 20
-1.500000
 10
2.401000
 20
-1.487000
 10
2.403000
 20
-1.475000
 10
2.407000
 20
-1.463000
 10
2.412000
 20
-1.452000
 10
2.419000
 20
-1.441000
 10
2.427000
 20
-1.432000
 10
2.436000
 20
-1.423000
 10
2.446000
 20
-1.416000
 10
2.457000
 20
-1.410000
 10
2.469000
 20
-1.405000
 10
2.481000
 20
-1.402000
 10
2.494000
 20
-1.400000
 10
2.506000
 20
-1.400000
 10
2.519000
 20
-1.402000
 10
2.531000
 20
-1.405000
 10
2.543000
 20
-1.410000
 10
2.554000
 20
-1.416000
 10
2.564000
 20
-1.423000
 10
2.573000
 20
-1.432000
 10
2.581000
 20
-1.441000
 10
2.588000
 20
-1.452000
 10
2.593000
 20
-1.463000
 10
2.597000
 20
-1.475000
 10
2.599000
 20
-1.487000
 10
2.600000
 20
-1.500000
 10
2.599000
 20
-1.513000
 10
2.597000
 20
-1.525000
 10
2.593000
 20
-1.537000
 10
2.588000
 20
-1.548000
 10
2.581000
 20
-1.559000
 10
2.573000
 20
-1.568000
 10
2.564000
 20
-1.577000
 10
2.554000
 20
-1.584000
 10
2.543000
 20
-1.590000
 10
2.531000
 20
-1.595000
 10
2.519000
 20
-1.598000
 10
2.506000
 20
-1.600000
 10
2.494000
 20
-1.600000
 10
2.481000
 20
-1.598000
 10
2.469000
 20
-1.595000
 10
2.457000
 20
-1.590000
 10
2.446000
 20
-1.584000
 10
2.436000
 20
-1.577000
 10
2.427000
 20
-1.568000
 10
2.419000
 20
-1.559000
 10
2.412000
 20
-1.548000
 10
2.407000
 20
-1.537000
 10
2.403000
 20
-1.525000
 10
2.401000
 20
-1.513000
 10
2.400000
 20
-1.500000
  0
LWPOLYLINE
  8
0
  90
51
  70
1
 10
2.400000
 20
-0.500000
 10
2.401000
 20
-0.487000
 10
2.403000
 20
-0.475000
 10
2.407000
 20
-0.463000
 10
2.412000
 20
-0.452000
 10
2.419000
 20
-0.441000
 10
2.427000
 20
-0.432000
 10
2.436000
 20
-0.423000
 10
2.446000
 20
-0.416000
 10
2.457000
 20
-0.410000
 10
2.469000
 20
-0.405000
 10
2.481000
 20
-0.402000
 10
2.494000
 20
-0.400000
 10
2.506000
 20
-0.400000
 10
2.519000
 20
-0.402000
 10
2.531000
 20
-0.405000
 10
2.543000
 20
-0.410000
 10
2.554000
 20
-0.416000
 10
2.564000
 20
-0.423000
 10
2.573000
 20
-0.432000
 10
2.581000
 20
-0.441000
 10
2.588000
 20
-0.452000
 10
2.593000
 20
-0.463000
 10
2.597000
 20
-0.475000
 10
2.599000
 20
-0.487000
 10
2.600000
 20
-0.500000
 10
2.599000
 20
-0.513000
 10
2.597000
 20
-0.525000
 10
2.593000
 20
-0.537000
 10
2.588000
 20
-0.548000
 10
2.581000
 20
-0.559000
 10
2.573000
 20
-0.568000
 10
2.564000
 20
-0.577000
 10
2.554000
 20
-0.584000
 10
2.543000
 20
-0.590000
 10
2.531000
 20
-0.595000
 10
2.519000
 20
-0.598000
 10
2.506000
 20
-0.600000
 10
2.494000
 20
-0.600000
 10
2.481000
 20
-0.598000
 10
2.469000
 20
-0.595000
 10
2.457000
 20
-0.590000
 10
2.446000
 20
-0.584000
 10
2.436000
 20
-0.577000
 10
2.427000
 20
-0.568000
 10
2.419000
 20
-0.559000
 10
2.412000
 20
-0.548000
 10
2.407000
 20
-0.537000
 10
2.403000
 20
-0.525000
 10
2.401000
 20
-0.513000
 10
2.400000
 20
-0.500000
  0
LWPOLYLINE
  8
0
  90
51
  70
1
 10
2.400000
 20
0.500000
 10
2.401000
 20
0.513000
 10
2.403000
 20
0.525000
 10
2.407000
 20
0.537000
 10
2.412000
 20
0.548000
 10
2.419000
 20
0.559000
 10
2.427000
 20
0.568000
 10
2.436000
 20
0.577000
 10
2.446000
 20
0.584000
 10
2.457000
 20
0.590000
 10
2.469000
 20
0.595000
 10
2.481000
 20
0.598000
 10
2.494000
 20
0.600000
 10
2.506000
 20
0.600000
 10
2.519000
 20
0.598000
 10
2.531000
 20
0.595000
 10
2.543000
 20
0.590000
 10
2.554000
 20
0.584000
 10
2.564000
 20
0.577000
 10
2.573000
 20
0.568000
 10
2.581000
 20
0.559000
 10
2.588000
 20
0.548000
 10
2.593000
 20
0.537000
 10
2.597000
 20
0.525000
 10
2.599000
 20
0.513000
 10
2.600000
 20
0.500000
 10
2.599000
 20
0.487000
 10
2.597000
 20
0.475000
 10
2.593000
 20
0.463000
 10
2.588000
 20
0.452000
 10
2.581000
 20
0.441000
 10
2.573000
 20
0.432000
 10
2.564000
 20
0.423000
 10
2.554000
 20
0.416000
 10
2.543000
 20
0.410000
 10
2.531000
 20
0.405000
 10
2.519000
 20
0.402000
 10
2.506000
 20
0.400000
 10
2.494000
 20
0.400000
 10
2.481000
 20
0.402000
 10
2.469000
 20
0.405000
 10
2.457000
 20
0.410000
 10
2.446000
 20
0.416000
 10
2.436000
 20
0.423000
 10
2.427000
 20
0.432000
 10
2.419000
 20
0.441000
 10
2.412000
 20
0.452000
 10
2.407000
 20
0.463000
 10
2.403000
 20
0.475000
 10
2.401000
 20
0.487000
 10
2.400000
 20
0.500000
  0
LWPOLYLINE
  8
0
  90
51
  70
1
 10
2.400000
 20
1.500000
 10
2.401000
 20
1.513000
 10
2.403000
 20
1.525000
 10
2.407000
 20
1.537000
 10
2.412000
 20
1.548000
 10
2.419000
 20
1.559000
 10
2.427000
 20
1.568000
 10
2.436000
 20
1.577000
 10
2.446000
 20
1.584000
 10
2.457000
 20
1.590000
 10
2.469000
 20
1.595000
 10
2.481000
 20
1.598000
 10
2.494000
 20
1.600000
 10
2.506000
 20
1.600000
 10
2.519000
 20
1.598000
 10
2.531000
 20
1.595000
 10
2.543000
 20
1.590000
 10
2.554000
 20
1.584000
 10
2.564000
 20
1.577000
 10
2.573000
 20
1.568000
 10
2.581000
 20
1.559000
 10
2.588000
 20
1.548000
 10
2.593000
 20
1.537000
 10
2.597000
 20
1.525000
 10
2.599000
 20
1.513000
 10
2.600000
 20
1.500000
 10
2.599000
 20
1.487000
 10
2.597000
 20
1.475000
 10
2.593000
 20
1.463000
 10
2.588000
 20
1.452000
 10
2.581000
 20
1.441000
 10
2.573000
 20
1.432000
 10
2.564000
 20
1.423000
 10
2.554000
 20
1.416000
 10
2.543000
 20
1.410000
 10
2.531000
 20
1.405000
 10
2.519000
 20
1.402000
 10
2.506000
 20
1.400000
 10
2.494000
 20
1.400000
 10
2.481000
 20
1.402000
 10
2.469000
 20
1.405000
 10
2.457000
 20
1.410000
 10
2.446000
 20
1.416000
 10
2.436000
 20
1.423000
 10
2.427000
 20
1.432000
 10
2.419000
 20
1.441000
 10
2.412000
 20
1.452000
 10
2.407000
 20
1.463000
 10
2.403000
 20
1.475000
 10
2.401000
 20
1.487000
 10
2.400000
 20
1.500000
  0
LWPOLYLINE
  8
0
  90
51
  70
1
 10
3.400000
 20
-1.500000
 10
3.401000
 20
-1.487000
 10
3.403000
 20
-1.475000
 10
3.407000
 20
-1.463000
 10
3.412000
 20
-1.452000
 10
3.419000
 20
-1.441000
 10
3.427000
 20
-1.432000
 10
3.436000
 20
-1.423000
 10
3.446000
 20
-1.416000
 10
3.457000
 20
-1.410000
 10
3.469000
 20
-1.405000
 10
3.481000
 20
-1.402000
 10
3.494000
 20
-1.400000
 10
3.506000
 20
-1.400000
 10
3.519000
 20
-1.402000
 10
3.531000
 20
-1.405000
 10
3.543000
 20
-1.410000
 10
3.554000
 20
-1.416000
 10
3.564000
 20
-1.423000
 10
3.573000
 20
-1.432000
 10
3.581000
 20
-1.441000
 10
3.588000
 20
-1.452000
 10
3.593000
 20
-1.463000
 10
3.597000
 20
-1.475000
 10
3.599000
 20
-1.487000
 10
3.600000
 20
-1.500000
 10
3.599000
 20
-1.513000
 10
3.597000
 20
-1.525000
 10
3.593000
 20
-1.537000
 10
3.588000
 20
-1.548000
 10
3.581000
 20
-1.559000
 10
3.573000
 20
-1.568000
 10
3.564000
 20
-1.577000
 10
3.554000
 20
-1.584000
 10
3.543000
 20
-1.590000
 10
3.531000
 20
-1.595000
 10
3.519000
 20
-1.598000
 10
3.506000
 20
-1.600000
 10
3.494000
 20
-1.600000
 10
3.481000
 20
-1.598000
 10
3.469000
 20
-1.595000
 10
3.457000
 20
-1.590000
 10
3.446000
 20
-1.584000
 10
3.436000
 20
-1.577000
 10
3.427000
 20
-1.568000
 10
3.419000
 20
-1.559000
 10
3.412000
 20
-1.548000
 10
3.407000
 20
-1.537000
 10
3.403000
 20
-1.525000
 10
3.401000
 20
-1.513000
 10
3.400000
 20
-1.500000
  0
LWPOLYLINE
  8
0
  90
51
  70
1
 10
3.400000
 20
-0.500000
 10
3.401000
 20
-0.487000
 10
3.403000
 20
-0.475000
 10
3.407000
 20
-0.463000
 10
3.412000
 20
-0.452000
 10
3.419000
 20
-0.441000
 10
3.427000
 20
-0.432000
 10
3.436000
 20
-0.423000
 10
3.446000
 20
-0.416000
 10
3.457000
 20
-0.410000
 10
3.469000
 20
-0.405000
 10
3.481000
 20
-0.402000
 10
3.494000
 20
-0.400000
 10
3.506000
 20
-0.400000
 10
3.519000
 20
-0.402000
 10
3.531000
 20
-0.405000
 10
3.543000
 20
-0.410000
 10
3.554000
 20
-0.416000
 10
3.564000
 20
-0.423000
 10
3.573000
 20
-0.432000
 10
3.581000
 20
-0.441000
 10
3.588000
 20
-0.452000
 10
3.593000
 20
-0.463000
 10
3.597000
 20
-0.475000
 10
3.599000
 20
-0.487000
 10
3.600000
 20
-0.500000
 10
3.599000
 20
-0.513000
 10
3.597000
 20
-0.525000
 10
3.593000
 20
-0.537000
 10
3.588000
 20
-0.548000
 10
3.581000
 20
-0.559000
 10
3.573000
 20
-0.568000
 10
3.564000
 20
-0.577000
 10
3.554000
 20
-0.584000
 10
3.543000
 20
-0.590000
 10
3.531000
 20
-0.595000
 10
3.519000
 20
-0.598000
 10
3.506000
 20
-0.600000
 10
3.494000
 20
-0.600000
 10
3.481000
 20
-0.598000
 10
3.469000
 20
-0.595000
 10
3.457000
 20
-0.590000
 10
3.446000
 20
-0.584000
 10
3.436000
 20
-0.577000
 10
3.427000
 20
-0.568000
 10
3.419000
 20
-0.559000
 10
3.412000
 20
-0.548000
 10
3.407000
 20
-0.537000
 10
3.403000
 20
-0.525000
 10
3.401000
 20
-0.513000
 10
3.400000
 20
-0.500000
  0
LWPOLYLINE
  8
0
  90
51
  70
1
 10
3.400000
 20
0.500000
 10
3.401000
 20
0.513000
 10
3.403000
 20
0.525000
 10
3.407000
 20
0.537000
 10
3.412000
 20
0.548000
 10
3.419000
 20
0.559000
 10
3.427000
 20
0.568000
 10
3.436000
 20
0.577000
 10
3.446000
 20
0.584000
 10
3.457000
 20
0.590000
 10
3.469000
 20
0.595000
 10
3.481000
 20
0.598000
 10
3.494000
 20
0.600000
 10
3.506000
 20
0.600000
 10
3.519000
 20
0.598000
 10
3.531000
 20
0.595000
 10
3.543000
 20
0.590000
 10
3.554000
 20
0.584000
 10
3.564000
 20
0.577000
 10
3.573000
 20
0.568000
 10
3.581000
 20
0.559000
 10
3.588000
 20
0.548000
 10
3.593000
 20
0.537000
 10
3.597000
 20
0.525000
 10
3.599000
 20
0.513000
 10
3.600000
 20
0.500000
 10
3.599000
 20
0.487000
 10
3.597000
 20
0.475000
 10
3.593000
 20
0.463000
 10
3.588000
 20
0.452000
 10
3.581000
 20
0.441000
 10
3.573000
 20
0.432000
 10
3.564000
 20
0.423000
 10
3.554000
 20
0.416000
 10
3.543000
 20
0.410000
 10
3.531000
 20
0.405000
 10
3.519000
 20
0.402000
 10
3.506000
 20
0.400000
 10
3.494000
 20
0.400000
 10
3.481000
 20
0.402000
 10
3.469000
 20
0.405000
 10
3.457000
 20
0.410000
 10
3.446000
 20
0.416000
 10
3.436000
 20
0.423000
 10
3.427000
 20
0.432000
 10
3.419000
 20
0.441000
 10
3.412000
 20
0.452000
 10
3.407000
 20
0.463000
 10
3.403000
 20
0.475000
 10
3.401000
 20
0.487000
 10
3.400000
 20
0.500000
  0
LWPOLYLINE
  8
0
  90
51
  70
1
 10
3.400000
 20
1.500000
 10
3.401000
 20
1.513000
 10
3.403000
 20
1.525000
 10
3.407000
 20
1.537000
 10
3.412000
 20
1.548000
 10
3.419000
 20
1.559000
 10
3.427000
 20
1.568000
 10
3.436000
 20
1.577000
 10
3.446000
 20
1.584000
 10
3.457000
 20
1.590000
 10
3.469000
 20
1.595000
 10
3.481000
 20
1.598000
 10
3.494000
 20
1.600000
 10
3.506000
 20
1.600000
 10
3.519000
 20
1.598000
 10
3.531000
 20
1.595000
 10
3.543000
 20
1.590000
 10
3.554000
 20
1.584000
 10
3.564000
 20
1.577000
 10
3.573000
 20
1.568000
 10
3.581000
 20
1.559000
 10
3.588000
 20
1.548000
 10
3.593000
 20
1.537000
 10
3.597000
 20
1.525000
 10
3.599000
 20
1.513000
 10
3.600000
 20
1.500000
 10
3.599000
 20
1.487000
 10
3.597000
 20
1.475000
 10
3.593000
 20
1.463000
 10
3.588000
 20
1.452000
 10
3.581000
 20
1.441000
 10
3.573000
 20
1.432000
 10
3.564000
 20
1.423000
 10
3.554000
 20
1.416000
 10
3.543000
 20
1.410000
 10
3.531000
 20
1.405000
 10
3.519000
 20
1.402000
 10
3.506000
 20
1.400000
 10
3.494000
 20
1.400000
 10
3.481000
 20
1.402000
 10
3.469000
 20
1.405000
 10
3.457000
 20
1.410000
 10
3.446000
 20
1.416000
 10
3.436000
 20
1.423000
 10
3.427000
 20
1.432000
 10
3.419000
 20
1.441000
 10
3.412000
 20
1.452000
 10
3.407000
 20
1.463000
 10
3.403000
 20
1.475000
 10
3.401000
 20
1.487000
 10
3.400000
 20
1.500000
  0
ENDSEC
  0
SECTION
  2
OBJECTS
  0
DICTIONARY
  0
ENDSEC
  0
EOF
