999
dxflib 2.0.4.8
  0
SECTION
  2
HEADER
  9
$ACADVER
  1
AC1015
  9
$HANDSEED
  5
FFFF
  9
$USERR4
 40
0.0
  9
$DIMTDEC
 70
4
  9
$DIMTAD
 70
0
  9
$CMLSTYLE
  2
STANDARD
  9
$VISRETAIN
 70
0
  9
$TILEMODE
 70
1
  9
$SHADEDIF
 70
70
  9
$USERR5
 40
0.0
  9
$UCSYDIR
 10
0.0
 20
1.0
 30
0.0
  9
$ATTREQ
 70
1
  9
$CHAMFERA
 40
0.0
  9
$MENU
  1
acad
  9
$DIMUNIT
 70
2
  9
$DIMALTZ
 70
0
  9
$DELOBJ
 70
1
  9
$CLAYER
  8
0
  9
$UCSXDIR
 10
1.0
 20
0.0
 30
0.0
  9
$CHAMFERB
 40
0.0
  9
$DIMUPT
 70
0
  9
$DIMASZ
 40
0.18
  9
$TRACEWID
 40
0.05
  9
$REGENMODE
 70
1
  9
$ORTHOMODE
 70
0
  9
$EXTMIN
 10
-0.018681
 20
-0.016643
 30
0.0
  9
$CMLJUST
 70
0
  9
$PICKSTYLE
 70
1
  9
$PUCSYDIR
 10
0.0
 20
1.0
 30
0.0
  9
$ANGBASE
 50
0.0
  9
$USRTIMER
 70
1
  9
$CHAMFERC
 40
0.0
  9
$SKETCHINC
 40
0.1
  9
$DIMGAP
 40
0.09
  9
$DIMTFAC
 40
1.0
  9
$DIMSAH
 70
0
  9
$DIMALT
 70
0
  9
$DIMSHO
 70
1
  9
$PUCSXDIR
 10
1.0
 20
0.0
 30
0.0
  9
$SURFTYPE
 70
6
  9
$SPLFRAME
 70
0
  9
$CHAMFERD
 40
0.0
  9
$DIMALTTD
 70
2
  9
$DIMTSZ
 40
0.0
  9
$LIMMIN
 10
0.0
 20
0.0
  9
$SURFTAB1
 70
6
  9
$SPLINESEGS
 70
8
  9
$BLIPMODE
 70
1
  9
$AUPREC
 70
1
  9
$LUNITS
 70
2
  9
$DWGCODEPAGE
  3
dos850
  9
$UNITMODE
 70
0
  9
$USERI1
 70
0
  9
$SURFTAB2
 70
6
  9
$SKPOLY
 70
0
  9
$ELEVATION
 40
0.0
  9
$DIMCEN
 40
0.09
  9
$DIMRND
 40
0.0
  9
$INSBASE
 10
0.0
 20
0.0
 30
0.0
  9
$USERI2
 70
0
  9
$UCSORG
 10
0.0
 20
0.0
 30
0.0
  9
$PELEVATION
 40
0.0
  9
$DIMEXO
 40
0.0625
  9
$TEXTSIZE
 40
0.2
  9
$DRAGMODE
 70
2
  9
$FILLMODE
 70
1
  9
$EXTMAX
 10
1.018581
 20
2.1422539999999999
 30
0.0
  9
$INSUNITS
 70
4
  9
$USERI3
 70
0
  9
$SURFU
 70
6
  9
$ANGDIR
 70
0
  9
$TDUSRTIMER
 40
0.0128438657
  9
$DIMTZIN
 70
0
  9
$DIMTOLJ
 70
1
  9
$DIMZIN
 70
0
  9
$DIMDLE
 40
0.0
  9
$DIMSCALE
 40
1.0
  9
$WORLDVIEW
 70
1
  9
$USERI4
 70
0
  9
$SURFV
 70
6
  9
$DIMALTTZ
 70
0
  9
$DIMJUST
 70
0
  9
$OSMODE
 70
0
  9
$QTEXTMODE
 70
0
  9
$LIMMAX
 10
12.0
 20
9.0
  9
$USERI5
 70
0
  9
$HANDLING
 70
1
  9
$PDMODE
 70
0
  9
$LIMCHECK
 70
0
  9
$THICKNESS
 40
0.0
  9
$DIMSE1
 70
0
  9
$DIMLIM
 70
0
  9
$DIMTXT
 40
0.18
  9
$ATTMODE
 70
1
  9
$PEXTMAX
 10
-100000000000000000000.0
 20
-100000000000000000000.0
 30
-100000000000000000000.0
  9
$PEXTMIN
 10
100000000000000000000.0
 20
100000000000000000000.0
 30
100000000000000000000.0
  9
$PUCSORG
 10
0.0
 20
0.0
 30
0.0
  9
$SPLINETYPE
 70
6
  9
$TDINDWG
 40
0.0128438657
  9
$LUPREC
 70
3
  9
$DIMSOXD
 70
0
  9
$DIMLFAC
 40
1.0
  9
$DIMSE2
 70
0
  9
$DIMTOH
 70
1
  9
$CELTYPE
  6
BYLAYER
  9
$PLIMCHECK
 70
0
  9
$PLINEWID
 40
0.0
  9
$DIMSTYLE
  2
STANDARD
  9
$DIMTVP
 40
0.0
  9
$DIMASO
 70
1
  9
$DIMTM
 40
0.0
  9
$DIMDLI
 40
0.38
  9
$DISPSILH
 70
0
  9
$CECOLOR
 62
256
  9
$TREEDEPTH
 70
3020
  9
$PLIMMAX
 10
12.0
 20
9.0
  9
$PLIMMIN
 10
0.0
 20
0.0
  9
$MAXACTVP
 70
16
  9
$TDUPDATE
 40
2448988.4918348379433155
  9
$FILLETRAD
 40
0.0
  9
$DIMALTU
 70
2
  9
$DIMDEC
 70
4
  9
$DIMCLRT
 70
0
  9
$DIMALTD
 70
2
  9
$DIMTIH
 70
1
  9
$LTSCALE
 40
1.0
  9
$CMLSCALE
 40
1.0
  9
$PINSBASE
 10
0.0
 20
0.0
 30
0.0
  9
$USERR1
 40
0.0
  9
$ATTDIA
 70
0
  9
$PDSIZE
 40
0.0
  9
$DIMTXSTY
  7
STANDARD
  9
$DIMCLRD
 70
0
  9
$DIMEXE
 40
0.18
  9
$CELTSCALE
 40
1.0
  9
$SAVEIMAGES
 70
0
  9
$PSLTSCALE
 70
0
  9
$PLINEGEN
 70
0
  9
$SHADEDGE
 70
3
  9
$USERR2
 40
0.0
  9
$COORDS
 70
2
  9
$TDCREATE
 40
2448761.656516551040113
  9
$DIMAUNIT
 70
0
  9
$DIMFIT
 70
3
  9
$DIMSD1
 70
0
  9
$DIMCLRE
 70
0
  9
$DIMTOFL
 70
0
  9
$DIMALTF
 40
25.3999999999999986
  9
$DIMTOL
 70
0
  9
$DIMTP
 40
0.0
  9
$TEXTSTYLE
  7
STANDARD
  9
$USERR3
 40
0.0
  9
$AUNITS
 70
0
  9
$DIMSD2
 70
0
  9
$DIMTIX
 70
0
  9
$MIRRTEXT
 70
1
  0
ENDSEC
  0
SECTION
  2
TABLES
  0
TABLE
  2
VPORT
  5
8
100
AcDbSymbolTable
 70
1
  0
VPORT
  5
30
100
AcDbSymbolTableRecord
100
AcDbViewportTableRecord
  2
*Active
 70
0
 10
0.0
 20
0.0
 11
1.0
 21
1.0
 12
286.3055555555554861
 22
148.5
 13
0.0
 23
0.0
 14
10.0
 24
10.0
 15
10.0
 25
10.0
 16
0.0
 26
0.0
 36
1.0
 17
0.0
 27
0.0
 37
0.0
 40
297.0
 41
1.92798353909465
 42
50.0
 43
0.0
 44
0.0
 50
0.0
 51
0.0
 71
0
 72
100
 73
1
 74
3
 75
1
 76
1
 77
0
 78
0
281
0
 65
1
110
0.0
120
0.0
130
0.0
111
1.0
121
0.0
131
0.0
112
0.0
122
1.0
132
0.0
 79
0
146
0.0
  0
ENDTAB
  0
TABLE
  2
LTYPE
  5
5
100
AcDbSymbolTable
 70
21
  0
LTYPE
  5
14
100
AcDbSymbolTableRecord
100
AcDbLinetypeTableRecord
  2
ByBlock
 70
0
  3

 72
65
 73
0
 40
0.0
  0
LTYPE
  5
15
100
AcDbSymbolTableRecord
100
AcDbLinetypeTableRecord
  2
ByLayer
 70
0
  3

 72
65
 73
0
 40
0.0
  0
LTYPE
  5
16
100
AcDbSymbolTableRecord
100
AcDbLinetypeTableRecord
  2
CONTINUOUS
 70
0
  3
Solid line
 72
65
 73
0
 40
0.0
  0
LTYPE
  5
31
100
AcDbSymbolTableRecord
100
AcDbLinetypeTableRecord
  2
DOT
 70
0
  3
Dot . . . . . . . . . . . . . . . . . . . . . .
 72
65
 73
2
 40
6.3499999999999996
 49
0.0
 74
0
 49
-6.3499999999999996
 74
0
  0
LTYPE
  5
32
100
AcDbSymbolTableRecord
100
AcDbLinetypeTableRecord
  2
DOT2
 70
0
  3
Dot (.5x) .....................................
 72
65
 73
2
 40
3.1749999999999998
 49
0.0
 74
0
 49
-3.1749999999999998
 74
0
  0
LTYPE
  5
33
100
AcDbSymbolTableRecord
100
AcDbLinetypeTableRecord
  2
DOTX2
 70
0
  3
Dot (2x) .  .  .  .  .  .  .  .  .  .  .  .  .
 72
65
 73
2
 40
12.6999999999999993
 49
0.0
 74
0
 49
-12.6999999999999993
 74
0
  0
LTYPE
  5
34
100
AcDbSymbolTableRecord
100
AcDbLinetypeTableRecord
  2
DASHED
 70
0
  3
Dashed __ __ __ __ __ __ __ __ __ __ __ __ __ _
 72
65
 73
2
 40
19.0500000000000007
 49
12.6999999999999993
 74
0
 49
-6.3499999999999996
 74
0
  0
LTYPE
  5
35
100
AcDbSymbolTableRecord
100
AcDbLinetypeTableRecord
  2
DASHED2
 70
0
  3
Dashed (.5x) _ _ _ _ _ _ _ _ _ _ _ _ _ _ _ _ _
 72
65
 73
2
 40
9.5250000000000004
 49
6.3499999999999996
 74
0
 49
-3.1749999999999998
 74
0
  0
LTYPE
  5
36
100
AcDbSymbolTableRecord
100
AcDbLinetypeTableRecord
  2
DASHEDX2
 70
0
  3
Dashed (2x) ____  ____  ____  ____  ____  ___
 72
65
 73
2
 40
38.1000000000000014
 49
25.3999999999999986
 74
0
 49
-12.6999999999999993
 74
0
  0
LTYPE
  5
37
100
AcDbSymbolTableRecord
100
AcDbLinetypeTableRecord
  2
DASHDOT
 70
0
  3
Dash dot __ . __ . __ . __ . __ . __ . __ . __
 72
65
 73
4
 40
25.3999999999999986
 49
12.6999999999999993
 74
0
 49
-6.3499999999999996
 74
0
 49
0.0
 74
0
 49
-6.3499999999999996
 74
0
  0
LTYPE
  5
38
100
AcDbSymbolTableRecord
100
AcDbLinetypeTableRecord
  2
DASHDOT2
 70
0
  3
Dash dot (.5x) _._._._._._._._._._._._._._._.
 72
65
 73
4
 40
12.6999999999999993
 49
6.3499999999999996
 74
0
 49
-3.1749999999999998
 74
0
 49
0.0
 74
0
 49
-3.1749999999999998
 74
0
  0
LTYPE
  5
39
100
AcDbSymbolTableRecord
100
AcDbLinetypeTableRecord
  2
DASHDOTX2
 70
0
  3
Dash dot (2x) ____  .  ____  .  ____  .  ___
 72
65
 73
4
 40
50.7999999999999972
 49
25.3999999999999986
 74
0
 49
-12.6999999999999993
 74
0
 49
0.0
 74
0
 49
-12.6999999999999993
 74
0
  0
LTYPE
  5
3A
100
AcDbSymbolTableRecord
100
AcDbLinetypeTableRecord
  2
DIVIDE
 70
0
  3
Divide ____ . . ____ . . ____ . . ____ . . ____
 72
65
 73
6
 40
31.75
 49
12.6999999999999993
 74
0
 49
-6.3499999999999996
 74
0
 49
0.0
 74
0
 49
-6.3499999999999996
 74
0
 49
0.0
 74
0
 49
-6.3499999999999996
 74
0
  0
LTYPE
  5
3B
100
AcDbSymbolTableRecord
100
AcDbLinetypeTableRecord
  2
DIVIDE2
 70
0
  3
Divide (.5x) __..__..__..__..__..__..__..__.._
 72
65
 73
6
 40
15.875
 49
6.3499999999999996
 74
0
 49
-3.1749999999999998
 74
0
 49
0.0
 74
0
 49
-3.1749999999999998
 74
0
 49
0.0
 74
0
 49
-3.1749999999999998
 74
0
  0
LTYPE
  5
3C
100
AcDbSymbolTableRecord
100
AcDbLinetypeTableRecord
  2
DIVIDEX2
 70
0
  3
Divide (2x) ________  .  .  ________  .  .  _
 72
65
 73
6
 40
63.5
 49
25.3999999999999986
 74
0
 49
-12.6999999999999993
 74
0
 49
0.0
 74
0
 49
-12.6999999999999993
 74
0
 49
0.0
 74
0
 49
-12.6999999999999993
 74
0
  0
LTYPE
  5
3D
100
AcDbSymbolTableRecord
100
AcDbLinetypeTableRecord
  2
CENTER
 70
0
  3
Center ____ _ ____ _ ____ _ ____ _ ____ _ ____
 72
65
 73
4
 40
50.7999999999999972
 49
31.75
 74
0
 49
-6.3499999999999996
 74
0
 49
6.3499999999999996
 74
0
 49
-6.3499999999999996
 74
0
  0
LTYPE
  5
3E
100
AcDbSymbolTableRecord
100
AcDbLinetypeTableRecord
  2
CENTER2
 70
0
  3
Center (.5x) ___ _ ___ _ ___ _ ___ _ ___ _ ___
 72
65
 73
4
 40
28.5749999999999993
 49
19.0500000000000007
 74
0
 49
-3.1749999999999998
 74
0
 49
3.1749999999999998
 74
0
 49
-3.1749999999999998
 74
0
  0
LTYPE
  5
3F
100
AcDbSymbolTableRecord
100
AcDbLinetypeTableRecord
  2
CENTERX2
 70
0
  3
Center (2x) ________  __  ________  __  _____
 72
65
 73
4
 40
101.5999999999999943
 49
63.5
 74
0
 49
-12.6999999999999993
 74
0
 49
12.6999999999999993
 74
0
 49
-12.6999999999999993
 74
0
  0
LTYPE
  5
40
100
AcDbSymbolTableRecord
100
AcDbLinetypeTableRecord
  2
BORDER
 70
0
  3
Border __ __ . __ __ . __ __ . __ __ . __ __ .
 72
65
 73
6
 40
44.4500000000000028
 49
12.6999999999999993
 74
0
 49
-6.3499999999999996
 74
0
 49
12.6999999999999993
 74
0
 49
-6.3499999999999996
 74
0
 49
0.0
 74
0
 49
-6.3499999999999996
 74
0
  0
LTYPE
  5
41
100
AcDbSymbolTableRecord
100
AcDbLinetypeTableRecord
  2
BORDER2
 70
0
  3
Border (.5x) __.__.__.__.__.__.__.__.__.__.__.
 72
65
 73
6
 40
22.2250000000000014
 49
6.3499999999999996
 74
0
 49
-3.1749999999999998
 74
0
 49
6.3499999999999996
 74
0
 49
-3.1749999999999998
 74
0
 49
0.0
 74
0
 49
-3.1749999999999998
 74
0
  0
LTYPE
  5
42
100
AcDbSymbolTableRecord
100
AcDbLinetypeTableRecord
  2
BORDERX2
 70
0
  3
Border (2x) ____  ____  .  ____  ____  .  ___
 72
65
 73
6
 40
88.9000000000000057
 49
25.3999999999999986
 74
0
 49
-12.6999999999999993
 74
0
 49
25.3999999999999986
 74
0
 49
-12.6999999999999993
 74
0
 49
0.0
 74
0
 49
-12.6999999999999993
 74
0
  0
ENDTAB
  0
TABLE
  2
LAYER
  5
2
100
AcDbSymbolTable
 70
1
  0
LAYER
  5
10
100
AcDbSymbolTableRecord
100
AcDbLayerTableRecord
  2
0
 70
0
 62
7
  6
CONTINUOUS
390
F
  0
ENDTAB
  0
TABLE
  2
STYLE
  5
3
100
AcDbSymbolTable
 70
1
  0
STYLE
  5
11
100
AcDbSymbolTableRecord
100
AcDbTextStyleTableRecord
  2
Standard
 70
0
 40
0.0
 41
0.75
 50
0.0
 71
0
 42
2.5
  3
txt
  4

  0
ENDTAB
  0
TABLE
  2
VIEW
  5
6
100
AcDbSymbolTable
 70
0
  0
ENDTAB
  0
TABLE
  2
UCS
  5
7
100
AcDbSymbolTable
 70
0
  0
ENDTAB
  0
TABLE
  2
APPID
  5
9
100
AcDbSymbolTable
 70
1
  0
APPID
  5
12
100
AcDbSymbolTableRecord
100
AcDbRegAppTableRecord
  2
ACAD
 70
0
  0
ENDTAB
  0
TABLE
  2
DIMSTYLE
  5
A
100
AcDbSymbolTable
 70
1
100
AcDbDimStyleTable
 71
0
  0
DIMSTYLE
105
27
100
AcDbSymbolTableRecord
100
AcDbDimStyleTableRecord
  2
Standard
 41
0.18
 42
0.0625
 43
3.75
 44
0.18
 70
0
 73
0
 74
0
 77
1
 78
8
140
0.18
141
2.5
143
0.03937007874016
147
0.09
171
3
172
1
271
2
272
2
274
3
278
44
283
0
284
8
340
11
  0
ENDTAB
  0
TABLE
  2
BLOCK_RECORD
  5
1
100
AcDbSymbolTable
 70
1
  0
BLOCK_RECORD
  5
1F
100
AcDbSymbolTableRecord
100
AcDbBlockTableRecord
  2
*Model_Space
340
22
  0
BLOCK_RECORD
  5
1B
100
AcDbSymbolTableRecord
100
AcDbBlockTableRecord
  2
*Paper_Space
340
1E
  0
BLOCK_RECORD
  5
23
100
AcDbSymbolTableRecord
100
AcDbBlockTableRecord
  2
*Paper_Space0
340
26
  0
ENDTAB
  0
ENDSEC
  0
SECTION
  2
BLOCKS
  0
BLOCK
  5
20
100
AcDbEntity
  8
0
100
AcDbBlockBegin
  2
*Model_Space
 70
0
 10
0.0
 20
0.0
 30
0.0
  3
*Model_Space
  1

  0
ENDBLK
  5
21
100
AcDbEntity
  8
0
100
AcDbBlockEnd
  0
BLOCK
  5
1C
100
AcDbEntity
 67
1
  8
0
100
AcDbBlockBegin
  2
*Paper_Space
 70
0
 10
0.0
 20
0.0
 30
0.0
  3
*Paper_Space
  1

  0
ENDBLK
  5
1D
100
AcDbEntity
 67
1
  8
0
100
AcDbBlockEnd
  0
BLOCK
  5
24
100
AcDbEntity
  8
0
100
AcDbBlockBegin
  2
*Paper_Space0
 70
0
 10
0.0
 20
0.0
 30
0.0
  3
*Paper_Space0
  1

  0
ENDBLK
  5
25
100
AcDbEntity
  8
0
100
AcDbBlockEnd
  0
ENDSEC
  0
SECTION
  2
ENTITIES
  0
ARC
  5
43
100
AcDbEntity
  8
0
 62
256
370
-1
  6
CONTINUOUS
100
AcDbCircle
 10
0.5000052985730655
 20
-0.3959977014269343
 30
0.0
 40
0.02
100
AcDbArc
 50
90.0011369999999999
 51
270.0011289999999917
  0
LINE
  5
44
100
AcDbEntity
100
AcDbLine
  8
0
 62
256
370
-1
  6
CONTINUOUS
 10
0.5000052985730655
 20
-0.4159977014269343
 30
0.0
 11
0.5000052985730655
 21
-0.4166637014269344
 31
0.0
  0
ARC
  5
45
100
AcDbEntity
  8
0
 62
256
370
-1
  6
CONTINUOUS
100
AcDbCircle
 10
0.4166712985730656
 20
-0.4166637014269344
 30
0.0
 40
0.083333
100
AcDbArc
 50
270.0
 51
0.00001
  0
LINE
  5
46
100
AcDbEntity
100
AcDbLine
  8
0
 62
256
370
-1
  6
CONTINUOUS
 10
0.4166712985730656
 20
-0.4999977014269344
 30
0.0
 11
0.4160052985730656
 21
-0.4999977014269344
 31
0.0
  0
ARC
  5
47
100
AcDbEntity
  8
0
 62
256
370
-1
  6
CONTINUOUS
100
AcDbCircle
 10
0.3960032985730656
 20
-0.4999977014269344
 30
0.0
 40
0.02
100
AcDbArc
 50
0.0
 51
180.0
  0
LINE
  5
48
100
AcDbEntity
100
AcDbLine
  8
0
 62
256
370
-1
  6
CONTINUOUS
 10
0.3760042985730656
 20
-0.4999977014269344
 30
0.0
 11
0.3333382985730655
 21
-0.4999977014269344
 31
0.0
  0
LINE
  5
49
100
AcDbEntity
100
AcDbLine
  8
0
 62
256
370
-1
  6
CONTINUOUS
 10
0.3333382985730655
 20
-0.4999977014269344
 30
0.0
 11
0.2493262985730656
 21
-0.4970637014269343
 31
0.0
  0
ARC
  5
4A
100
AcDbEntity
  8
0
 62
256
370
-1
  6
CONTINUOUS
100
AcDbCircle
 10
0.2293372985730656
 20
-0.4963657014269343
 30
0.0
 40
0.02
100
AcDbArc
 50
358.0
 51
178.0
  0
ARC
  5
4B
100
AcDbEntity
  8
0
 62
256
370
-1
  6
CONTINUOUS
100
AcDbCircle
 10
-0.2293327014269344
 20
-0.4963657014269343
 30
0.0
 40
0.02
100
AcDbArc
 50
2.0
 51
181.9999850000000094
  0
LINE
  5
4C
100
AcDbEntity
100
AcDbLine
  8
0
 62
256
370
-1
  6
CONTINUOUS
 10
-0.2493197014269344
 20
-0.4970637014269343
 30
0.0
 11
-0.3333317014269345
 21
-0.4999977014269344
 31
0.0
  0
LINE
  5
4D
100
AcDbEntity
100
AcDbLine
  8
0
 62
256
370
-1
  6
CONTINUOUS
 10
-0.3333317014269345
 20
-0.4999977014269344
 30
0.0
 11
-0.3760007014269344
 21
-0.4999977014269344
 31
0.0
  0
ARC
  5
4E
100
AcDbEntity
  8
0
 62
256
370
-1
  6
CONTINUOUS
100
AcDbCircle
 10
-0.3959997014269344
 20
-0.4999977014269344
 30
0.0
 40
0.02
100
AcDbArc
 50
0.0
 51
180.0
  0
LINE
  5
4F
100
AcDbEntity
100
AcDbLine
  8
0
 62
256
370
-1
  6
CONTINUOUS
 10
-0.4159987014269344
 20
-0.4999977014269344
 30
0.0
 11
-0.4166647014269345
 21
-0.4999977014269344
 31
0.0
  0
ARC
  5
50
100
AcDbEntity
  8
0
 62
256
370
-1
  6
CONTINUOUS
100
AcDbCircle
 10
-0.4166647014269345
 20
-0.4166637014269344
 30
0.0
 40
0.083333
100
AcDbArc
 50
180.0
 51
270.0
  0
LINE
  5
51
100
AcDbEntity
100
AcDbLine
  8
0
 62
256
370
-1
  6
CONTINUOUS
 10
-0.4999987014269345
 20
-0.4166637014269344
 30
0.0
 11
-0.4999987014269345
 21
-0.4159977014269343
 31
0.0
  0
ARC
  5
52
100
AcDbEntity
  8
0
 62
256
370
-1
  6
CONTINUOUS
100
AcDbCircle
 10
-0.4999987014269345
 20
-0.3959977014269343
 30
0.0
 40
0.02
100
AcDbArc
 50
270.0
 51
90.000007999999994
  0
LINE
  5
53
100
AcDbEntity
100
AcDbLine
  8
0
 62
256
370
-1
  6
CONTINUOUS
 10
-0.4999987014269345
 20
-0.3759977014269344
 30
0.0
 11
-0.4999987014269345
 21
-0.3333307014269344
 31
0.0
  0
LINE
  5
54
100
AcDbEntity
100
AcDbLine
  8
0
 62
256
370
-1
  6
CONTINUOUS
 10
-0.4999987014269345
 20
-0.3333307014269344
 30
0.0
 11
-0.4970637014269345
 21
-0.2493177014269344
 31
0.0
  0
ARC
  5
55
100
AcDbEntity
  8
0
 62
256
370
-1
  6
CONTINUOUS
100
AcDbCircle
 10
-0.4963667014269345
 20
-0.2293307014269343
 30
0.0
 40
0.02
100
AcDbArc
 50
268.0
 51
88.0
  0
ARC
  5
56
100
AcDbEntity
  8
0
 62
256
370
-1
  6
CONTINUOUS
100
AcDbCircle
 10
-0.4963667014269345
 20
0.2293382985730657
 30
0.0
 40
0.02
100
AcDbArc
 50
272.0
 51
91.999992000000006
  0
LINE
  5
57
100
AcDbEntity
100
AcDbLine
  8
0
 62
256
370
-1
  6
CONTINUOUS
 10
-0.4970637014269345
 20
0.2493272985730657
 30
0.0
 11
-0.4999987014269345
 21
0.3333382985730657
 31
0.0
  0
LINE
  5
58
100
AcDbEntity
100
AcDbLine
  8
0
 62
256
370
-1
  6
CONTINUOUS
 10
-0.4999987014269345
 20
0.3333382985730657
 30
0.0
 11
-0.4999987014269345
 21
0.3760052985730657
 31
0.0
  0
ARC
  5
59
100
AcDbEntity
  8
0
 62
256
370
-1
  6
CONTINUOUS
100
AcDbCircle
 10
-0.4999987014269345
 20
0.3960042985730657
 30
0.0
 40
0.02
100
AcDbArc
 50
270.0
 51
90.000007999999994
  0
LINE
  5
5A
100
AcDbEntity
100
AcDbLine
  8
0
 62
256
370
-1
  6
CONTINUOUS
 10
-0.4999987014269345
 20
0.4160042985730657
 30
0.0
 11
-0.4999987014269345
 21
0.4166702985730655
 31
0.0
  0
ARC
  5
5B
100
AcDbEntity
  8
0
 62
256
370
-1
  6
CONTINUOUS
100
AcDbCircle
 10
-0.4166647014269345
 20
0.4166702985730655
 30
0.0
 40
0.083333
100
AcDbArc
 50
90.0011369999999999
 51
180.0011440000000107
  0
LINE
  5
5C
100
AcDbEntity
100
AcDbLine
  8
0
 62
256
370
-1
  6
CONTINUOUS
 10
-0.4166647014269345
 20
0.5000022985730657
 30
0.0
 11
-0.4159987014269344
 21
0.5000022985730657
 31
0.0
  0
ARC
  5
5D
100
AcDbEntity
  8
0
 62
256
370
-1
  6
CONTINUOUS
100
AcDbCircle
 10
-0.3959997014269344
 20
0.5000022985730657
 30
0.0
 40
0.02
100
AcDbArc
 50
180.0
 51
0.0
  0
LINE
  5
5E
100
AcDbEntity
100
AcDbLine
  8
0
 62
256
370
-1
  6
CONTINUOUS
 10
-0.3760007014269344
 20
0.5000022985730657
 30
0.0
 11
-0.3333317014269345
 21
0.5000022985730657
 31
0.0
  0
LINE
  5
5F
100
AcDbEntity
100
AcDbLine
  8
0
 62
256
370
-1
  6
CONTINUOUS
 10
-0.3333317014269345
 20
0.5000022985730657
 30
0.0
 11
-0.2493197014269344
 21
0.4970692985730656
 31
0.0
  0
ARC
  5
60
100
AcDbEntity
  8
0
 62
256
370
-1
  6
CONTINUOUS
100
AcDbCircle
 10
-0.2293327014269344
 20
0.4963712985730656
 30
0.0
 40
0.02
100
AcDbArc
 50
178.0
 51
358.0
  0
ARC
  5
61
100
AcDbEntity
  8
0
 62
256
370
-1
  6
CONTINUOUS
100
AcDbCircle
 10
0.2293372985730656
 20
0.4963712985730656
 30
0.0
 40
0.02
100
AcDbArc
 50
182.0
 51
1.9999990000000001
  0
LINE
  5
62
100
AcDbEntity
100
AcDbLine
  8
0
 62
256
370
-1
  6
CONTINUOUS
 10
0.2493262985730656
 20
0.4970692985730656
 30
0.0
 11
0.3333382985730655
 21
0.5000022985730657
 31
0.0
  0
LINE
  5
63
100
AcDbEntity
100
AcDbLine
  8
0
 62
256
370
-1
  6
CONTINUOUS
 10
0.3333382985730655
 20
0.5000022985730657
 30
0.0
 11
0.3760042985730656
 21
0.5000022985730657
 31
0.0
  0
ARC
  5
64
100
AcDbEntity
  8
0
 62
256
370
-1
  6
CONTINUOUS
100
AcDbCircle
 10
0.3960032985730656
 20
0.5000022985730657
 30
0.0
 40
0.02
100
AcDbArc
 50
180.0
 51
0.0
  0
LINE
  5
65
100
AcDbEntity
100
AcDbLine
  8
0
 62
256
370
-1
  6
CONTINUOUS
 10
0.4160052985730656
 20
0.5000022985730657
 30
0.0
 11
0.4166712985730656
 21
0.5000022985730657
 31
0.0
  0
ARC
  5
66
100
AcDbEntity
  8
0
 62
256
370
-1
  6
CONTINUOUS
100
AcDbCircle
 10
0.4166712985730656
 20
0.4166702985730655
 30
0.0
 40
0.083333
100
AcDbArc
 50
0.0
 51
90.0
  0
LINE
  5
67
100
AcDbEntity
100
AcDbLine
  8
0
 62
256
370
-1
  6
CONTINUOUS
 10
0.5000052985730655
 20
0.4166702985730655
 30
0.0
 11
0.5000052985730655
 21
0.4160042985730657
 31
0.0
  0
ARC
  5
68
100
AcDbEntity
  8
0
 62
256
370
-1
  6
CONTINUOUS
100
AcDbCircle
 10
0.5000052985730655
 20
0.3960042985730657
 30
0.0
 40
0.02
100
AcDbArc
 50
90.0011369999999999
 51
270.0011289999999917
  0
LINE
  5
69
100
AcDbEntity
100
AcDbLine
  8
0
 62
256
370
-1
  6
CONTINUOUS
 10
0.5000052985730655
 20
0.3760052985730657
 30
0.0
 11
0.5000052985730655
 21
0.3333382985730657
 31
0.0
  0
LINE
  5
6A
100
AcDbEntity
100
AcDbLine
  8
0
 62
256
370
-1
  6
CONTINUOUS
 10
0.5000052985730655
 20
0.3333382985730657
 30
0.0
 11
0.4970702985730656
 21
0.2493272985730657
 31
0.0
  0
ARC
  5
6B
100
AcDbEntity
  8
0
 62
256
370
-1
  6
CONTINUOUS
100
AcDbCircle
 10
0.4963732985730656
 20
0.2293382985730657
 30
0.0
 40
0.02
100
AcDbArc
 50
88.0
 51
268.0000309999999786
  0
ARC
  5
6C
100
AcDbEntity
  8
0
 62
256
370
-1
  6
CONTINUOUS
100
AcDbCircle
 10
0.4963732985730656
 20
-0.2293307014269343
 30
0.0
 40
0.02
100
AcDbArc
 50
92.0011290000000059
 51
272.0011289999999917
  0
LINE
  5
6D
100
AcDbEntity
100
AcDbLine
  8
0
 62
256
370
-1
  6
CONTINUOUS
 10
0.4970702985730656
 20
-0.2493177014269344
 30
0.0
 11
0.5000052985730655
 21
-0.3333307014269344
 31
0.0
  0
LINE
  5
6E
100
AcDbEntity
100
AcDbLine
  8
0
 62
256
370
-1
  6
CONTINUOUS
 10
0.5000052985730655
 20
-0.3333307014269344
 30
0.0
 11
0.5000052985730655
 21
-0.3759977014269344
 31
0.0
  0
CIRCLE
  5
6F
100
AcDbEntity
100
AcDbCircle
  8
0
 62
256
370
-1
  6
CONTINUOUS
 10
0.0000032985730656
 20
0.0000032985730656
 30
0.0
 40
0.1005
  0
ARC
  5
70
100
AcDbEntity
  8
0
 62
256
370
-1
  6
CONTINUOUS
100
AcDbCircle
 10
-0.0639387014269344
 20
0.3020052985730657
 30
0.0
 40
0.125
100
AcDbArc
 50
225.0007319999999993
 51
270.0000309999999786
  0
LINE
  5
71
100
AcDbEntity
100
AcDbLine
  8
0
 62
256
370
-1
  6
CONTINUOUS
 10
0.0000042985730656
 20
0.1770052985730657
 30
0.0
 11
-0.0639387014269344
 21
0.1770052985730657
 31
0.0
  0
LINE
  5
72
100
AcDbEntity
100
AcDbLine
  8
0
 62
256
370
-1
  6
CONTINUOUS
 10
-0.1982697014269344
 20
0.2595582985730657
 30
0.0
 11
-0.1523267014269344
 21
0.2136162985730657
 31
0.0
  0
ARC
  5
73
100
AcDbEntity
  8
0
 62
256
370
-1
  6
CONTINUOUS
100
AcDbCircle
 10
-0.3023317014269344
 20
0.0642762985730656
 30
0.0
 40
0.125
100
AcDbArc
 50
0.0
 51
44.9995380000000011
  0
LINE
  5
74
100
AcDbEntity
100
AcDbLine
  8
0
 62
256
370
-1
  6
CONTINUOUS
 10
-0.1773317014269344
 20
0.0000012985730656
 30
0.0
 11
-0.1773317014269344
 21
0.0642762985730656
 31
0.0
  0
ARC
  5
75
100
AcDbEntity
  8
0
 62
256
370
-1
  6
CONTINUOUS
100
AcDbCircle
 10
0.0639452985730655
 20
0.3020052985730657
 30
0.0
 40
0.125
100
AcDbArc
 50
270.0000309999999786
 51
315.0000309999999786
  0
LINE
  5
76
100
AcDbEntity
100
AcDbLine
  8
0
 62
256
370
-1
  6
CONTINUOUS
 10
0.0000042985730656
 20
0.1770052985730657
 30
0.0
 11
0.0639452985730655
 21
0.1770052985730657
 31
0.0
  0
ARC
  5
77
100
AcDbEntity
  8
0
 62
256
370
-1
  6
CONTINUOUS
100
AcDbCircle
 10
0.3023372985730656
 20
0.0642752985730656
 30
0.0
 40
0.125
100
AcDbArc
 50
135.000977000000006
 51
179.9999850000000094
  0
LINE
  5
78
100
AcDbEntity
100
AcDbLine
  8
0
 62
256
370
-1
  6
CONTINUOUS
 10
0.1773372985730656
 20
0.0000012985730656
 30
0.0
 11
0.1773372985730656
 21
0.0642752985730656
 31
0.0
  0
ARC
  5
79
100
AcDbEntity
  8
0
 62
256
370
-1
  6
CONTINUOUS
100
AcDbCircle
 10
0.3023372985730656
 20
-0.0642707014269343
 30
0.0
 40
0.125
100
AcDbArc
 50
180.000031000000007
 51
225.0000459999999975
  0
LINE
  5
7A
100
AcDbEntity
100
AcDbLine
  8
0
 62
256
370
-1
  6
CONTINUOUS
 10
0.1773372985730656
 20
0.0000012985730656
 30
0.0
 11
0.1773372985730656
 21
-0.0642707014269343
 31
0.0
  0
ARC
  5
7B
100
AcDbEntity
  8
0
 62
256
370
-1
  6
CONTINUOUS
100
AcDbCircle
 10
-0.3023317014269344
 20
-0.0642707014269343
 30
0.0
 40
0.125
100
AcDbArc
 50
315.0000610000000165
 51
0.000034
  0
LINE
  5
7C
100
AcDbEntity
100
AcDbLine
  8
0
 62
256
370
-1
  6
CONTINUOUS
 10
-0.1773317014269344
 20
0.0000012985730656
 30
0.0
 11
-0.1773317014269344
 21
-0.0642707014269343
 31
0.0
  0
LINE
  5
7D
100
AcDbEntity
100
AcDbLine
  8
0
 62
256
370
-1
  6
CONTINUOUS
 10
0.1523342985730656
 20
0.2136172985730657
 30
0.0
 11
0.2780892985730655
 21
0.3393722985730657
 31
0.0
  0
LINE
  5
7E
100
AcDbEntity
100
AcDbLine
  8
0
 62
256
370
-1
  6
CONTINUOUS
 10
0.2139492985730656
 20
-0.1526597014269343
 30
0.0
 11
0.3393712985730656
 21
-0.2780817014269343
 31
0.0
  0
ARC
  5
7F
100
AcDbEntity
  8
0
 62
256
370
-1
  6
CONTINUOUS
100
AcDbCircle
 10
-0.0639417014269344
 20
-0.3019967014269344
 30
0.0
 40
0.125
100
AcDbArc
 50
90.0002139999999997
 51
135.000518999999997
  0
LINE
  5
80
100
AcDbEntity
100
AcDbLine
  8
0
 62
256
370
-1
  6
CONTINUOUS
 10
-0.2780847014269344
 20
-0.3393637014269343
 30
0.0
 11
-0.1523307014269344
 21
-0.2136087014269344
 31
0.0
  0
LINE
  5
81
100
AcDbEntity
100
AcDbLine
  8
0
 62
256
370
-1
  6
CONTINUOUS
 10
0.0000042985730656
 20
-0.1769967014269343
 30
0.0
 11
-0.0639417014269344
 21
-0.1769967014269343
 31
0.0
  0
ARC
  5
82
100
AcDbEntity
  8
0
 62
256
370
-1
  6
CONTINUOUS
100
AcDbCircle
 10
0.0639452985730655
 20
-0.3019967014269344
 30
0.0
 40
0.125
100
AcDbArc
 50
44.9997060000000033
 51
90.000007999999994
  0
LINE
  5
83
100
AcDbEntity
100
AcDbLine
  8
0
 62
256
370
-1
  6
CONTINUOUS
 10
0.0000042985730656
 20
-0.1769967014269343
 30
0.0
 11
0.0639452985730655
 21
-0.1769967014269343
 31
0.0
  0
LINE
  5
84
100
AcDbEntity
100
AcDbLine
  8
0
 62
256
370
-1
  6
CONTINUOUS
 10
0.2780872985730656
 20
-0.3393637014269343
 30
0.0
 11
0.1523342985730656
 21
-0.2136087014269344
 31
0.0
  0
LINE
  5
85
100
AcDbEntity
100
AcDbLine
  8
0
 62
256
370
-1
  6
CONTINUOUS
 10
-0.2139427014269344
 20
0.1526642985730657
 30
0.0
 11
-0.3422017014269344
 21
0.2809252985730656
 31
0.0
  0
LINE
  5
86
100
AcDbEntity
100
AcDbLine
  8
0
 62
256
370
-1
  6
CONTINUOUS
 10
-0.2139437014269344
 20
-0.1526597014269343
 30
0.0
 11
-0.3422017014269344
 21
-0.2809187014269344
 31
0.0
  0
ARC
  5
87
100
AcDbEntity
  8
0
 62
256
370
-1
  6
CONTINUOUS
100
AcDbCircle
 10
-0.3704867014269344
 20
0.2526412985730657
 30
0.0
 40
0.04
100
AcDbArc
 50
44.999572999999998
 51
182.0003049999999973
  0
ARC
  5
88
100
AcDbEntity
  8
0
 62
256
370
-1
  6
CONTINUOUS
100
AcDbCircle
 10
-0.3704867014269344
 20
-0.2526337014269344
 30
0.0
 40
0.04
100
AcDbArc
 50
177.9997099999999932
 51
315.0
  0
ARC
  5
89
100
AcDbEntity
  8
0
 62
256
370
-1
  6
CONTINUOUS
100
AcDbCircle
 10
-0.2526357014269345
 20
-0.3704857014269343
 30
0.0
 40
0.04
100
AcDbArc
 50
134.999572999999998
 51
272.0003050000000258
  0
ARC
  5
8A
100
AcDbEntity
  8
0
 62
256
370
-1
  6
CONTINUOUS
100
AcDbCircle
 10
0.2526402985730656
 20
-0.3704857014269343
 30
0.0
 40
0.04
100
AcDbArc
 50
267.9997250000000122
 51
45.0
  0
ARC
  5
8B
100
AcDbEntity
  8
0
 62
256
370
-1
  6
CONTINUOUS
100
AcDbCircle
 10
0.3704922985730655
 20
-0.2526357014269343
 30
0.0
 40
0.04
100
AcDbArc
 50
224.9995879999999886
 51
2.000327
  0
ARC
  5
8C
100
AcDbEntity
  8
0
 62
256
370
-1
  6
CONTINUOUS
100
AcDbCircle
 10
0.3704922985730655
 20
0.2526402985730656
 30
0.0
 40
0.04
100
AcDbArc
 50
357.9997250000000122
 51
135.0000149999999906
  0
ARC
  5
8D
100
AcDbEntity
  8
0
 62
256
370
-1
  6
CONTINUOUS
100
AcDbCircle
 10
0.2526412985730656
 20
0.3704912985730657
 30
0.0
 40
0.04
100
AcDbArc
 50
314.999572999999998
 51
92.0003200000000021
  0
ARC
  5
8E
100
AcDbEntity
  8
0
 62
256
370
-1
  6
CONTINUOUS
100
AcDbCircle
 10
-0.2526347014269344
 20
0.3704912985730657
 30
0.0
 40
0.04
100
AcDbArc
 50
87.9997099999999932
 51
225.0
  0
LINE
  5
8F
100
AcDbEntity
100
AcDbLine
  8
0
 62
256
370
-1
  6
CONTINUOUS
 10
-0.1982697014269344
 20
0.2595582985730657
 30
0.0
 11
-0.2809177014269344
 21
0.3422082985730657
 31
0.0
  0
LINE
  5
90
100
AcDbEntity
100
AcDbLine
  8
0
 62
256
370
-1
  6
CONTINUOUS
 10
-0.2093437014269344
 20
0.4956732985730657
 30
0.0
 11
-0.1673867014269344
 21
0.4934812985730657
 31
0.0
  0
ARC
  5
91
100
AcDbEntity
  8
0
 62
256
370
-1
  6
CONTINUOUS
100
AcDbCircle
 10
-0.1688287014269344
 20
0.4521722985730657
 30
0.0
 40
0.041333
100
AcDbArc
 50
0.0
 51
88.0
  0
ARC
  5
92
100
AcDbEntity
  8
0
 62
256
370
-1
  6
CONTINUOUS
100
AcDbCircle
 10
-0.1688287014269344
 20
0.4482202985730657
 30
0.0
 40
0.041333
100
AcDbArc
 50
268.0000309999999786
 51
0.000037
  0
LINE
  5
93
100
AcDbEntity
100
AcDbLine
  8
0
 62
256
370
-1
  6
CONTINUOUS
 10
-0.1702697014269344
 20
0.4069122985730657
 30
0.0
 11
-0.2512377014269344
 21
0.4104672985730657
 31
0.0
  0
LINE
  5
94
100
AcDbEntity
100
AcDbLine
  8
0
 62
256
370
-1
  6
CONTINUOUS
 10
-0.1274957014269344
 20
0.4482212985730656
 30
0.0
 11
-0.1274957014269344
 21
0.4521732985730656
 31
0.0
  0
ARC
  5
95
100
AcDbEntity
  8
0
 62
256
370
-1
  6
CONTINUOUS
100
AcDbCircle
 10
-0.4521677014269344
 20
0.1688342985730657
 30
0.0
 40
0.041333
100
AcDbArc
 50
182.0009310000000085
 51
270.000945999999999
  0
LINE
  5
96
100
AcDbEntity
100
AcDbLine
  8
0
 62
256
370
-1
  6
CONTINUOUS
 10
-0.4934757014269344
 20
0.1673902985730657
 30
0.0
 11
-0.4956677014269344
 21
0.2093502985730657
 31
0.0
  0
ARC
  5
97
100
AcDbEntity
  8
0
 62
256
370
-1
  6
CONTINUOUS
100
AcDbCircle
 10
-0.4482147014269344
 20
0.1688342985730657
 30
0.0
 40
0.041333
100
AcDbArc
 50
270.0000309999999786
 51
2.0000119999999999
  0
LINE
  5
98
100
AcDbEntity
100
AcDbLine
  8
0
 62
256
370
-1
  6
CONTINUOUS
 10
-0.4482147014269344
 20
0.1275012985730656
 30
0.0
 11
-0.4521677014269344
 21
0.1275012985730656
 31
0.0
  0
LINE
  5
99
100
AcDbEntity
100
AcDbLine
  8
0
 62
256
370
-1
  6
CONTINUOUS
 10
-0.4069067014269344
 20
0.1702762985730656
 30
0.0
 11
-0.4104617014269344
 21
0.2512452985730657
 31
0.0
  0
LINE
  5
9A
100
AcDbEntity
100
AcDbLine
  8
0
 62
256
370
-1
  6
CONTINUOUS
 10
-0.4956677014269344
 20
-0.2093427014269344
 30
0.0
 11
-0.4934757014269344
 21
-0.1673857014269343
 31
0.0
  0
ARC
  5
9B
100
AcDbEntity
  8
0
 62
256
370
-1
  6
CONTINUOUS
100
AcDbCircle
 10
-0.4521677014269344
 20
-0.1688277014269343
 30
0.0
 40
0.041333
100
AcDbArc
 50
90.0002139999999997
 51
178.0002139999999997
  0
LINE
  5
9C
100
AcDbEntity
100
AcDbLine
  8
0
 62
256
370
-1
  6
CONTINUOUS
 10
-0.4521677014269344
 20
-0.1274917014269344
 30
0.0
 11
-0.4482147014269344
 21
-0.1274917014269344
 31
0.0
  0
ARC
  5
9D
100
AcDbEntity
  8
0
 62
256
370
-1
  6
CONTINUOUS
100
AcDbCircle
 10
-0.4482147014269344
 20
-0.1688277014269343
 30
0.0
 40
0.041333
100
AcDbArc
 50
358.0000309999999786
 51
90.0000229999999988
  0
LINE
  5
9E
100
AcDbEntity
100
AcDbLine
  8
0
 62
256
370
-1
  6
CONTINUOUS
 10
-0.4069067014269344
 20
-0.1702697014269343
 30
0.0
 11
-0.4104617014269344
 21
-0.2512377014269343
 31
0.0
  0
ARC
  5
9F
100
AcDbEntity
  8
0
 62
256
370
-1
  6
CONTINUOUS
100
AcDbCircle
 10
-0.1688287014269344
 20
-0.4521677014269344
 30
0.0
 40
0.041333
100
AcDbArc
 50
272.0
 51
0.00001
  0
LINE
  5
A0
100
AcDbEntity
100
AcDbLine
  8
0
 62
256
370
-1
  6
CONTINUOUS
 10
-0.1673867014269344
 20
-0.4934757014269344
 30
0.0
 11
-0.2093437014269344
 21
-0.4956677014269343
 31
0.0
  0
ARC
  5
A1
100
AcDbEntity
  8
0
 62
256
370
-1
  6
CONTINUOUS
100
AcDbCircle
 10
-0.1688297014269344
 20
-0.4482147014269344
 30
0.0
 40
0.041333
100
AcDbArc
 50
0.000031
 51
92.0000150000000048
  0
LINE
  5
A2
100
AcDbEntity
100
AcDbLine
  8
0
 62
256
370
-1
  6
CONTINUOUS
 10
-0.1274957014269344
 20
-0.4482147014269344
 30
0.0
 11
-0.1274957014269344
 21
-0.4521667014269343
 31
0.0
  0
LINE
  5
A3
100
AcDbEntity
100
AcDbLine
  8
0
 62
256
370
-1
  6
CONTINUOUS
 10
-0.1702707014269344
 20
-0.4069057014269343
 30
0.0
 11
-0.2512397014269344
 21
-0.4104617014269343
 31
0.0
  0
LINE
  5
A4
100
AcDbEntity
100
AcDbLine
  8
0
 62
256
370
-1
  6
CONTINUOUS
 10
0.2093502985730656
 20
-0.4956677014269343
 30
0.0
 11
0.1673902985730656
 21
-0.4934757014269344
 31
0.0
  0
ARC
  5
A5
100
AcDbEntity
  8
0
 62
256
370
-1
  6
CONTINUOUS
100
AcDbCircle
 10
0.1688352985730656
 20
-0.4521677014269344
 30
0.0
 40
0.041333
100
AcDbArc
 50
180.0
 51
268.0
  0
ARC
  5
A6
100
AcDbEntity
  8
0
 62
256
370
-1
  6
CONTINUOUS
100
AcDbCircle
 10
0.1688342985730656
 20
-0.4482147014269344
 30
0.0
 40
0.041333
100
AcDbArc
 50
88.0000229999999988
 51
180.0000149999999906
  0
LINE
  5
A7
100
AcDbEntity
100
AcDbLine
  8
0
 62
256
370
-1
  6
CONTINUOUS
 10
0.1702752985730656
 20
-0.4069057014269343
 30
0.0
 11
0.2512432985730656
 21
-0.4104617014269343
 31
0.0
  0
ARC
  5
A8
100
AcDbEntity
  8
0
 62
256
370
-1
  6
CONTINUOUS
100
AcDbCircle
 10
0.4521732985730655
 20
-0.1688277014269343
 30
0.0
 40
0.041333
100
AcDbArc
 50
2.0
 51
90.0
  0
LINE
  5
A9
100
AcDbEntity
100
AcDbLine
  8
0
 62
256
370
-1
  6
CONTINUOUS
 10
0.4934812985730656
 20
-0.1673837014269343
 30
0.0
 11
0.4956742985730656
 21
-0.2093427014269344
 31
0.0
  0
ARC
  5
AA
100
AcDbEntity
  8
0
 62
256
370
-1
  6
CONTINUOUS
100
AcDbCircle
 10
0.4482212985730656
 20
-0.1688287014269343
 30
0.0
 40
0.041333
100
AcDbArc
 50
90.000243999999995
 51
182.0002289999999903
  0
LINE
  5
AB
100
AcDbEntity
100
AcDbLine
  8
0
 62
256
370
-1
  6
CONTINUOUS
 10
0.4482212985730656
 20
-0.1274947014269343
 30
0.0
 11
0.4521732985730655
 21
-0.1274947014269343
 31
0.0
  0
LINE
  5
AC
100
AcDbEntity
100
AcDbLine
  8
0
 62
256
370
-1
  6
CONTINUOUS
 10
0.4069122985730655
 20
-0.1702697014269343
 30
0.0
 11
0.4104672985730655
 21
-0.2512387014269343
 31
0.0
  0
LINE
  5
AD
100
AcDbEntity
100
AcDbLine
  8
0
 62
256
370
-1
  6
CONTINUOUS
 10
0.4956742985730656
 20
0.2093502985730657
 30
0.0
 11
0.4934812985730656
 21
0.1673912985730657
 31
0.0
  0
ARC
  5
AE
100
AcDbEntity
  8
0
 62
256
370
-1
  6
CONTINUOUS
100
AcDbCircle
 10
0.4521732985730655
 20
0.1688332985730656
 30
0.0
 40
0.041333
100
AcDbArc
 50
270.0
 51
358.0
  0
ARC
  5
AF
100
AcDbEntity
  8
0
 62
256
370
-1
  6
CONTINUOUS
100
AcDbCircle
 10
0.4482212985730656
 20
0.1688342985730657
 30
0.0
 40
0.041333
100
AcDbArc
 50
178.000031000000007
 51
270.0000309999999786
  0
LINE
  5
B0
100
AcDbEntity
100
AcDbLine
  8
0
 62
256
370
-1
  6
CONTINUOUS
 10
0.4069122985730655
 20
0.1702752985730657
 30
0.0
 11
0.4104672985730655
 21
0.2512432985730657
 31
0.0
  0
ARC
  5
B1
100
AcDbEntity
  8
0
 62
256
370
-1
  6
CONTINUOUS
100
AcDbCircle
 10
0.1687892985730656
 20
0.4521722985730657
 30
0.0
 40
0.041333
100
AcDbArc
 50
92.0011290000000059
 51
180.0011440000000107
  0
LINE
  5
B2
100
AcDbEntity
100
AcDbLine
  8
0
 62
256
370
-1
  6
CONTINUOUS
 10
0.1673442985730656
 20
0.4934812985730657
 30
0.0
 11
0.2093502985730656
 21
0.4956732985730657
 31
0.0
  0
ARC
  5
B3
100
AcDbEntity
  8
0
 62
256
370
-1
  6
CONTINUOUS
100
AcDbCircle
 10
0.1687892985730656
 20
0.4482202985730657
 30
0.0
 40
0.041333
100
AcDbArc
 50
180.000031000000007
 51
272.0000309999999786
  0
LINE
  5
B4
100
AcDbEntity
100
AcDbLine
  8
0
 62
256
370
-1
  6
CONTINUOUS
 10
0.1274552985730656
 20
0.4482202985730657
 30
0.0
 11
0.1274552985730656
 21
0.4521722985730657
 31
0.0
  0
LINE
  5
B5
100
AcDbEntity
100
AcDbLine
  8
0
 62
256
370
-1
  6
CONTINUOUS
 10
0.1702302985730656
 20
0.4069122985730657
 30
0.0
 11
0.2512452985730655
 21
0.4104672985730657
 31
0.0
  0
LINE
  5
B6
100
AcDbEntity
100
AcDbLine
  8
0
 62
256
370
-1
  6
CONTINUOUS
 10
0.1275002985730656
 20
-0.4482147014269344
 30
0.0
 11
0.1275012985730656
 21
-0.4521677014269344
 31
0.0
  0
LINE
  5
B7
100
AcDbEntity
100
AcDbLine
  8
0
 62
256
370
-1
  6
CONTINUOUS
 10
0.2139472985730656
 20
0.1526612985730657
 30
0.0
 11
0.3422062985730656
 21
0.2809252985730656
 31
0.0
  0
LINE
  5
B8
100
AcDbEntity
100
AcDbLine
  8
0
 62
256
370
-1
  6
ByLayer
 10
0.4482213209363707
 20
0.1275012985730717
 30
0.0
 11
0.4521732985730655
 21
0.1275002985730657
 31
0.0
  0
LINE
  5
B9
100
AcDbEntity
100
AcDbLine
  8
0
 62
256
370
-1
  6
ByLayer
 10
0.2780892985730655
 20
0.3393722985730657
 30
0.0
 11
0.2809253590296293
 21
0.3422068165362765
 31
0.0
  0
LINE
  5
BA
100
AcDbEntity
100
AcDbLine
  8
0
 62
256
370
-1
  6
ByLayer
 10
0.3393712985730656
 20
-0.2780817014269343
 30
0.0
 11
0.342207823941027
 21
-0.2809197692883571
 31
0.0
  0
LINE
  5
BB
100
AcDbEntity
100
AcDbLine
  8
0
 62
256
370
-1
  6
ByLayer
 10
0.2780872985730656
 20
-0.3393637014269343
 30
0.0
 11
0.2809245698205275
 21
-0.3422014301794724
 31
0.0
  0
LINE
  5
BC
100
AcDbEntity
100
AcDbLine
  8
0
 62
256
370
-1
  6
ByLayer
 10
-0.2809197618834981
 20
-0.3422012193901452
 30
0.0
 11
-0.2780847014269344
 21
-0.3393637014269343
 31
0.0
  0
ENDSEC
  0
SECTION
  2
OBJECTS
  0
DICTIONARY
  5
C
100
AcDbDictionary
280
0
281
1
  3
ACAD_GROUP
350
D
  3
ACAD_LAYOUT
350
1A
  3
ACAD_MLINESTYLE
350
17
  3
ACAD_PLOTSETTINGS
350
19
  3
ACAD_PLOTSTYLENAME
350
E
  3
AcDbVariableDictionary
350
BD
  0
DICTIONARY
  5
D
100
AcDbDictionary
280
0
281
1
  0
ACDBDICTIONARYWDFLT
  5
E
100
AcDbDictionary
281
1
  3
Normal
350
F
100
AcDbDictionaryWithDefault
340
F
  0
ACDBPLACEHOLDER
  5
F
  0
DICTIONARY
  5
17
100
AcDbDictionary
280
0
281
1
  3
Standard
350
18
  0
MLINESTYLE
  5
18
100
AcDbMlineStyle
  2
STANDARD
 70
0
  3

 62
256
 51
90.0
 52
90.0
 71
2
 49
0.5
 62
256
  6
BYLAYER
 49
-0.5
 62
256
  6
BYLAYER
  0
DICTIONARY
  5
19
100
AcDbDictionary
280
0
281
1
  0
DICTIONARY
  5
1A
100
AcDbDictionary
281
1
  3
Layout1
350
1E
  3
Layout2
350
26
  3
Model
350
22
  0
LAYOUT
  5
1E
100
AcDbPlotSettings
  1

  2
C:\Program Files\AutoCAD 2002\plotters\DWF ePlot (optimized for plotting).pc3
  4

  6

 40
0.0
 41
0.0
 42
0.0
 43
0.0
 44
0.0
 45
0.0
 46
0.0
 47
0.0
 48
0.0
 49
0.0
140
0.0
141
0.0
142
1.0
143
1.0
 70
688
 72
0
 73
0
 74
5
  7

 75
16
147
1.0
148
0.0
149
0.0
100
AcDbLayout
  1
Layout1
 70
1
 71
1
 10
0.0
 20
0.0
 11
420.0
 21
297.0
 12
0.0
 22
0.0
 32
0.0
 14
100000000000000000000.0
 24
100000000000000000000.0
 34
100000000000000000000.0
 15
-100000000000000000000.0
 25
-100000000000000000000.0
 35
-100000000000000000000.0
146
0.0
 13
0.0
 23
0.0
 33
0.0
 16
1.0
 26
0.0
 36
0.0
 17
0.0
 27
1.0
 37
0.0
 76
0
330
1B
  0
LAYOUT
  5
22
100
AcDbPlotSettings
  1

  2
C:\Program Files\AutoCAD 2002\plotters\DWF ePlot (optimized for plotting).pc3
  4

  6

 40
0.0
 41
0.0
 42
0.0
 43
0.0
 44
0.0
 45
0.0
 46
0.0
 47
0.0
 48
0.0
 49
0.0
140
0.0
141
0.0
142
1.0
143
1.0
 70
1712
 72
0
 73
0
 74
0
  7

 75
0
147
1.0
148
0.0
149
0.0
100
AcDbLayout
  1
Model
 70
1
 71
0
 10
0.0
 20
0.0
 11
12.0
 21
9.0
 12
0.0
 22
0.0
 32
0.0
 14
0.0
 24
0.0
 34
0.0
 15
0.0
 25
0.0
 35
0.0
146
0.0
 13
0.0
 23
0.0
 33
0.0
 16
1.0
 26
0.0
 36
0.0
 17
0.0
 27
1.0
 37
0.0
 76
0
330
1F
  0
LAYOUT
  5
26
100
AcDbPlotSettings
  1

  2
C:\Program Files\AutoCAD 2002\plotters\DWF ePlot (optimized for plotting).pc3
  4

  6

 40
0.0
 41
0.0
 42
0.0
 43
0.0
 44
0.0
 45
0.0
 46
0.0
 47
0.0
 48
0.0
 49
0.0
140
0.0
141
0.0
142
1.0
143
1.0
 70
688
 72
0
 73
0
 74
5
  7

 75
16
147
1.0
148
0.0
149
0.0
100
AcDbLayout
  1
Layout2
 70
1
 71
2
 10
0.0
 20
0.0
 11
12.0
 21
9.0
 12
0.0
 22
0.0
 32
0.0
 14
0.0
 24
0.0
 34
0.0
 15
0.0
 25
0.0
 35
0.0
146
0.0
 13
0.0
 23
0.0
 33
0.0
 16
1.0
 26
0.0
 36
0.0
 17
0.0
 27
1.0
 37
0.0
 76
0
330
23
  0
DICTIONARY
  5
BD
100
AcDbDictionary
281
1
  3
DIMASSOC
350
BF
  3
HIDETEXT
350
BE
  0
DICTIONARYVAR
  5
BE
100
DictionaryVariables
280
0
  1
2
  0
DICTIONARYVAR
  5
BF
100
DictionaryVariables
280
0
  1
1
  0
ENDSEC
  0
EOF
