999
dxflib 2.0.4.8
  0
SECTION
  2
HEADER
  9
$ACADVER
  1
AC1015
  9
$HANDSEED
  5
FFFF
  9
$DIMTAD
 70
0
  9
$DIMTDEC
 70
4
  9
$USERR4
 40
0.0
  9
$CLAYER
  8
0
  9
$DELOBJ
 70
1
  9
$DIMALTZ
 70
0
  9
$DIMUNIT
 70
2
  9
$MENU
  1
acad
  9
$CHAMFERA
 40
0.0
  9
$ATTREQ
 70
1
  9
$UCSYDIR
 10
0.0
 20
1.0
 30
0.0
  9
$USERR5
 40
0.0
  9
$SHADEDIF
 70
70
  9
$TILEMODE
 70
1
  9
$VISRETAIN
 70
0
  9
$CMLSTYLE
  2
STANDARD
  9
$EXTMIN
 10
0.084673
 20
2.7570960000000002
 30
0.0
  9
$ORTHOMODE
 70
1
  9
$REGENMODE
 70
1
  9
$TRACEWID
 40
0.05
  9
$DIMASZ
 40
0.18
  9
$DIMUPT
 70
0
  9
$CHAMFERB
 40
0.0
  9
$UCSXDIR
 10
1.0
 20
0.0
 30
0.0
  9
$DIMSHO
 70
1
  9
$DIMALT
 70
0
  9
$DIMSAH
 70
0
  9
$DIMTFAC
 40
1.0
  9
$DIMGAP
 40
0.09
  9
$SKETCHINC
 40
0.1
  9
$CHAMFERC
 40
0.0
  9
$USRTIMER
 70
1
  9
$ANGBASE
 50
0.0
  9
$PUCSYDIR
 10
0.0
 20
1.0
 30
0.0
  9
$PICKSTYLE
 70
1
  9
$CMLJUST
 70
0
  9
$LIMMIN
 10
-6.3797499999999996
 20
-1.879024
  9
$DIMTSZ
 40
0.0
  9
$DIMALTTD
 70
2
  9
$CHAMFERD
 40
0.0
  9
$SPLFRAME
 70
0
  9
$SURFTYPE
 70
6
  9
$PUCSXDIR
 10
1.0
 20
0.0
 30
0.0
  9
$DWGCODEPAGE
  3
ansi_1252
  9
$LUNITS
 70
2
  9
$AUPREC
 70
0
  9
$BLIPMODE
 70
1
  9
$SPLINESEGS
 70
8
  9
$SURFTAB1
 70
6
  9
$INSBASE
 10
-4.6803759999999999
 20
1.7466390000000001
 30
0.0
  9
$DIMRND
 40
0.0
  9
$DIMCEN
 40
0.09
  9
$ELEVATION
 40
0.0
  9
$SKPOLY
 70
0
  9
$SURFTAB2
 70
6
  9
$USERI1
 70
0
  9
$UNITMODE
 70
0
  9
$INSUNITS
 70
4
  9
$EXTMAX
 10
2.6269969999999998
 20
5.7971060000000003
 30
0.0
  9
$FILLMODE
 70
1
  9
$DRAGMODE
 70
2
  9
$TEXTSIZE
 40
0.125
  9
$DIMEXO
 40
0.0625
  9
$PELEVATION
 40
0.0
  9
$UCSORG
 10
0.0
 20
0.0
 30
0.0
  9
$USERI2
 70
0
  9
$DIMSCALE
 40
1.0
  9
$DIMDLE
 40
0.0
  9
$DIMZIN
 70
0
  9
$DIMTOLJ
 70
1
  9
$DIMTZIN
 70
0
  9
$TDUSRTIMER
 40
0.0693752315
  9
$ANGDIR
 70
0
  9
$SURFU
 70
6
  9
$USERI3
 70
0
  9
$LIMMAX
 10
5.6202500000000004
 20
7.1209759999999998
  9
$QTEXTMODE
 70
0
  9
$OSMODE
 70
0
  9
$DIMJUST
 70
0
  9
$DIMALTTZ
 70
0
  9
$SURFV
 70
6
  9
$USERI4
 70
0
  9
$WORLDVIEW
 70
1
  9
$ATTMODE
 70
1
  9
$DIMTXT
 40
0.18
  9
$DIMLIM
 70
0
  9
$DIMSE1
 70
0
  9
$THICKNESS
 40
0.0
  9
$LIMCHECK
 70
0
  9
$PDMODE
 70
0
  9
$HANDLING
 70
1
  9
$USERI5
 70
0
  9
$CELTYPE
  6
BYLAYER
  9
$DIMTOH
 70
1
  9
$DIMSE2
 70
0
  9
$DIMLFAC
 40
1.0
  9
$DIMSOXD
 70
0
  9
$LUPREC
 70
3
  9
$TDINDWG
 40
0.0693752315
  9
$SPLINETYPE
 70
6
  9
$PUCSORG
 10
0.0
 20
0.0
 30
0.0
  9
$PEXTMIN
 10
-6.9143420000000004
 20
-1.879024
 30
0.0
  9
$PEXTMAX
 10
-2.4433289999999999
 20
3.7672810000000001
 30
0.0
  9
$CECOLOR
 62
256
  9
$DISPSILH
 70
0
  9
$DIMDLI
 40
0.38
  9
$DIMTM
 40
0.0
  9
$DIMASO
 70
1
  9
$DIMTVP
 40
0.0
  9
$DIMSTYLE
  2
STANDARD
  9
$PLINEWID
 40
0.0
  9
$PLIMCHECK
 70
0
  9
$LTSCALE
 40
0.25
  9
$DIMTIH
 70
1
  9
$DIMALTD
 70
2
  9
$DIMCLRT
 70
0
  9
$DIMDEC
 70
4
  9
$DIMALTU
 70
2
  9
$FILLETRAD
 40
0.015
  9
$TDUPDATE
 40
2450623.3611998842097819
  9
$MAXACTVP
 70
16
  9
$PLIMMIN
 10
-6.4374440000000002
 20
-1.922415
  9
$PLIMMAX
 10
-0.735642
 20
2.4927109999999999
  9
$TREEDEPTH
 70
3020
  9
$CELTSCALE
 40
1.0
  9
$DIMEXE
 40
0.18
  9
$DIMCLRD
 70
0
  9
$DIMTXSTY
  7
STANDARD
  9
$PDSIZE
 40
0.0
  9
$ATTDIA
 70
0
  9
$USERR1
 40
0.0
  9
$PINSBASE
 10
0.0
 20
0.0
 30
0.0
  9
$CMLSCALE
 40
1.0
  9
$TEXTSTYLE
  7
STANDARD
  9
$DIMTP
 40
0.0
  9
$DIMTOL
 70
0
  9
$DIMALTF
 40
25.3999999999999986
  9
$DIMTOFL
 70
0
  9
$DIMCLRE
 70
0
  9
$DIMSD1
 70
0
  9
$DIMFIT
 70
3
  9
$DIMAUNIT
 70
0
  9
$TDCREATE
 40
2449772.9788885409943759
  9
$COORDS
 70
1
  9
$USERR2
 40
0.0
  9
$SHADEDGE
 70
3
  9
$PLINEGEN
 70
0
  9
$PSLTSCALE
 70
1
  9
$SAVEIMAGES
 70
0
  9
$MIRRTEXT
 70
1
  9
$DIMTIX
 70
0
  9
$DIMSD2
 70
0
  9
$AUNITS
 70
0
  9
$USERR3
 40
0.0
  0
ENDSEC
  0
SECTION
  2
TABLES
  0
TABLE
  2
VPORT
  5
8
100
AcDbSymbolTable
 70
1
  0
VPORT
  5
30
100
AcDbSymbolTableRecord
100
AcDbViewportTableRecord
  2
*Active
 70
0
 10
0.0
 20
0.0
 11
1.0
 21
1.0
 12
286.3055555555554861
 22
148.5
 13
0.0
 23
0.0
 14
10.0
 24
10.0
 15
10.0
 25
10.0
 16
0.0
 26
0.0
 36
1.0
 17
0.0
 27
0.0
 37
0.0
 40
297.0
 41
1.92798353909465
 42
50.0
 43
0.0
 44
0.0
 50
0.0
 51
0.0
 71
0
 72
100
 73
1
 74
3
 75
1
 76
1
 77
0
 78
0
281
0
 65
1
110
0.0
120
0.0
130
0.0
111
1.0
121
0.0
131
0.0
112
0.0
122
1.0
132
0.0
 79
0
146
0.0
  0
ENDTAB
  0
TABLE
  2
LTYPE
  5
5
100
AcDbSymbolTable
 70
21
  0
LTYPE
  5
14
100
AcDbSymbolTableRecord
100
AcDbLinetypeTableRecord
  2
ByBlock
 70
0
  3

 72
65
 73
0
 40
0.0
  0
LTYPE
  5
15
100
AcDbSymbolTableRecord
100
AcDbLinetypeTableRecord
  2
ByLayer
 70
0
  3

 72
65
 73
0
 40
0.0
  0
LTYPE
  5
16
100
AcDbSymbolTableRecord
100
AcDbLinetypeTableRecord
  2
CONTINUOUS
 70
0
  3
Solid line
 72
65
 73
0
 40
0.0
  0
LTYPE
  5
31
100
AcDbSymbolTableRecord
100
AcDbLinetypeTableRecord
  2
DOT
 70
0
  3
Dot . . . . . . . . . . . . . . . . . . . . . .
 72
65
 73
2
 40
6.3499999999999996
 49
0.0
 74
0
 49
-6.3499999999999996
 74
0
  0
LTYPE
  5
32
100
AcDbSymbolTableRecord
100
AcDbLinetypeTableRecord
  2
DOT2
 70
0
  3
Dot (.5x) .....................................
 72
65
 73
2
 40
3.1749999999999998
 49
0.0
 74
0
 49
-3.1749999999999998
 74
0
  0
LTYPE
  5
33
100
AcDbSymbolTableRecord
100
AcDbLinetypeTableRecord
  2
DOTX2
 70
0
  3
Dot (2x) .  .  .  .  .  .  .  .  .  .  .  .  .
 72
65
 73
2
 40
12.6999999999999993
 49
0.0
 74
0
 49
-12.6999999999999993
 74
0
  0
LTYPE
  5
34
100
AcDbSymbolTableRecord
100
AcDbLinetypeTableRecord
  2
DASHED
 70
0
  3
Dashed __ __ __ __ __ __ __ __ __ __ __ __ __ _
 72
65
 73
2
 40
19.0500000000000007
 49
12.6999999999999993
 74
0
 49
-6.3499999999999996
 74
0
  0
LTYPE
  5
35
100
AcDbSymbolTableRecord
100
AcDbLinetypeTableRecord
  2
DASHED2
 70
0
  3
Dashed (.5x) _ _ _ _ _ _ _ _ _ _ _ _ _ _ _ _ _
 72
65
 73
2
 40
9.5250000000000004
 49
6.3499999999999996
 74
0
 49
-3.1749999999999998
 74
0
  0
LTYPE
  5
36
100
AcDbSymbolTableRecord
100
AcDbLinetypeTableRecord
  2
DASHEDX2
 70
0
  3
Dashed (2x) ____  ____  ____  ____  ____  ___
 72
65
 73
2
 40
38.1000000000000014
 49
25.3999999999999986
 74
0
 49
-12.6999999999999993
 74
0
  0
LTYPE
  5
37
100
AcDbSymbolTableRecord
100
AcDbLinetypeTableRecord
  2
DASHDOT
 70
0
  3
Dash dot __ . __ . __ . __ . __ . __ . __ . __
 72
65
 73
4
 40
25.3999999999999986
 49
12.6999999999999993
 74
0
 49
-6.3499999999999996
 74
0
 49
0.0
 74
0
 49
-6.3499999999999996
 74
0
  0
LTYPE
  5
38
100
AcDbSymbolTableRecord
100
AcDbLinetypeTableRecord
  2
DASHDOT2
 70
0
  3
Dash dot (.5x) _._._._._._._._._._._._._._._.
 72
65
 73
4
 40
12.6999999999999993
 49
6.3499999999999996
 74
0
 49
-3.1749999999999998
 74
0
 49
0.0
 74
0
 49
-3.1749999999999998
 74
0
  0
LTYPE
  5
39
100
AcDbSymbolTableRecord
100
AcDbLinetypeTableRecord
  2
DASHDOTX2
 70
0
  3
Dash dot (2x) ____  .  ____  .  ____  .  ___
 72
65
 73
4
 40
50.7999999999999972
 49
25.3999999999999986
 74
0
 49
-12.6999999999999993
 74
0
 49
0.0
 74
0
 49
-12.6999999999999993
 74
0
  0
LTYPE
  5
3A
100
AcDbSymbolTableRecord
100
AcDbLinetypeTableRecord
  2
DIVIDE
 70
0
  3
Divide ____ . . ____ . . ____ . . ____ . . ____
 72
65
 73
6
 40
31.75
 49
12.6999999999999993
 74
0
 49
-6.3499999999999996
 74
0
 49
0.0
 74
0
 49
-6.3499999999999996
 74
0
 49
0.0
 74
0
 49
-6.3499999999999996
 74
0
  0
LTYPE
  5
3B
100
AcDbSymbolTableRecord
100
AcDbLinetypeTableRecord
  2
DIVIDE2
 70
0
  3
Divide (.5x) __..__..__..__..__..__..__..__.._
 72
65
 73
6
 40
15.875
 49
6.3499999999999996
 74
0
 49
-3.1749999999999998
 74
0
 49
0.0
 74
0
 49
-3.1749999999999998
 74
0
 49
0.0
 74
0
 49
-3.1749999999999998
 74
0
  0
LTYPE
  5
3C
100
AcDbSymbolTableRecord
100
AcDbLinetypeTableRecord
  2
DIVIDEX2
 70
0
  3
Divide (2x) ________  .  .  ________  .  .  _
 72
65
 73
6
 40
63.5
 49
25.3999999999999986
 74
0
 49
-12.6999999999999993
 74
0
 49
0.0
 74
0
 49
-12.6999999999999993
 74
0
 49
0.0
 74
0
 49
-12.6999999999999993
 74
0
  0
LTYPE
  5
3D
100
AcDbSymbolTableRecord
100
AcDbLinetypeTableRecord
  2
CENTER
 70
0
  3
Center ____ _ ____ _ ____ _ ____ _ ____ _ ____
 72
65
 73
4
 40
50.7999999999999972
 49
31.75
 74
0
 49
-6.3499999999999996
 74
0
 49
6.3499999999999996
 74
0
 49
-6.3499999999999996
 74
0
  0
LTYPE
  5
3E
100
AcDbSymbolTableRecord
100
AcDbLinetypeTableRecord
  2
CENTER2
 70
0
  3
Center (.5x) ___ _ ___ _ ___ _ ___ _ ___ _ ___
 72
65
 73
4
 40
28.5749999999999993
 49
19.0500000000000007
 74
0
 49
-3.1749999999999998
 74
0
 49
3.1749999999999998
 74
0
 49
-3.1749999999999998
 74
0
  0
LTYPE
  5
3F
100
AcDbSymbolTableRecord
100
AcDbLinetypeTableRecord
  2
CENTERX2
 70
0
  3
Center (2x) ________  __  ________  __  _____
 72
65
 73
4
 40
101.5999999999999943
 49
63.5
 74
0
 49
-12.6999999999999993
 74
0
 49
12.6999999999999993
 74
0
 49
-12.6999999999999993
 74
0
  0
LTYPE
  5
40
100
AcDbSymbolTableRecord
100
AcDbLinetypeTableRecord
  2
BORDER
 70
0
  3
Border __ __ . __ __ . __ __ . __ __ . __ __ .
 72
65
 73
6
 40
44.4500000000000028
 49
12.6999999999999993
 74
0
 49
-6.3499999999999996
 74
0
 49
12.6999999999999993
 74
0
 49
-6.3499999999999996
 74
0
 49
0.0
 74
0
 49
-6.3499999999999996
 74
0
  0
LTYPE
  5
41
100
AcDbSymbolTableRecord
100
AcDbLinetypeTableRecord
  2
BORDER2
 70
0
  3
Border (.5x) __.__.__.__.__.__.__.__.__.__.__.
 72
65
 73
6
 40
22.2250000000000014
 49
6.3499999999999996
 74
0
 49
-3.1749999999999998
 74
0
 49
6.3499999999999996
 74
0
 49
-3.1749999999999998
 74
0
 49
0.0
 74
0
 49
-3.1749999999999998
 74
0
  0
LTYPE
  5
42
100
AcDbSymbolTableRecord
100
AcDbLinetypeTableRecord
  2
BORDERX2
 70
0
  3
Border (2x) ____  ____  .  ____  ____  .  ___
 72
65
 73
6
 40
88.9000000000000057
 49
25.3999999999999986
 74
0
 49
-12.6999999999999993
 74
0
 49
25.3999999999999986
 74
0
 49
-12.6999999999999993
 74
0
 49
0.0
 74
0
 49
-12.6999999999999993
 74
0
  0
ENDTAB
  0
TABLE
  2
LAYER
  5
2
100
AcDbSymbolTable
 70
2
  0
LAYER
  5
10
100
AcDbSymbolTableRecord
100
AcDbLayerTableRecord
  2
0
 70
0
 62
7
  6
CONTINUOUS
390
F
  0
LAYER
  5
43
100
AcDbSymbolTableRecord
100
AcDbLayerTableRecord
  2
ASHADE
 70
0
 62
7
  6
CONTINUOUS
390
F
  0
ENDTAB
  0
TABLE
  2
STYLE
  5
3
100
AcDbSymbolTable
 70
1
  0
STYLE
  5
11
100
AcDbSymbolTableRecord
100
AcDbTextStyleTableRecord
  2
Standard
 70
0
 40
0.0
 41
0.75
 50
0.0
 71
0
 42
2.5
  3
txt
  4

  0
ENDTAB
  0
TABLE
  2
VIEW
  5
6
100
AcDbSymbolTable
 70
0
  0
ENDTAB
  0
TABLE
  2
UCS
  5
7
100
AcDbSymbolTable
 70
0
  0
ENDTAB
  0
TABLE
  2
APPID
  5
9
100
AcDbSymbolTable
 70
1
  0
APPID
  5
12
100
AcDbSymbolTableRecord
100
AcDbRegAppTableRecord
  2
ACAD
 70
0
  0
ENDTAB
  0
TABLE
  2
DIMSTYLE
  5
A
100
AcDbSymbolTable
 70
1
100
AcDbDimStyleTable
 71
0
  0
DIMSTYLE
105
27
100
AcDbSymbolTableRecord
100
AcDbDimStyleTableRecord
  2
Standard
 41
0.18
 42
0.0625
 43
3.75
 44
0.18
 70
0
 73
0
 74
0
 77
1
 78
8
140
0.18
141
2.5
143
0.03937007874016
147
0.09
171
3
172
1
271
2
272
2
274
3
278
44
283
0
284
8
340
11
  0
ENDTAB
  0
TABLE
  2
BLOCK_RECORD
  5
1
100
AcDbSymbolTable
 70
1
  0
BLOCK_RECORD
  5
1F
100
AcDbSymbolTableRecord
100
AcDbBlockTableRecord
  2
*Model_Space
340
22
  0
BLOCK_RECORD
  5
1B
100
AcDbSymbolTableRecord
100
AcDbBlockTableRecord
  2
*Paper_Space
340
1E
  0
BLOCK_RECORD
  5
23
100
AcDbSymbolTableRecord
100
AcDbBlockTableRecord
  2
*Paper_Space0
340
26
  0
BLOCK_RECORD
  5
44
100
AcDbSymbolTableRecord
100
AcDbBlockTableRecord
  2
1010P
340
0
  0
BLOCK_RECORD
  5
45
100
AcDbSymbolTableRecord
100
AcDbBlockTableRecord
  2
2020P
340
0
  0
BLOCK_RECORD
  5
46
100
AcDbSymbolTableRecord
100
AcDbBlockTableRecord
  2
AVE_RENDER
340
0
  0
BLOCK_RECORD
  5
47
100
AcDbSymbolTableRecord
100
AcDbBlockTableRecord
  2
1020P
340
0
  0
BLOCK_RECORD
  5
48
100
AcDbSymbolTableRecord
100
AcDbBlockTableRecord
  2
1010
340
0
  0
BLOCK_RECORD
  5
49
100
AcDbSymbolTableRecord
100
AcDbBlockTableRecord
  2
1010-2D
340
0
  0
ENDTAB
  0
ENDSEC
  0
SECTION
  2
BLOCKS
  0
BLOCK
  5
20
100
AcDbEntity
  8
0
100
AcDbBlockBegin
  2
*Model_Space
 70
0
 10
0.0
 20
0.0
 30
0.0
  3
*Model_Space
  1

  0
ENDBLK
  5
21
100
AcDbEntity
  8
0
100
AcDbBlockEnd
  0
BLOCK
  5
1C
100
AcDbEntity
 67
1
  8
0
100
AcDbBlockBegin
  2
*Paper_Space
 70
0
 10
0.0
 20
0.0
 30
0.0
  3
*Paper_Space
  1

  0
ENDBLK
  5
1D
100
AcDbEntity
 67
1
  8
0
100
AcDbBlockEnd
  0
BLOCK
  5
24
100
AcDbEntity
  8
0
100
AcDbBlockBegin
  2
*Paper_Space0
 70
0
 10
0.0
 20
0.0
 30
0.0
  3
*Paper_Space0
  1

  0
ENDBLK
  5
25
100
AcDbEntity
  8
0
100
AcDbBlockEnd
  0
BLOCK
  5
4A
100
AcDbEntity
  8
0
100
AcDbBlockBegin
  2
1010P
 70
0
 10
0.0
 20
0.0
 30
0.0
  3
1010P
  1

  0
ARC
  5
4B
100
AcDbEntity
  8
0
 62
256
370
-1
  6
CONTINUOUS
100
AcDbCircle
 10
1.001323
 20
0.104615
 30
0.0
 40
0.02
100
AcDbArc
 50
90.0011369999999999
 51
270.0011289999999917
  0
LINE
  5
4C
100
AcDbEntity
100
AcDbLine
  8
0
 62
256
370
-1
  6
CONTINUOUS
 10
1.001323
 20
0.084615
 30
0.0
 11
1.001323
 21
0.083949
 31
0.0
  0
ARC
  5
4D
100
AcDbEntity
  8
0
 62
256
370
-1
  6
CONTINUOUS
100
AcDbCircle
 10
0.9179890000000001
 20
0.083949
 30
0.0
 40
0.083333
100
AcDbArc
 50
270.0
 51
0.00001
  0
LINE
  5
4E
100
AcDbEntity
100
AcDbLine
  8
0
 62
256
370
-1
  6
CONTINUOUS
 10
0.9179890000000001
 20
0.000615
 30
0.0
 11
0.917323
 21
0.000615
 31
0.0
  0
ARC
  5
4F
100
AcDbEntity
  8
0
 62
256
370
-1
  6
CONTINUOUS
100
AcDbCircle
 10
0.897321
 20
0.000615
 30
0.0
 40
0.02
100
AcDbArc
 50
0.0
 51
180.0
  0
LINE
  5
50
100
AcDbEntity
100
AcDbLine
  8
0
 62
256
370
-1
  6
CONTINUOUS
 10
0.877322
 20
0.000615
 30
0.0
 11
0.834656
 21
0.000615
 31
0.0
  0
LINE
  5
51
100
AcDbEntity
100
AcDbLine
  8
0
 62
256
370
-1
  6
CONTINUOUS
 10
0.834656
 20
0.000615
 30
0.0
 11
0.750644
 21
0.003549
 31
0.0
  0
ARC
  5
52
100
AcDbEntity
  8
0
 62
256
370
-1
  6
CONTINUOUS
100
AcDbCircle
 10
0.7306550000000001
 20
0.004247
 30
0.0
 40
0.02
100
AcDbArc
 50
358.0
 51
178.0
  0
ARC
  5
53
100
AcDbEntity
  8
0
 62
256
370
-1
  6
CONTINUOUS
100
AcDbCircle
 10
0.271985
 20
0.004247
 30
0.0
 40
0.02
100
AcDbArc
 50
2.0
 51
181.9999850000000094
  0
LINE
  5
54
100
AcDbEntity
100
AcDbLine
  8
0
 62
256
370
-1
  6
CONTINUOUS
 10
0.251998
 20
0.003549
 30
0.0
 11
0.167986
 21
0.000615
 31
0.0
  0
LINE
  5
55
100
AcDbEntity
100
AcDbLine
  8
0
 62
256
370
-1
  6
CONTINUOUS
 10
0.167986
 20
0.000615
 30
0.0
 11
0.125317
 21
0.000615
 31
0.0
  0
ARC
  5
56
100
AcDbEntity
  8
0
 62
256
370
-1
  6
CONTINUOUS
100
AcDbCircle
 10
0.105318
 20
0.000615
 30
0.0
 40
0.02
100
AcDbArc
 50
0.0
 51
180.0
  0
LINE
  5
57
100
AcDbEntity
100
AcDbLine
  8
0
 62
256
370
-1
  6
CONTINUOUS
 10
0.085319
 20
0.000615
 30
0.0
 11
0.084653
 21
0.000615
 31
0.0
  0
ARC
  5
58
100
AcDbEntity
  8
0
 62
256
370
-1
  6
CONTINUOUS
100
AcDbCircle
 10
0.084653
 20
0.083949
 30
0.0
 40
0.083333
100
AcDbArc
 50
180.0
 51
270.0
  0
LINE
  5
59
100
AcDbEntity
100
AcDbLine
  8
0
 62
256
370
-1
  6
CONTINUOUS
 10
0.001319
 20
0.083949
 30
0.0
 11
0.001319
 21
0.084615
 31
0.0
  0
ARC
  5
5A
100
AcDbEntity
  8
0
 62
256
370
-1
  6
CONTINUOUS
100
AcDbCircle
 10
0.001319
 20
0.104615
 30
0.0
 40
0.02
100
AcDbArc
 50
270.0
 51
90.000007999999994
  0
LINE
  5
5B
100
AcDbEntity
100
AcDbLine
  8
0
 62
256
370
-1
  6
CONTINUOUS
 10
0.001319
 20
0.124615
 30
0.0
 11
0.001319
 21
0.167282
 31
0.0
  0
LINE
  5
5C
100
AcDbEntity
100
AcDbLine
  8
0
 62
256
370
-1
  6
CONTINUOUS
 10
0.001319
 20
0.167282
 30
0.0
 11
0.004254
 21
0.251295
 31
0.0
  0
ARC
  5
5D
100
AcDbEntity
  8
0
 62
256
370
-1
  6
CONTINUOUS
100
AcDbCircle
 10
0.004951
 20
0.271282
 30
0.0
 40
0.02
100
AcDbArc
 50
268.0
 51
88.0
  0
ARC
  5
5E
100
AcDbEntity
  8
0
 62
256
370
-1
  6
CONTINUOUS
100
AcDbCircle
 10
0.004951
 20
0.729951
 30
0.0
 40
0.02
100
AcDbArc
 50
272.0
 51
91.999992000000006
  0
LINE
  5
5F
100
AcDbEntity
100
AcDbLine
  8
0
 62
256
370
-1
  6
CONTINUOUS
 10
0.004254
 20
0.7499400000000001
 30
0.0
 11
0.001319
 21
0.833951
 31
0.0
  0
LINE
  5
60
100
AcDbEntity
100
AcDbLine
  8
0
 62
256
370
-1
  6
CONTINUOUS
 10
0.001319
 20
0.833951
 30
0.0
 11
0.001319
 21
0.876618
 31
0.0
  0
ARC
  5
61
100
AcDbEntity
  8
0
 62
256
370
-1
  6
CONTINUOUS
100
AcDbCircle
 10
0.001319
 20
0.896617
 30
0.0
 40
0.02
100
AcDbArc
 50
270.0
 51
90.000007999999994
  0
LINE
  5
62
100
AcDbEntity
100
AcDbLine
  8
0
 62
256
370
-1
  6
CONTINUOUS
 10
0.001319
 20
0.916617
 30
0.0
 11
0.001319
 21
0.917283
 31
0.0
  0
ARC
  5
63
100
AcDbEntity
  8
0
 62
256
370
-1
  6
CONTINUOUS
100
AcDbCircle
 10
0.084653
 20
0.917283
 30
0.0
 40
0.083333
100
AcDbArc
 50
90.0011369999999999
 51
180.0011440000000107
  0
LINE
  5
64
100
AcDbEntity
100
AcDbLine
  8
0
 62
256
370
-1
  6
CONTINUOUS
 10
0.084653
 20
1.000615
 30
0.0
 11
0.085319
 21
1.000615
 31
0.0
  0
ARC
  5
65
100
AcDbEntity
  8
0
 62
256
370
-1
  6
CONTINUOUS
100
AcDbCircle
 10
0.105318
 20
1.000615
 30
0.0
 40
0.02
100
AcDbArc
 50
180.0
 51
0.0
  0
LINE
  5
66
100
AcDbEntity
100
AcDbLine
  8
0
 62
256
370
-1
  6
CONTINUOUS
 10
0.125317
 20
1.000615
 30
0.0
 11
0.167986
 21
1.000615
 31
0.0
  0
LINE
  5
67
100
AcDbEntity
100
AcDbLine
  8
0
 62
256
370
-1
  6
CONTINUOUS
 10
0.167986
 20
1.000615
 30
0.0
 11
0.251998
 21
0.997682
 31
0.0
  0
ARC
  5
68
100
AcDbEntity
  8
0
 62
256
370
-1
  6
CONTINUOUS
100
AcDbCircle
 10
0.271985
 20
0.996984
 30
0.0
 40
0.02
100
AcDbArc
 50
178.0
 51
358.0
  0
ARC
  5
69
100
AcDbEntity
  8
0
 62
256
370
-1
  6
CONTINUOUS
100
AcDbCircle
 10
0.7306550000000001
 20
0.996984
 30
0.0
 40
0.02
100
AcDbArc
 50
182.0
 51
1.9999990000000001
  0
LINE
  5
6A
100
AcDbEntity
100
AcDbLine
  8
0
 62
256
370
-1
  6
CONTINUOUS
 10
0.750644
 20
0.997682
 30
0.0
 11
0.834656
 21
1.000615
 31
0.0
  0
LINE
  5
6B
100
AcDbEntity
100
AcDbLine
  8
0
 62
256
370
-1
  6
CONTINUOUS
 10
0.834656
 20
1.000615
 30
0.0
 11
0.877322
 21
1.000615
 31
0.0
  0
ARC
  5
6C
100
AcDbEntity
  8
0
 62
256
370
-1
  6
CONTINUOUS
100
AcDbCircle
 10
0.897321
 20
1.000615
 30
0.0
 40
0.02
100
AcDbArc
 50
180.0
 51
0.0
  0
LINE
  5
6D
100
AcDbEntity
100
AcDbLine
  8
0
 62
256
370
-1
  6
CONTINUOUS
 10
0.917323
 20
1.000615
 30
0.0
 11
0.9179890000000001
 21
1.000615
 31
0.0
  0
ARC
  5
6E
100
AcDbEntity
  8
0
 62
256
370
-1
  6
CONTINUOUS
100
AcDbCircle
 10
0.9179890000000001
 20
0.917283
 30
0.0
 40
0.083333
100
AcDbArc
 50
0.0
 51
90.0
  0
LINE
  5
6F
100
AcDbEntity
100
AcDbLine
  8
0
 62
256
370
-1
  6
CONTINUOUS
 10
1.001323
 20
0.917283
 30
0.0
 11
1.001323
 21
0.916617
 31
0.0
  0
ARC
  5
70
100
AcDbEntity
  8
0
 62
256
370
-1
  6
CONTINUOUS
100
AcDbCircle
 10
1.001323
 20
0.896617
 30
0.0
 40
0.02
100
AcDbArc
 50
90.0011369999999999
 51
270.0011289999999917
  0
LINE
  5
71
100
AcDbEntity
100
AcDbLine
  8
0
 62
256
370
-1
  6
CONTINUOUS
 10
1.001323
 20
0.876618
 30
0.0
 11
1.001323
 21
0.833951
 31
0.0
  0
LINE
  5
72
100
AcDbEntity
100
AcDbLine
  8
0
 62
256
370
-1
  6
CONTINUOUS
 10
1.001323
 20
0.833951
 30
0.0
 11
0.9983880000000001
 21
0.7499400000000001
 31
0.0
  0
ARC
  5
73
100
AcDbEntity
  8
0
 62
256
370
-1
  6
CONTINUOUS
100
AcDbCircle
 10
0.997691
 20
0.729951
 30
0.0
 40
0.02
100
AcDbArc
 50
88.0
 51
268.0000309999999786
  0
ARC
  5
74
100
AcDbEntity
  8
0
 62
256
370
-1
  6
CONTINUOUS
100
AcDbCircle
 10
0.997691
 20
0.271282
 30
0.0
 40
0.02
100
AcDbArc
 50
92.0011290000000059
 51
272.0011289999999917
  0
LINE
  5
75
100
AcDbEntity
100
AcDbLine
  8
0
 62
256
370
-1
  6
CONTINUOUS
 10
0.9983880000000001
 20
0.251295
 30
0.0
 11
1.001323
 21
0.167282
 31
0.0
  0
LINE
  5
76
100
AcDbEntity
100
AcDbLine
  8
0
 62
256
370
-1
  6
CONTINUOUS
 10
1.001323
 20
0.167282
 30
0.0
 11
1.001323
 21
0.124615
 31
0.0
  0
CIRCLE
  5
77
100
AcDbEntity
100
AcDbCircle
  8
0
 62
256
370
-1
  6
CONTINUOUS
 10
0.501321
 20
0.5006159999999999
 30
0.0
 40
0.1005
  0
ARC
  5
78
100
AcDbEntity
  8
0
 62
256
370
-1
  6
CONTINUOUS
100
AcDbCircle
 10
0.437379
 20
0.8026180000000001
 30
0.0
 40
0.125
100
AcDbArc
 50
225.0007319999999993
 51
270.0000309999999786
  0
LINE
  5
79
100
AcDbEntity
100
AcDbLine
  8
0
 62
256
370
-1
  6
CONTINUOUS
 10
0.501322
 20
0.6776180000000001
 30
0.0
 11
0.437379
 21
0.6776180000000001
 31
0.0
  0
LINE
  5
7A
100
AcDbEntity
100
AcDbLine
  8
0
 62
256
370
-1
  6
CONTINUOUS
 10
0.303048
 20
0.760171
 30
0.0
 11
0.348991
 21
0.714229
 31
0.0
  0
ARC
  5
7B
100
AcDbEntity
  8
0
 62
256
370
-1
  6
CONTINUOUS
100
AcDbCircle
 10
0.198986
 20
0.564889
 30
0.0
 40
0.125
100
AcDbArc
 50
0.0
 51
44.9995380000000011
  0
LINE
  5
7C
100
AcDbEntity
100
AcDbLine
  8
0
 62
256
370
-1
  6
CONTINUOUS
 10
0.323986
 20
0.500614
 30
0.0
 11
0.323986
 21
0.564889
 31
0.0
  0
ARC
  5
7D
100
AcDbEntity
  8
0
 62
256
370
-1
  6
CONTINUOUS
100
AcDbCircle
 10
0.565263
 20
0.8026180000000001
 30
0.0
 40
0.125
100
AcDbArc
 50
270.0000309999999786
 51
315.0000309999999786
  0
LINE
  5
7E
100
AcDbEntity
100
AcDbLine
  8
0
 62
256
370
-1
  6
CONTINUOUS
 10
0.501322
 20
0.6776180000000001
 30
0.0
 11
0.565263
 21
0.6776180000000001
 31
0.0
  0
ARC
  5
7F
100
AcDbEntity
  8
0
 62
256
370
-1
  6
CONTINUOUS
100
AcDbCircle
 10
0.803655
 20
0.5648879999999999
 30
0.0
 40
0.125
100
AcDbArc
 50
135.000977000000006
 51
179.9999850000000094
  0
LINE
  5
80
100
AcDbEntity
100
AcDbLine
  8
0
 62
256
370
-1
  6
CONTINUOUS
 10
0.678655
 20
0.500614
 30
0.0
 11
0.678655
 21
0.5648879999999999
 31
0.0
  0
ARC
  5
81
100
AcDbEntity
  8
0
 62
256
370
-1
  6
CONTINUOUS
100
AcDbCircle
 10
0.803655
 20
0.436342
 30
0.0
 40
0.125
100
AcDbArc
 50
180.000031000000007
 51
225.0000459999999975
  0
LINE
  5
82
100
AcDbEntity
100
AcDbLine
  8
0
 62
256
370
-1
  6
CONTINUOUS
 10
0.678655
 20
0.500614
 30
0.0
 11
0.678655
 21
0.436342
 31
0.0
  0
ARC
  5
83
100
AcDbEntity
  8
0
 62
256
370
-1
  6
CONTINUOUS
100
AcDbCircle
 10
0.198986
 20
0.436342
 30
0.0
 40
0.125
100
AcDbArc
 50
315.0000610000000165
 51
0.000034
  0
LINE
  5
84
100
AcDbEntity
100
AcDbLine
  8
0
 62
256
370
-1
  6
CONTINUOUS
 10
0.323986
 20
0.500614
 30
0.0
 11
0.323986
 21
0.436342
 31
0.0
  0
LINE
  5
85
100
AcDbEntity
100
AcDbLine
  8
0
 62
256
370
-1
  6
CONTINUOUS
 10
0.653652
 20
0.71423
 30
0.0
 11
0.779407
 21
0.839985
 31
0.0
  0
LINE
  5
86
100
AcDbEntity
100
AcDbLine
  8
0
 62
256
370
-1
  6
CONTINUOUS
 10
0.715267
 20
0.347953
 30
0.0
 11
0.840689
 21
0.222531
 31
0.0
  0
ARC
  5
87
100
AcDbEntity
  8
0
 62
256
370
-1
  6
CONTINUOUS
100
AcDbCircle
 10
0.437376
 20
0.198616
 30
0.0
 40
0.125
100
AcDbArc
 50
90.0002139999999997
 51
135.000518999999997
  0
LINE
  5
88
100
AcDbEntity
100
AcDbLine
  8
0
 62
256
370
-1
  6
CONTINUOUS
 10
0.223233
 20
0.161249
 30
0.0
 11
0.348987
 21
0.287004
 31
0.0
  0
LINE
  5
89
100
AcDbEntity
100
AcDbLine
  8
0
 62
256
370
-1
  6
CONTINUOUS
 10
0.501322
 20
0.323616
 30
0.0
 11
0.437376
 21
0.323616
 31
0.0
  0
ARC
  5
8A
100
AcDbEntity
  8
0
 62
256
370
-1
  6
CONTINUOUS
100
AcDbCircle
 10
0.565263
 20
0.198616
 30
0.0
 40
0.125
100
AcDbArc
 50
44.9997060000000033
 51
90.000007999999994
  0
LINE
  5
8B
100
AcDbEntity
100
AcDbLine
  8
0
 62
256
370
-1
  6
CONTINUOUS
 10
0.501322
 20
0.323616
 30
0.0
 11
0.565263
 21
0.323616
 31
0.0
  0
LINE
  5
8C
100
AcDbEntity
100
AcDbLine
  8
0
 62
256
370
-1
  6
CONTINUOUS
 10
0.779405
 20
0.161249
 30
0.0
 11
0.653652
 21
0.287004
 31
0.0
  0
LINE
  5
8D
100
AcDbEntity
100
AcDbLine
  8
0
 62
256
370
-1
  6
CONTINUOUS
 10
0.287375
 20
0.653277
 30
0.0
 11
0.159116
 21
0.781538
 31
0.0
  0
LINE
  5
8E
100
AcDbEntity
100
AcDbLine
  8
0
 62
256
370
-1
  6
CONTINUOUS
 10
0.287374
 20
0.347953
 30
0.0
 11
0.159116
 21
0.219694
 31
0.0
  0
ARC
  5
8F
100
AcDbEntity
  8
0
 62
256
370
-1
  6
CONTINUOUS
100
AcDbCircle
 10
0.130831
 20
0.753254
 30
0.0
 40
0.04
100
AcDbArc
 50
44.999572999999998
 51
182.0003049999999973
  0
ARC
  5
90
100
AcDbEntity
  8
0
 62
256
370
-1
  6
CONTINUOUS
100
AcDbCircle
 10
0.130831
 20
0.247979
 30
0.0
 40
0.04
100
AcDbArc
 50
177.9997099999999932
 51
315.0
  0
ARC
  5
91
100
AcDbEntity
  8
0
 62
256
370
-1
  6
CONTINUOUS
100
AcDbCircle
 10
0.248682
 20
0.130127
 30
0.0
 40
0.04
100
AcDbArc
 50
134.999572999999998
 51
272.0003050000000258
  0
ARC
  5
92
100
AcDbEntity
  8
0
 62
256
370
-1
  6
CONTINUOUS
100
AcDbCircle
 10
0.753958
 20
0.130127
 30
0.0
 40
0.04
100
AcDbArc
 50
267.9997250000000122
 51
45.0
  0
ARC
  5
93
100
AcDbEntity
  8
0
 62
256
370
-1
  6
CONTINUOUS
100
AcDbCircle
 10
0.87181
 20
0.247977
 30
0.0
 40
0.04
100
AcDbArc
 50
224.9995879999999886
 51
2.000327
  0
ARC
  5
94
100
AcDbEntity
  8
0
 62
256
370
-1
  6
CONTINUOUS
100
AcDbCircle
 10
0.87181
 20
0.753253
 30
0.0
 40
0.04
100
AcDbArc
 50
357.9997250000000122
 51
135.0000149999999906
  0
ARC
  5
95
100
AcDbEntity
  8
0
 62
256
370
-1
  6
CONTINUOUS
100
AcDbCircle
 10
0.753959
 20
0.871104
 30
0.0
 40
0.04
100
AcDbArc
 50
314.999572999999998
 51
92.0003200000000021
  0
ARC
  5
96
100
AcDbEntity
  8
0
 62
256
370
-1
  6
CONTINUOUS
100
AcDbCircle
 10
0.248683
 20
0.871104
 30
0.0
 40
0.04
100
AcDbArc
 50
87.9997099999999932
 51
225.0
  0
LINE
  5
97
100
AcDbEntity
100
AcDbLine
  8
0
 62
256
370
-1
  6
CONTINUOUS
 10
0.303048
 20
0.760171
 30
0.0
 11
0.2204
 21
0.842821
 31
0.0
  0
LINE
  5
98
100
AcDbEntity
100
AcDbLine
  8
0
 62
256
370
-1
  6
CONTINUOUS
 10
0.291974
 20
0.996286
 30
0.0
 11
0.333931
 21
0.994094
 31
0.0
  0
ARC
  5
99
100
AcDbEntity
  8
0
 62
256
370
-1
  6
CONTINUOUS
100
AcDbCircle
 10
0.332489
 20
0.952785
 30
0.0
 40
0.041333
100
AcDbArc
 50
0.0
 51
88.0
  0
ARC
  5
9A
100
AcDbEntity
  8
0
 62
256
370
-1
  6
CONTINUOUS
100
AcDbCircle
 10
0.332489
 20
0.948833
 30
0.0
 40
0.041333
100
AcDbArc
 50
268.0000309999999786
 51
0.000037
  0
LINE
  5
9B
100
AcDbEntity
100
AcDbLine
  8
0
 62
256
370
-1
  6
CONTINUOUS
 10
0.331048
 20
0.907525
 30
0.0
 11
0.25008
 21
0.91108
 31
0.0
  0
LINE
  5
9C
100
AcDbEntity
100
AcDbLine
  8
0
 62
256
370
-1
  6
CONTINUOUS
 10
0.373822
 20
0.948834
 30
0.0
 11
0.373822
 21
0.952786
 31
0.0
  0
ARC
  5
9D
100
AcDbEntity
  8
0
 62
256
370
-1
  6
CONTINUOUS
100
AcDbCircle
 10
0.04915
 20
0.669447
 30
0.0
 40
0.041333
100
AcDbArc
 50
182.0009310000000085
 51
270.000945999999999
  0
LINE
  5
9E
100
AcDbEntity
100
AcDbLine
  8
0
 62
256
370
-1
  6
CONTINUOUS
 10
0.007842
 20
0.668003
 30
0.0
 11
0.00565
 21
0.709963
 31
0.0
  0
ARC
  5
9F
100
AcDbEntity
  8
0
 62
256
370
-1
  6
CONTINUOUS
100
AcDbCircle
 10
0.053103
 20
0.669447
 30
0.0
 40
0.041333
100
AcDbArc
 50
270.0000309999999786
 51
2.0000119999999999
  0
LINE
  5
A0
100
AcDbEntity
100
AcDbLine
  8
0
 62
256
370
-1
  6
CONTINUOUS
 10
0.053103
 20
0.628114
 30
0.0
 11
0.04915
 21
0.628114
 31
0.0
  0
LINE
  5
A1
100
AcDbEntity
100
AcDbLine
  8
0
 62
256
370
-1
  6
CONTINUOUS
 10
0.094411
 20
0.670889
 30
0.0
 11
0.090856
 21
0.751858
 31
0.0
  0
LINE
  5
A2
100
AcDbEntity
100
AcDbLine
  8
0
 62
256
370
-1
  6
CONTINUOUS
 10
0.00565
 20
0.29127
 30
0.0
 11
0.007842
 21
0.333227
 31
0.0
  0
ARC
  5
A3
100
AcDbEntity
  8
0
 62
256
370
-1
  6
CONTINUOUS
100
AcDbCircle
 10
0.04915
 20
0.331785
 30
0.0
 40
0.041333
100
AcDbArc
 50
90.0002139999999997
 51
178.0002139999999997
  0
LINE
  5
A4
100
AcDbEntity
100
AcDbLine
  8
0
 62
256
370
-1
  6
CONTINUOUS
 10
0.04915
 20
0.373121
 30
0.0
 11
0.053103
 21
0.373121
 31
0.0
  0
ARC
  5
A5
100
AcDbEntity
  8
0
 62
256
370
-1
  6
CONTINUOUS
100
AcDbCircle
 10
0.053103
 20
0.331785
 30
0.0
 40
0.041333
100
AcDbArc
 50
358.0000309999999786
 51
90.0000229999999988
  0
LINE
  5
A6
100
AcDbEntity
100
AcDbLine
  8
0
 62
256
370
-1
  6
CONTINUOUS
 10
0.094411
 20
0.330343
 30
0.0
 11
0.090856
 21
0.249375
 31
0.0
  0
ARC
  5
A7
100
AcDbEntity
  8
0
 62
256
370
-1
  6
CONTINUOUS
100
AcDbCircle
 10
0.332489
 20
0.048445
 30
0.0
 40
0.041333
100
AcDbArc
 50
272.0
 51
0.00001
  0
LINE
  5
A8
100
AcDbEntity
100
AcDbLine
  8
0
 62
256
370
-1
  6
CONTINUOUS
 10
0.333931
 20
0.007137
 30
0.0
 11
0.291974
 21
0.004945
 31
0.0
  0
ARC
  5
A9
100
AcDbEntity
  8
0
 62
256
370
-1
  6
CONTINUOUS
100
AcDbCircle
 10
0.332488
 20
0.052398
 30
0.0
 40
0.041333
100
AcDbArc
 50
0.000031
 51
92.0000150000000048
  0
LINE
  5
AA
100
AcDbEntity
100
AcDbLine
  8
0
 62
256
370
-1
  6
CONTINUOUS
 10
0.373822
 20
0.052398
 30
0.0
 11
0.373822
 21
0.048446
 31
0.0
  0
LINE
  5
AB
100
AcDbEntity
100
AcDbLine
  8
0
 62
256
370
-1
  6
CONTINUOUS
 10
0.331047
 20
0.093707
 30
0.0
 11
0.250078
 21
0.090151
 31
0.0
  0
LINE
  5
AC
100
AcDbEntity
100
AcDbLine
  8
0
 62
256
370
-1
  6
CONTINUOUS
 10
0.710668
 20
0.004945
 30
0.0
 11
0.668708
 21
0.007137
 31
0.0
  0
ARC
  5
AD
100
AcDbEntity
  8
0
 62
256
370
-1
  6
CONTINUOUS
100
AcDbCircle
 10
0.670153
 20
0.048445
 30
0.0
 40
0.041333
100
AcDbArc
 50
180.0
 51
268.0
  0
ARC
  5
AE
100
AcDbEntity
  8
0
 62
256
370
-1
  6
CONTINUOUS
100
AcDbCircle
 10
0.670152
 20
0.052398
 30
0.0
 40
0.041333
100
AcDbArc
 50
88.0000229999999988
 51
180.0000149999999906
  0
LINE
  5
AF
100
AcDbEntity
100
AcDbLine
  8
0
 62
256
370
-1
  6
CONTINUOUS
 10
0.671593
 20
0.093707
 30
0.0
 11
0.752561
 21
0.090151
 31
0.0
  0
ARC
  5
B0
100
AcDbEntity
  8
0
 62
256
370
-1
  6
CONTINUOUS
100
AcDbCircle
 10
0.953491
 20
0.331785
 30
0.0
 40
0.041333
100
AcDbArc
 50
2.0
 51
90.0
  0
LINE
  5
B1
100
AcDbEntity
100
AcDbLine
  8
0
 62
256
370
-1
  6
CONTINUOUS
 10
0.994799
 20
0.333229
 30
0.0
 11
0.996992
 21
0.29127
 31
0.0
  0
ARC
  5
B2
100
AcDbEntity
  8
0
 62
256
370
-1
  6
CONTINUOUS
100
AcDbCircle
 10
0.949539
 20
0.331784
 30
0.0
 40
0.041333
100
AcDbArc
 50
90.000243999999995
 51
182.0002289999999903
  0
LINE
  5
B3
100
AcDbEntity
100
AcDbLine
  8
0
 62
256
370
-1
  6
CONTINUOUS
 10
0.949539
 20
0.373118
 30
0.0
 11
0.953491
 21
0.373118
 31
0.0
  0
LINE
  5
B4
100
AcDbEntity
100
AcDbLine
  8
0
 62
256
370
-1
  6
CONTINUOUS
 10
0.90823
 20
0.330343
 30
0.0
 11
0.911785
 21
0.249374
 31
0.0
  0
LINE
  5
B5
100
AcDbEntity
100
AcDbLine
  8
0
 62
256
370
-1
  6
CONTINUOUS
 10
0.996992
 20
0.709963
 30
0.0
 11
0.994799
 21
0.668004
 31
0.0
  0
ARC
  5
B6
100
AcDbEntity
  8
0
 62
256
370
-1
  6
CONTINUOUS
100
AcDbCircle
 10
0.953491
 20
0.669446
 30
0.0
 40
0.041333
100
AcDbArc
 50
270.0
 51
358.0
  0
ARC
  5
B7
100
AcDbEntity
  8
0
 62
256
370
-1
  6
CONTINUOUS
100
AcDbCircle
 10
0.949539
 20
0.669447
 30
0.0
 40
0.041333
100
AcDbArc
 50
178.000031000000007
 51
270.0000309999999786
  0
LINE
  5
B8
100
AcDbEntity
100
AcDbLine
  8
0
 62
256
370
-1
  6
CONTINUOUS
 10
0.90823
 20
0.670888
 30
0.0
 11
0.911785
 21
0.751856
 31
0.0
  0
ARC
  5
B9
100
AcDbEntity
  8
0
 62
256
370
-1
  6
CONTINUOUS
100
AcDbCircle
 10
0.670107
 20
0.952785
 30
0.0
 40
0.041333
100
AcDbArc
 50
92.0011290000000059
 51
180.0011440000000107
  0
LINE
  5
BA
100
AcDbEntity
100
AcDbLine
  8
0
 62
256
370
-1
  6
CONTINUOUS
 10
0.668662
 20
0.994094
 30
0.0
 11
0.710668
 21
0.996286
 31
0.0
  0
ARC
  5
BB
100
AcDbEntity
  8
0
 62
256
370
-1
  6
CONTINUOUS
100
AcDbCircle
 10
0.670107
 20
0.948833
 30
0.0
 40
0.041333
100
AcDbArc
 50
180.000031000000007
 51
272.0000309999999786
  0
LINE
  5
BC
100
AcDbEntity
100
AcDbLine
  8
0
 62
256
370
-1
  6
CONTINUOUS
 10
0.628773
 20
0.948833
 30
0.0
 11
0.628773
 21
0.952785
 31
0.0
  0
LINE
  5
BD
100
AcDbEntity
100
AcDbLine
  8
0
 62
256
370
-1
  6
CONTINUOUS
 10
0.671548
 20
0.907525
 30
0.0
 11
0.752563
 21
0.91108
 31
0.0
  0
LINE
  5
BE
100
AcDbEntity
100
AcDbLine
  8
0
 62
256
370
-1
  6
CONTINUOUS
 10
0.628818
 20
0.052398
 30
0.0
 11
0.628819
 21
0.048445
 31
0.0
  0
LINE
  5
BF
100
AcDbEntity
100
AcDbLine
  8
0
 62
256
370
-1
  6
CONTINUOUS
 10
0.715265
 20
0.653274
 30
0.0
 11
0.8435240000000001
 21
0.781538
 31
0.0
  0
ENDBLK
  5
C0
100
AcDbEntity
  8
0
100
AcDbBlockEnd
  0
BLOCK
  5
C1
100
AcDbEntity
  8
0
100
AcDbBlockBegin
  2
2020P
 70
0
 10
0.0
 20
0.0
 30
0.0
  3
2020P
  1

  0
LWPOLYLINE
  5
C2
  8
0
 62
256
370
-1
  6
CONTINUOUS
100
AcDbEntity
100
AcDbPolyline
 90
33
 70
1
 10
0.927104
 20
1.831196
 10
0.725805
 20
1.62944
 42
0.1989120000038328
 10
0.688661
 20
1.53976699999813
 10
0.688661
 20
1.471786
 42
-0.4142140000030903
 10
0.561844
 20
1.3449679999999999
 10
0.493863
 20
1.3449679999999999
 42
0.1989119999999997
 10
0.4041890000000001
 20
1.3078240000000001
 10
0.202318
 20
1.106409
 42
0.4118259999999999
 10
0.2021999999999999
 20
0.926023
 10
0.403615
 20
0.724608
 42
0.1989120000000001
 10
0.4932879999999998
 20
0.6874639999999999
 10
0.561269
 20
0.687464
 42
-0.4142139999756774
 10
0.688086
 20
0.5606470000105312
 10
0.688086
 20
0.492666
 42
0.1989120000464487
 10
0.72523
 20
0.402992
 10
0.926986
 20
0.201237
 42
0.4139420000000001
 10
1.1064510000000001
 20
0.2012369999999999
 10
1.3082050000000001
 20
0.402991
 42
0.1989120000038319
 10
1.3453489999999997
 20
0.4926640000018698
 10
1.3453489999999999
 20
0.560647
 42
-0.414213999963516
 10
1.4721660000000001
 20
0.6874640000000002
 10
1.5401480000000001
 20
0.687464
 42
0.1989120000000001
 10
1.629821
 20
0.7246079999999999
 10
1.8312360000000001
 20
0.926023
 42
0.4146040000000001
 10
1.8312360000000001
 20
1.1052010000000001
 10
1.629821
 20
1.306616
 42
0.1989119999999998
 10
1.5401480000000001
 20
1.3437600000000001
 10
1.4721660000000001
 20
1.3437600000000001
 42
-0.4142139999756771
 10
1.3453490000000001
 20
1.4705769999894689
 10
1.3453489999999999
 20
1.538559
 42
0.1989120000464482
 10
1.3082050000000001
 20
1.628233
 10
1.1064510000000001
 20
1.8301559999999999
 42
0.4142069999999997
 10
0.9271039999999994
 20
1.8311950000000006
 42
-16331239353195370.0
  0
LWPOLYLINE
  5
C3
  8
0
 62
256
370
-1
  6
CONTINUOUS
100
AcDbEntity
100
AcDbPolyline
 90
241
 70
1
 10
-0.000015
 20
1.949036
 42
-0.9999330000011174
 10
-0.000017
 20
1.9083460000000001
 10
-0.000017
 20
1.8644449999999999
 10
0.002967
 20
1.7789839999999999
 42
-0.9999330000010646
 10
0.004388
 20
1.7383190000000002
 10
0.006618
 20
1.674447
 42
0.4040269999999991
 10
0.048639
 20
1.6338680000000003
 10
0.073067
 20
1.6338680000000001
 42
0.4244730000000007
 10
0.115088
 20
1.6773819999999999
 10
0.111664
 20
1.775455
 42
-0.4244729999999987
 10
0.135385
 20
1.8000189999999998
 10
0.147393
 20
1.800019
 42
-0.1989119999999996
 10
0.164177
 20
1.793067
 10
0.291411
 20
1.6658329999999999
 42
-0.1989130000295838
 10
0.328555
 20
1.5761599999855644
 10
0.328555
 20
1.4745630000000001
 42
-0.1989120000057489
 10
0.2914109999999999
 20
1.38489
 10
0.164177
 20
1.257655
 42
-0.1989119999999994
 10
0.147393
 20
1.2507029999999999
 10
0.134674
 20
1.2507029999999999
 42
-0.4244739999999964
 10
0.110953
 20
1.2752669999999999
 10
0.114377
 20
1.3733409999999999
 42
0.4244740000000002
 10
0.072356
 20
1.416855
 10
0.047928
 20
1.416855
 42
0.4040229999999985
 10
0.005908
 20
1.3762760000000001
 10
0.003677
 20
1.312405
 42
-0.9999330000018617
 10
0.002256
 20
1.271739
 10
-0.001184
 20
1.1862779999999999
 10
-0.001184
 20
1.1428750000000001
 42
-0.9999330000010366
 10
-0.001184
 20
1.102185
 10
-0.001302
 20
0.930247
 42
-0.9999330000012182
 10
-0.001299
 20
0.8895569999999999
 10
-0.001302
 20
0.846155
 10
0.001682
 20
0.760693
 42
-0.9999329999992879
 10
0.003102
 20
0.720028
 10
0.005333
 20
0.656156
 42
0.4040230000000012
 10
0.047354
 20
0.615578
 10
0.071782
 20
0.615578
 42
0.4244749999999995
 10
0.113803
 20
0.659092
 10
0.110378
 20
0.757165
 42
-0.4244750000000013
 10
0.134099
 20
0.781729
 10
0.146818
 20
0.781729
 42
-0.1989120000000009
 10
0.1636020000000001
 20
0.7747770000000002
 10
0.290837
 20
0.647543
 42
-0.1989120000309657
 10
0.327981
 20
0.5578689999848898
 10
0.327981
 20
0.456381
 42
-0.2081100000127607
 10
0.287614
 20
0.363596
 10
0.163617
 20
0.23938
 42
-0.205112
 10
0.147393
 20
0.232413
 10
0.135385
 20
0.232413
 42
-0.424473000000001
 10
0.111664
 20
0.2569770000000001
 10
0.115088
 20
0.355051
 42
0.4244729999999997
 10
0.073067
 20
0.398564
 10
0.048638
 20
0.398564
 42
0.4040319999999992
 10
0.006617
 20
0.3579840000000001
 10
0.004388
 20
0.294114
 42
-0.9999330000010646
 10
0.002967
 20
0.253449
 10
-0.000017
 20
0.168528
 10
-0.000017
 20
0.125125
 42
-0.9999330000001401
 10
-0.000015
 20
0.084435
 42
0.416565999999992
 10
0.084685
 20
-0.000388
 42
-0.9999330000002609
 10
0.125375
 20
-0.0004510000000021
 10
0.168202
 20
-0.000515
 10
0.253668
 20
0.002344
 42
-0.9999330000009522
 10
0.294335
 20
0.003705
 10
0.35821
 20
0.005842
 42
0.4040270000000024
 10
0.39885
 20
0.0478030000000004
 10
0.398886
 20
0.072231
 42
0.4244730000000109
 10
0.355435
 20
0.114315
 10
0.257356
 20
0.111036
 42
-0.4244730000000099
 10
0.232827
 20
0.1347930000000007
 10
0.232845
 20
0.146801
 42
-0.1989119999999948
 10
0.239822
 20
0.163574
 10
0.367243
 20
0.290081
 42
-0.198913
 10
0.456971
 20
0.327093
 10
0.558567
 20
0.326944
 42
-0.1989119999999998
 10
0.648185
 20
0.289668
 10
0.7752329999999999
 20
0.162246
 42
-0.1989119999999975
 10
0.7821599999999999
 20
0.1454520000000002
 10
0.782142
 20
0.132733
 42
-0.4244739999999971
 10
0.757543
 20
0.109048
 10
0.659474
 20
0.112617
 42
0.4244739999999956
 10
0.615899
 20
0.0706600000000005
 10
0.615863
 20
0.046232
 42
0.4040230000000191
 10
0.656379
 20
0.004152
 10
0.720248
 20
0.001827
 42
-0.9999329999991489
 10
0.7609109999999999
 20
0.000347
 10
0.846368
 20
-0.002763
 10
0.8897699999999999
 20
-0.002827
 42
-0.9999330000011085
 10
0.9304600000000001
 20
-0.0028860000000002
 10
1.1014759999999999
 20
-0.003138
 42
-0.9999330000003425
 10
1.142166
 20
-0.0031950000000013
 10
1.1855690000000001
 20
-0.003261
 10
1.2710349999999999
 20
-0.000403
 42
-0.9999330000016048
 10
1.3117019999999999
 20
0.000957
 10
1.375577
 20
0.003094
 42
0.4040230000000051
 10
1.4162170000000003
 20
0.0450550000000004
 10
1.416253
 20
0.069483
 42
0.4244749999999837
 10
1.3728009999999999
 20
0.111568
 10
1.2747230000000001
 20
0.108287
 42
-0.4244750000000186
 10
1.2501930000000001
 20
0.1320450000000016
 10
1.2502120000000001
 20
0.144764
 42
-0.198911999999991
 10
1.2571889999999999
 20
0.161537
 10
1.384611
 20
0.288585
 42
-0.198912
 10
1.4743390000000001
 20
0.325597
 10
1.5758270000000001
 20
0.325448
 42
-0.20811
 10
1.668552
 20
0.284944
 10
1.792586
 20
0.163799
 42
-0.1991429999999896
 10
1.799528
 20
0.146990000000001
 10
1.7995110000000001
 20
0.134982
 42
-0.4244730000000083
 10
1.774912
 20
0.111297
 10
1.6768430000000001
 20
0.114866
 42
0.4244729999999898
 10
1.6332669999999998
 20
0.0729090000000016
 10
1.633232
 20
0.048479
 42
0.4040320000000304
 10
1.6737500000000001
 20
0.006399
 10
1.737617
 20
0.004076
 42
-0.9999329999994446
 10
1.7782799999999999
 20
0.002595
 10
1.864193
 20
-0.000515
 10
1.9075960000000001
 20
-0.000579
 42
-0.9999330000003425
 10
1.9482860000000002
 20
-0.0006359999999998
 42
0.4290749999999985
 10
2.0344820000000001
 20
0.0869289999999997
 42
-0.9999330000011214
 10
2.034484
 20
0.127619
 10
2.034484
 20
0.167987
 10
2.0314999999999999
 20
0.253449
 42
-0.9999330000000957
 10
2.0300790000000002
 20
0.294114
 10
2.0278499999999999
 20
0.357984
 42
0.4040319999999967
 10
1.9858290000000001
 20
0.398564
 10
1.9614
 20
0.398564
 42
0.4244729999999988
 10
1.9193789999999999
 20
0.3550510000000002
 10
1.922803
 20
0.256977
 42
-0.424473000000001
 10
1.8990819999999999
 20
0.232413
 10
1.8870739999999999
 20
0.232413
 42
-0.1991430000000003
 10
1.870276
 20
0.2393799999999999
 10
1.745822
 20
0.363596
 42
-0.2081100000085068
 10
1.7054550000000002
 20
0.4563810000041363
 10
1.7054549999999999
 20
0.5578689999999999
 42
-0.1989120000464489
 10
1.742599
 20
0.647543
 10
1.869834
 20
0.774777
 42
-0.1989120000000012
 10
1.8866179999999999
 20
0.7817290000000001
 10
1.8993370000000001
 20
0.781729
 42
-0.4244750000000013
 10
1.9230579999999999
 20
0.757165
 10
1.9196329999999999
 20
0.659092
 42
0.4244750000000002
 10
1.961654
 20
0.615578
 10
1.9860819999999999
 20
0.615578
 42
0.4040230000000007
 10
2.0281030000000002
 20
0.656156
 10
2.0303339999999999
 20
0.720028
 42
-0.9999329999992981
 10
2.0317539999999998
 20
0.760693
 10
2.0347379999999999
 20
0.846155
 10
2.034735
 20
0.889557
 42
-0.9999330000012089
 10
2.0347379999999999
 20
0.9302469999999999
 10
2.0347379999999999
 20
1.1009770000000001
 42
-0.9999330000010455
 10
2.0347379999999999
 20
1.141667
 10
2.0347379999999999
 20
1.1850689999999999
 10
2.0317539999999998
 20
1.2705310000000001
 42
-0.9999329999992983
 10
2.0303339999999999
 20
1.311196
 10
2.0281030000000002
 20
1.375068
 42
0.4040229999999997
 10
1.9860819999999999
 20
1.415646
 10
1.961654
 20
1.415646
 42
0.4244740000000011
 10
1.9196329999999999
 20
1.372133
 10
1.9230579999999999
 20
1.2740590000000001
 42
-0.4244740000000044
 10
1.8993370000000001
 20
1.2494949999999998
 10
1.8866179999999999
 20
1.249495
 42
-0.1989120000000003
 10
1.869834
 20
1.2564470000000001
 10
1.742599
 20
1.3836820000000001
 42
-0.1989120000038328
 10
1.7054549999999999
 20
1.4733550000018703
 10
1.7054549999999999
 20
1.574951
 42
-0.1989129999980004
 10
1.7425989999999998
 20
1.664625
 10
1.869834
 20
1.7918590000000001
 42
-0.1943909999999996
 10
1.8870739999999999
 20
1.7988109999999999
 10
1.8990819999999999
 20
1.7988109999999999
 42
-0.4244729999999981
 10
1.922803
 20
1.7742469999999999
 10
1.9193789999999999
 20
1.6761729999999999
 42
0.4244729999999989
 10
1.9614
 20
1.63266
 10
1.9858279999999999
 20
1.63266
 42
0.4040269999999965
 10
2.0278489999999998
 20
1.6732389999999999
 10
2.0300790000000002
 20
1.7371099999999999
 42
-0.9999330000010563
 10
2.0314999999999999
 20
1.7777750000000001
 10
2.034484
 20
1.863237
 10
2.034484
 20
1.906639
 42
-1.0196290000000039
 10
2.0344820000000001
 20
1.9465429999999999
 42
0.4290780000000001
 10
1.948286
 20
2.0341079999999998
 42
-0.9999330000012879
 10
1.9075960000000003
 20
2.0340510000000025
 10
1.863737
 20
2.0339870000000002
 10
1.7782800000000001
 20
2.0308769999999998
 42
-0.9999329999994364
 10
1.7376169999999997
 20
2.0293960000000002
 10
1.6737500000000001
 20
2.0270730000000001
 42
0.40403200000002
 10
1.633232
 20
1.9849929999999971
 10
1.633267
 20
1.9605630000000001
 42
0.4283139999999984
 10
1.6768430000000001
 20
1.9193929999999999
 10
1.774912
 20
1.9229609999999999
 42
-0.4244730000000055
 10
1.7995110000000001
 20
1.8992759999999995
 10
1.799528
 20
1.8872679999999999
 42
-0.1991429999999843
 10
1.792586
 20
1.8704590000000001
 10
1.668552
 20
1.7462800000000001
 42
-0.2081100000000003
 10
1.5758270000000001
 20
1.7057769999999999
 10
1.4743390000000001
 20
1.705627
 42
-0.1989119999999999
 10
1.384611
 20
1.742639
 10
1.2571889999999999
 20
1.8696870000000001
 42
-0.1989119999999972
 10
1.2502119999999999
 20
1.8864599999999994
 10
1.2501930000000001
 20
1.899179
 42
-0.4244750000000299
 10
1.2747230000000001
 20
1.9229369999999999
 10
1.3728009999999999
 20
1.919656
 42
0.424475000000012
 10
1.4162530000000002
 20
1.9617410000000015
 10
1.4162170000000001
 20
1.9861690000000001
 42
0.4040230000000064
 10
1.375577
 20
2.02813
 10
1.3117019999999999
 20
2.0302669999999998
 42
-0.9999330000015948
 10
1.2710349999999999
 20
2.0316269999999998
 10
1.1855690000000001
 20
2.0346540000000002
 10
1.142166
 20
2.0345879999999998
 42
-0.9999330000003425
 10
1.1014759999999999
 20
2.0345309999999999
 10
0.930578
 20
2.0353189999999999
 42
-0.9999329999995792
 10
0.8898880000000001
 20
2.0352590000000021
 10
0.846486
 20
2.0351949999999999
 10
0.761485
 20
2.0320860000000001
 42
-0.9999330000001239
 10
0.720822
 20
2.0306060000000001
 10
0.656954
 20
2.0282809999999998
 42
0.4040230000000051
 10
0.616437
 20
1.9861999999999993
 10
0.616473
 20
1.9617720000000001
 42
0.4244740000000183
 10
0.660048
 20
1.919816
 10
0.758117
 20
1.923384
 42
-0.4244739999999988
 10
0.7827160000000001
 20
1.8996990000000005
 10
0.782735
 20
1.8869800000000001
 42
-0.198911999999998
 10
0.7758070000000001
 20
1.8701859999999999
 10
0.64876
 20
1.7427649999999999
 42
-0.1989120000000003
 10
0.559141
 20
1.705489
 10
0.457545
 20
1.7053389999999999
 42
-0.1989130000000003
 10
0.3678169999999999
 20
1.7423519999999999
 10
0.240396
 20
1.869399
 42
-0.1939799999999909
 10
0.233419
 20
1.886671999999999
 10
0.233402
 20
1.898679
 42
-0.4244729999999877
 10
0.257931
 20
1.922437
 10
0.356009
 20
1.919157
 42
0.4244730000000083
 10
0.3994610000000001
 20
1.961242000000001
 10
0.399425
 20
1.98567
 42
0.4040269999999932
 10
0.358784
 20
2.027631
 10
0.29491
 20
2.0297670000000001
 42
-0.9999330000018206
 10
0.2542420000000001
 20
2.0311279999999998
 10
0.168777
 20
2.0339870000000002
 10
0.125375
 20
2.0339230000000001
 42
-0.9999330000001863
 10
0.084685
 20
2.0338600000000002
 42
0.414156999999974
 10
-0.000017
 20
1.9490370000000075
 42
0.7806090000301815
  0
CIRCLE
  5
C4
100
AcDbEntity
100
AcDbCircle
  8
0
 62
256
370
-1
  6
CONTINUOUS
 10
0.5086079999999999
 20
1.5253620000000001
 30
0.0
 40
0.087144
  0
CIRCLE
  5
C5
100
AcDbEntity
100
AcDbCircle
  8
0
 62
256
370
-1
  6
CONTINUOUS
 10
0.5086079999999999
 20
0.508111
 30
0.0
 40
0.087144
  0
CIRCLE
  5
C6
100
AcDbEntity
100
AcDbCircle
  8
0
 62
256
370
-1
  6
CONTINUOUS
 10
1.5258590000000001
 20
0.508111
 30
0.0
 40
0.087144
  0
CIRCLE
  5
C7
100
AcDbEntity
100
AcDbCircle
  8
0
 62
256
370
-1
  6
CONTINUOUS
 10
1.5258590000000001
 20
1.525361
 30
0.0
 40
0.087144
  0
INSERT
  5
C8
100
AcDbEntity
100
AcDbBlockReference
  8
ASHADE
 62
1
370
-1
  6
CONTINUOUS
  2
AVE_RENDER
 10
0.0
 20
0.0
 30
0.0
  0
INSERT
  5
C9
100
AcDbEntity
100
AcDbBlockReference
  8
ASHADE
 62
3
370
-1
  6
CONTINUOUS
  2
AVE_RENDER
 10
0.0
 20
0.0
 30
0.0
  0
INSERT
  5
CA
100
AcDbEntity
100
AcDbBlockReference
  8
ASHADE
 62
4
370
-1
  6
CONTINUOUS
  2
AVE_RENDER
 10
0.0
 20
0.0
 30
0.0
  0
ENDBLK
  5
CB
100
AcDbEntity
  8
0
100
AcDbBlockEnd
  0
BLOCK
  5
CC
100
AcDbEntity
  8
0
100
AcDbBlockBegin
  2
AVE_RENDER
 70
0
 10
0.0
 20
0.0
 30
0.0
  3
AVE_RENDER
  1

  0
ENDBLK
  5
CD
100
AcDbEntity
  8
0
100
AcDbBlockEnd
  0
BLOCK
  5
CE
100
AcDbEntity
  8
0
100
AcDbBlockBegin
  2
1020P
 70
0
 10
0.0
 20
0.0
 30
0.0
  3
1020P
  1

  0
LWPOLYLINE
  5
CF
  8
0
 62
7
370
-1
  6
CONTINUOUS
100
AcDbEntity
100
AcDbPolyline
 90
180
 70
1
 10
-0.000331
 20
0.9302000000000006
 42
-0.4125419999999984
 10
0.086262
 20
1.0154700000000001
 42
1.0507179999999945
 10
0.1249020000000006
 20
1.0154730000000001
 10
0.168209
 20
1.0154730000000001
 10
0.253485
 20
1.0124949999999999
 42
0.9999329999991531
 10
0.294062
 20
1.011077
 10
0.357795
 20
1.0088509999999999
 42
-0.404027000000387
 10
0.398285
 20
0.9669219999999439
 10
0.398285
 20
0.94187
 42
-0.4244730000043927
 10
0.354866
 20
0.8999409999999999
 10
0.257006
 20
0.903357
 42
0.4244730000003629
 10
0.232495
 20
0.8796869999999709
 10
0.232495
 20
0.867706
 42
0.1989119999989699
 10
0.239432
 20
0.850959
 10
0.36639
 20
0.724
 42
0.198913
 10
0.455869
 20
0.686937
 10
0.557244
 20
0.686937
 42
0.1989119999999998
 10
0.646723
 20
0.724
 10
0.773681
 20
0.850959
 42
0.1989119999993129
 10
0.7806179999999999
 20
0.8677059999999374
 10
0.780618
 20
0.880397
 42
0.4244739999797819
 10
0.756107
 20
0.9040669999999998
 10
0.658247
 20
0.90065
 42
-0.4244739999951663
 10
0.6148279999999999
 20
0.9425789999993126
 10
0.614828
 20
0.966954
 42
-0.4040230000033172
 10
0.655318
 20
1.0088839999999999
 10
0.719051
 20
1.01111
 42
0.9999330000004273
 10
0.759628
 20
1.012527
 10
0.844904
 20
1.015504
 10
0.888212
 20
1.015504
 42
0.9999330000004786
 10
0.928814
 20
1.0155039999999746
 10
1.0993409999999999
 20
1.015504
 42
0.9999330000026545
 10
1.139942
 20
1.0155020000000159
 10
1.1832510000000001
 20
1.015504
 10
1.268526
 20
1.012527
 42
0.9999330000014023
 10
1.3091029999999999
 20
1.01111
 10
1.3728359999999999
 20
1.0088839999999999
 42
-0.4040230000008581
 10
1.413327
 20
0.9669539999998763
 10
1.413327
 20
0.9425789999999999
 42
-0.4244749999990092
 10
1.369907
 20
0.9006500000000001
 10
1.2720469999999999
 20
0.904067
 42
0.4244750000547026
 10
1.247536
 20
0.8803969999956087
 10
1.247536
 20
0.867706
 42
0.1989120000021284
 10
1.2544730000000002
 20
0.8509590000000001
 10
1.3814310000000001
 20
0.724
 42
0.1989119999999996
 10
1.4709099999999999
 20
0.6869370000000001
 10
1.5721780000000001
 20
0.686937
 42
0.2081100000000001
 10
1.6647609999999999
 20
0.7272160000000001
 10
1.788708
 20
0.850944
 42
0.1991429999997253
 10
1.7956589999999999
 20
0.8677059999999749
 10
1.7956589999999999
 20
0.879687
 42
0.4244730000002743
 10
1.7711490000000001
 20
0.903357
 10
1.6732880000000001
 20
0.899941
 42
-0.4211790000000082
 10
1.629869
 20
0.9425470000000014
 10
1.629869
 20
0.966923
 42
-0.4040319999993378
 10
1.6703600000000001
 20
1.008853
 10
1.734092
 20
1.011077
 42
0.9999329999991533
 10
1.7746690000000001
 20
1.0124949999999999
 10
1.859945
 20
1.0154730000000001
 10
1.9032530000000001
 20
1.0154730000000001
 42
0.9999330000115277
 10
1.9438550000000003
 20
1.0154700000000081
 42
-0.4164139999999901
 10
2.029191
 20
0.9302400000000028
 42
0.999932999998951
 10
2.029779
 20
0.8895979999999999
 10
2.0297149999999999
 20
0.84629
 10
2.0266120000000001
 20
0.761019
 42
0.9999330000020787
 10
2.0251350000000001
 20
0.720444
 10
2.022815
 20
0.656714
 42
-0.404023000000001
 10
1.980826
 20
0.6162860000000001
 10
1.95706
 20
0.616322
 42
-0.4244740000000014
 10
1.915195
 20
0.6598020000000001
 10
1.9187559999999999
 20
0.7576580000000001
 42
0.4244739999999989
 10
1.895122
 20
0.782204
 10
1.882431
 20
0.782222
 42
0.1989120000000009
 10
1.8656739999999998
 20
0.7753100000000002
 10
1.7385280000000001
 20
0.6485379999999999
 42
0.1989120000000093
 10
1.7013339999999999
 20
0.5591139999999954
 10
1.7011849999999999
 20
0.457739
 42
0.1989130000000435
 10
1.738116
 20
0.368206
 10
1.8648880000000001
 20
0.241062
 42
0.1989119999999995
 10
1.8816250000000001
 20
0.2341
 10
1.8936059999999999
 20
0.234082
 42
0.4244730000000015
 10
1.9173119999999999
 20
0.2585580000000001
 10
1.914039
 20
0.356424
 42
-0.4185530000000036
 10
1.9572510000000001
 20
0.3997810000000001
 10
1.9816260000000001
 20
0.399745
 42
-0.403926000000003
 10
2.0235159999999999
 20
0.3591919999999997
 10
2.0256479999999999
 20
0.295457
 42
0.9999330000001589
 10
2.0270060000000001
 20
0.2548779999999998
 10
2.0298579999999999
 20
0.169598
 10
2.029795
 20
0.12629
 42
0.9999330000004952
 10
2.0297320000000001
 20
0.085688
 42
-0.4148539999999984
 10
1.9450730000000001
 20
0.000496
 42
0.970809000000001
 10
1.9032530000000016
 20
0.0004940000000001
 10
1.859945
 20
0.000494
 10
1.7746690000000001
 20
0.003472
 42
0.999932999999144
 10
1.734092
 20
0.00489
 10
1.6703600000000001
 20
0.007114
 42
-0.4040320000024737
 10
1.629869
 20
0.0490430000003568
 10
1.629869
 20
0.074096
 42
-0.4244729999986074
 10
1.6732880000000001
 20
0.116026
 10
1.7711490000000001
 20
0.112609
 42
0.4244730000001826
 10
1.7956589999999999
 20
0.1362790000000148
 10
1.7956589999999999
 20
0.14826
 42
0.1991430000007336
 10
1.788708
 20
0.165023
 10
1.6647609999999999
 20
0.28875
 42
0.2081100000000002
 10
1.5721780000000001
 20
0.329029
 10
1.4709099999999999
 20
0.329029
 42
0.198912
 10
1.3814310000000001
 20
0.2919660000000002
 10
1.2544729999999999
 20
0.165008
 42
0.1989120000005566
 10
1.2475360000000002
 20
0.1482599999999491
 10
1.247536
 20
0.135569
 42
0.4244750000820546
 10
1.2720469999999999
 20
0.111899
 10
1.369907
 20
0.115316
 42
-0.4244749999993389
 10
1.4133270000000002
 20
0.0733870000000941
 10
1.413327
 20
0.049012
 42
-0.4040229999994513
 10
1.3728359999999999
 20
0.007083
 10
1.3091029999999999
 20
0.004856
 42
0.9999330000014085
 10
1.268526
 20
0.003439
 10
1.1832510000000001
 20
0.000462
 10
1.139942
 20
0.000465
 42
0.9999329999925788
 10
1.0993409999999999
 20
0.0004620000003393
 10
0.928814
 20
0.000462
 42
0.9999330000004784
 10
0.888212
 20
0.0004620000000253
 10
0.844904
 20
0.000462
 10
0.759628
 20
0.003439
 42
0.999933000000426
 10
0.719051
 20
0.004856
 10
0.655318
 20
0.007083
 42
-0.4040230000253319
 10
0.6148280000000002
 20
0.0490120000036547
 10
0.614828
 20
0.073387
 42
-0.4244739999957968
 10
0.658247
 20
0.115317
 10
0.756107
 20
0.111899
 42
0.4244739999619251
 10
0.7806180000000001
 20
0.1355689999969434
 10
0.780618
 20
0.14826
 42
0.1989120000008387
 10
0.773681
 20
0.1650079999999999
 10
0.646723
 20
0.291966
 42
0.1989119999999999
 10
0.557244
 20
0.329029
 10
0.455869
 20
0.329029
 42
0.198913
 10
0.36639
 20
0.291966
 10
0.239432
 20
0.165008
 42
0.1989120000005586
 10
0.232495
 20
0.1482599999999491
 10
0.232495
 20
0.136279
 42
0.4244730000005441
 10
0.257006
 20
0.112609
 10
0.354866
 20
0.116026
 42
-0.4244729999990707
 10
0.398285
 20
0.0740960000001322
 10
0.398285
 20
0.049044
 42
-0.404027000000581
 10
0.357795
 20
0.007115
 10
0.294062
 20
0.00489
 42
0.9999329999991438
 10
0.253485
 20
0.003472
 10
0.168209
 20
0.000494
 10
0.124902
 20
0.000494
 42
0.9999330000020854
 10
0.0843
 20
0.0004959999999739
 42
-0.4127830000000249
 10
-0.000225
 20
0.0856880000000072
 42
0.9999329999989379
 10
-0.000287
 20
0.12629
 10
-0.000351
 20
0.169598
 10
0.002502
 20
0.254878
 42
0.9999329999991964
 10
0.00386
 20
0.295457
 10
0.005992
 20
0.359192
 42
-0.4040269999999994
 10
0.047861
 20
0.399745
 10
0.072236
 20
0.399781
 42
-0.4250359999999999
 10
0.114115
 20
0.356424
 10
0.110842
 20
0.258558
 42
0.424473
 10
0.134548
 20
0.234082
 10
0.146529
 20
0.2341
 42
0.198912000000001
 10
0.163266
 20
0.241062
 10
0.290038
 20
0.368206
 42
0.1989130000000213
 10
0.32697
 20
0.4577390000000105
 10
0.32682
 20
0.559114
 42
0.1989120000000134
 10
0.2896259999999998
 20
0.6485379999999999
 10
0.162481
 20
0.7753100000000001
 42
0.1989120000000013
 10
0.145723
 20
0.7822220000000002
 10
0.133032
 20
0.782204
 42
0.4244739999999999
 10
0.109398
 20
0.7576580000000001
 10
0.112959
 20
0.659802
 42
-0.4341419999999993
 10
0.073056
 20
0.616322
 10
0.048681
 20
0.616286
 42
-0.4040229999999987
 10
0.006692
 20
0.656714
 10
0.004372
 20
0.720444
 42
0.9999330000011059
 10
0.002895
 20
0.761019
 10
-0.000207
 20
0.84629
 10
-0.000271
 20
0.889598
 42
0.9999329999988873
  0
LWPOLYLINE
  5
D0
  8
0
 62
7
370
-1
  6
CONTINUOUS
100
AcDbEntity
100
AcDbPolyline
 90
12
 70
1
 10
0.95973
 20
0.883918
 10
0.724301
 20
0.64849
 42
0.1989129999949944
 10
0.687238
 20
0.5590110000024373
 10
0.687238
 20
0.456952
 42
0.1989110000021177
 10
0.724301
 20
0.367474
 10
0.959727
 20
0.132046
 42
0.4142140000000001
 10
1.0697800000000521
 20
0.1320449999999479
 10
1.3052060000000001
 20
0.367468
 42
0.1989140000140163
 10
1.3422700000000001
 20
0.4569470000068244
 10
1.3422700000000001
 20
0.559014
 42
0.1989109999959233
 10
1.305207
 20
0.6484930000000001
 10
1.0697840000000001
 20
0.883918
 42
0.4142140000000001
  0
CIRCLE
  5
D1
100
AcDbEntity
100
AcDbCircle
  8
0
 62
7
370
-1
  6
CONTINUOUS
 10
0.507232
 20
0.507983
 30
0.0
 40
0.086955
  0
CIRCLE
  5
D2
100
AcDbEntity
100
AcDbCircle
  8
0
 62
7
370
-1
  6
CONTINUOUS
 10
1.5222739999999999
 20
0.507983
 30
0.0
 40
0.086955
  0
INSERT
  5
D3
100
AcDbEntity
100
AcDbBlockReference
  8
ASHADE
 62
1
370
-1
  6
CONTINUOUS
  2
AVE_RENDER
 10
0.0
 20
0.0
 30
0.0
  0
INSERT
  5
D4
100
AcDbEntity
100
AcDbBlockReference
  8
ASHADE
 62
3
370
-1
  6
CONTINUOUS
  2
AVE_RENDER
 10
0.0
 20
0.0
 30
0.0
  0
INSERT
  5
D5
100
AcDbEntity
100
AcDbBlockReference
  8
ASHADE
 62
4
370
-1
  6
CONTINUOUS
  2
AVE_RENDER
 10
0.0
 20
0.0
 30
0.0
  0
ENDBLK
  5
D6
100
AcDbEntity
  8
0
100
AcDbBlockEnd
  0
BLOCK
  5
D7
100
AcDbEntity
  8
0
100
AcDbBlockBegin
  2
1010
 70
0
 10
0.0
 20
0.0
 30
0.0
  3
1010
  1

  0
ARC
  5
D8
100
AcDbEntity
  8
0
 62
256
370
-1
  6
CONTINUOUS
100
AcDbCircle
 10
1.001323
 20
0.104615
 30
0.0
 40
0.02
100
AcDbArc
 50
90.0011369999999999
 51
270.0011289999999917
  0
LINE
  5
D9
100
AcDbEntity
100
AcDbLine
  8
0
 62
256
370
-1
  6
CONTINUOUS
 10
1.001323
 20
0.084615
 30
0.0
 11
1.001323
 21
0.083949
 31
0.0
  0
ARC
  5
DA
100
AcDbEntity
  8
0
 62
256
370
-1
  6
CONTINUOUS
100
AcDbCircle
 10
0.9179890000000001
 20
0.083949
 30
0.0
 40
0.083333
100
AcDbArc
 50
270.0
 51
0.00001
  0
LINE
  5
DB
100
AcDbEntity
100
AcDbLine
  8
0
 62
256
370
-1
  6
CONTINUOUS
 10
0.9179890000000001
 20
0.000615
 30
0.0
 11
0.917323
 21
0.000615
 31
0.0
  0
ARC
  5
DC
100
AcDbEntity
  8
0
 62
256
370
-1
  6
CONTINUOUS
100
AcDbCircle
 10
0.897321
 20
0.000615
 30
0.0
 40
0.02
100
AcDbArc
 50
0.0
 51
180.0
  0
LINE
  5
DD
100
AcDbEntity
100
AcDbLine
  8
0
 62
256
370
-1
  6
CONTINUOUS
 10
0.877322
 20
0.000615
 30
0.0
 11
0.834656
 21
0.000615
 31
0.0
  0
LINE
  5
DE
100
AcDbEntity
100
AcDbLine
  8
0
 62
256
370
-1
  6
CONTINUOUS
 10
0.834656
 20
0.000615
 30
0.0
 11
0.750644
 21
0.003549
 31
0.0
  0
ARC
  5
DF
100
AcDbEntity
  8
0
 62
256
370
-1
  6
CONTINUOUS
100
AcDbCircle
 10
0.7306550000000001
 20
0.004247
 30
0.0
 40
0.02
100
AcDbArc
 50
358.0
 51
178.0
  0
ARC
  5
E0
100
AcDbEntity
  8
0
 62
256
370
-1
  6
CONTINUOUS
100
AcDbCircle
 10
0.271985
 20
0.004247
 30
0.0
 40
0.02
100
AcDbArc
 50
2.0
 51
181.9999850000000094
  0
LINE
  5
E1
100
AcDbEntity
100
AcDbLine
  8
0
 62
256
370
-1
  6
CONTINUOUS
 10
0.251998
 20
0.003549
 30
0.0
 11
0.167986
 21
0.000615
 31
0.0
  0
LINE
  5
E2
100
AcDbEntity
100
AcDbLine
  8
0
 62
256
370
-1
  6
CONTINUOUS
 10
0.167986
 20
0.000615
 30
0.0
 11
0.125317
 21
0.000615
 31
0.0
  0
ARC
  5
E3
100
AcDbEntity
  8
0
 62
256
370
-1
  6
CONTINUOUS
100
AcDbCircle
 10
0.105318
 20
0.000615
 30
0.0
 40
0.02
100
AcDbArc
 50
0.0
 51
180.0
  0
LINE
  5
E4
100
AcDbEntity
100
AcDbLine
  8
0
 62
256
370
-1
  6
CONTINUOUS
 10
0.085319
 20
0.000615
 30
0.0
 11
0.084653
 21
0.000615
 31
0.0
  0
ARC
  5
E5
100
AcDbEntity
  8
0
 62
256
370
-1
  6
CONTINUOUS
100
AcDbCircle
 10
0.084653
 20
0.083949
 30
0.0
 40
0.083333
100
AcDbArc
 50
180.0
 51
270.0
  0
LINE
  5
E6
100
AcDbEntity
100
AcDbLine
  8
0
 62
256
370
-1
  6
CONTINUOUS
 10
0.001319
 20
0.083949
 30
0.0
 11
0.001319
 21
0.084615
 31
0.0
  0
ARC
  5
E7
100
AcDbEntity
  8
0
 62
256
370
-1
  6
CONTINUOUS
100
AcDbCircle
 10
0.001319
 20
0.104615
 30
0.0
 40
0.02
100
AcDbArc
 50
270.0
 51
90.000007999999994
  0
LINE
  5
E8
100
AcDbEntity
100
AcDbLine
  8
0
 62
256
370
-1
  6
CONTINUOUS
 10
0.001319
 20
0.124615
 30
0.0
 11
0.001319
 21
0.167282
 31
0.0
  0
LINE
  5
E9
100
AcDbEntity
100
AcDbLine
  8
0
 62
256
370
-1
  6
CONTINUOUS
 10
0.001319
 20
0.167282
 30
0.0
 11
0.004254
 21
0.251295
 31
0.0
  0
ARC
  5
EA
100
AcDbEntity
  8
0
 62
256
370
-1
  6
CONTINUOUS
100
AcDbCircle
 10
0.004951
 20
0.271282
 30
0.0
 40
0.02
100
AcDbArc
 50
268.0
 51
88.0
  0
ARC
  5
EB
100
AcDbEntity
  8
0
 62
256
370
-1
  6
CONTINUOUS
100
AcDbCircle
 10
0.004951
 20
0.729951
 30
0.0
 40
0.02
100
AcDbArc
 50
272.0
 51
91.999992000000006
  0
LINE
  5
EC
100
AcDbEntity
100
AcDbLine
  8
0
 62
256
370
-1
  6
CONTINUOUS
 10
0.004254
 20
0.7499400000000001
 30
0.0
 11
0.001319
 21
0.833951
 31
0.0
  0
LINE
  5
ED
100
AcDbEntity
100
AcDbLine
  8
0
 62
256
370
-1
  6
CONTINUOUS
 10
0.001319
 20
0.833951
 30
0.0
 11
0.001319
 21
0.876618
 31
0.0
  0
ARC
  5
EE
100
AcDbEntity
  8
0
 62
256
370
-1
  6
CONTINUOUS
100
AcDbCircle
 10
0.001319
 20
0.896617
 30
0.0
 40
0.02
100
AcDbArc
 50
270.0
 51
90.000007999999994
  0
LINE
  5
EF
100
AcDbEntity
100
AcDbLine
  8
0
 62
256
370
-1
  6
CONTINUOUS
 10
0.001319
 20
0.916617
 30
0.0
 11
0.001319
 21
0.917283
 31
0.0
  0
ARC
  5
F0
100
AcDbEntity
  8
0
 62
256
370
-1
  6
CONTINUOUS
100
AcDbCircle
 10
0.084653
 20
0.917283
 30
0.0
 40
0.083333
100
AcDbArc
 50
90.0011369999999999
 51
180.0011440000000107
  0
LINE
  5
F1
100
AcDbEntity
100
AcDbLine
  8
0
 62
256
370
-1
  6
CONTINUOUS
 10
0.084653
 20
1.000615
 30
0.0
 11
0.085319
 21
1.000615
 31
0.0
  0
ARC
  5
F2
100
AcDbEntity
  8
0
 62
256
370
-1
  6
CONTINUOUS
100
AcDbCircle
 10
0.105318
 20
1.000615
 30
0.0
 40
0.02
100
AcDbArc
 50
180.0
 51
0.0
  0
LINE
  5
F3
100
AcDbEntity
100
AcDbLine
  8
0
 62
256
370
-1
  6
CONTINUOUS
 10
0.125317
 20
1.000615
 30
0.0
 11
0.167986
 21
1.000615
 31
0.0
  0
LINE
  5
F4
100
AcDbEntity
100
AcDbLine
  8
0
 62
256
370
-1
  6
CONTINUOUS
 10
0.167986
 20
1.000615
 30
0.0
 11
0.251998
 21
0.997682
 31
0.0
  0
ARC
  5
F5
100
AcDbEntity
  8
0
 62
256
370
-1
  6
CONTINUOUS
100
AcDbCircle
 10
0.271985
 20
0.996984
 30
0.0
 40
0.02
100
AcDbArc
 50
178.0
 51
358.0
  0
ARC
  5
F6
100
AcDbEntity
  8
0
 62
256
370
-1
  6
CONTINUOUS
100
AcDbCircle
 10
0.7306550000000001
 20
0.996984
 30
0.0
 40
0.02
100
AcDbArc
 50
182.0
 51
1.9999990000000001
  0
LINE
  5
F7
100
AcDbEntity
100
AcDbLine
  8
0
 62
256
370
-1
  6
CONTINUOUS
 10
0.750644
 20
0.997682
 30
0.0
 11
0.834656
 21
1.000615
 31
0.0
  0
LINE
  5
F8
100
AcDbEntity
100
AcDbLine
  8
0
 62
256
370
-1
  6
CONTINUOUS
 10
0.834656
 20
1.000615
 30
0.0
 11
0.877322
 21
1.000615
 31
0.0
  0
ARC
  5
F9
100
AcDbEntity
  8
0
 62
256
370
-1
  6
CONTINUOUS
100
AcDbCircle
 10
0.897321
 20
1.000615
 30
0.0
 40
0.02
100
AcDbArc
 50
180.0
 51
0.0
  0
LINE
  5
FA
100
AcDbEntity
100
AcDbLine
  8
0
 62
256
370
-1
  6
CONTINUOUS
 10
0.917323
 20
1.000615
 30
0.0
 11
0.9179890000000001
 21
1.000615
 31
0.0
  0
ARC
  5
FB
100
AcDbEntity
  8
0
 62
256
370
-1
  6
CONTINUOUS
100
AcDbCircle
 10
0.9179890000000001
 20
0.917283
 30
0.0
 40
0.083333
100
AcDbArc
 50
0.0
 51
90.0
  0
LINE
  5
FC
100
AcDbEntity
100
AcDbLine
  8
0
 62
256
370
-1
  6
CONTINUOUS
 10
1.001323
 20
0.917283
 30
0.0
 11
1.001323
 21
0.916617
 31
0.0
  0
ARC
  5
FD
100
AcDbEntity
  8
0
 62
256
370
-1
  6
CONTINUOUS
100
AcDbCircle
 10
1.001323
 20
0.896617
 30
0.0
 40
0.02
100
AcDbArc
 50
90.0011369999999999
 51
270.0011289999999917
  0
LINE
  5
FE
100
AcDbEntity
100
AcDbLine
  8
0
 62
256
370
-1
  6
CONTINUOUS
 10
1.001323
 20
0.876618
 30
0.0
 11
1.001323
 21
0.833951
 31
0.0
  0
LINE
  5
FF
100
AcDbEntity
100
AcDbLine
  8
0
 62
256
370
-1
  6
CONTINUOUS
 10
1.001323
 20
0.833951
 30
0.0
 11
0.9983880000000001
 21
0.7499400000000001
 31
0.0
  0
ARC
  5
100
100
AcDbEntity
  8
0
 62
256
370
-1
  6
CONTINUOUS
100
AcDbCircle
 10
0.997691
 20
0.729951
 30
0.0
 40
0.02
100
AcDbArc
 50
88.0
 51
268.0000309999999786
  0
ARC
  5
101
100
AcDbEntity
  8
0
 62
256
370
-1
  6
CONTINUOUS
100
AcDbCircle
 10
0.997691
 20
0.271282
 30
0.0
 40
0.02
100
AcDbArc
 50
92.0011290000000059
 51
272.0011289999999917
  0
LINE
  5
102
100
AcDbEntity
100
AcDbLine
  8
0
 62
256
370
-1
  6
CONTINUOUS
 10
0.9983880000000001
 20
0.251295
 30
0.0
 11
1.001323
 21
0.167282
 31
0.0
  0
LINE
  5
103
100
AcDbEntity
100
AcDbLine
  8
0
 62
256
370
-1
  6
CONTINUOUS
 10
1.001323
 20
0.167282
 30
0.0
 11
1.001323
 21
0.124615
 31
0.0
  0
CIRCLE
  5
104
100
AcDbEntity
100
AcDbCircle
  8
0
 62
256
370
-1
  6
CONTINUOUS
 10
0.501321
 20
0.5006159999999999
 30
0.0
 40
0.1005
  0
ARC
  5
105
100
AcDbEntity
  8
0
 62
256
370
-1
  6
CONTINUOUS
100
AcDbCircle
 10
0.437379
 20
0.8026180000000001
 30
0.0
 40
0.125
100
AcDbArc
 50
225.0007319999999993
 51
270.0000309999999786
  0
LINE
  5
106
100
AcDbEntity
100
AcDbLine
  8
0
 62
256
370
-1
  6
CONTINUOUS
 10
0.501322
 20
0.6776180000000001
 30
0.0
 11
0.437379
 21
0.6776180000000001
 31
0.0
  0
LINE
  5
107
100
AcDbEntity
100
AcDbLine
  8
0
 62
256
370
-1
  6
CONTINUOUS
 10
0.303048
 20
0.760171
 30
0.0
 11
0.348991
 21
0.714229
 31
0.0
  0
ARC
  5
108
100
AcDbEntity
  8
0
 62
256
370
-1
  6
CONTINUOUS
100
AcDbCircle
 10
0.198986
 20
0.564889
 30
0.0
 40
0.125
100
AcDbArc
 50
0.0
 51
44.9995380000000011
  0
LINE
  5
109
100
AcDbEntity
100
AcDbLine
  8
0
 62
256
370
-1
  6
CONTINUOUS
 10
0.323986
 20
0.500614
 30
0.0
 11
0.323986
 21
0.564889
 31
0.0
  0
ARC
  5
10A
100
AcDbEntity
  8
0
 62
256
370
-1
  6
CONTINUOUS
100
AcDbCircle
 10
0.565263
 20
0.8026180000000001
 30
0.0
 40
0.125
100
AcDbArc
 50
270.0000309999999786
 51
315.0000309999999786
  0
LINE
  5
10B
100
AcDbEntity
100
AcDbLine
  8
0
 62
256
370
-1
  6
CONTINUOUS
 10
0.501322
 20
0.6776180000000001
 30
0.0
 11
0.565263
 21
0.6776180000000001
 31
0.0
  0
ARC
  5
10C
100
AcDbEntity
  8
0
 62
256
370
-1
  6
CONTINUOUS
100
AcDbCircle
 10
0.803655
 20
0.5648879999999999
 30
0.0
 40
0.125
100
AcDbArc
 50
135.000977000000006
 51
179.9999850000000094
  0
LINE
  5
10D
100
AcDbEntity
100
AcDbLine
  8
0
 62
256
370
-1
  6
CONTINUOUS
 10
0.678655
 20
0.500614
 30
0.0
 11
0.678655
 21
0.5648879999999999
 31
0.0
  0
ARC
  5
10E
100
AcDbEntity
  8
0
 62
256
370
-1
  6
CONTINUOUS
100
AcDbCircle
 10
0.803655
 20
0.436342
 30
0.0
 40
0.125
100
AcDbArc
 50
180.000031000000007
 51
225.0000459999999975
  0
LINE
  5
10F
100
AcDbEntity
100
AcDbLine
  8
0
 62
256
370
-1
  6
CONTINUOUS
 10
0.678655
 20
0.500614
 30
0.0
 11
0.678655
 21
0.436342
 31
0.0
  0
ARC
  5
110
100
AcDbEntity
  8
0
 62
256
370
-1
  6
CONTINUOUS
100
AcDbCircle
 10
0.198986
 20
0.436342
 30
0.0
 40
0.125
100
AcDbArc
 50
315.0000610000000165
 51
0.000034
  0
LINE
  5
111
100
AcDbEntity
100
AcDbLine
  8
0
 62
256
370
-1
  6
CONTINUOUS
 10
0.323986
 20
0.500614
 30
0.0
 11
0.323986
 21
0.436342
 31
0.0
  0
LINE
  5
112
100
AcDbEntity
100
AcDbLine
  8
0
 62
256
370
-1
  6
CONTINUOUS
 10
0.653652
 20
0.71423
 30
0.0
 11
0.779407
 21
0.839985
 31
0.0
  0
LINE
  5
113
100
AcDbEntity
100
AcDbLine
  8
0
 62
256
370
-1
  6
CONTINUOUS
 10
0.715267
 20
0.347953
 30
0.0
 11
0.840689
 21
0.222531
 31
0.0
  0
ARC
  5
114
100
AcDbEntity
  8
0
 62
256
370
-1
  6
CONTINUOUS
100
AcDbCircle
 10
0.437376
 20
0.198616
 30
0.0
 40
0.125
100
AcDbArc
 50
90.0002139999999997
 51
135.000518999999997
  0
LINE
  5
115
100
AcDbEntity
100
AcDbLine
  8
0
 62
256
370
-1
  6
CONTINUOUS
 10
0.223233
 20
0.161249
 30
0.0
 11
0.348987
 21
0.287004
 31
0.0
  0
LINE
  5
116
100
AcDbEntity
100
AcDbLine
  8
0
 62
256
370
-1
  6
CONTINUOUS
 10
0.501322
 20
0.323616
 30
0.0
 11
0.437376
 21
0.323616
 31
0.0
  0
ARC
  5
117
100
AcDbEntity
  8
0
 62
256
370
-1
  6
CONTINUOUS
100
AcDbCircle
 10
0.565263
 20
0.198616
 30
0.0
 40
0.125
100
AcDbArc
 50
44.9997060000000033
 51
90.000007999999994
  0
LINE
  5
118
100
AcDbEntity
100
AcDbLine
  8
0
 62
256
370
-1
  6
CONTINUOUS
 10
0.501322
 20
0.323616
 30
0.0
 11
0.565263
 21
0.323616
 31
0.0
  0
LINE
  5
119
100
AcDbEntity
100
AcDbLine
  8
0
 62
256
370
-1
  6
CONTINUOUS
 10
0.779405
 20
0.161249
 30
0.0
 11
0.653652
 21
0.287004
 31
0.0
  0
LINE
  5
11A
100
AcDbEntity
100
AcDbLine
  8
0
 62
256
370
-1
  6
CONTINUOUS
 10
0.287375
 20
0.653277
 30
0.0
 11
0.159116
 21
0.781538
 31
0.0
  0
LINE
  5
11B
100
AcDbEntity
100
AcDbLine
  8
0
 62
256
370
-1
  6
CONTINUOUS
 10
0.287374
 20
0.347953
 30
0.0
 11
0.159116
 21
0.219694
 31
0.0
  0
ARC
  5
11C
100
AcDbEntity
  8
0
 62
256
370
-1
  6
CONTINUOUS
100
AcDbCircle
 10
0.130831
 20
0.753254
 30
0.0
 40
0.04
100
AcDbArc
 50
44.999572999999998
 51
182.0003049999999973
  0
ARC
  5
11D
100
AcDbEntity
  8
0
 62
256
370
-1
  6
CONTINUOUS
100
AcDbCircle
 10
0.130831
 20
0.247979
 30
0.0
 40
0.04
100
AcDbArc
 50
177.9997099999999932
 51
315.0
  0
ARC
  5
11E
100
AcDbEntity
  8
0
 62
256
370
-1
  6
CONTINUOUS
100
AcDbCircle
 10
0.248682
 20
0.130127
 30
0.0
 40
0.04
100
AcDbArc
 50
134.999572999999998
 51
272.0003050000000258
  0
ARC
  5
11F
100
AcDbEntity
  8
0
 62
256
370
-1
  6
CONTINUOUS
100
AcDbCircle
 10
0.753958
 20
0.130127
 30
0.0
 40
0.04
100
AcDbArc
 50
267.9997250000000122
 51
45.0
  0
ARC
  5
120
100
AcDbEntity
  8
0
 62
256
370
-1
  6
CONTINUOUS
100
AcDbCircle
 10
0.87181
 20
0.247977
 30
0.0
 40
0.04
100
AcDbArc
 50
224.9995879999999886
 51
2.000327
  0
ARC
  5
121
100
AcDbEntity
  8
0
 62
256
370
-1
  6
CONTINUOUS
100
AcDbCircle
 10
0.87181
 20
0.753253
 30
0.0
 40
0.04
100
AcDbArc
 50
357.9997250000000122
 51
135.0000149999999906
  0
ARC
  5
122
100
AcDbEntity
  8
0
 62
256
370
-1
  6
CONTINUOUS
100
AcDbCircle
 10
0.753959
 20
0.871104
 30
0.0
 40
0.04
100
AcDbArc
 50
314.999572999999998
 51
92.0003200000000021
  0
ARC
  5
123
100
AcDbEntity
  8
0
 62
256
370
-1
  6
CONTINUOUS
100
AcDbCircle
 10
0.248683
 20
0.871104
 30
0.0
 40
0.04
100
AcDbArc
 50
87.9997099999999932
 51
225.0
  0
LINE
  5
124
100
AcDbEntity
100
AcDbLine
  8
0
 62
256
370
-1
  6
CONTINUOUS
 10
0.303048
 20
0.760171
 30
0.0
 11
0.2204
 21
0.842821
 31
0.0
  0
LINE
  5
125
100
AcDbEntity
100
AcDbLine
  8
0
 62
256
370
-1
  6
CONTINUOUS
 10
0.291974
 20
0.996286
 30
0.0
 11
0.333931
 21
0.994094
 31
0.0
  0
ARC
  5
126
100
AcDbEntity
  8
0
 62
256
370
-1
  6
CONTINUOUS
100
AcDbCircle
 10
0.332489
 20
0.952785
 30
0.0
 40
0.041333
100
AcDbArc
 50
0.0
 51
88.0
  0
ARC
  5
127
100
AcDbEntity
  8
0
 62
256
370
-1
  6
CONTINUOUS
100
AcDbCircle
 10
0.332489
 20
0.948833
 30
0.0
 40
0.041333
100
AcDbArc
 50
268.0000309999999786
 51
0.000037
  0
LINE
  5
128
100
AcDbEntity
100
AcDbLine
  8
0
 62
256
370
-1
  6
CONTINUOUS
 10
0.331048
 20
0.907525
 30
0.0
 11
0.25008
 21
0.91108
 31
0.0
  0
LINE
  5
129
100
AcDbEntity
100
AcDbLine
  8
0
 62
256
370
-1
  6
CONTINUOUS
 10
0.373822
 20
0.948834
 30
0.0
 11
0.373822
 21
0.952786
 31
0.0
  0
ARC
  5
12A
100
AcDbEntity
  8
0
 62
256
370
-1
  6
CONTINUOUS
100
AcDbCircle
 10
0.04915
 20
0.669447
 30
0.0
 40
0.041333
100
AcDbArc
 50
182.0009310000000085
 51
270.000945999999999
  0
LINE
  5
12B
100
AcDbEntity
100
AcDbLine
  8
0
 62
256
370
-1
  6
CONTINUOUS
 10
0.007842
 20
0.668003
 30
0.0
 11
0.00565
 21
0.709963
 31
0.0
  0
ARC
  5
12C
100
AcDbEntity
  8
0
 62
256
370
-1
  6
CONTINUOUS
100
AcDbCircle
 10
0.053103
 20
0.669447
 30
0.0
 40
0.041333
100
AcDbArc
 50
270.0000309999999786
 51
2.0000119999999999
  0
LINE
  5
12D
100
AcDbEntity
100
AcDbLine
  8
0
 62
256
370
-1
  6
CONTINUOUS
 10
0.053103
 20
0.628114
 30
0.0
 11
0.04915
 21
0.628114
 31
0.0
  0
LINE
  5
12E
100
AcDbEntity
100
AcDbLine
  8
0
 62
256
370
-1
  6
CONTINUOUS
 10
0.094411
 20
0.670889
 30
0.0
 11
0.090856
 21
0.751858
 31
0.0
  0
LINE
  5
12F
100
AcDbEntity
100
AcDbLine
  8
0
 62
256
370
-1
  6
CONTINUOUS
 10
0.00565
 20
0.29127
 30
0.0
 11
0.007842
 21
0.333227
 31
0.0
  0
ARC
  5
130
100
AcDbEntity
  8
0
 62
256
370
-1
  6
CONTINUOUS
100
AcDbCircle
 10
0.04915
 20
0.331785
 30
0.0
 40
0.041333
100
AcDbArc
 50
90.0002139999999997
 51
178.0002139999999997
  0
LINE
  5
131
100
AcDbEntity
100
AcDbLine
  8
0
 62
256
370
-1
  6
CONTINUOUS
 10
0.04915
 20
0.373121
 30
0.0
 11
0.053103
 21
0.373121
 31
0.0
  0
ARC
  5
132
100
AcDbEntity
  8
0
 62
256
370
-1
  6
CONTINUOUS
100
AcDbCircle
 10
0.053103
 20
0.331785
 30
0.0
 40
0.041333
100
AcDbArc
 50
358.0000309999999786
 51
90.0000229999999988
  0
LINE
  5
133
100
AcDbEntity
100
AcDbLine
  8
0
 62
256
370
-1
  6
CONTINUOUS
 10
0.094411
 20
0.330343
 30
0.0
 11
0.090856
 21
0.249375
 31
0.0
  0
ARC
  5
134
100
AcDbEntity
  8
0
 62
256
370
-1
  6
CONTINUOUS
100
AcDbCircle
 10
0.332489
 20
0.048445
 30
0.0
 40
0.041333
100
AcDbArc
 50
272.0
 51
0.00001
  0
LINE
  5
135
100
AcDbEntity
100
AcDbLine
  8
0
 62
256
370
-1
  6
CONTINUOUS
 10
0.333931
 20
0.007137
 30
0.0
 11
0.291974
 21
0.004945
 31
0.0
  0
ARC
  5
136
100
AcDbEntity
  8
0
 62
256
370
-1
  6
CONTINUOUS
100
AcDbCircle
 10
0.332488
 20
0.052398
 30
0.0
 40
0.041333
100
AcDbArc
 50
0.000031
 51
92.0000150000000048
  0
LINE
  5
137
100
AcDbEntity
100
AcDbLine
  8
0
 62
256
370
-1
  6
CONTINUOUS
 10
0.373822
 20
0.052398
 30
0.0
 11
0.373822
 21
0.048446
 31
0.0
  0
LINE
  5
138
100
AcDbEntity
100
AcDbLine
  8
0
 62
256
370
-1
  6
CONTINUOUS
 10
0.331047
 20
0.093707
 30
0.0
 11
0.250078
 21
0.090151
 31
0.0
  0
LINE
  5
139
100
AcDbEntity
100
AcDbLine
  8
0
 62
256
370
-1
  6
CONTINUOUS
 10
0.710668
 20
0.004945
 30
0.0
 11
0.668708
 21
0.007137
 31
0.0
  0
ARC
  5
13A
100
AcDbEntity
  8
0
 62
256
370
-1
  6
CONTINUOUS
100
AcDbCircle
 10
0.670153
 20
0.048445
 30
0.0
 40
0.041333
100
AcDbArc
 50
180.0
 51
268.0
  0
ARC
  5
13B
100
AcDbEntity
  8
0
 62
256
370
-1
  6
CONTINUOUS
100
AcDbCircle
 10
0.670152
 20
0.052398
 30
0.0
 40
0.041333
100
AcDbArc
 50
88.0000229999999988
 51
180.0000149999999906
  0
LINE
  5
13C
100
AcDbEntity
100
AcDbLine
  8
0
 62
256
370
-1
  6
CONTINUOUS
 10
0.671593
 20
0.093707
 30
0.0
 11
0.752561
 21
0.090151
 31
0.0
  0
ARC
  5
13D
100
AcDbEntity
  8
0
 62
256
370
-1
  6
CONTINUOUS
100
AcDbCircle
 10
0.953491
 20
0.331785
 30
0.0
 40
0.041333
100
AcDbArc
 50
2.0
 51
90.0
  0
LINE
  5
13E
100
AcDbEntity
100
AcDbLine
  8
0
 62
256
370
-1
  6
CONTINUOUS
 10
0.994799
 20
0.333229
 30
0.0
 11
0.996992
 21
0.29127
 31
0.0
  0
ARC
  5
13F
100
AcDbEntity
  8
0
 62
256
370
-1
  6
CONTINUOUS
100
AcDbCircle
 10
0.949539
 20
0.331784
 30
0.0
 40
0.041333
100
AcDbArc
 50
90.000243999999995
 51
182.0002289999999903
  0
LINE
  5
140
100
AcDbEntity
100
AcDbLine
  8
0
 62
256
370
-1
  6
CONTINUOUS
 10
0.949539
 20
0.373118
 30
0.0
 11
0.953491
 21
0.373118
 31
0.0
  0
LINE
  5
141
100
AcDbEntity
100
AcDbLine
  8
0
 62
256
370
-1
  6
CONTINUOUS
 10
0.90823
 20
0.330343
 30
0.0
 11
0.911785
 21
0.249374
 31
0.0
  0
LINE
  5
142
100
AcDbEntity
100
AcDbLine
  8
0
 62
256
370
-1
  6
CONTINUOUS
 10
0.996992
 20
0.709963
 30
0.0
 11
0.994799
 21
0.668004
 31
0.0
  0
ARC
  5
143
100
AcDbEntity
  8
0
 62
256
370
-1
  6
CONTINUOUS
100
AcDbCircle
 10
0.953491
 20
0.669446
 30
0.0
 40
0.041333
100
AcDbArc
 50
270.0
 51
358.0
  0
ARC
  5
144
100
AcDbEntity
  8
0
 62
256
370
-1
  6
CONTINUOUS
100
AcDbCircle
 10
0.949539
 20
0.669447
 30
0.0
 40
0.041333
100
AcDbArc
 50
178.000031000000007
 51
270.0000309999999786
  0
LINE
  5
145
100
AcDbEntity
100
AcDbLine
  8
0
 62
256
370
-1
  6
CONTINUOUS
 10
0.90823
 20
0.670888
 30
0.0
 11
0.911785
 21
0.751856
 31
0.0
  0
ARC
  5
146
100
AcDbEntity
  8
0
 62
256
370
-1
  6
CONTINUOUS
100
AcDbCircle
 10
0.670107
 20
0.952785
 30
0.0
 40
0.041333
100
AcDbArc
 50
92.0011290000000059
 51
180.0011440000000107
  0
LINE
  5
147
100
AcDbEntity
100
AcDbLine
  8
0
 62
256
370
-1
  6
CONTINUOUS
 10
0.668662
 20
0.994094
 30
0.0
 11
0.710668
 21
0.996286
 31
0.0
  0
ARC
  5
148
100
AcDbEntity
  8
0
 62
256
370
-1
  6
CONTINUOUS
100
AcDbCircle
 10
0.670107
 20
0.948833
 30
0.0
 40
0.041333
100
AcDbArc
 50
180.000031000000007
 51
272.0000309999999786
  0
LINE
  5
149
100
AcDbEntity
100
AcDbLine
  8
0
 62
256
370
-1
  6
CONTINUOUS
 10
0.628773
 20
0.948833
 30
0.0
 11
0.628773
 21
0.952785
 31
0.0
  0
LINE
  5
14A
100
AcDbEntity
100
AcDbLine
  8
0
 62
256
370
-1
  6
CONTINUOUS
 10
0.671548
 20
0.907525
 30
0.0
 11
0.752563
 21
0.91108
 31
0.0
  0
LINE
  5
14B
100
AcDbEntity
100
AcDbLine
  8
0
 62
256
370
-1
  6
CONTINUOUS
 10
0.628818
 20
0.052398
 30
0.0
 11
0.628819
 21
0.048445
 31
0.0
  0
LINE
  5
14C
100
AcDbEntity
100
AcDbLine
  8
0
 62
256
370
-1
  6
CONTINUOUS
 10
0.715265
 20
0.653274
 30
0.0
 11
0.8435240000000001
 21
0.781538
 31
0.0
  0
LINE
  5
14D
100
AcDbEntity
100
AcDbLine
  8
0
 62
256
370
-1
  6
CONTINUOUS
 10
0.001319
 20
1.142253
 30
0.0
 11
1.001322
 21
1.142253
 31
0.0
  0
LINE
  5
14E
100
AcDbEntity
100
AcDbLine
  8
0
 62
256
370
-1
  6
CONTINUOUS
 10
0.001319
 20
1.142253
 30
0.0
 11
0.001319
 21
2.1422539999999999
 31
0.0
  0
LINE
  5
14F
100
AcDbEntity
100
AcDbLine
  8
0
 62
256
370
-1
  6
CONTINUOUS
 10
0.085318
 20
1.142253
 30
0.0
 11
0.085318
 21
2.1422539999999999
 31
0.0
  0
LINE
  5
150
100
AcDbEntity
100
AcDbLine
  8
0
 62
256
370
-1
  6
CONTINUOUS
 10
0.125318
 20
1.142253
 30
0.0
 11
0.125318
 21
2.1422539999999999
 31
0.0
  0
LINE
  5
151
100
AcDbEntity
100
AcDbLine
  8
0
 62
256
370
-1
  6
CONTINUOUS
 10
0.252317
 20
1.142253
 30
0.0
 11
0.252317
 21
2.1422539999999999
 31
0.0
  0
LINE
  5
152
100
AcDbEntity
100
AcDbLine
  8
0
 62
256
370
-1
  6
CONTINUOUS
 10
0.291652
 20
1.142253
 30
0.0
 11
0.291652
 21
2.1422539999999999
 31
0.0
  0
LINE
  5
153
100
AcDbEntity
100
AcDbLine
  8
0
 62
256
370
-1
  6
CONTINUOUS
 10
0.373822
 20
1.142253
 30
0.0
 11
0.373822
 21
2.1422539999999999
 31
0.0
  0
LINE
  5
154
100
AcDbEntity
100
AcDbLine
  8
0
 62
256
370
-1
  6
CONTINUOUS
 10
1.001322
 20
1.142253
 30
0.0
 11
1.001322
 21
2.1422539999999999
 31
0.0
  0
LINE
  5
155
100
AcDbEntity
100
AcDbLine
  8
0
 62
256
370
-1
  6
CONTINUOUS
 10
0.917323
 20
1.142253
 30
0.0
 11
0.917323
 21
2.1422539999999999
 31
0.0
  0
LINE
  5
156
100
AcDbEntity
100
AcDbLine
  8
0
 62
256
370
-1
  6
CONTINUOUS
 10
0.877323
 20
1.142253
 30
0.0
 11
0.877323
 21
2.1422539999999999
 31
0.0
  0
LINE
  5
157
100
AcDbEntity
100
AcDbLine
  8
0
 62
256
370
-1
  6
CONTINUOUS
 10
0.750324
 20
1.142253
 30
0.0
 11
0.750324
 21
2.1422539999999999
 31
0.0
  0
LINE
  5
158
100
AcDbEntity
100
AcDbLine
  8
0
 62
256
370
-1
  6
CONTINUOUS
 10
0.710989
 20
1.142253
 30
0.0
 11
0.710989
 21
2.1422539999999999
 31
0.0
  0
LINE
  5
159
100
AcDbEntity
100
AcDbLine
  8
0
 62
256
370
-1
  6
CONTINUOUS
 10
0.628819
 20
1.142253
 30
0.0
 11
0.628819
 21
2.1422539999999999
 31
0.0
  0
LINE
  5
15A
100
AcDbEntity
100
AcDbLine
  8
0
 62
256
370
-1
  6
CONTINUOUS
 10
0.001319
 20
2.1422539999999999
 30
0.0
 11
1.001322
 21
2.1422539999999999
 31
0.0
  0
ENDBLK
  5
15B
100
AcDbEntity
  8
0
100
AcDbBlockEnd
  0
BLOCK
  5
15C
100
AcDbEntity
  8
0
100
AcDbBlockBegin
  2
1010-2D
 70
0
 10
0.0
 20
0.0
 30
0.0
  3
1010-2D
  1

  0
ARC
  5
15D
100
AcDbEntity
  8
0
 62
256
370
-1
  6
CONTINUOUS
100
AcDbCircle
 10
1.001323
 20
0.104615
 30
0.0
 40
0.02
100
AcDbArc
 50
90.0011369999999999
 51
270.0011289999999917
  0
LINE
  5
15E
100
AcDbEntity
100
AcDbLine
  8
0
 62
256
370
-1
  6
CONTINUOUS
 10
1.001323
 20
0.084615
 30
0.0
 11
1.001323
 21
0.083949
 31
0.0
  0
ARC
  5
15F
100
AcDbEntity
  8
0
 62
256
370
-1
  6
CONTINUOUS
100
AcDbCircle
 10
0.9179890000000001
 20
0.083949
 30
0.0
 40
0.083333
100
AcDbArc
 50
270.0
 51
0.00001
  0
LINE
  5
160
100
AcDbEntity
100
AcDbLine
  8
0
 62
256
370
-1
  6
CONTINUOUS
 10
0.9179890000000001
 20
0.000615
 30
0.0
 11
0.917323
 21
0.000615
 31
0.0
  0
ARC
  5
161
100
AcDbEntity
  8
0
 62
256
370
-1
  6
CONTINUOUS
100
AcDbCircle
 10
0.897321
 20
0.000615
 30
0.0
 40
0.02
100
AcDbArc
 50
0.0
 51
180.0
  0
LINE
  5
162
100
AcDbEntity
100
AcDbLine
  8
0
 62
256
370
-1
  6
CONTINUOUS
 10
0.877322
 20
0.000615
 30
0.0
 11
0.834656
 21
0.000615
 31
0.0
  0
LINE
  5
163
100
AcDbEntity
100
AcDbLine
  8
0
 62
256
370
-1
  6
CONTINUOUS
 10
0.834656
 20
0.000615
 30
0.0
 11
0.750644
 21
0.003549
 31
0.0
  0
ARC
  5
164
100
AcDbEntity
  8
0
 62
256
370
-1
  6
CONTINUOUS
100
AcDbCircle
 10
0.7306550000000001
 20
0.004247
 30
0.0
 40
0.02
100
AcDbArc
 50
358.0
 51
178.0
  0
ARC
  5
165
100
AcDbEntity
  8
0
 62
256
370
-1
  6
CONTINUOUS
100
AcDbCircle
 10
0.271985
 20
0.004247
 30
0.0
 40
0.02
100
AcDbArc
 50
2.0
 51
181.9999850000000094
  0
LINE
  5
166
100
AcDbEntity
100
AcDbLine
  8
0
 62
256
370
-1
  6
CONTINUOUS
 10
0.251998
 20
0.003549
 30
0.0
 11
0.167986
 21
0.000615
 31
0.0
  0
LINE
  5
167
100
AcDbEntity
100
AcDbLine
  8
0
 62
256
370
-1
  6
CONTINUOUS
 10
0.167986
 20
0.000615
 30
0.0
 11
0.125317
 21
0.000615
 31
0.0
  0
ARC
  5
168
100
AcDbEntity
  8
0
 62
256
370
-1
  6
CONTINUOUS
100
AcDbCircle
 10
0.105318
 20
0.000615
 30
0.0
 40
0.02
100
AcDbArc
 50
0.0
 51
180.0
  0
LINE
  5
169
100
AcDbEntity
100
AcDbLine
  8
0
 62
256
370
-1
  6
CONTINUOUS
 10
0.085319
 20
0.000615
 30
0.0
 11
0.084653
 21
0.000615
 31
0.0
  0
ARC
  5
16A
100
AcDbEntity
  8
0
 62
256
370
-1
  6
CONTINUOUS
100
AcDbCircle
 10
0.084653
 20
0.083949
 30
0.0
 40
0.083333
100
AcDbArc
 50
180.0
 51
270.0
  0
LINE
  5
16B
100
AcDbEntity
100
AcDbLine
  8
0
 62
256
370
-1
  6
CONTINUOUS
 10
0.001319
 20
0.083949
 30
0.0
 11
0.001319
 21
0.084615
 31
0.0
  0
ARC
  5
16C
100
AcDbEntity
  8
0
 62
256
370
-1
  6
CONTINUOUS
100
AcDbCircle
 10
0.001319
 20
0.104615
 30
0.0
 40
0.02
100
AcDbArc
 50
270.0
 51
90.000007999999994
  0
LINE
  5
16D
100
AcDbEntity
100
AcDbLine
  8
0
 62
256
370
-1
  6
CONTINUOUS
 10
0.001319
 20
0.124615
 30
0.0
 11
0.001319
 21
0.167282
 31
0.0
  0
LINE
  5
16E
100
AcDbEntity
100
AcDbLine
  8
0
 62
256
370
-1
  6
CONTINUOUS
 10
0.001319
 20
0.167282
 30
0.0
 11
0.004254
 21
0.251295
 31
0.0
  0
ARC
  5
16F
100
AcDbEntity
  8
0
 62
256
370
-1
  6
CONTINUOUS
100
AcDbCircle
 10
0.004951
 20
0.271282
 30
0.0
 40
0.02
100
AcDbArc
 50
268.0
 51
88.0
  0
ARC
  5
170
100
AcDbEntity
  8
0
 62
256
370
-1
  6
CONTINUOUS
100
AcDbCircle
 10
0.004951
 20
0.729951
 30
0.0
 40
0.02
100
AcDbArc
 50
272.0
 51
91.999992000000006
  0
LINE
  5
171
100
AcDbEntity
100
AcDbLine
  8
0
 62
256
370
-1
  6
CONTINUOUS
 10
0.004254
 20
0.7499400000000001
 30
0.0
 11
0.001319
 21
0.833951
 31
0.0
  0
LINE
  5
172
100
AcDbEntity
100
AcDbLine
  8
0
 62
256
370
-1
  6
CONTINUOUS
 10
0.001319
 20
0.833951
 30
0.0
 11
0.001319
 21
0.876618
 31
0.0
  0
ARC
  5
173
100
AcDbEntity
  8
0
 62
256
370
-1
  6
CONTINUOUS
100
AcDbCircle
 10
0.001319
 20
0.896617
 30
0.0
 40
0.02
100
AcDbArc
 50
270.0
 51
90.000007999999994
  0
LINE
  5
174
100
AcDbEntity
100
AcDbLine
  8
0
 62
256
370
-1
  6
CONTINUOUS
 10
0.001319
 20
0.916617
 30
0.0
 11
0.001319
 21
0.917283
 31
0.0
  0
ARC
  5
175
100
AcDbEntity
  8
0
 62
256
370
-1
  6
CONTINUOUS
100
AcDbCircle
 10
0.084653
 20
0.917283
 30
0.0
 40
0.083333
100
AcDbArc
 50
90.0011369999999999
 51
180.0011440000000107
  0
LINE
  5
176
100
AcDbEntity
100
AcDbLine
  8
0
 62
256
370
-1
  6
CONTINUOUS
 10
0.084653
 20
1.000615
 30
0.0
 11
0.085319
 21
1.000615
 31
0.0
  0
ARC
  5
177
100
AcDbEntity
  8
0
 62
256
370
-1
  6
CONTINUOUS
100
AcDbCircle
 10
0.105318
 20
1.000615
 30
0.0
 40
0.02
100
AcDbArc
 50
180.0
 51
0.0
  0
LINE
  5
178
100
AcDbEntity
100
AcDbLine
  8
0
 62
256
370
-1
  6
CONTINUOUS
 10
0.125317
 20
1.000615
 30
0.0
 11
0.167986
 21
1.000615
 31
0.0
  0
LINE
  5
179
100
AcDbEntity
100
AcDbLine
  8
0
 62
256
370
-1
  6
CONTINUOUS
 10
0.167986
 20
1.000615
 30
0.0
 11
0.251998
 21
0.997682
 31
0.0
  0
ARC
  5
17A
100
AcDbEntity
  8
0
 62
256
370
-1
  6
CONTINUOUS
100
AcDbCircle
 10
0.271985
 20
0.996984
 30
0.0
 40
0.02
100
AcDbArc
 50
178.0
 51
358.0
  0
ARC
  5
17B
100
AcDbEntity
  8
0
 62
256
370
-1
  6
CONTINUOUS
100
AcDbCircle
 10
0.7306550000000001
 20
0.996984
 30
0.0
 40
0.02
100
AcDbArc
 50
182.0
 51
1.9999990000000001
  0
LINE
  5
17C
100
AcDbEntity
100
AcDbLine
  8
0
 62
256
370
-1
  6
CONTINUOUS
 10
0.750644
 20
0.997682
 30
0.0
 11
0.834656
 21
1.000615
 31
0.0
  0
LINE
  5
17D
100
AcDbEntity
100
AcDbLine
  8
0
 62
256
370
-1
  6
CONTINUOUS
 10
0.834656
 20
1.000615
 30
0.0
 11
0.877322
 21
1.000615
 31
0.0
  0
ARC
  5
17E
100
AcDbEntity
  8
0
 62
256
370
-1
  6
CONTINUOUS
100
AcDbCircle
 10
0.897321
 20
1.000615
 30
0.0
 40
0.02
100
AcDbArc
 50
180.0
 51
0.0
  0
LINE
  5
17F
100
AcDbEntity
100
AcDbLine
  8
0
 62
256
370
-1
  6
CONTINUOUS
 10
0.917323
 20
1.000615
 30
0.0
 11
0.9179890000000001
 21
1.000615
 31
0.0
  0
ARC
  5
180
100
AcDbEntity
  8
0
 62
256
370
-1
  6
CONTINUOUS
100
AcDbCircle
 10
0.9179890000000001
 20
0.917283
 30
0.0
 40
0.083333
100
AcDbArc
 50
0.0
 51
90.0
  0
LINE
  5
181
100
AcDbEntity
100
AcDbLine
  8
0
 62
256
370
-1
  6
CONTINUOUS
 10
1.001323
 20
0.917283
 30
0.0
 11
1.001323
 21
0.916617
 31
0.0
  0
ARC
  5
182
100
AcDbEntity
  8
0
 62
256
370
-1
  6
CONTINUOUS
100
AcDbCircle
 10
1.001323
 20
0.896617
 30
0.0
 40
0.02
100
AcDbArc
 50
90.0011369999999999
 51
270.0011289999999917
  0
LINE
  5
183
100
AcDbEntity
100
AcDbLine
  8
0
 62
256
370
-1
  6
CONTINUOUS
 10
1.001323
 20
0.876618
 30
0.0
 11
1.001323
 21
0.833951
 31
0.0
  0
LINE
  5
184
100
AcDbEntity
100
AcDbLine
  8
0
 62
256
370
-1
  6
CONTINUOUS
 10
1.001323
 20
0.833951
 30
0.0
 11
0.9983880000000001
 21
0.7499400000000001
 31
0.0
  0
ARC
  5
185
100
AcDbEntity
  8
0
 62
256
370
-1
  6
CONTINUOUS
100
AcDbCircle
 10
0.997691
 20
0.729951
 30
0.0
 40
0.02
100
AcDbArc
 50
88.0
 51
268.0000309999999786
  0
ARC
  5
186
100
AcDbEntity
  8
0
 62
256
370
-1
  6
CONTINUOUS
100
AcDbCircle
 10
0.997691
 20
0.271282
 30
0.0
 40
0.02
100
AcDbArc
 50
92.0011290000000059
 51
272.0011289999999917
  0
LINE
  5
187
100
AcDbEntity
100
AcDbLine
  8
0
 62
256
370
-1
  6
CONTINUOUS
 10
0.9983880000000001
 20
0.251295
 30
0.0
 11
1.001323
 21
0.167282
 31
0.0
  0
LINE
  5
188
100
AcDbEntity
100
AcDbLine
  8
0
 62
256
370
-1
  6
CONTINUOUS
 10
1.001323
 20
0.167282
 30
0.0
 11
1.001323
 21
0.124615
 31
0.0
  0
CIRCLE
  5
189
100
AcDbEntity
100
AcDbCircle
  8
0
 62
256
370
-1
  6
CONTINUOUS
 10
0.501321
 20
0.5006159999999999
 30
0.0
 40
0.1005
  0
ARC
  5
18A
100
AcDbEntity
  8
0
 62
256
370
-1
  6
CONTINUOUS
100
AcDbCircle
 10
0.437379
 20
0.8026180000000001
 30
0.0
 40
0.125
100
AcDbArc
 50
225.0007319999999993
 51
270.0000309999999786
  0
LINE
  5
18B
100
AcDbEntity
100
AcDbLine
  8
0
 62
256
370
-1
  6
CONTINUOUS
 10
0.501322
 20
0.6776180000000001
 30
0.0
 11
0.437379
 21
0.6776180000000001
 31
0.0
  0
LINE
  5
18C
100
AcDbEntity
100
AcDbLine
  8
0
 62
256
370
-1
  6
CONTINUOUS
 10
0.303048
 20
0.760171
 30
0.0
 11
0.348991
 21
0.714229
 31
0.0
  0
ARC
  5
18D
100
AcDbEntity
  8
0
 62
256
370
-1
  6
CONTINUOUS
100
AcDbCircle
 10
0.198986
 20
0.564889
 30
0.0
 40
0.125
100
AcDbArc
 50
0.0
 51
44.9995380000000011
  0
LINE
  5
18E
100
AcDbEntity
100
AcDbLine
  8
0
 62
256
370
-1
  6
CONTINUOUS
 10
0.323986
 20
0.500614
 30
0.0
 11
0.323986
 21
0.564889
 31
0.0
  0
ARC
  5
18F
100
AcDbEntity
  8
0
 62
256
370
-1
  6
CONTINUOUS
100
AcDbCircle
 10
0.565263
 20
0.8026180000000001
 30
0.0
 40
0.125
100
AcDbArc
 50
270.0000309999999786
 51
315.0000309999999786
  0
LINE
  5
190
100
AcDbEntity
100
AcDbLine
  8
0
 62
256
370
-1
  6
CONTINUOUS
 10
0.501322
 20
0.6776180000000001
 30
0.0
 11
0.565263
 21
0.6776180000000001
 31
0.0
  0
ARC
  5
191
100
AcDbEntity
  8
0
 62
256
370
-1
  6
CONTINUOUS
100
AcDbCircle
 10
0.803655
 20
0.5648879999999999
 30
0.0
 40
0.125
100
AcDbArc
 50
135.000977000000006
 51
179.9999850000000094
  0
LINE
  5
192
100
AcDbEntity
100
AcDbLine
  8
0
 62
256
370
-1
  6
CONTINUOUS
 10
0.678655
 20
0.500614
 30
0.0
 11
0.678655
 21
0.5648879999999999
 31
0.0
  0
ARC
  5
193
100
AcDbEntity
  8
0
 62
256
370
-1
  6
CONTINUOUS
100
AcDbCircle
 10
0.803655
 20
0.436342
 30
0.0
 40
0.125
100
AcDbArc
 50
180.000031000000007
 51
225.0000459999999975
  0
LINE
  5
194
100
AcDbEntity
100
AcDbLine
  8
0
 62
256
370
-1
  6
CONTINUOUS
 10
0.678655
 20
0.500614
 30
0.0
 11
0.678655
 21
0.436342
 31
0.0
  0
ARC
  5
195
100
AcDbEntity
  8
0
 62
256
370
-1
  6
CONTINUOUS
100
AcDbCircle
 10
0.198986
 20
0.436342
 30
0.0
 40
0.125
100
AcDbArc
 50
315.0000610000000165
 51
0.000034
  0
LINE
  5
196
100
AcDbEntity
100
AcDbLine
  8
0
 62
256
370
-1
  6
CONTINUOUS
 10
0.323986
 20
0.500614
 30
0.0
 11
0.323986
 21
0.436342
 31
0.0
  0
LINE
  5
197
100
AcDbEntity
100
AcDbLine
  8
0
 62
256
370
-1
  6
CONTINUOUS
 10
0.653652
 20
0.71423
 30
0.0
 11
0.779407
 21
0.839985
 31
0.0
  0
LINE
  5
198
100
AcDbEntity
100
AcDbLine
  8
0
 62
256
370
-1
  6
CONTINUOUS
 10
0.715267
 20
0.347953
 30
0.0
 11
0.840689
 21
0.222531
 31
0.0
  0
ARC
  5
199
100
AcDbEntity
  8
0
 62
256
370
-1
  6
CONTINUOUS
100
AcDbCircle
 10
0.437376
 20
0.198616
 30
0.0
 40
0.125
100
AcDbArc
 50
90.0002139999999997
 51
135.000518999999997
  0
LINE
  5
19A
100
AcDbEntity
100
AcDbLine
  8
0
 62
256
370
-1
  6
CONTINUOUS
 10
0.223233
 20
0.161249
 30
0.0
 11
0.348987
 21
0.287004
 31
0.0
  0
LINE
  5
19B
100
AcDbEntity
100
AcDbLine
  8
0
 62
256
370
-1
  6
CONTINUOUS
 10
0.501322
 20
0.323616
 30
0.0
 11
0.437376
 21
0.323616
 31
0.0
  0
ARC
  5
19C
100
AcDbEntity
  8
0
 62
256
370
-1
  6
CONTINUOUS
100
AcDbCircle
 10
0.565263
 20
0.198616
 30
0.0
 40
0.125
100
AcDbArc
 50
44.9997060000000033
 51
90.000007999999994
  0
LINE
  5
19D
100
AcDbEntity
100
AcDbLine
  8
0
 62
256
370
-1
  6
CONTINUOUS
 10
0.501322
 20
0.323616
 30
0.0
 11
0.565263
 21
0.323616
 31
0.0
  0
LINE
  5
19E
100
AcDbEntity
100
AcDbLine
  8
0
 62
256
370
-1
  6
CONTINUOUS
 10
0.779405
 20
0.161249
 30
0.0
 11
0.653652
 21
0.287004
 31
0.0
  0
LINE
  5
19F
100
AcDbEntity
100
AcDbLine
  8
0
 62
256
370
-1
  6
CONTINUOUS
 10
0.287375
 20
0.653277
 30
0.0
 11
0.159116
 21
0.781538
 31
0.0
  0
LINE
  5
1A0
100
AcDbEntity
100
AcDbLine
  8
0
 62
256
370
-1
  6
CONTINUOUS
 10
0.287374
 20
0.347953
 30
0.0
 11
0.159116
 21
0.219694
 31
0.0
  0
ARC
  5
1A1
100
AcDbEntity
  8
0
 62
256
370
-1
  6
CONTINUOUS
100
AcDbCircle
 10
0.130831
 20
0.753254
 30
0.0
 40
0.04
100
AcDbArc
 50
44.999572999999998
 51
182.0003049999999973
  0
ARC
  5
1A2
100
AcDbEntity
  8
0
 62
256
370
-1
  6
CONTINUOUS
100
AcDbCircle
 10
0.130831
 20
0.247979
 30
0.0
 40
0.04
100
AcDbArc
 50
177.9997099999999932
 51
315.0
  0
ARC
  5
1A3
100
AcDbEntity
  8
0
 62
256
370
-1
  6
CONTINUOUS
100
AcDbCircle
 10
0.248682
 20
0.130127
 30
0.0
 40
0.04
100
AcDbArc
 50
134.999572999999998
 51
272.0003050000000258
  0
ARC
  5
1A4
100
AcDbEntity
  8
0
 62
256
370
-1
  6
CONTINUOUS
100
AcDbCircle
 10
0.753958
 20
0.130127
 30
0.0
 40
0.04
100
AcDbArc
 50
267.9997250000000122
 51
45.0
  0
ARC
  5
1A5
100
AcDbEntity
  8
0
 62
256
370
-1
  6
CONTINUOUS
100
AcDbCircle
 10
0.87181
 20
0.247977
 30
0.0
 40
0.04
100
AcDbArc
 50
224.9995879999999886
 51
2.000327
  0
ARC
  5
1A6
100
AcDbEntity
  8
0
 62
256
370
-1
  6
CONTINUOUS
100
AcDbCircle
 10
0.87181
 20
0.753253
 30
0.0
 40
0.04
100
AcDbArc
 50
357.9997250000000122
 51
135.0000149999999906
  0
ARC
  5
1A7
100
AcDbEntity
  8
0
 62
256
370
-1
  6
CONTINUOUS
100
AcDbCircle
 10
0.753959
 20
0.871104
 30
0.0
 40
0.04
100
AcDbArc
 50
314.999572999999998
 51
92.0003200000000021
  0
ARC
  5
1A8
100
AcDbEntity
  8
0
 62
256
370
-1
  6
CONTINUOUS
100
AcDbCircle
 10
0.248683
 20
0.871104
 30
0.0
 40
0.04
100
AcDbArc
 50
87.9997099999999932
 51
225.0
  0
LINE
  5
1A9
100
AcDbEntity
100
AcDbLine
  8
0
 62
256
370
-1
  6
CONTINUOUS
 10
0.303048
 20
0.760171
 30
0.0
 11
0.2204
 21
0.842821
 31
0.0
  0
LINE
  5
1AA
100
AcDbEntity
100
AcDbLine
  8
0
 62
256
370
-1
  6
CONTINUOUS
 10
0.291974
 20
0.996286
 30
0.0
 11
0.333931
 21
0.994094
 31
0.0
  0
ARC
  5
1AB
100
AcDbEntity
  8
0
 62
256
370
-1
  6
CONTINUOUS
100
AcDbCircle
 10
0.332489
 20
0.952785
 30
0.0
 40
0.041333
100
AcDbArc
 50
0.0
 51
88.0
  0
ARC
  5
1AC
100
AcDbEntity
  8
0
 62
256
370
-1
  6
CONTINUOUS
100
AcDbCircle
 10
0.332489
 20
0.948833
 30
0.0
 40
0.041333
100
AcDbArc
 50
268.0000309999999786
 51
0.000037
  0
LINE
  5
1AD
100
AcDbEntity
100
AcDbLine
  8
0
 62
256
370
-1
  6
CONTINUOUS
 10
0.331048
 20
0.907525
 30
0.0
 11
0.25008
 21
0.91108
 31
0.0
  0
LINE
  5
1AE
100
AcDbEntity
100
AcDbLine
  8
0
 62
256
370
-1
  6
CONTINUOUS
 10
0.373822
 20
0.948834
 30
0.0
 11
0.373822
 21
0.952786
 31
0.0
  0
ARC
  5
1AF
100
AcDbEntity
  8
0
 62
256
370
-1
  6
CONTINUOUS
100
AcDbCircle
 10
0.04915
 20
0.669447
 30
0.0
 40
0.041333
100
AcDbArc
 50
182.0009310000000085
 51
270.000945999999999
  0
LINE
  5
1B0
100
AcDbEntity
100
AcDbLine
  8
0
 62
256
370
-1
  6
CONTINUOUS
 10
0.007842
 20
0.668003
 30
0.0
 11
0.00565
 21
0.709963
 31
0.0
  0
ARC
  5
1B1
100
AcDbEntity
  8
0
 62
256
370
-1
  6
CONTINUOUS
100
AcDbCircle
 10
0.053103
 20
0.669447
 30
0.0
 40
0.041333
100
AcDbArc
 50
270.0000309999999786
 51
2.0000119999999999
  0
LINE
  5
1B2
100
AcDbEntity
100
AcDbLine
  8
0
 62
256
370
-1
  6
CONTINUOUS
 10
0.053103
 20
0.628114
 30
0.0
 11
0.04915
 21
0.628114
 31
0.0
  0
LINE
  5
1B3
100
AcDbEntity
100
AcDbLine
  8
0
 62
256
370
-1
  6
CONTINUOUS
 10
0.094411
 20
0.670889
 30
0.0
 11
0.090856
 21
0.751858
 31
0.0
  0
LINE
  5
1B4
100
AcDbEntity
100
AcDbLine
  8
0
 62
256
370
-1
  6
CONTINUOUS
 10
0.00565
 20
0.29127
 30
0.0
 11
0.007842
 21
0.333227
 31
0.0
  0
ARC
  5
1B5
100
AcDbEntity
  8
0
 62
256
370
-1
  6
CONTINUOUS
100
AcDbCircle
 10
0.04915
 20
0.331785
 30
0.0
 40
0.041333
100
AcDbArc
 50
90.0002139999999997
 51
178.0002139999999997
  0
LINE
  5
1B6
100
AcDbEntity
100
AcDbLine
  8
0
 62
256
370
-1
  6
CONTINUOUS
 10
0.04915
 20
0.373121
 30
0.0
 11
0.053103
 21
0.373121
 31
0.0
  0
ARC
  5
1B7
100
AcDbEntity
  8
0
 62
256
370
-1
  6
CONTINUOUS
100
AcDbCircle
 10
0.053103
 20
0.331785
 30
0.0
 40
0.041333
100
AcDbArc
 50
358.0000309999999786
 51
90.0000229999999988
  0
LINE
  5
1B8
100
AcDbEntity
100
AcDbLine
  8
0
 62
256
370
-1
  6
CONTINUOUS
 10
0.094411
 20
0.330343
 30
0.0
 11
0.090856
 21
0.249375
 31
0.0
  0
ARC
  5
1B9
100
AcDbEntity
  8
0
 62
256
370
-1
  6
CONTINUOUS
100
AcDbCircle
 10
0.332489
 20
0.048445
 30
0.0
 40
0.041333
100
AcDbArc
 50
272.0
 51
0.00001
  0
LINE
  5
1BA
100
AcDbEntity
100
AcDbLine
  8
0
 62
256
370
-1
  6
CONTINUOUS
 10
0.333931
 20
0.007137
 30
0.0
 11
0.291974
 21
0.004945
 31
0.0
  0
ARC
  5
1BB
100
AcDbEntity
  8
0
 62
256
370
-1
  6
CONTINUOUS
100
AcDbCircle
 10
0.332488
 20
0.052398
 30
0.0
 40
0.041333
100
AcDbArc
 50
0.000031
 51
92.0000150000000048
  0
LINE
  5
1BC
100
AcDbEntity
100
AcDbLine
  8
0
 62
256
370
-1
  6
CONTINUOUS
 10
0.373822
 20
0.052398
 30
0.0
 11
0.373822
 21
0.048446
 31
0.0
  0
LINE
  5
1BD
100
AcDbEntity
100
AcDbLine
  8
0
 62
256
370
-1
  6
CONTINUOUS
 10
0.331047
 20
0.093707
 30
0.0
 11
0.250078
 21
0.090151
 31
0.0
  0
LINE
  5
1BE
100
AcDbEntity
100
AcDbLine
  8
0
 62
256
370
-1
  6
CONTINUOUS
 10
0.710668
 20
0.004945
 30
0.0
 11
0.668708
 21
0.007137
 31
0.0
  0
ARC
  5
1BF
100
AcDbEntity
  8
0
 62
256
370
-1
  6
CONTINUOUS
100
AcDbCircle
 10
0.670153
 20
0.048445
 30
0.0
 40
0.041333
100
AcDbArc
 50
180.0
 51
268.0
  0
ARC
  5
1C0
100
AcDbEntity
  8
0
 62
256
370
-1
  6
CONTINUOUS
100
AcDbCircle
 10
0.670152
 20
0.052398
 30
0.0
 40
0.041333
100
AcDbArc
 50
88.0000229999999988
 51
180.0000149999999906
  0
LINE
  5
1C1
100
AcDbEntity
100
AcDbLine
  8
0
 62
256
370
-1
  6
CONTINUOUS
 10
0.671593
 20
0.093707
 30
0.0
 11
0.752561
 21
0.090151
 31
0.0
  0
ARC
  5
1C2
100
AcDbEntity
  8
0
 62
256
370
-1
  6
CONTINUOUS
100
AcDbCircle
 10
0.953491
 20
0.331785
 30
0.0
 40
0.041333
100
AcDbArc
 50
2.0
 51
90.0
  0
LINE
  5
1C3
100
AcDbEntity
100
AcDbLine
  8
0
 62
256
370
-1
  6
CONTINUOUS
 10
0.994799
 20
0.333229
 30
0.0
 11
0.996992
 21
0.29127
 31
0.0
  0
ARC
  5
1C4
100
AcDbEntity
  8
0
 62
256
370
-1
  6
CONTINUOUS
100
AcDbCircle
 10
0.949539
 20
0.331784
 30
0.0
 40
0.041333
100
AcDbArc
 50
90.000243999999995
 51
182.0002289999999903
  0
LINE
  5
1C5
100
AcDbEntity
100
AcDbLine
  8
0
 62
256
370
-1
  6
CONTINUOUS
 10
0.949539
 20
0.373118
 30
0.0
 11
0.953491
 21
0.373118
 31
0.0
  0
LINE
  5
1C6
100
AcDbEntity
100
AcDbLine
  8
0
 62
256
370
-1
  6
CONTINUOUS
 10
0.90823
 20
0.330343
 30
0.0
 11
0.911785
 21
0.249374
 31
0.0
  0
LINE
  5
1C7
100
AcDbEntity
100
AcDbLine
  8
0
 62
256
370
-1
  6
CONTINUOUS
 10
0.996992
 20
0.709963
 30
0.0
 11
0.994799
 21
0.668004
 31
0.0
  0
ARC
  5
1C8
100
AcDbEntity
  8
0
 62
256
370
-1
  6
CONTINUOUS
100
AcDbCircle
 10
0.953491
 20
0.669446
 30
0.0
 40
0.041333
100
AcDbArc
 50
270.0
 51
358.0
  0
ARC
  5
1C9
100
AcDbEntity
  8
0
 62
256
370
-1
  6
CONTINUOUS
100
AcDbCircle
 10
0.949539
 20
0.669447
 30
0.0
 40
0.041333
100
AcDbArc
 50
178.000031000000007
 51
270.0000309999999786
  0
LINE
  5
1CA
100
AcDbEntity
100
AcDbLine
  8
0
 62
256
370
-1
  6
CONTINUOUS
 10
0.90823
 20
0.670888
 30
0.0
 11
0.911785
 21
0.751856
 31
0.0
  0
ARC
  5
1CB
100
AcDbEntity
  8
0
 62
256
370
-1
  6
CONTINUOUS
100
AcDbCircle
 10
0.670107
 20
0.952785
 30
0.0
 40
0.041333
100
AcDbArc
 50
92.0011290000000059
 51
180.0011440000000107
  0
LINE
  5
1CC
100
AcDbEntity
100
AcDbLine
  8
0
 62
256
370
-1
  6
CONTINUOUS
 10
0.668662
 20
0.994094
 30
0.0
 11
0.710668
 21
0.996286
 31
0.0
  0
ARC
  5
1CD
100
AcDbEntity
  8
0
 62
256
370
-1
  6
CONTINUOUS
100
AcDbCircle
 10
0.670107
 20
0.948833
 30
0.0
 40
0.041333
100
AcDbArc
 50
180.000031000000007
 51
272.0000309999999786
  0
LINE
  5
1CE
100
AcDbEntity
100
AcDbLine
  8
0
 62
256
370
-1
  6
CONTINUOUS
 10
0.628773
 20
0.948833
 30
0.0
 11
0.628773
 21
0.952785
 31
0.0
  0
LINE
  5
1CF
100
AcDbEntity
100
AcDbLine
  8
0
 62
256
370
-1
  6
CONTINUOUS
 10
0.671548
 20
0.907525
 30
0.0
 11
0.752563
 21
0.91108
 31
0.0
  0
LINE
  5
1D0
100
AcDbEntity
100
AcDbLine
  8
0
 62
256
370
-1
  6
CONTINUOUS
 10
0.628818
 20
0.052398
 30
0.0
 11
0.628819
 21
0.048445
 31
0.0
  0
LINE
  5
1D1
100
AcDbEntity
100
AcDbLine
  8
0
 62
256
370
-1
  6
CONTINUOUS
 10
0.715265
 20
0.653274
 30
0.0
 11
0.8435240000000001
 21
0.781538
 31
0.0
  0
LINE
  5
1D2
100
AcDbEntity
100
AcDbLine
  8
0
 62
256
370
-1
  6
CONTINUOUS
 10
0.001319
 20
1.142253
 30
0.0
 11
1.001322
 21
1.142253
 31
0.0
  0
LINE
  5
1D3
100
AcDbEntity
100
AcDbLine
  8
0
 62
256
370
-1
  6
CONTINUOUS
 10
0.001319
 20
1.142253
 30
0.0
 11
0.001319
 21
2.1422539999999999
 31
0.0
  0
LINE
  5
1D4
100
AcDbEntity
100
AcDbLine
  8
0
 62
256
370
-1
  6
CONTINUOUS
 10
0.085318
 20
1.142253
 30
0.0
 11
0.085318
 21
2.1422539999999999
 31
0.0
  0
LINE
  5
1D5
100
AcDbEntity
100
AcDbLine
  8
0
 62
256
370
-1
  6
CONTINUOUS
 10
0.125318
 20
1.142253
 30
0.0
 11
0.125318
 21
2.1422539999999999
 31
0.0
  0
LINE
  5
1D6
100
AcDbEntity
100
AcDbLine
  8
0
 62
256
370
-1
  6
CONTINUOUS
 10
0.252317
 20
1.142253
 30
0.0
 11
0.252317
 21
2.1422539999999999
 31
0.0
  0
LINE
  5
1D7
100
AcDbEntity
100
AcDbLine
  8
0
 62
256
370
-1
  6
CONTINUOUS
 10
0.291652
 20
1.142253
 30
0.0
 11
0.291652
 21
2.1422539999999999
 31
0.0
  0
LINE
  5
1D8
100
AcDbEntity
100
AcDbLine
  8
0
 62
256
370
-1
  6
CONTINUOUS
 10
0.373822
 20
1.142253
 30
0.0
 11
0.373822
 21
2.1422539999999999
 31
0.0
  0
LINE
  5
1D9
100
AcDbEntity
100
AcDbLine
  8
0
 62
256
370
-1
  6
CONTINUOUS
 10
1.001322
 20
1.142253
 30
0.0
 11
1.001322
 21
2.1422539999999999
 31
0.0
  0
LINE
  5
1DA
100
AcDbEntity
100
AcDbLine
  8
0
 62
256
370
-1
  6
CONTINUOUS
 10
0.917323
 20
1.142253
 30
0.0
 11
0.917323
 21
2.1422539999999999
 31
0.0
  0
LINE
  5
1DB
100
AcDbEntity
100
AcDbLine
  8
0
 62
256
370
-1
  6
CONTINUOUS
 10
0.877323
 20
1.142253
 30
0.0
 11
0.877323
 21
2.1422539999999999
 31
0.0
  0
LINE
  5
1DC
100
AcDbEntity
100
AcDbLine
  8
0
 62
256
370
-1
  6
CONTINUOUS
 10
0.750324
 20
1.142253
 30
0.0
 11
0.750324
 21
2.1422539999999999
 31
0.0
  0
LINE
  5
1DD
100
AcDbEntity
100
AcDbLine
  8
0
 62
256
370
-1
  6
CONTINUOUS
 10
0.710989
 20
1.142253
 30
0.0
 11
0.710989
 21
2.1422539999999999
 31
0.0
  0
LINE
  5
1DE
100
AcDbEntity
100
AcDbLine
  8
0
 62
256
370
-1
  6
CONTINUOUS
 10
0.628819
 20
1.142253
 30
0.0
 11
0.628819
 21
2.1422539999999999
 31
0.0
  0
LINE
  5
1DF
100
AcDbEntity
100
AcDbLine
  8
0
 62
256
370
-1
  6
CONTINUOUS
 10
0.001319
 20
2.1422539999999999
 30
0.0
 11
1.001322
 21
2.1422539999999999
 31
0.0
  0
ENDBLK
  5
1E0
100
AcDbEntity
  8
0
100
AcDbBlockEnd
  0
ENDSEC
  0
SECTION
  2
ENTITIES
  0
INSERT
  5
1E1
100
AcDbEntity
100
AcDbBlockReference
  8
ASHADE
 62
1
370
-1
  6
CONTINUOUS
  2
AVE_RENDER
 10
-1.5038293399797011
 20
-4.5300224337156525
 30
0.0
  0
INSERT
  5
1E2
100
AcDbEntity
100
AcDbBlockReference
  8
ASHADE
 62
3
370
-1
  6
CONTINUOUS
  2
AVE_RENDER
 10
-1.5038293399797011
 20
-4.5300224337156525
 30
0.0
  0
INSERT
  5
1E3
100
AcDbEntity
100
AcDbBlockReference
  8
ASHADE
 62
4
370
-1
  6
CONTINUOUS
  2
AVE_RENDER
 10
-1.5038293399797011
 20
-4.5300224337156525
 30
0.0
  0
INSERT
  5
1E4
100
AcDbEntity
100
AcDbBlockReference
  8
ASHADE
 62
1
370
-1
  6
CONTINUOUS
  2
AVE_RENDER
 10
0.3557406600202989
 20
0.5665785662843482
 30
0.0
 50
270.0
  0
INSERT
  5
1E5
100
AcDbEntity
100
AcDbBlockReference
  8
ASHADE
 62
3
370
-1
  6
CONTINUOUS
  2
AVE_RENDER
 10
0.3557406600202989
 20
0.5665785662843482
 30
0.0
 50
270.0
  0
INSERT
  5
1E6
100
AcDbEntity
100
AcDbBlockReference
  8
ASHADE
 62
4
370
-1
  6
CONTINUOUS
  2
AVE_RENDER
 10
0.3557406600202989
 20
0.5665785662843482
 30
0.0
 50
270.0
  0
LINE
  5
1E7
100
AcDbEntity
100
AcDbLine
  8
0
 62
256
370
-1
  6
CONTINUOUS
 10
-0.4999983399797012
 20
-0.5833384337156521
 30
0.0
 11
-0.4999983399797012
 21
-0.5840044337156524
 31
0.0
  0
ARC
  5
1E8
100
AcDbEntity
  8
0
 62
256
370
-1
  6
CONTINUOUS
100
AcDbCircle
 10
-0.4999983399797012
 20
-0.6040064337156522
 30
0.0
 40
0.02
100
AcDbArc
 50
270.0
 51
90.0
  0
LINE
  5
1E9
100
AcDbEntity
100
AcDbLine
  8
0
 62
256
370
-1
  6
CONTINUOUS
 10
-0.4999983399797012
 20
-0.6240054337156521
 30
0.0
 11
-0.4999983399797012
 21
-0.6666714337156522
 31
0.0
  0
LINE
  5
1EA
100
AcDbEntity
100
AcDbLine
  8
0
 62
256
370
-1
  6
CONTINUOUS
 10
-0.4999983399797012
 20
-0.6666714337156522
 30
0.0
 11
-0.4970643399797011
 21
-0.7506834337156522
 31
0.0
  0
ARC
  5
1EB
100
AcDbEntity
  8
0
 62
256
370
-1
  6
CONTINUOUS
100
AcDbCircle
 10
-0.4963663399797011
 20
-0.770672433715652
 30
0.0
 40
0.02
100
AcDbArc
 50
272.0
 51
92.0
  0
ARC
  5
1EC
100
AcDbEntity
  8
0
 62
256
370
-1
  6
CONTINUOUS
100
AcDbCircle
 10
-0.4963663399797011
 20
-1.229342433715652
 30
0.0
 40
0.02
100
AcDbArc
 50
268.000015000000019
 51
88.0
  0
LINE
  5
1ED
100
AcDbEntity
100
AcDbLine
  8
0
 62
256
370
-1
  6
CONTINUOUS
 10
-0.4970643399797011
 20
-1.249329433715652
 30
0.0
 11
-0.4999983399797012
 21
-1.3333414337156519
 31
0.0
  0
LINE
  5
1EE
100
AcDbEntity
100
AcDbLine
  8
0
 62
256
370
-1
  6
CONTINUOUS
 10
-0.4999983399797012
 20
-1.3333414337156519
 30
0.0
 11
-0.4999983399797012
 21
-1.376010433715652
 31
0.0
  0
ARC
  5
1EF
100
AcDbEntity
  8
0
 62
256
370
-1
  6
CONTINUOUS
100
AcDbCircle
 10
-0.4999983399797012
 20
-1.3960094337156519
 30
0.0
 40
0.02
100
AcDbArc
 50
270.0
 51
90.0
  0
LINE
  5
1F0
100
AcDbEntity
100
AcDbLine
  8
0
 62
256
370
-1
  6
CONTINUOUS
 10
-0.4999983399797012
 20
-1.4160084337156522
 30
0.0
 11
-0.4999983399797012
 21
-1.416674433715652
 31
0.0
  0
ARC
  5
1F1
100
AcDbEntity
  8
0
 62
256
370
-1
  6
CONTINUOUS
100
AcDbCircle
 10
-0.4166643399797011
 20
-1.416674433715652
 30
0.0
 40
0.083333
100
AcDbArc
 50
180.0
 51
270.0
  0
LINE
  5
1F2
100
AcDbEntity
100
AcDbLine
  8
0
 62
256
370
-1
  6
CONTINUOUS
 10
-0.4166643399797011
 20
-1.5000084337156523
 30
0.0
 11
-0.4159983399797011
 21
-1.5000084337156523
 31
0.0
  0
ARC
  5
1F3
100
AcDbEntity
  8
0
 62
256
370
-1
  6
CONTINUOUS
100
AcDbCircle
 10
-0.3959983399797011
 20
-1.5000084337156523
 30
0.0
 40
0.02
100
AcDbArc
 50
359.9999920000000202
 51
180.0
  0
LINE
  5
1F4
100
AcDbEntity
100
AcDbLine
  8
0
 62
256
370
-1
  6
CONTINUOUS
 10
-0.3759983399797012
 20
-1.5000084337156523
 30
0.0
 11
-0.3333313399797012
 21
-1.5000084337156523
 31
0.0
  0
LINE
  5
1F5
100
AcDbEntity
100
AcDbLine
  8
0
 62
256
370
-1
  6
CONTINUOUS
 10
-0.3333313399797012
 20
-1.5000084337156523
 30
0.0
 11
-0.2493183399797012
 21
-1.4970734337156519
 31
0.0
  0
ARC
  5
1F6
100
AcDbEntity
  8
0
 62
256
370
-1
  6
CONTINUOUS
100
AcDbCircle
 10
-0.2293313399797011
 20
-1.4963764337156522
 30
0.0
 40
0.02
100
AcDbArc
 50
2.0
 51
182.0
  0
ARC
  5
1F7
100
AcDbEntity
  8
0
 62
256
370
-1
  6
CONTINUOUS
100
AcDbCircle
 10
0.2293376600202988
 20
-1.4963764337156522
 30
0.0
 40
0.02
100
AcDbArc
 50
358.0000079999999798
 51
178.0
  0
LINE
  5
1F8
100
AcDbEntity
100
AcDbLine
  8
0
 62
256
370
-1
  6
CONTINUOUS
 10
0.2493266600202988
 20
-1.4970734337156519
 30
0.0
 11
0.3333376600202989
 21
-1.5000084337156523
 31
0.0
  0
LINE
  5
1F9
100
AcDbEntity
100
AcDbLine
  8
0
 62
256
370
-1
  6
CONTINUOUS
 10
0.3333376600202989
 20
-1.5000084337156523
 30
0.0
 11
0.3760046600202989
 21
-1.5000084337156523
 31
0.0
  0
ARC
  5
1FA
100
AcDbEntity
  8
0
 62
256
370
-1
  6
CONTINUOUS
100
AcDbCircle
 10
0.3960036600202989
 20
-1.5000084337156523
 30
0.0
 40
0.02
100
AcDbArc
 50
359.9999920000000202
 51
180.0
  0
LINE
  5
1FB
100
AcDbEntity
100
AcDbLine
  8
0
 62
256
370
-1
  6
CONTINUOUS
 10
0.4160036600202989
 20
-1.5000084337156523
 30
0.0
 11
0.4166696600202988
 21
-1.5000084337156523
 31
0.0
  0
ARC
  5
1FC
100
AcDbEntity
  8
0
 62
256
370
-1
  6
CONTINUOUS
100
AcDbCircle
 10
0.4166696600202988
 20
-1.416674433715652
 30
0.0
 40
0.083333
100
AcDbArc
 50
269.9988559999999893
 51
359.9988629999999716
  0
LINE
  5
1FD
100
AcDbEntity
100
AcDbLine
  8
0
 62
256
370
-1
  6
CONTINUOUS
 10
0.5000016600202989
 20
-1.416674433715652
 30
0.0
 11
0.5000016600202989
 21
-1.4160084337156522
 31
0.0
  0
ARC
  5
1FE
100
AcDbEntity
  8
0
 62
256
370
-1
  6
CONTINUOUS
100
AcDbCircle
 10
0.5000016600202989
 20
-1.3960094337156519
 30
0.0
 40
0.02
100
AcDbArc
 50
90.0
 51
270.0
  0
LINE
  5
1FF
100
AcDbEntity
100
AcDbLine
  8
0
 62
256
370
-1
  6
CONTINUOUS
 10
0.5000016600202989
 20
-1.376010433715652
 30
0.0
 11
0.5000016600202989
 21
-1.3333414337156519
 31
0.0
  0
LINE
  5
200
100
AcDbEntity
100
AcDbLine
  8
0
 62
256
370
-1
  6
CONTINUOUS
 10
0.5000016600202989
 20
-1.3333414337156519
 30
0.0
 11
0.4970686600202989
 21
-1.249329433715652
 31
0.0
  0
ARC
  5
201
100
AcDbEntity
  8
0
 62
256
370
-1
  6
CONTINUOUS
100
AcDbCircle
 10
0.4963706600202988
 20
-1.229342433715652
 30
0.0
 40
0.02
100
AcDbArc
 50
92.0
 51
272.0
  0
ARC
  5
202
100
AcDbEntity
  8
0
 62
256
370
-1
  6
CONTINUOUS
100
AcDbCircle
 10
0.4963706600202988
 20
-0.770672433715652
 30
0.0
 40
0.02
100
AcDbArc
 50
88.0000009999999975
 51
268.0
  0
LINE
  5
203
100
AcDbEntity
100
AcDbLine
  8
0
 62
256
370
-1
  6
CONTINUOUS
 10
0.4970686600202989
 20
-0.7506834337156522
 30
0.0
 11
0.5000016600202989
 21
-0.6666714337156522
 31
0.0
  0
LINE
  5
204
100
AcDbEntity
100
AcDbLine
  8
0
 62
256
370
-1
  6
CONTINUOUS
 10
0.5000016600202989
 20
-0.6666714337156522
 30
0.0
 11
0.5000016600202989
 21
-0.6240054337156521
 31
0.0
  0
ARC
  5
205
100
AcDbEntity
  8
0
 62
256
370
-1
  6
CONTINUOUS
100
AcDbCircle
 10
0.5000016600202989
 20
-0.6040064337156522
 30
0.0
 40
0.02
100
AcDbArc
 50
90.0
 51
270.0
  0
LINE
  5
206
100
AcDbEntity
100
AcDbLine
  8
0
 62
256
370
-1
  6
CONTINUOUS
 10
0.5000016600202989
 20
-0.5840044337156524
 30
0.0
 11
0.5000016600202989
 21
-0.5833384337156521
 31
0.0
  0
CIRCLE
  5
207
100
AcDbEntity
100
AcDbCircle
  8
0
 62
256
370
-1
  6
CONTINUOUS
 10
0.0000026600202988
 20
-1.000006433715652
 30
0.0
 40
0.1005
  0
ARC
  5
208
100
AcDbEntity
  8
0
 62
256
370
-1
  6
CONTINUOUS
100
AcDbCircle
 10
0.3020046600202989
 20
-1.063948433715652
 30
0.0
 40
0.125
100
AcDbArc
 50
179.999968999999993
 51
224.9992680000000007
  0
LINE
  5
209
100
AcDbEntity
100
AcDbLine
  8
0
 62
256
370
-1
  6
CONTINUOUS
 10
0.1770046600202988
 20
-1.0000054337156519
 30
0.0
 11
0.1770046600202988
 21
-1.063948433715652
 31
0.0
  0
LINE
  5
20A
100
AcDbEntity
100
AcDbLine
  8
0
 62
256
370
-1
  6
CONTINUOUS
 10
0.2595576600202988
 20
-1.1982794337156519
 30
0.0
 11
0.2136156600202989
 21
-1.1523364337156521
 31
0.0
  0
ARC
  5
20B
100
AcDbEntity
  8
0
 62
256
370
-1
  6
CONTINUOUS
100
AcDbCircle
 10
0.0642756600202989
 20
-1.3023414337156523
 30
0.0
 40
0.125
100
AcDbArc
 50
45.0004619999999989
 51
90.0
  0
LINE
  5
20C
100
AcDbEntity
100
AcDbLine
  8
0
 62
256
370
-1
  6
CONTINUOUS
 10
0.0000006600202989
 20
-1.1773414337156523
 30
0.0
 11
0.0642756600202989
 21
-1.1773414337156523
 31
0.0
  0
ARC
  5
20D
100
AcDbEntity
  8
0
 62
256
370
-1
  6
CONTINUOUS
100
AcDbCircle
 10
0.3020046600202989
 20
-0.9360644337156522
 30
0.0
 40
0.125
100
AcDbArc
 50
134.999968999999993
 51
179.999968999999993
  0
LINE
  5
20E
100
AcDbEntity
100
AcDbLine
  8
0
 62
256
370
-1
  6
CONTINUOUS
 10
0.1770046600202988
 20
-1.0000054337156519
 30
0.0
 11
0.1770046600202988
 21
-0.9360644337156522
 31
0.0
  0
ARC
  5
20F
100
AcDbEntity
  8
0
 62
256
370
-1
  6
CONTINUOUS
100
AcDbCircle
 10
-0.0642713399797011
 20
-1.3023414337156523
 30
0.0
 40
0.125
100
AcDbArc
 50
89.9999660000000006
 51
134.9999390000000119
  0
LINE
  5
210
100
AcDbEntity
100
AcDbLine
  8
0
 62
256
370
-1
  6
CONTINUOUS
 10
0.0000006600202989
 20
-1.1773414337156523
 30
0.0
 11
-0.0642713399797011
 21
-1.1773414337156523
 31
0.0
  0
LINE
  5
211
100
AcDbEntity
100
AcDbLine
  8
0
 62
256
370
-1
  6
CONTINUOUS
 10
0.2136166600202988
 20
-0.8476754337156523
 30
0.0
 11
0.3393716600202989
 21
-0.7219204337156521
 31
0.0
  0
ARC
  5
212
100
AcDbEntity
  8
0
 62
256
370
-1
  6
CONTINUOUS
100
AcDbCircle
 10
-0.3019973399797011
 20
-1.0639514337156519
 30
0.0
 40
0.125
100
AcDbArc
 50
314.999481000000003
 51
359.9997859999999719
  0
LINE
  5
213
100
AcDbEntity
100
AcDbLine
  8
0
 62
256
370
-1
  6
CONTINUOUS
 10
-0.3393643399797011
 20
-1.2780944337156519
 30
0.0
 11
-0.2136093399797011
 21
-1.1523404337156522
 31
0.0
  0
LINE
  5
214
100
AcDbEntity
100
AcDbLine
  8
0
 62
256
370
-1
  6
CONTINUOUS
 10
-0.1769973399797012
 20
-1.0000054337156519
 30
0.0
 11
-0.1769973399797012
 21
-1.0639514337156519
 31
0.0
  0
ARC
  5
215
100
AcDbEntity
  8
0
 62
256
370
-1
  6
CONTINUOUS
100
AcDbCircle
 10
-0.3019973399797011
 20
-0.9360644337156522
 30
0.0
 40
0.125
100
AcDbArc
 50
359.9999920000000202
 51
45.0002939999999967
  0
LINE
  5
216
100
AcDbEntity
100
AcDbLine
  8
0
 62
256
370
-1
  6
CONTINUOUS
 10
-0.1769973399797012
 20
-1.0000054337156519
 30
0.0
 11
-0.1769973399797012
 21
-0.9360644337156522
 31
0.0
  0
LINE
  5
217
100
AcDbEntity
100
AcDbLine
  8
0
 62
256
370
-1
  6
CONTINUOUS
 10
-0.3393643399797011
 20
-0.7219224337156523
 30
0.0
 11
-0.2136093399797011
 21
-0.8476754337156523
 31
0.0
  0
LINE
  5
218
100
AcDbEntity
100
AcDbLine
  8
0
 62
256
370
-1
  6
CONTINUOUS
 10
0.1526636600202989
 20
-1.213952433715652
 30
0.0
 11
0.2809246600202989
 21
-1.3422114337156519
 31
0.0
  0
LINE
  5
219
100
AcDbEntity
100
AcDbLine
  8
0
 62
256
370
-1
  6
CONTINUOUS
 10
-0.1526603399797012
 20
-1.2139534337156521
 30
0.0
 11
-0.2809193399797011
 21
-1.3422114337156519
 31
0.0
  0
ARC
  5
21A
100
AcDbEntity
  8
0
 62
256
370
-1
  6
CONTINUOUS
100
AcDbCircle
 10
0.2526406600202989
 20
-1.3704964337156522
 30
0.0
 40
0.04
100
AcDbArc
 50
267.9996949999999742
 51
45.000427000000002
  0
ARC
  5
21B
100
AcDbEntity
  8
0
 62
256
370
-1
  6
CONTINUOUS
100
AcDbCircle
 10
-0.2526343399797011
 20
-1.3704964337156522
 30
0.0
 40
0.04
100
AcDbArc
 50
135.0
 51
272.0002900000000068
  0
ARC
  5
21C
100
AcDbEntity
  8
0
 62
256
370
-1
  6
CONTINUOUS
100
AcDbCircle
 10
-0.3704863399797011
 20
-1.2526454337156523
 30
0.0
 40
0.04
100
AcDbArc
 50
177.9996950000000027
 51
315.000427000000002
  0
ARC
  5
21D
100
AcDbEntity
  8
0
 62
256
370
-1
  6
CONTINUOUS
100
AcDbCircle
 10
-0.3704863399797011
 20
-0.7473694337156521
 30
0.0
 40
0.04
100
AcDbArc
 50
45.0
 51
182.0002749999999878
  0
ARC
  5
21E
100
AcDbEntity
  8
0
 62
256
370
-1
  6
CONTINUOUS
100
AcDbCircle
 10
0.3704906600202989
 20
-0.747368433715652
 30
0.0
 40
0.04
100
AcDbArc
 50
357.9996800000000121
 51
135.000427000000002
  0
ARC
  5
21F
100
AcDbEntity
  8
0
 62
256
370
-1
  6
CONTINUOUS
100
AcDbCircle
 10
0.3704906600202989
 20
-1.2526444337156522
 30
0.0
 40
0.04
100
AcDbArc
 50
225.0
 51
2.0002900000000001
  0
LINE
  5
220
100
AcDbEntity
100
AcDbLine
  8
0
 62
256
370
-1
  6
CONTINUOUS
 10
0.2595576600202988
 20
-1.1982794337156519
 30
0.0
 11
0.3422076600202988
 21
-1.2809274337156522
 31
0.0
  0
LINE
  5
221
100
AcDbEntity
100
AcDbLine
  8
0
 62
256
370
-1
  6
CONTINUOUS
 10
0.4956726600202989
 20
-1.2093534337156522
 30
0.0
 11
0.4934806600202989
 21
-1.1673964337156522
 31
0.0
  0
ARC
  5
222
100
AcDbEntity
  8
0
 62
256
370
-1
  6
CONTINUOUS
100
AcDbCircle
 10
0.4521716600202989
 20
-1.1688384337156521
 30
0.0
 40
0.041333
100
AcDbArc
 50
2.0
 51
90.0
  0
ARC
  5
223
100
AcDbEntity
  8
0
 62
256
370
-1
  6
CONTINUOUS
100
AcDbCircle
 10
0.4482196600202989
 20
-1.1688384337156521
 30
0.0
 40
0.041333
100
AcDbArc
 50
89.9999629999999939
 51
181.999968999999993
  0
LINE
  5
224
100
AcDbEntity
100
AcDbLine
  8
0
 62
256
370
-1
  6
CONTINUOUS
 10
0.4069116600202988
 20
-1.1702794337156519
 30
0.0
 11
0.4104666600202988
 21
-1.2512474337156523
 31
0.0
  0
LINE
  5
225
100
AcDbEntity
100
AcDbLine
  8
0
 62
256
370
-1
  6
CONTINUOUS
 10
0.4482206600202989
 20
-1.1275054337156523
 30
0.0
 11
0.4521726600202988
 21
-1.1275054337156523
 31
0.0
  0
ARC
  5
226
100
AcDbEntity
  8
0
 62
256
370
-1
  6
CONTINUOUS
100
AcDbCircle
 10
0.1688336600202988
 20
-1.4521774337156519
 30
0.0
 40
0.041333
100
AcDbArc
 50
179.999054000000001
 51
267.99906900000002
  0
LINE
  5
227
100
AcDbEntity
100
AcDbLine
  8
0
 62
256
370
-1
  6
CONTINUOUS
 10
0.1673896600202988
 20
-1.4934854337156522
 30
0.0
 11
0.2093496600202989
 21
-1.4956774337156522
 31
0.0
  0
ARC
  5
228
100
AcDbEntity
  8
0
 62
256
370
-1
  6
CONTINUOUS
100
AcDbCircle
 10
0.1688336600202988
 20
-1.4482244337156522
 30
0.0
 40
0.041333
100
AcDbArc
 50
87.9999880000000019
 51
179.999968999999993
  0
LINE
  5
229
100
AcDbEntity
100
AcDbLine
  8
0
 62
256
370
-1
  6
CONTINUOUS
 10
0.1275006600202988
 20
-1.4482244337156522
 30
0.0
 11
0.1275006600202988
 21
-1.4521774337156519
 31
0.0
  0
LINE
  5
22A
100
AcDbEntity
100
AcDbLine
  8
0
 62
256
370
-1
  6
CONTINUOUS
 10
0.1702756600202988
 20
-1.4069164337156519
 30
0.0
 11
0.2512446600202988
 21
-1.4104714337156519
 31
0.0
  0
LINE
  5
22B
100
AcDbEntity
100
AcDbLine
  8
0
 62
256
370
-1
  6
CONTINUOUS
 10
-0.2093433399797011
 20
-1.4956774337156522
 30
0.0
 11
-0.1673863399797012
 21
-1.4934854337156522
 31
0.0
  0
ARC
  5
22C
100
AcDbEntity
  8
0
 62
256
370
-1
  6
CONTINUOUS
100
AcDbCircle
 10
-0.1688283399797012
 20
-1.4521774337156519
 30
0.0
 40
0.041333
100
AcDbArc
 50
271.9997859999999719
 51
359.9997859999999719
  0
LINE
  5
22D
100
AcDbEntity
100
AcDbLine
  8
0
 62
256
370
-1
  6
CONTINUOUS
 10
-0.1274923399797011
 20
-1.4521774337156519
 30
0.0
 11
-0.1274923399797011
 21
-1.4482244337156522
 31
0.0
  0
ARC
  5
22E
100
AcDbEntity
  8
0
 62
256
370
-1
  6
CONTINUOUS
100
AcDbCircle
 10
-0.1688283399797012
 20
-1.4482244337156522
 30
0.0
 40
0.041333
100
AcDbArc
 50
359.9999770000000012
 51
91.999968999999993
  0
LINE
  5
22F
100
AcDbEntity
100
AcDbLine
  8
0
 62
256
370
-1
  6
CONTINUOUS
 10
-0.1702703399797012
 20
-1.4069164337156519
 30
0.0
 11
-0.2512383399797011
 21
-1.4104714337156519
 31
0.0
  0
ARC
  5
230
100
AcDbEntity
  8
0
 62
256
370
-1
  6
CONTINUOUS
100
AcDbCircle
 10
-0.4521683399797011
 20
-1.1688384337156521
 30
0.0
 40
0.041333
100
AcDbArc
 50
89.9999899999999968
 51
178.0
  0
LINE
  5
231
100
AcDbEntity
100
AcDbLine
  8
0
 62
256
370
-1
  6
CONTINUOUS
 10
-0.4934763399797011
 20
-1.1673964337156522
 30
0.0
 11
-0.4956683399797011
 21
-1.2093534337156522
 31
0.0
  0
ARC
  5
232
100
AcDbEntity
  8
0
 62
256
370
-1
  6
CONTINUOUS
100
AcDbCircle
 10
-0.4482153399797011
 20
-1.1688394337156522
 30
0.0
 40
0.041333
100
AcDbArc
 50
357.999984999999981
 51
89.999968999999993
  0
LINE
  5
233
100
AcDbEntity
100
AcDbLine
  8
0
 62
256
370
-1
  6
CONTINUOUS
 10
-0.4482153399797011
 20
-1.1275054337156523
 30
0.0
 11
-0.4521673399797011
 21
-1.1275054337156523
 31
0.0
  0
LINE
  5
234
100
AcDbEntity
100
AcDbLine
  8
0
 62
256
370
-1
  6
CONTINUOUS
 10
-0.4069063399797011
 20
-1.170280433715652
 30
0.0
 11
-0.4104623399797011
 21
-1.2512494337156521
 31
0.0
  0
LINE
  5
235
100
AcDbEntity
100
AcDbLine
  8
0
 62
256
370
-1
  6
CONTINUOUS
 10
-0.4956683399797011
 20
-0.7906594337156524
 30
0.0
 11
-0.4934763399797011
 21
-0.8326194337156524
 31
0.0
  0
ARC
  5
236
100
AcDbEntity
  8
0
 62
256
370
-1
  6
CONTINUOUS
100
AcDbCircle
 10
-0.4521683399797011
 20
-0.831174433715652
 30
0.0
 40
0.041333
100
AcDbArc
 50
182.0
 51
270.0
  0
ARC
  5
237
100
AcDbEntity
  8
0
 62
256
370
-1
  6
CONTINUOUS
100
AcDbCircle
 10
-0.4482153399797011
 20
-0.8311754337156522
 30
0.0
 40
0.041333
100
AcDbArc
 50
269.999984999999981
 51
1.9999769999999997
  0
LINE
  5
238
100
AcDbEntity
100
AcDbLine
  8
0
 62
256
370
-1
  6
CONTINUOUS
 10
-0.4069063399797011
 20
-0.8297344337156524
 30
0.0
 11
-0.4104623399797011
 21
-0.748766433715652
 31
0.0
  0
ARC
  5
239
100
AcDbEntity
  8
0
 62
256
370
-1
  6
CONTINUOUS
100
AcDbCircle
 10
0.4521716600202989
 20
-0.8312204337156522
 30
0.0
 40
0.041333
100
AcDbArc
 50
269.9988559999999893
 51
357.9988710000000083
  0
LINE
  5
23A
100
AcDbEntity
100
AcDbLine
  8
0
 62
256
370
-1
  6
CONTINUOUS
 10
0.4934806600202989
 20
-0.8326654337156522
 30
0.0
 11
0.4956726600202989
 21
-0.7906594337156524
 31
0.0
  0
ARC
  5
23B
100
AcDbEntity
  8
0
 62
256
370
-1
  6
CONTINUOUS
100
AcDbCircle
 10
0.4482196600202989
 20
-0.8312204337156522
 30
0.0
 40
0.041333
100
AcDbArc
 50
177.999968999999993
 51
269.9999690000000214
  0
LINE
  5
23C
100
AcDbEntity
100
AcDbLine
  8
0
 62
256
370
-1
  6
CONTINUOUS
 10
0.4482196600202989
 20
-0.8725544337156522
 30
0.0
 11
0.4521716600202989
 21
-0.8725544337156522
 31
0.0
  0
LINE
  5
23D
100
AcDbEntity
100
AcDbLine
  8
0
 62
256
370
-1
  6
CONTINUOUS
 10
0.4069116600202988
 20
-0.829779433715652
 30
0.0
 11
0.4104666600202988
 21
-0.7487644337156522
 31
0.0
  0
LINE
  5
23E
100
AcDbEntity
100
AcDbLine
  8
0
 62
256
370
-1
  6
CONTINUOUS
 10
-0.4482153399797011
 20
-0.8725094337156521
 30
0.0
 11
-0.4521683399797011
 21
-0.872508433715652
 31
0.0
  0
LINE
  5
23F
100
AcDbEntity
100
AcDbLine
  8
0
 62
256
370
-1
  6
CONTINUOUS
 10
-0.4999983399797012
 20
-0.4166724337156523
 30
0.0
 11
-0.4999983399797012
 21
-0.416006433715652
 31
0.0
  0
ARC
  5
240
100
AcDbEntity
  8
0
 62
256
370
-1
  6
CONTINUOUS
100
AcDbCircle
 10
-0.4999983399797012
 20
-0.3960044337156521
 30
0.0
 40
0.02
100
AcDbArc
 50
270.0
 51
90.0
  0
LINE
  5
241
100
AcDbEntity
100
AcDbLine
  8
0
 62
256
370
-1
  6
CONTINUOUS
 10
-0.4999983399797012
 20
-0.3760054337156523
 30
0.0
 11
-0.4999983399797012
 21
-0.3333394337156522
 31
0.0
  0
LINE
  5
242
100
AcDbEntity
100
AcDbLine
  8
0
 62
256
370
-1
  6
CONTINUOUS
 10
-0.4999983399797012
 20
-0.3333394337156522
 30
0.0
 11
-0.4970643399797011
 21
-0.2493274337156518
 31
0.0
  0
ARC
  5
243
100
AcDbEntity
  8
0
 62
256
370
-1
  6
CONTINUOUS
100
AcDbCircle
 10
-0.4963663399797011
 20
-0.229338433715652
 30
0.0
 40
0.02
100
AcDbArc
 50
268.0
 51
88.0
  0
ARC
  5
244
100
AcDbEntity
  8
0
 62
256
370
-1
  6
CONTINUOUS
100
AcDbCircle
 10
-0.4963663399797011
 20
0.2293315662843477
 30
0.0
 40
0.02
100
AcDbArc
 50
272.0
 51
91.9999849999999952
  0
LINE
  5
245
100
AcDbEntity
100
AcDbLine
  8
0
 62
256
370
-1
  6
CONTINUOUS
 10
-0.4970643399797011
 20
0.2493185662843481
 30
0.0
 11
-0.4999983399797012
 21
0.3333305662843477
 31
0.0
  0
LINE
  5
246
100
AcDbEntity
100
AcDbLine
  8
0
 62
256
370
-1
  6
CONTINUOUS
 10
-0.4999983399797012
 20
0.3333305662843477
 30
0.0
 11
-0.4999983399797012
 21
0.3759995662843478
 31
0.0
  0
ARC
  5
247
100
AcDbEntity
  8
0
 62
256
370
-1
  6
CONTINUOUS
100
AcDbCircle
 10
-0.4999983399797012
 20
0.3959985662843481
 30
0.0
 40
0.02
100
AcDbArc
 50
270.0
 51
90.0
  0
LINE
  5
248
100
AcDbEntity
100
AcDbLine
  8
0
 62
256
370
-1
  6
CONTINUOUS
 10
-0.4999983399797012
 20
0.4159975662843475
 30
0.0
 11
-0.4999983399797012
 21
0.4166635662843483
 31
0.0
  0
LINE
  5
249
100
AcDbEntity
100
AcDbLine
  8
0
 62
256
370
-1
  6
CONTINUOUS
 10
0.5000016600202989
 20
0.4166635662843483
 30
0.0
 11
0.5000016600202989
 21
0.4159975662843475
 31
0.0
  0
ARC
  5
24A
100
AcDbEntity
  8
0
 62
256
370
-1
  6
CONTINUOUS
100
AcDbCircle
 10
0.5000016600202989
 20
0.3959985662843481
 30
0.0
 40
0.02
100
AcDbArc
 50
90.0
 51
270.0
  0
LINE
  5
24B
100
AcDbEntity
100
AcDbLine
  8
0
 62
256
370
-1
  6
CONTINUOUS
 10
0.5000016600202989
 20
0.3759995662843478
 30
0.0
 11
0.5000016600202989
 21
0.3333305662843477
 31
0.0
  0
LINE
  5
24C
100
AcDbEntity
100
AcDbLine
  8
0
 62
256
370
-1
  6
CONTINUOUS
 10
0.5000016600202989
 20
0.3333305662843477
 30
0.0
 11
0.4970686600202989
 21
0.2493185662843481
 31
0.0
  0
ARC
  5
24D
100
AcDbEntity
  8
0
 62
256
370
-1
  6
CONTINUOUS
100
AcDbCircle
 10
0.4963706600202988
 20
0.2293315662843477
 30
0.0
 40
0.02
100
AcDbArc
 50
88.0
 51
268.0
  0
ARC
  5
24E
100
AcDbEntity
  8
0
 62
256
370
-1
  6
CONTINUOUS
100
AcDbCircle
 10
0.4963706600202988
 20
-0.229338433715652
 30
0.0
 40
0.02
100
AcDbArc
 50
92.0
 51
271.9999990000000025
  0
LINE
  5
24F
100
AcDbEntity
100
AcDbLine
  8
0
 62
256
370
-1
  6
CONTINUOUS
 10
0.4970686600202989
 20
-0.2493274337156518
 30
0.0
 11
0.5000016600202989
 21
-0.3333394337156522
 31
0.0
  0
LINE
  5
250
100
AcDbEntity
100
AcDbLine
  8
0
 62
256
370
-1
  6
CONTINUOUS
 10
0.5000016600202989
 20
-0.3333394337156522
 30
0.0
 11
0.5000016600202989
 21
-0.3760054337156523
 31
0.0
  0
ARC
  5
251
100
AcDbEntity
  8
0
 62
256
370
-1
  6
CONTINUOUS
100
AcDbCircle
 10
0.5000016600202989
 20
-0.3960044337156521
 30
0.0
 40
0.02
100
AcDbArc
 50
90.0
 51
270.0
  0
LINE
  5
252
100
AcDbEntity
100
AcDbLine
  8
0
 62
256
370
-1
  6
CONTINUOUS
 10
0.5000016600202989
 20
-0.416006433715652
 30
0.0
 11
0.5000016600202989
 21
-0.4166724337156523
 31
0.0
  0
CIRCLE
  5
253
100
AcDbEntity
100
AcDbCircle
  8
0
 62
256
370
-1
  6
CONTINUOUS
 10
0.0000026600202988
 20
-0.0000044337156522
 30
0.0
 40
0.1005
  0
ARC
  5
254
100
AcDbEntity
  8
0
 62
256
370
-1
  6
CONTINUOUS
100
AcDbCircle
 10
0.3020046600202989
 20
0.0639375662843477
 30
0.0
 40
0.125
100
AcDbArc
 50
135.0007319999999993
 51
180.000031000000007
  0
LINE
  5
255
100
AcDbEntity
100
AcDbLine
  8
0
 62
256
370
-1
  6
CONTINUOUS
 10
0.1770046600202988
 20
-0.0000054337156524
 30
0.0
 11
0.1770046600202988
 21
0.0639375662843477
 31
0.0
  0
LINE
  5
256
100
AcDbEntity
100
AcDbLine
  8
0
 62
256
370
-1
  6
CONTINUOUS
 10
0.2595576600202988
 20
0.1982685662843481
 30
0.0
 11
0.2136156600202989
 21
0.1523255662843478
 31
0.0
  0
ARC
  5
257
100
AcDbEntity
  8
0
 62
256
370
-1
  6
CONTINUOUS
100
AcDbCircle
 10
0.3020046600202989
 20
-0.0639464337156522
 30
0.0
 40
0.125
100
AcDbArc
 50
180.000031000000007
 51
225.000031000000007
  0
LINE
  5
258
100
AcDbEntity
100
AcDbLine
  8
0
 62
256
370
-1
  6
CONTINUOUS
 10
0.1770046600202988
 20
-0.0000054337156524
 30
0.0
 11
0.1770046600202988
 21
-0.0639464337156522
 31
0.0
  0
LINE
  5
259
100
AcDbEntity
100
AcDbLine
  8
0
 62
256
370
-1
  6
CONTINUOUS
 10
0.2136166600202988
 20
-0.1523354337156525
 30
0.0
 11
0.3393716600202989
 21
-0.2780904337156523
 31
0.0
  0
ARC
  5
25A
100
AcDbEntity
  8
0
 62
256
370
-1
  6
CONTINUOUS
100
AcDbCircle
 10
-0.3019973399797011
 20
0.0639405662843481
 30
0.0
 40
0.125
100
AcDbArc
 50
0.000214
 51
45.000518999999997
  0
LINE
  5
25B
100
AcDbEntity
100
AcDbLine
  8
0
 62
256
370
-1
  6
CONTINUOUS
 10
-0.3393643399797011
 20
0.2780835662843481
 30
0.0
 11
-0.2136093399797011
 21
0.1523295662843475
 31
0.0
  0
LINE
  5
25C
100
AcDbEntity
100
AcDbLine
  8
0
 62
256
370
-1
  6
CONTINUOUS
 10
-0.1769973399797012
 20
-0.0000054337156524
 30
0.0
 11
-0.1769973399797012
 21
0.0639405662843481
 31
0.0
  0
ARC
  5
25D
100
AcDbEntity
  8
0
 62
256
370
-1
  6
CONTINUOUS
100
AcDbCircle
 10
-0.3019973399797011
 20
-0.0639464337156522
 30
0.0
 40
0.125
100
AcDbArc
 50
314.9997060000000033
 51
0.000008
  0
LINE
  5
25E
100
AcDbEntity
100
AcDbLine
  8
0
 62
256
370
-1
  6
CONTINUOUS
 10
-0.1769973399797012
 20
-0.0000054337156524
 30
0.0
 11
-0.1769973399797012
 21
-0.0639464337156522
 31
0.0
  0
LINE
  5
25F
100
AcDbEntity
100
AcDbLine
  8
0
 62
256
370
-1
  6
CONTINUOUS
 10
-0.3393643399797011
 20
-0.278088433715652
 30
0.0
 11
-0.2136093399797011
 21
-0.1523354337156525
 31
0.0
  0
ARC
  5
260
100
AcDbEntity
  8
0
 62
256
370
-1
  6
CONTINUOUS
100
AcDbCircle
 10
-0.3704863399797011
 20
0.252634566284348
 30
0.0
 40
0.04
100
AcDbArc
 50
44.999572999999998
 51
182.0003049999999973
  0
ARC
  5
261
100
AcDbEntity
  8
0
 62
256
370
-1
  6
CONTINUOUS
100
AcDbCircle
 10
-0.3704863399797011
 20
-0.2526414337156522
 30
0.0
 40
0.04
100
AcDbArc
 50
177.9997250000000122
 51
315.0
  0
ARC
  5
262
100
AcDbEntity
  8
0
 62
256
370
-1
  6
CONTINUOUS
100
AcDbCircle
 10
0.3704906600202989
 20
-0.2526424337156524
 30
0.0
 40
0.04
100
AcDbArc
 50
224.999572999999998
 51
2.0003199999999999
  0
ARC
  5
263
100
AcDbEntity
  8
0
 62
256
370
-1
  6
CONTINUOUS
100
AcDbCircle
 10
0.3704906600202989
 20
0.2526335662843479
 30
0.0
 40
0.04
100
AcDbArc
 50
357.9997099999999932
 51
135.0
  0
LINE
  5
264
100
AcDbEntity
100
AcDbLine
  8
0
 62
256
370
-1
  6
CONTINUOUS
 10
0.2595576600202988
 20
0.1982685662843481
 30
0.0
 11
0.3422076600202988
 21
0.280916566284348
 31
0.0
  0
LINE
  5
265
100
AcDbEntity
100
AcDbLine
  8
0
 62
256
370
-1
  6
CONTINUOUS
 10
0.4956726600202989
 20
0.2093425662843479
 30
0.0
 11
0.4934806600202989
 21
0.1673855662843479
 31
0.0
  0
ARC
  5
266
100
AcDbEntity
  8
0
 62
256
370
-1
  6
CONTINUOUS
100
AcDbCircle
 10
0.4521716600202989
 20
0.1688275662843478
 30
0.0
 40
0.041333
100
AcDbArc
 50
270.0
 51
358.0
  0
ARC
  5
267
100
AcDbEntity
  8
0
 62
256
370
-1
  6
CONTINUOUS
100
AcDbCircle
 10
0.4482196600202989
 20
0.1688275662843478
 30
0.0
 40
0.041333
100
AcDbArc
 50
178.000031000000007
 51
270.0000370000000203
  0
LINE
  5
268
100
AcDbEntity
100
AcDbLine
  8
0
 62
256
370
-1
  6
CONTINUOUS
 10
0.4069116600202988
 20
0.1702685662843476
 30
0.0
 11
0.4104666600202988
 21
0.251236566284348
 31
0.0
  0
LINE
  5
269
100
AcDbEntity
100
AcDbLine
  8
0
 62
256
370
-1
  6
CONTINUOUS
 10
0.4482206600202989
 20
0.127494566284348
 30
0.0
 11
0.4521726600202988
 21
0.127494566284348
 31
0.0
  0
ARC
  5
26A
100
AcDbEntity
  8
0
 62
256
370
-1
  6
CONTINUOUS
100
AcDbCircle
 10
-0.4521683399797011
 20
0.1688275662843478
 30
0.0
 40
0.041333
100
AcDbArc
 50
182.0
 51
270.0000099999999748
  0
LINE
  5
26B
100
AcDbEntity
100
AcDbLine
  8
0
 62
256
370
-1
  6
CONTINUOUS
 10
-0.4934763399797011
 20
0.1673855662843479
 30
0.0
 11
-0.4956683399797011
 21
0.2093425662843479
 31
0.0
  0
ARC
  5
26C
100
AcDbEntity
  8
0
 62
256
370
-1
  6
CONTINUOUS
100
AcDbCircle
 10
-0.4482153399797011
 20
0.168828566284348
 30
0.0
 40
0.041333
100
AcDbArc
 50
270.0000309999999786
 51
2.0000149999999999
  0
LINE
  5
26D
100
AcDbEntity
100
AcDbLine
  8
0
 62
256
370
-1
  6
CONTINUOUS
 10
-0.4482153399797011
 20
0.127494566284348
 30
0.0
 11
-0.4521673399797011
 21
0.127494566284348
 31
0.0
  0
LINE
  5
26E
100
AcDbEntity
100
AcDbLine
  8
0
 62
256
370
-1
  6
CONTINUOUS
 10
-0.4069063399797011
 20
0.1702695662843478
 30
0.0
 11
-0.4104623399797011
 21
0.2512385662843474
 31
0.0
  0
LINE
  5
26F
100
AcDbEntity
100
AcDbLine
  8
0
 62
256
370
-1
  6
CONTINUOUS
 10
-0.4956683399797011
 20
-0.2093514337156524
 30
0.0
 11
-0.4934763399797011
 21
-0.167391433715652
 31
0.0
  0
ARC
  5
270
100
AcDbEntity
  8
0
 62
256
370
-1
  6
CONTINUOUS
100
AcDbCircle
 10
-0.4521683399797011
 20
-0.1688364337156524
 30
0.0
 40
0.041333
100
AcDbArc
 50
90.0
 51
178.0
  0
ARC
  5
271
100
AcDbEntity
  8
0
 62
256
370
-1
  6
CONTINUOUS
100
AcDbCircle
 10
-0.4482153399797011
 20
-0.1688354337156522
 30
0.0
 40
0.041333
100
AcDbArc
 50
358.0000229999999988
 51
90.0000150000000048
  0
LINE
  5
272
100
AcDbEntity
100
AcDbLine
  8
0
 62
256
370
-1
  6
CONTINUOUS
 10
-0.4069063399797011
 20
-0.170276433715652
 30
0.0
 11
-0.4104623399797011
 21
-0.2512444337156524
 31
0.0
  0
ARC
  5
273
100
AcDbEntity
  8
0
 62
256
370
-1
  6
CONTINUOUS
100
AcDbCircle
 10
0.4521716600202989
 20
-0.1687904337156521
 30
0.0
 40
0.041333
100
AcDbArc
 50
2.0011290000000002
 51
90.0011439999999965
  0
LINE
  5
274
100
AcDbEntity
100
AcDbLine
  8
0
 62
256
370
-1
  6
CONTINUOUS
 10
0.4934806600202989
 20
-0.1673454337156518
 30
0.0
 11
0.4956726600202989
 21
-0.2093514337156524
 31
0.0
  0
ARC
  5
275
100
AcDbEntity
  8
0
 62
256
370
-1
  6
CONTINUOUS
100
AcDbCircle
 10
0.4482196600202989
 20
-0.1687904337156521
 30
0.0
 40
0.041333
100
AcDbArc
 50
90.000031000000007
 51
182.000031000000007
  0
LINE
  5
276
100
AcDbEntity
100
AcDbLine
  8
0
 62
256
370
-1
  6
CONTINUOUS
 10
0.4482196600202989
 20
-0.1274564337156522
 30
0.0
 11
0.4521716600202989
 21
-0.1274564337156522
 31
0.0
  0
LINE
  5
277
100
AcDbEntity
100
AcDbLine
  8
0
 62
256
370
-1
  6
CONTINUOUS
 10
0.4069116600202988
 20
-0.1702314337156519
 30
0.0
 11
0.4104666600202988
 21
-0.2512464337156518
 31
0.0
  0
LINE
  5
278
100
AcDbEntity
100
AcDbLine
  8
0
 62
256
370
-1
  6
CONTINUOUS
 10
-0.4482153399797011
 20
-0.1275014337156522
 30
0.0
 11
-0.4521683399797011
 21
-0.1275024337156524
 31
0.0
  0
LINE
  5
279
100
AcDbEntity
100
AcDbLine
  8
0
 62
256
370
-1
  6
ByLayer
 10
-0.4999983399797012
 20
-0.4166724337156523
 30
0.0
 11
-0.4999983399797012
 21
-0.5840064337156522
 31
0.0
  0
LINE
  5
27A
100
AcDbEntity
100
AcDbLine
  8
0
 62
256
370
-1
  6
ByLayer
 10
0.5000016600202989
 20
-0.4166724337156523
 30
0.0
 11
0.5000016600202989
 21
-0.5833384337156521
 31
0.0
  0
LINE
  5
27B
100
AcDbEntity
100
AcDbLine
  8
0
 62
7
370
-1
  6
CONTINUOUS
 10
0.3759376600202989
 20
-0.4450014337156521
 30
0.0
 11
0.1405096600202989
 21
-0.2095724337156522
 31
0.0
  0
ARC
  5
27C
100
AcDbEntity
  8
0
 62
7
370
-1
  6
CONTINUOUS
100
AcDbCircle
 10
0.0510306600202988
 20
-0.2990514337156521
 30
0.0
 40
0.126542
100
AcDbArc
 50
44.9999290000000016
 51
90.0
  0
ARC
  5
27D
100
AcDbEntity
  8
0
 62
7
370
-1
  6
CONTINUOUS
100
AcDbCircle
 10
-0.0510283399797012
 20
-0.2990514337156521
 30
0.0
 40
0.126542
100
AcDbArc
 50
90.0
 51
134.9997140000000115
  0
LINE
  5
27E
100
AcDbEntity
100
AcDbLine
  8
0
 62
7
370
-1
  6
CONTINUOUS
 10
0.0510306600202988
 20
-0.1725094337156524
 30
0.0
 11
-0.0510283399797012
 21
-0.1725094337156524
 31
0.0
  0
LINE
  5
27F
100
AcDbEntity
100
AcDbLine
  8
0
 62
7
370
-1
  6
CONTINUOUS
 10
0.1405126600202989
 20
-0.7904784337156524
 30
0.0
 11
0.3759376600202989
 21
-0.555055433715652
 31
0.0
  0
ARC
  5
280
100
AcDbEntity
  8
0
 62
7
370
-1
  6
CONTINUOUS
100
AcDbCircle
 10
0.3209106600202988
 20
-0.5000284337156521
 30
0.0
 40
0.07782
100
AcDbArc
 50
314.9997859999999719
 51
44.9999290000000016
  0
ARC
  5
281
100
AcDbEntity
  8
0
 62
7
370
-1
  6
CONTINUOUS
100
AcDbCircle
 10
0.0510346600202988
 20
-0.7009994337156521
 30
0.0
 40
0.126542
100
AcDbArc
 50
270.0
 51
314.9997859999999719
  0
ARC
  5
282
100
AcDbEntity
  8
0
 62
7
370
-1
  6
CONTINUOUS
100
AcDbCircle
 10
-0.0510333399797011
 20
-0.7009994337156521
 30
0.0
 40
0.126542
100
AcDbArc
 50
224.9997140000000115
 51
270.0
  0
LINE
  5
283
100
AcDbEntity
100
AcDbLine
  8
0
 62
7
370
-1
  6
CONTINUOUS
 10
-0.0510333399797011
 20
-0.8275414337156523
 30
0.0
 11
0.0510346600202988
 21
-0.8275414337156523
 31
0.0
  0
LINE
  5
284
100
AcDbEntity
100
AcDbLine
  8
0
 62
7
370
-1
  6
CONTINUOUS
 10
-0.1405063399797012
 20
-0.2095724337156522
 30
0.0
 11
-0.3759343399797011
 21
-0.4449984337156521
 31
0.0
  0
LINE
  5
285
100
AcDbEntity
100
AcDbLine
  8
0
 62
7
370
-1
  6
CONTINUOUS
 10
-0.3759353399797011
 20
-0.555052433715652
 30
0.0
 11
-0.1405123399797012
 21
-0.7904774337156523
 31
0.0
  0
ARC
  5
286
100
AcDbEntity
  8
0
 62
7
370
-1
  6
CONTINUOUS
100
AcDbCircle
 10
-0.3209083399797011
 20
-0.5000254337156521
 30
0.0
 40
0.07782
100
AcDbArc
 50
134.9997140000000115
 51
224.9997140000000115
  0
LINE
  5
287
100
AcDbEntity
100
AcDbLine
  8
0
 62
256
370
-1
  6
CONTINUOUS
 10
-0.4999983399797012
 20
0.5833315662843478
 30
0.0
 11
-0.4999983399797012
 21
0.5839975662843476
 31
0.0
  0
ARC
  5
288
100
AcDbEntity
  8
0
 62
256
370
-1
  6
CONTINUOUS
100
AcDbCircle
 10
-0.4999983399797012
 20
0.6039995662843475
 30
0.0
 40
0.02
100
AcDbArc
 50
270.0
 51
90.0
  0
LINE
  5
289
100
AcDbEntity
100
AcDbLine
  8
0
 62
256
370
-1
  6
CONTINUOUS
 10
-0.4999983399797012
 20
0.6239985662843478
 30
0.0
 11
-0.4999983399797012
 21
0.6666645662843474
 31
0.0
  0
LINE
  5
28A
100
AcDbEntity
100
AcDbLine
  8
0
 62
256
370
-1
  6
CONTINUOUS
 10
-0.4999983399797012
 20
0.6666645662843474
 30
0.0
 11
-0.4970643399797011
 21
0.7506765662843479
 31
0.0
  0
ARC
  5
28B
100
AcDbEntity
  8
0
 62
256
370
-1
  6
CONTINUOUS
100
AcDbCircle
 10
-0.4963663399797011
 20
0.7706655662843477
 30
0.0
 40
0.02
100
AcDbArc
 50
268.0
 51
88.0
  0
ARC
  5
28C
100
AcDbEntity
  8
0
 62
256
370
-1
  6
CONTINUOUS
100
AcDbCircle
 10
-0.4963663399797011
 20
1.2293355662843475
 30
0.0
 40
0.02
100
AcDbArc
 50
272.0
 51
91.9999849999999952
  0
LINE
  5
28D
100
AcDbEntity
100
AcDbLine
  8
0
 62
256
370
-1
  6
CONTINUOUS
 10
-0.4970643399797011
 20
1.2493225662843479
 30
0.0
 11
-0.4999983399797012
 21
1.3333345662843483
 31
0.0
  0
LINE
  5
28E
100
AcDbEntity
100
AcDbLine
  8
0
 62
256
370
-1
  6
CONTINUOUS
 10
-0.4999983399797012
 20
1.3333345662843483
 30
0.0
 11
-0.4999983399797012
 21
1.3760035662843475
 31
0.0
  0
ARC
  5
28F
100
AcDbEntity
  8
0
 62
256
370
-1
  6
CONTINUOUS
100
AcDbCircle
 10
-0.4999983399797012
 20
1.3960025662843478
 30
0.0
 40
0.02
100
AcDbArc
 50
270.0
 51
90.0
  0
LINE
  5
290
100
AcDbEntity
100
AcDbLine
  8
0
 62
256
370
-1
  6
CONTINUOUS
 10
-0.4999983399797012
 20
1.4160015662843481
 30
0.0
 11
-0.4999983399797012
 21
1.416667566284348
 31
0.0
  0
ARC
  5
291
100
AcDbEntity
  8
0
 62
256
370
-1
  6
CONTINUOUS
100
AcDbCircle
 10
-0.4166643399797011
 20
1.416667566284348
 30
0.0
 40
0.083333
100
AcDbArc
 50
90.0
 51
180.0
  0
LINE
  5
292
100
AcDbEntity
100
AcDbLine
  8
0
 62
256
370
-1
  6
CONTINUOUS
 10
-0.4166643399797011
 20
1.5000015662843478
 30
0.0
 11
-0.4159983399797011
 21
1.5000015662843478
 31
0.0
  0
ARC
  5
293
100
AcDbEntity
  8
0
 62
256
370
-1
  6
CONTINUOUS
100
AcDbCircle
 10
-0.3959983399797011
 20
1.5000015662843478
 30
0.0
 40
0.02
100
AcDbArc
 50
180.0
 51
0.000008
  0
LINE
  5
294
100
AcDbEntity
100
AcDbLine
  8
0
 62
256
370
-1
  6
CONTINUOUS
 10
-0.3759983399797012
 20
1.5000015662843478
 30
0.0
 11
-0.3333313399797012
 21
1.5000015662843478
 31
0.0
  0
LINE
  5
295
100
AcDbEntity
100
AcDbLine
  8
0
 62
256
370
-1
  6
CONTINUOUS
 10
-0.3333313399797012
 20
1.5000015662843478
 30
0.0
 11
-0.2493183399797012
 21
1.4970665662843479
 31
0.0
  0
ARC
  5
296
100
AcDbEntity
  8
0
 62
256
370
-1
  6
CONTINUOUS
100
AcDbCircle
 10
-0.2293313399797011
 20
1.4963695662843481
 30
0.0
 40
0.02
100
AcDbArc
 50
178.0
 51
358.0
  0
ARC
  5
297
100
AcDbEntity
  8
0
 62
256
370
-1
  6
CONTINUOUS
100
AcDbCircle
 10
0.2293376600202988
 20
1.4963695662843481
 30
0.0
 40
0.02
100
AcDbArc
 50
182.0
 51
1.9999919999999998
  0
LINE
  5
298
100
AcDbEntity
100
AcDbLine
  8
0
 62
256
370
-1
  6
CONTINUOUS
 10
0.2493266600202988
 20
1.4970665662843479
 30
0.0
 11
0.3333376600202989
 21
1.5000015662843478
 31
0.0
  0
LINE
  5
299
100
AcDbEntity
100
AcDbLine
  8
0
 62
256
370
-1
  6
CONTINUOUS
 10
0.3333376600202989
 20
1.5000015662843478
 30
0.0
 11
0.3760046600202989
 21
1.5000015662843478
 31
0.0
  0
ARC
  5
29A
100
AcDbEntity
  8
0
 62
256
370
-1
  6
CONTINUOUS
100
AcDbCircle
 10
0.3960036600202989
 20
1.5000015662843478
 30
0.0
 40
0.02
100
AcDbArc
 50
180.0
 51
0.000008
  0
LINE
  5
29B
100
AcDbEntity
100
AcDbLine
  8
0
 62
256
370
-1
  6
CONTINUOUS
 10
0.4160036600202989
 20
1.5000015662843478
 30
0.0
 11
0.4166696600202988
 21
1.5000015662843478
 31
0.0
  0
ARC
  5
29C
100
AcDbEntity
  8
0
 62
256
370
-1
  6
CONTINUOUS
100
AcDbCircle
 10
0.4166696600202988
 20
1.416667566284348
 30
0.0
 40
0.083333
100
AcDbArc
 50
0.001137
 51
90.0011439999999965
  0
LINE
  5
29D
100
AcDbEntity
100
AcDbLine
  8
0
 62
256
370
-1
  6
CONTINUOUS
 10
0.5000016600202989
 20
1.416667566284348
 30
0.0
 11
0.5000016600202989
 21
1.4160015662843481
 31
0.0
  0
ARC
  5
29E
100
AcDbEntity
  8
0
 62
256
370
-1
  6
CONTINUOUS
100
AcDbCircle
 10
0.5000016600202989
 20
1.3960025662843478
 30
0.0
 40
0.02
100
AcDbArc
 50
90.0
 51
270.0
  0
LINE
  5
29F
100
AcDbEntity
100
AcDbLine
  8
0
 62
256
370
-1
  6
CONTINUOUS
 10
0.5000016600202989
 20
1.3760035662843475
 30
0.0
 11
0.5000016600202989
 21
1.3333345662843483
 31
0.0
  0
LINE
  5
2A0
100
AcDbEntity
100
AcDbLine
  8
0
 62
256
370
-1
  6
CONTINUOUS
 10
0.5000016600202989
 20
1.3333345662843483
 30
0.0
 11
0.4970686600202989
 21
1.2493225662843479
 31
0.0
  0
ARC
  5
2A1
100
AcDbEntity
  8
0
 62
256
370
-1
  6
CONTINUOUS
100
AcDbCircle
 10
0.4963706600202988
 20
1.2293355662843475
 30
0.0
 40
0.02
100
AcDbArc
 50
88.0
 51
268.0
  0
ARC
  5
2A2
100
AcDbEntity
  8
0
 62
256
370
-1
  6
CONTINUOUS
100
AcDbCircle
 10
0.4963706600202988
 20
0.7706655662843477
 30
0.0
 40
0.02
100
AcDbArc
 50
92.0
 51
271.9999990000000025
  0
LINE
  5
2A3
100
AcDbEntity
100
AcDbLine
  8
0
 62
256
370
-1
  6
CONTINUOUS
 10
0.4970686600202989
 20
0.7506765662843479
 30
0.0
 11
0.5000016600202989
 21
0.6666645662843474
 31
0.0
  0
LINE
  5
2A4
100
AcDbEntity
100
AcDbLine
  8
0
 62
256
370
-1
  6
CONTINUOUS
 10
0.5000016600202989
 20
0.6666645662843474
 30
0.0
 11
0.5000016600202989
 21
0.6239985662843478
 31
0.0
  0
ARC
  5
2A5
100
AcDbEntity
  8
0
 62
256
370
-1
  6
CONTINUOUS
100
AcDbCircle
 10
0.5000016600202989
 20
0.6039995662843475
 30
0.0
 40
0.02
100
AcDbArc
 50
90.0
 51
270.0
  0
LINE
  5
2A6
100
AcDbEntity
100
AcDbLine
  8
0
 62
256
370
-1
  6
CONTINUOUS
 10
0.5000016600202989
 20
0.5839975662843476
 30
0.0
 11
0.5000016600202989
 21
0.5833315662843478
 31
0.0
  0
CIRCLE
  5
2A7
100
AcDbEntity
100
AcDbCircle
  8
0
 62
256
370
-1
  6
CONTINUOUS
 10
0.0000026600202988
 20
0.9999995662843474
 30
0.0
 40
0.1005
  0
ARC
  5
2A8
100
AcDbEntity
  8
0
 62
256
370
-1
  6
CONTINUOUS
100
AcDbCircle
 10
0.3020046600202989
 20
1.0639415662843483
 30
0.0
 40
0.125
100
AcDbArc
 50
135.0007319999999993
 51
180.000031000000007
  0
LINE
  5
2A9
100
AcDbEntity
100
AcDbLine
  8
0
 62
256
370
-1
  6
CONTINUOUS
 10
0.1770046600202988
 20
0.9999985662843481
 30
0.0
 11
0.1770046600202988
 21
1.0639415662843483
 31
0.0
  0
LINE
  5
2AA
100
AcDbEntity
100
AcDbLine
  8
0
 62
256
370
-1
  6
CONTINUOUS
 10
0.2595576600202988
 20
1.1982725662843479
 30
0.0
 11
0.2136156600202989
 21
1.1523295662843476
 31
0.0
  0
ARC
  5
2AB
100
AcDbEntity
  8
0
 62
256
370
-1
  6
CONTINUOUS
100
AcDbCircle
 10
0.0642756600202989
 20
1.3023345662843477
 30
0.0
 40
0.125
100
AcDbArc
 50
270.0
 51
314.9995379999999727
  0
LINE
  5
2AC
100
AcDbEntity
100
AcDbLine
  8
0
 62
256
370
-1
  6
CONTINUOUS
 10
0.0000006600202989
 20
1.1773345662843477
 30
0.0
 11
0.0642756600202989
 21
1.1773345662843477
 31
0.0
  0
ARC
  5
2AD
100
AcDbEntity
  8
0
 62
256
370
-1
  6
CONTINUOUS
100
AcDbCircle
 10
0.3020046600202989
 20
0.9360575662843474
 30
0.0
 40
0.125
100
AcDbArc
 50
180.000031000000007
 51
225.000031000000007
  0
LINE
  5
2AE
100
AcDbEntity
100
AcDbLine
  8
0
 62
256
370
-1
  6
CONTINUOUS
 10
0.1770046600202988
 20
0.9999985662843481
 30
0.0
 11
0.1770046600202988
 21
0.9360575662843474
 31
0.0
  0
ARC
  5
2AF
100
AcDbEntity
  8
0
 62
256
370
-1
  6
CONTINUOUS
100
AcDbCircle
 10
-0.0642713399797011
 20
1.3023345662843477
 30
0.0
 40
0.125
100
AcDbArc
 50
225.0000609999999881
 51
270.0000340000000278
  0
LINE
  5
2B0
100
AcDbEntity
100
AcDbLine
  8
0
 62
256
370
-1
  6
CONTINUOUS
 10
0.0000006600202989
 20
1.1773345662843477
 30
0.0
 11
-0.0642713399797011
 21
1.1773345662843477
 31
0.0
  0
LINE
  5
2B1
100
AcDbEntity
100
AcDbLine
  8
0
 62
256
370
-1
  6
CONTINUOUS
 10
0.2136166600202988
 20
0.8476685662843481
 30
0.0
 11
0.3393716600202989
 21
0.7219135662843482
 31
0.0
  0
ARC
  5
2B2
100
AcDbEntity
  8
0
 62
256
370
-1
  6
CONTINUOUS
100
AcDbCircle
 10
-0.3019973399797011
 20
1.0639445662843479
 30
0.0
 40
0.125
100
AcDbArc
 50
0.000214
 51
45.000518999999997
  0
LINE
  5
2B3
100
AcDbEntity
100
AcDbLine
  8
0
 62
256
370
-1
  6
CONTINUOUS
 10
-0.3393643399797011
 20
1.2780875662843478
 30
0.0
 11
-0.2136093399797011
 21
1.1523335662843481
 31
0.0
  0
LINE
  5
2B4
100
AcDbEntity
100
AcDbLine
  8
0
 62
256
370
-1
  6
CONTINUOUS
 10
-0.1769973399797012
 20
0.9999985662843481
 30
0.0
 11
-0.1769973399797012
 21
1.0639445662843479
 31
0.0
  0
ARC
  5
2B5
100
AcDbEntity
  8
0
 62
256
370
-1
  6
CONTINUOUS
100
AcDbCircle
 10
-0.3019973399797011
 20
0.9360575662843474
 30
0.0
 40
0.125
100
AcDbArc
 50
314.9997060000000033
 51
0.000008
  0
LINE
  5
2B6
100
AcDbEntity
100
AcDbLine
  8
0
 62
256
370
-1
  6
CONTINUOUS
 10
-0.1769973399797012
 20
0.9999985662843481
 30
0.0
 11
-0.1769973399797012
 21
0.9360575662843474
 31
0.0
  0
LINE
  5
2B7
100
AcDbEntity
100
AcDbLine
  8
0
 62
256
370
-1
  6
CONTINUOUS
 10
-0.3393643399797011
 20
0.7219155662843476
 30
0.0
 11
-0.2136093399797011
 21
0.8476685662843481
 31
0.0
  0
LINE
  5
2B8
100
AcDbEntity
100
AcDbLine
  8
0
 62
256
370
-1
  6
CONTINUOUS
 10
0.1526636600202989
 20
1.2139455662843484
 30
0.0
 11
0.2809246600202989
 21
1.3422045662843483
 31
0.0
  0
LINE
  5
2B9
100
AcDbEntity
100
AcDbLine
  8
0
 62
256
370
-1
  6
CONTINUOUS
 10
-0.1526603399797012
 20
1.2139465662843476
 30
0.0
 11
-0.2809193399797011
 21
1.3422045662843483
 31
0.0
  0
ARC
  5
2BA
100
AcDbEntity
  8
0
 62
256
370
-1
  6
CONTINUOUS
100
AcDbCircle
 10
0.2526406600202989
 20
1.3704895662843477
 30
0.0
 40
0.04
100
AcDbArc
 50
314.999572999999998
 51
92.0003049999999973
  0
ARC
  5
2BB
100
AcDbEntity
  8
0
 62
256
370
-1
  6
CONTINUOUS
100
AcDbCircle
 10
-0.2526343399797011
 20
1.3704895662843477
 30
0.0
 40
0.04
100
AcDbArc
 50
87.9997099999999932
 51
225.0
  0
ARC
  5
2BC
100
AcDbEntity
  8
0
 62
256
370
-1
  6
CONTINUOUS
100
AcDbCircle
 10
-0.3704863399797011
 20
1.2526385662843478
 30
0.0
 40
0.04
100
AcDbArc
 50
44.999572999999998
 51
182.0003049999999973
  0
ARC
  5
2BD
100
AcDbEntity
  8
0
 62
256
370
-1
  6
CONTINUOUS
100
AcDbCircle
 10
-0.3704863399797011
 20
0.7473625662843474
 30
0.0
 40
0.04
100
AcDbArc
 50
177.9997250000000122
 51
315.0
  0
ARC
  5
2BE
100
AcDbEntity
  8
0
 62
256
370
-1
  6
CONTINUOUS
100
AcDbCircle
 10
0.3704906600202989
 20
0.7473615662843481
 30
0.0
 40
0.04
100
AcDbArc
 50
224.999572999999998
 51
2.0003199999999999
  0
ARC
  5
2BF
100
AcDbEntity
  8
0
 62
256
370
-1
  6
CONTINUOUS
100
AcDbCircle
 10
0.3704906600202989
 20
1.2526375662843476
 30
0.0
 40
0.04
100
AcDbArc
 50
357.9997099999999932
 51
135.0
  0
LINE
  5
2C0
100
AcDbEntity
100
AcDbLine
  8
0
 62
256
370
-1
  6
CONTINUOUS
 10
0.2595576600202988
 20
1.1982725662843479
 30
0.0
 11
0.3422076600202988
 21
1.2809205662843477
 31
0.0
  0
LINE
  5
2C1
100
AcDbEntity
100
AcDbLine
  8
0
 62
256
370
-1
  6
CONTINUOUS
 10
0.4956726600202989
 20
1.2093465662843477
 30
0.0
 11
0.4934806600202989
 21
1.1673895662843476
 31
0.0
  0
ARC
  5
2C2
100
AcDbEntity
  8
0
 62
256
370
-1
  6
CONTINUOUS
100
AcDbCircle
 10
0.4521716600202989
 20
1.1688315662843476
 30
0.0
 40
0.041333
100
AcDbArc
 50
270.0
 51
358.0
  0
ARC
  5
2C3
100
AcDbEntity
  8
0
 62
256
370
-1
  6
CONTINUOUS
100
AcDbCircle
 10
0.4482196600202989
 20
1.1688315662843476
 30
0.0
 40
0.041333
100
AcDbArc
 50
178.000031000000007
 51
270.0000370000000203
  0
LINE
  5
2C4
100
AcDbEntity
100
AcDbLine
  8
0
 62
256
370
-1
  6
CONTINUOUS
 10
0.4069116600202988
 20
1.1702725662843483
 30
0.0
 11
0.4104666600202988
 21
1.2512405662843478
 31
0.0
  0
LINE
  5
2C5
100
AcDbEntity
100
AcDbLine
  8
0
 62
256
370
-1
  6
CONTINUOUS
 10
0.4482206600202989
 20
1.1274985662843477
 30
0.0
 11
0.4521726600202988
 21
1.1274985662843477
 31
0.0
  0
ARC
  5
2C6
100
AcDbEntity
  8
0
 62
256
370
-1
  6
CONTINUOUS
100
AcDbCircle
 10
0.1688336600202988
 20
1.4521705662843483
 30
0.0
 40
0.041333
100
AcDbArc
 50
92.0009309999999942
 51
180.000945999999999
  0
LINE
  5
2C7
100
AcDbEntity
100
AcDbLine
  8
0
 62
256
370
-1
  6
CONTINUOUS
 10
0.1673896600202988
 20
1.4934785662843482
 30
0.0
 11
0.2093496600202989
 21
1.4956705662843481
 31
0.0
  0
ARC
  5
2C8
100
AcDbEntity
  8
0
 62
256
370
-1
  6
CONTINUOUS
100
AcDbCircle
 10
0.1688336600202988
 20
1.4482175662843482
 30
0.0
 40
0.041333
100
AcDbArc
 50
180.000031000000007
 51
272.0000120000000265
  0
LINE
  5
2C9
100
AcDbEntity
100
AcDbLine
  8
0
 62
256
370
-1
  6
CONTINUOUS
 10
0.1275006600202988
 20
1.4482175662843482
 30
0.0
 11
0.1275006600202988
 21
1.4521705662843483
 31
0.0
  0
LINE
  5
2CA
100
AcDbEntity
100
AcDbLine
  8
0
 62
256
370
-1
  6
CONTINUOUS
 10
0.1702756600202988
 20
1.4069095662843483
 30
0.0
 11
0.2512446600202988
 21
1.4104645662843478
 31
0.0
  0
LINE
  5
2CB
100
AcDbEntity
100
AcDbLine
  8
0
 62
256
370
-1
  6
CONTINUOUS
 10
-0.2093433399797011
 20
1.4956705662843481
 30
0.0
 11
-0.1673863399797012
 21
1.4934785662843482
 31
0.0
  0
ARC
  5
2CC
100
AcDbEntity
  8
0
 62
256
370
-1
  6
CONTINUOUS
100
AcDbCircle
 10
-0.1688283399797012
 20
1.4521705662843483
 30
0.0
 40
0.041333
100
AcDbArc
 50
0.000214
 51
88.0002139999999997
  0
LINE
  5
2CD
100
AcDbEntity
100
AcDbLine
  8
0
 62
256
370
-1
  6
CONTINUOUS
 10
-0.1274923399797011
 20
1.4521705662843483
 30
0.0
 11
-0.1274923399797011
 21
1.4482175662843482
 31
0.0
  0
ARC
  5
2CE
100
AcDbEntity
  8
0
 62
256
370
-1
  6
CONTINUOUS
100
AcDbCircle
 10
-0.1688283399797012
 20
1.4482175662843482
 30
0.0
 40
0.041333
100
AcDbArc
 50
268.0000309999999786
 51
0.000023
  0
LINE
  5
2CF
100
AcDbEntity
100
AcDbLine
  8
0
 62
256
370
-1
  6
CONTINUOUS
 10
-0.1702703399797012
 20
1.4069095662843483
 30
0.0
 11
-0.2512383399797011
 21
1.4104645662843478
 31
0.0
  0
ARC
  5
2D0
100
AcDbEntity
  8
0
 62
256
370
-1
  6
CONTINUOUS
100
AcDbCircle
 10
-0.4521683399797011
 20
1.1688315662843476
 30
0.0
 40
0.041333
100
AcDbArc
 50
182.0
 51
270.0000099999999748
  0
LINE
  5
2D1
100
AcDbEntity
100
AcDbLine
  8
0
 62
256
370
-1
  6
CONTINUOUS
 10
-0.4934763399797011
 20
1.1673895662843476
 30
0.0
 11
-0.4956683399797011
 21
1.2093465662843477
 31
0.0
  0
ARC
  5
2D2
100
AcDbEntity
  8
0
 62
256
370
-1
  6
CONTINUOUS
100
AcDbCircle
 10
-0.4482153399797011
 20
1.1688325662843477
 30
0.0
 40
0.041333
100
AcDbArc
 50
270.0000309999999786
 51
2.0000149999999999
  0
LINE
  5
2D3
100
AcDbEntity
100
AcDbLine
  8
0
 62
256
370
-1
  6
CONTINUOUS
 10
-0.4482153399797011
 20
1.1274985662843477
 30
0.0
 11
-0.4521673399797011
 21
1.1274985662843477
 31
0.0
  0
LINE
  5
2D4
100
AcDbEntity
100
AcDbLine
  8
0
 62
256
370
-1
  6
CONTINUOUS
 10
-0.4069063399797011
 20
1.1702735662843475
 30
0.0
 11
-0.4104623399797011
 21
1.251242566284348
 31
0.0
  0
LINE
  5
2D5
100
AcDbEntity
100
AcDbLine
  8
0
 62
256
370
-1
  6
CONTINUOUS
 10
-0.4956683399797011
 20
0.7906525662843481
 30
0.0
 11
-0.4934763399797011
 21
0.8326125662843477
 31
0.0
  0
ARC
  5
2D6
100
AcDbEntity
  8
0
 62
256
370
-1
  6
CONTINUOUS
100
AcDbCircle
 10
-0.4521683399797011
 20
0.8311675662843482
 30
0.0
 40
0.041333
100
AcDbArc
 50
90.0
 51
178.0
  0
ARC
  5
2D7
100
AcDbEntity
  8
0
 62
256
370
-1
  6
CONTINUOUS
100
AcDbCircle
 10
-0.4482153399797011
 20
0.8311685662843474
 30
0.0
 40
0.041333
100
AcDbArc
 50
358.0000229999999988
 51
90.0000150000000048
  0
LINE
  5
2D8
100
AcDbEntity
100
AcDbLine
  8
0
 62
256
370
-1
  6
CONTINUOUS
 10
-0.4069063399797011
 20
0.8297275662843476
 30
0.0
 11
-0.4104623399797011
 21
0.7487595662843481
 31
0.0
  0
ARC
  5
2D9
100
AcDbEntity
  8
0
 62
256
370
-1
  6
CONTINUOUS
100
AcDbCircle
 10
0.4521716600202989
 20
0.8312135662843475
 30
0.0
 40
0.041333
100
AcDbArc
 50
2.0011290000000002
 51
90.0011439999999965
  0
LINE
  5
2DA
100
AcDbEntity
100
AcDbLine
  8
0
 62
256
370
-1
  6
CONTINUOUS
 10
0.4934806600202989
 20
0.8326585662843479
 30
0.0
 11
0.4956726600202989
 21
0.7906525662843481
 31
0.0
  0
ARC
  5
2DB
100
AcDbEntity
  8
0
 62
256
370
-1
  6
CONTINUOUS
100
AcDbCircle
 10
0.4482196600202989
 20
0.8312135662843475
 30
0.0
 40
0.041333
100
AcDbArc
 50
90.000031000000007
 51
182.000031000000007
  0
LINE
  5
2DC
100
AcDbEntity
100
AcDbLine
  8
0
 62
256
370
-1
  6
CONTINUOUS
 10
0.4482196600202989
 20
0.8725475662843475
 30
0.0
 11
0.4521716600202989
 21
0.8725475662843475
 31
0.0
  0
LINE
  5
2DD
100
AcDbEntity
100
AcDbLine
  8
0
 62
256
370
-1
  6
CONTINUOUS
 10
0.4069116600202988
 20
0.8297725662843477
 30
0.0
 11
0.4104666600202988
 21
0.7487575662843479
 31
0.0
  0
LINE
  5
2DE
100
AcDbEntity
100
AcDbLine
  8
0
 62
256
370
-1
  6
CONTINUOUS
 10
-0.4482153399797011
 20
0.8725025662843474
 30
0.0
 11
-0.4521683399797011
 21
0.8725015662843482
 31
0.0
  0
LINE
  5
2DF
100
AcDbEntity
100
AcDbLine
  8
0
 62
256
370
-1
  6
ByLayer
 10
0.5000016600202989
 20
0.5839995662843479
 30
0.0
 11
0.5000016600202989
 21
0.4159975662843475
 31
0.0
  0
LINE
  5
2E0
100
AcDbEntity
100
AcDbLine
  8
0
 62
256
370
-1
  6
ByLayer
 10
-0.4999983399797012
 20
0.5839995662843479
 30
0.0
 11
-0.4999983399797012
 21
0.4159975662843475
 31
0.0
  0
LINE
  5
2E1
100
AcDbEntity
100
AcDbLine
  8
0
 62
7
370
-1
  6
CONTINUOUS
 10
-0.1405063399797012
 20
0.790429566284348
 30
0.0
 11
-0.3759343399797011
 21
0.5550035662843477
 31
0.0
  0
LINE
  5
2E2
100
AcDbEntity
100
AcDbLine
  8
0
 62
7
370
-1
  6
CONTINUOUS
 10
-0.3759353399797011
 20
0.4449495662843478
 30
0.0
 11
-0.1405123399797012
 21
0.2095245662843476
 31
0.0
  0
ARC
  5
2E3
100
AcDbEntity
  8
0
 62
7
370
-1
  6
CONTINUOUS
100
AcDbCircle
 10
-0.3209083399797011
 20
0.4999765662843478
 30
0.0
 40
0.07782
100
AcDbArc
 50
134.9997140000000115
 51
224.9997140000000115
  0
LINE
  5
2E4
100
AcDbEntity
100
AcDbLine
  8
0
 62
7
370
-1
  6
CONTINUOUS
 10
-0.0510333399797011
 20
0.1724605662843476
 30
0.0
 11
0.0510346600202988
 21
0.1724605662843476
 31
0.0
  0
ARC
  5
2E5
100
AcDbEntity
  8
0
 62
7
370
-1
  6
CONTINUOUS
100
AcDbCircle
 10
-0.0510333399797011
 20
0.2990025662843482
 30
0.0
 40
0.126542
100
AcDbArc
 50
224.9997140000000115
 51
270.0
  0
ARC
  5
2E6
100
AcDbEntity
  8
0
 62
7
370
-1
  6
CONTINUOUS
100
AcDbCircle
 10
0.0510346600202988
 20
0.2990025662843482
 30
0.0
 40
0.126542
100
AcDbArc
 50
270.0
 51
314.9997859999999719
  0
LINE
  5
2E7
100
AcDbEntity
100
AcDbLine
  8
0
 62
7
370
-1
  6
CONTINUOUS
 10
0.1405126600202989
 20
0.2095235662843475
 30
0.0
 11
0.3759376600202989
 21
0.4449465662843483
 31
0.0
  0
LINE
  5
2E8
100
AcDbEntity
100
AcDbLine
  8
0
 62
7
370
-1
  6
CONTINUOUS
 10
0.3759376600202989
 20
0.5550005662843481
 30
0.0
 11
0.1405096600202989
 21
0.790429566284348
 31
0.0
  0
ARC
  5
2E9
100
AcDbEntity
  8
0
 62
7
370
-1
  6
CONTINUOUS
100
AcDbCircle
 10
0.3209106600202988
 20
0.4999735662843482
 30
0.0
 40
0.07782
100
AcDbArc
 50
314.9997859999999719
 51
44.9999290000000016
  0
LINE
  5
2EA
100
AcDbEntity
100
AcDbLine
  8
0
 62
7
370
-1
  6
CONTINUOUS
 10
0.0510306600202988
 20
0.8274925662843479
 30
0.0
 11
-0.0510283399797012
 21
0.8274925662843479
 31
0.0
  0
ARC
  5
2EB
100
AcDbEntity
  8
0
 62
7
370
-1
  6
CONTINUOUS
100
AcDbCircle
 10
-0.0510283399797012
 20
0.7009505662843482
 30
0.0
 40
0.126542
100
AcDbArc
 50
90.0
 51
134.9997140000000115
  0
ARC
  5
2EC
100
AcDbEntity
  8
0
 62
7
370
-1
  6
CONTINUOUS
100
AcDbCircle
 10
0.0510306600202988
 20
0.7009505662843482
 30
0.0
 40
0.126542
100
AcDbArc
 50
44.9999290000000016
 51
90.0
  0
LINE
  5
2ED
100
AcDbEntity
100
AcDbLine
  8
ASHADE
 62
256
370
-1
  6
ByLayer
 10
0.3393716600202989
 20
0.7219135662843482
 30
0.0
 11
0.3393716600202989
 21
0.7219135662843482
 31
0.0
  0
LINE
  5
2EE
100
AcDbEntity
100
AcDbLine
  8
ASHADE
 62
256
370
-1
  6
ByLayer
 10
0.3393716600202989
 20
0.7219135662843482
 30
0.0
 11
0.3422061779835098
 21
0.7190775058277846
 31
0.0
  0
LINE
  5
2EF
100
AcDbEntity
100
AcDbLine
  8
ASHADE
 62
256
370
-1
  6
ByLayer
 10
0.3393716600202989
 20
-0.2780904337156523
 30
0.0
 11
0.3422061779835098
 21
-0.2809264941722159
 31
0.0
  0
LINE
  5
2F0
100
AcDbEntity
100
AcDbLine
  8
ASHADE
 62
256
370
-1
  6
ByLayer
 10
0.3422061779835098
 20
-0.7190843732590885
 30
0.0
 11
0.3393716600202989
 21
-0.7219204337156521
 31
0.0
  0
LINE
  5
2F1
100
AcDbEntity
100
AcDbLine
  8
ASHADE
 62
256
370
-1
  6
ByLayer
 10
-0.3422018579429119
 20
-1.2809294941722158
 30
0.0
 11
-0.3393643399797011
 21
-1.2780944337156519
 31
0.0
  0
LINE
  5
2F2
100
AcDbEntity
100
AcDbLine
  8
ASHADE
 62
256
370
-1
  6
ByLayer
 10
-0.3422018579429119
 20
1.2809226267409113
 30
0.0
 11
-0.3393643399797011
 21
1.2780875662843478
 31
0.0
  0
LINE
  5
2F3
100
AcDbEntity
100
AcDbLine
  8
ASHADE
 62
256
370
-1
  6
ByLayer
 10
-0.3422020687322392
 20
0.7190782950368854
 30
0.0
 11
-0.3393643399797011
 21
0.7219155662843476
 31
0.0
  0
LINE
  5
2F4
100
AcDbEntity
100
AcDbLine
  8
ASHADE
 62
256
370
-1
  6
ByLayer
 10
-0.3422018579429119
 20
0.2809186267409116
 30
0.0
 11
-0.3393643399797011
 21
0.2780835662843481
 31
0.0
  0
LINE
  5
2F5
100
AcDbEntity
100
AcDbLine
  8
ASHADE
 62
256
370
-1
  6
ByLayer
 10
-0.3422020687322392
 20
-0.2809257049631143
 30
0.0
 11
-0.3393643399797011
 21
-0.278088433715652
 31
0.0
  0
LINE
  5
2F6
100
AcDbEntity
100
AcDbLine
  8
ASHADE
 62
256
370
-1
  6
ByLayer
 10
-0.3422020687322392
 20
-0.7190851624681901
 30
0.0
 11
-0.3393643399797011
 21
-0.7219224337156523
 31
0.0
  0
ENDSEC
  0
SECTION
  2
OBJECTS
  0
DICTIONARY
  5
C
100
AcDbDictionary
280
0
281
1
  3
ACAD_GROUP
350
D
  3
ACAD_LAYOUT
350
1A
  3
ACAD_MLINESTYLE
350
17
  3
ACAD_PLOTSETTINGS
350
19
  3
ACAD_PLOTSTYLENAME
350
E
  3
AcDbVariableDictionary
350
2F7
  0
DICTIONARY
  5
D
100
AcDbDictionary
280
0
281
1
  0
ACDBDICTIONARYWDFLT
  5
E
100
AcDbDictionary
281
1
  3
Normal
350
F
100
AcDbDictionaryWithDefault
340
F
  0
ACDBPLACEHOLDER
  5
F
  0
DICTIONARY
  5
17
100
AcDbDictionary
280
0
281
1
  3
Standard
350
18
  0
MLINESTYLE
  5
18
100
AcDbMlineStyle
  2
STANDARD
 70
0
  3

 62
256
 51
90.0
 52
90.0
 71
2
 49
0.5
 62
256
  6
BYLAYER
 49
-0.5
 62
256
  6
BYLAYER
  0
DICTIONARY
  5
19
100
AcDbDictionary
280
0
281
1
  0
DICTIONARY
  5
1A
100
AcDbDictionary
281
1
  3
Layout1
350
1E
  3
Layout2
350
26
  3
Model
350
22
  0
LAYOUT
  5
1E
100
AcDbPlotSettings
  1

  2
C:\Program Files\AutoCAD 2002\plotters\DWF ePlot (optimized for plotting).pc3
  4

  6

 40
0.0
 41
0.0
 42
0.0
 43
0.0
 44
0.0
 45
0.0
 46
0.0
 47
0.0
 48
0.0
 49
0.0
140
0.0
141
0.0
142
1.0
143
1.0
 70
688
 72
0
 73
0
 74
5
  7

 75
16
147
1.0
148
0.0
149
0.0
100
AcDbLayout
  1
Layout1
 70
1
 71
1
 10
0.0
 20
0.0
 11
420.0
 21
297.0
 12
0.0
 22
0.0
 32
0.0
 14
100000000000000000000.0
 24
100000000000000000000.0
 34
100000000000000000000.0
 15
-100000000000000000000.0
 25
-100000000000000000000.0
 35
-100000000000000000000.0
146
0.0
 13
0.0
 23
0.0
 33
0.0
 16
1.0
 26
0.0
 36
0.0
 17
0.0
 27
1.0
 37
0.0
 76
0
330
1B
  0
LAYOUT
  5
22
100
AcDbPlotSettings
  1

  2
C:\Program Files\AutoCAD 2002\plotters\DWF ePlot (optimized for plotting).pc3
  4

  6

 40
0.0
 41
0.0
 42
0.0
 43
0.0
 44
0.0
 45
0.0
 46
0.0
 47
0.0
 48
0.0
 49
0.0
140
0.0
141
0.0
142
1.0
143
1.0
 70
1712
 72
0
 73
0
 74
0
  7

 75
0
147
1.0
148
0.0
149
0.0
100
AcDbLayout
  1
Model
 70
1
 71
0
 10
0.0
 20
0.0
 11
12.0
 21
9.0
 12
0.0
 22
0.0
 32
0.0
 14
0.0
 24
0.0
 34
0.0
 15
0.0
 25
0.0
 35
0.0
146
0.0
 13
0.0
 23
0.0
 33
0.0
 16
1.0
 26
0.0
 36
0.0
 17
0.0
 27
1.0
 37
0.0
 76
0
330
1F
  0
LAYOUT
  5
26
100
AcDbPlotSettings
  1

  2
C:\Program Files\AutoCAD 2002\plotters\DWF ePlot (optimized for plotting).pc3
  4

  6

 40
0.0
 41
0.0
 42
0.0
 43
0.0
 44
0.0
 45
0.0
 46
0.0
 47
0.0
 48
0.0
 49
0.0
140
0.0
141
0.0
142
1.0
143
1.0
 70
688
 72
0
 73
0
 74
5
  7

 75
16
147
1.0
148
0.0
149
0.0
100
AcDbLayout
  1
Layout2
 70
1
 71
2
 10
0.0
 20
0.0
 11
12.0
 21
9.0
 12
0.0
 22
0.0
 32
0.0
 14
0.0
 24
0.0
 34
0.0
 15
0.0
 25
0.0
 35
0.0
146
0.0
 13
0.0
 23
0.0
 33
0.0
 16
1.0
 26
0.0
 36
0.0
 17
0.0
 27
1.0
 37
0.0
 76
0
330
23
  0
DICTIONARY
  5
2F7
100
AcDbDictionary
281
1
  3
DIMASSOC
350
2F9
  3
HIDETEXT
350
2F8
  0
DICTIONARYVAR
  5
2F8
100
DictionaryVariables
280
0
  1
2
  0
DICTIONARYVAR
  5
2F9
100
DictionaryVariables
280
0
  1
1
  0
ENDSEC
  0
EOF
