999
dxflib 2.0.4.8
  0
SECTION
  2
HEADER
  9
$ACADVER
  1
AC1015
  9
$HANDSEED
  5
FFFF
  9
$USERR4
 40
0.0
  9
$DIMTDEC
 70
4
  9
$DIMTAD
 70
0
  9
$CMLSTYLE
  2
STANDARD
  9
$VISRETAIN
 70
0
  9
$TILEMODE
 70
1
  9
$SHADEDIF
 70
70
  9
$USERR5
 40
0.0
  9
$UCSYDIR
 10
0.0
 20
1.0
 30
0.0
  9
$ATTREQ
 70
1
  9
$CHAMFERA
 40
0.0
  9
$MENU
  1
acad
  9
$DIMUNIT
 70
2
  9
$DIMALTZ
 70
0
  9
$DELOBJ
 70
1
  9
$CLAYER
  8
0
  9
$UCSXDIR
 10
1.0
 20
0.0
 30
0.0
  9
$CHAMFERB
 40
0.0
  9
$DIMUPT
 70
0
  9
$DIMASZ
 40
0.18
  9
$TRACEWID
 40
0.05
  9
$REGENMODE
 70
1
  9
$ORTHOMODE
 70
1
  9
$EXTMIN
 10
0.940605
 20
2.7962799999999999
 30
0.0
  9
$CMLJUST
 70
0
  9
$PICKSTYLE
 70
1
  9
$PUCSYDIR
 10
0.0
 20
1.0
 30
0.0
  9
$ANGBASE
 50
0.0
  9
$USRTIMER
 70
1
  9
$CHAMFERC
 40
0.0
  9
$SKETCHINC
 40
0.1
  9
$DIMGAP
 40
0.09
  9
$DIMTFAC
 40
1.0
  9
$DIMSAH
 70
0
  9
$DIMALT
 70
0
  9
$DIMSHO
 70
1
  9
$PUCSXDIR
 10
1.0
 20
0.0
 30
0.0
  9
$SURFTYPE
 70
6
  9
$SPLFRAME
 70
0
  9
$CHAMFERD
 40
0.0
  9
$DIMALTTD
 70
2
  9
$DIMTSZ
 40
0.0
  9
$LIMMIN
 10
-6.3797499999999996
 20
-1.879024
  9
$DWGCODEPAGE
  3
ansi_1252
  9
$SURFTAB1
 70
6
  9
$SPLINESEGS
 70
8
  9
$BLIPMODE
 70
1
  9
$AUPREC
 70
0
  9
$LUNITS
 70
2
  9
$UNITMODE
 70
0
  9
$USERI1
 70
0
  9
$SURFTAB2
 70
6
  9
$SKPOLY
 70
0
  9
$ELEVATION
 40
0.0
  9
$DIMCEN
 40
0.09
  9
$DIMRND
 40
0.0
  9
$INSBASE
 10
-4.6803759999999999
 20
1.7466390000000001
 30
0.0
  9
$USERI2
 70
0
  9
$UCSORG
 10
0.0
 20
0.0
 30
0.0
  9
$PELEVATION
 40
0.0
  9
$DIMEXO
 40
0.0625
  9
$TEXTSIZE
 40
0.125
  9
$DRAGMODE
 70
2
  9
$FILLMODE
 70
1
  9
$EXTMAX
 10
3.6315330000000001
 20
4.8616020000000004
 30
0.0
  9
$INSUNITS
 70
4
  9
$USERI3
 70
0
  9
$SURFU
 70
6
  9
$ANGDIR
 70
0
  9
$TDUSRTIMER
 40
0.0003248843
  9
$DIMTZIN
 70
0
  9
$DIMTOLJ
 70
1
  9
$DIMZIN
 70
0
  9
$DIMDLE
 40
0.0
  9
$DIMSCALE
 40
1.0
  9
$WORLDVIEW
 70
1
  9
$USERI4
 70
0
  9
$SURFV
 70
6
  9
$DIMALTTZ
 70
0
  9
$DIMJUST
 70
0
  9
$OSMODE
 70
0
  9
$QTEXTMODE
 70
0
  9
$LIMMAX
 10
5.6202500000000004
 20
7.1209759999999998
  9
$USERI5
 70
0
  9
$HANDLING
 70
1
  9
$PDMODE
 70
0
  9
$LIMCHECK
 70
0
  9
$THICKNESS
 40
0.0
  9
$DIMSE1
 70
0
  9
$DIMLIM
 70
0
  9
$DIMTXT
 40
0.18
  9
$ATTMODE
 70
1
  9
$PEXTMAX
 10
-2.4433289999999999
 20
3.7672810000000001
 30
0.0
  9
$PEXTMIN
 10
-6.9143420000000004
 20
-1.879024
 30
0.0
  9
$PUCSORG
 10
0.0
 20
0.0
 30
0.0
  9
$SPLINETYPE
 70
6
  9
$TDINDWG
 40
0.0003248843
  9
$LUPREC
 70
3
  9
$DIMSOXD
 70
0
  9
$DIMLFAC
 40
1.0
  9
$DIMSE2
 70
0
  9
$DIMTOH
 70
1
  9
$CELTYPE
  6
BYLAYER
  9
$PLIMCHECK
 70
0
  9
$PLINEWID
 40
0.0
  9
$DIMSTYLE
  2
STANDARD
  9
$DIMTVP
 40
0.0
  9
$DIMASO
 70
1
  9
$DIMTM
 40
0.0
  9
$DIMDLI
 40
0.38
  9
$DISPSILH
 70
0
  9
$CECOLOR
 62
256
  9
$TREEDEPTH
 70
3020
  9
$PLIMMAX
 10
-0.735642
 20
2.4927109999999999
  9
$PLIMMIN
 10
-6.4374440000000002
 20
-1.922415
  9
$MAXACTVP
 70
16
  9
$TDUPDATE
 40
2449772.9814873840659857
  9
$FILLETRAD
 40
0.015
  9
$DIMALTU
 70
2
  9
$DIMDEC
 70
4
  9
$DIMCLRT
 70
0
  9
$DIMALTD
 70
2
  9
$DIMTIH
 70
1
  9
$LTSCALE
 40
0.25
  9
$CMLSCALE
 40
1.0
  9
$PINSBASE
 10
0.0
 20
0.0
 30
0.0
  9
$USERR1
 40
0.0
  9
$ATTDIA
 70
0
  9
$PDSIZE
 40
0.0
  9
$DIMTXSTY
  7
STANDARD
  9
$DIMCLRD
 70
0
  9
$DIMEXE
 40
0.18
  9
$CELTSCALE
 40
1.0
  9
$SAVEIMAGES
 70
0
  9
$PSLTSCALE
 70
1
  9
$PLINEGEN
 70
0
  9
$SHADEDGE
 70
3
  9
$USERR2
 40
0.0
  9
$COORDS
 70
1
  9
$TDCREATE
 40
2449772.9788885409943759
  9
$DIMAUNIT
 70
0
  9
$DIMFIT
 70
3
  9
$DIMSD1
 70
0
  9
$DIMCLRE
 70
0
  9
$DIMTOFL
 70
0
  9
$DIMALTF
 40
25.3999999999999986
  9
$DIMTOL
 70
0
  9
$DIMTP
 40
0.0
  9
$TEXTSTYLE
  7
STANDARD
  9
$USERR3
 40
0.0
  9
$AUNITS
 70
0
  9
$DIMSD2
 70
0
  9
$DIMTIX
 70
0
  9
$MIRRTEXT
 70
1
  0
ENDSEC
  0
SECTION
  2
TABLES
  0
TABLE
  2
VPORT
  5
8
100
AcDbSymbolTable
 70
1
  0
VPORT
  5
30
100
AcDbSymbolTableRecord
100
AcDbViewportTableRecord
  2
*Active
 70
0
 10
0.0
 20
0.0
 11
1.0
 21
1.0
 12
286.3055555555554861
 22
148.5
 13
0.0
 23
0.0
 14
10.0
 24
10.0
 15
10.0
 25
10.0
 16
0.0
 26
0.0
 36
1.0
 17
0.0
 27
0.0
 37
0.0
 40
297.0
 41
1.92798353909465
 42
50.0
 43
0.0
 44
0.0
 50
0.0
 51
0.0
 71
0
 72
100
 73
1
 74
3
 75
1
 76
1
 77
0
 78
0
281
0
 65
1
110
0.0
120
0.0
130
0.0
111
1.0
121
0.0
131
0.0
112
0.0
122
1.0
132
0.0
 79
0
146
0.0
  0
ENDTAB
  0
TABLE
  2
LTYPE
  5
5
100
AcDbSymbolTable
 70
21
  0
LTYPE
  5
14
100
AcDbSymbolTableRecord
100
AcDbLinetypeTableRecord
  2
ByBlock
 70
0
  3

 72
65
 73
0
 40
0.0
  0
LTYPE
  5
15
100
AcDbSymbolTableRecord
100
AcDbLinetypeTableRecord
  2
ByLayer
 70
0
  3

 72
65
 73
0
 40
0.0
  0
LTYPE
  5
16
100
AcDbSymbolTableRecord
100
AcDbLinetypeTableRecord
  2
CONTINUOUS
 70
0
  3
Solid line
 72
65
 73
0
 40
0.0
  0
LTYPE
  5
31
100
AcDbSymbolTableRecord
100
AcDbLinetypeTableRecord
  2
DOT
 70
0
  3
Dot . . . . . . . . . . . . . . . . . . . . . .
 72
65
 73
2
 40
6.3499999999999996
 49
0.0
 74
0
 49
-6.3499999999999996
 74
0
  0
LTYPE
  5
32
100
AcDbSymbolTableRecord
100
AcDbLinetypeTableRecord
  2
DOT2
 70
0
  3
Dot (.5x) .....................................
 72
65
 73
2
 40
3.1749999999999998
 49
0.0
 74
0
 49
-3.1749999999999998
 74
0
  0
LTYPE
  5
33
100
AcDbSymbolTableRecord
100
AcDbLinetypeTableRecord
  2
DOTX2
 70
0
  3
Dot (2x) .  .  .  .  .  .  .  .  .  .  .  .  .
 72
65
 73
2
 40
12.6999999999999993
 49
0.0
 74
0
 49
-12.6999999999999993
 74
0
  0
LTYPE
  5
34
100
AcDbSymbolTableRecord
100
AcDbLinetypeTableRecord
  2
DASHED
 70
0
  3
Dashed __ __ __ __ __ __ __ __ __ __ __ __ __ _
 72
65
 73
2
 40
19.0500000000000007
 49
12.6999999999999993
 74
0
 49
-6.3499999999999996
 74
0
  0
LTYPE
  5
35
100
AcDbSymbolTableRecord
100
AcDbLinetypeTableRecord
  2
DASHED2
 70
0
  3
Dashed (.5x) _ _ _ _ _ _ _ _ _ _ _ _ _ _ _ _ _
 72
65
 73
2
 40
9.5250000000000004
 49
6.3499999999999996
 74
0
 49
-3.1749999999999998
 74
0
  0
LTYPE
  5
36
100
AcDbSymbolTableRecord
100
AcDbLinetypeTableRecord
  2
DASHEDX2
 70
0
  3
Dashed (2x) ____  ____  ____  ____  ____  ___
 72
65
 73
2
 40
38.1000000000000014
 49
25.3999999999999986
 74
0
 49
-12.6999999999999993
 74
0
  0
LTYPE
  5
37
100
AcDbSymbolTableRecord
100
AcDbLinetypeTableRecord
  2
DASHDOT
 70
0
  3
Dash dot __ . __ . __ . __ . __ . __ . __ . __
 72
65
 73
4
 40
25.3999999999999986
 49
12.6999999999999993
 74
0
 49
-6.3499999999999996
 74
0
 49
0.0
 74
0
 49
-6.3499999999999996
 74
0
  0
LTYPE
  5
38
100
AcDbSymbolTableRecord
100
AcDbLinetypeTableRecord
  2
DASHDOT2
 70
0
  3
Dash dot (.5x) _._._._._._._._._._._._._._._.
 72
65
 73
4
 40
12.6999999999999993
 49
6.3499999999999996
 74
0
 49
-3.1749999999999998
 74
0
 49
0.0
 74
0
 49
-3.1749999999999998
 74
0
  0
LTYPE
  5
39
100
AcDbSymbolTableRecord
100
AcDbLinetypeTableRecord
  2
DASHDOTX2
 70
0
  3
Dash dot (2x) ____  .  ____  .  ____  .  ___
 72
65
 73
4
 40
50.7999999999999972
 49
25.3999999999999986
 74
0
 49
-12.6999999999999993
 74
0
 49
0.0
 74
0
 49
-12.6999999999999993
 74
0
  0
LTYPE
  5
3A
100
AcDbSymbolTableRecord
100
AcDbLinetypeTableRecord
  2
DIVIDE
 70
0
  3
Divide ____ . . ____ . . ____ . . ____ . . ____
 72
65
 73
6
 40
31.75
 49
12.6999999999999993
 74
0
 49
-6.3499999999999996
 74
0
 49
0.0
 74
0
 49
-6.3499999999999996
 74
0
 49
0.0
 74
0
 49
-6.3499999999999996
 74
0
  0
LTYPE
  5
3B
100
AcDbSymbolTableRecord
100
AcDbLinetypeTableRecord
  2
DIVIDE2
 70
0
  3
Divide (.5x) __..__..__..__..__..__..__..__.._
 72
65
 73
6
 40
15.875
 49
6.3499999999999996
 74
0
 49
-3.1749999999999998
 74
0
 49
0.0
 74
0
 49
-3.1749999999999998
 74
0
 49
0.0
 74
0
 49
-3.1749999999999998
 74
0
  0
LTYPE
  5
3C
100
AcDbSymbolTableRecord
100
AcDbLinetypeTableRecord
  2
DIVIDEX2
 70
0
  3
Divide (2x) ________  .  .  ________  .  .  _
 72
65
 73
6
 40
63.5
 49
25.3999999999999986
 74
0
 49
-12.6999999999999993
 74
0
 49
0.0
 74
0
 49
-12.6999999999999993
 74
0
 49
0.0
 74
0
 49
-12.6999999999999993
 74
0
  0
LTYPE
  5
3D
100
AcDbSymbolTableRecord
100
AcDbLinetypeTableRecord
  2
CENTER
 70
0
  3
Center ____ _ ____ _ ____ _ ____ _ ____ _ ____
 72
65
 73
4
 40
50.7999999999999972
 49
31.75
 74
0
 49
-6.3499999999999996
 74
0
 49
6.3499999999999996
 74
0
 49
-6.3499999999999996
 74
0
  0
LTYPE
  5
3E
100
AcDbSymbolTableRecord
100
AcDbLinetypeTableRecord
  2
CENTER2
 70
0
  3
Center (.5x) ___ _ ___ _ ___ _ ___ _ ___ _ ___
 72
65
 73
4
 40
28.5749999999999993
 49
19.0500000000000007
 74
0
 49
-3.1749999999999998
 74
0
 49
3.1749999999999998
 74
0
 49
-3.1749999999999998
 74
0
  0
LTYPE
  5
3F
100
AcDbSymbolTableRecord
100
AcDbLinetypeTableRecord
  2
CENTERX2
 70
0
  3
Center (2x) ________  __  ________  __  _____
 72
65
 73
4
 40
101.5999999999999943
 49
63.5
 74
0
 49
-12.6999999999999993
 74
0
 49
12.6999999999999993
 74
0
 49
-12.6999999999999993
 74
0
  0
LTYPE
  5
40
100
AcDbSymbolTableRecord
100
AcDbLinetypeTableRecord
  2
BORDER
 70
0
  3
Border __ __ . __ __ . __ __ . __ __ . __ __ .
 72
65
 73
6
 40
44.4500000000000028
 49
12.6999999999999993
 74
0
 49
-6.3499999999999996
 74
0
 49
12.6999999999999993
 74
0
 49
-6.3499999999999996
 74
0
 49
0.0
 74
0
 49
-6.3499999999999996
 74
0
  0
LTYPE
  5
41
100
AcDbSymbolTableRecord
100
AcDbLinetypeTableRecord
  2
BORDER2
 70
0
  3
Border (.5x) __.__.__.__.__.__.__.__.__.__.__.
 72
65
 73
6
 40
22.2250000000000014
 49
6.3499999999999996
 74
0
 49
-3.1749999999999998
 74
0
 49
6.3499999999999996
 74
0
 49
-3.1749999999999998
 74
0
 49
0.0
 74
0
 49
-3.1749999999999998
 74
0
  0
LTYPE
  5
42
100
AcDbSymbolTableRecord
100
AcDbLinetypeTableRecord
  2
BORDERX2
 70
0
  3
Border (2x) ____  ____  .  ____  ____  .  ___
 72
65
 73
6
 40
88.9000000000000057
 49
25.3999999999999986
 74
0
 49
-12.6999999999999993
 74
0
 49
25.3999999999999986
 74
0
 49
-12.6999999999999993
 74
0
 49
0.0
 74
0
 49
-12.6999999999999993
 74
0
  0
ENDTAB
  0
TABLE
  2
LAYER
  5
2
100
AcDbSymbolTable
 70
2
  0
LAYER
  5
10
100
AcDbSymbolTableRecord
100
AcDbLayerTableRecord
  2
0
 70
0
 62
7
  6
CONTINUOUS
390
F
  0
LAYER
  5
43
100
AcDbSymbolTableRecord
100
AcDbLayerTableRecord
  2
ASHADE
 70
0
 62
7
  6
CONTINUOUS
390
F
  0
ENDTAB
  0
TABLE
  2
STYLE
  5
3
100
AcDbSymbolTable
 70
1
  0
STYLE
  5
11
100
AcDbSymbolTableRecord
100
AcDbTextStyleTableRecord
  2
Standard
 70
0
 40
0.0
 41
0.75
 50
0.0
 71
0
 42
2.5
  3
txt
  4

  0
ENDTAB
  0
TABLE
  2
VIEW
  5
6
100
AcDbSymbolTable
 70
0
  0
ENDTAB
  0
TABLE
  2
UCS
  5
7
100
AcDbSymbolTable
 70
0
  0
ENDTAB
  0
TABLE
  2
APPID
  5
9
100
AcDbSymbolTable
 70
1
  0
APPID
  5
12
100
AcDbSymbolTableRecord
100
AcDbRegAppTableRecord
  2
ACAD
 70
0
  0
ENDTAB
  0
TABLE
  2
DIMSTYLE
  5
A
100
AcDbSymbolTable
 70
1
100
AcDbDimStyleTable
 71
0
  0
DIMSTYLE
105
27
100
AcDbSymbolTableRecord
100
AcDbDimStyleTableRecord
  2
Standard
 41
0.18
 42
0.0625
 43
3.75
 44
0.18
 70
0
 73
0
 74
0
 77
1
 78
8
140
0.18
141
2.5
143
0.03937007874016
147
0.09
171
3
172
1
271
2
272
2
274
3
278
44
283
0
284
8
340
11
  0
ENDTAB
  0
TABLE
  2
BLOCK_RECORD
  5
1
100
AcDbSymbolTable
 70
1
  0
BLOCK_RECORD
  5
1F
100
AcDbSymbolTableRecord
100
AcDbBlockTableRecord
  2
*Model_Space
340
22
  0
BLOCK_RECORD
  5
1B
100
AcDbSymbolTableRecord
100
AcDbBlockTableRecord
  2
*Paper_Space
340
1E
  0
BLOCK_RECORD
  5
23
100
AcDbSymbolTableRecord
100
AcDbBlockTableRecord
  2
*Paper_Space0
340
26
  0
BLOCK_RECORD
  5
44
100
AcDbSymbolTableRecord
100
AcDbBlockTableRecord
  2
1010P
340
0
  0
BLOCK_RECORD
  5
45
100
AcDbSymbolTableRecord
100
AcDbBlockTableRecord
  2
2020P
340
0
  0
BLOCK_RECORD
  5
46
100
AcDbSymbolTableRecord
100
AcDbBlockTableRecord
  2
AVE_RENDER
340
0
  0
BLOCK_RECORD
  5
47
100
AcDbSymbolTableRecord
100
AcDbBlockTableRecord
  2
1020P
340
0
  0
BLOCK_RECORD
  5
48
100
AcDbSymbolTableRecord
100
AcDbBlockTableRecord
  2
1010
340
0
  0
ENDTAB
  0
ENDSEC
  0
SECTION
  2
BLOCKS
  0
BLOCK
  5
20
100
AcDbEntity
  8
0
100
AcDbBlockBegin
  2
*Model_Space
 70
0
 10
0.0
 20
0.0
 30
0.0
  3
*Model_Space
  1

  0
ENDBLK
  5
21
100
AcDbEntity
  8
0
100
AcDbBlockEnd
  0
BLOCK
  5
1C
100
AcDbEntity
 67
1
  8
0
100
AcDbBlockBegin
  2
*Paper_Space
 70
0
 10
0.0
 20
0.0
 30
0.0
  3
*Paper_Space
  1

  0
ENDBLK
  5
1D
100
AcDbEntity
 67
1
  8
0
100
AcDbBlockEnd
  0
BLOCK
  5
24
100
AcDbEntity
  8
0
100
AcDbBlockBegin
  2
*Paper_Space0
 70
0
 10
0.0
 20
0.0
 30
0.0
  3
*Paper_Space0
  1

  0
ENDBLK
  5
25
100
AcDbEntity
  8
0
100
AcDbBlockEnd
  0
BLOCK
  5
49
100
AcDbEntity
  8
0
100
AcDbBlockBegin
  2
1010P
 70
0
 10
0.0
 20
0.0
 30
0.0
  3
1010P
  1

  0
ARC
  5
4A
100
AcDbEntity
  8
0
 62
256
370
-1
  6
CONTINUOUS
100
AcDbCircle
 10
1.001323
 20
0.104615
 30
0.0
 40
0.02
100
AcDbArc
 50
90.0011369999999999
 51
270.0011289999999917
  0
LINE
  5
4B
100
AcDbEntity
100
AcDbLine
  8
0
 62
256
370
-1
  6
CONTINUOUS
 10
1.001323
 20
0.084615
 30
0.0
 11
1.001323
 21
0.083949
 31
0.0
  0
ARC
  5
4C
100
AcDbEntity
  8
0
 62
256
370
-1
  6
CONTINUOUS
100
AcDbCircle
 10
0.9179890000000001
 20
0.083949
 30
0.0
 40
0.083333
100
AcDbArc
 50
270.0
 51
0.00001
  0
LINE
  5
4D
100
AcDbEntity
100
AcDbLine
  8
0
 62
256
370
-1
  6
CONTINUOUS
 10
0.9179890000000001
 20
0.000615
 30
0.0
 11
0.917323
 21
0.000615
 31
0.0
  0
ARC
  5
4E
100
AcDbEntity
  8
0
 62
256
370
-1
  6
CONTINUOUS
100
AcDbCircle
 10
0.897321
 20
0.000615
 30
0.0
 40
0.02
100
AcDbArc
 50
0.0
 51
180.0
  0
LINE
  5
4F
100
AcDbEntity
100
AcDbLine
  8
0
 62
256
370
-1
  6
CONTINUOUS
 10
0.877322
 20
0.000615
 30
0.0
 11
0.834656
 21
0.000615
 31
0.0
  0
LINE
  5
50
100
AcDbEntity
100
AcDbLine
  8
0
 62
256
370
-1
  6
CONTINUOUS
 10
0.834656
 20
0.000615
 30
0.0
 11
0.750644
 21
0.003549
 31
0.0
  0
ARC
  5
51
100
AcDbEntity
  8
0
 62
256
370
-1
  6
CONTINUOUS
100
AcDbCircle
 10
0.7306550000000001
 20
0.004247
 30
0.0
 40
0.02
100
AcDbArc
 50
358.0
 51
178.0
  0
ARC
  5
52
100
AcDbEntity
  8
0
 62
256
370
-1
  6
CONTINUOUS
100
AcDbCircle
 10
0.271985
 20
0.004247
 30
0.0
 40
0.02
100
AcDbArc
 50
2.0
 51
181.9999850000000094
  0
LINE
  5
53
100
AcDbEntity
100
AcDbLine
  8
0
 62
256
370
-1
  6
CONTINUOUS
 10
0.251998
 20
0.003549
 30
0.0
 11
0.167986
 21
0.000615
 31
0.0
  0
LINE
  5
54
100
AcDbEntity
100
AcDbLine
  8
0
 62
256
370
-1
  6
CONTINUOUS
 10
0.167986
 20
0.000615
 30
0.0
 11
0.125317
 21
0.000615
 31
0.0
  0
ARC
  5
55
100
AcDbEntity
  8
0
 62
256
370
-1
  6
CONTINUOUS
100
AcDbCircle
 10
0.105318
 20
0.000615
 30
0.0
 40
0.02
100
AcDbArc
 50
0.0
 51
180.0
  0
LINE
  5
56
100
AcDbEntity
100
AcDbLine
  8
0
 62
256
370
-1
  6
CONTINUOUS
 10
0.085319
 20
0.000615
 30
0.0
 11
0.084653
 21
0.000615
 31
0.0
  0
ARC
  5
57
100
AcDbEntity
  8
0
 62
256
370
-1
  6
CONTINUOUS
100
AcDbCircle
 10
0.084653
 20
0.083949
 30
0.0
 40
0.083333
100
AcDbArc
 50
180.0
 51
270.0
  0
LINE
  5
58
100
AcDbEntity
100
AcDbLine
  8
0
 62
256
370
-1
  6
CONTINUOUS
 10
0.001319
 20
0.083949
 30
0.0
 11
0.001319
 21
0.084615
 31
0.0
  0
ARC
  5
59
100
AcDbEntity
  8
0
 62
256
370
-1
  6
CONTINUOUS
100
AcDbCircle
 10
0.001319
 20
0.104615
 30
0.0
 40
0.02
100
AcDbArc
 50
270.0
 51
90.000007999999994
  0
LINE
  5
5A
100
AcDbEntity
100
AcDbLine
  8
0
 62
256
370
-1
  6
CONTINUOUS
 10
0.001319
 20
0.124615
 30
0.0
 11
0.001319
 21
0.167282
 31
0.0
  0
LINE
  5
5B
100
AcDbEntity
100
AcDbLine
  8
0
 62
256
370
-1
  6
CONTINUOUS
 10
0.001319
 20
0.167282
 30
0.0
 11
0.004254
 21
0.251295
 31
0.0
  0
ARC
  5
5C
100
AcDbEntity
  8
0
 62
256
370
-1
  6
CONTINUOUS
100
AcDbCircle
 10
0.004951
 20
0.271282
 30
0.0
 40
0.02
100
AcDbArc
 50
268.0
 51
88.0
  0
ARC
  5
5D
100
AcDbEntity
  8
0
 62
256
370
-1
  6
CONTINUOUS
100
AcDbCircle
 10
0.004951
 20
0.729951
 30
0.0
 40
0.02
100
AcDbArc
 50
272.0
 51
91.999992000000006
  0
LINE
  5
5E
100
AcDbEntity
100
AcDbLine
  8
0
 62
256
370
-1
  6
CONTINUOUS
 10
0.004254
 20
0.7499400000000001
 30
0.0
 11
0.001319
 21
0.833951
 31
0.0
  0
LINE
  5
5F
100
AcDbEntity
100
AcDbLine
  8
0
 62
256
370
-1
  6
CONTINUOUS
 10
0.001319
 20
0.833951
 30
0.0
 11
0.001319
 21
0.876618
 31
0.0
  0
ARC
  5
60
100
AcDbEntity
  8
0
 62
256
370
-1
  6
CONTINUOUS
100
AcDbCircle
 10
0.001319
 20
0.896617
 30
0.0
 40
0.02
100
AcDbArc
 50
270.0
 51
90.000007999999994
  0
LINE
  5
61
100
AcDbEntity
100
AcDbLine
  8
0
 62
256
370
-1
  6
CONTINUOUS
 10
0.001319
 20
0.916617
 30
0.0
 11
0.001319
 21
0.917283
 31
0.0
  0
ARC
  5
62
100
AcDbEntity
  8
0
 62
256
370
-1
  6
CONTINUOUS
100
AcDbCircle
 10
0.084653
 20
0.917283
 30
0.0
 40
0.083333
100
AcDbArc
 50
90.0011369999999999
 51
180.0011440000000107
  0
LINE
  5
63
100
AcDbEntity
100
AcDbLine
  8
0
 62
256
370
-1
  6
CONTINUOUS
 10
0.084653
 20
1.000615
 30
0.0
 11
0.085319
 21
1.000615
 31
0.0
  0
ARC
  5
64
100
AcDbEntity
  8
0
 62
256
370
-1
  6
CONTINUOUS
100
AcDbCircle
 10
0.105318
 20
1.000615
 30
0.0
 40
0.02
100
AcDbArc
 50
180.0
 51
0.0
  0
LINE
  5
65
100
AcDbEntity
100
AcDbLine
  8
0
 62
256
370
-1
  6
CONTINUOUS
 10
0.125317
 20
1.000615
 30
0.0
 11
0.167986
 21
1.000615
 31
0.0
  0
LINE
  5
66
100
AcDbEntity
100
AcDbLine
  8
0
 62
256
370
-1
  6
CONTINUOUS
 10
0.167986
 20
1.000615
 30
0.0
 11
0.251998
 21
0.997682
 31
0.0
  0
ARC
  5
67
100
AcDbEntity
  8
0
 62
256
370
-1
  6
CONTINUOUS
100
AcDbCircle
 10
0.271985
 20
0.996984
 30
0.0
 40
0.02
100
AcDbArc
 50
178.0
 51
358.0
  0
ARC
  5
68
100
AcDbEntity
  8
0
 62
256
370
-1
  6
CONTINUOUS
100
AcDbCircle
 10
0.7306550000000001
 20
0.996984
 30
0.0
 40
0.02
100
AcDbArc
 50
182.0
 51
1.9999990000000001
  0
LINE
  5
69
100
AcDbEntity
100
AcDbLine
  8
0
 62
256
370
-1
  6
CONTINUOUS
 10
0.750644
 20
0.997682
 30
0.0
 11
0.834656
 21
1.000615
 31
0.0
  0
LINE
  5
6A
100
AcDbEntity
100
AcDbLine
  8
0
 62
256
370
-1
  6
CONTINUOUS
 10
0.834656
 20
1.000615
 30
0.0
 11
0.877322
 21
1.000615
 31
0.0
  0
ARC
  5
6B
100
AcDbEntity
  8
0
 62
256
370
-1
  6
CONTINUOUS
100
AcDbCircle
 10
0.897321
 20
1.000615
 30
0.0
 40
0.02
100
AcDbArc
 50
180.0
 51
0.0
  0
LINE
  5
6C
100
AcDbEntity
100
AcDbLine
  8
0
 62
256
370
-1
  6
CONTINUOUS
 10
0.917323
 20
1.000615
 30
0.0
 11
0.9179890000000001
 21
1.000615
 31
0.0
  0
ARC
  5
6D
100
AcDbEntity
  8
0
 62
256
370
-1
  6
CONTINUOUS
100
AcDbCircle
 10
0.9179890000000001
 20
0.917283
 30
0.0
 40
0.083333
100
AcDbArc
 50
0.0
 51
90.0
  0
LINE
  5
6E
100
AcDbEntity
100
AcDbLine
  8
0
 62
256
370
-1
  6
CONTINUOUS
 10
1.001323
 20
0.917283
 30
0.0
 11
1.001323
 21
0.916617
 31
0.0
  0
ARC
  5
6F
100
AcDbEntity
  8
0
 62
256
370
-1
  6
CONTINUOUS
100
AcDbCircle
 10
1.001323
 20
0.896617
 30
0.0
 40
0.02
100
AcDbArc
 50
90.0011369999999999
 51
270.0011289999999917
  0
LINE
  5
70
100
AcDbEntity
100
AcDbLine
  8
0
 62
256
370
-1
  6
CONTINUOUS
 10
1.001323
 20
0.876618
 30
0.0
 11
1.001323
 21
0.833951
 31
0.0
  0
LINE
  5
71
100
AcDbEntity
100
AcDbLine
  8
0
 62
256
370
-1
  6
CONTINUOUS
 10
1.001323
 20
0.833951
 30
0.0
 11
0.9983880000000001
 21
0.7499400000000001
 31
0.0
  0
ARC
  5
72
100
AcDbEntity
  8
0
 62
256
370
-1
  6
CONTINUOUS
100
AcDbCircle
 10
0.997691
 20
0.729951
 30
0.0
 40
0.02
100
AcDbArc
 50
88.0
 51
268.0000309999999786
  0
ARC
  5
73
100
AcDbEntity
  8
0
 62
256
370
-1
  6
CONTINUOUS
100
AcDbCircle
 10
0.997691
 20
0.271282
 30
0.0
 40
0.02
100
AcDbArc
 50
92.0011290000000059
 51
272.0011289999999917
  0
LINE
  5
74
100
AcDbEntity
100
AcDbLine
  8
0
 62
256
370
-1
  6
CONTINUOUS
 10
0.9983880000000001
 20
0.251295
 30
0.0
 11
1.001323
 21
0.167282
 31
0.0
  0
LINE
  5
75
100
AcDbEntity
100
AcDbLine
  8
0
 62
256
370
-1
  6
CONTINUOUS
 10
1.001323
 20
0.167282
 30
0.0
 11
1.001323
 21
0.124615
 31
0.0
  0
CIRCLE
  5
76
100
AcDbEntity
100
AcDbCircle
  8
0
 62
256
370
-1
  6
CONTINUOUS
 10
0.501321
 20
0.5006159999999999
 30
0.0
 40
0.1005
  0
ARC
  5
77
100
AcDbEntity
  8
0
 62
256
370
-1
  6
CONTINUOUS
100
AcDbCircle
 10
0.437379
 20
0.8026180000000001
 30
0.0
 40
0.125
100
AcDbArc
 50
225.0007319999999993
 51
270.0000309999999786
  0
LINE
  5
78
100
AcDbEntity
100
AcDbLine
  8
0
 62
256
370
-1
  6
CONTINUOUS
 10
0.501322
 20
0.6776180000000001
 30
0.0
 11
0.437379
 21
0.6776180000000001
 31
0.0
  0
LINE
  5
79
100
AcDbEntity
100
AcDbLine
  8
0
 62
256
370
-1
  6
CONTINUOUS
 10
0.303048
 20
0.760171
 30
0.0
 11
0.348991
 21
0.714229
 31
0.0
  0
ARC
  5
7A
100
AcDbEntity
  8
0
 62
256
370
-1
  6
CONTINUOUS
100
AcDbCircle
 10
0.198986
 20
0.564889
 30
0.0
 40
0.125
100
AcDbArc
 50
0.0
 51
44.9995380000000011
  0
LINE
  5
7B
100
AcDbEntity
100
AcDbLine
  8
0
 62
256
370
-1
  6
CONTINUOUS
 10
0.323986
 20
0.500614
 30
0.0
 11
0.323986
 21
0.564889
 31
0.0
  0
ARC
  5
7C
100
AcDbEntity
  8
0
 62
256
370
-1
  6
CONTINUOUS
100
AcDbCircle
 10
0.565263
 20
0.8026180000000001
 30
0.0
 40
0.125
100
AcDbArc
 50
270.0000309999999786
 51
315.0000309999999786
  0
LINE
  5
7D
100
AcDbEntity
100
AcDbLine
  8
0
 62
256
370
-1
  6
CONTINUOUS
 10
0.501322
 20
0.6776180000000001
 30
0.0
 11
0.565263
 21
0.6776180000000001
 31
0.0
  0
ARC
  5
7E
100
AcDbEntity
  8
0
 62
256
370
-1
  6
CONTINUOUS
100
AcDbCircle
 10
0.803655
 20
0.5648879999999999
 30
0.0
 40
0.125
100
AcDbArc
 50
135.000977000000006
 51
179.9999850000000094
  0
LINE
  5
7F
100
AcDbEntity
100
AcDbLine
  8
0
 62
256
370
-1
  6
CONTINUOUS
 10
0.678655
 20
0.500614
 30
0.0
 11
0.678655
 21
0.5648879999999999
 31
0.0
  0
ARC
  5
80
100
AcDbEntity
  8
0
 62
256
370
-1
  6
CONTINUOUS
100
AcDbCircle
 10
0.803655
 20
0.436342
 30
0.0
 40
0.125
100
AcDbArc
 50
180.000031000000007
 51
225.0000459999999975
  0
LINE
  5
81
100
AcDbEntity
100
AcDbLine
  8
0
 62
256
370
-1
  6
CONTINUOUS
 10
0.678655
 20
0.500614
 30
0.0
 11
0.678655
 21
0.436342
 31
0.0
  0
ARC
  5
82
100
AcDbEntity
  8
0
 62
256
370
-1
  6
CONTINUOUS
100
AcDbCircle
 10
0.198986
 20
0.436342
 30
0.0
 40
0.125
100
AcDbArc
 50
315.0000610000000165
 51
0.000034
  0
LINE
  5
83
100
AcDbEntity
100
AcDbLine
  8
0
 62
256
370
-1
  6
CONTINUOUS
 10
0.323986
 20
0.500614
 30
0.0
 11
0.323986
 21
0.436342
 31
0.0
  0
LINE
  5
84
100
AcDbEntity
100
AcDbLine
  8
0
 62
256
370
-1
  6
CONTINUOUS
 10
0.653652
 20
0.71423
 30
0.0
 11
0.779407
 21
0.839985
 31
0.0
  0
LINE
  5
85
100
AcDbEntity
100
AcDbLine
  8
0
 62
256
370
-1
  6
CONTINUOUS
 10
0.715267
 20
0.347953
 30
0.0
 11
0.840689
 21
0.222531
 31
0.0
  0
ARC
  5
86
100
AcDbEntity
  8
0
 62
256
370
-1
  6
CONTINUOUS
100
AcDbCircle
 10
0.437376
 20
0.198616
 30
0.0
 40
0.125
100
AcDbArc
 50
90.0002139999999997
 51
135.000518999999997
  0
LINE
  5
87
100
AcDbEntity
100
AcDbLine
  8
0
 62
256
370
-1
  6
CONTINUOUS
 10
0.223233
 20
0.161249
 30
0.0
 11
0.348987
 21
0.287004
 31
0.0
  0
LINE
  5
88
100
AcDbEntity
100
AcDbLine
  8
0
 62
256
370
-1
  6
CONTINUOUS
 10
0.501322
 20
0.323616
 30
0.0
 11
0.437376
 21
0.323616
 31
0.0
  0
ARC
  5
89
100
AcDbEntity
  8
0
 62
256
370
-1
  6
CONTINUOUS
100
AcDbCircle
 10
0.565263
 20
0.198616
 30
0.0
 40
0.125
100
AcDbArc
 50
44.9997060000000033
 51
90.000007999999994
  0
LINE
  5
8A
100
AcDbEntity
100
AcDbLine
  8
0
 62
256
370
-1
  6
CONTINUOUS
 10
0.501322
 20
0.323616
 30
0.0
 11
0.565263
 21
0.323616
 31
0.0
  0
LINE
  5
8B
100
AcDbEntity
100
AcDbLine
  8
0
 62
256
370
-1
  6
CONTINUOUS
 10
0.779405
 20
0.161249
 30
0.0
 11
0.653652
 21
0.287004
 31
0.0
  0
LINE
  5
8C
100
AcDbEntity
100
AcDbLine
  8
0
 62
256
370
-1
  6
CONTINUOUS
 10
0.287375
 20
0.653277
 30
0.0
 11
0.159116
 21
0.781538
 31
0.0
  0
LINE
  5
8D
100
AcDbEntity
100
AcDbLine
  8
0
 62
256
370
-1
  6
CONTINUOUS
 10
0.287374
 20
0.347953
 30
0.0
 11
0.159116
 21
0.219694
 31
0.0
  0
ARC
  5
8E
100
AcDbEntity
  8
0
 62
256
370
-1
  6
CONTINUOUS
100
AcDbCircle
 10
0.130831
 20
0.753254
 30
0.0
 40
0.04
100
AcDbArc
 50
44.999572999999998
 51
182.0003049999999973
  0
ARC
  5
8F
100
AcDbEntity
  8
0
 62
256
370
-1
  6
CONTINUOUS
100
AcDbCircle
 10
0.130831
 20
0.247979
 30
0.0
 40
0.04
100
AcDbArc
 50
177.9997099999999932
 51
315.0
  0
ARC
  5
90
100
AcDbEntity
  8
0
 62
256
370
-1
  6
CONTINUOUS
100
AcDbCircle
 10
0.248682
 20
0.130127
 30
0.0
 40
0.04
100
AcDbArc
 50
134.999572999999998
 51
272.0003050000000258
  0
ARC
  5
91
100
AcDbEntity
  8
0
 62
256
370
-1
  6
CONTINUOUS
100
AcDbCircle
 10
0.753958
 20
0.130127
 30
0.0
 40
0.04
100
AcDbArc
 50
267.9997250000000122
 51
45.0
  0
ARC
  5
92
100
AcDbEntity
  8
0
 62
256
370
-1
  6
CONTINUOUS
100
AcDbCircle
 10
0.87181
 20
0.247977
 30
0.0
 40
0.04
100
AcDbArc
 50
224.9995879999999886
 51
2.000327
  0
ARC
  5
93
100
AcDbEntity
  8
0
 62
256
370
-1
  6
CONTINUOUS
100
AcDbCircle
 10
0.87181
 20
0.753253
 30
0.0
 40
0.04
100
AcDbArc
 50
357.9997250000000122
 51
135.0000149999999906
  0
ARC
  5
94
100
AcDbEntity
  8
0
 62
256
370
-1
  6
CONTINUOUS
100
AcDbCircle
 10
0.753959
 20
0.871104
 30
0.0
 40
0.04
100
AcDbArc
 50
314.999572999999998
 51
92.0003200000000021
  0
ARC
  5
95
100
AcDbEntity
  8
0
 62
256
370
-1
  6
CONTINUOUS
100
AcDbCircle
 10
0.248683
 20
0.871104
 30
0.0
 40
0.04
100
AcDbArc
 50
87.9997099999999932
 51
225.0
  0
LINE
  5
96
100
AcDbEntity
100
AcDbLine
  8
0
 62
256
370
-1
  6
CONTINUOUS
 10
0.303048
 20
0.760171
 30
0.0
 11
0.2204
 21
0.842821
 31
0.0
  0
LINE
  5
97
100
AcDbEntity
100
AcDbLine
  8
0
 62
256
370
-1
  6
CONTINUOUS
 10
0.291974
 20
0.996286
 30
0.0
 11
0.333931
 21
0.994094
 31
0.0
  0
ARC
  5
98
100
AcDbEntity
  8
0
 62
256
370
-1
  6
CONTINUOUS
100
AcDbCircle
 10
0.332489
 20
0.952785
 30
0.0
 40
0.041333
100
AcDbArc
 50
0.0
 51
88.0
  0
ARC
  5
99
100
AcDbEntity
  8
0
 62
256
370
-1
  6
CONTINUOUS
100
AcDbCircle
 10
0.332489
 20
0.948833
 30
0.0
 40
0.041333
100
AcDbArc
 50
268.0000309999999786
 51
0.000037
  0
LINE
  5
9A
100
AcDbEntity
100
AcDbLine
  8
0
 62
256
370
-1
  6
CONTINUOUS
 10
0.331048
 20
0.907525
 30
0.0
 11
0.25008
 21
0.91108
 31
0.0
  0
LINE
  5
9B
100
AcDbEntity
100
AcDbLine
  8
0
 62
256
370
-1
  6
CONTINUOUS
 10
0.373822
 20
0.948834
 30
0.0
 11
0.373822
 21
0.952786
 31
0.0
  0
ARC
  5
9C
100
AcDbEntity
  8
0
 62
256
370
-1
  6
CONTINUOUS
100
AcDbCircle
 10
0.04915
 20
0.669447
 30
0.0
 40
0.041333
100
AcDbArc
 50
182.0009310000000085
 51
270.000945999999999
  0
LINE
  5
9D
100
AcDbEntity
100
AcDbLine
  8
0
 62
256
370
-1
  6
CONTINUOUS
 10
0.007842
 20
0.668003
 30
0.0
 11
0.00565
 21
0.709963
 31
0.0
  0
ARC
  5
9E
100
AcDbEntity
  8
0
 62
256
370
-1
  6
CONTINUOUS
100
AcDbCircle
 10
0.053103
 20
0.669447
 30
0.0
 40
0.041333
100
AcDbArc
 50
270.0000309999999786
 51
2.0000119999999999
  0
LINE
  5
9F
100
AcDbEntity
100
AcDbLine
  8
0
 62
256
370
-1
  6
CONTINUOUS
 10
0.053103
 20
0.628114
 30
0.0
 11
0.04915
 21
0.628114
 31
0.0
  0
LINE
  5
A0
100
AcDbEntity
100
AcDbLine
  8
0
 62
256
370
-1
  6
CONTINUOUS
 10
0.094411
 20
0.670889
 30
0.0
 11
0.090856
 21
0.751858
 31
0.0
  0
LINE
  5
A1
100
AcDbEntity
100
AcDbLine
  8
0
 62
256
370
-1
  6
CONTINUOUS
 10
0.00565
 20
0.29127
 30
0.0
 11
0.007842
 21
0.333227
 31
0.0
  0
ARC
  5
A2
100
AcDbEntity
  8
0
 62
256
370
-1
  6
CONTINUOUS
100
AcDbCircle
 10
0.04915
 20
0.331785
 30
0.0
 40
0.041333
100
AcDbArc
 50
90.0002139999999997
 51
178.0002139999999997
  0
LINE
  5
A3
100
AcDbEntity
100
AcDbLine
  8
0
 62
256
370
-1
  6
CONTINUOUS
 10
0.04915
 20
0.373121
 30
0.0
 11
0.053103
 21
0.373121
 31
0.0
  0
ARC
  5
A4
100
AcDbEntity
  8
0
 62
256
370
-1
  6
CONTINUOUS
100
AcDbCircle
 10
0.053103
 20
0.331785
 30
0.0
 40
0.041333
100
AcDbArc
 50
358.0000309999999786
 51
90.0000229999999988
  0
LINE
  5
A5
100
AcDbEntity
100
AcDbLine
  8
0
 62
256
370
-1
  6
CONTINUOUS
 10
0.094411
 20
0.330343
 30
0.0
 11
0.090856
 21
0.249375
 31
0.0
  0
ARC
  5
A6
100
AcDbEntity
  8
0
 62
256
370
-1
  6
CONTINUOUS
100
AcDbCircle
 10
0.332489
 20
0.048445
 30
0.0
 40
0.041333
100
AcDbArc
 50
272.0
 51
0.00001
  0
LINE
  5
A7
100
AcDbEntity
100
AcDbLine
  8
0
 62
256
370
-1
  6
CONTINUOUS
 10
0.333931
 20
0.007137
 30
0.0
 11
0.291974
 21
0.004945
 31
0.0
  0
ARC
  5
A8
100
AcDbEntity
  8
0
 62
256
370
-1
  6
CONTINUOUS
100
AcDbCircle
 10
0.332488
 20
0.052398
 30
0.0
 40
0.041333
100
AcDbArc
 50
0.000031
 51
92.0000150000000048
  0
LINE
  5
A9
100
AcDbEntity
100
AcDbLine
  8
0
 62
256
370
-1
  6
CONTINUOUS
 10
0.373822
 20
0.052398
 30
0.0
 11
0.373822
 21
0.048446
 31
0.0
  0
LINE
  5
AA
100
AcDbEntity
100
AcDbLine
  8
0
 62
256
370
-1
  6
CONTINUOUS
 10
0.331047
 20
0.093707
 30
0.0
 11
0.250078
 21
0.090151
 31
0.0
  0
LINE
  5
AB
100
AcDbEntity
100
AcDbLine
  8
0
 62
256
370
-1
  6
CONTINUOUS
 10
0.710668
 20
0.004945
 30
0.0
 11
0.668708
 21
0.007137
 31
0.0
  0
ARC
  5
AC
100
AcDbEntity
  8
0
 62
256
370
-1
  6
CONTINUOUS
100
AcDbCircle
 10
0.670153
 20
0.048445
 30
0.0
 40
0.041333
100
AcDbArc
 50
180.0
 51
268.0
  0
ARC
  5
AD
100
AcDbEntity
  8
0
 62
256
370
-1
  6
CONTINUOUS
100
AcDbCircle
 10
0.670152
 20
0.052398
 30
0.0
 40
0.041333
100
AcDbArc
 50
88.0000229999999988
 51
180.0000149999999906
  0
LINE
  5
AE
100
AcDbEntity
100
AcDbLine
  8
0
 62
256
370
-1
  6
CONTINUOUS
 10
0.671593
 20
0.093707
 30
0.0
 11
0.752561
 21
0.090151
 31
0.0
  0
ARC
  5
AF
100
AcDbEntity
  8
0
 62
256
370
-1
  6
CONTINUOUS
100
AcDbCircle
 10
0.953491
 20
0.331785
 30
0.0
 40
0.041333
100
AcDbArc
 50
2.0
 51
90.0
  0
LINE
  5
B0
100
AcDbEntity
100
AcDbLine
  8
0
 62
256
370
-1
  6
CONTINUOUS
 10
0.994799
 20
0.333229
 30
0.0
 11
0.996992
 21
0.29127
 31
0.0
  0
ARC
  5
B1
100
AcDbEntity
  8
0
 62
256
370
-1
  6
CONTINUOUS
100
AcDbCircle
 10
0.949539
 20
0.331784
 30
0.0
 40
0.041333
100
AcDbArc
 50
90.000243999999995
 51
182.0002289999999903
  0
LINE
  5
B2
100
AcDbEntity
100
AcDbLine
  8
0
 62
256
370
-1
  6
CONTINUOUS
 10
0.949539
 20
0.373118
 30
0.0
 11
0.953491
 21
0.373118
 31
0.0
  0
LINE
  5
B3
100
AcDbEntity
100
AcDbLine
  8
0
 62
256
370
-1
  6
CONTINUOUS
 10
0.90823
 20
0.330343
 30
0.0
 11
0.911785
 21
0.249374
 31
0.0
  0
LINE
  5
B4
100
AcDbEntity
100
AcDbLine
  8
0
 62
256
370
-1
  6
CONTINUOUS
 10
0.996992
 20
0.709963
 30
0.0
 11
0.994799
 21
0.668004
 31
0.0
  0
ARC
  5
B5
100
AcDbEntity
  8
0
 62
256
370
-1
  6
CONTINUOUS
100
AcDbCircle
 10
0.953491
 20
0.669446
 30
0.0
 40
0.041333
100
AcDbArc
 50
270.0
 51
358.0
  0
ARC
  5
B6
100
AcDbEntity
  8
0
 62
256
370
-1
  6
CONTINUOUS
100
AcDbCircle
 10
0.949539
 20
0.669447
 30
0.0
 40
0.041333
100
AcDbArc
 50
178.000031000000007
 51
270.0000309999999786
  0
LINE
  5
B7
100
AcDbEntity
100
AcDbLine
  8
0
 62
256
370
-1
  6
CONTINUOUS
 10
0.90823
 20
0.670888
 30
0.0
 11
0.911785
 21
0.751856
 31
0.0
  0
ARC
  5
B8
100
AcDbEntity
  8
0
 62
256
370
-1
  6
CONTINUOUS
100
AcDbCircle
 10
0.670107
 20
0.952785
 30
0.0
 40
0.041333
100
AcDbArc
 50
92.0011290000000059
 51
180.0011440000000107
  0
LINE
  5
B9
100
AcDbEntity
100
AcDbLine
  8
0
 62
256
370
-1
  6
CONTINUOUS
 10
0.668662
 20
0.994094
 30
0.0
 11
0.710668
 21
0.996286
 31
0.0
  0
ARC
  5
BA
100
AcDbEntity
  8
0
 62
256
370
-1
  6
CONTINUOUS
100
AcDbCircle
 10
0.670107
 20
0.948833
 30
0.0
 40
0.041333
100
AcDbArc
 50
180.000031000000007
 51
272.0000309999999786
  0
LINE
  5
BB
100
AcDbEntity
100
AcDbLine
  8
0
 62
256
370
-1
  6
CONTINUOUS
 10
0.628773
 20
0.948833
 30
0.0
 11
0.628773
 21
0.952785
 31
0.0
  0
LINE
  5
BC
100
AcDbEntity
100
AcDbLine
  8
0
 62
256
370
-1
  6
CONTINUOUS
 10
0.671548
 20
0.907525
 30
0.0
 11
0.752563
 21
0.91108
 31
0.0
  0
LINE
  5
BD
100
AcDbEntity
100
AcDbLine
  8
0
 62
256
370
-1
  6
CONTINUOUS
 10
0.628818
 20
0.052398
 30
0.0
 11
0.628819
 21
0.048445
 31
0.0
  0
LINE
  5
BE
100
AcDbEntity
100
AcDbLine
  8
0
 62
256
370
-1
  6
CONTINUOUS
 10
0.715265
 20
0.653274
 30
0.0
 11
0.8435240000000001
 21
0.781538
 31
0.0
  0
ENDBLK
  5
BF
100
AcDbEntity
  8
0
100
AcDbBlockEnd
  0
BLOCK
  5
C0
100
AcDbEntity
  8
0
100
AcDbBlockBegin
  2
2020P
 70
0
 10
0.0
 20
0.0
 30
0.0
  3
2020P
  1

  0
LWPOLYLINE
  5
C1
  8
0
 62
256
370
-1
  6
CONTINUOUS
100
AcDbEntity
100
AcDbPolyline
 90
33
 70
1
 10
0.927104
 20
1.831196
 10
0.725805
 20
1.62944
 42
0.1989120000038326
 10
0.688661
 20
1.53976699999813
 10
0.688661
 20
1.471786
 42
-0.4142139999928153
 10
0.561844
 20
1.3449679999999999
 10
0.493863
 20
1.3449679999999999
 42
0.1989119999999998
 10
0.4041890000000001
 20
1.3078240000000001
 10
0.202318
 20
1.106409
 42
0.411826
 10
0.2021999999999999
 20
0.926023
 10
0.403615
 20
0.724608
 42
0.1989120000000001
 10
0.4932879999999999
 20
0.6874639999999999
 10
0.561269
 20
0.687464
 42
-0.4142139999756774
 10
0.688086
 20
0.5606470000105312
 10
0.688086
 20
0.492666
 42
0.1989120000309658
 10
0.72523
 20
0.402992
 10
0.926986
 20
0.201237
 42
0.4139420000000001
 10
1.1064510000000001
 20
0.2012369999999999
 10
1.3082050000000001
 20
0.402991
 42
0.1989120000038319
 10
1.3453489999999999
 20
0.4926640000018698
 10
1.3453489999999999
 20
0.560647
 42
-0.4142139999756772
 10
1.4721660000000001
 20
0.6874640000000001
 10
1.5401480000000001
 20
0.687464
 42
0.1989120000000001
 10
1.629821
 20
0.7246079999999999
 10
1.8312360000000001
 20
0.926023
 42
0.4146040000000001
 10
1.8312360000000001
 20
1.1052010000000001
 10
1.629821
 20
1.306616
 42
0.1989119999999999
 10
1.5401480000000001
 20
1.3437600000000001
 10
1.4721660000000001
 20
1.3437600000000001
 42
-0.4142139999756771
 10
1.3453490000000001
 20
1.4705769999894689
 10
1.3453489999999999
 20
1.538559
 42
0.1989120000309652
 10
1.3082050000000001
 20
1.628233
 10
1.1064510000000001
 20
1.8301559999999999
 42
0.4142069999999999
 10
0.9271039999999997
 20
1.8311950000000004
 42
-16331239353195370.0
  0
LWPOLYLINE
  5
C2
  8
0
 62
256
370
-1
  6
CONTINUOUS
100
AcDbEntity
100
AcDbPolyline
 90
241
 70
1
 10
-0.000015
 20
1.949036
 42
-0.9999330000011174
 10
-0.000017
 20
1.9083460000000001
 10
-0.000017
 20
1.8644449999999999
 10
0.002967
 20
1.7789839999999999
 42
-0.9999330000000877
 10
0.004388
 20
1.7383190000000002
 10
0.006618
 20
1.674447
 42
0.4040269999999995
 10
0.048639
 20
1.6338680000000003
 10
0.073067
 20
1.6338680000000001
 42
0.4244730000000004
 10
0.115088
 20
1.6773819999999999
 10
0.111664
 20
1.775455
 42
-0.4244729999999984
 10
0.135385
 20
1.8000189999999998
 10
0.147393
 20
1.800019
 42
-0.1989119999999996
 10
0.164177
 20
1.793067
 10
0.291411
 20
1.6658329999999999
 42
-0.198913000029584
 10
0.328555
 20
1.5761599999855642
 10
0.328555
 20
1.4745630000000001
 42
-0.1989120000038326
 10
0.2914109999999999
 20
1.38489
 10
0.164177
 20
1.257655
 42
-0.1989119999999998
 10
0.147393
 20
1.2507029999999999
 10
0.134674
 20
1.2507029999999999
 42
-0.4244739999999977
 10
0.110953
 20
1.2752669999999999
 10
0.114377
 20
1.3733409999999999
 42
0.4244739999999989
 10
0.072356
 20
1.416855
 10
0.047928
 20
1.416855
 42
0.404022999999999
 10
0.005908
 20
1.3762760000000001
 10
0.003677
 20
1.312405
 42
-0.9999330000018617
 10
0.002256
 20
1.271739
 10
-0.001184
 20
1.1862779999999999
 10
-0.001184
 20
1.1428750000000001
 42
-0.9999330000010366
 10
-0.001184
 20
1.102185
 10
-0.001302
 20
0.930247
 42
-0.9999330000012182
 10
-0.001299
 20
0.8895569999999999
 10
-0.001302
 20
0.846155
 10
0.001682
 20
0.760693
 42
-0.9999329999992879
 10
0.003102
 20
0.720028
 10
0.005333
 20
0.656156
 42
0.4040230000000007
 10
0.047354
 20
0.615578
 10
0.071782
 20
0.615578
 42
0.4244749999999997
 10
0.113803
 20
0.659092
 10
0.110378
 20
0.757165
 42
-0.4244750000000009
 10
0.134099
 20
0.781729
 10
0.146818
 20
0.781729
 42
-0.1989120000000001
 10
0.163602
 20
0.774777
 10
0.290837
 20
0.647543
 42
-0.1989120000309659
 10
0.327981
 20
0.5578689999848897
 10
0.327981
 20
0.456381
 42
-0.2081100000085071
 10
0.287614
 20
0.363596
 10
0.163617
 20
0.23938
 42
-0.205112
 10
0.147393
 20
0.232413
 10
0.135385
 20
0.232413
 42
-0.424473000000001
 10
0.111664
 20
0.2569770000000001
 10
0.115088
 20
0.355051
 42
0.4244729999999999
 10
0.073067
 20
0.398564
 10
0.048638
 20
0.398564
 42
0.4040319999999993
 10
0.006617
 20
0.3579840000000001
 10
0.004388
 20
0.294114
 42
-0.9999330000010646
 10
0.002967
 20
0.253449
 10
-0.000017
 20
0.168528
 10
-0.000017
 20
0.125125
 42
-0.9999330000001401
 10
-0.000015
 20
0.084435
 42
0.4165659999999946
 10
0.084685
 20
-0.000388
 42
-0.9999330000002609
 10
0.125375
 20
-0.0004510000000014
 10
0.168202
 20
-0.000515
 10
0.253668
 20
0.002344
 42
-0.9999330000009522
 10
0.294335
 20
0.003705
 10
0.35821
 20
0.005842
 42
0.4040270000000024
 10
0.39885
 20
0.0478030000000004
 10
0.398886
 20
0.072231
 42
0.4244730000000075
 10
0.355435
 20
0.114315
 10
0.257356
 20
0.111036
 42
-0.4244730000000091
 10
0.232827
 20
0.1347930000000007
 10
0.232845
 20
0.146801
 42
-0.1989119999999965
 10
0.239822
 20
0.163574
 10
0.367243
 20
0.290081
 42
-0.198913
 10
0.456971
 20
0.327093
 10
0.558567
 20
0.326944
 42
-0.1989119999999999
 10
0.648185
 20
0.289668
 10
0.7752329999999999
 20
0.162246
 42
-0.1989119999999985
 10
0.7821599999999999
 20
0.1454520000000001
 10
0.782142
 20
0.132733
 42
-0.4244739999999984
 10
0.757543
 20
0.109048
 10
0.659474
 20
0.112617
 42
0.4244739999999956
 10
0.615899
 20
0.0706600000000006
 10
0.615863
 20
0.046232
 42
0.4040230000000131
 10
0.656379
 20
0.004152
 10
0.720248
 20
0.001827
 42
-0.999933000000125
 10
0.7609109999999999
 20
0.000347
 10
0.846368
 20
-0.002763
 10
0.8897699999999999
 20
-0.002827
 42
-0.9999330000001547
 10
0.93046
 20
-0.0028860000000014
 10
1.1014759999999999
 20
-0.003138
 42
-0.9999330000003425
 10
1.142166
 20
-0.0031950000000009
 10
1.1855690000000001
 20
-0.003261
 10
1.2710349999999999
 20
-0.000403
 42
-0.9999330000016048
 10
1.3117019999999999
 20
0.000957
 10
1.375577
 20
0.003094
 42
0.4040230000000036
 10
1.4162170000000001
 20
0.0450550000000004
 10
1.416253
 20
0.069483
 42
0.4244749999999887
 10
1.3728009999999999
 20
0.111568
 10
1.2747230000000001
 20
0.108287
 42
-0.4244750000000186
 10
1.2501930000000001
 20
0.1320450000000016
 10
1.2502120000000001
 20
0.144764
 42
-0.1989119999999942
 10
1.2571889999999999
 20
0.161537
 10
1.384611
 20
0.288585
 42
-0.198912
 10
1.4743390000000001
 20
0.325597
 10
1.5758270000000001
 20
0.325448
 42
-0.20811
 10
1.668552
 20
0.284944
 10
1.792586
 20
0.163799
 42
-0.1991429999999899
 10
1.799528
 20
0.146990000000001
 10
1.7995110000000001
 20
0.134982
 42
-0.4244730000000057
 10
1.774912
 20
0.111297
 10
1.6768430000000001
 20
0.114866
 42
0.4244729999999898
 10
1.6332669999999998
 20
0.0729090000000016
 10
1.633232
 20
0.048479
 42
0.40403200000002
 10
1.6737500000000001
 20
0.006399
 10
1.737617
 20
0.004076
 42
-0.9999329999994446
 10
1.7782799999999999
 20
0.002595
 10
1.864193
 20
-0.000515
 10
1.9075960000000001
 20
-0.000579
 42
-0.9999330000012879
 10
1.9482860000000002
 20
-0.0006359999999979
 42
0.4290749999999991
 10
2.0344820000000001
 20
0.0869289999999997
 42
-0.9999330000011214
 10
2.034484
 20
0.127619
 10
2.034484
 20
0.167987
 10
2.0314999999999999
 20
0.253449
 42
-0.9999330000000957
 10
2.0300790000000002
 20
0.294114
 10
2.0278499999999999
 20
0.357984
 42
0.4040319999999982
 10
1.9858290000000001
 20
0.398564
 10
1.9614
 20
0.398564
 42
0.4244729999999988
 10
1.9193789999999999
 20
0.3550510000000001
 10
1.922803
 20
0.256977
 42
-0.424473000000001
 10
1.8990819999999999
 20
0.232413
 10
1.8870739999999999
 20
0.232413
 42
-0.1991430000000003
 10
1.870276
 20
0.2393799999999999
 10
1.745822
 20
0.363596
 42
-0.208110000008507
 10
1.7054549999999999
 20
0.4563810000041363
 10
1.7054549999999999
 20
0.5578689999999999
 42
-0.1989120000309659
 10
1.742599
 20
0.647543
 10
1.869834
 20
0.774777
 42
-0.1989120000000003
 10
1.8866179999999999
 20
0.781729
 10
1.8993370000000001
 20
0.781729
 42
-0.4244750000000013
 10
1.9230579999999999
 20
0.757165
 10
1.9196329999999999
 20
0.659092
 42
0.4244750000000002
 10
1.961654
 20
0.615578
 10
1.9860819999999999
 20
0.615578
 42
0.4040230000000007
 10
2.0281030000000002
 20
0.656156
 10
2.0303339999999999
 20
0.720028
 42
-0.9999329999992981
 10
2.0317539999999998
 20
0.760693
 10
2.0347379999999999
 20
0.846155
 10
2.034735
 20
0.889557
 42
-0.9999330000012089
 10
2.0347379999999999
 20
0.9302469999999999
 10
2.0347379999999999
 20
1.1009770000000001
 42
-0.9999330000010455
 10
2.0347379999999999
 20
1.141667
 10
2.0347379999999999
 20
1.1850689999999999
 10
2.0317539999999998
 20
1.2705310000000001
 42
-0.9999329999992983
 10
2.0303339999999999
 20
1.311196
 10
2.0281030000000002
 20
1.375068
 42
0.4040229999999997
 10
1.9860819999999999
 20
1.415646
 10
1.961654
 20
1.415646
 42
0.4244740000000011
 10
1.9196329999999999
 20
1.372133
 10
1.9230579999999999
 20
1.2740590000000001
 42
-0.4244740000000015
 10
1.8993370000000001
 20
1.249495
 10
1.8866179999999999
 20
1.249495
 42
-0.1989120000000003
 10
1.869834
 20
1.2564470000000001
 10
1.742599
 20
1.3836820000000001
 42
-0.1989120000038323
 10
1.7054549999999999
 20
1.47335500000187
 10
1.7054549999999999
 20
1.574951
 42
-0.1989129999986674
 10
1.7425989999999998
 20
1.664625
 10
1.869834
 20
1.7918590000000001
 42
-0.1943909999999996
 10
1.8870739999999999
 20
1.7988109999999999
 10
1.8990819999999999
 20
1.7988109999999999
 42
-0.4244729999999981
 10
1.922803
 20
1.7742469999999999
 10
1.9193789999999999
 20
1.6761729999999999
 42
0.4244729999999998
 10
1.9614
 20
1.63266
 10
1.9858279999999999
 20
1.63266
 42
0.404026999999998
 10
2.0278489999999998
 20
1.6732389999999999
 10
2.0300790000000002
 20
1.7371099999999999
 42
-0.9999330000010563
 10
2.0314999999999999
 20
1.7777750000000001
 10
2.034484
 20
1.863237
 10
2.034484
 20
1.906639
 42
-1.0196290000000039
 10
2.0344820000000001
 20
1.9465429999999999
 42
0.4290780000000001
 10
1.948286
 20
2.0341079999999998
 42
-0.9999330000012879
 10
1.9075960000000003
 20
2.0340510000000016
 10
1.863737
 20
2.0339870000000002
 10
1.7782800000000001
 20
2.0308769999999998
 42
-0.9999329999994364
 10
1.7376169999999997
 20
2.0293960000000002
 10
1.6737500000000001
 20
2.0270730000000001
 42
0.40403200000002
 10
1.633232
 20
1.9849929999999971
 10
1.633267
 20
1.9605630000000001
 42
0.4283139999999984
 10
1.6768430000000001
 20
1.9193929999999999
 10
1.774912
 20
1.9229609999999999
 42
-0.4244730000000055
 10
1.7995110000000001
 20
1.8992759999999995
 10
1.799528
 20
1.8872679999999999
 42
-0.1991429999999896
 10
1.792586
 20
1.8704590000000001
 10
1.668552
 20
1.7462800000000001
 42
-0.2081100000000003
 10
1.5758270000000001
 20
1.7057769999999999
 10
1.4743390000000001
 20
1.705627
 42
-0.1989119999999999
 10
1.384611
 20
1.742639
 10
1.2571889999999999
 20
1.8696870000000001
 42
-0.1989119999999972
 10
1.2502119999999999
 20
1.8864599999999996
 10
1.2501930000000001
 20
1.899179
 42
-0.4244750000000213
 10
1.2747230000000001
 20
1.9229369999999999
 10
1.3728009999999999
 20
1.919656
 42
0.4244750000000123
 10
1.4162530000000002
 20
1.9617410000000013
 10
1.4162170000000001
 20
1.9861690000000001
 42
0.4040230000000035
 10
1.375577
 20
2.02813
 10
1.3117019999999999
 20
2.0302669999999998
 42
-0.9999330000015948
 10
1.2710349999999999
 20
2.0316269999999998
 10
1.1855690000000001
 20
2.0346540000000002
 10
1.142166
 20
2.0345879999999998
 42
-0.9999330000003425
 10
1.1014759999999999
 20
2.0345309999999999
 10
0.930578
 20
2.0353189999999999
 42
-0.9999329999996578
 10
0.8898880000000001
 20
2.0352590000000013
 10
0.846486
 20
2.0351949999999999
 10
0.761485
 20
2.0320860000000001
 42
-0.9999330000001239
 10
0.720822
 20
2.0306060000000001
 10
0.656954
 20
2.0282809999999998
 42
0.4040230000000043
 10
0.616437
 20
1.9861999999999995
 10
0.616473
 20
1.9617720000000001
 42
0.424474000000012
 10
0.660048
 20
1.919816
 10
0.758117
 20
1.923384
 42
-0.4244739999999987
 10
0.7827160000000001
 20
1.8996990000000002
 10
0.782735
 20
1.8869800000000001
 42
-0.1989119999999987
 10
0.775807
 20
1.8701859999999999
 10
0.64876
 20
1.7427649999999999
 42
-0.1989120000000001
 10
0.559141
 20
1.705489
 10
0.457545
 20
1.7053389999999999
 42
-0.1989130000000002
 10
0.3678169999999999
 20
1.7423519999999999
 10
0.240396
 20
1.869399
 42
-0.1939799999999909
 10
0.233419
 20
1.886671999999999
 10
0.233402
 20
1.898679
 42
-0.424472999999992
 10
0.257931
 20
1.922437
 10
0.356009
 20
1.919157
 42
0.424473000000008
 10
0.399461
 20
1.961242000000001
 10
0.399425
 20
1.98567
 42
0.4040269999999954
 10
0.358784
 20
2.027631
 10
0.29491
 20
2.0297670000000001
 42
-0.9999330000018206
 10
0.2542420000000001
 20
2.0311279999999998
 10
0.168777
 20
2.0339870000000002
 10
0.125375
 20
2.0339230000000001
 42
-0.9999330000001863
 10
0.084685
 20
2.0338600000000002
 42
0.4141569999999747
 10
-0.000017
 20
1.9490370000000072
 42
0.7806089999691025
  0
CIRCLE
  5
C3
100
AcDbEntity
100
AcDbCircle
  8
0
 62
256
370
-1
  6
CONTINUOUS
 10
0.5086079999999999
 20
1.5253620000000001
 30
0.0
 40
0.087144
  0
CIRCLE
  5
C4
100
AcDbEntity
100
AcDbCircle
  8
0
 62
256
370
-1
  6
CONTINUOUS
 10
0.5086079999999999
 20
0.508111
 30
0.0
 40
0.087144
  0
CIRCLE
  5
C5
100
AcDbEntity
100
AcDbCircle
  8
0
 62
256
370
-1
  6
CONTINUOUS
 10
1.5258590000000001
 20
0.508111
 30
0.0
 40
0.087144
  0
CIRCLE
  5
C6
100
AcDbEntity
100
AcDbCircle
  8
0
 62
256
370
-1
  6
CONTINUOUS
 10
1.5258590000000001
 20
1.525361
 30
0.0
 40
0.087144
  0
INSERT
  5
C7
100
AcDbEntity
100
AcDbBlockReference
  8
ASHADE
 62
1
370
-1
  6
CONTINUOUS
  2
AVE_RENDER
 10
0.0
 20
0.0
 30
0.0
  0
INSERT
  5
C8
100
AcDbEntity
100
AcDbBlockReference
  8
ASHADE
 62
3
370
-1
  6
CONTINUOUS
  2
AVE_RENDER
 10
0.0
 20
0.0
 30
0.0
  0
INSERT
  5
C9
100
AcDbEntity
100
AcDbBlockReference
  8
ASHADE
 62
4
370
-1
  6
CONTINUOUS
  2
AVE_RENDER
 10
0.0
 20
0.0
 30
0.0
  0
ENDBLK
  5
CA
100
AcDbEntity
  8
0
100
AcDbBlockEnd
  0
BLOCK
  5
CB
100
AcDbEntity
  8
0
100
AcDbBlockBegin
  2
AVE_RENDER
 70
0
 10
0.0
 20
0.0
 30
0.0
  3
AVE_RENDER
  1

  0
ENDBLK
  5
CC
100
AcDbEntity
  8
0
100
AcDbBlockEnd
  0
BLOCK
  5
CD
100
AcDbEntity
  8
0
100
AcDbBlockBegin
  2
1020P
 70
0
 10
0.0
 20
0.0
 30
0.0
  3
1020P
  1

  0
LWPOLYLINE
  5
CE
  8
0
 62
7
370
-1
  6
CONTINUOUS
100
AcDbEntity
100
AcDbPolyline
 90
180
 70
1
 10
-0.000331
 20
0.9302000000000007
 42
-0.4125419999999982
 10
0.086262
 20
1.0154700000000001
 42
1.0507179999999945
 10
0.1249020000000003
 20
1.0154730000000001
 10
0.168209
 20
1.0154730000000001
 10
0.253485
 20
1.0124949999999999
 42
0.9999329999991531
 10
0.294062
 20
1.011077
 10
0.357795
 20
1.0088509999999999
 42
-0.4040270000003875
 10
0.398285
 20
0.966921999999944
 10
0.398285
 20
0.94187
 42
-0.4244730000029284
 10
0.354866
 20
0.899941
 10
0.257006
 20
0.903357
 42
0.4244730000003628
 10
0.232495
 20
0.8796869999999708
 10
0.232495
 20
0.867706
 42
0.1989119999993131
 10
0.239432
 20
0.850959
 10
0.36639
 20
0.724
 42
0.198913
 10
0.455869
 20
0.686937
 10
0.557244
 20
0.686937
 42
0.1989119999999998
 10
0.646723
 20
0.724
 10
0.773681
 20
0.850959
 42
0.1989119999993138
 10
0.7806179999999999
 20
0.8677059999999375
 10
0.780618
 20
0.880397
 42
0.4244739999865202
 10
0.756107
 20
0.9040669999999998
 10
0.658247
 20
0.90065
 42
-0.4244739999951663
 10
0.614828
 20
0.9425789999993127
 10
0.614828
 20
0.966954
 42
-0.4040230000022114
 10
0.655318
 20
1.0088839999999999
 10
0.719051
 20
1.01111
 42
0.9999330000004273
 10
0.759628
 20
1.012527
 10
0.844904
 20
1.015504
 10
0.888212
 20
1.015504
 42
0.9999330000004786
 10
0.928814
 20
1.0155039999999831
 10
1.0993409999999999
 20
1.015504
 42
0.9999330000016998
 10
1.139942
 20
1.0155020000000112
 10
1.1832510000000001
 20
1.015504
 10
1.268526
 20
1.012527
 42
0.9999330000014023
 10
1.3091029999999999
 20
1.01111
 10
1.3728359999999999
 20
1.0088839999999999
 42
-0.4040230000008581
 10
1.413327
 20
0.9669539999998763
 10
1.413327
 20
0.9425789999999999
 42
-0.4244749999993389
 10
1.369907
 20
0.9006500000000001
 10
1.2720469999999999
 20
0.904067
 42
0.4244750000547026
 10
1.247536
 20
0.8803969999956086
 10
1.247536
 20
0.867706
 42
0.1989119999993112
 10
1.2544730000000002
 20
0.8509590000000001
 10
1.3814310000000001
 20
0.724
 42
0.1989119999999998
 10
1.4709099999999999
 20
0.6869370000000001
 10
1.5721780000000001
 20
0.686937
 42
0.2081100000000001
 10
1.6647609999999999
 20
0.727216
 10
1.788708
 20
0.850944
 42
0.1991429999997262
 10
1.7956589999999999
 20
0.867705999999975
 10
1.7956589999999999
 20
0.879687
 42
0.4244730000001826
 10
1.7711490000000001
 20
0.903357
 10
1.6732880000000001
 20
0.899941
 42
-0.4211790000000082
 10
1.629869
 20
0.9425470000000012
 10
1.629869
 20
0.966923
 42
-0.4040319999995577
 10
1.6703600000000001
 20
1.008853
 10
1.734092
 20
1.011077
 42
0.9999329999991533
 10
1.7746690000000001
 20
1.0124949999999999
 10
1.859945
 20
1.0154730000000001
 10
1.9032530000000001
 20
1.0154730000000001
 42
0.9999330000079819
 10
1.9438550000000003
 20
1.0154700000000025
 42
-0.4164139999999956
 10
2.029191
 20
0.9302400000000014
 42
0.9999329999999345
 10
2.029779
 20
0.8895979999999999
 10
2.0297149999999999
 20
0.84629
 10
2.0266120000000001
 20
0.761019
 42
0.9999330000020787
 10
2.0251350000000001
 20
0.720444
 10
2.022815
 20
0.656714
 42
-0.404023000000001
 10
1.980826
 20
0.616286
 10
1.95706
 20
0.616322
 42
-0.4244740000000014
 10
1.915195
 20
0.6598020000000001
 10
1.9187559999999999
 20
0.7576580000000001
 42
0.4244739999999989
 10
1.895122
 20
0.782204
 10
1.882431
 20
0.782222
 42
0.1989120000000009
 10
1.8656739999999998
 20
0.7753100000000002
 10
1.7385280000000001
 20
0.6485379999999999
 42
0.1989120000000091
 10
1.7013339999999999
 20
0.5591139999999956
 10
1.7011849999999999
 20
0.457739
 42
0.1989130000000291
 10
1.738116
 20
0.3682059999999999
 10
1.8648880000000001
 20
0.241062
 42
0.1989119999999999
 10
1.8816250000000001
 20
0.2341
 10
1.8936059999999999
 20
0.234082
 42
0.4244730000000004
 10
1.9173119999999999
 20
0.2585580000000001
 10
1.914039
 20
0.356424
 42
-0.4185530000000021
 10
1.9572510000000001
 20
0.399781
 10
1.9816260000000001
 20
0.399745
 42
-0.4039260000000021
 10
2.0235159999999999
 20
0.3591919999999998
 10
2.0256479999999999
 20
0.295457
 42
0.999932999999174
 10
2.0270060000000001
 20
0.2548779999999999
 10
2.0298579999999999
 20
0.169598
 10
2.029795
 20
0.12629
 42
0.9999330000004952
 10
2.0297320000000001
 20
0.085688
 42
-0.4148539999999989
 10
1.9450730000000001
 20
0.000496
 42
0.9708089999999993
 10
1.9032530000000007
 20
0.000494
 10
1.859945
 20
0.000494
 10
1.7746690000000001
 20
0.003472
 42
0.999932999999144
 10
1.734092
 20
0.00489
 10
1.6703600000000001
 20
0.007114
 42
-0.4040320000024737
 10
1.629869
 20
0.0490430000003568
 10
1.629869
 20
0.074096
 42
-0.4244729999990715
 10
1.6732880000000001
 20
0.116026
 10
1.7711490000000001
 20
0.112609
 42
0.4244730000001826
 10
1.7956589999999999
 20
0.1362790000000147
 10
1.7956589999999999
 20
0.14826
 42
0.1991430000004892
 10
1.788708
 20
0.165023
 10
1.6647609999999999
 20
0.28875
 42
0.2081100000000001
 10
1.5721780000000001
 20
0.329029
 10
1.4709099999999999
 20
0.329029
 42
0.198912
 10
1.3814310000000001
 20
0.2919660000000001
 10
1.2544729999999999
 20
0.165008
 42
0.1989120000005581
 10
1.247536
 20
0.1482599999999491
 10
1.247536
 20
0.135569
 42
0.4244750000547026
 10
1.2720469999999999
 20
0.111899
 10
1.369907
 20
0.115316
 42
-0.4244749999993389
 10
1.4133270000000002
 20
0.0733870000000941
 10
1.413327
 20
0.049012
 42
-0.4040229999996343
 10
1.3728359999999999
 20
0.007083
 10
1.3091029999999999
 20
0.004856
 42
0.9999330000014085
 10
1.268526
 20
0.003439
 10
1.1832510000000001
 20
0.000462
 10
1.139942
 20
0.000465
 42
0.9999329999921847
 10
1.0993409999999999
 20
0.0004620000003325
 10
0.928814
 20
0.000462
 42
0.9999330000004784
 10
0.888212
 20
0.0004620000000169
 10
0.844904
 20
0.000462
 10
0.759628
 20
0.003439
 42
0.999933000000426
 10
0.719051
 20
0.004856
 10
0.655318
 20
0.007083
 42
-0.4040230000253319
 10
0.6148280000000002
 20
0.0490120000036547
 10
0.614828
 20
0.073387
 42
-0.4244739999971978
 10
0.658247
 20
0.115317
 10
0.756107
 20
0.111899
 42
0.4244739999865202
 10
0.780618
 20
0.1355689999989179
 10
0.780618
 20
0.14826
 42
0.1989120000005594
 10
0.773681
 20
0.165008
 10
0.646723
 20
0.291966
 42
0.1989119999999999
 10
0.557244
 20
0.329029
 10
0.455869
 20
0.329029
 42
0.198913
 10
0.36639
 20
0.291966
 10
0.239432
 20
0.165008
 42
0.1989120000005586
 10
0.232495
 20
0.1482599999999491
 10
0.232495
 20
0.136279
 42
0.4244730000003628
 10
0.257006
 20
0.112609
 10
0.354866
 20
0.116026
 42
-0.4244729999990707
 10
0.398285
 20
0.0740960000001322
 10
0.398285
 20
0.049044
 42
-0.4040270000003875
 10
0.357795
 20
0.007115
 10
0.294062
 20
0.00489
 42
0.9999329999991438
 10
0.253485
 20
0.003472
 10
0.168209
 20
0.000494
 10
0.124902
 20
0.000494
 42
0.9999330000020854
 10
0.0843
 20
0.0004959999999826
 42
-0.4127830000000112
 10
-0.000225
 20
0.0856880000000032
 42
0.9999329999999194
 10
-0.000287
 20
0.12629
 10
-0.000351
 20
0.169598
 10
0.002502
 20
0.254878
 42
0.9999329999991964
 10
0.00386
 20
0.295457
 10
0.005992
 20
0.359192
 42
-0.4040269999999996
 10
0.047861
 20
0.399745
 10
0.072236
 20
0.399781
 42
-0.4250359999999999
 10
0.114115
 20
0.356424
 10
0.110842
 20
0.258558
 42
0.424473
 10
0.134548
 20
0.234082
 10
0.146529
 20
0.2341
 42
0.1989120000000005
 10
0.163266
 20
0.241062
 10
0.290038
 20
0.368206
 42
0.1989130000000213
 10
0.32697
 20
0.4577390000000104
 10
0.32682
 20
0.559114
 42
0.1989120000000089
 10
0.2896259999999999
 20
0.6485379999999999
 10
0.162481
 20
0.7753100000000001
 42
0.1989120000000008
 10
0.145723
 20
0.7822220000000001
 10
0.133032
 20
0.782204
 42
0.4244739999999999
 10
0.109398
 20
0.7576580000000001
 10
0.112959
 20
0.659802
 42
-0.4341419999999995
 10
0.073056
 20
0.616322
 10
0.048681
 20
0.616286
 42
-0.4040229999999992
 10
0.006692
 20
0.656714
 10
0.004372
 20
0.720444
 42
0.9999330000011059
 10
0.002895
 20
0.761019
 10
-0.000207
 20
0.84629
 10
-0.000271
 20
0.889598
 42
0.9999329999998687
  0
LWPOLYLINE
  5
CF
  8
0
 62
7
370
-1
  6
CONTINUOUS
100
AcDbEntity
100
AcDbPolyline
 90
12
 70
1
 10
0.95973
 20
0.883918
 10
0.724301
 20
0.64849
 42
0.1989129999949944
 10
0.687238
 20
0.5590110000024373
 10
0.687238
 20
0.456952
 42
0.1989110000014118
 10
0.724301
 20
0.367474
 10
0.959727
 20
0.132046
 42
0.4142140000000001
 10
1.0697800000000297
 20
0.1320449999999703
 10
1.3052060000000001
 20
0.367468
 42
0.1989140000140163
 10
1.3422700000000001
 20
0.4569470000068245
 10
1.3422700000000001
 20
0.559014
 42
0.198910999997282
 10
1.305207
 20
0.648493
 10
1.0697840000000001
 20
0.883918
 42
0.4142140000000001
  0
CIRCLE
  5
D0
100
AcDbEntity
100
AcDbCircle
  8
0
 62
7
370
-1
  6
CONTINUOUS
 10
0.507232
 20
0.507983
 30
0.0
 40
0.086955
  0
CIRCLE
  5
D1
100
AcDbEntity
100
AcDbCircle
  8
0
 62
7
370
-1
  6
CONTINUOUS
 10
1.5222739999999999
 20
0.507983
 30
0.0
 40
0.086955
  0
INSERT
  5
D2
100
AcDbEntity
100
AcDbBlockReference
  8
ASHADE
 62
1
370
-1
  6
CONTINUOUS
  2
AVE_RENDER
 10
0.0
 20
0.0
 30
0.0
  0
INSERT
  5
D3
100
AcDbEntity
100
AcDbBlockReference
  8
ASHADE
 62
3
370
-1
  6
CONTINUOUS
  2
AVE_RENDER
 10
0.0
 20
0.0
 30
0.0
  0
INSERT
  5
D4
100
AcDbEntity
100
AcDbBlockReference
  8
ASHADE
 62
4
370
-1
  6
CONTINUOUS
  2
AVE_RENDER
 10
0.0
 20
0.0
 30
0.0
  0
ENDBLK
  5
D5
100
AcDbEntity
  8
0
100
AcDbBlockEnd
  0
BLOCK
  5
D6
100
AcDbEntity
  8
0
100
AcDbBlockBegin
  2
1010
 70
0
 10
0.0
 20
0.0
 30
0.0
  3
1010
  1

  0
ARC
  5
D7
100
AcDbEntity
  8
0
 62
256
370
-1
  6
CONTINUOUS
100
AcDbCircle
 10
1.001323
 20
0.104615
 30
0.0
 40
0.02
100
AcDbArc
 50
90.0011369999999999
 51
270.0011289999999917
  0
LINE
  5
D8
100
AcDbEntity
100
AcDbLine
  8
0
 62
256
370
-1
  6
CONTINUOUS
 10
1.001323
 20
0.084615
 30
0.0
 11
1.001323
 21
0.083949
 31
0.0
  0
ARC
  5
D9
100
AcDbEntity
  8
0
 62
256
370
-1
  6
CONTINUOUS
100
AcDbCircle
 10
0.9179890000000001
 20
0.083949
 30
0.0
 40
0.083333
100
AcDbArc
 50
270.0
 51
0.00001
  0
LINE
  5
DA
100
AcDbEntity
100
AcDbLine
  8
0
 62
256
370
-1
  6
CONTINUOUS
 10
0.9179890000000001
 20
0.000615
 30
0.0
 11
0.917323
 21
0.000615
 31
0.0
  0
ARC
  5
DB
100
AcDbEntity
  8
0
 62
256
370
-1
  6
CONTINUOUS
100
AcDbCircle
 10
0.897321
 20
0.000615
 30
0.0
 40
0.02
100
AcDbArc
 50
0.0
 51
180.0
  0
LINE
  5
DC
100
AcDbEntity
100
AcDbLine
  8
0
 62
256
370
-1
  6
CONTINUOUS
 10
0.877322
 20
0.000615
 30
0.0
 11
0.834656
 21
0.000615
 31
0.0
  0
LINE
  5
DD
100
AcDbEntity
100
AcDbLine
  8
0
 62
256
370
-1
  6
CONTINUOUS
 10
0.834656
 20
0.000615
 30
0.0
 11
0.750644
 21
0.003549
 31
0.0
  0
ARC
  5
DE
100
AcDbEntity
  8
0
 62
256
370
-1
  6
CONTINUOUS
100
AcDbCircle
 10
0.7306550000000001
 20
0.004247
 30
0.0
 40
0.02
100
AcDbArc
 50
358.0
 51
178.0
  0
ARC
  5
DF
100
AcDbEntity
  8
0
 62
256
370
-1
  6
CONTINUOUS
100
AcDbCircle
 10
0.271985
 20
0.004247
 30
0.0
 40
0.02
100
AcDbArc
 50
2.0
 51
181.9999850000000094
  0
LINE
  5
E0
100
AcDbEntity
100
AcDbLine
  8
0
 62
256
370
-1
  6
CONTINUOUS
 10
0.251998
 20
0.003549
 30
0.0
 11
0.167986
 21
0.000615
 31
0.0
  0
LINE
  5
E1
100
AcDbEntity
100
AcDbLine
  8
0
 62
256
370
-1
  6
CONTINUOUS
 10
0.167986
 20
0.000615
 30
0.0
 11
0.125317
 21
0.000615
 31
0.0
  0
ARC
  5
E2
100
AcDbEntity
  8
0
 62
256
370
-1
  6
CONTINUOUS
100
AcDbCircle
 10
0.105318
 20
0.000615
 30
0.0
 40
0.02
100
AcDbArc
 50
0.0
 51
180.0
  0
LINE
  5
E3
100
AcDbEntity
100
AcDbLine
  8
0
 62
256
370
-1
  6
CONTINUOUS
 10
0.085319
 20
0.000615
 30
0.0
 11
0.084653
 21
0.000615
 31
0.0
  0
ARC
  5
E4
100
AcDbEntity
  8
0
 62
256
370
-1
  6
CONTINUOUS
100
AcDbCircle
 10
0.084653
 20
0.083949
 30
0.0
 40
0.083333
100
AcDbArc
 50
180.0
 51
270.0
  0
LINE
  5
E5
100
AcDbEntity
100
AcDbLine
  8
0
 62
256
370
-1
  6
CONTINUOUS
 10
0.001319
 20
0.083949
 30
0.0
 11
0.001319
 21
0.084615
 31
0.0
  0
ARC
  5
E6
100
AcDbEntity
  8
0
 62
256
370
-1
  6
CONTINUOUS
100
AcDbCircle
 10
0.001319
 20
0.104615
 30
0.0
 40
0.02
100
AcDbArc
 50
270.0
 51
90.000007999999994
  0
LINE
  5
E7
100
AcDbEntity
100
AcDbLine
  8
0
 62
256
370
-1
  6
CONTINUOUS
 10
0.001319
 20
0.124615
 30
0.0
 11
0.001319
 21
0.167282
 31
0.0
  0
LINE
  5
E8
100
AcDbEntity
100
AcDbLine
  8
0
 62
256
370
-1
  6
CONTINUOUS
 10
0.001319
 20
0.167282
 30
0.0
 11
0.004254
 21
0.251295
 31
0.0
  0
ARC
  5
E9
100
AcDbEntity
  8
0
 62
256
370
-1
  6
CONTINUOUS
100
AcDbCircle
 10
0.004951
 20
0.271282
 30
0.0
 40
0.02
100
AcDbArc
 50
268.0
 51
88.0
  0
ARC
  5
EA
100
AcDbEntity
  8
0
 62
256
370
-1
  6
CONTINUOUS
100
AcDbCircle
 10
0.004951
 20
0.729951
 30
0.0
 40
0.02
100
AcDbArc
 50
272.0
 51
91.999992000000006
  0
LINE
  5
EB
100
AcDbEntity
100
AcDbLine
  8
0
 62
256
370
-1
  6
CONTINUOUS
 10
0.004254
 20
0.7499400000000001
 30
0.0
 11
0.001319
 21
0.833951
 31
0.0
  0
LINE
  5
EC
100
AcDbEntity
100
AcDbLine
  8
0
 62
256
370
-1
  6
CONTINUOUS
 10
0.001319
 20
0.833951
 30
0.0
 11
0.001319
 21
0.876618
 31
0.0
  0
ARC
  5
ED
100
AcDbEntity
  8
0
 62
256
370
-1
  6
CONTINUOUS
100
AcDbCircle
 10
0.001319
 20
0.896617
 30
0.0
 40
0.02
100
AcDbArc
 50
270.0
 51
90.000007999999994
  0
LINE
  5
EE
100
AcDbEntity
100
AcDbLine
  8
0
 62
256
370
-1
  6
CONTINUOUS
 10
0.001319
 20
0.916617
 30
0.0
 11
0.001319
 21
0.917283
 31
0.0
  0
ARC
  5
EF
100
AcDbEntity
  8
0
 62
256
370
-1
  6
CONTINUOUS
100
AcDbCircle
 10
0.084653
 20
0.917283
 30
0.0
 40
0.083333
100
AcDbArc
 50
90.0011369999999999
 51
180.0011440000000107
  0
LINE
  5
F0
100
AcDbEntity
100
AcDbLine
  8
0
 62
256
370
-1
  6
CONTINUOUS
 10
0.084653
 20
1.000615
 30
0.0
 11
0.085319
 21
1.000615
 31
0.0
  0
ARC
  5
F1
100
AcDbEntity
  8
0
 62
256
370
-1
  6
CONTINUOUS
100
AcDbCircle
 10
0.105318
 20
1.000615
 30
0.0
 40
0.02
100
AcDbArc
 50
180.0
 51
0.0
  0
LINE
  5
F2
100
AcDbEntity
100
AcDbLine
  8
0
 62
256
370
-1
  6
CONTINUOUS
 10
0.125317
 20
1.000615
 30
0.0
 11
0.167986
 21
1.000615
 31
0.0
  0
LINE
  5
F3
100
AcDbEntity
100
AcDbLine
  8
0
 62
256
370
-1
  6
CONTINUOUS
 10
0.167986
 20
1.000615
 30
0.0
 11
0.251998
 21
0.997682
 31
0.0
  0
ARC
  5
F4
100
AcDbEntity
  8
0
 62
256
370
-1
  6
CONTINUOUS
100
AcDbCircle
 10
0.271985
 20
0.996984
 30
0.0
 40
0.02
100
AcDbArc
 50
178.0
 51
358.0
  0
ARC
  5
F5
100
AcDbEntity
  8
0
 62
256
370
-1
  6
CONTINUOUS
100
AcDbCircle
 10
0.7306550000000001
 20
0.996984
 30
0.0
 40
0.02
100
AcDbArc
 50
182.0
 51
1.9999990000000001
  0
LINE
  5
F6
100
AcDbEntity
100
AcDbLine
  8
0
 62
256
370
-1
  6
CONTINUOUS
 10
0.750644
 20
0.997682
 30
0.0
 11
0.834656
 21
1.000615
 31
0.0
  0
LINE
  5
F7
100
AcDbEntity
100
AcDbLine
  8
0
 62
256
370
-1
  6
CONTINUOUS
 10
0.834656
 20
1.000615
 30
0.0
 11
0.877322
 21
1.000615
 31
0.0
  0
ARC
  5
F8
100
AcDbEntity
  8
0
 62
256
370
-1
  6
CONTINUOUS
100
AcDbCircle
 10
0.897321
 20
1.000615
 30
0.0
 40
0.02
100
AcDbArc
 50
180.0
 51
0.0
  0
LINE
  5
F9
100
AcDbEntity
100
AcDbLine
  8
0
 62
256
370
-1
  6
CONTINUOUS
 10
0.917323
 20
1.000615
 30
0.0
 11
0.9179890000000001
 21
1.000615
 31
0.0
  0
ARC
  5
FA
100
AcDbEntity
  8
0
 62
256
370
-1
  6
CONTINUOUS
100
AcDbCircle
 10
0.9179890000000001
 20
0.917283
 30
0.0
 40
0.083333
100
AcDbArc
 50
0.0
 51
90.0
  0
LINE
  5
FB
100
AcDbEntity
100
AcDbLine
  8
0
 62
256
370
-1
  6
CONTINUOUS
 10
1.001323
 20
0.917283
 30
0.0
 11
1.001323
 21
0.916617
 31
0.0
  0
ARC
  5
FC
100
AcDbEntity
  8
0
 62
256
370
-1
  6
CONTINUOUS
100
AcDbCircle
 10
1.001323
 20
0.896617
 30
0.0
 40
0.02
100
AcDbArc
 50
90.0011369999999999
 51
270.0011289999999917
  0
LINE
  5
FD
100
AcDbEntity
100
AcDbLine
  8
0
 62
256
370
-1
  6
CONTINUOUS
 10
1.001323
 20
0.876618
 30
0.0
 11
1.001323
 21
0.833951
 31
0.0
  0
LINE
  5
FE
100
AcDbEntity
100
AcDbLine
  8
0
 62
256
370
-1
  6
CONTINUOUS
 10
1.001323
 20
0.833951
 30
0.0
 11
0.9983880000000001
 21
0.7499400000000001
 31
0.0
  0
ARC
  5
FF
100
AcDbEntity
  8
0
 62
256
370
-1
  6
CONTINUOUS
100
AcDbCircle
 10
0.997691
 20
0.729951
 30
0.0
 40
0.02
100
AcDbArc
 50
88.0
 51
268.0000309999999786
  0
ARC
  5
100
100
AcDbEntity
  8
0
 62
256
370
-1
  6
CONTINUOUS
100
AcDbCircle
 10
0.997691
 20
0.271282
 30
0.0
 40
0.02
100
AcDbArc
 50
92.0011290000000059
 51
272.0011289999999917
  0
LINE
  5
101
100
AcDbEntity
100
AcDbLine
  8
0
 62
256
370
-1
  6
CONTINUOUS
 10
0.9983880000000001
 20
0.251295
 30
0.0
 11
1.001323
 21
0.167282
 31
0.0
  0
LINE
  5
102
100
AcDbEntity
100
AcDbLine
  8
0
 62
256
370
-1
  6
CONTINUOUS
 10
1.001323
 20
0.167282
 30
0.0
 11
1.001323
 21
0.124615
 31
0.0
  0
CIRCLE
  5
103
100
AcDbEntity
100
AcDbCircle
  8
0
 62
256
370
-1
  6
CONTINUOUS
 10
0.501321
 20
0.5006159999999999
 30
0.0
 40
0.1005
  0
ARC
  5
104
100
AcDbEntity
  8
0
 62
256
370
-1
  6
CONTINUOUS
100
AcDbCircle
 10
0.437379
 20
0.8026180000000001
 30
0.0
 40
0.125
100
AcDbArc
 50
225.0007319999999993
 51
270.0000309999999786
  0
LINE
  5
105
100
AcDbEntity
100
AcDbLine
  8
0
 62
256
370
-1
  6
CONTINUOUS
 10
0.501322
 20
0.6776180000000001
 30
0.0
 11
0.437379
 21
0.6776180000000001
 31
0.0
  0
LINE
  5
106
100
AcDbEntity
100
AcDbLine
  8
0
 62
256
370
-1
  6
CONTINUOUS
 10
0.303048
 20
0.760171
 30
0.0
 11
0.348991
 21
0.714229
 31
0.0
  0
ARC
  5
107
100
AcDbEntity
  8
0
 62
256
370
-1
  6
CONTINUOUS
100
AcDbCircle
 10
0.198986
 20
0.564889
 30
0.0
 40
0.125
100
AcDbArc
 50
0.0
 51
44.9995380000000011
  0
LINE
  5
108
100
AcDbEntity
100
AcDbLine
  8
0
 62
256
370
-1
  6
CONTINUOUS
 10
0.323986
 20
0.500614
 30
0.0
 11
0.323986
 21
0.564889
 31
0.0
  0
ARC
  5
109
100
AcDbEntity
  8
0
 62
256
370
-1
  6
CONTINUOUS
100
AcDbCircle
 10
0.565263
 20
0.8026180000000001
 30
0.0
 40
0.125
100
AcDbArc
 50
270.0000309999999786
 51
315.0000309999999786
  0
LINE
  5
10A
100
AcDbEntity
100
AcDbLine
  8
0
 62
256
370
-1
  6
CONTINUOUS
 10
0.501322
 20
0.6776180000000001
 30
0.0
 11
0.565263
 21
0.6776180000000001
 31
0.0
  0
ARC
  5
10B
100
AcDbEntity
  8
0
 62
256
370
-1
  6
CONTINUOUS
100
AcDbCircle
 10
0.803655
 20
0.5648879999999999
 30
0.0
 40
0.125
100
AcDbArc
 50
135.000977000000006
 51
179.9999850000000094
  0
LINE
  5
10C
100
AcDbEntity
100
AcDbLine
  8
0
 62
256
370
-1
  6
CONTINUOUS
 10
0.678655
 20
0.500614
 30
0.0
 11
0.678655
 21
0.5648879999999999
 31
0.0
  0
ARC
  5
10D
100
AcDbEntity
  8
0
 62
256
370
-1
  6
CONTINUOUS
100
AcDbCircle
 10
0.803655
 20
0.436342
 30
0.0
 40
0.125
100
AcDbArc
 50
180.000031000000007
 51
225.0000459999999975
  0
LINE
  5
10E
100
AcDbEntity
100
AcDbLine
  8
0
 62
256
370
-1
  6
CONTINUOUS
 10
0.678655
 20
0.500614
 30
0.0
 11
0.678655
 21
0.436342
 31
0.0
  0
ARC
  5
10F
100
AcDbEntity
  8
0
 62
256
370
-1
  6
CONTINUOUS
100
AcDbCircle
 10
0.198986
 20
0.436342
 30
0.0
 40
0.125
100
AcDbArc
 50
315.0000610000000165
 51
0.000034
  0
LINE
  5
110
100
AcDbEntity
100
AcDbLine
  8
0
 62
256
370
-1
  6
CONTINUOUS
 10
0.323986
 20
0.500614
 30
0.0
 11
0.323986
 21
0.436342
 31
0.0
  0
LINE
  5
111
100
AcDbEntity
100
AcDbLine
  8
0
 62
256
370
-1
  6
CONTINUOUS
 10
0.653652
 20
0.71423
 30
0.0
 11
0.779407
 21
0.839985
 31
0.0
  0
LINE
  5
112
100
AcDbEntity
100
AcDbLine
  8
0
 62
256
370
-1
  6
CONTINUOUS
 10
0.715267
 20
0.347953
 30
0.0
 11
0.840689
 21
0.222531
 31
0.0
  0
ARC
  5
113
100
AcDbEntity
  8
0
 62
256
370
-1
  6
CONTINUOUS
100
AcDbCircle
 10
0.437376
 20
0.198616
 30
0.0
 40
0.125
100
AcDbArc
 50
90.0002139999999997
 51
135.000518999999997
  0
LINE
  5
114
100
AcDbEntity
100
AcDbLine
  8
0
 62
256
370
-1
  6
CONTINUOUS
 10
0.223233
 20
0.161249
 30
0.0
 11
0.348987
 21
0.287004
 31
0.0
  0
LINE
  5
115
100
AcDbEntity
100
AcDbLine
  8
0
 62
256
370
-1
  6
CONTINUOUS
 10
0.501322
 20
0.323616
 30
0.0
 11
0.437376
 21
0.323616
 31
0.0
  0
ARC
  5
116
100
AcDbEntity
  8
0
 62
256
370
-1
  6
CONTINUOUS
100
AcDbCircle
 10
0.565263
 20
0.198616
 30
0.0
 40
0.125
100
AcDbArc
 50
44.9997060000000033
 51
90.000007999999994
  0
LINE
  5
117
100
AcDbEntity
100
AcDbLine
  8
0
 62
256
370
-1
  6
CONTINUOUS
 10
0.501322
 20
0.323616
 30
0.0
 11
0.565263
 21
0.323616
 31
0.0
  0
LINE
  5
118
100
AcDbEntity
100
AcDbLine
  8
0
 62
256
370
-1
  6
CONTINUOUS
 10
0.779405
 20
0.161249
 30
0.0
 11
0.653652
 21
0.287004
 31
0.0
  0
LINE
  5
119
100
AcDbEntity
100
AcDbLine
  8
0
 62
256
370
-1
  6
CONTINUOUS
 10
0.287375
 20
0.653277
 30
0.0
 11
0.159116
 21
0.781538
 31
0.0
  0
LINE
  5
11A
100
AcDbEntity
100
AcDbLine
  8
0
 62
256
370
-1
  6
CONTINUOUS
 10
0.287374
 20
0.347953
 30
0.0
 11
0.159116
 21
0.219694
 31
0.0
  0
ARC
  5
11B
100
AcDbEntity
  8
0
 62
256
370
-1
  6
CONTINUOUS
100
AcDbCircle
 10
0.130831
 20
0.753254
 30
0.0
 40
0.04
100
AcDbArc
 50
44.999572999999998
 51
182.0003049999999973
  0
ARC
  5
11C
100
AcDbEntity
  8
0
 62
256
370
-1
  6
CONTINUOUS
100
AcDbCircle
 10
0.130831
 20
0.247979
 30
0.0
 40
0.04
100
AcDbArc
 50
177.9997099999999932
 51
315.0
  0
ARC
  5
11D
100
AcDbEntity
  8
0
 62
256
370
-1
  6
CONTINUOUS
100
AcDbCircle
 10
0.248682
 20
0.130127
 30
0.0
 40
0.04
100
AcDbArc
 50
134.999572999999998
 51
272.0003050000000258
  0
ARC
  5
11E
100
AcDbEntity
  8
0
 62
256
370
-1
  6
CONTINUOUS
100
AcDbCircle
 10
0.753958
 20
0.130127
 30
0.0
 40
0.04
100
AcDbArc
 50
267.9997250000000122
 51
45.0
  0
ARC
  5
11F
100
AcDbEntity
  8
0
 62
256
370
-1
  6
CONTINUOUS
100
AcDbCircle
 10
0.87181
 20
0.247977
 30
0.0
 40
0.04
100
AcDbArc
 50
224.9995879999999886
 51
2.000327
  0
ARC
  5
120
100
AcDbEntity
  8
0
 62
256
370
-1
  6
CONTINUOUS
100
AcDbCircle
 10
0.87181
 20
0.753253
 30
0.0
 40
0.04
100
AcDbArc
 50
357.9997250000000122
 51
135.0000149999999906
  0
ARC
  5
121
100
AcDbEntity
  8
0
 62
256
370
-1
  6
CONTINUOUS
100
AcDbCircle
 10
0.753959
 20
0.871104
 30
0.0
 40
0.04
100
AcDbArc
 50
314.999572999999998
 51
92.0003200000000021
  0
ARC
  5
122
100
AcDbEntity
  8
0
 62
256
370
-1
  6
CONTINUOUS
100
AcDbCircle
 10
0.248683
 20
0.871104
 30
0.0
 40
0.04
100
AcDbArc
 50
87.9997099999999932
 51
225.0
  0
LINE
  5
123
100
AcDbEntity
100
AcDbLine
  8
0
 62
256
370
-1
  6
CONTINUOUS
 10
0.303048
 20
0.760171
 30
0.0
 11
0.2204
 21
0.842821
 31
0.0
  0
LINE
  5
124
100
AcDbEntity
100
AcDbLine
  8
0
 62
256
370
-1
  6
CONTINUOUS
 10
0.291974
 20
0.996286
 30
0.0
 11
0.333931
 21
0.994094
 31
0.0
  0
ARC
  5
125
100
AcDbEntity
  8
0
 62
256
370
-1
  6
CONTINUOUS
100
AcDbCircle
 10
0.332489
 20
0.952785
 30
0.0
 40
0.041333
100
AcDbArc
 50
0.0
 51
88.0
  0
ARC
  5
126
100
AcDbEntity
  8
0
 62
256
370
-1
  6
CONTINUOUS
100
AcDbCircle
 10
0.332489
 20
0.948833
 30
0.0
 40
0.041333
100
AcDbArc
 50
268.0000309999999786
 51
0.000037
  0
LINE
  5
127
100
AcDbEntity
100
AcDbLine
  8
0
 62
256
370
-1
  6
CONTINUOUS
 10
0.331048
 20
0.907525
 30
0.0
 11
0.25008
 21
0.91108
 31
0.0
  0
LINE
  5
128
100
AcDbEntity
100
AcDbLine
  8
0
 62
256
370
-1
  6
CONTINUOUS
 10
0.373822
 20
0.948834
 30
0.0
 11
0.373822
 21
0.952786
 31
0.0
  0
ARC
  5
129
100
AcDbEntity
  8
0
 62
256
370
-1
  6
CONTINUOUS
100
AcDbCircle
 10
0.04915
 20
0.669447
 30
0.0
 40
0.041333
100
AcDbArc
 50
182.0009310000000085
 51
270.000945999999999
  0
LINE
  5
12A
100
AcDbEntity
100
AcDbLine
  8
0
 62
256
370
-1
  6
CONTINUOUS
 10
0.007842
 20
0.668003
 30
0.0
 11
0.00565
 21
0.709963
 31
0.0
  0
ARC
  5
12B
100
AcDbEntity
  8
0
 62
256
370
-1
  6
CONTINUOUS
100
AcDbCircle
 10
0.053103
 20
0.669447
 30
0.0
 40
0.041333
100
AcDbArc
 50
270.0000309999999786
 51
2.0000119999999999
  0
LINE
  5
12C
100
AcDbEntity
100
AcDbLine
  8
0
 62
256
370
-1
  6
CONTINUOUS
 10
0.053103
 20
0.628114
 30
0.0
 11
0.04915
 21
0.628114
 31
0.0
  0
LINE
  5
12D
100
AcDbEntity
100
AcDbLine
  8
0
 62
256
370
-1
  6
CONTINUOUS
 10
0.094411
 20
0.670889
 30
0.0
 11
0.090856
 21
0.751858
 31
0.0
  0
LINE
  5
12E
100
AcDbEntity
100
AcDbLine
  8
0
 62
256
370
-1
  6
CONTINUOUS
 10
0.00565
 20
0.29127
 30
0.0
 11
0.007842
 21
0.333227
 31
0.0
  0
ARC
  5
12F
100
AcDbEntity
  8
0
 62
256
370
-1
  6
CONTINUOUS
100
AcDbCircle
 10
0.04915
 20
0.331785
 30
0.0
 40
0.041333
100
AcDbArc
 50
90.0002139999999997
 51
178.0002139999999997
  0
LINE
  5
130
100
AcDbEntity
100
AcDbLine
  8
0
 62
256
370
-1
  6
CONTINUOUS
 10
0.04915
 20
0.373121
 30
0.0
 11
0.053103
 21
0.373121
 31
0.0
  0
ARC
  5
131
100
AcDbEntity
  8
0
 62
256
370
-1
  6
CONTINUOUS
100
AcDbCircle
 10
0.053103
 20
0.331785
 30
0.0
 40
0.041333
100
AcDbArc
 50
358.0000309999999786
 51
90.0000229999999988
  0
LINE
  5
132
100
AcDbEntity
100
AcDbLine
  8
0
 62
256
370
-1
  6
CONTINUOUS
 10
0.094411
 20
0.330343
 30
0.0
 11
0.090856
 21
0.249375
 31
0.0
  0
ARC
  5
133
100
AcDbEntity
  8
0
 62
256
370
-1
  6
CONTINUOUS
100
AcDbCircle
 10
0.332489
 20
0.048445
 30
0.0
 40
0.041333
100
AcDbArc
 50
272.0
 51
0.00001
  0
LINE
  5
134
100
AcDbEntity
100
AcDbLine
  8
0
 62
256
370
-1
  6
CONTINUOUS
 10
0.333931
 20
0.007137
 30
0.0
 11
0.291974
 21
0.004945
 31
0.0
  0
ARC
  5
135
100
AcDbEntity
  8
0
 62
256
370
-1
  6
CONTINUOUS
100
AcDbCircle
 10
0.332488
 20
0.052398
 30
0.0
 40
0.041333
100
AcDbArc
 50
0.000031
 51
92.0000150000000048
  0
LINE
  5
136
100
AcDbEntity
100
AcDbLine
  8
0
 62
256
370
-1
  6
CONTINUOUS
 10
0.373822
 20
0.052398
 30
0.0
 11
0.373822
 21
0.048446
 31
0.0
  0
LINE
  5
137
100
AcDbEntity
100
AcDbLine
  8
0
 62
256
370
-1
  6
CONTINUOUS
 10
0.331047
 20
0.093707
 30
0.0
 11
0.250078
 21
0.090151
 31
0.0
  0
LINE
  5
138
100
AcDbEntity
100
AcDbLine
  8
0
 62
256
370
-1
  6
CONTINUOUS
 10
0.710668
 20
0.004945
 30
0.0
 11
0.668708
 21
0.007137
 31
0.0
  0
ARC
  5
139
100
AcDbEntity
  8
0
 62
256
370
-1
  6
CONTINUOUS
100
AcDbCircle
 10
0.670153
 20
0.048445
 30
0.0
 40
0.041333
100
AcDbArc
 50
180.0
 51
268.0
  0
ARC
  5
13A
100
AcDbEntity
  8
0
 62
256
370
-1
  6
CONTINUOUS
100
AcDbCircle
 10
0.670152
 20
0.052398
 30
0.0
 40
0.041333
100
AcDbArc
 50
88.0000229999999988
 51
180.0000149999999906
  0
LINE
  5
13B
100
AcDbEntity
100
AcDbLine
  8
0
 62
256
370
-1
  6
CONTINUOUS
 10
0.671593
 20
0.093707
 30
0.0
 11
0.752561
 21
0.090151
 31
0.0
  0
ARC
  5
13C
100
AcDbEntity
  8
0
 62
256
370
-1
  6
CONTINUOUS
100
AcDbCircle
 10
0.953491
 20
0.331785
 30
0.0
 40
0.041333
100
AcDbArc
 50
2.0
 51
90.0
  0
LINE
  5
13D
100
AcDbEntity
100
AcDbLine
  8
0
 62
256
370
-1
  6
CONTINUOUS
 10
0.994799
 20
0.333229
 30
0.0
 11
0.996992
 21
0.29127
 31
0.0
  0
ARC
  5
13E
100
AcDbEntity
  8
0
 62
256
370
-1
  6
CONTINUOUS
100
AcDbCircle
 10
0.949539
 20
0.331784
 30
0.0
 40
0.041333
100
AcDbArc
 50
90.000243999999995
 51
182.0002289999999903
  0
LINE
  5
13F
100
AcDbEntity
100
AcDbLine
  8
0
 62
256
370
-1
  6
CONTINUOUS
 10
0.949539
 20
0.373118
 30
0.0
 11
0.953491
 21
0.373118
 31
0.0
  0
LINE
  5
140
100
AcDbEntity
100
AcDbLine
  8
0
 62
256
370
-1
  6
CONTINUOUS
 10
0.90823
 20
0.330343
 30
0.0
 11
0.911785
 21
0.249374
 31
0.0
  0
LINE
  5
141
100
AcDbEntity
100
AcDbLine
  8
0
 62
256
370
-1
  6
CONTINUOUS
 10
0.996992
 20
0.709963
 30
0.0
 11
0.994799
 21
0.668004
 31
0.0
  0
ARC
  5
142
100
AcDbEntity
  8
0
 62
256
370
-1
  6
CONTINUOUS
100
AcDbCircle
 10
0.953491
 20
0.669446
 30
0.0
 40
0.041333
100
AcDbArc
 50
270.0
 51
358.0
  0
ARC
  5
143
100
AcDbEntity
  8
0
 62
256
370
-1
  6
CONTINUOUS
100
AcDbCircle
 10
0.949539
 20
0.669447
 30
0.0
 40
0.041333
100
AcDbArc
 50
178.000031000000007
 51
270.0000309999999786
  0
LINE
  5
144
100
AcDbEntity
100
AcDbLine
  8
0
 62
256
370
-1
  6
CONTINUOUS
 10
0.90823
 20
0.670888
 30
0.0
 11
0.911785
 21
0.751856
 31
0.0
  0
ARC
  5
145
100
AcDbEntity
  8
0
 62
256
370
-1
  6
CONTINUOUS
100
AcDbCircle
 10
0.670107
 20
0.952785
 30
0.0
 40
0.041333
100
AcDbArc
 50
92.0011290000000059
 51
180.0011440000000107
  0
LINE
  5
146
100
AcDbEntity
100
AcDbLine
  8
0
 62
256
370
-1
  6
CONTINUOUS
 10
0.668662
 20
0.994094
 30
0.0
 11
0.710668
 21
0.996286
 31
0.0
  0
ARC
  5
147
100
AcDbEntity
  8
0
 62
256
370
-1
  6
CONTINUOUS
100
AcDbCircle
 10
0.670107
 20
0.948833
 30
0.0
 40
0.041333
100
AcDbArc
 50
180.000031000000007
 51
272.0000309999999786
  0
LINE
  5
148
100
AcDbEntity
100
AcDbLine
  8
0
 62
256
370
-1
  6
CONTINUOUS
 10
0.628773
 20
0.948833
 30
0.0
 11
0.628773
 21
0.952785
 31
0.0
  0
LINE
  5
149
100
AcDbEntity
100
AcDbLine
  8
0
 62
256
370
-1
  6
CONTINUOUS
 10
0.671548
 20
0.907525
 30
0.0
 11
0.752563
 21
0.91108
 31
0.0
  0
LINE
  5
14A
100
AcDbEntity
100
AcDbLine
  8
0
 62
256
370
-1
  6
CONTINUOUS
 10
0.628818
 20
0.052398
 30
0.0
 11
0.628819
 21
0.048445
 31
0.0
  0
LINE
  5
14B
100
AcDbEntity
100
AcDbLine
  8
0
 62
256
370
-1
  6
CONTINUOUS
 10
0.715265
 20
0.653274
 30
0.0
 11
0.8435240000000001
 21
0.781538
 31
0.0
  0
LINE
  5
14C
100
AcDbEntity
100
AcDbLine
  8
0
 62
256
370
-1
  6
CONTINUOUS
 10
0.001319
 20
1.142253
 30
0.0
 11
1.001322
 21
1.142253
 31
0.0
  0
LINE
  5
14D
100
AcDbEntity
100
AcDbLine
  8
0
 62
256
370
-1
  6
CONTINUOUS
 10
0.001319
 20
1.142253
 30
0.0
 11
0.001319
 21
2.1422539999999999
 31
0.0
  0
LINE
  5
14E
100
AcDbEntity
100
AcDbLine
  8
0
 62
256
370
-1
  6
CONTINUOUS
 10
0.085318
 20
1.142253
 30
0.0
 11
0.085318
 21
2.1422539999999999
 31
0.0
  0
LINE
  5
14F
100
AcDbEntity
100
AcDbLine
  8
0
 62
256
370
-1
  6
CONTINUOUS
 10
0.125318
 20
1.142253
 30
0.0
 11
0.125318
 21
2.1422539999999999
 31
0.0
  0
LINE
  5
150
100
AcDbEntity
100
AcDbLine
  8
0
 62
256
370
-1
  6
CONTINUOUS
 10
0.252317
 20
1.142253
 30
0.0
 11
0.252317
 21
2.1422539999999999
 31
0.0
  0
LINE
  5
151
100
AcDbEntity
100
AcDbLine
  8
0
 62
256
370
-1
  6
CONTINUOUS
 10
0.291652
 20
1.142253
 30
0.0
 11
0.291652
 21
2.1422539999999999
 31
0.0
  0
LINE
  5
152
100
AcDbEntity
100
AcDbLine
  8
0
 62
256
370
-1
  6
CONTINUOUS
 10
0.373822
 20
1.142253
 30
0.0
 11
0.373822
 21
2.1422539999999999
 31
0.0
  0
LINE
  5
153
100
AcDbEntity
100
AcDbLine
  8
0
 62
256
370
-1
  6
CONTINUOUS
 10
1.001322
 20
1.142253
 30
0.0
 11
1.001322
 21
2.1422539999999999
 31
0.0
  0
LINE
  5
154
100
AcDbEntity
100
AcDbLine
  8
0
 62
256
370
-1
  6
CONTINUOUS
 10
0.917323
 20
1.142253
 30
0.0
 11
0.917323
 21
2.1422539999999999
 31
0.0
  0
LINE
  5
155
100
AcDbEntity
100
AcDbLine
  8
0
 62
256
370
-1
  6
CONTINUOUS
 10
0.877323
 20
1.142253
 30
0.0
 11
0.877323
 21
2.1422539999999999
 31
0.0
  0
LINE
  5
156
100
AcDbEntity
100
AcDbLine
  8
0
 62
256
370
-1
  6
CONTINUOUS
 10
0.750324
 20
1.142253
 30
0.0
 11
0.750324
 21
2.1422539999999999
 31
0.0
  0
LINE
  5
157
100
AcDbEntity
100
AcDbLine
  8
0
 62
256
370
-1
  6
CONTINUOUS
 10
0.710989
 20
1.142253
 30
0.0
 11
0.710989
 21
2.1422539999999999
 31
0.0
  0
LINE
  5
158
100
AcDbEntity
100
AcDbLine
  8
0
 62
256
370
-1
  6
CONTINUOUS
 10
0.628819
 20
1.142253
 30
0.0
 11
0.628819
 21
2.1422539999999999
 31
0.0
  0
LINE
  5
159
100
AcDbEntity
100
AcDbLine
  8
0
 62
256
370
-1
  6
CONTINUOUS
 10
0.001319
 20
2.1422539999999999
 30
0.0
 11
1.001322
 21
2.1422539999999999
 31
0.0
  0
ENDBLK
  5
15A
100
AcDbEntity
  8
0
100
AcDbBlockEnd
  0
ENDSEC
  0
SECTION
  2
ENTITIES
  0
INSERT
  5
15B
100
AcDbEntity
100
AcDbBlockReference
  8
ASHADE
 62
1
370
-1
  6
CONTINUOUS
  2
AVE_RENDER
 10
-2.3675515000003728
 20
-4.0818618495756089
 30
0.0
  0
INSERT
  5
15C
100
AcDbEntity
100
AcDbBlockReference
  8
ASHADE
 62
3
370
-1
  6
CONTINUOUS
  2
AVE_RENDER
 10
-2.3675515000003728
 20
-4.0818618495756089
 30
0.0
  0
INSERT
  5
15D
100
AcDbEntity
100
AcDbBlockReference
  8
ASHADE
 62
4
370
-1
  6
CONTINUOUS
  2
AVE_RENDER
 10
-2.3675515000003728
 20
-4.0818618495756089
 30
0.0
  0
CIRCLE
  5
15E
100
AcDbEntity
100
AcDbCircle
  8
0
 62
256
370
-1
  6
ByLayer
 10
0.0000014999996267
 20
0.5075071504243915
 30
0.0
 40
0.086955
  0
CIRCLE
  5
15F
100
AcDbEntity
100
AcDbCircle
  8
0
 62
256
370
-1
  6
ByLayer
 10
0.000001499999627
 20
-0.5075348495756078
 30
0.0
 40
0.086955
  0
INSERT
  5
160
100
AcDbEntity
100
AcDbBlockReference
  8
ASHADE
 62
256
370
-1
  6
ByLayer
  2
AVE_RENDER
 10
-0.5079815000003731
 20
1.0147391504243919
 30
0.0
 50
270.0
  0
INSERT
  5
161
100
AcDbEntity
100
AcDbBlockReference
  8
ASHADE
 62
256
370
-1
  6
ByLayer
  2
AVE_RENDER
 10
-0.5079815000003731
 20
1.0147391504243919
 30
0.0
 50
270.0
  0
INSERT
  5
162
100
AcDbEntity
100
AcDbBlockReference
  8
ASHADE
 62
256
370
-1
  6
ByLayer
  2
AVE_RENDER
 10
-0.5079815000003731
 20
1.0147391504243919
 30
0.0
 50
270.0
  0
ARC
  5
163
100
AcDbEntity
  8
0
 62
256
370
-1
  6
ByLayer
100
AcDbCircle
 10
0.4213090492264028
 20
0.9288944879351279
 30
0.0
 40
0.086180461278485
100
AcDbArc
 50
359.7225383677248374
 51
89.3953541510387311
  0
ARC
  5
164
100
AcDbEntity
  8
0
 62
256
370
-1
  6
ByLayer
100
AcDbCircle
 10
0.5065337773709468
 20
0.9091570761835046
 30
0.0
 40
0.0193436491896207
100
AcDbArc
 50
87.1709675909271624
 51
272.8379292692279137
  0
LINE
  5
165
100
AcDbEntity
100
AcDbLine
  8
0
 62
256
370
-1
  6
ByLayer
 10
0.5074914999996267
 20
0.8898371504243918
 30
0.0
 11
0.5074914999996267
 21
0.8465301504243913
 31
0.0
  0
LINE
  5
166
100
AcDbEntity
100
AcDbLine
  8
0
 62
256
370
-1
  6
ByLayer
 10
0.5074914999996267
 20
0.8465301504243913
 30
0.0
 11
0.5045134999996268
 21
0.7612541504243913
 31
0.0
  0
ARC
  5
167
100
AcDbEntity
  8
0
 62
256
370
-1
  6
ByLayer
100
AcDbCircle
 10
0.5038058593746844
 20
0.7409656029197993
 30
0.0
 40
0.0203008845891049
100
AcDbArc
 50
88.0024005246056191
 51
267.9947226328472993
  0
LINE
  5
168
100
AcDbEntity
100
AcDbLine
  8
0
 62
256
370
-1
  6
ByLayer
 10
0.5030954999996269
 20
0.7206771504243912
 30
0.0
 11
0.5008694999996264
 21
0.6569441504243912
 31
0.0
  0
ARC
  5
169
100
AcDbEntity
  8
0
 62
256
370
-1
  6
ByLayer
100
AcDbCircle
 10
0.4589407446400572
 20
0.6584084678600886
 30
0.0
 40
0.0419543174364105
100
AcDbArc
 50
269.9996659016702552
 51
357.9998184290783456
  0
LINE
  5
16A
100
AcDbEntity
100
AcDbLine
  8
0
 62
256
370
-1
  6
ByLayer
 10
0.458940499999627
 20
0.6164541504243919
 30
0.0
 11
0.4338884999996268
 21
0.6164541504243919
 31
0.0
  0
ARC
  5
16B
100
AcDbEntity
  8
0
 62
256
370
-1
  6
ByLayer
100
AcDbCircle
 10
0.433888749587548
 20
0.6584089574437141
 30
0.0
 40
0.0419548070200644
100
AcDbArc
 50
178.0000118454931908
 51
269.9996591496504266
  0
LINE
  5
16C
100
AcDbEntity
100
AcDbLine
  8
0
 62
256
370
-1
  6
ByLayer
 10
0.3919594999996266
 20
0.6598731504243915
 30
0.0
 11
0.395375499999627
 21
0.757733150424392
 31
0.0
  0
ARC
  5
16D
100
AcDbEntity
  8
0
 62
256
370
-1
  6
ByLayer
100
AcDbCircle
 10
0.3717054283224914
 20
0.7585596533782579
 30
0.0
 40
0.0236844970462425
100
AcDbArc
 50
358.0001793003993384
 51
89.9998266040583417
  0
LINE
  5
16E
100
AcDbEntity
100
AcDbLine
  8
0
 62
256
370
-1
  6
ByLayer
 10
0.3717054999996267
 20
0.7822441504243915
 30
0.0
 11
0.3597244999996266
 21
0.7822441504243915
 31
0.0
  0
ARC
  5
16F
100
AcDbEntity
  8
0
 62
256
370
-1
  6
ByLayer
100
AcDbCircle
 10
0.3597247164807439
 20
0.7585601927468266
 30
0.0
 40
0.0236839576785543
100
AcDbArc
 50
90.0005237071486022
 51
135.0004427143416024
  0
LINE
  5
170
100
AcDbEntity
100
AcDbLine
  8
0
 62
256
370
-1
  6
ByLayer
 10
0.3429774999996269
 20
0.7753071504243918
 30
0.0
 11
0.2160184999996267
 21
0.6483491504243917
 31
0.0
  0
ARC
  5
171
100
AcDbEntity
  8
0
 62
256
370
-1
  6
ByLayer
100
AcDbCircle
 10
0.3054973358544821
 20
0.5588708058039944
 30
0.0
 40
0.1265418358565526
100
AcDbArc
 50
135.0001572759535975
 51
180.0002967436419397
  0
LINE
  5
172
100
AcDbEntity
100
AcDbLine
  8
0
 62
256
370
-1
  6
ByLayer
 10
0.178955499999627
 20
0.5588701504243918
 30
0.0
 11
0.178955499999627
 21
0.4574951504243919
 31
0.0
  0
ARC
  5
173
100
AcDbEntity
  8
0
 62
256
370
-1
  6
ByLayer
100
AcDbCircle
 10
0.3054979235997248
 20
0.4574947384941113
 30
0.0
 40
0.1265424236007684
100
AcDbArc
 50
179.9998134865299448
 51
224.9997324938744043
  0
LINE
  5
174
100
AcDbEntity
100
AcDbLine
  8
0
 62
256
370
-1
  6
ByLayer
 10
0.2160184999996266
 20
0.3680161504243915
 30
0.0
 11
0.3429774999996268
 21
0.2410581504243919
 31
0.0
  0
ARC
  5
175
100
AcDbEntity
  8
0
 62
256
370
-1
  6
ByLayer
100
AcDbCircle
 10
0.3597247164807439
 20
0.2578051081019564
 30
0.0
 40
0.0236839576785543
100
AcDbArc
 50
224.9995572856581987
 51
269.9994762928513978
  0
LINE
  5
176
100
AcDbEntity
100
AcDbLine
  8
0
 62
256
370
-1
  6
ByLayer
 10
0.3597244999996266
 20
0.2341211504243919
 30
0.0
 11
0.3724154999996271
 21
0.234121150424392
 31
0.0
  0
ARC
  5
177
100
AcDbEntity
  8
0
 62
256
370
-1
  6
ByLayer
100
AcDbCircle
 10
0.3724154684597124
 20
0.2578056087104582
 30
0.0
 40
0.0236844582860875
100
AcDbArc
 50
270.0000763017656027
 51
1.9999177964650179
  0
LINE
  5
178
100
AcDbEntity
100
AcDbLine
  8
0
 62
256
370
-1
  6
ByLayer
 10
0.3960854999996269
 20
0.258632150424392
 30
0.0
 11
0.3926684999996264
 21
0.3564921504243913
 31
0.0
  0
ARC
  5
179
100
AcDbEntity
  8
0
 62
256
370
-1
  6
ByLayer
100
AcDbCircle
 10
0.4345976784881235
 20
0.3579564120645909
 30
0.0
 40
0.0419547383601803
100
AcDbArc
 50
90.00024375499261
 51
182.0000852513710754
  0
LINE
  5
17A
100
AcDbEntity
100
AcDbLine
  8
0
 62
256
370
-1
  6
ByLayer
 10
0.4345974999996267
 20
0.3999111504243914
 30
0.0
 11
0.458972499999627
 21
0.3999111504243916
 31
0.0
  0
ARC
  5
17B
100
AcDbEntity
  8
0
 62
256
370
-1
  6
ByLayer
100
AcDbCircle
 10
0.4589729561045882
 20
0.357956016427875
 30
0.0
 40
0.0419551339989961
100
AcDbArc
 50
2.0012584376832696
 51
90.0006228774667534
  0
LINE
  5
17C
100
AcDbEntity
100
AcDbLine
  8
0
 62
256
370
-1
  6
ByLayer
 10
0.5009024999996268
 20
0.3594211504243916
 30
0.0
 11
0.5031284999996266
 21
0.2956881504243913
 31
0.0
  0
ARC
  5
17D
100
AcDbEntity
  8
0
 62
256
370
-1
  6
ByLayer
100
AcDbCircle
 10
0.5038383593746585
 20
0.2753996978954815
 30
0.0
 40
0.0203008671329614
100
AcDbArc
 50
92.003867062140273
 51
271.9961891705279982
  0
LINE
  5
17E
100
AcDbEntity
100
AcDbLine
  8
0
 62
256
370
-1
  6
ByLayer
 10
0.5045454999996273
 20
0.2551111504243921
 30
0.0
 11
0.5075224999996264
 21
0.1698351504243918
 31
0.0
  0
LINE
  5
17F
100
AcDbEntity
100
AcDbLine
  8
0
 62
256
370
-1
  6
ByLayer
 10
0.5075224999996264
 20
0.1698351504243918
 30
0.0
 11
0.5075224999996268
 21
0.1265271504243921
 31
0.0
  0
ARC
  5
180
100
AcDbEntity
  8
0
 62
256
370
-1
  6
ByLayer
100
AcDbCircle
 10
0.5075238602121692
 20
0.1062261504243919
 30
0.0
 40
0.0203010000455687
100
AcDbArc
 50
90.0038389458031816
 51
269.9961610541968184
  0
LINE
  5
181
100
AcDbEntity
100
AcDbLine
  8
0
 62
256
370
-1
  6
ByLayer
 10
0.5075224999996264
 20
0.0859251504243919
 30
0.0
 11
0.5075224999996266
 21
-0.084601849575608
 31
0.0
  0
ARC
  5
182
100
AcDbEntity
  8
0
 62
256
370
-1
  6
ByLayer
100
AcDbCircle
 10
0.5075228601786888
 20
-0.1049023496426105
 30
0.0
 40
0.0203005000701975
100
AcDbArc
 50
90.001016563008406
 51
269.9933386715419488
  0
LINE
  5
183
100
AcDbEntity
100
AcDbLine
  8
0
 62
256
370
-1
  6
ByLayer
 10
0.5075204999996266
 20
-0.1252028495756083
 30
0.0
 11
0.5075224999996264
 21
-0.1685118495756082
 31
0.0
  0
LINE
  5
184
100
AcDbEntity
100
AcDbLine
  8
0
 62
256
370
-1
  6
ByLayer
 10
0.5075224999996264
 20
-0.1685118495756082
 30
0.0
 11
0.5045454999996262
 21
-0.2537868495756086
 31
0.0
  0
ARC
  5
185
100
AcDbEntity
  8
0
 62
256
370
-1
  6
ByLayer
100
AcDbCircle
 10
0.5038383593746389
 20
-0.2740753970466971
 30
0.0
 40
0.0203008671329614
100
AcDbArc
 50
88.0038108294162669
 51
267.9961329379157746
  0
LINE
  5
186
100
AcDbEntity
100
AcDbLine
  8
0
 62
256
370
-1
  6
ByLayer
 10
0.5031284999996271
 20
-0.2943638495756082
 30
0.0
 11
0.5009024999996263
 21
-0.3580968495756083
 31
0.0
  0
ARC
  5
187
100
AcDbEntity
  8
0
 62
256
370
-1
  6
ByLayer
100
AcDbCircle
 10
0.4589724383336844
 20
-0.3566322155790913
 30
0.0
 40
0.0419556339965622
100
AcDbArc
 50
270.0000842125555209
 51
357.9994486520724308
  0
LINE
  5
188
100
AcDbEntity
100
AcDbLine
  8
0
 62
256
370
-1
  6
ByLayer
 10
0.4589724999996266
 20
-0.3985878495756083
 30
0.0
 11
0.4345974999996272
 21
-0.3985878495756081
 31
0.0
  0
ARC
  5
189
100
AcDbEntity
  8
0
 62
256
370
-1
  6
ByLayer
100
AcDbCircle
 10
0.4345980902330701
 20
-0.356632679875055
 30
0.0
 40
0.041955169704705
100
AcDbArc
 50
177.9991582609849274
 51
269.9991939517625497
  0
LINE
  5
18A
100
AcDbEntity
100
AcDbLine
  8
0
 62
256
370
-1
  6
ByLayer
 10
0.3926684999996262
 20
-0.3551678495756083
 30
0.0
 11
0.3960854999996269
 21
-0.2573078495756078
 31
0.0
  0
ARC
  5
18B
100
AcDbEntity
  8
0
 62
256
370
-1
  6
ByLayer
100
AcDbCircle
 10
0.3724155085967727
 20
-0.2564812691017615
 30
0.0
 40
0.0236844195261551
100
AcDbArc
 50
357.9999851067407803
 51
90.0000208082696531
  0
LINE
  5
18C
100
AcDbEntity
100
AcDbLine
  8
0
 62
256
370
-1
  6
ByLayer
 10
0.3724154999996273
 20
-0.2327968495756079
 30
0.0
 11
0.3597244999996262
 21
-0.2327968495756083
 31
0.0
  0
ARC
  5
18D
100
AcDbEntity
  8
0
 62
256
370
-1
  6
ByLayer
100
AcDbCircle
 10
0.3597247164807433
 20
-0.2564808072531737
 30
0.0
 40
0.0236839576785543
100
AcDbArc
 50
90.0005237071486022
 51
135.0004427143412045
  0
LINE
  5
18E
100
AcDbEntity
100
AcDbLine
  8
0
 62
256
370
-1
  6
ByLayer
 10
0.3429774999996266
 20
-0.2397338495756085
 30
0.0
 11
0.2160184999996259
 21
-0.3666918495756084
 31
0.0
  0
ARC
  5
18F
100
AcDbEntity
  8
0
 62
256
370
-1
  6
ByLayer
100
AcDbCircle
 10
0.3054979235997239
 20
-0.4561704376453277
 30
0.0
 40
0.1265424236007681
100
AcDbArc
 50
135.0002675061255957
 51
180.0001865134700552
  0
LINE
  5
190
100
AcDbEntity
100
AcDbLine
  8
0
 62
256
370
-1
  6
ByLayer
 10
0.1789554999996272
 20
-0.4561708495756078
 30
0.0
 11
0.1789554999996266
 21
-0.5574388495756084
 31
0.0
  0
ARC
  5
191
100
AcDbEntity
  8
0
 62
256
370
-1
  6
ByLayer
100
AcDbCircle
 10
0.3054969645492225
 20
-0.5574392947373208
 30
0.0
 40
0.1265414645503788
100
AcDbArc
 50
179.9997984385007612
 51
227.023896877745841
  0
LINE
  5
192
100
AcDbEntity
100
AcDbLine
  8
0
 62
256
370
-1
  6
ByLayer
 10
0.2192344999996263
 20
-0.6500218495756083
 30
0.0
 11
0.3429624999996259
 21
-0.7739688495756085
 31
0.0
  0
ARC
  5
193
100
AcDbEntity
  8
0
 62
256
370
-1
  6
ByLayer
100
AcDbCircle
 10
0.3597235807677731
 20
-0.7572361904854499
 30
0.0
 40
0.0236836591079976
100
AcDbArc
 50
224.9513807113962969
 51
270.0022238161711243
  0
LINE
  5
194
100
AcDbEntity
100
AcDbLine
  8
0
 62
256
370
-1
  6
ByLayer
 10
0.3597244999996267
 20
-0.7809198495756082
 30
0.0
 11
0.3717054999996269
 21
-0.780919849575608
 31
0.0
  0
ARC
  5
195
100
AcDbEntity
  8
0
 62
256
370
-1
  6
ByLayer
100
AcDbCircle
 10
0.3717059111698529
 20
-0.7572358525294745
 30
0.0
 40
0.023683997049703
100
AcDbArc
 50
269.9990053064341851
 51
1.9986526100582658
  0
LINE
  5
196
100
AcDbEntity
100
AcDbLine
  8
0
 62
256
370
-1
  6
ByLayer
 10
0.3953754999996257
 20
-0.7564098495756089
 30
0.0
 11
0.3919594999996259
 21
-0.6585488495756087
 31
0.0
  0
ARC
  5
197
100
AcDbEntity
  8
0
 62
256
370
-1
  6
ByLayer
100
AcDbCircle
 10
0.434463003588938
 20
-0.6576428838791664
 30
0.0
 40
0.0425131578597699
100
AcDbArc
 50
89.861863532782877
 51
181.2210793788595709
  0
LINE
  5
198
100
AcDbEntity
100
AcDbLine
  8
0
 62
256
370
-1
  6
ByLayer
 10
0.4345654999996272
 20
-0.6151298495756079
 30
0.0
 11
0.4589414999996265
 21
-0.6151298495756086
 31
0.0
  0
ARC
  5
199
100
AcDbEntity
  8
0
 62
256
370
-1
  6
ByLayer
100
AcDbCircle
 10
0.4589420875476173
 20
-0.6570848112859329
 30
0.0
 40
0.0419549617144388
100
AcDbArc
 50
1.9996647504855884
 51
90.0008023846307026
  0
LINE
  5
19A
100
AcDbEntity
100
AcDbLine
  8
0
 62
256
370
-1
  6
ByLayer
 10
0.5008714999996264
 20
-0.6556208495756086
 30
0.0
 11
0.5030954999996262
 21
-0.7193528495756081
 31
0.0
  0
ARC
  5
19B
100
AcDbEntity
  8
0
 62
256
370
-1
  6
ByLayer
100
AcDbCircle
 10
0.5038058593746837
 20
-0.7396413020710162
 30
0.0
 40
0.020300884589105
100
AcDbArc
 50
92.0052773671527007
 51
271.9975994753944519
  0
LINE
  5
19C
100
AcDbEntity
100
AcDbLine
  8
0
 62
256
370
-1
  6
ByLayer
 10
0.5045134999996259
 20
-0.7599298495756088
 30
0.0
 11
0.507491499999625
 21
-0.845205849575609
 31
0.0
  0
LINE
  5
19D
100
AcDbEntity
100
AcDbLine
  8
0
 62
256
370
-1
  6
ByLayer
 10
0.507491499999625
 20
-0.845205849575609
 30
0.0
 11
0.5074914999996269
 21
-0.8885138495756082
 31
0.0
  0
ARC
  5
19E
100
AcDbEntity
  8
0
 62
256
370
-1
  6
ByLayer
100
AcDbCircle
 10
0.5074913602121638
 20
-0.9088148496761121
 30
0.0
 40
0.0203010001009846
100
AcDbArc
 50
89.9996054752720056
 51
269.991927584525456
  0
ARC
  5
19F
100
AcDbEntity
  8
0
 62
256
370
-1
  6
ByLayer
100
AcDbCircle
 10
0.4225246087860607
 20
-0.9294875619814842
 30
0.0
 40
0.0849647043204606
100
AcDbArc
 50
269.820549775308109
 51
0.2506643218341852
  0
ARC
  5
1A0
100
AcDbEntity
  8
0
 62
256
370
-1
  6
ByLayer
100
AcDbCircle
 10
0.4019375196982859
 20
-1.0147472111282234
 30
0.0
 40
0.020323126699753
100
AcDbArc
 50
0.8327245327792253
 51
180.8250466411104753
  0
LINE
  5
1A1
100
AcDbEntity
100
AcDbLine
  8
0
 62
256
370
-1
  6
ByLayer
 10
0.3816164999996258
 20
-1.0150398495756086
 30
0.0
 11
0.3383084999996259
 21
-1.014975849575608
 31
0.0
  0
LINE
  5
1A2
100
AcDbEntity
100
AcDbLine
  8
0
 62
256
370
-1
  6
ByLayer
 10
0.3383084999996259
 20
-1.014975849575608
 30
0.0
 11
0.2530374999996263
 21
-1.0118728495756082
 31
0.0
  0
ARC
  5
1A3
100
AcDbEntity
  8
0
 62
256
370
-1
  6
ByLayer
100
AcDbCircle
 10
0.232749950518471
 20
-1.0111357088836044
 30
0.0
 40
0.0203009369328159
100
AcDbArc
 50
357.9190942213263611
 51
177.9114163299034033
  0
LINE
  5
1A4
100
AcDbEntity
100
AcDbLine
  8
0
 62
256
370
-1
  6
ByLayer
 10
0.2124624999996265
 20
-1.0103958495756082
 30
0.0
 11
0.148732499999626
 21
-1.0080758495756086
 31
0.0
  0
ARC
  5
1A5
100
AcDbEntity
  8
0
 62
256
370
-1
  6
ByLayer
100
AcDbCircle
 10
0.1502591824794681
 20
-0.9661489074766054
 30
0.0
 40
0.0419547283767562
100
AcDbArc
 50
179.9152501458895586
 51
267.914614585237473
  0
LINE
  5
1A6
100
AcDbEntity
100
AcDbLine
  8
0
 62
256
370
-1
  6
ByLayer
 10
0.1083044999996262
 20
-0.9660868495756081
 30
0.0
 11
0.1083404999996261
 21
-0.9423208495756084
 31
0.0
  0
ARC
  5
1A7
100
AcDbEntity
  8
0
 62
256
370
-1
  6
ByLayer
100
AcDbCircle
 10
0.1502948362330943
 20
-0.9423824816532662
 30
0.0
 40
0.0419543815030543
100
AcDbArc
 50
87.9159894820459016
 51
179.9158309793633634
  0
LINE
  5
1A8
100
AcDbEntity
100
AcDbLine
  8
0
 62
256
370
-1
  6
ByLayer
 10
0.1518204999996277
 20
-0.9004558495756079
 30
0.0
 11
0.2496764999996272
 21
-0.904016849575608
 31
0.0
  0
ARC
  5
1A9
100
AcDbEntity
  8
0
 62
256
370
-1
  6
ByLayer
100
AcDbCircle
 10
0.2505379241596228
 20
-0.8803479184353553
 30
0.0
 40
0.0236846015990444
100
AcDbArc
 50
267.9156560200353283
 51
359.9154975173521507
  0
LINE
  5
1AA
100
AcDbEntity
100
AcDbLine
  8
0
 62
256
370
-1
  6
ByLayer
 10
0.2742224999996268
 20
-0.8803828495756083
 30
0.0
 11
0.2742404999996271
 21
-0.8676918495756079
 31
0.0
  0
ARC
  5
1AB
100
AcDbEntity
  8
0
 62
256
370
-1
  6
ByLayer
100
AcDbCircle
 10
0.2505569712301189
 20
-0.8676568883268665
 30
0.0
 40
0.023683554574114
100
AcDbArc
 50
359.9154209423825819
 51
44.9153399497272403
  0
LINE
  5
1AC
100
AcDbEntity
100
AcDbLine
  8
0
 62
256
370
-1
  6
ByLayer
 10
0.2673284999996265
 20
-0.8509348495756079
 30
0.0
 11
0.1405564999996261
 21
-0.7237888495756084
 31
0.0
  0
ARC
  5
1AD
100
AcDbEntity
  8
0
 62
256
370
-1
  6
ByLayer
100
AcDbCircle
 10
0.0509472806254502
 20
-0.813136382170017
 30
0.0
 40
0.1265416681475257
100
AcDbArc
 50
44.9162169787766246
 51
89.9161359861231091
  0
LINE
  5
1AE
100
AcDbEntity
100
AcDbLine
  8
0
 62
256
370
-1
  6
ByLayer
 10
0.0511324999996267
 20
-0.686594849575608
 30
0.0
 11
-0.0502425000003722
 21
-0.6864458495756081
 31
0.0
  0
ARC
  5
1AF
100
AcDbEntity
  8
0
 62
256
370
-1
  6
ByLayer
100
AcDbCircle
 10
-0.0504294929265826
 20
-0.8129868689722572
 30
0.0
 40
0.1265411575587074
100
AcDbArc
 50
89.915332611322583
 51
134.9154720790173485
  0
LINE
  5
1B0
100
AcDbEntity
100
AcDbLine
  8
0
 62
256
370
-1
  6
ByLayer
 10
-0.1397755000003736
 20
-0.7233768495756083
 30
0.0
 11
-0.2669195000003727
 21
-0.8501488495756082
 31
0.0
  0
ARC
  5
1B1
100
AcDbEntity
  8
0
 62
256
370
-1
  6
ByLayer
100
AcDbCircle
 10
-0.2501971134147513
 20
-0.8669212437865839
 30
0.0
 40
0.0236844130323583
100
AcDbArc
 50
134.9144576056562812
 51
179.9143766130007123
  0
LINE
  5
1B2
100
AcDbEntity
100
AcDbLine
  8
0
 62
256
370
-1
  6
ByLayer
 10
-0.2738815000003734
 20
-0.8668858495756082
 30
0.0
 11
-0.2738995000003722
 21
-0.878866849575608
 31
0.0
  0
ARC
  5
1B3
100
AcDbEntity
  8
0
 62
256
370
-1
  6
ByLayer
100
AcDbCircle
 10
-0.2502151204492246
 20
-0.8789016775561245
 30
0.0
 40
0.0236844051584798
100
AcDbArc
 50
179.9157463741067318
 51
271.9153936776954197
  0
LINE
  5
1B4
100
AcDbEntity
100
AcDbLine
  8
0
 62
256
370
-1
  6
ByLayer
 10
-0.2494235000003729
 20
-0.902572849575608
 30
0.0
 11
-0.1515575000003724
 21
-0.8992998495756082
 31
0.0
  0
ARC
  5
1B5
100
AcDbEntity
  8
0
 62
256
370
-1
  6
ByLayer
100
AcDbCircle
 10
-0.1511677233186184
 20
-0.942266008256279
 30
0.0
 40
0.042967926615491
100
AcDbArc
 50
359.6721799726279301
 51
90.5197566388649051
  0
LINE
  5
1B6
100
AcDbEntity
100
AcDbLine
  8
0
 62
256
370
-1
  6
ByLayer
 10
-0.1082005000003741
 20
-0.9425118495756082
 30
0.0
 11
-0.1082365000003729
 21
-0.9668868495756082
 31
0.0
  0
ARC
  5
1B7
100
AcDbEntity
  8
0
 62
256
370
-1
  6
ByLayer
100
AcDbCircle
 10
-0.1502096636327537
 20
-0.9668276767352195
 30
0.0
 40
0.0419732053426415
100
AcDbArc
 50
271.9389730918487658
 51
359.9192257271883477
  0
LINE
  5
1B8
100
AcDbEntity
100
AcDbLine
  8
0
 62
256
370
-1
  6
ByLayer
 10
-0.1487895000003746
 20
-1.008776849575608
 30
0.0
 11
-0.2125245000003735
 21
-1.010908849575608
 31
0.0
  0
ARC
  5
1B9
100
AcDbEntity
  8
0
 62
256
370
-1
  6
ByLayer
100
AcDbCircle
 10
-0.2328139545058489
 20
-1.0115892090176677
 30
0.0
 40
0.0203008584325923
100
AcDbArc
 50
1.9205604348476326
 51
181.9128825430917402
  0
LINE
  5
1BA
100
AcDbEntity
100
AcDbLine
  8
0
 62
256
370
-1
  6
ByLayer
 10
-0.2531035000003735
 20
-1.0122668495756082
 30
0.0
 11
-0.3383835000003738
 21
-1.0151188495756081
 31
0.0
  0
LINE
  5
1BB
100
AcDbEntity
100
AcDbLine
  8
0
 62
256
370
-1
  6
ByLayer
 10
-0.3383835000003738
 20
-1.0151188495756081
 30
0.0
 11
-0.3816915000003747
 21
-1.0150558495756081
 31
0.0
  0
ARC
  5
1BC
100
AcDbEntity
  8
0
 62
256
370
-1
  6
ByLayer
100
AcDbCircle
 10
-0.401992502110944
 20
-1.0150257097881668
 30
0.0
 40
0.0203010244840053
100
AcDbArc
 50
359.9149361525294921
 51
179.9072582609250333
  0
ARC
  5
1BD
100
AcDbEntity
  8
0
 62
256
370
-1
  6
ByLayer
100
AcDbCircle
 10
-0.4226524353354383
 20
-0.9301603668692782
 30
0.0
 40
0.084833242049886
100
AcDbArc
 50
180.1171690905480602
 51
270.2424231431123189
  0
ARC
  5
1BE
100
AcDbEntity
  8
0
 62
256
370
-1
  6
ByLayer
100
AcDbCircle
 10
-0.5081060605435381
 20
-0.9094238792054772
 30
0.0
 40
0.0209191767588918
100
AcDbArc
 50
271.6999099629657053
 51
88.305570264626013
  0
LINE
  5
1BF
100
AcDbEntity
100
AcDbLine
  8
0
 62
256
370
-1
  6
ByLayer
 10
-0.5074875000008277
 20
-0.8885138495756082
 30
0.0
 11
-0.5074875000008209
 21
-0.8452058495756081
 31
0.0
  0
LINE
  5
1C0
100
AcDbEntity
100
AcDbLine
  8
0
 62
256
370
-1
  6
ByLayer
 10
-0.5074875000008209
 20
-0.8452058495756081
 30
0.0
 11
-0.5045095000004224
 21
-0.7599298495756082
 31
0.0
  0
ARC
  5
1C1
100
AcDbEntity
  8
0
 62
256
370
-1
  6
ByLayer
100
AcDbCircle
 10
-0.5038018593754798
 20
-0.739641302071016
 30
0.0
 40
0.020300884589105
100
AcDbArc
 50
268.0024005246061165
 51
87.9947226328467877
  0
LINE
  5
1C2
100
AcDbEntity
100
AcDbLine
  8
0
 62
256
370
-1
  6
ByLayer
 10
-0.5030915000003726
 20
-0.7193528495756081
 30
0.0
 11
-0.5008675000003252
 21
-0.6556208495756082
 31
0.0
  0
ARC
  5
1C3
100
AcDbEntity
  8
0
 62
256
370
-1
  6
ByLayer
100
AcDbCircle
 10
-0.4589385875483625
 20
-0.6570842935310626
 30
0.0
 40
0.0419544439555458
100
AcDbArc
 50
89.9998804381531414
 51
178.0010180728726823
  0
LINE
  5
1C4
100
AcDbEntity
100
AcDbLine
  8
0
 62
256
370
-1
  6
ByLayer
 10
-0.4589385000003746
 20
-0.6151298495756081
 30
0.0
 11
-0.4338855000003741
 21
-0.6151298495756081
 31
0.0
  0
ARC
  5
1C5
100
AcDbEntity
  8
0
 62
256
370
-1
  6
ByLayer
100
AcDbCircle
 10
-0.4338852495882926
 20
-0.6570851394422916
 30
0.0
 40
0.0419552898674309
100
AcDbArc
 50
358.0006946689088068
 51
90.0003419723170452
  0
LINE
  5
1C6
100
AcDbEntity
100
AcDbLine
  8
0
 62
256
370
-1
  6
ByLayer
 10
-0.3919555000003719
 20
-0.6585488495756082
 30
0.0
 11
-0.3953725000003726
 21
-0.7564098495756082
 31
0.0
  0
ARC
  5
1C7
100
AcDbEntity
  8
0
 62
256
370
-1
  6
ByLayer
100
AcDbCircle
 10
-0.3717029111705973
 20
-0.757235852529474
 30
0.0
 40
0.023683997049703
100
AcDbArc
 50
178.0013473899417704
 51
270.0009946935657581
  0
LINE
  5
1C8
100
AcDbEntity
100
AcDbLine
  8
0
 62
256
370
-1
  6
ByLayer
 10
-0.3717025000003728
 20
-0.780919849575608
 30
0.0
 11
-0.3597215000003744
 21
-0.780919849575608
 31
0.0
  0
ARC
  5
1C9
100
AcDbEntity
  8
0
 62
256
370
-1
  6
ByLayer
100
AcDbCircle
 10
-0.3597200807685218
 20
-0.7572349848918991
 30
0.0
 40
0.0236848647262302
100
AcDbArc
 50
269.9965667526992092
 51
315.047409857642208
  0
LINE
  5
1CA
100
AcDbEntity
100
AcDbLine
  8
0
 62
256
370
-1
  6
ByLayer
 10
-0.3429585000003714
 20
-0.7739688495756081
 30
0.0
 11
-0.2192315000003725
 21
-0.650021849575608
 31
0.0
  0
ARC
  5
1CB
100
AcDbEntity
  8
0
 62
256
370
-1
  6
ByLayer
100
AcDbCircle
 10
-0.3054939645499689
 20
-0.5574392947373208
 30
0.0
 40
0.1265414645503788
100
AcDbArc
 50
312.9761031222541874
 51
0.0002015614993023
  0
LINE
  5
1CC
100
AcDbEntity
100
AcDbLine
  8
0
 62
256
370
-1
  6
ByLayer
 10
-0.1789525000003737
 20
-0.5574388495756082
 30
0.0
 11
-0.1789525000003737
 21
-0.4561708495756081
 31
0.0
  0
ARC
  5
1CD
100
AcDbEntity
  8
0
 62
256
370
-1
  6
ByLayer
100
AcDbCircle
 10
-0.3054949236004698
 20
-0.4561704376453275
 30
0.0
 40
0.1265424236007681
100
AcDbArc
 50
359.9998134865300017
 51
44.9997324938745038
  0
LINE
  5
1CE
100
AcDbEntity
100
AcDbLine
  8
0
 62
256
370
-1
  6
ByLayer
 10
-0.2160155000003741
 20
-0.3666918495756084
 30
0.0
 11
-0.3429735000003739
 21
-0.2397338495756083
 31
0.0
  0
ARC
  5
1CF
100
AcDbEntity
  8
0
 62
256
370
-1
  6
ByLayer
100
AcDbCircle
 10
-0.3597212164814907
 20
-0.2564820143623674
 30
0.0
 40
0.0236851647884562
100
AcDbArc
 50
45.0007668411834061
 51
90.00068584865096
  0
LINE
  5
1D0
100
AcDbEntity
100
AcDbLine
  8
0
 62
256
370
-1
  6
ByLayer
 10
-0.3597215000003734
 20
-0.2327968495756081
 30
0.0
 11
-0.3724125000003725
 21
-0.2327968495756081
 31
0.0
  0
ARC
  5
1D1
100
AcDbEntity
  8
0
 62
256
370
-1
  6
ByLayer
100
AcDbCircle
 10
-0.3724125085975195
 20
-0.2564812691017617
 30
0.0
 40
0.0236844195261552
100
AcDbArc
 50
89.9999791917303469
 51
182.0000148932592197
  0
LINE
  5
1D2
100
AcDbEntity
100
AcDbLine
  8
0
 62
256
370
-1
  6
ByLayer
 10
-0.3960825000003718
 20
-0.257307849575608
 30
0.0
 11
-0.3926655000003734
 21
-0.3551678495756081
 31
0.0
  0
ARC
  5
1D3
100
AcDbEntity
  8
0
 62
256
370
-1
  6
ByLayer
100
AcDbCircle
 10
-0.4345950902338149
 20
-0.356632679875055
 30
0.0
 40
0.041955169704705
100
AcDbArc
 50
270.0008060482375072
 51
2.000841739015081
  0
LINE
  5
1D4
100
AcDbEntity
100
AcDbLine
  8
0
 62
256
370
-1
  6
ByLayer
 10
-0.4345945000003746
 20
-0.3985878495756081
 30
0.0
 11
-0.4589695000003693
 21
-0.3985878495756081
 31
0.0
  0
ARC
  5
1D5
100
AcDbEntity
  8
0
 62
256
370
-1
  6
ByLayer
100
AcDbCircle
 10
-0.4589689383344349
 20
-0.356632733349995
 30
0.0
 40
0.0419551162293727
100
AcDbArc
 50
181.9998685245695071
 51
269.999232963845202
  0
LINE
  5
1D6
100
AcDbEntity
100
AcDbLine
  8
0
 62
256
370
-1
  6
ByLayer
 10
-0.500898500000369
 20
-0.3580968495756081
 30
0.0
 11
-0.5031255000004041
 21
-0.294363849575608
 31
0.0
  0
ARC
  5
1D7
100
AcDbEntity
  8
0
 62
256
370
-1
  6
ByLayer
100
AcDbCircle
 10
-0.5038353593753653
 20
-0.2740753970466974
 30
0.0
 40
0.0203008671329614
100
AcDbArc
 50
272.0038670620838843
 51
91.9961891705840316
  0
LINE
  5
1D8
100
AcDbEntity
100
AcDbLine
  8
0
 62
256
370
-1
  6
ByLayer
 10
-0.5045425000003462
 20
-0.2537868495756082
 30
0.0
 11
-0.5075195000001141
 21
-0.1685118495756082
 31
0.0
  0
LINE
  5
1D9
100
AcDbEntity
100
AcDbLine
  8
0
 62
256
370
-1
  6
ByLayer
 10
-0.5075195000001141
 20
-0.1685118495756082
 30
0.0
 11
-0.5075165000002715
 21
-0.1252028495756081
 31
0.0
  0
ARC
  5
1DA
100
AcDbEntity
  8
0
 62
256
370
-1
  6
ByLayer
100
AcDbCircle
 10
-0.507519360179259
 20
-0.1049023496761115
 30
0.0
 40
0.0203005001009849
100
AcDbArc
 50
270.0080725198141067
 51
90.0003946272572222
  0
LINE
  5
1DB
100
AcDbEntity
100
AcDbLine
  8
0
 62
256
370
-1
  6
ByLayer
 10
-0.507519500000237
 20
-0.084601849575608
 30
0.0
 11
-0.5075195000003444
 21
0.0859251504243919
 31
0.0
  0
ARC
  5
1DC
100
AcDbEntity
  8
0
 62
256
370
-1
  6
ByLayer
100
AcDbCircle
 10
-0.507520860212905
 20
0.1062261504243919
 30
0.0
 40
0.0203010000455687
100
AcDbArc
 50
270.0038389458031816
 51
89.9961610541968184
  0
LINE
  5
1DD
100
AcDbEntity
100
AcDbLine
  8
0
 62
256
370
-1
  6
ByLayer
 10
-0.5075195000003864
 20
0.1265271504243919
 30
0.0
 11
-0.5075195000003305
 21
0.1698351504243919
 31
0.0
  0
LINE
  5
1DE
100
AcDbEntity
100
AcDbLine
  8
0
 62
256
370
-1
  6
ByLayer
 10
-0.5075195000003305
 20
0.1698351504243919
 30
0.0
 11
-0.5045425000003831
 21
0.2551111504243919
 31
0.0
  0
ARC
  5
1DF
100
AcDbEntity
  8
0
 62
256
370
-1
  6
ByLayer
100
AcDbCircle
 10
-0.503835359375415
 20
0.2753996978954819
 30
0.0
 40
0.0203008671329614
100
AcDbArc
 50
268.0038108294721724
 51
87.996132937859727
  0
LINE
  5
1E0
100
AcDbEntity
100
AcDbLine
  8
0
 62
256
370
-1
  6
ByLayer
 10
-0.5031255000003777
 20
0.2956881504243919
 30
0.0
 11
-0.5008985000003781
 21
0.3594211504243919
 31
0.0
  0
ARC
  5
1E1
100
AcDbEntity
  8
0
 62
256
370
-1
  6
ByLayer
100
AcDbCircle
 10
-0.4589694561053347
 20
0.3579565341987787
 30
0.0
 40
0.041954616225636
100
AcDbArc
 50
90.0000599407474766
 51
177.9994243850861722
  0
LINE
  5
1E2
100
AcDbEntity
100
AcDbLine
  8
0
 62
256
370
-1
  6
ByLayer
 10
-0.4589695000003726
 20
0.3999111504243918
 30
0.0
 11
-0.4345945000003733
 21
0.3999111504243917
 31
0.0
  0
ARC
  5
1E3
100
AcDbEntity
  8
0
 62
256
370
-1
  6
ByLayer
100
AcDbCircle
 10
-0.4345941784888701
 20
0.3579559292188673
 30
0.0
 40
0.0419552212067565
100
AcDbArc
 50
358.0005975720446827
 51
90.000439068817613
  0
LINE
  5
1E4
100
AcDbEntity
100
AcDbLine
  8
0
 62
256
370
-1
  6
ByLayer
 10
-0.3926645000003733
 20
0.3564921504243919
 30
0.0
 11
-0.3960825000003736
 21
0.2586321504243919
 31
0.0
  0
ARC
  5
1E5
100
AcDbEntity
  8
0
 62
256
370
-1
  6
ByLayer
100
AcDbCircle
 10
-0.3724124684604584
 20
0.2578056087104583
 30
0.0
 40
0.0236844582860875
100
AcDbArc
 50
178.0000822035349302
 51
269.9999236982343973
  0
LINE
  5
1E6
100
AcDbEntity
100
AcDbLine
  8
0
 62
256
370
-1
  6
ByLayer
 10
-0.3724125000003733
 20
0.2341211504243917
 30
0.0
 11
-0.3597215000003736
 21
0.2341211504243917
 31
0.0
  0
ARC
  5
1E7
100
AcDbEntity
  8
0
 62
256
370
-1
  6
ByLayer
100
AcDbCircle
 10
-0.3597212164814901
 20
0.2578063152111513
 30
0.0
 40
0.0236851647884563
100
AcDbArc
 50
269.9993141513489832
 51
314.9992331588168213
  0
LINE
  5
1E8
100
AcDbEntity
100
AcDbLine
  8
0
 62
256
370
-1
  6
ByLayer
 10
-0.3429735000003727
 20
0.2410581504243919
 30
0.0
 11
-0.216015500000373
 21
0.368016150424392
 31
0.0
  0
ARC
  5
1E9
100
AcDbEntity
  8
0
 62
256
370
-1
  6
ByLayer
100
AcDbCircle
 10
-0.3054949236004713
 20
0.4574947384941112
 30
0.0
 40
0.1265424236007684
100
AcDbArc
 50
315.0002675061256241
 51
0.000186513470043
  0
LINE
  5
1EA
100
AcDbEntity
100
AcDbLine
  8
0
 62
256
370
-1
  6
ByLayer
 10
-0.1789525000003733
 20
0.4574951504243918
 30
0.0
 11
-0.1789525000003733
 21
0.5588701504243918
 31
0.0
  0
ARC
  5
1EB
100
AcDbEntity
  8
0
 62
256
370
-1
  6
ByLayer
100
AcDbCircle
 10
-0.3054943358552288
 20
0.5588708058039948
 30
0.0
 40
0.1265418358565526
100
AcDbArc
 50
359.9997032563580319
 51
44.9998427240463386
  0
LINE
  5
1EC
100
AcDbEntity
100
AcDbLine
  8
0
 62
256
370
-1
  6
ByLayer
 10
-0.2160155000003733
 20
0.6483491504243917
 30
0.0
 11
-0.3429735000003732
 21
0.7753071504243918
 31
0.0
  0
ARC
  5
1ED
100
AcDbEntity
  8
0
 62
256
370
-1
  6
ByLayer
100
AcDbCircle
 10
-0.3597212164814904
 20
0.7585589856376325
 30
0.0
 40
0.0236851647884562
100
AcDbArc
 50
45.0007668411833066
 51
90.00068584865096
  0
LINE
  5
1EE
100
AcDbEntity
100
AcDbLine
  8
0
 62
256
370
-1
  6
ByLayer
 10
-0.359721500000373
 20
0.7822441504243919
 30
0.0
 11
-0.3717025000003731
 21
0.7822441504243919
 31
0.0
  0
ARC
  5
1EF
100
AcDbEntity
  8
0
 62
256
370
-1
  6
ByLayer
100
AcDbCircle
 10
-0.371702428323238
 20
0.7585596533782578
 30
0.0
 40
0.0236844970462425
100
AcDbArc
 50
90.0001733959416441
 51
181.9998206996005763
  0
LINE
  5
1F0
100
AcDbEntity
100
AcDbLine
  8
0
 62
256
370
-1
  6
ByLayer
 10
-0.3953725000003733
 20
0.7577331504243918
 30
0.0
 11
-0.3919555000003734
 21
0.6598731504243918
 31
0.0
  0
ARC
  5
1F1
100
AcDbEntity
  8
0
 62
256
370
-1
  6
ByLayer
100
AcDbCircle
 10
-0.4338852495882943
 20
0.6584094402910754
 30
0.0
 40
0.0419552898674308
100
AcDbArc
 50
269.9996580276829832
 51
1.9993053310910633
  0
LINE
  5
1F2
100
AcDbEntity
100
AcDbLine
  8
0
 62
256
370
-1
  6
ByLayer
 10
-0.4338855000003735
 20
0.6164541504243919
 30
0.0
 11
-0.4589375000003728
 21
0.6164541504243919
 31
0.0
  0
ARC
  5
1F3
100
AcDbEntity
  8
0
 62
256
370
-1
  6
ByLayer
100
AcDbCircle
 10
-0.4589377446408037
 20
0.6584084678600891
 30
0.0
 40
0.0419543174364105
100
AcDbArc
 50
182.000181570921626
 51
270.0003340983297448
  0
LINE
  5
1F4
100
AcDbEntity
100
AcDbLine
  8
0
 62
256
370
-1
  6
ByLayer
 10
-0.5008665000003731
 20
0.6569441504243919
 30
0.0
 11
-0.5030915000003726
 21
0.7206771504243918
 31
0.0
  0
ARC
  5
1F5
100
AcDbEntity
  8
0
 62
256
370
-1
  6
ByLayer
100
AcDbCircle
 10
-0.5038018593754313
 20
0.7409656029197998
 30
0.0
 40
0.0203008845891049
100
AcDbArc
 50
272.0052773671532691
 51
91.9975994753938693
  0
LINE
  5
1F6
100
AcDbEntity
100
AcDbLine
  8
0
 62
256
370
-1
  6
ByLayer
 10
-0.504509500000375
 20
0.7612541504243919
 30
0.0
 11
-0.507487500000372
 21
0.8465301504243918
 31
0.0
  0
LINE
  5
1F7
100
AcDbEntity
100
AcDbLine
  8
0
 62
256
370
-1
  6
ByLayer
 10
-0.507487500000372
 20
0.8465301504243918
 30
0.0
 11
-0.507487500000374
 21
0.8898371504243918
 31
0.0
  0
ARC
  5
1F8
100
AcDbEntity
  8
0
 62
256
370
-1
  6
ByLayer
100
AcDbCircle
 10
-0.5074878602129134
 20
0.9101381504913941
 30
0.0
 40
0.020301000070198
100
AcDbArc
 50
270.0010166325601517
 51
89.9933387411379044
  0
ARC
  5
1F9
100
AcDbEntity
  8
0
 62
256
370
-1
  6
ByLayer
100
AcDbCircle
 10
-0.4224199689605457
 20
0.9298969856702366
 30
0.0
 40
0.0850672587645123
100
AcDbArc
 50
89.9148186925024504
 51
179.6348305685480966
  0
ARC
  5
1FA
100
AcDbEntity
  8
0
 62
256
370
-1
  6
ByLayer
100
AcDbCircle
 10
-0.4019925020774426
 20
1.0149965106369623
 30
0.0
 40
0.0203010237143397
100
AcDbArc
 50
180.0913305858706508
 51
0.0836526942001625
  0
LINE
  5
1FB
100
AcDbEntity
100
AcDbLine
  8
0
 62
256
370
-1
  6
ByLayer
 10
-0.3816915000003731
 20
1.015026150424392
 30
0.0
 11
-0.3383835000003732
 21
1.0150901504243919
 31
0.0
  0
LINE
  5
1FC
100
AcDbEntity
100
AcDbLine
  8
0
 62
256
370
-1
  6
ByLayer
 10
-0.3383835000003732
 20
1.0150901504243919
 30
0.0
 11
-0.2531035000003732
 21
1.0122371504243919
 31
0.0
  0
ARC
  5
1FD
100
AcDbEntity
  8
0
 62
256
370
-1
  6
ByLayer
100
AcDbCircle
 10
-0.2328139545058485
 20
1.0115595098664512
 30
0.0
 40
0.0203008584325923
100
AcDbArc
 50
178.0871174569072366
 51
358.0794395651539048
  0
LINE
  5
1FE
100
AcDbEntity
100
AcDbLine
  8
0
 62
256
370
-1
  6
ByLayer
 10
-0.212524500000373
 20
1.0108791504243919
 30
0.0
 11
-0.1487895000003732
 21
1.0087471504243917
 31
0.0
  0
ARC
  5
1FF
100
AcDbEntity
  8
0
 62
256
370
-1
  6
ByLayer
100
AcDbCircle
 10
-0.1501912516094077
 20
0.9668157759468267
 30
0.0
 40
0.0419547979753357
100
AcDbArc
 50
0.0851820483664934
 51
88.085334575698198
  0
LINE
  5
200
100
AcDbEntity
100
AcDbLine
  8
0
 62
256
370
-1
  6
ByLayer
 10
-0.1082365000003731
 20
0.9668781504243918
 30
0.0
 11
-0.1082005000003732
 21
0.9425031504243917
 31
0.0
  0
ARC
  5
201
100
AcDbEntity
  8
0
 62
256
370
-1
  6
ByLayer
100
AcDbCircle
 10
-0.1500615986939688
 20
0.9424585364426405
 30
0.0
 40
0.0418611224675395
100
AcDbArc
 50
267.9521073904691093
 51
0.061063659903471
  0
LINE
  5
202
100
AcDbEntity
100
AcDbLine
  8
0
 62
256
370
-1
  6
ByLayer
 10
-0.1515575000003731
 20
0.9006241504243919
 30
0.0
 11
-0.2494235000003731
 21
0.9038971504243918
 31
0.0
  0
ARC
  5
203
100
AcDbEntity
  8
0
 62
256
370
-1
  6
ByLayer
100
AcDbCircle
 10
-0.2502151204492261
 20
0.8802259784049082
 30
0.0
 40
0.0236844051584798
100
AcDbArc
 50
88.0846063223046514
 51
180.0842536258932682
  0
LINE
  5
204
100
AcDbEntity
100
AcDbLine
  8
0
 62
256
370
-1
  6
ByLayer
 10
-0.273899500000373
 20
0.8801911504243918
 30
0.0
 11
-0.2738815000003731
 21
0.8682101504243919
 31
0.0
  0
ARC
  5
205
100
AcDbEntity
  8
0
 62
256
370
-1
  6
ByLayer
100
AcDbCircle
 10
-0.2501971134147516
 20
0.8682455446353675
 30
0.0
 40
0.0236844130323583
100
AcDbArc
 50
180.0856233869989751
 51
225.0855423943436051
  0
LINE
  5
206
100
AcDbEntity
100
AcDbLine
  8
0
 62
256
370
-1
  6
ByLayer
 10
-0.2669195000003731
 20
0.8514731504243918
 30
0.0
 11
-0.1397755000003731
 21
0.7247011504243919
 31
0.0
  0
ARC
  5
207
100
AcDbEntity
  8
0
 62
256
370
-1
  6
ByLayer
100
AcDbCircle
 10
-0.0504282858239574
 20
0.8143106698210409
 30
0.0
 40
0.1265416557801611
100
AcDbArc
 50
225.0839810327376256
 51
270.0841205004306289
  0
LINE
  5
208
100
AcDbEntity
100
AcDbLine
  8
0
 62
256
370
-1
  6
ByLayer
 10
-0.0502425000003734
 20
0.6877691504243917
 30
0.0
 11
0.0511324999996267
 21
0.6879191504243918
 31
0.0
  0
ARC
  5
209
100
AcDbEntity
  8
0
 62
256
370
-1
  6
ByLayer
100
AcDbCircle
 10
0.0509472806254492
 20
0.8144606830188008
 30
0.0
 40
0.1265416681475256
100
AcDbArc
 50
270.083864013876962
 51
315.0837830212233825
  0
LINE
  5
20A
100
AcDbEntity
100
AcDbLine
  8
0
 62
256
370
-1
  6
ByLayer
 10
0.1405564999996268
 20
0.7251131504243917
 30
0.0
 11
0.2673284999996268
 21
0.8522581504243921
 31
0.0
  0
ARC
  5
20B
100
AcDbEntity
  8
0
 62
256
370
-1
  6
ByLayer
100
AcDbCircle
 10
0.2505557641209244
 20
0.8689806891756505
 30
0.0
 40
0.0236847624253246
100
AcDbArc
 50
315.0858652877120676
 51
0.085784295056715
  0
LINE
  5
20C
100
AcDbEntity
100
AcDbLine
  8
0
 62
256
370
-1
  6
ByLayer
 10
0.2742404999996267
 20
0.8690161504243916
 30
0.0
 11
0.2742224999996268
 21
0.8817071504243913
 31
0.0
  0
ARC
  5
20D
100
AcDbEntity
  8
0
 62
256
370
-1
  6
ByLayer
100
AcDbCircle
 10
0.2505379241596228
 20
0.8816722192841389
 30
0.0
 40
0.0236846015990445
100
AcDbArc
 50
0.0845024826476311
 51
92.0843439799646859
  0
LINE
  5
20E
100
AcDbEntity
100
AcDbLine
  8
0
 62
256
370
-1
  6
ByLayer
 10
0.2496764999996268
 20
0.905341150424392
 30
0.0
 11
0.1518204999996269
 21
0.9017801504243915
 31
0.0
  0
ARC
  5
20F
100
AcDbEntity
  8
0
 62
256
370
-1
  6
ByLayer
100
AcDbCircle
 10
0.1487276888475314
 20
0.942050417712738
 30
0.0
 40
0.0403888587149649
100
AcDbArc
 50
180.5210138700065556
 51
274.3917722446868197
  0
LINE
  5
210
100
AcDbEntity
100
AcDbLine
  8
0
 62
256
370
-1
  6
ByLayer
 10
0.1083404999996269
 20
0.9416831504243917
 30
0.0
 11
0.1083044999996268
 21
0.9660581504243919
 31
0.0
  0
ARC
  5
211
100
AcDbEntity
  8
0
 62
256
370
-1
  6
ByLayer
100
AcDbCircle
 10
0.1502591824794683
 20
0.9661202083253888
 30
0.0
 40
0.0419547283767561
100
AcDbArc
 50
92.0853854147626691
 51
180.0847498541102425
  0
LINE
  5
212
100
AcDbEntity
100
AcDbLine
  8
0
 62
256
370
-1
  6
ByLayer
 10
0.1487324999996269
 20
1.0080471504243913
 30
0.0
 11
0.2124624999996267
 21
1.0103671504243921
 31
0.0
  0
ARC
  5
213
100
AcDbEntity
  8
0
 62
256
370
-1
  6
ByLayer
100
AcDbCircle
 10
0.23274995051847
 20
1.0111070097324075
 30
0.0
 40
0.0203009369328159
100
AcDbArc
 50
182.0885836701524738
 51
2.0809057786179674
  0
LINE
  5
214
100
AcDbEntity
100
AcDbLine
  8
0
 62
256
370
-1
  6
ByLayer
 10
0.2530374999996268
 20
1.0118441504243918
 30
0.0
 11
0.3383084999996269
 21
1.0149461504243917
 31
0.0
  0
LINE
  5
215
100
AcDbEntity
100
AcDbLine
  8
0
 62
256
370
-1
  6
ByLayer
 10
0.3383084999996269
 20
1.0149461504243917
 30
0.0
 11
0.3816164999996269
 21
1.0150101504243916
 31
0.0
  0
ARC
  5
216
100
AcDbEntity
  8
0
 62
256
370
-1
  6
ByLayer
100
AcDbCircle
 10
0.4019174979895597
 20
1.015041510636963
 30
0.0
 40
0.0203010222119524
100
AcDbArc
 50
180.0885082790820775
 51
0.0808303874057273
  0
LINE
  5
217
100
AcDbEntity
100
AcDbLine
  8
0
 62
256
370
-1
  6
ByLayer
 10
0.3759364999996267
 20
0.0550091504243917
 30
0.0
 11
0.1405084999996267
 21
0.2904381504243917
 31
0.0
  0
ARC
  5
218
100
AcDbEntity
  8
0
 62
256
370
-1
  6
ByLayer
100
AcDbCircle
 10
0.0510301553792298
 20
0.2009593145695365
 30
0.0
 40
0.1265418358565525
100
AcDbArc
 50
45.0001572759536117
 51
90.0002967425383957
  0
LINE
  5
219
100
AcDbEntity
100
AcDbLine
  8
0
 62
256
370
-1
  6
ByLayer
 10
0.051029499999627
 20
0.3275011504243919
 30
0.0
 11
-0.051029500000373
 21
0.327501150424392
 31
0.0
  0
ARC
  5
21A
100
AcDbEntity
  8
0
 62
256
370
-1
  6
ByLayer
100
AcDbCircle
 10
-0.051029168478977
 20
0.2009593461891298
 30
0.0
 40
0.1265418042356962
100
AcDbArc
 50
90.0001501064218985
 51
134.9998486536494511
  0
LINE
  5
21B
100
AcDbEntity
100
AcDbLine
  8
0
 62
256
370
-1
  6
ByLayer
 10
-0.1405075000003732
 20
0.2904381504243918
 30
0.0
 11
-0.3759355000003729
 21
0.0550121504243919
 31
0.0
  0
ARC
  5
21C
100
AcDbEntity
  8
0
 62
256
370
-1
  6
ByLayer
100
AcDbCircle
 10
-0.3209095822182387
 20
-0.0000148495749204
 30
0.0
 40
0.0778191644563474
100
AcDbArc
 50
134.9994365758034007
 51
224.999522184377355
  0
LINE
  5
21D
100
AcDbEntity
100
AcDbLine
  8
0
 62
256
370
-1
  6
ByLayer
 10
-0.3759365000003738
 20
-0.0550408495756081
 30
0.0
 11
-0.1405135000003733
 21
-0.2904668495756082
 31
0.0
  0
ARC
  5
21E
100
AcDbEntity
  8
0
 62
256
370
-1
  6
ByLayer
100
AcDbCircle
 10
-0.0510341917308867
 20
-0.2009891014603107
 30
0.0
 40
0.1265417481156731
100
AcDbArc
 50
224.9995004932902987
 51
269.9998604243280624
  0
LINE
  5
21F
100
AcDbEntity
100
AcDbLine
  8
0
 62
256
370
-1
  6
ByLayer
 10
-0.0510345000003731
 20
-0.3275308495756082
 30
0.0
 11
0.0510324999996267
 21
-0.3275308495756082
 31
0.0
  0
ARC
  5
220
100
AcDbEntity
  8
0
 62
256
370
-1
  6
ByLayer
100
AcDbCircle
 10
0.0510326684782297
 20
-0.2009878382245835
 30
0.0
 40
0.126543011351137
100
AcDbArc
 50
269.9999237173433357
 51
314.9996222636603989
  0
LINE
  5
221
100
AcDbEntity
100
AcDbLine
  8
0
 62
256
370
-1
  6
ByLayer
 10
0.1405114999996266
 20
-0.2904678495756083
 30
0.0
 11
0.3759364999996267
 21
-0.0550448495756082
 31
0.0
  0
ARC
  5
222
100
AcDbEntity
  8
0
 62
256
370
-1
  6
ByLayer
100
AcDbCircle
 10
0.320909582218239
 20
-0.000017849575608
 30
0.0
 40
0.0778198715593878
100
AcDbArc
 50
314.999957195712966
 51
45.0000428042869274
  0
ENDSEC
  0
SECTION
  2
OBJECTS
  0
DICTIONARY
  5
C
100
AcDbDictionary
280
0
281
1
  3
ACAD_GROUP
350
D
  3
ACAD_LAYOUT
350
1A
  3
ACAD_MLINESTYLE
350
17
  3
ACAD_PLOTSETTINGS
350
19
  3
ACAD_PLOTSTYLENAME
350
E
  3
AcDbVariableDictionary
350
223
  0
DICTIONARY
  5
D
100
AcDbDictionary
280
0
281
1
  0
ACDBDICTIONARYWDFLT
  5
E
100
AcDbDictionary
281
1
  3
Normal
350
F
100
AcDbDictionaryWithDefault
340
F
  0
ACDBPLACEHOLDER
  5
F
  0
DICTIONARY
  5
17
100
AcDbDictionary
280
0
281
1
  3
Standard
350
18
  0
MLINESTYLE
  5
18
100
AcDbMlineStyle
  2
STANDARD
 70
0
  3

 62
256
 51
90.0
 52
90.0
 71
2
 49
0.5
 62
256
  6
BYLAYER
 49
-0.5
 62
256
  6
BYLAYER
  0
DICTIONARY
  5
19
100
AcDbDictionary
280
0
281
1
  0
DICTIONARY
  5
1A
100
AcDbDictionary
281
1
  3
Layout1
350
1E
  3
Layout2
350
26
  3
Model
350
22
  0
LAYOUT
  5
1E
100
AcDbPlotSettings
  1

  2
C:\Program Files\AutoCAD 2002\plotters\DWF ePlot (optimized for plotting).pc3
  4

  6

 40
0.0
 41
0.0
 42
0.0
 43
0.0
 44
0.0
 45
0.0
 46
0.0
 47
0.0
 48
0.0
 49
0.0
140
0.0
141
0.0
142
1.0
143
1.0
 70
688
 72
0
 73
0
 74
5
  7

 75
16
147
1.0
148
0.0
149
0.0
100
AcDbLayout
  1
Layout1
 70
1
 71
1
 10
0.0
 20
0.0
 11
420.0
 21
297.0
 12
0.0
 22
0.0
 32
0.0
 14
100000000000000000000.0
 24
100000000000000000000.0
 34
100000000000000000000.0
 15
-100000000000000000000.0
 25
-100000000000000000000.0
 35
-100000000000000000000.0
146
0.0
 13
0.0
 23
0.0
 33
0.0
 16
1.0
 26
0.0
 36
0.0
 17
0.0
 27
1.0
 37
0.0
 76
0
330
1B
  0
LAYOUT
  5
22
100
AcDbPlotSettings
  1

  2
C:\Program Files\AutoCAD 2002\plotters\DWF ePlot (optimized for plotting).pc3
  4

  6

 40
0.0
 41
0.0
 42
0.0
 43
0.0
 44
0.0
 45
0.0
 46
0.0
 47
0.0
 48
0.0
 49
0.0
140
0.0
141
0.0
142
1.0
143
1.0
 70
1712
 72
0
 73
0
 74
0
  7

 75
0
147
1.0
148
0.0
149
0.0
100
AcDbLayout
  1
Model
 70
1
 71
0
 10
0.0
 20
0.0
 11
12.0
 21
9.0
 12
0.0
 22
0.0
 32
0.0
 14
0.0
 24
0.0
 34
0.0
 15
0.0
 25
0.0
 35
0.0
146
0.0
 13
0.0
 23
0.0
 33
0.0
 16
1.0
 26
0.0
 36
0.0
 17
0.0
 27
1.0
 37
0.0
 76
0
330
1F
  0
LAYOUT
  5
26
100
AcDbPlotSettings
  1

  2
C:\Program Files\AutoCAD 2002\plotters\DWF ePlot (optimized for plotting).pc3
  4

  6

 40
0.0
 41
0.0
 42
0.0
 43
0.0
 44
0.0
 45
0.0
 46
0.0
 47
0.0
 48
0.0
 49
0.0
140
0.0
141
0.0
142
1.0
143
1.0
 70
688
 72
0
 73
0
 74
5
  7

 75
16
147
1.0
148
0.0
149
0.0
100
AcDbLayout
  1
Layout2
 70
1
 71
2
 10
0.0
 20
0.0
 11
12.0
 21
9.0
 12
0.0
 22
0.0
 32
0.0
 14
0.0
 24
0.0
 34
0.0
 15
0.0
 25
0.0
 35
0.0
146
0.0
 13
0.0
 23
0.0
 33
0.0
 16
1.0
 26
0.0
 36
0.0
 17
0.0
 27
1.0
 37
0.0
 76
0
330
23
  0
DICTIONARY
  5
223
100
AcDbDictionary
281
1
  3
DIMASSOC
350
225
  3
HIDETEXT
350
224
  0
DICTIONARYVAR
  5
224
100
DictionaryVariables
280
0
  1
2
  0
DICTIONARYVAR
  5
225
100
DictionaryVariables
280
0
  1
1
  0
ENDSEC
  0
EOF
