999
dxflib 2.0.4.8
  0
SECTION
  2
HEADER
  9
$ACADVER
  1
AC1015
  9
$HANDSEED
  5
FFFF
  9
$DIMTAD
 70
0
  9
$DIMTDEC
 70
4
  9
$USERR4
 40
0.0
  9
$CLAYER
  8
0
  9
$DELOBJ
 70
1
  9
$DIMALTZ
 70
0
  9
$DIMUNIT
 70
2
  9
$MENU
  1
acad
  9
$CHAMFERA
 40
0.0
  9
$ATTREQ
 70
1
  9
$UCSYDIR
 10
0.0
 20
1.0
 30
0.0
  9
$USERR5
 40
0.0
  9
$SHADEDIF
 70
70
  9
$TILEMODE
 70
1
  9
$VISRETAIN
 70
0
  9
$CMLSTYLE
  2
STANDARD
  9
$EXTMIN
 10
-0.763121
 20
2.2113360000000002
 30
0.0
  9
$ORTHOMODE
 70
1
  9
$REGENMODE
 70
1
  9
$TRACEWID
 40
0.05
  9
$DIMASZ
 40
0.18
  9
$DIMUPT
 70
0
  9
$CHAMFERB
 40
0.0
  9
$UCSXDIR
 10
1.0
 20
0.0
 30
0.0
  9
$DIMSHO
 70
0
  9
$DIMALT
 70
0
  9
$DIMSAH
 70
0
  9
$DIMTFAC
 40
1.0
  9
$DIMGAP
 40
0.09
  9
$SKETCHINC
 40
0.1
  9
$CHAMFERC
 40
0.0
  9
$USRTIMER
 70
1
  9
$ANGBASE
 50
0.0
  9
$PUCSYDIR
 10
0.0
 20
1.0
 30
0.0
  9
$PICKSTYLE
 70
1
  9
$CMLJUST
 70
0
  9
$LIMMIN
 10
0.0
 20
0.0
  9
$DIMTSZ
 40
0.0
  9
$DIMALTTD
 70
2
  9
$CHAMFERD
 40
0.0
  9
$SPLFRAME
 70
0
  9
$SURFTYPE
 70
6
  9
$PUCSXDIR
 10
1.0
 20
0.0
 30
0.0
  9
$DWGCODEPAGE
  3
ansi_1252
  9
$LUNITS
 70
2
  9
$AUPREC
 70
4
  9
$BLIPMODE
 70
0
  9
$SPLINESEGS
 70
8
  9
$SURFTAB1
 70
6
  9
$INSBASE
 10
0.0
 20
0.0
 30
0.0
  9
$DIMRND
 40
0.0
  9
$DIMCEN
 40
0.09
  9
$ELEVATION
 40
0.0
  9
$SKPOLY
 70
0
  9
$SURFTAB2
 70
6
  9
$USERI1
 70
0
  9
$UNITMODE
 70
0
  9
$INSUNITS
 70
4
  9
$EXTMAX
 10
3.0000049999999998
 20
6.7634480000000003
 30
0.0
  9
$FILLMODE
 70
1
  9
$DRAGMODE
 70
2
  9
$TEXTSIZE
 40
0.2
  9
$DIMEXO
 40
0.0625
  9
$PELEVATION
 40
0.0
  9
$UCSORG
 10
0.0
 20
0.0
 30
0.0
  9
$USERI2
 70
0
  9
$DIMSCALE
 40
0.3
  9
$DIMDLE
 40
0.0
  9
$DIMZIN
 70
3
  9
$DIMTOLJ
 70
1
  9
$DIMTZIN
 70
0
  9
$TDUSRTIMER
 40
0.010543287
  9
$ANGDIR
 70
0
  9
$SURFU
 70
6
  9
$USERI3
 70
0
  9
$LIMMAX
 10
12.0
 20
9.0
  9
$QTEXTMODE
 70
0
  9
$OSMODE
 70
5
  9
$DIMJUST
 70
0
  9
$DIMALTTZ
 70
0
  9
$SURFV
 70
6
  9
$USERI4
 70
0
  9
$WORLDVIEW
 70
1
  9
$ATTMODE
 70
1
  9
$DIMTXT
 40
0.18
  9
$DIMLIM
 70
0
  9
$DIMSE1
 70
0
  9
$THICKNESS
 40
0.0
  9
$LIMCHECK
 70
0
  9
$PDMODE
 70
0
  9
$HANDLING
 70
1
  9
$USERI5
 70
0
  9
$CELTYPE
  6
CONTINUOUS
  9
$DIMTOH
 70
1
  9
$DIMSE2
 70
0
  9
$DIMLFAC
 40
1.0
  9
$DIMSOXD
 70
0
  9
$LUPREC
 70
3
  9
$TDINDWG
 40
0.010543287
  9
$SPLINETYPE
 70
6
  9
$PUCSORG
 10
0.0
 20
0.0
 30
0.0
  9
$PEXTMIN
 10
100000000000000000000.0
 20
100000000000000000000.0
 30
100000000000000000000.0
  9
$PEXTMAX
 10
-100000000000000000000.0
 20
-100000000000000000000.0
 30
-100000000000000000000.0
  9
$CECOLOR
 62
256
  9
$DISPSILH
 70
0
  9
$DIMDLI
 40
0.38
  9
$DIMTM
 40
0.0
  9
$DIMASO
 70
1
  9
$DIMTVP
 40
0.0
  9
$DIMSTYLE
  2
STANDARD
  9
$PLINEWID
 40
0.0
  9
$PLIMCHECK
 70
0
  9
$LTSCALE
 40
1.0
  9
$DIMTIH
 70
1
  9
$DIMALTD
 70
2
  9
$DIMCLRT
 70
0
  9
$DIMDEC
 70
4
  9
$DIMALTU
 70
2
  9
$FILLETRAD
 40
0.0
  9
$TDUPDATE
 40
2450623.457597338128835
  9
$MAXACTVP
 70
16
  9
$PLIMMIN
 10
0.0
 20
0.0
  9
$PLIMMAX
 10
12.0
 20
9.0
  9
$TREEDEPTH
 70
3020
  9
$CELTSCALE
 40
1.0
  9
$DIMEXE
 40
0.18
  9
$DIMCLRD
 70
0
  9
$DIMTXSTY
  7
STANDARD
  9
$PDSIZE
 40
0.0
  9
$ATTDIA
 70
1
  9
$USERR1
 40
0.0
  9
$PINSBASE
 10
0.0
 20
0.0
 30
0.0
  9
$CMLSCALE
 40
1.0
  9
$TEXTSTYLE
  7
STANDARD
  9
$DIMTP
 40
0.0
  9
$DIMTOL
 70
0
  9
$DIMALTF
 40
25.3999999999999986
  9
$DIMTOFL
 70
0
  9
$DIMCLRE
 70
0
  9
$DIMSD1
 70
0
  9
$DIMFIT
 70
3
  9
$DIMAUNIT
 70
0
  9
$TDCREATE
 40
2450490.3905164347961545
  9
$COORDS
 70
2
  9
$USERR2
 40
0.0
  9
$SHADEDGE
 70
3
  9
$PLINEGEN
 70
0
  9
$PSLTSCALE
 70
0
  9
$SAVEIMAGES
 70
0
  9
$MIRRTEXT
 70
1
  9
$DIMTIX
 70
0
  9
$DIMSD2
 70
0
  9
$AUNITS
 70
0
  9
$USERR3
 40
0.0
  0
ENDSEC
  0
SECTION
  2
TABLES
  0
TABLE
  2
VPORT
  5
8
100
AcDbSymbolTable
 70
1
  0
VPORT
  5
30
100
AcDbSymbolTableRecord
100
AcDbViewportTableRecord
  2
*Active
 70
0
 10
0.0
 20
0.0
 11
1.0
 21
1.0
 12
286.3055555555554861
 22
148.5
 13
0.0
 23
0.0
 14
10.0
 24
10.0
 15
10.0
 25
10.0
 16
0.0
 26
0.0
 36
1.0
 17
0.0
 27
0.0
 37
0.0
 40
297.0
 41
1.92798353909465
 42
50.0
 43
0.0
 44
0.0
 50
0.0
 51
0.0
 71
0
 72
100
 73
1
 74
3
 75
1
 76
1
 77
0
 78
0
281
0
 65
1
110
0.0
120
0.0
130
0.0
111
1.0
121
0.0
131
0.0
112
0.0
122
1.0
132
0.0
 79
0
146
0.0
  0
ENDTAB
  0
TABLE
  2
LTYPE
  5
5
100
AcDbSymbolTable
 70
21
  0
LTYPE
  5
14
100
AcDbSymbolTableRecord
100
AcDbLinetypeTableRecord
  2
ByBlock
 70
0
  3

 72
65
 73
0
 40
0.0
  0
LTYPE
  5
15
100
AcDbSymbolTableRecord
100
AcDbLinetypeTableRecord
  2
ByLayer
 70
0
  3

 72
65
 73
0
 40
0.0
  0
LTYPE
  5
16
100
AcDbSymbolTableRecord
100
AcDbLinetypeTableRecord
  2
CONTINUOUS
 70
0
  3
Solid line
 72
65
 73
0
 40
0.0
  0
LTYPE
  5
31
100
AcDbSymbolTableRecord
100
AcDbLinetypeTableRecord
  2
DOT
 70
0
  3
Dot . . . . . . . . . . . . . . . . . . . . . .
 72
65
 73
2
 40
6.3499999999999996
 49
0.0
 74
0
 49
-6.3499999999999996
 74
0
  0
LTYPE
  5
32
100
AcDbSymbolTableRecord
100
AcDbLinetypeTableRecord
  2
DOT2
 70
0
  3
Dot (.5x) .....................................
 72
65
 73
2
 40
3.1749999999999998
 49
0.0
 74
0
 49
-3.1749999999999998
 74
0
  0
LTYPE
  5
33
100
AcDbSymbolTableRecord
100
AcDbLinetypeTableRecord
  2
DOTX2
 70
0
  3
Dot (2x) .  .  .  .  .  .  .  .  .  .  .  .  .
 72
65
 73
2
 40
12.6999999999999993
 49
0.0
 74
0
 49
-12.6999999999999993
 74
0
  0
LTYPE
  5
34
100
AcDbSymbolTableRecord
100
AcDbLinetypeTableRecord
  2
DASHED
 70
0
  3
Dashed __ __ __ __ __ __ __ __ __ __ __ __ __ _
 72
65
 73
2
 40
19.0500000000000007
 49
12.6999999999999993
 74
0
 49
-6.3499999999999996
 74
0
  0
LTYPE
  5
35
100
AcDbSymbolTableRecord
100
AcDbLinetypeTableRecord
  2
DASHED2
 70
0
  3
Dashed (.5x) _ _ _ _ _ _ _ _ _ _ _ _ _ _ _ _ _
 72
65
 73
2
 40
9.5250000000000004
 49
6.3499999999999996
 74
0
 49
-3.1749999999999998
 74
0
  0
LTYPE
  5
36
100
AcDbSymbolTableRecord
100
AcDbLinetypeTableRecord
  2
DASHEDX2
 70
0
  3
Dashed (2x) ____  ____  ____  ____  ____  ___
 72
65
 73
2
 40
38.1000000000000014
 49
25.3999999999999986
 74
0
 49
-12.6999999999999993
 74
0
  0
LTYPE
  5
37
100
AcDbSymbolTableRecord
100
AcDbLinetypeTableRecord
  2
DASHDOT
 70
0
  3
Dash dot __ . __ . __ . __ . __ . __ . __ . __
 72
65
 73
4
 40
25.3999999999999986
 49
12.6999999999999993
 74
0
 49
-6.3499999999999996
 74
0
 49
0.0
 74
0
 49
-6.3499999999999996
 74
0
  0
LTYPE
  5
38
100
AcDbSymbolTableRecord
100
AcDbLinetypeTableRecord
  2
DASHDOT2
 70
0
  3
Dash dot (.5x) _._._._._._._._._._._._._._._.
 72
65
 73
4
 40
12.6999999999999993
 49
6.3499999999999996
 74
0
 49
-3.1749999999999998
 74
0
 49
0.0
 74
0
 49
-3.1749999999999998
 74
0
  0
LTYPE
  5
39
100
AcDbSymbolTableRecord
100
AcDbLinetypeTableRecord
  2
DASHDOTX2
 70
0
  3
Dash dot (2x) ____  .  ____  .  ____  .  ___
 72
65
 73
4
 40
50.7999999999999972
 49
25.3999999999999986
 74
0
 49
-12.6999999999999993
 74
0
 49
0.0
 74
0
 49
-12.6999999999999993
 74
0
  0
LTYPE
  5
3A
100
AcDbSymbolTableRecord
100
AcDbLinetypeTableRecord
  2
DIVIDE
 70
0
  3
Divide ____ . . ____ . . ____ . . ____ . . ____
 72
65
 73
6
 40
31.75
 49
12.6999999999999993
 74
0
 49
-6.3499999999999996
 74
0
 49
0.0
 74
0
 49
-6.3499999999999996
 74
0
 49
0.0
 74
0
 49
-6.3499999999999996
 74
0
  0
LTYPE
  5
3B
100
AcDbSymbolTableRecord
100
AcDbLinetypeTableRecord
  2
DIVIDE2
 70
0
  3
Divide (.5x) __..__..__..__..__..__..__..__.._
 72
65
 73
6
 40
15.875
 49
6.3499999999999996
 74
0
 49
-3.1749999999999998
 74
0
 49
0.0
 74
0
 49
-3.1749999999999998
 74
0
 49
0.0
 74
0
 49
-3.1749999999999998
 74
0
  0
LTYPE
  5
3C
100
AcDbSymbolTableRecord
100
AcDbLinetypeTableRecord
  2
DIVIDEX2
 70
0
  3
Divide (2x) ________  .  .  ________  .  .  _
 72
65
 73
6
 40
63.5
 49
25.3999999999999986
 74
0
 49
-12.6999999999999993
 74
0
 49
0.0
 74
0
 49
-12.6999999999999993
 74
0
 49
0.0
 74
0
 49
-12.6999999999999993
 74
0
  0
LTYPE
  5
3D
100
AcDbSymbolTableRecord
100
AcDbLinetypeTableRecord
  2
CENTER
 70
0
  3
Center ____ _ ____ _ ____ _ ____ _ ____ _ ____
 72
65
 73
4
 40
50.7999999999999972
 49
31.75
 74
0
 49
-6.3499999999999996
 74
0
 49
6.3499999999999996
 74
0
 49
-6.3499999999999996
 74
0
  0
LTYPE
  5
3E
100
AcDbSymbolTableRecord
100
AcDbLinetypeTableRecord
  2
CENTER2
 70
0
  3
Center (.5x) ___ _ ___ _ ___ _ ___ _ ___ _ ___
 72
65
 73
4
 40
28.5749999999999993
 49
19.0500000000000007
 74
0
 49
-3.1749999999999998
 74
0
 49
3.1749999999999998
 74
0
 49
-3.1749999999999998
 74
0
  0
LTYPE
  5
3F
100
AcDbSymbolTableRecord
100
AcDbLinetypeTableRecord
  2
CENTERX2
 70
0
  3
Center (2x) ________  __  ________  __  _____
 72
65
 73
4
 40
101.5999999999999943
 49
63.5
 74
0
 49
-12.6999999999999993
 74
0
 49
12.6999999999999993
 74
0
 49
-12.6999999999999993
 74
0
  0
LTYPE
  5
40
100
AcDbSymbolTableRecord
100
AcDbLinetypeTableRecord
  2
BORDER
 70
0
  3
Border __ __ . __ __ . __ __ . __ __ . __ __ .
 72
65
 73
6
 40
44.4500000000000028
 49
12.6999999999999993
 74
0
 49
-6.3499999999999996
 74
0
 49
12.6999999999999993
 74
0
 49
-6.3499999999999996
 74
0
 49
0.0
 74
0
 49
-6.3499999999999996
 74
0
  0
LTYPE
  5
41
100
AcDbSymbolTableRecord
100
AcDbLinetypeTableRecord
  2
BORDER2
 70
0
  3
Border (.5x) __.__.__.__.__.__.__.__.__.__.__.
 72
65
 73
6
 40
22.2250000000000014
 49
6.3499999999999996
 74
0
 49
-3.1749999999999998
 74
0
 49
6.3499999999999996
 74
0
 49
-3.1749999999999998
 74
0
 49
0.0
 74
0
 49
-3.1749999999999998
 74
0
  0
LTYPE
  5
42
100
AcDbSymbolTableRecord
100
AcDbLinetypeTableRecord
  2
BORDERX2
 70
0
  3
Border (2x) ____  ____  .  ____  ____  .  ___
 72
65
 73
6
 40
88.9000000000000057
 49
25.3999999999999986
 74
0
 49
-12.6999999999999993
 74
0
 49
25.3999999999999986
 74
0
 49
-12.6999999999999993
 74
0
 49
0.0
 74
0
 49
-12.6999999999999993
 74
0
  0
ENDTAB
  0
TABLE
  2
LAYER
  5
2
100
AcDbSymbolTable
 70
2
  0
LAYER
  5
10
100
AcDbSymbolTableRecord
100
AcDbLayerTableRecord
  2
0
 70
0
 62
7
  6
CONTINUOUS
390
F
  0
LAYER
  5
43
100
AcDbSymbolTableRecord
100
AcDbLayerTableRecord
  2
ASHADE
 70
0
 62
7
  6
CONTINUOUS
390
F
  0
ENDTAB
  0
TABLE
  2
STYLE
  5
3
100
AcDbSymbolTable
 70
1
  0
STYLE
  5
11
100
AcDbSymbolTableRecord
100
AcDbTextStyleTableRecord
  2
Standard
 70
0
 40
0.0
 41
0.75
 50
0.0
 71
0
 42
2.5
  3
txt
  4

  0
ENDTAB
  0
TABLE
  2
VIEW
  5
6
100
AcDbSymbolTable
 70
0
  0
ENDTAB
  0
TABLE
  2
UCS
  5
7
100
AcDbSymbolTable
 70
0
  0
ENDTAB
  0
TABLE
  2
APPID
  5
9
100
AcDbSymbolTable
 70
1
  0
APPID
  5
12
100
AcDbSymbolTableRecord
100
AcDbRegAppTableRecord
  2
ACAD
 70
0
  0
ENDTAB
  0
TABLE
  2
DIMSTYLE
  5
A
100
AcDbSymbolTable
 70
1
100
AcDbDimStyleTable
 71
0
  0
DIMSTYLE
105
27
100
AcDbSymbolTableRecord
100
AcDbDimStyleTableRecord
  2
Standard
 41
0.18
 42
0.0625
 43
3.75
 44
0.18
 70
0
 73
0
 74
0
 77
1
 78
8
140
0.18
141
2.5
143
0.03937007874016
147
0.09
171
3
172
1
271
2
272
2
274
3
278
44
283
0
284
8
340
11
  0
ENDTAB
  0
TABLE
  2
BLOCK_RECORD
  5
1
100
AcDbSymbolTable
 70
1
  0
BLOCK_RECORD
  5
1F
100
AcDbSymbolTableRecord
100
AcDbBlockTableRecord
  2
*Model_Space
340
22
  0
BLOCK_RECORD
  5
1B
100
AcDbSymbolTableRecord
100
AcDbBlockTableRecord
  2
*Paper_Space
340
1E
  0
BLOCK_RECORD
  5
23
100
AcDbSymbolTableRecord
100
AcDbBlockTableRecord
  2
*Paper_Space0
340
26
  0
BLOCK_RECORD
  5
44
100
AcDbSymbolTableRecord
100
AcDbBlockTableRecord
  2
AVE_RENDER
340
0
  0
ENDTAB
  0
ENDSEC
  0
SECTION
  2
BLOCKS
  0
BLOCK
  5
20
100
AcDbEntity
  8
0
100
AcDbBlockBegin
  2
*Model_Space
 70
0
 10
0.0
 20
0.0
 30
0.0
  3
*Model_Space
  1

  0
ENDBLK
  5
21
100
AcDbEntity
  8
0
100
AcDbBlockEnd
  0
BLOCK
  5
1C
100
AcDbEntity
 67
1
  8
0
100
AcDbBlockBegin
  2
*Paper_Space
 70
0
 10
0.0
 20
0.0
 30
0.0
  3
*Paper_Space
  1

  0
ENDBLK
  5
1D
100
AcDbEntity
 67
1
  8
0
100
AcDbBlockEnd
  0
BLOCK
  5
24
100
AcDbEntity
  8
0
100
AcDbBlockBegin
  2
*Paper_Space0
 70
0
 10
0.0
 20
0.0
 30
0.0
  3
*Paper_Space0
  1

  0
ENDBLK
  5
25
100
AcDbEntity
  8
0
100
AcDbBlockEnd
  0
BLOCK
  5
45
100
AcDbEntity
  8
0
100
AcDbBlockBegin
  2
AVE_RENDER
 70
0
 10
0.0
 20
0.0
 30
0.0
  3
AVE_RENDER
  1

  0
ENDBLK
  5
46
100
AcDbEntity
  8
0
100
AcDbBlockEnd
  0
ENDSEC
  0
SECTION
  2
ENTITIES
  0
CIRCLE
  5
47
100
AcDbEntity
100
AcDbCircle
  8
0
 62
7
370
-1
  6
CONTINUOUS
 10
-0.0000030405776716
 20
1.4999984413937895
 30
0.0
 40
0.1285
  0
CIRCLE
  5
48
100
AcDbEntity
100
AcDbCircle
  8
0
 62
7
370
-1
  6
CONTINUOUS
 10
-0.0000030405776716
 20
-0.0000025586062107
 30
0.0
 40
0.1285
  0
INSERT
  5
49
100
AcDbEntity
100
AcDbBlockReference
  8
ASHADE
 62
1
370
-1
  6
CONTINUOUS
  2
AVE_RENDER
 10
-0.0126120405776716
 20
-4.4873945586062103
 30
0.0
  0
INSERT
  5
4A
100
AcDbEntity
100
AcDbBlockReference
  8
ASHADE
 62
3
370
-1
  6
CONTINUOUS
  2
AVE_RENDER
 10
-0.0126120405776716
 20
-4.4873945586062103
 30
0.0
  0
INSERT
  5
4B
100
AcDbEntity
100
AcDbBlockReference
  8
ASHADE
 62
4
370
-1
  6
CONTINUOUS
  2
AVE_RENDER
 10
-0.0126120405776716
 20
-4.4873945586062103
 30
0.0
  0
ARC
  5
4C
100
AcDbEntity
  8
0
 62
7
370
-1
  6
CONTINUOUS
100
AcDbCircle
 10
0.6225929594223285
 20
2.1227134413937896
 30
0.0
 40
0.127355
100
AcDbArc
 50
359.7223960000000034
 51
89.3952490000000068
  0
ARC
  5
4D
100
AcDbEntity
  8
0
 62
7
370
-1
  6
CONTINUOUS
100
AcDbCircle
 10
0.7485359594223285
 20
2.0935464413937894
 30
0.0
 40
0.028585
100
AcDbArc
 50
87.1705390000000051
 51
272.8375050000000215
  0
LINE
  5
4E
100
AcDbEntity
100
AcDbLine
  8
0
 62
7
370
-1
  6
CONTINUOUS
 10
0.7499509594223285
 20
2.0649964413937894
 30
0.0
 11
0.7499509594223285
 21
2.0009974413937894
 31
0.0
  0
LINE
  5
4F
100
AcDbEntity
100
AcDbLine
  8
0
 62
7
370
-1
  6
CONTINUOUS
 10
0.7499509594223285
 20
2.0009974413937894
 30
0.0
 11
0.7455499594223285
 21
1.8749794413937895
 31
0.0
  0
ARC
  5
50
100
AcDbEntity
  8
0
 62
7
370
-1
  6
CONTINUOUS
100
AcDbCircle
 10
0.7445039594223285
 20
1.8449974413937891
 30
0.0
 40
0.03
100
AcDbArc
 50
88.0028549999999967
 51
267.9952149999999733
  0
LINE
  5
51
100
AcDbEntity
100
AcDbLine
  8
0
 62
7
370
-1
  6
CONTINUOUS
 10
0.7434549594223285
 20
1.8150154413937896
 30
0.0
 11
0.7401659594223284
 21
1.7208334413937896
 31
0.0
  0
ARC
  5
52
100
AcDbEntity
  8
0
 62
7
370
-1
  6
CONTINUOUS
100
AcDbCircle
 10
0.6782039594223285
 20
1.7229974413937892
 30
0.0
 40
0.062
100
AcDbArc
 50
270.0
 51
358.0000800000000254
  0
LINE
  5
53
100
AcDbEntity
100
AcDbLine
  8
0
 62
7
370
-1
  6
CONTINUOUS
 10
0.6782039594223285
 20
1.6609974413937898
 30
0.0
 11
0.6411829594223285
 21
1.6609974413937898
 31
0.0
  0
ARC
  5
54
100
AcDbEntity
  8
0
 62
7
370
-1
  6
CONTINUOUS
100
AcDbCircle
 10
0.6411829594223285
 20
1.7229974413937892
 30
0.0
 40
0.062
100
AcDbArc
 50
178.0004219999999862
 51
270.0
  0
LINE
  5
55
100
AcDbEntity
100
AcDbLine
  8
0
 62
7
370
-1
  6
CONTINUOUS
 10
0.5792209594223285
 20
1.7251604413937895
 30
0.0
 11
0.5842699594223285
 21
1.8697764413937896
 31
0.0
  0
ARC
  5
56
100
AcDbEntity
  8
0
 62
7
370
-1
  6
CONTINUOUS
100
AcDbCircle
 10
0.5492909594223285
 20
1.8709974413937898
 30
0.0
 40
0.035
100
AcDbArc
 50
358.0004220000000146
 51
90.0
  0
LINE
  5
57
100
AcDbEntity
100
AcDbLine
  8
0
 62
7
370
-1
  6
CONTINUOUS
 10
0.5492909594223285
 20
1.9059974413937899
 30
0.0
 11
0.5315849594223285
 21
1.9059974413937899
 31
0.0
  0
ARC
  5
58
100
AcDbEntity
  8
0
 62
7
370
-1
  6
CONTINUOUS
100
AcDbCircle
 10
0.5315849594223285
 20
1.8709974413937898
 30
0.0
 40
0.035
100
AcDbArc
 50
90.0
 51
134.9998569999999916
  0
LINE
  5
59
100
AcDbEntity
100
AcDbLine
  8
0
 62
7
370
-1
  6
CONTINUOUS
 10
0.5068369594223285
 20
1.8957464413937897
 30
0.0
 11
0.3192209594223284
 21
1.7081314413937896
 31
0.0
  0
ARC
  5
5A
100
AcDbEntity
  8
0
 62
7
370
-1
  6
CONTINUOUS
100
AcDbCircle
 10
0.4514499594223284
 20
1.5759024413937899
 30
0.0
 40
0.187
100
AcDbArc
 50
134.9998569999999916
 51
180.0
  0
LINE
  5
5B
100
AcDbEntity
100
AcDbLine
  8
0
 62
7
370
-1
  6
CONTINUOUS
 10
0.2644499594223284
 20
1.5759024413937899
 30
0.0
 11
0.2644499594223284
 21
1.4260924413937894
 31
0.0
  0
ARC
  5
5C
100
AcDbEntity
  8
0
 62
7
370
-1
  6
CONTINUOUS
100
AcDbCircle
 10
0.4514499594223284
 20
1.4260924413937894
 30
0.0
 40
0.187
100
AcDbArc
 50
180.0
 51
224.9999899999999968
  0
LINE
  5
5D
100
AcDbEntity
100
AcDbLine
  8
0
 62
7
370
-1
  6
CONTINUOUS
 10
0.3192209594223284
 20
1.2938634413937897
 30
0.0
 11
0.5068369594223285
 21
1.1062474413937895
 31
0.0
  0
ARC
  5
5E
100
AcDbEntity
  8
0
 62
7
370
-1
  6
CONTINUOUS
100
AcDbCircle
 10
0.5315849594223285
 20
1.1309964413937894
 30
0.0
 40
0.035
100
AcDbArc
 50
224.9999899999999968
 51
270.0
  0
LINE
  5
5F
100
AcDbEntity
100
AcDbLine
  8
0
 62
7
370
-1
  6
CONTINUOUS
 10
0.5315849594223285
 20
1.0959964413937893
 30
0.0
 11
0.5503399594223285
 21
1.0959964413937893
 31
0.0
  0
ARC
  5
60
100
AcDbEntity
  8
0
 62
7
370
-1
  6
CONTINUOUS
100
AcDbCircle
 10
0.5503399594223285
 20
1.1309964413937894
 30
0.0
 40
0.035
100
AcDbArc
 50
270.0
 51
1.9998530000000001
  0
LINE
  5
61
100
AcDbEntity
100
AcDbLine
  8
0
 62
7
370
-1
  6
CONTINUOUS
 10
0.5853189594223285
 20
1.1322174413937895
 30
0.0
 11
0.5802689594223285
 21
1.2768334413937896
 31
0.0
  0
ARC
  5
62
100
AcDbEntity
  8
0
 62
7
370
-1
  6
CONTINUOUS
100
AcDbCircle
 10
0.6422309594223284
 20
1.2789974413937892
 30
0.0
 40
0.062
100
AcDbArc
 50
90.0
 51
181.9998530000000017
  0
LINE
  5
63
100
AcDbEntity
100
AcDbLine
  8
0
 62
7
370
-1
  6
CONTINUOUS
 10
0.6422309594223284
 20
1.3409974413937895
 30
0.0
 11
0.6782519594223285
 21
1.3409974413937895
 31
0.0
  0
ARC
  5
64
100
AcDbEntity
  8
0
 62
7
370
-1
  6
CONTINUOUS
100
AcDbCircle
 10
0.6782519594223285
 20
1.2789974413937892
 30
0.0
 40
0.062
100
AcDbArc
 50
2.000642
 51
90.0
  0
LINE
  5
65
100
AcDbEntity
100
AcDbLine
  8
0
 62
7
370
-1
  6
CONTINUOUS
 10
0.7402139594223285
 20
1.2811614413937897
 30
0.0
 11
0.7435039594223285
 21
1.1869794413937897
 31
0.0
  0
ARC
  5
66
100
AcDbEntity
  8
0
 62
7
370
-1
  6
CONTINUOUS
100
AcDbCircle
 10
0.7445529594223285
 20
1.1569974413937893
 30
0.0
 40
0.03
100
AcDbArc
 50
92.003863999999993
 51
271.9962239999999838
  0
LINE
  5
67
100
AcDbEntity
100
AcDbLine
  8
0
 62
7
370
-1
  6
CONTINUOUS
 10
0.7455979594223285
 20
1.1270154413937898
 30
0.0
 11
0.7499979594223285
 21
1.0009974413937897
 31
0.0
  0
LINE
  5
68
100
AcDbEntity
100
AcDbLine
  8
0
 62
7
370
-1
  6
CONTINUOUS
 10
0.7499979594223285
 20
1.0009974413937897
 30
0.0
 11
0.7499979594223285
 21
0.9369974413937896
 31
0.0
  0
ARC
  5
69
100
AcDbEntity
  8
0
 62
7
370
-1
  6
CONTINUOUS
100
AcDbCircle
 10
0.7499999594223284
 20
0.9069974413937893
 30
0.0
 40
0.03
100
AcDbArc
 50
90.0038200000000046
 51
269.9961799999999812
  0
LINE
  5
6A
100
AcDbEntity
100
AcDbLine
  8
0
 62
7
370
-1
  6
CONTINUOUS
 10
0.7499979594223285
 20
0.8769974413937891
 30
0.0
 11
0.7499979594223285
 21
0.6249974413937893
 31
0.0
  0
ARC
  5
6B
100
AcDbEntity
  8
0
 62
7
370
-1
  6
CONTINUOUS
100
AcDbCircle
 10
0.7499979594223285
 20
0.5949974413937891
 30
0.0
 40
0.03
100
AcDbArc
 50
90.0
 51
269.9923600000000192
  0
LINE
  5
6C
100
AcDbEntity
100
AcDbLine
  8
0
 62
7
370
-1
  6
CONTINUOUS
 10
0.7499939594223285
 20
0.5649974413937897
 30
0.0
 11
0.7499979594223285
 21
0.5009974413937897
 31
0.0
  0
LINE
  5
6D
100
AcDbEntity
100
AcDbLine
  8
0
 62
7
370
-1
  6
CONTINUOUS
 10
0.7499979594223285
 20
0.5009974413937897
 30
0.0
 11
0.7455979594223285
 21
0.3749794413937894
 31
0.0
  0
ARC
  5
6E
100
AcDbEntity
  8
0
 62
7
370
-1
  6
CONTINUOUS
100
AcDbCircle
 10
0.7445529594223285
 20
0.344997441393789
 30
0.0
 40
0.03
100
AcDbArc
 50
88.0038090000000039
 51
267.9961700000000064
  0
LINE
  5
6F
100
AcDbEntity
100
AcDbLine
  8
0
 62
7
370
-1
  6
CONTINUOUS
 10
0.7435039594223285
 20
0.3150154413937895
 30
0.0
 11
0.7402139594223285
 21
0.2208334413937895
 31
0.0
  0
ARC
  5
70
100
AcDbEntity
  8
0
 62
7
370
-1
  6
CONTINUOUS
100
AcDbCircle
 10
0.6782519594223285
 20
0.2229974413937892
 30
0.0
 40
0.062
100
AcDbArc
 50
270.0
 51
357.9993579999999724
  0
LINE
  5
71
100
AcDbEntity
100
AcDbLine
  8
0
 62
7
370
-1
  6
CONTINUOUS
 10
0.6782519594223285
 20
0.1609974413937898
 30
0.0
 11
0.6422309594223284
 21
0.1609974413937898
 31
0.0
  0
ARC
  5
72
100
AcDbEntity
  8
0
 62
7
370
-1
  6
CONTINUOUS
100
AcDbCircle
 10
0.6422309594223284
 20
0.2229974413937892
 30
0.0
 40
0.062
100
AcDbArc
 50
178.0000269999999887
 51
270.0
  0
LINE
  5
73
100
AcDbEntity
100
AcDbLine
  8
0
 62
7
370
-1
  6
CONTINUOUS
 10
0.5802689594223285
 20
0.2251614413937897
 30
0.0
 11
0.5853189594223285
 21
0.3697774413937897
 31
0.0
  0
ARC
  5
74
100
AcDbEntity
  8
0
 62
7
370
-1
  6
CONTINUOUS
100
AcDbCircle
 10
0.5503399594223285
 20
0.3709984413937898
 30
0.0
 40
0.035
100
AcDbArc
 50
358.0000269999999887
 51
90.0
  0
LINE
  5
75
100
AcDbEntity
100
AcDbLine
  8
0
 62
7
370
-1
  6
CONTINUOUS
 10
0.5503399594223285
 20
0.4059984413937891
 30
0.0
 11
0.5315849594223285
 21
0.4059984413937891
 31
0.0
  0
ARC
  5
76
100
AcDbEntity
  8
0
 62
7
370
-1
  6
CONTINUOUS
100
AcDbCircle
 10
0.5315849594223285
 20
0.3709984413937898
 30
0.0
 40
0.035
100
AcDbArc
 50
90.0
 51
135.0
  0
LINE
  5
77
100
AcDbEntity
100
AcDbLine
  8
0
 62
7
370
-1
  6
CONTINUOUS
 10
0.5068369594223285
 20
0.3957474413937898
 30
0.0
 11
0.3192209594223284
 21
0.2081314413937896
 31
0.0
  0
ARC
  5
78
100
AcDbEntity
  8
0
 62
7
370
-1
  6
CONTINUOUS
100
AcDbCircle
 10
0.4514499594223284
 20
0.0759024413937898
 30
0.0
 40
0.187
100
AcDbArc
 50
135.0
 51
180.0
  0
ARC
  5
79
100
AcDbEntity
  8
0
 62
7
370
-1
  6
CONTINUOUS
100
AcDbCircle
 10
-0.4514560405776716
 20
0.0759024413937898
 30
0.0
 40
0.187
100
AcDbArc
 50
360.0
 51
45.0
  0
LINE
  5
7A
100
AcDbEntity
100
AcDbLine
  8
0
 62
7
370
-1
  6
CONTINUOUS
 10
-0.3192270405776716
 20
0.2081314413937896
 30
0.0
 11
-0.5068430405776715
 21
0.3957474413937898
 31
0.0
  0
ARC
  5
7B
100
AcDbEntity
  8
0
 62
7
370
-1
  6
CONTINUOUS
100
AcDbCircle
 10
-0.5315910405776715
 20
0.3709984413937898
 30
0.0
 40
0.035
100
AcDbArc
 50
45.0
 51
90.0
  0
LINE
  5
7C
100
AcDbEntity
100
AcDbLine
  8
0
 62
7
370
-1
  6
CONTINUOUS
 10
-0.5315910405776715
 20
0.4059984413937891
 30
0.0
 11
-0.5503460405776716
 21
0.4059984413937891
 31
0.0
  0
ARC
  5
7D
100
AcDbEntity
  8
0
 62
7
370
-1
  6
CONTINUOUS
100
AcDbCircle
 10
-0.5503460405776716
 20
0.3709984413937898
 30
0.0
 40
0.035
100
AcDbArc
 50
90.0
 51
181.9999730000000113
  0
LINE
  5
7E
100
AcDbEntity
100
AcDbLine
  8
0
 62
7
370
-1
  6
CONTINUOUS
 10
-0.5853250405776715
 20
0.3697774413937897
 30
0.0
 11
-0.5802750405776715
 21
0.2251614413937897
 31
0.0
  0
ARC
  5
7F
100
AcDbEntity
  8
0
 62
7
370
-1
  6
CONTINUOUS
100
AcDbCircle
 10
-0.6422370405776715
 20
0.2229974413937892
 30
0.0
 40
0.062
100
AcDbArc
 50
270.0
 51
1.9999729999999998
  0
LINE
  5
80
100
AcDbEntity
100
AcDbLine
  8
0
 62
7
370
-1
  6
CONTINUOUS
 10
-0.6422370405776715
 20
0.1609974413937898
 30
0.0
 11
-0.6782580405776715
 21
0.1609974413937898
 31
0.0
  0
ARC
  5
81
100
AcDbEntity
  8
0
 62
7
370
-1
  6
CONTINUOUS
100
AcDbCircle
 10
-0.6782580405776715
 20
0.2229974413937892
 30
0.0
 40
0.062
100
AcDbArc
 50
182.0006419999999991
 51
270.0
  0
LINE
  5
82
100
AcDbEntity
100
AcDbLine
  8
0
 62
7
370
-1
  6
CONTINUOUS
 10
-0.7402200405776715
 20
0.2208334413937895
 30
0.0
 11
-0.7435100405776716
 21
0.3150154413937895
 31
0.0
  0
ARC
  5
83
100
AcDbEntity
  8
0
 62
7
370
-1
  6
CONTINUOUS
100
AcDbCircle
 10
-0.7445590405776715
 20
0.344997441393789
 30
0.0
 40
0.03
100
AcDbArc
 50
272.0038299999999936
 51
91.9961909999999961
  0
LINE
  5
84
100
AcDbEntity
100
AcDbLine
  8
0
 62
7
370
-1
  6
CONTINUOUS
 10
-0.7456040405776715
 20
0.3749794413937894
 30
0.0
 11
-0.7500040405776716
 21
0.5009974413937897
 31
0.0
  0
LINE
  5
85
100
AcDbEntity
100
AcDbLine
  8
0
 62
7
370
-1
  6
CONTINUOUS
 10
-0.7500040405776716
 20
0.5009974413937897
 30
0.0
 11
-0.7500000405776716
 21
0.5649974413937897
 31
0.0
  0
ARC
  5
86
100
AcDbEntity
  8
0
 62
7
370
-1
  6
CONTINUOUS
100
AcDbCircle
 10
-0.7500040405776716
 20
0.5949974413937891
 30
0.0
 40
0.03
100
AcDbArc
 50
270.0076399999999808
 51
90.0
  0
LINE
  5
87
100
AcDbEntity
100
AcDbLine
  8
0
 62
7
370
-1
  6
CONTINUOUS
 10
-0.7500040405776716
 20
0.6249974413937893
 30
0.0
 11
-0.7500040405776716
 21
0.8769974413937891
 31
0.0
  0
ARC
  5
88
100
AcDbEntity
  8
0
 62
7
370
-1
  6
CONTINUOUS
100
AcDbCircle
 10
-0.7500060405776715
 20
0.9069974413937893
 30
0.0
 40
0.03
100
AcDbArc
 50
270.0038200000000188
 51
89.9961799999999954
  0
LINE
  5
89
100
AcDbEntity
100
AcDbLine
  8
0
 62
7
370
-1
  6
CONTINUOUS
 10
-0.7500040405776716
 20
0.9369974413937896
 30
0.0
 11
-0.7500040405776716
 21
1.0009974413937897
 31
0.0
  0
LINE
  5
8A
100
AcDbEntity
100
AcDbLine
  8
0
 62
7
370
-1
  6
CONTINUOUS
 10
-0.7500040405776716
 20
1.0009974413937897
 30
0.0
 11
-0.7456040405776715
 21
1.1270154413937898
 31
0.0
  0
ARC
  5
8B
100
AcDbEntity
  8
0
 62
7
370
-1
  6
CONTINUOUS
100
AcDbCircle
 10
-0.7445590405776715
 20
1.1569974413937893
 30
0.0
 40
0.03
100
AcDbArc
 50
268.0037760000000162
 51
87.996136000000007
  0
LINE
  5
8C
100
AcDbEntity
100
AcDbLine
  8
0
 62
7
370
-1
  6
CONTINUOUS
 10
-0.7435100405776716
 20
1.1869794413937897
 30
0.0
 11
-0.7402200405776715
 21
1.2811614413937897
 31
0.0
  0
ARC
  5
8D
100
AcDbEntity
  8
0
 62
7
370
-1
  6
CONTINUOUS
100
AcDbCircle
 10
-0.6782580405776715
 20
1.2789974413937892
 30
0.0
 40
0.062
100
AcDbArc
 50
90.0
 51
177.9993580000000009
  0
LINE
  5
8E
100
AcDbEntity
100
AcDbLine
  8
0
 62
7
370
-1
  6
CONTINUOUS
 10
-0.6782580405776715
 20
1.3409974413937895
 30
0.0
 11
-0.6422370405776715
 21
1.3409974413937895
 31
0.0
  0
ARC
  5
8F
100
AcDbEntity
  8
0
 62
7
370
-1
  6
CONTINUOUS
100
AcDbCircle
 10
-0.6422370405776715
 20
1.2789974413937892
 30
0.0
 40
0.062
100
AcDbArc
 50
358.0001470000000268
 51
90.0
  0
LINE
  5
90
100
AcDbEntity
100
AcDbLine
  8
0
 62
7
370
-1
  6
CONTINUOUS
 10
-0.5802750405776715
 20
1.2768334413937896
 30
0.0
 11
-0.5853250405776715
 21
1.1322174413937895
 31
0.0
  0
ARC
  5
91
100
AcDbEntity
  8
0
 62
7
370
-1
  6
CONTINUOUS
100
AcDbCircle
 10
-0.5503460405776716
 20
1.1309964413937894
 30
0.0
 40
0.035
100
AcDbArc
 50
178.0001469999999983
 51
270.0
  0
LINE
  5
92
100
AcDbEntity
100
AcDbLine
  8
0
 62
7
370
-1
  6
CONTINUOUS
 10
-0.5503460405776716
 20
1.0959964413937893
 30
0.0
 11
-0.5315910405776715
 21
1.0959964413937893
 31
0.0
  0
ARC
  5
93
100
AcDbEntity
  8
0
 62
7
370
-1
  6
CONTINUOUS
100
AcDbCircle
 10
-0.5315910405776715
 20
1.1309964413937894
 30
0.0
 40
0.035
100
AcDbArc
 50
270.0
 51
315.0000099999999748
  0
LINE
  5
94
100
AcDbEntity
100
AcDbLine
  8
0
 62
7
370
-1
  6
CONTINUOUS
 10
-0.5068430405776715
 20
1.1062474413937895
 30
0.0
 11
-0.3192270405776716
 21
1.2938634413937897
 31
0.0
  0
ARC
  5
95
100
AcDbEntity
  8
0
 62
7
370
-1
  6
CONTINUOUS
100
AcDbCircle
 10
-0.4514560405776716
 20
1.4260924413937894
 30
0.0
 40
0.187
100
AcDbArc
 50
315.0000099999999748
 51
0.0
  0
LINE
  5
96
100
AcDbEntity
100
AcDbLine
  8
0
 62
7
370
-1
  6
CONTINUOUS
 10
-0.2644560405776716
 20
1.4260924413937894
 30
0.0
 11
-0.2644560405776716
 21
1.5759024413937899
 31
0.0
  0
ARC
  5
97
100
AcDbEntity
  8
0
 62
7
370
-1
  6
CONTINUOUS
100
AcDbCircle
 10
-0.4514560405776716
 20
1.5759024413937899
 30
0.0
 40
0.187
100
AcDbArc
 50
0.0
 51
45.0001430000000013
  0
LINE
  5
98
100
AcDbEntity
100
AcDbLine
  8
0
 62
7
370
-1
  6
CONTINUOUS
 10
-0.3192270405776716
 20
1.7081314413937896
 30
0.0
 11
-0.5068430405776715
 21
1.8957464413937897
 31
0.0
  0
ARC
  5
99
100
AcDbEntity
  8
0
 62
7
370
-1
  6
CONTINUOUS
100
AcDbCircle
 10
-0.5315910405776715
 20
1.8709974413937898
 30
0.0
 40
0.035
100
AcDbArc
 50
45.0001430000000013
 51
90.0
  0
LINE
  5
9A
100
AcDbEntity
100
AcDbLine
  8
0
 62
7
370
-1
  6
CONTINUOUS
 10
-0.5315910405776715
 20
1.9059974413937899
 30
0.0
 11
-0.5492970405776715
 21
1.9059974413937899
 31
0.0
  0
ARC
  5
9B
100
AcDbEntity
  8
0
 62
7
370
-1
  6
CONTINUOUS
100
AcDbCircle
 10
-0.5492970405776715
 20
1.8709974413937898
 30
0.0
 40
0.035
100
AcDbArc
 50
90.0
 51
181.9995780000000138
  0
LINE
  5
9C
100
AcDbEntity
100
AcDbLine
  8
0
 62
7
370
-1
  6
CONTINUOUS
 10
-0.5842760405776715
 20
1.8697764413937896
 30
0.0
 11
-0.5792270405776715
 21
1.7251604413937895
 31
0.0
  0
ARC
  5
9D
100
AcDbEntity
  8
0
 62
7
370
-1
  6
CONTINUOUS
100
AcDbCircle
 10
-0.6411890405776716
 20
1.7229974413937892
 30
0.0
 40
0.062
100
AcDbArc
 50
270.0
 51
1.9995780000000001
  0
LINE
  5
9E
100
AcDbEntity
100
AcDbLine
  8
0
 62
7
370
-1
  6
CONTINUOUS
 10
-0.6411890405776716
 20
1.6609974413937898
 30
0.0
 11
-0.6782100405776715
 21
1.6609974413937898
 31
0.0
  0
ARC
  5
9F
100
AcDbEntity
  8
0
 62
7
370
-1
  6
CONTINUOUS
100
AcDbCircle
 10
-0.6782100405776715
 20
1.7229974413937892
 30
0.0
 40
0.062
100
AcDbArc
 50
181.999920000000003
 51
270.0
  0
LINE
  5
A0
100
AcDbEntity
100
AcDbLine
  8
0
 62
7
370
-1
  6
CONTINUOUS
 10
-0.7401720405776715
 20
1.7208334413937896
 30
0.0
 11
-0.7434610405776715
 21
1.8150154413937896
 31
0.0
  0
ARC
  5
A1
100
AcDbEntity
  8
0
 62
7
370
-1
  6
CONTINUOUS
100
AcDbCircle
 10
-0.7445100405776716
 20
1.8449974413937891
 30
0.0
 40
0.03
100
AcDbArc
 50
272.0047850000000267
 51
91.9971450000000033
  0
LINE
  5
A2
100
AcDbEntity
100
AcDbLine
  8
0
 62
7
370
-1
  6
CONTINUOUS
 10
-0.7455560405776716
 20
1.8749794413937895
 30
0.0
 11
-0.7499570405776715
 21
2.0009974413937894
 31
0.0
  0
LINE
  5
A3
100
AcDbEntity
100
AcDbLine
  8
0
 62
7
370
-1
  6
CONTINUOUS
 10
-0.7499570405776715
 20
2.0009974413937894
 30
0.0
 11
-0.7499570405776715
 21
2.0649964413937894
 31
0.0
  0
ARC
  5
A4
100
AcDbEntity
  8
0
 62
7
370
-1
  6
CONTINUOUS
100
AcDbCircle
 10
-0.7499570405776715
 20
2.0949964413937896
 30
0.0
 40
0.03
100
AcDbArc
 50
269.9999920000000202
 51
89.9923529999999943
  0
ARC
  5
A5
100
AcDbEntity
  8
0
 62
7
370
-1
  6
CONTINUOUS
100
AcDbCircle
 10
-0.6242460405776715
 20
2.1241954413937889
 30
0.0
 40
0.12571
100
AcDbArc
 50
89.9146810000000016
 51
179.6347499999999968
  0
ARC
  5
A6
100
AcDbEntity
  8
0
 62
7
370
-1
  6
CONTINUOUS
100
AcDbCircle
 10
-0.5940590405776716
 20
2.249952441393789
 30
0.0
 40
0.03
100
AcDbArc
 50
180.0919260000000008
 51
0.084287
  0
LINE
  5
A7
100
AcDbEntity
100
AcDbLine
  8
0
 62
7
370
-1
  6
CONTINUOUS
 10
-0.5640590405776715
 20
2.2499974413937891
 30
0.0
 11
-0.5000600405776715
 21
2.2500914413937889
 31
0.0
  0
LINE
  5
A8
100
AcDbEntity
100
AcDbLine
  8
0
 62
7
370
-1
  6
CONTINUOUS
 10
-0.5000600405776715
 20
2.2500914413937889
 30
0.0
 11
-0.3740350405776716
 21
2.2458754413937894
 31
0.0
  0
ARC
  5
A9
100
AcDbEntity
  8
0
 62
7
370
-1
  6
CONTINUOUS
100
AcDbCircle
 10
-0.3440520405776716
 20
2.2448744413937889
 30
0.0
 40
0.03
100
AcDbArc
 50
178.0871339999999918
 51
358.0794950000000085
  0
LINE
  5
AA
100
AcDbEntity
100
AcDbLine
  8
0
 62
7
370
-1
  6
CONTINUOUS
 10
-0.3140690405776715
 20
2.2438684413937895
 30
0.0
 11
-0.2198820405776716
 21
2.2407184413937888
 31
0.0
  0
ARC
  5
AB
100
AcDbEntity
  8
0
 62
7
370
-1
  6
CONTINUOUS
100
AcDbCircle
 10
-0.2219540405776715
 20
2.178753441393789
 30
0.0
 40
0.062
100
AcDbArc
 50
0.084279
 51
88.0843590000000063
  0
LINE
  5
AC
100
AcDbEntity
100
AcDbLine
  8
0
 62
7
370
-1
  6
CONTINUOUS
 10
-0.1599550405776715
 20
2.1788444413937893
 30
0.0
 11
-0.1599020405776715
 21
2.1428234413937894
 31
0.0
  0
ARC
  5
AD
100
AcDbEntity
  8
0
 62
7
370
-1
  6
CONTINUOUS
100
AcDbCircle
 10
-0.2217620405776715
 20
2.1427584413937892
 30
0.0
 40
0.061861
100
AcDbArc
 50
267.9514859999999885
 51
0.060408
  0
LINE
  5
AE
100
AcDbEntity
100
AcDbLine
  8
0
 62
7
370
-1
  6
CONTINUOUS
 10
-0.2239740405776715
 20
2.0809374413937891
 30
0.0
 11
-0.3685960405776716
 21
2.0857734413937892
 31
0.0
  0
ARC
  5
AF
100
AcDbEntity
  8
0
 62
7
370
-1
  6
CONTINUOUS
100
AcDbCircle
 10
-0.3697660405776716
 20
2.050792441393789
 30
0.0
 40
0.035
100
AcDbArc
 50
88.0847009999999955
 51
180.0842790000000093
  0
LINE
  5
B0
100
AcDbEntity
100
AcDbLine
  8
0
 62
7
370
-1
  6
CONTINUOUS
 10
-0.4047660405776716
 20
2.050741441393789
 30
0.0
 11
-0.4047400405776715
 21
2.0330354413937894
 31
0.0
  0
ARC
  5
B1
100
AcDbEntity
  8
0
 62
7
370
-1
  6
CONTINUOUS
100
AcDbCircle
 10
-0.3697400405776716
 20
2.0330874413937896
 30
0.0
 40
0.035
100
AcDbArc
 50
180.0842790000000093
 51
225.0841360000000009
  0
LINE
  5
B2
100
AcDbEntity
100
AcDbLine
  8
0
 62
7
370
-1
  6
CONTINUOUS
 10
-0.3944520405776716
 20
2.0083024413937891
 30
0.0
 11
-0.2065620405776716
 21
1.8209624413937895
 31
0.0
  0
ARC
  5
B3
100
AcDbEntity
  8
0
 62
7
370
-1
  6
CONTINUOUS
100
AcDbCircle
 10
-0.0745280405776716
 20
1.9533854413937897
 30
0.0
 40
0.187
100
AcDbArc
 50
225.0841360000000009
 51
270.0842789999999809
  0
LINE
  5
B4
100
AcDbEntity
100
AcDbLine
  8
0
 62
7
370
-1
  6
CONTINUOUS
 10
-0.0742520405776716
 20
1.7663864413937895
 30
0.0
 11
0.0755569594223284
 21
1.7666064413937892
 31
0.0
  0
ARC
  5
B5
100
AcDbEntity
  8
0
 62
7
370
-1
  6
CONTINUOUS
100
AcDbCircle
 10
0.0752819594223284
 20
1.9536064413937895
 30
0.0
 40
0.187
100
AcDbArc
 50
270.0842789999999809
 51
315.0842690000000061
  0
LINE
  5
B6
100
AcDbEntity
100
AcDbLine
  8
0
 62
7
370
-1
  6
CONTINUOUS
 10
0.2077059594223285
 20
1.8215714413937893
 30
0.0
 11
0.3950449594223284
 21
2.0094634413937889
 31
0.0
  0
ARC
  5
B7
100
AcDbEntity
  8
0
 62
7
370
-1
  6
CONTINUOUS
100
AcDbCircle
 10
0.3702599594223284
 20
2.0341754413937889
 30
0.0
 40
0.035
100
AcDbArc
 50
315.0842690000000061
 51
0.084279
  0
LINE
  5
B8
100
AcDbEntity
100
AcDbLine
  8
0
 62
7
370
-1
  6
CONTINUOUS
 10
0.4052599594223285
 20
2.0342274413937891
 30
0.0
 11
0.4052319594223284
 21
2.0529814413937895
 31
0.0
  0
ARC
  5
B9
100
AcDbEntity
  8
0
 62
7
370
-1
  6
CONTINUOUS
100
AcDbCircle
 10
0.3702329594223284
 20
2.0529304413937894
 30
0.0
 40
0.035
100
AcDbArc
 50
0.084279
 51
92.0841319999999968
  0
LINE
  5
BA
100
AcDbEntity
100
AcDbLine
  8
0
 62
7
370
-1
  6
CONTINUOUS
 10
0.3689599594223285
 20
2.087907441393789
 30
0.0
 11
0.2243509594223285
 21
2.0826444413937897
 31
0.0
  0
ARC
  5
BB
100
AcDbEntity
  8
0
 62
7
370
-1
  6
CONTINUOUS
100
AcDbCircle
 10
0.2197799594223284
 20
2.1421554413937893
 30
0.0
 40
0.059686
100
AcDbArc
 50
180.5213770000000011
 51
274.3921930000000202
  0
LINE
  5
BC
100
AcDbEntity
100
AcDbLine
  8
0
 62
7
370
-1
  6
CONTINUOUS
 10
0.1600969594223285
 20
2.1416124413937889
 30
0.0
 11
0.1600439594223285
 21
2.1776324413937895
 31
0.0
  0
ARC
  5
BD
100
AcDbEntity
  8
0
 62
7
370
-1
  6
CONTINUOUS
100
AcDbCircle
 10
0.2220439594223285
 20
2.1777244413937891
 30
0.0
 40
0.062
100
AcDbArc
 50
92.0849209999999943
 51
180.0842790000000093
  0
LINE
  5
BE
100
AcDbEntity
100
AcDbLine
  8
0
 62
7
370
-1
  6
CONTINUOUS
 10
0.2197879594223285
 20
2.2396834413937889
 30
0.0
 11
0.3139659594223284
 21
2.2431114413937894
 31
0.0
  0
ARC
  5
BF
100
AcDbEntity
  8
0
 62
7
370
-1
  6
CONTINUOUS
100
AcDbCircle
 10
0.3439459594223284
 20
2.2442044413937894
 30
0.0
 40
0.03
100
AcDbArc
 50
182.0881430000000023
 51
2.0805030000000002
  0
LINE
  5
C0
100
AcDbEntity
100
AcDbLine
  8
0
 62
7
370
-1
  6
CONTINUOUS
 10
0.3739259594223284
 20
2.2452934413937888
 30
0.0
 11
0.4999379594223284
 21
2.2498794413937895
 31
0.0
  0
LINE
  5
C1
100
AcDbEntity
100
AcDbLine
  8
0
 62
7
370
-1
  6
CONTINUOUS
 10
0.4999379594223284
 20
2.2498794413937895
 30
0.0
 11
0.5639379594223285
 21
2.2499734413937893
 31
0.0
  0
ARC
  5
C2
100
AcDbEntity
  8
0
 62
7
370
-1
  6
CONTINUOUS
100
AcDbCircle
 10
0.5939379594223285
 20
2.2500194413937895
 30
0.0
 40
0.03
100
AcDbArc
 50
180.0880989999999997
 51
0.080459
  0
LINE
  5
C3
100
AcDbEntity
100
AcDbLine
  8
0
 62
7
370
-1
  6
CONTINUOUS
 10
0.5555429594223285
 20
0.8313104413937891
 30
0.0
 11
0.2076339594223285
 21
1.1792204413937897
 31
0.0
  0
ARC
  5
C4
100
AcDbEntity
  8
0
 62
7
370
-1
  6
CONTINUOUS
100
AcDbCircle
 10
0.0754049594223284
 20
1.0469914413937891
 30
0.0
 40
0.187
100
AcDbArc
 50
44.9999290000000016
 51
90.0
  0
LINE
  5
C5
100
AcDbEntity
100
AcDbLine
  8
0
 62
7
370
-1
  6
CONTINUOUS
 10
0.0754049594223284
 20
1.2339914413937894
 30
0.0
 11
-0.0754160405776716
 21
1.2339914413937894
 31
0.0
  0
ARC
  5
C6
100
AcDbEntity
  8
0
 62
7
370
-1
  6
CONTINUOUS
100
AcDbCircle
 10
-0.0754160405776716
 20
1.0469914413937891
 30
0.0
 40
0.187
100
AcDbArc
 50
90.0
 51
134.9997140000000115
  0
LINE
  5
C7
100
AcDbEntity
100
AcDbLine
  8
0
 62
7
370
-1
  6
CONTINUOUS
 10
-0.2076440405776716
 20
1.1792214413937898
 30
0.0
 11
-0.5555530405776715
 21
0.8313154413937898
 31
0.0
  0
ARC
  5
C8
100
AcDbEntity
  8
0
 62
7
370
-1
  6
CONTINUOUS
100
AcDbCircle
 10
-0.4742360405776715
 20
0.7499974413937893
 30
0.0
 40
0.115
100
AcDbArc
 50
134.9997140000000115
 51
224.9997140000000115
  0
LINE
  5
C9
100
AcDbEntity
100
AcDbLine
  8
0
 62
7
370
-1
  6
CONTINUOUS
 10
-0.5555540405776715
 20
0.6686804413937899
 30
0.0
 11
-0.2076520405776715
 21
0.3207754413937891
 31
0.0
  0
ARC
  5
CA
100
AcDbEntity
  8
0
 62
7
370
-1
  6
CONTINUOUS
100
AcDbCircle
 10
-0.0754230405776716
 20
0.4530034413937895
 30
0.0
 40
0.187
100
AcDbArc
 50
224.9997140000000115
 51
270.0
  0
LINE
  5
CB
100
AcDbEntity
100
AcDbLine
  8
0
 62
7
370
-1
  6
CONTINUOUS
 10
-0.0754230405776716
 20
0.2660034413937892
 30
0.0
 11
0.0754089594223284
 21
0.2660034413937892
 31
0.0
  0
ARC
  5
CC
100
AcDbEntity
  8
0
 62
7
370
-1
  6
CONTINUOUS
100
AcDbCircle
 10
0.0754089594223284
 20
0.4530034413937895
 30
0.0
 40
0.187
100
AcDbArc
 50
270.0
 51
314.9997859999999719
  0
LINE
  5
CD
100
AcDbEntity
100
AcDbLine
  8
0
 62
7
370
-1
  6
CONTINUOUS
 10
0.2076379594223285
 20
0.3207744413937898
 30
0.0
 11
0.5555419594223285
 21
0.6686754413937892
 31
0.0
  0
ARC
  5
CE
100
AcDbEntity
  8
0
 62
7
370
-1
  6
CONTINUOUS
100
AcDbCircle
 10
0.4742249594223285
 20
0.7499934413937897
 30
0.0
 40
0.115
100
AcDbArc
 50
314.9997859999999719
 51
44.9999290000000016
  0
LINE
  5
CF
100
AcDbEntity
100
AcDbLine
  8
0
 62
7
370
-1
  6
CONTINUOUS
 10
0.2076379594223285
 20
-0.3207795586062104
 30
0.0
 11
0.5555419594223285
 21
-0.6686805586062106
 31
0.0
  0
LINE
  5
D0
100
AcDbEntity
100
AcDbLine
  8
0
 62
7
370
-1
  6
CONTINUOUS
 10
0.5555429594223285
 20
-0.8313155586062104
 30
0.0
 11
0.2076339594223285
 21
-1.1792255586062106
 31
0.0
  0
ARC
  5
D1
100
AcDbEntity
  8
0
 62
7
370
-1
  6
CONTINUOUS
100
AcDbCircle
 10
0.3439459594223284
 20
-2.2442095586062107
 30
0.0
 40
0.03
100
AcDbArc
 50
357.9194969999999785
 51
177.9118569999999977
  0
LINE
  5
D2
100
AcDbEntity
100
AcDbLine
  8
0
 62
7
370
-1
  6
CONTINUOUS
 10
0.3689599594223285
 20
-2.0879125586062108
 30
0.0
 11
0.2243509594223285
 21
-2.0826495586062106
 31
0.0
  0
LINE
  5
D3
100
AcDbEntity
100
AcDbLine
  8
0
 62
7
370
-1
  6
CONTINUOUS
 10
0.2077059594223285
 20
-1.8215765586062107
 30
0.0
 11
0.3950449594223284
 21
-2.0094685586062107
 31
0.0
  0
LINE
  5
D4
100
AcDbEntity
100
AcDbLine
  8
0
 62
7
370
-1
  6
CONTINUOUS
 10
0.5068369594223285
 20
-0.3957525586062103
 30
0.0
 11
0.3192209594223284
 21
-0.208136558606211
 31
0.0
  0
LINE
  5
D5
100
AcDbEntity
100
AcDbLine
  8
0
 62
7
370
-1
  6
CONTINUOUS
 10
0.3192209594223284
 20
-1.2938685586062106
 30
0.0
 11
0.5068369594223285
 21
-1.1062525586062104
 31
0.0
  0
LINE
  5
D6
100
AcDbEntity
100
AcDbLine
  8
0
 62
7
370
-1
  6
CONTINUOUS
 10
0.5068369594223285
 20
-1.8957515586062106
 30
0.0
 11
0.3192209594223284
 21
-1.7081365586062105
 31
0.0
  0
ARC
  5
D7
100
AcDbEntity
  8
0
 62
7
370
-1
  6
CONTINUOUS
100
AcDbCircle
 10
0.4514499594223284
 20
-1.4260975586062103
 30
0.0
 40
0.187
100
AcDbArc
 50
135.0000100000000032
 51
180.0
  0
ARC
  5
D8
100
AcDbEntity
  8
0
 62
7
370
-1
  6
CONTINUOUS
100
AcDbCircle
 10
0.0754089594223284
 20
-0.453008558606211
 30
0.0
 40
0.187
100
AcDbArc
 50
45.0002139999999997
 51
90.0
  0
ARC
  5
D9
100
AcDbEntity
  8
0
 62
7
370
-1
  6
CONTINUOUS
100
AcDbCircle
 10
0.4514499594223284
 20
-0.0759075586062104
 30
0.0
 40
0.187
100
AcDbArc
 50
180.0
 51
225.0
  0
ARC
  5
DA
100
AcDbEntity
  8
0
 62
7
370
-1
  6
CONTINUOUS
100
AcDbCircle
 10
0.0754049594223284
 20
-1.0469965586062104
 30
0.0
 40
0.187
100
AcDbArc
 50
270.0
 51
315.0000709999999913
  0
ARC
  5
DB
100
AcDbEntity
  8
0
 62
7
370
-1
  6
CONTINUOUS
100
AcDbCircle
 10
0.2197799594223284
 20
-2.1421605586062107
 30
0.0
 40
0.059686
100
AcDbArc
 50
85.607806999999994
 51
179.4786229999999989
  0
ARC
  5
DC
100
AcDbEntity
  8
0
 62
7
370
-1
  6
CONTINUOUS
100
AcDbCircle
 10
0.0752819594223284
 20
-1.9536115586062104
 30
0.0
 40
0.187
100
AcDbArc
 50
44.915731000000001
 51
89.9157210000000049
  0
ARC
  5
DD
100
AcDbEntity
  8
0
 62
7
370
-1
  6
CONTINUOUS
100
AcDbCircle
 10
0.4514499594223284
 20
-1.5759075586062103
 30
0.0
 40
0.187
100
AcDbArc
 50
180.0
 51
225.0001430000000084
  0
LINE
  5
DE
100
AcDbEntity
100
AcDbLine
  8
0
 62
7
370
-1
  6
CONTINUOUS
 10
0.2644499594223284
 20
-1.5759075586062103
 30
0.0
 11
0.2644499594223284
 21
-1.4260975586062103
 31
0.0
  0
ARC
  5
DF
100
AcDbEntity
  8
0
 62
7
370
-1
  6
CONTINUOUS
100
AcDbCircle
 10
0.2220439594223285
 20
-2.1777295586062109
 30
0.0
 40
0.062
100
AcDbArc
 50
179.9157209999999907
 51
267.9150789999999915
  0
LINE
  5
E0
100
AcDbEntity
100
AcDbLine
  8
0
 62
7
370
-1
  6
CONTINUOUS
 10
0.2197879594223285
 20
-2.2396885586062107
 30
0.0
 11
0.3139659594223284
 21
-2.2431165586062107
 31
0.0
  0
ARC
  5
E1
100
AcDbEntity
  8
0
 62
7
370
-1
  6
CONTINUOUS
100
AcDbCircle
 10
0.4742249594223285
 20
-0.7499985586062106
 30
0.0
 40
0.115
100
AcDbArc
 50
315.0000709999999913
 51
45.0002139999999997
  0
LINE
  5
E2
100
AcDbEntity
100
AcDbLine
  8
0
 62
7
370
-1
  6
CONTINUOUS
 10
0.7499979594223285
 20
-0.8770025586062105
 30
0.0
 11
0.7499979594223285
 21
-0.6250025586062107
 31
0.0
  0
LINE
  5
E3
100
AcDbEntity
100
AcDbLine
  8
0
 62
7
370
-1
  6
CONTINUOUS
 10
0.5802689594223285
 20
-0.2251665586062102
 30
0.0
 11
0.5853189594223285
 21
-0.3697825586062103
 31
0.0
  0
ARC
  5
E4
100
AcDbEntity
  8
0
 62
7
370
-1
  6
CONTINUOUS
100
AcDbCircle
 10
0.7445529594223285
 20
-0.3450025586062105
 30
0.0
 40
0.03
100
AcDbArc
 50
92.0038299999999936
 51
271.9961910000000103
  0
ARC
  5
E5
100
AcDbEntity
  8
0
 62
7
370
-1
  6
CONTINUOUS
100
AcDbCircle
 10
0.6422309594223284
 20
-0.2230025586062106
 30
0.0
 40
0.062
100
AcDbArc
 50
90.0
 51
181.9999730000000113
  0
ARC
  5
E6
100
AcDbEntity
  8
0
 62
7
370
-1
  6
CONTINUOUS
100
AcDbCircle
 10
0.6782519594223285
 20
-0.2230025586062106
 30
0.0
 40
0.062
100
AcDbArc
 50
2.000642
 51
90.0
  0
LINE
  5
E7
100
AcDbEntity
100
AcDbLine
  8
0
 62
7
370
-1
  6
CONTINUOUS
 10
0.6782519594223285
 20
-0.1610025586062103
 30
0.0
 11
0.6422309594223284
 21
-0.1610025586062103
 31
0.0
  0
LINE
  5
E8
100
AcDbEntity
100
AcDbLine
  8
0
 62
7
370
-1
  6
CONTINUOUS
 10
0.7435039594223285
 20
-0.315020558606211
 30
0.0
 11
0.7402139594223285
 21
-0.220838558606211
 31
0.0
  0
ARC
  5
E9
100
AcDbEntity
  8
0
 62
7
370
-1
  6
CONTINUOUS
100
AcDbCircle
 10
0.5503399594223285
 20
-0.3710035586062104
 30
0.0
 40
0.035
100
AcDbArc
 50
270.0
 51
1.9999729999999998
  0
ARC
  5
EA
100
AcDbEntity
  8
0
 62
7
370
-1
  6
CONTINUOUS
100
AcDbCircle
 10
0.5315849594223285
 20
-0.3710035586062104
 30
0.0
 40
0.035
100
AcDbArc
 50
225.0
 51
270.0
  0
LINE
  5
EB
100
AcDbEntity
100
AcDbLine
  8
0
 62
7
370
-1
  6
CONTINUOUS
 10
0.5503399594223285
 20
-0.4060035586062106
 30
0.0
 11
0.5315849594223285
 21
-0.4060035586062106
 31
0.0
  0
LINE
  5
EC
100
AcDbEntity
100
AcDbLine
  8
0
 62
7
370
-1
  6
CONTINUOUS
 10
0.7499939594223285
 20
-0.5650025586062106
 30
0.0
 11
0.7499979594223285
 21
-0.5010025586062106
 31
0.0
  0
LINE
  5
ED
100
AcDbEntity
100
AcDbLine
  8
0
 62
7
370
-1
  6
CONTINUOUS
 10
0.7499979594223285
 20
-0.5010025586062106
 30
0.0
 11
0.7455979594223285
 21
-0.3749845586062109
 31
0.0
  0
ARC
  5
EE
100
AcDbEntity
  8
0
 62
7
370
-1
  6
CONTINUOUS
100
AcDbCircle
 10
0.7499979594223285
 20
-0.5950025586062104
 30
0.0
 40
0.03
100
AcDbArc
 50
90.007639999999995
 51
270.0
  0
LINE
  5
EF
100
AcDbEntity
100
AcDbLine
  8
0
 62
7
370
-1
  6
CONTINUOUS
 10
0.7455979594223285
 20
-1.1270205586062103
 30
0.0
 11
0.7499979594223285
 21
-1.0010025586062106
 31
0.0
  0
ARC
  5
F0
100
AcDbEntity
  8
0
 62
7
370
-1
  6
CONTINUOUS
100
AcDbCircle
 10
0.7499999594223284
 20
-0.9070025586062107
 30
0.0
 40
0.03
100
AcDbArc
 50
90.0038200000000046
 51
269.9961799999999812
  0
LINE
  5
F1
100
AcDbEntity
100
AcDbLine
  8
0
 62
7
370
-1
  6
CONTINUOUS
 10
0.7499979594223285
 20
-1.0010025586062106
 30
0.0
 11
0.7499979594223285
 21
-0.9370025586062105
 31
0.0
  0
ARC
  5
F2
100
AcDbEntity
  8
0
 62
7
370
-1
  6
CONTINUOUS
100
AcDbCircle
 10
0.6422309594223284
 20
-1.2790025586062106
 30
0.0
 40
0.062
100
AcDbArc
 50
178.0001469999999983
 51
270.0
  0
ARC
  5
F3
100
AcDbEntity
  8
0
 62
7
370
-1
  6
CONTINUOUS
100
AcDbCircle
 10
0.5503399594223285
 20
-1.1310015586062103
 30
0.0
 40
0.035
100
AcDbArc
 50
358.0001470000000268
 51
90.0
  0
LINE
  5
F4
100
AcDbEntity
100
AcDbLine
  8
0
 62
7
370
-1
  6
CONTINUOUS
 10
0.5315849594223285
 20
-1.0960015586062106
 30
0.0
 11
0.5503399594223285
 21
-1.0960015586062106
 31
0.0
  0
ARC
  5
F5
100
AcDbEntity
  8
0
 62
7
370
-1
  6
CONTINUOUS
100
AcDbCircle
 10
0.5315849594223285
 20
-1.1310015586062103
 30
0.0
 40
0.035
100
AcDbArc
 50
90.0
 51
135.0000100000000032
  0
LINE
  5
F6
100
AcDbEntity
100
AcDbLine
  8
0
 62
7
370
-1
  6
CONTINUOUS
 10
0.7402139594223285
 20
-1.2811665586062106
 30
0.0
 11
0.7435039594223285
 21
-1.1869845586062107
 31
0.0
  0
LINE
  5
F7
100
AcDbEntity
100
AcDbLine
  8
0
 62
7
370
-1
  6
CONTINUOUS
 10
0.5853189594223285
 20
-1.1322225586062105
 30
0.0
 11
0.5802689594223285
 21
-1.2768385586062105
 31
0.0
  0
ARC
  5
F8
100
AcDbEntity
  8
0
 62
7
370
-1
  6
CONTINUOUS
100
AcDbCircle
 10
0.7445529594223285
 20
-1.1570025586062107
 30
0.0
 40
0.03
100
AcDbArc
 50
88.003776000000002
 51
267.9961359999999786
  0
ARC
  5
F9
100
AcDbEntity
  8
0
 62
7
370
-1
  6
CONTINUOUS
100
AcDbCircle
 10
0.6782519594223285
 20
-1.2790025586062106
 30
0.0
 40
0.062
100
AcDbArc
 50
270.0
 51
357.9993579999999724
  0
LINE
  5
FA
100
AcDbEntity
100
AcDbLine
  8
0
 62
7
370
-1
  6
CONTINUOUS
 10
0.6422309594223284
 20
-1.3410025586062104
 30
0.0
 11
0.6782519594223285
 21
-1.3410025586062104
 31
0.0
  0
ARC
  5
FB
100
AcDbEntity
  8
0
 62
7
370
-1
  6
CONTINUOUS
100
AcDbCircle
 10
0.7485359594223285
 20
-2.0935515586062108
 30
0.0
 40
0.028585
100
AcDbArc
 50
87.1624950000000069
 51
272.8294609999999807
  0
LINE
  5
FC
100
AcDbEntity
100
AcDbLine
  8
0
 62
7
370
-1
  6
CONTINUOUS
 10
0.5792209594223285
 20
-1.7251655586062105
 30
0.0
 11
0.5842699594223285
 21
-1.8697815586062105
 31
0.0
  0
LINE
  5
FD
100
AcDbEntity
100
AcDbLine
  8
0
 62
7
370
-1
  6
CONTINUOUS
 10
0.7434549594223285
 20
-1.8150205586062105
 30
0.0
 11
0.7401659594223284
 21
-1.7208385586062105
 31
0.0
  0
ARC
  5
FE
100
AcDbEntity
  8
0
 62
7
370
-1
  6
CONTINUOUS
100
AcDbCircle
 10
0.6411829594223285
 20
-1.7230025586062105
 30
0.0
 40
0.062
100
AcDbArc
 50
90.0
 51
181.9995780000000138
  0
ARC
  5
FF
100
AcDbEntity
  8
0
 62
7
370
-1
  6
CONTINUOUS
100
AcDbCircle
 10
0.6782039594223285
 20
-1.7230025586062105
 30
0.0
 40
0.062
100
AcDbArc
 50
1.9999199999999997
 51
90.0
  0
LINE
  5
100
100
AcDbEntity
100
AcDbLine
  8
0
 62
7
370
-1
  6
CONTINUOUS
 10
0.6782039594223285
 20
-1.6610025586062107
 30
0.0
 11
0.6411829594223285
 21
-1.6610025586062107
 31
0.0
  0
ARC
  5
101
100
AcDbEntity
  8
0
 62
7
370
-1
  6
CONTINUOUS
100
AcDbCircle
 10
0.5492909594223285
 20
-1.8710025586062107
 30
0.0
 40
0.035
100
AcDbArc
 50
270.0
 51
1.9995780000000001
  0
ARC
  5
102
100
AcDbEntity
  8
0
 62
7
370
-1
  6
CONTINUOUS
100
AcDbCircle
 10
0.5315849594223285
 20
-1.8710025586062107
 30
0.0
 40
0.035
100
AcDbArc
 50
225.0001430000000084
 51
270.0
  0
LINE
  5
103
100
AcDbEntity
100
AcDbLine
  8
0
 62
7
370
-1
  6
CONTINUOUS
 10
0.5492909594223285
 20
-1.9060025586062104
 30
0.0
 11
0.5315849594223285
 21
-1.9060025586062104
 31
0.0
  0
ARC
  5
104
100
AcDbEntity
  8
0
 62
7
370
-1
  6
CONTINUOUS
100
AcDbCircle
 10
0.3702329594223284
 20
-2.0529355586062108
 30
0.0
 40
0.035
100
AcDbArc
 50
267.915867999999989
 51
359.9157210000000191
  0
LINE
  5
105
100
AcDbEntity
100
AcDbLine
  8
0
 62
7
370
-1
  6
CONTINUOUS
 10
0.4052599594223285
 20
-2.0342325586062109
 30
0.0
 11
0.4052319594223284
 21
-2.0529865586062108
 31
0.0
  0
ARC
  5
106
100
AcDbEntity
  8
0
 62
7
370
-1
  6
CONTINUOUS
100
AcDbCircle
 10
0.3702599594223284
 20
-2.0341805586062107
 30
0.0
 40
0.035
100
AcDbArc
 50
359.9157210000000191
 51
44.915731000000001
  0
LINE
  5
107
100
AcDbEntity
100
AcDbLine
  8
0
 62
7
370
-1
  6
CONTINUOUS
 10
0.7499509594223285
 20
-2.0010025586062108
 30
0.0
 11
0.7455499594223285
 21
-1.8749845586062104
 31
0.0
  0
ARC
  5
108
100
AcDbEntity
  8
0
 62
7
370
-1
  6
CONTINUOUS
100
AcDbCircle
 10
0.7445039594223285
 20
-1.8450025586062104
 30
0.0
 40
0.03
100
AcDbArc
 50
92.0047849999999983
 51
271.9971449999999891
  0
LINE
  5
109
100
AcDbEntity
100
AcDbLine
  8
0
 62
7
370
-1
  6
CONTINUOUS
 10
0.7499509594223285
 20
-2.0650015586062107
 30
0.0
 11
0.7499509594223285
 21
-2.0010025586062108
 31
0.0
  0
ARC
  5
10A
100
AcDbEntity
  8
0
 62
7
370
-1
  6
CONTINUOUS
100
AcDbCircle
 10
0.5939379594223285
 20
-2.2500245586062109
 30
0.0
 40
0.03
100
AcDbArc
 50
359.9195409999999811
 51
179.9119010000000003
  0
LINE
  5
10B
100
AcDbEntity
100
AcDbLine
  8
0
 62
7
370
-1
  6
CONTINUOUS
 10
0.3739259594223284
 20
-2.2452985586062106
 30
0.0
 11
0.4999379594223284
 21
-2.2498845586062108
 31
0.0
  0
LINE
  5
10C
100
AcDbEntity
100
AcDbLine
  8
0
 62
7
370
-1
  6
CONTINUOUS
 10
0.4999379594223284
 20
-2.2498845586062108
 30
0.0
 11
0.5639379594223285
 21
-2.2499785586062107
 31
0.0
  0
ARC
  5
10D
100
AcDbEntity
  8
0
 62
7
370
-1
  6
CONTINUOUS
100
AcDbCircle
 10
0.6225929594223285
 20
-2.1227185586062109
 30
0.0
 40
0.127355
100
AcDbArc
 50
270.6047510000000216
 51
0.277604
  0
ARC
  5
10E
100
AcDbEntity
  8
0
 62
7
370
-1
  6
CONTINUOUS
100
AcDbCircle
 10
-0.4514560405776716
 20
-1.4260975586062103
 30
0.0
 40
0.187
100
AcDbArc
 50
360.0
 51
44.9999899999999968
  0
CIRCLE
  5
10F
100
AcDbEntity
100
AcDbCircle
  8
0
 62
7
370
-1
  6
CONTINUOUS
 10
-0.0000030405776716
 20
-1.5000035586062104
 30
0.0
 40
0.1285
  0
ARC
  5
110
100
AcDbEntity
  8
0
 62
7
370
-1
  6
CONTINUOUS
100
AcDbCircle
 10
-0.0754230405776716
 20
-0.453008558606211
 30
0.0
 40
0.187
100
AcDbArc
 50
90.0
 51
135.0002859999999885
  0
LINE
  5
111
100
AcDbEntity
100
AcDbLine
  8
0
 62
7
370
-1
  6
CONTINUOUS
 10
-0.5555540405776715
 20
-0.6686855586062104
 30
0.0
 11
-0.2076520405776715
 21
-0.3207805586062105
 31
0.0
  0
LINE
  5
112
100
AcDbEntity
100
AcDbLine
  8
0
 62
7
370
-1
  6
CONTINUOUS
 10
-0.3192270405776716
 20
-0.208136558606211
 30
0.0
 11
-0.5068430405776715
 21
-0.3957525586062103
 31
0.0
  0
ARC
  5
113
100
AcDbEntity
  8
0
 62
7
370
-1
  6
CONTINUOUS
100
AcDbCircle
 10
-0.4514560405776716
 20
-0.0759075586062104
 30
0.0
 40
0.187
100
AcDbArc
 50
315.0
 51
0.0
  0
LINE
  5
114
100
AcDbEntity
100
AcDbLine
  8
0
 62
7
370
-1
  6
CONTINUOUS
 10
-0.5315910405776715
 20
-0.4060035586062106
 30
0.0
 11
-0.5503460405776716
 21
-0.4060035586062106
 31
0.0
  0
ARC
  5
115
100
AcDbEntity
  8
0
 62
7
370
-1
  6
CONTINUOUS
100
AcDbCircle
 10
-0.5315910405776715
 20
-0.3710035586062104
 30
0.0
 40
0.035
100
AcDbArc
 50
270.0
 51
315.0
  0
LINE
  5
116
100
AcDbEntity
100
AcDbLine
  8
0
 62
7
370
-1
  6
CONTINUOUS
 10
-0.0754230405776716
 20
-0.2660085586062107
 30
0.0
 11
0.0754089594223284
 21
-0.2660085586062107
 31
0.0
  0
ARC
  5
117
100
AcDbEntity
  8
0
 62
7
370
-1
  6
CONTINUOUS
100
AcDbCircle
 10
-0.0754160405776716
 20
-1.0469965586062104
 30
0.0
 40
0.187
100
AcDbArc
 50
225.0002859999999885
 51
270.0
  0
LINE
  5
118
100
AcDbEntity
100
AcDbLine
  8
0
 62
7
370
-1
  6
CONTINUOUS
 10
-0.2076440405776716
 20
-1.1792265586062103
 30
0.0
 11
-0.5555530405776715
 21
-0.8313205586062107
 31
0.0
  0
LINE
  5
119
100
AcDbEntity
100
AcDbLine
  8
0
 62
7
370
-1
  6
CONTINUOUS
 10
-0.5068430405776715
 20
-1.1062525586062104
 30
0.0
 11
-0.3192270405776716
 21
-1.2938685586062106
 31
0.0
  0
ARC
  5
11A
100
AcDbEntity
  8
0
 62
7
370
-1
  6
CONTINUOUS
100
AcDbCircle
 10
-0.5315910405776715
 20
-1.1310015586062103
 30
0.0
 40
0.035
100
AcDbArc
 50
44.9999899999999968
 51
90.0
  0
LINE
  5
11B
100
AcDbEntity
100
AcDbLine
  8
0
 62
7
370
-1
  6
CONTINUOUS
 10
-0.5503460405776716
 20
-1.0960015586062106
 30
0.0
 11
-0.5315910405776715
 21
-1.0960015586062106
 31
0.0
  0
LINE
  5
11C
100
AcDbEntity
100
AcDbLine
  8
0
 62
7
370
-1
  6
CONTINUOUS
 10
0.0754049594223284
 20
-1.2339965586062107
 30
0.0
 11
-0.0754160405776716
 21
-1.2339965586062107
 31
0.0
  0
ARC
  5
11D
100
AcDbEntity
  8
0
 62
7
370
-1
  6
CONTINUOUS
100
AcDbCircle
 10
-0.2217620405776715
 20
-2.1427635586062106
 30
0.0
 40
0.061861
100
AcDbArc
 50
359.9395920000000046
 51
92.0485139999999973
  0
ARC
  5
11E
100
AcDbEntity
  8
0
 62
7
370
-1
  6
CONTINUOUS
100
AcDbCircle
 10
-0.0745280405776716
 20
-1.9533905586062106
 30
0.0
 40
0.187
100
AcDbArc
 50
89.9157210000000049
 51
134.9158639999999991
  0
LINE
  5
11F
100
AcDbEntity
100
AcDbLine
  8
0
 62
7
370
-1
  6
CONTINUOUS
 10
-0.3192270405776716
 20
-1.7081365586062105
 30
0.0
 11
-0.5068430405776715
 21
-1.8957515586062106
 31
0.0
  0
ARC
  5
120
100
AcDbEntity
  8
0
 62
7
370
-1
  6
CONTINUOUS
100
AcDbCircle
 10
-0.4514560405776716
 20
-1.5759075586062103
 30
0.0
 40
0.187
100
AcDbArc
 50
314.99985700000002
 51
0.0
  0
LINE
  5
121
100
AcDbEntity
100
AcDbLine
  8
0
 62
7
370
-1
  6
CONTINUOUS
 10
-0.2644560405776716
 20
-1.4260975586062103
 30
0.0
 11
-0.2644560405776716
 21
-1.5759075586062103
 31
0.0
  0
LINE
  5
122
100
AcDbEntity
100
AcDbLine
  8
0
 62
7
370
-1
  6
CONTINUOUS
 10
-0.3944520405776716
 20
-2.0083075586062109
 30
0.0
 11
-0.2065620405776716
 21
-1.8209675586062104
 31
0.0
  0
LINE
  5
123
100
AcDbEntity
100
AcDbLine
  8
0
 62
7
370
-1
  6
CONTINUOUS
 10
-0.2239740405776715
 20
-2.0809425586062109
 30
0.0
 11
-0.3685960405776716
 21
-2.0857785586062105
 31
0.0
  0
LINE
  5
124
100
AcDbEntity
100
AcDbLine
  8
0
 62
7
370
-1
  6
CONTINUOUS
 10
-0.5315910405776715
 20
-1.9060025586062104
 30
0.0
 11
-0.5492970405776715
 21
-1.9060025586062104
 31
0.0
  0
ARC
  5
125
100
AcDbEntity
  8
0
 62
7
370
-1
  6
CONTINUOUS
100
AcDbCircle
 10
-0.5315910405776715
 20
-1.8710025586062107
 30
0.0
 40
0.035
100
AcDbArc
 50
270.0
 51
314.99985700000002
  0
ARC
  5
126
100
AcDbEntity
  8
0
 62
7
370
-1
  6
CONTINUOUS
100
AcDbCircle
 10
-0.3697400405776716
 20
-2.0330925586062105
 30
0.0
 40
0.035
100
AcDbArc
 50
134.9158639999999991
 51
179.9157209999999907
  0
LINE
  5
127
100
AcDbEntity
100
AcDbLine
  8
0
 62
7
370
-1
  6
CONTINUOUS
 10
-0.4047660405776716
 20
-2.0507465586062108
 30
0.0
 11
-0.4047400405776715
 21
-2.0330405586062108
 31
0.0
  0
ARC
  5
128
100
AcDbEntity
  8
0
 62
7
370
-1
  6
CONTINUOUS
100
AcDbCircle
 10
-0.3697660405776716
 20
-2.0507975586062108
 30
0.0
 40
0.035
100
AcDbArc
 50
179.9157209999999907
 51
271.9152990000000045
  0
LINE
  5
129
100
AcDbEntity
100
AcDbLine
  8
0
 62
7
370
-1
  6
CONTINUOUS
 10
-0.0742520405776716
 20
-1.7663915586062104
 30
0.0
 11
0.0755569594223284
 21
-1.7666115586062106
 31
0.0
  0
ARC
  5
12A
100
AcDbEntity
  8
0
 62
7
370
-1
  6
CONTINUOUS
100
AcDbCircle
 10
-0.3440520405776716
 20
-2.2448795586062107
 30
0.0
 40
0.03
100
AcDbArc
 50
1.9205050000000001
 51
181.9128660000000082
  0
LINE
  5
12B
100
AcDbEntity
100
AcDbLine
  8
0
 62
7
370
-1
  6
CONTINUOUS
 10
-0.5000600405776715
 20
-2.2500965586062107
 30
0.0
 11
-0.3740350405776716
 21
-2.2458805586062107
 31
0.0
  0
LINE
  5
12C
100
AcDbEntity
100
AcDbLine
  8
0
 62
7
370
-1
  6
CONTINUOUS
 10
-0.5640590405776715
 20
-2.2500025586062109
 30
0.0
 11
-0.5000600405776715
 21
-2.2500965586062107
 31
0.0
  0
LINE
  5
12D
100
AcDbEntity
100
AcDbLine
  8
0
 62
7
370
-1
  6
CONTINUOUS
 10
-0.3140690405776715
 20
-2.2438735586062108
 30
0.0
 11
-0.2198820405776716
 21
-2.2407235586062106
 31
0.0
  0
LINE
  5
12E
100
AcDbEntity
100
AcDbLine
  8
0
 62
7
370
-1
  6
CONTINUOUS
 10
-0.1599550405776715
 20
-2.1788495586062107
 30
0.0
 11
-0.1599020405776715
 21
-2.1428285586062108
 31
0.0
  0
ARC
  5
12F
100
AcDbEntity
  8
0
 62
7
370
-1
  6
CONTINUOUS
100
AcDbCircle
 10
-0.2219540405776715
 20
-2.1787585586062108
 30
0.0
 40
0.062
100
AcDbArc
 50
271.9156409999999937
 51
359.9157210000000191
  0
ARC
  5
130
100
AcDbEntity
  8
0
 62
7
370
-1
  6
CONTINUOUS
100
AcDbCircle
 10
-0.6422370405776715
 20
-1.2790025586062106
 30
0.0
 40
0.062
100
AcDbArc
 50
270.0
 51
1.9998530000000001
  0
ARC
  5
131
100
AcDbEntity
  8
0
 62
7
370
-1
  6
CONTINUOUS
100
AcDbCircle
 10
-0.6422370405776715
 20
-0.2230025586062106
 30
0.0
 40
0.062
100
AcDbArc
 50
358.0000269999999887
 51
90.0
  0
LINE
  5
132
100
AcDbEntity
100
AcDbLine
  8
0
 62
7
370
-1
  6
CONTINUOUS
 10
-0.7500040405776716
 20
-0.6250025586062107
 30
0.0
 11
-0.7500040405776716
 21
-0.8770025586062105
 31
0.0
  0
ARC
  5
133
100
AcDbEntity
  8
0
 62
7
370
-1
  6
CONTINUOUS
100
AcDbCircle
 10
-0.7445590405776715
 20
-0.3450025586062105
 30
0.0
 40
0.03
100
AcDbArc
 50
268.0038089999999897
 51
87.9961700000000064
  0
ARC
  5
134
100
AcDbEntity
  8
0
 62
7
370
-1
  6
CONTINUOUS
100
AcDbCircle
 10
-0.6782580405776715
 20
-0.2230025586062106
 30
0.0
 40
0.062
100
AcDbArc
 50
90.0
 51
177.9993580000000009
  0
LINE
  5
135
100
AcDbEntity
100
AcDbLine
  8
0
 62
7
370
-1
  6
CONTINUOUS
 10
-0.6422370405776715
 20
-0.1610025586062103
 30
0.0
 11
-0.6782580405776715
 21
-0.1610025586062103
 31
0.0
  0
LINE
  5
136
100
AcDbEntity
100
AcDbLine
  8
0
 62
7
370
-1
  6
CONTINUOUS
 10
-0.7402200405776715
 20
-0.220838558606211
 30
0.0
 11
-0.7435100405776716
 21
-0.315020558606211
 31
0.0
  0
LINE
  5
137
100
AcDbEntity
100
AcDbLine
  8
0
 62
7
370
-1
  6
CONTINUOUS
 10
-0.7500040405776716
 20
-0.5010025586062106
 30
0.0
 11
-0.7500000405776716
 21
-0.5650025586062106
 31
0.0
  0
LINE
  5
138
100
AcDbEntity
100
AcDbLine
  8
0
 62
7
370
-1
  6
CONTINUOUS
 10
-0.7456040405776715
 20
-0.3749845586062109
 30
0.0
 11
-0.7500040405776716
 21
-0.5010025586062106
 31
0.0
  0
ARC
  5
139
100
AcDbEntity
  8
0
 62
7
370
-1
  6
CONTINUOUS
100
AcDbCircle
 10
-0.7500040405776716
 20
-0.5950025586062104
 30
0.0
 40
0.03
100
AcDbArc
 50
270.0
 51
89.992360000000005
  0
LINE
  5
13A
100
AcDbEntity
100
AcDbLine
  8
0
 62
7
370
-1
  6
CONTINUOUS
 10
-0.7500040405776716
 20
-1.0010025586062106
 30
0.0
 11
-0.7456040405776715
 21
-1.1270205586062103
 31
0.0
  0
ARC
  5
13B
100
AcDbEntity
  8
0
 62
7
370
-1
  6
CONTINUOUS
100
AcDbCircle
 10
-0.7500060405776715
 20
-0.9070025586062107
 30
0.0
 40
0.03
100
AcDbArc
 50
270.0038200000000188
 51
89.9961799999999954
  0
LINE
  5
13C
100
AcDbEntity
100
AcDbLine
  8
0
 62
7
370
-1
  6
CONTINUOUS
 10
-0.7500040405776716
 20
-0.9370025586062105
 30
0.0
 11
-0.7500040405776716
 21
-1.0010025586062106
 31
0.0
  0
LINE
  5
13D
100
AcDbEntity
100
AcDbLine
  8
0
 62
7
370
-1
  6
CONTINUOUS
 10
-0.7435100405776716
 20
-1.1869845586062107
 30
0.0
 11
-0.7402200405776715
 21
-1.2811665586062106
 31
0.0
  0
ARC
  5
13E
100
AcDbEntity
  8
0
 62
7
370
-1
  6
CONTINUOUS
100
AcDbCircle
 10
-0.7445590405776715
 20
-1.1570025586062107
 30
0.0
 40
0.03
100
AcDbArc
 50
272.0038640000000214
 51
91.996223999999998
  0
ARC
  5
13F
100
AcDbEntity
  8
0
 62
7
370
-1
  6
CONTINUOUS
100
AcDbCircle
 10
-0.6782580405776715
 20
-1.2790025586062106
 30
0.0
 40
0.062
100
AcDbArc
 50
182.0006419999999991
 51
270.0
  0
LINE
  5
140
100
AcDbEntity
100
AcDbLine
  8
0
 62
7
370
-1
  6
CONTINUOUS
 10
-0.6782580405776715
 20
-1.3410025586062104
 30
0.0
 11
-0.6422370405776715
 21
-1.3410025586062104
 31
0.0
  0
ARC
  5
141
100
AcDbEntity
  8
0
 62
7
370
-1
  6
CONTINUOUS
100
AcDbCircle
 10
-0.4742360405776715
 20
-0.7500025586062107
 30
0.0
 40
0.115
100
AcDbArc
 50
135.0002859999999885
 51
225.0002859999999885
  0
LINE
  5
142
100
AcDbEntity
100
AcDbLine
  8
0
 62
7
370
-1
  6
CONTINUOUS
 10
-0.5853250405776715
 20
-0.3697825586062103
 30
0.0
 11
-0.5802750405776715
 21
-0.2251665586062102
 31
0.0
  0
ARC
  5
143
100
AcDbEntity
  8
0
 62
7
370
-1
  6
CONTINUOUS
100
AcDbCircle
 10
-0.5503460405776716
 20
-0.3710035586062104
 30
0.0
 40
0.035
100
AcDbArc
 50
178.0000269999999887
 51
270.0
  0
LINE
  5
144
100
AcDbEntity
100
AcDbLine
  8
0
 62
7
370
-1
  6
CONTINUOUS
 10
-0.5802750405776715
 20
-1.2768385586062105
 30
0.0
 11
-0.5853250405776715
 21
-1.1322225586062105
 31
0.0
  0
ARC
  5
145
100
AcDbEntity
  8
0
 62
7
370
-1
  6
CONTINUOUS
100
AcDbCircle
 10
-0.5503460405776716
 20
-1.1310015586062103
 30
0.0
 40
0.035
100
AcDbArc
 50
90.0
 51
181.9998530000000017
  0
ARC
  5
146
100
AcDbEntity
  8
0
 62
7
370
-1
  6
CONTINUOUS
100
AcDbCircle
 10
-0.5940590405776716
 20
-2.2499575586062108
 30
0.0
 40
0.03
100
AcDbArc
 50
359.9157129999999825
 51
179.9080739999999992
  0
ARC
  5
147
100
AcDbEntity
  8
0
 62
7
370
-1
  6
CONTINUOUS
100
AcDbCircle
 10
-0.6411890405776716
 20
-1.7230025586062105
 30
0.0
 40
0.062
100
AcDbArc
 50
358.0004220000000146
 51
90.0
  0
ARC
  5
148
100
AcDbEntity
  8
0
 62
7
370
-1
  6
CONTINUOUS
100
AcDbCircle
 10
-0.7499570405776715
 20
-2.0950015586062105
 30
0.0
 40
0.03
100
AcDbArc
 50
270.0076470000000199
 51
90.000007999999994
  0
LINE
  5
149
100
AcDbEntity
100
AcDbLine
  8
0
 62
7
370
-1
  6
CONTINUOUS
 10
-0.7401720405776715
 20
-1.7208385586062105
 30
0.0
 11
-0.7434610405776715
 21
-1.8150205586062105
 31
0.0
  0
ARC
  5
14A
100
AcDbEntity
  8
0
 62
7
370
-1
  6
CONTINUOUS
100
AcDbCircle
 10
-0.6782100405776715
 20
-1.7230025586062105
 30
0.0
 40
0.062
100
AcDbArc
 50
90.0
 51
178.000079999999997
  0
LINE
  5
14B
100
AcDbEntity
100
AcDbLine
  8
0
 62
7
370
-1
  6
CONTINUOUS
 10
-0.6411890405776716
 20
-1.6610025586062107
 30
0.0
 11
-0.6782100405776715
 21
-1.6610025586062107
 31
0.0
  0
LINE
  5
14C
100
AcDbEntity
100
AcDbLine
  8
0
 62
7
370
-1
  6
CONTINUOUS
 10
-0.7455560405776716
 20
-1.8749845586062104
 30
0.0
 11
-0.7499570405776715
 21
-2.0010025586062108
 31
0.0
  0
ARC
  5
14D
100
AcDbEntity
  8
0
 62
7
370
-1
  6
CONTINUOUS
100
AcDbCircle
 10
-0.7445100405776716
 20
-1.8450025586062104
 30
0.0
 40
0.03
100
AcDbArc
 50
268.0028550000000109
 51
87.9952150000000017
  0
LINE
  5
14E
100
AcDbEntity
100
AcDbLine
  8
0
 62
7
370
-1
  6
CONTINUOUS
 10
-0.7499570405776715
 20
-2.0010025586062108
 30
0.0
 11
-0.7499570405776715
 21
-2.0650015586062107
 31
0.0
  0
ARC
  5
14F
100
AcDbEntity
  8
0
 62
7
370
-1
  6
CONTINUOUS
100
AcDbCircle
 10
-0.6242460405776715
 20
-2.1242005586062107
 30
0.0
 40
0.12571
100
AcDbArc
 50
180.3652500000000032
 51
270.0853190000000268
  0
LINE
  5
150
100
AcDbEntity
100
AcDbLine
  8
0
 62
7
370
-1
  6
CONTINUOUS
 10
-0.5842760405776715
 20
-1.8697815586062105
 30
0.0
 11
-0.5792270405776715
 21
-1.7251655586062105
 31
0.0
  0
ARC
  5
151
100
AcDbEntity
  8
0
 62
7
370
-1
  6
CONTINUOUS
100
AcDbCircle
 10
-0.5492970405776715
 20
-1.8710025586062107
 30
0.0
 40
0.035
100
AcDbArc
 50
178.0004219999999862
 51
270.0
  0
LINE
  5
152
100
AcDbEntity
100
AcDbLine
  8
0
 62
256
370
-1
  6
CONTINUOUS
 10
0.2644499594223284
 20
0.0759024413937898
 30
0.0
 11
0.2644499594223284
 21
-0.0759075586062104
 31
0.0
  0
LINE
  5
153
100
AcDbEntity
100
AcDbLine
  8
0
 62
256
370
-1
  6
CONTINUOUS
 10
-0.2644560405776716
 20
0.0759024413937898
 30
0.0
 11
-0.2644560405776716
 21
-0.0759075586062104
 31
0.0
  0
LINE
  5
154
100
AcDbEntity
100
AcDbLine
  8
ASHADE
 62
256
370
-1
  6
ByLayer
 10
0.1600964305657667
 20
-2.1416174387041953
 30
0.0
 11
0.1600440264964663
 21
-2.1776383599846003
 31
0.0
  0
ENDSEC
  0
SECTION
  2
OBJECTS
  0
DICTIONARY
  5
C
100
AcDbDictionary
280
0
281
1
  3
ACAD_GROUP
350
D
  3
ACAD_LAYOUT
350
1A
  3
ACAD_MLINESTYLE
350
17
  3
ACAD_PLOTSETTINGS
350
19
  3
ACAD_PLOTSTYLENAME
350
E
  3
AcDbVariableDictionary
350
155
  0
DICTIONARY
  5
D
100
AcDbDictionary
280
0
281
1
  0
ACDBDICTIONARYWDFLT
  5
E
100
AcDbDictionary
281
1
  3
Normal
350
F
100
AcDbDictionaryWithDefault
340
F
  0
ACDBPLACEHOLDER
  5
F
  0
DICTIONARY
  5
17
100
AcDbDictionary
280
0
281
1
  3
Standard
350
18
  0
MLINESTYLE
  5
18
100
AcDbMlineStyle
  2
STANDARD
 70
0
  3

 62
256
 51
90.0
 52
90.0
 71
2
 49
0.5
 62
256
  6
BYLAYER
 49
-0.5
 62
256
  6
BYLAYER
  0
DICTIONARY
  5
19
100
AcDbDictionary
280
0
281
1
  0
DICTIONARY
  5
1A
100
AcDbDictionary
281
1
  3
Layout1
350
1E
  3
Layout2
350
26
  3
Model
350
22
  0
LAYOUT
  5
1E
100
AcDbPlotSettings
  1

  2
C:\Program Files\AutoCAD 2002\plotters\DWF ePlot (optimized for plotting).pc3
  4

  6

 40
0.0
 41
0.0
 42
0.0
 43
0.0
 44
0.0
 45
0.0
 46
0.0
 47
0.0
 48
0.0
 49
0.0
140
0.0
141
0.0
142
1.0
143
1.0
 70
688
 72
0
 73
0
 74
5
  7

 75
16
147
1.0
148
0.0
149
0.0
100
AcDbLayout
  1
Layout1
 70
1
 71
1
 10
0.0
 20
0.0
 11
420.0
 21
297.0
 12
0.0
 22
0.0
 32
0.0
 14
100000000000000000000.0
 24
100000000000000000000.0
 34
100000000000000000000.0
 15
-100000000000000000000.0
 25
-100000000000000000000.0
 35
-100000000000000000000.0
146
0.0
 13
0.0
 23
0.0
 33
0.0
 16
1.0
 26
0.0
 36
0.0
 17
0.0
 27
1.0
 37
0.0
 76
0
330
1B
  0
LAYOUT
  5
22
100
AcDbPlotSettings
  1

  2
C:\Program Files\AutoCAD 2002\plotters\DWF ePlot (optimized for plotting).pc3
  4

  6

 40
0.0
 41
0.0
 42
0.0
 43
0.0
 44
0.0
 45
0.0
 46
0.0
 47
0.0
 48
0.0
 49
0.0
140
0.0
141
0.0
142
1.0
143
1.0
 70
1712
 72
0
 73
0
 74
0
  7

 75
0
147
1.0
148
0.0
149
0.0
100
AcDbLayout
  1
Model
 70
1
 71
0
 10
0.0
 20
0.0
 11
12.0
 21
9.0
 12
0.0
 22
0.0
 32
0.0
 14
0.0
 24
0.0
 34
0.0
 15
0.0
 25
0.0
 35
0.0
146
0.0
 13
0.0
 23
0.0
 33
0.0
 16
1.0
 26
0.0
 36
0.0
 17
0.0
 27
1.0
 37
0.0
 76
0
330
1F
  0
LAYOUT
  5
26
100
AcDbPlotSettings
  1

  2
C:\Program Files\AutoCAD 2002\plotters\DWF ePlot (optimized for plotting).pc3
  4

  6

 40
0.0
 41
0.0
 42
0.0
 43
0.0
 44
0.0
 45
0.0
 46
0.0
 47
0.0
 48
0.0
 49
0.0
140
0.0
141
0.0
142
1.0
143
1.0
 70
688
 72
0
 73
0
 74
5
  7

 75
16
147
1.0
148
0.0
149
0.0
100
AcDbLayout
  1
Layout2
 70
1
 71
2
 10
0.0
 20
0.0
 11
12.0
 21
9.0
 12
0.0
 22
0.0
 32
0.0
 14
0.0
 24
0.0
 34
0.0
 15
0.0
 25
0.0
 35
0.0
146
0.0
 13
0.0
 23
0.0
 33
0.0
 16
1.0
 26
0.0
 36
0.0
 17
0.0
 27
1.0
 37
0.0
 76
0
330
23
  0
DICTIONARY
  5
155
100
AcDbDictionary
281
1
  3
DIMASSOC
350
157
  3
HIDETEXT
350
156
  0
DICTIONARYVAR
  5
156
100
DictionaryVariables
280
0
  1
2
  0
DICTIONARYVAR
  5
157
100
DictionaryVariables
280
0
  1
1
  0
ENDSEC
  0
EOF
