999
dxflib 2.0.4.8
  0
SECTION
  2
HEADER
  9
$ACADVER
  1
AC1015
  9
$HANDSEED
  5
FFFF
  9
$USERR4
 40
0.0
  9
$DIMTDEC
 70
4
  9
$DIMTAD
 70
0
  9
$CMLSTYLE
  2
STANDARD
  9
$VISRETAIN
 70
0
  9
$TILEMODE
 70
1
  9
$SHADEDIF
 70
70
  9
$USERR5
 40
0.0
  9
$UCSYDIR
 10
0.0
 20
1.0
 30
0.0
  9
$ATTREQ
 70
1
  9
$CHAMFERA
 40
0.0
  9
$MENU
  1
acad
  9
$DIMUNIT
 70
2
  9
$DIMALTZ
 70
0
  9
$DELOBJ
 70
1
  9
$CLAYER
  8
0
  9
$UCSXDIR
 10
1.0
 20
0.0
 30
0.0
  9
$CHAMFERB
 40
0.0
  9
$DIMUPT
 70
0
  9
$DIMASZ
 40
0.18
  9
$TRACEWID
 40
0.05
  9
$REGENMODE
 70
0
  9
$ORTHOMODE
 70
1
  9
$EXTMIN
 10
-0.026222
 20
-0.027446
 30
0.0
  9
$CMLJUST
 70
0
  9
$PICKSTYLE
 70
1
  9
$PUCSYDIR
 10
0.0
 20
1.0
 30
0.0
  9
$ANGBASE
 50
0.0
  9
$USRTIMER
 70
1
  9
$CHAMFERC
 40
0.0
  9
$SKETCHINC
 40
0.1
  9
$DIMGAP
 40
0.09
  9
$DIMTFAC
 40
1.0
  9
$DIMSAH
 70
0
  9
$DIMALT
 70
0
  9
$DIMSHO
 70
1
  9
$PUCSXDIR
 10
1.0
 20
0.0
 30
0.0
  9
$SURFTYPE
 70
6
  9
$SPLFRAME
 70
0
  9
$CHAMFERD
 40
0.0
  9
$DIMALTTD
 70
2
  9
$DIMTSZ
 40
0.0
  9
$LIMMIN
 10
0.0
 20
0.0
  9
$DWGCODEPAGE
  3
ansi_1252
  9
$SURFTAB1
 70
6
  9
$SPLINESEGS
 70
8
  9
$BLIPMODE
 70
0
  9
$AUPREC
 70
4
  9
$LUNITS
 70
2
  9
$UNITMODE
 70
0
  9
$USERI1
 70
0
  9
$SURFTAB2
 70
6
  9
$SKPOLY
 70
0
  9
$ELEVATION
 40
0.0
  9
$DIMCEN
 40
0.09
  9
$DIMRND
 40
0.0
  9
$INSBASE
 10
0.0
 20
0.0
 30
0.0
  9
$USERI2
 70
0
  9
$UCSORG
 10
0.0
 20
0.0
 30
0.0
  9
$PELEVATION
 40
0.0
  9
$DIMEXO
 40
0.0625
  9
$TEXTSIZE
 40
0.2
  9
$DRAGMODE
 70
2
  9
$FILLMODE
 70
1
  9
$EXTMAX
 10
3.0286780000000002
 20
5.237393
 30
0.0
  9
$INSUNITS
 70
4
  9
$USERI3
 70
0
  9
$SURFU
 70
6
  9
$ANGDIR
 70
0
  9
$TDUSRTIMER
 40
0.1358175926
  9
$DIMTZIN
 70
0
  9
$DIMTOLJ
 70
1
  9
$DIMZIN
 70
3
  9
$DIMDLE
 40
0.0
  9
$DIMSCALE
 40
0.3
  9
$WORLDVIEW
 70
1
  9
$USERI4
 70
0
  9
$SURFV
 70
6
  9
$DIMALTTZ
 70
0
  9
$DIMJUST
 70
0
  9
$OSMODE
 70
5
  9
$QTEXTMODE
 70
0
  9
$LIMMAX
 10
12.0
 20
9.0
  9
$USERI5
 70
0
  9
$HANDLING
 70
1
  9
$PDMODE
 70
0
  9
$LIMCHECK
 70
0
  9
$THICKNESS
 40
0.0
  9
$DIMSE1
 70
0
  9
$DIMLIM
 70
0
  9
$DIMTXT
 40
0.18
  9
$ATTMODE
 70
1
  9
$PEXTMAX
 10
-100000000000000000000.0
 20
-100000000000000000000.0
 30
-100000000000000000000.0
  9
$PEXTMIN
 10
100000000000000000000.0
 20
100000000000000000000.0
 30
100000000000000000000.0
  9
$PUCSORG
 10
0.0
 20
0.0
 30
0.0
  9
$SPLINETYPE
 70
6
  9
$TDINDWG
 40
0.1358175926
  9
$LUPREC
 70
6
  9
$DIMSOXD
 70
0
  9
$DIMLFAC
 40
1.0
  9
$DIMSE2
 70
0
  9
$DIMTOH
 70
1
  9
$CELTYPE
  6
CONTINUOUS
  9
$PLIMCHECK
 70
0
  9
$PLINEWID
 40
0.0
  9
$DIMSTYLE
  2
STANDARD
  9
$DIMTVP
 40
0.0
  9
$DIMASO
 70
1
  9
$DIMTM
 40
0.0
  9
$DIMDLI
 40
0.38
  9
$DISPSILH
 70
0
  9
$CECOLOR
 62
256
  9
$TREEDEPTH
 70
3020
  9
$PLIMMAX
 10
12.0
 20
9.0
  9
$PLIMMIN
 10
0.0
 20
0.0
  9
$MAXACTVP
 70
16
  9
$TDUPDATE
 40
2448988.5078376149758697
  9
$FILLETRAD
 40
0.0
  9
$DIMALTU
 70
2
  9
$DIMDEC
 70
4
  9
$DIMCLRT
 70
0
  9
$DIMALTD
 70
2
  9
$DIMTIH
 70
1
  9
$LTSCALE
 40
1.0
  9
$CMLSCALE
 40
1.0
  9
$PINSBASE
 10
0.0
 20
0.0
 30
0.0
  9
$USERR1
 40
0.0
  9
$ATTDIA
 70
1
  9
$PDSIZE
 40
0.0
  9
$DIMTXSTY
  7
STANDARD
  9
$DIMCLRD
 70
0
  9
$DIMEXE
 40
0.18
  9
$CELTSCALE
 40
1.0
  9
$SAVEIMAGES
 70
0
  9
$PSLTSCALE
 70
0
  9
$PLINEGEN
 70
0
  9
$SHADEDGE
 70
3
  9
$USERR2
 40
0.0
  9
$COORDS
 70
2
  9
$TDCREATE
 40
2448554.6801265049725771
  9
$DIMAUNIT
 70
0
  9
$DIMFIT
 70
3
  9
$DIMSD1
 70
0
  9
$DIMCLRE
 70
0
  9
$DIMTOFL
 70
0
  9
$DIMALTF
 40
25.3999999999999986
  9
$DIMTOL
 70
0
  9
$DIMTP
 40
0.0
  9
$TEXTSTYLE
  7
STANDARD
  9
$USERR3
 40
0.0
  9
$AUNITS
 70
0
  9
$DIMSD2
 70
0
  9
$DIMTIX
 70
0
  9
$MIRRTEXT
 70
1
  0
ENDSEC
  0
SECTION
  2
TABLES
  0
TABLE
  2
VPORT
  5
8
100
AcDbSymbolTable
 70
1
  0
VPORT
  5
30
100
AcDbSymbolTableRecord
100
AcDbViewportTableRecord
  2
*Active
 70
0
 10
0.0
 20
0.0
 11
1.0
 21
1.0
 12
286.3055555555554861
 22
148.5
 13
0.0
 23
0.0
 14
10.0
 24
10.0
 15
10.0
 25
10.0
 16
0.0
 26
0.0
 36
1.0
 17
0.0
 27
0.0
 37
0.0
 40
297.0
 41
1.92798353909465
 42
50.0
 43
0.0
 44
0.0
 50
0.0
 51
0.0
 71
0
 72
100
 73
1
 74
3
 75
1
 76
1
 77
0
 78
0
281
0
 65
1
110
0.0
120
0.0
130
0.0
111
1.0
121
0.0
131
0.0
112
0.0
122
1.0
132
0.0
 79
0
146
0.0
  0
ENDTAB
  0
TABLE
  2
LTYPE
  5
5
100
AcDbSymbolTable
 70
21
  0
LTYPE
  5
14
100
AcDbSymbolTableRecord
100
AcDbLinetypeTableRecord
  2
ByBlock
 70
0
  3

 72
65
 73
0
 40
0.0
  0
LTYPE
  5
15
100
AcDbSymbolTableRecord
100
AcDbLinetypeTableRecord
  2
ByLayer
 70
0
  3

 72
65
 73
0
 40
0.0
  0
LTYPE
  5
16
100
AcDbSymbolTableRecord
100
AcDbLinetypeTableRecord
  2
CONTINUOUS
 70
0
  3
Solid line
 72
65
 73
0
 40
0.0
  0
LTYPE
  5
31
100
AcDbSymbolTableRecord
100
AcDbLinetypeTableRecord
  2
DOT
 70
0
  3
Dot . . . . . . . . . . . . . . . . . . . . . .
 72
65
 73
2
 40
6.3499999999999996
 49
0.0
 74
0
 49
-6.3499999999999996
 74
0
  0
LTYPE
  5
32
100
AcDbSymbolTableRecord
100
AcDbLinetypeTableRecord
  2
DOT2
 70
0
  3
Dot (.5x) .....................................
 72
65
 73
2
 40
3.1749999999999998
 49
0.0
 74
0
 49
-3.1749999999999998
 74
0
  0
LTYPE
  5
33
100
AcDbSymbolTableRecord
100
AcDbLinetypeTableRecord
  2
DOTX2
 70
0
  3
Dot (2x) .  .  .  .  .  .  .  .  .  .  .  .  .
 72
65
 73
2
 40
12.6999999999999993
 49
0.0
 74
0
 49
-12.6999999999999993
 74
0
  0
LTYPE
  5
34
100
AcDbSymbolTableRecord
100
AcDbLinetypeTableRecord
  2
DASHED
 70
0
  3
Dashed __ __ __ __ __ __ __ __ __ __ __ __ __ _
 72
65
 73
2
 40
19.0500000000000007
 49
12.6999999999999993
 74
0
 49
-6.3499999999999996
 74
0
  0
LTYPE
  5
35
100
AcDbSymbolTableRecord
100
AcDbLinetypeTableRecord
  2
DASHED2
 70
0
  3
Dashed (.5x) _ _ _ _ _ _ _ _ _ _ _ _ _ _ _ _ _
 72
65
 73
2
 40
9.5250000000000004
 49
6.3499999999999996
 74
0
 49
-3.1749999999999998
 74
0
  0
LTYPE
  5
36
100
AcDbSymbolTableRecord
100
AcDbLinetypeTableRecord
  2
DASHEDX2
 70
0
  3
Dashed (2x) ____  ____  ____  ____  ____  ___
 72
65
 73
2
 40
38.1000000000000014
 49
25.3999999999999986
 74
0
 49
-12.6999999999999993
 74
0
  0
LTYPE
  5
37
100
AcDbSymbolTableRecord
100
AcDbLinetypeTableRecord
  2
DASHDOT
 70
0
  3
Dash dot __ . __ . __ . __ . __ . __ . __ . __
 72
65
 73
4
 40
25.3999999999999986
 49
12.6999999999999993
 74
0
 49
-6.3499999999999996
 74
0
 49
0.0
 74
0
 49
-6.3499999999999996
 74
0
  0
LTYPE
  5
38
100
AcDbSymbolTableRecord
100
AcDbLinetypeTableRecord
  2
DASHDOT2
 70
0
  3
Dash dot (.5x) _._._._._._._._._._._._._._._.
 72
65
 73
4
 40
12.6999999999999993
 49
6.3499999999999996
 74
0
 49
-3.1749999999999998
 74
0
 49
0.0
 74
0
 49
-3.1749999999999998
 74
0
  0
LTYPE
  5
39
100
AcDbSymbolTableRecord
100
AcDbLinetypeTableRecord
  2
DASHDOTX2
 70
0
  3
Dash dot (2x) ____  .  ____  .  ____  .  ___
 72
65
 73
4
 40
50.7999999999999972
 49
25.3999999999999986
 74
0
 49
-12.6999999999999993
 74
0
 49
0.0
 74
0
 49
-12.6999999999999993
 74
0
  0
LTYPE
  5
3A
100
AcDbSymbolTableRecord
100
AcDbLinetypeTableRecord
  2
DIVIDE
 70
0
  3
Divide ____ . . ____ . . ____ . . ____ . . ____
 72
65
 73
6
 40
31.75
 49
12.6999999999999993
 74
0
 49
-6.3499999999999996
 74
0
 49
0.0
 74
0
 49
-6.3499999999999996
 74
0
 49
0.0
 74
0
 49
-6.3499999999999996
 74
0
  0
LTYPE
  5
3B
100
AcDbSymbolTableRecord
100
AcDbLinetypeTableRecord
  2
DIVIDE2
 70
0
  3
Divide (.5x) __..__..__..__..__..__..__..__.._
 72
65
 73
6
 40
15.875
 49
6.3499999999999996
 74
0
 49
-3.1749999999999998
 74
0
 49
0.0
 74
0
 49
-3.1749999999999998
 74
0
 49
0.0
 74
0
 49
-3.1749999999999998
 74
0
  0
LTYPE
  5
3C
100
AcDbSymbolTableRecord
100
AcDbLinetypeTableRecord
  2
DIVIDEX2
 70
0
  3
Divide (2x) ________  .  .  ________  .  .  _
 72
65
 73
6
 40
63.5
 49
25.3999999999999986
 74
0
 49
-12.6999999999999993
 74
0
 49
0.0
 74
0
 49
-12.6999999999999993
 74
0
 49
0.0
 74
0
 49
-12.6999999999999993
 74
0
  0
LTYPE
  5
3D
100
AcDbSymbolTableRecord
100
AcDbLinetypeTableRecord
  2
CENTER
 70
0
  3
Center ____ _ ____ _ ____ _ ____ _ ____ _ ____
 72
65
 73
4
 40
50.7999999999999972
 49
31.75
 74
0
 49
-6.3499999999999996
 74
0
 49
6.3499999999999996
 74
0
 49
-6.3499999999999996
 74
0
  0
LTYPE
  5
3E
100
AcDbSymbolTableRecord
100
AcDbLinetypeTableRecord
  2
CENTER2
 70
0
  3
Center (.5x) ___ _ ___ _ ___ _ ___ _ ___ _ ___
 72
65
 73
4
 40
28.5749999999999993
 49
19.0500000000000007
 74
0
 49
-3.1749999999999998
 74
0
 49
3.1749999999999998
 74
0
 49
-3.1749999999999998
 74
0
  0
LTYPE
  5
3F
100
AcDbSymbolTableRecord
100
AcDbLinetypeTableRecord
  2
CENTERX2
 70
0
  3
Center (2x) ________  __  ________  __  _____
 72
65
 73
4
 40
101.5999999999999943
 49
63.5
 74
0
 49
-12.6999999999999993
 74
0
 49
12.6999999999999993
 74
0
 49
-12.6999999999999993
 74
0
  0
LTYPE
  5
40
100
AcDbSymbolTableRecord
100
AcDbLinetypeTableRecord
  2
BORDER
 70
0
  3
Border __ __ . __ __ . __ __ . __ __ . __ __ .
 72
65
 73
6
 40
44.4500000000000028
 49
12.6999999999999993
 74
0
 49
-6.3499999999999996
 74
0
 49
12.6999999999999993
 74
0
 49
-6.3499999999999996
 74
0
 49
0.0
 74
0
 49
-6.3499999999999996
 74
0
  0
LTYPE
  5
41
100
AcDbSymbolTableRecord
100
AcDbLinetypeTableRecord
  2
BORDER2
 70
0
  3
Border (.5x) __.__.__.__.__.__.__.__.__.__.__.
 72
65
 73
6
 40
22.2250000000000014
 49
6.3499999999999996
 74
0
 49
-3.1749999999999998
 74
0
 49
6.3499999999999996
 74
0
 49
-3.1749999999999998
 74
0
 49
0.0
 74
0
 49
-3.1749999999999998
 74
0
  0
LTYPE
  5
42
100
AcDbSymbolTableRecord
100
AcDbLinetypeTableRecord
  2
BORDERX2
 70
0
  3
Border (2x) ____  ____  .  ____  ____  .  ___
 72
65
 73
6
 40
88.9000000000000057
 49
25.3999999999999986
 74
0
 49
-12.6999999999999993
 74
0
 49
25.3999999999999986
 74
0
 49
-12.6999999999999993
 74
0
 49
0.0
 74
0
 49
-12.6999999999999993
 74
0
  0
ENDTAB
  0
TABLE
  2
LAYER
  5
2
100
AcDbSymbolTable
 70
2
  0
LAYER
  5
10
100
AcDbSymbolTableRecord
100
AcDbLayerTableRecord
  2
0
 70
0
 62
7
  6
CONTINUOUS
390
F
  0
LAYER
  5
43
100
AcDbSymbolTableRecord
100
AcDbLayerTableRecord
  2
ASHADE
 70
0
 62
7
  6
CONTINUOUS
390
F
  0
ENDTAB
  0
TABLE
  2
STYLE
  5
3
100
AcDbSymbolTable
 70
1
  0
STYLE
  5
11
100
AcDbSymbolTableRecord
100
AcDbTextStyleTableRecord
  2
Standard
 70
0
 40
0.0
 41
0.75
 50
0.0
 71
0
 42
2.5
  3
txt
  4

  0
ENDTAB
  0
TABLE
  2
VIEW
  5
6
100
AcDbSymbolTable
 70
0
  0
ENDTAB
  0
TABLE
  2
UCS
  5
7
100
AcDbSymbolTable
 70
0
  0
ENDTAB
  0
TABLE
  2
APPID
  5
9
100
AcDbSymbolTable
 70
1
  0
APPID
  5
12
100
AcDbSymbolTableRecord
100
AcDbRegAppTableRecord
  2
ACAD
 70
0
  0
ENDTAB
  0
TABLE
  2
DIMSTYLE
  5
A
100
AcDbSymbolTable
 70
1
100
AcDbDimStyleTable
 71
0
  0
DIMSTYLE
105
27
100
AcDbSymbolTableRecord
100
AcDbDimStyleTableRecord
  2
Standard
 41
0.18
 42
0.0625
 43
3.75
 44
0.18
 70
0
 73
0
 74
0
 77
1
 78
8
140
0.18
141
2.5
143
0.03937007874016
147
0.09
171
3
172
1
271
2
272
2
274
3
278
44
283
0
284
8
340
11
  0
ENDTAB
  0
TABLE
  2
BLOCK_RECORD
  5
1
100
AcDbSymbolTable
 70
1
  0
BLOCK_RECORD
  5
1F
100
AcDbSymbolTableRecord
100
AcDbBlockTableRecord
  2
*Model_Space
340
22
  0
BLOCK_RECORD
  5
1B
100
AcDbSymbolTableRecord
100
AcDbBlockTableRecord
  2
*Paper_Space
340
1E
  0
BLOCK_RECORD
  5
23
100
AcDbSymbolTableRecord
100
AcDbBlockTableRecord
  2
*Paper_Space0
340
26
  0
BLOCK_RECORD
  5
44
100
AcDbSymbolTableRecord
100
AcDbBlockTableRecord
  2
AVE_RENDER
340
0
  0
ENDTAB
  0
ENDSEC
  0
SECTION
  2
BLOCKS
  0
BLOCK
  5
20
100
AcDbEntity
  8
0
100
AcDbBlockBegin
  2
*Model_Space
 70
0
 10
0.0
 20
0.0
 30
0.0
  3
*Model_Space
  1

  0
ENDBLK
  5
21
100
AcDbEntity
  8
0
100
AcDbBlockEnd
  0
BLOCK
  5
1C
100
AcDbEntity
 67
1
  8
0
100
AcDbBlockBegin
  2
*Paper_Space
 70
0
 10
0.0
 20
0.0
 30
0.0
  3
*Paper_Space
  1

  0
ENDBLK
  5
1D
100
AcDbEntity
 67
1
  8
0
100
AcDbBlockEnd
  0
BLOCK
  5
24
100
AcDbEntity
  8
0
100
AcDbBlockBegin
  2
*Paper_Space0
 70
0
 10
0.0
 20
0.0
 30
0.0
  3
*Paper_Space0
  1

  0
ENDBLK
  5
25
100
AcDbEntity
  8
0
100
AcDbBlockEnd
  0
BLOCK
  5
45
100
AcDbEntity
  8
0
100
AcDbBlockBegin
  2
AVE_RENDER
 70
0
 10
0.0
 20
0.0
 30
0.0
  3
AVE_RENDER
  1

  0
ENDBLK
  5
46
100
AcDbEntity
  8
0
100
AcDbBlockEnd
  0
ENDSEC
  0
SECTION
  2
ENTITIES
  0
CIRCLE
  5
47
100
AcDbEntity
100
AcDbCircle
  8
0
 62
256
370
-1
  6
CONTINUOUS
 10
-0.7500000000000001
 20
0.75
 30
0.0
 40
0.1285
  0
CIRCLE
  5
48
100
AcDbEntity
100
AcDbCircle
  8
0
 62
256
370
-1
  6
CONTINUOUS
 10
-0.7500000000000001
 20
-0.75
 30
0.0
 40
0.1285
  0
CIRCLE
  5
49
100
AcDbEntity
100
AcDbCircle
  8
0
 62
256
370
-1
  6
CONTINUOUS
 10
0.75
 20
-0.75
 30
0.0
 40
0.1285
  0
CIRCLE
  5
4A
100
AcDbEntity
100
AcDbCircle
  8
0
 62
256
370
-1
  6
CONTINUOUS
 10
0.75
 20
0.75
 30
0.0
 40
0.1285
  0
INSERT
  5
4B
100
AcDbEntity
100
AcDbBlockReference
  8
ASHADE
 62
1
370
-1
  6
CONTINUOUS
  2
AVE_RENDER
 10
-1.4998260000000001
 20
-1.5
 30
0.0
  0
INSERT
  5
4C
100
AcDbEntity
100
AcDbBlockReference
  8
ASHADE
 62
3
370
-1
  6
CONTINUOUS
  2
AVE_RENDER
 10
-1.4998260000000001
 20
-1.5
 30
0.0
  0
INSERT
  5
4D
100
AcDbEntity
100
AcDbBlockReference
  8
ASHADE
 62
4
370
-1
  6
CONTINUOUS
  2
AVE_RENDER
 10
-1.4998260000000001
 20
-1.5
 30
0.0
  0
ARC
  5
4E
100
AcDbEntity
  8
0
 62
256
370
-1
  6
CONTINUOUS
100
AcDbCircle
 10
-1.5000000100673563
 20
1.3447350001340044
 30
0.0
 40
0.030000000134006
100
AcDbArc
 50
270.0000192272337358
 51
89.9923413355091526
  0
LINE
  5
4F
100
AcDbEntity
100
AcDbLine
  8
0
 62
256
370
-1
  6
CONTINUOUS
 10
-1.5
 20
1.3147350000000002
 30
0.0
 11
-1.5
 21
1.25
 31
0.0
  0
LINE
  5
50
100
AcDbEntity
100
AcDbLine
  8
0
 62
256
370
-1
  6
CONTINUOUS
 10
-1.5
 20
1.25
 30
0.0
 11
-1.4955990000000001
 21
1.1239819999999998
 31
0.0
  0
ARC
  5
51
100
AcDbEntity
  8
0
 62
256
370
-1
  6
CONTINUOUS
100
AcDbCircle
 10
-1.494553508861268
 20
1.0939999298151495
 30
0.0
 40
0.0300002930700759
100
AcDbArc
 50
272.0048037613087786
 51
91.9971258697665775
  0
LINE
  5
52
100
AcDbEntity
100
AcDbLine
  8
0
 62
256
370
-1
  6
CONTINUOUS
 10
-1.4935040000000002
 20
1.0640179999999999
 30
0.0
 11
-1.4902150000000001
 21
0.9698359999999999
 31
0.0
  0
ARC
  5
53
100
AcDbEntity
  8
0
 62
256
370
-1
  6
CONTINUOUS
100
AcDbCircle
 10
-1.4282530865968095
 20
0.9719996791946071
 30
0.0
 40
0.0619996791946672
100
AcDbArc
 50
181.9999274994001439
 51
270.0000800267318937
  0
LINE
  5
54
100
AcDbEntity
100
AcDbLine
  8
0
 62
256
370
-1
  6
CONTINUOUS
 10
-1.4282530000000002
 20
0.9100000000000001
 30
0.0
 11
-1.3922320000000001
 21
0.9100000000000001
 31
0.0
  0
ARC
  5
55
100
AcDbEntity
  8
0
 62
256
370
-1
  6
CONTINUOUS
100
AcDbCircle
 10
-1.3922319352543766
 20
0.9719996882117683
 30
0.0
 40
0.061999688211802
100
AcDbArc
 50
269.9999401666190693
 51
1.9995874702076188
  0
LINE
  5
56
100
AcDbEntity
100
AcDbLine
  8
0
 62
256
370
-1
  6
CONTINUOUS
 10
-1.3302700000000001
 20
0.9741629999999999
 30
0.0
 11
-1.3353190000000001
 21
1.118779
 31
0.0
  0
ARC
  5
57
100
AcDbEntity
  8
0
 62
256
370
-1
  6
CONTINUOUS
100
AcDbCircle
 10
-1.3003407857199825
 20
1.1200004649902966
 30
0.0
 40
0.0349995350103591
100
AcDbArc
 50
90.0003507858216807
 51
181.9999980894100986
  0
LINE
  5
58
100
AcDbEntity
100
AcDbLine
  8
0
 62
256
370
-1
  6
CONTINUOUS
 10
-1.3003410000000002
 20
1.1549999999999998
 30
0.0
 11
-1.2826350000000002
 21
1.1549999999999998
 31
0.0
  0
ARC
  5
59
100
AcDbEntity
  8
0
 62
256
370
-1
  6
CONTINUOUS
100
AcDbCircle
 10
-1.2826345763511504
 20
1.1199997545493487
 30
0.0
 40
0.0350002454532151
100
AcDbArc
 50
45.0007745103942085
 51
90.0006935177387533
  0
LINE
  5
5A
100
AcDbEntity
100
AcDbLine
  8
0
 62
256
370
-1
  6
CONTINUOUS
 10
-1.2578860000000001
 20
1.144749
 30
0.0
 11
-1.070271
 21
0.9571339999999999
 31
0.0
  0
ARC
  5
5B
100
AcDbEntity
  8
0
 62
256
370
-1
  6
CONTINUOUS
100
AcDbCircle
 10
-1.2024989731082338
 20
0.8249040749791332
 30
0.0
 40
0.1869999731105216
100
AcDbArc
 50
0.0002834207036408
 51
45.0004228890747342
  0
LINE
  5
5C
100
AcDbEntity
100
AcDbLine
  8
0
 62
256
370
-1
  6
CONTINUOUS
 10
-1.0154990000000002
 20
0.8249050000000002
 30
0.0
 11
-1.0154990000000002
 21
0.6750949999999998
 31
0.0
  0
ARC
  5
5D
100
AcDbEntity
  8
0
 62
256
370
-1
  6
CONTINUOUS
100
AcDbCircle
 10
-1.2024993416580125
 20
0.6750950776830424
 30
0.0
 40
0.1870003416580287
100
AcDbArc
 50
315.0000571910386498
 51
359.9999761859893397
  0
LINE
  5
5E
100
AcDbEntity
100
AcDbLine
  8
0
 62
256
370
-1
  6
CONTINUOUS
 10
-1.0702700000000001
 20
0.5428660000000001
 30
0.0
 11
-1.2578860000000001
 21
0.3552500000000001
 31
0.0
  0
ARC
  5
5F
100
AcDbEntity
  8
0
 62
256
370
-1
  6
CONTINUOUS
100
AcDbCircle
 10
-1.2826345763511506
 20
0.3799992454506513
 30
0.0
 40
0.0350002454532152
100
AcDbArc
 50
269.9993064822617157
 51
314.9992254896060899
  0
LINE
  5
60
100
AcDbEntity
100
AcDbLine
  8
0
 62
256
370
-1
  6
CONTINUOUS
 10
-1.2826350000000002
 20
0.3449990000000001
 30
0.0
 11
-1.3013890000000001
 21
0.3449990000000001
 31
0.0
  0
ARC
  5
61
100
AcDbEntity
  8
0
 62
256
370
-1
  6
CONTINUOUS
100
AcDbCircle
 10
-1.301388862186823
 20
0.3799994605782984
 30
0.0
 40
0.0350004605785695
100
AcDbArc
 50
177.9999329024118708
 51
269.9997743997287216
  0
LINE
  5
62
100
AcDbEntity
100
AcDbLine
  8
0
 62
256
370
-1
  6
CONTINUOUS
 10
-1.3363680000000002
 20
0.381221
 30
0.0
 11
-1.331318
 21
0.5258370000000001
 31
0.0
  0
ARC
  5
63
100
AcDbEntity
  8
0
 62
256
370
-1
  6
CONTINUOUS
100
AcDbCircle
 10
-1.3932798301862646
 20
0.5280004132521654
 30
0.0
 40
0.0619995867480672
100
AcDbArc
 50
358.0003154329278345
 51
90.0001569302452253
  0
LINE
  5
64
100
AcDbEntity
100
AcDbLine
  8
0
 62
256
370
-1
  6
CONTINUOUS
 10
-1.3932800000000001
 20
0.5899999999999999
 30
0.0
 11
-1.4293010000000002
 21
0.5899999999999999
 31
0.0
  0
ARC
  5
65
100
AcDbEntity
  8
0
 62
256
370
-1
  6
CONTINUOUS
100
AcDbCircle
 10
-1.4293011779708662
 20
0.528000379258474
 30
0.0
 40
0.0619996207417812
100
AcDbArc
 50
89.9998355315825052
 51
177.999199970930249
  0
LINE
  5
66
100
AcDbEntity
100
AcDbLine
  8
0
 62
256
370
-1
  6
CONTINUOUS
 10
-1.491263
 20
0.5301650000000002
 30
0.0
 11
-1.494553
 21
0.4359820000000001
 31
0.0
  0
ARC
  5
67
100
AcDbEntity
  8
0
 62
256
370
-1
  6
CONTINUOUS
100
AcDbCircle
 10
-1.4956020088613049
 20
0.4060000701513504
 30
0.0
 40
0.0300002756160747
100
AcDbArc
 50
268.0038284689179591
 51
87.9961505772353831
  0
LINE
  5
68
100
AcDbEntity
100
AcDbLine
  8
0
 62
256
370
-1
  6
CONTINUOUS
 10
-1.4966470000000001
 20
0.376018
 30
0.0
 11
-1.5017200000000002
 21
0.25
 31
0.0
  0
LINE
  5
69
100
AcDbEntity
100
AcDbLine
  8
0
 62
256
370
-1
  6
CONTINUOUS
 10
-1.5017200000000002
 20
0.25
 30
0.0
 11
-1.5017200000000002
 21
0.1859999999999999
 31
0.0
  0
ARC
  5
6A
100
AcDbEntity
  8
0
 62
256
370
-1
  6
CONTINUOUS
100
AcDbCircle
 10
-1.5017220100673607
 20
0.1559999999999999
 30
0.0
 40
0.0300000000673395
100
AcDbArc
 50
270.0038389458708252
 51
89.9961610541291748
  0
LINE
  5
6B
100
AcDbEntity
100
AcDbLine
  8
0
 62
256
370
-1
  6
CONTINUOUS
 10
-1.5017200000000002
 20
0.1259999999999999
 30
0.0
 11
-1.5018940000000001
 21
-0.1275329999999999
 31
0.0
  0
ARC
  5
6C
100
AcDbEntity
  8
0
 62
256
370
-1
  6
CONTINUOUS
100
AcDbCircle
 10
-1.5018940100673561
 20
-0.1575330001340045
 30
0.0
 40
0.0300000001340062
100
AcDbArc
 50
270.0076586644908616
 51
89.99998077276625
  0
LINE
  5
6D
100
AcDbEntity
100
AcDbLine
  8
0
 62
256
370
-1
  6
CONTINUOUS
 10
-1.5018900000000002
 20
-0.1875329999999999
 30
0.0
 11
-1.5018940000000001
 21
-0.251533
 31
0.0
  0
LINE
  5
6E
100
AcDbEntity
100
AcDbLine
  8
0
 62
256
370
-1
  6
CONTINUOUS
 10
-1.5018940000000001
 20
-0.251533
 30
0.0
 11
-1.4974940000000001
 21
-0.377551
 31
0.0
  0
ARC
  5
6F
100
AcDbEntity
  8
0
 62
256
370
-1
  6
CONTINUOUS
100
AcDbCircle
 10
-1.4964490088613047
 20
-0.4075330701513502
 30
0.0
 40
0.0300002756160747
100
AcDbArc
 50
272.0038494227646311
 51
91.9961715310820409
  0
LINE
  5
70
100
AcDbEntity
100
AcDbLine
  8
0
 62
256
370
-1
  6
CONTINUOUS
 10
-1.4954000000000001
 20
-0.4375150000000001
 30
0.0
 11
-1.49211
 21
-0.531697
 31
0.0
  0
ARC
  5
71
100
AcDbEntity
  8
0
 62
256
370
-1
  6
CONTINUOUS
100
AcDbCircle
 10
-1.4301476601999623
 20
-0.529532879258474
 30
0.0
 40
0.0620001207424571
100
AcDbArc
 50
182.0003215433919195
 51
269.999685982739777
  0
LINE
  5
72
100
AcDbEntity
100
AcDbLine
  8
0
 62
256
370
-1
  6
CONTINUOUS
 10
-1.4301480000000002
 20
-0.591533
 30
0.0
 11
-1.3941270000000001
 21
-0.591533
 31
0.0
  0
ARC
  5
73
100
AcDbEntity
  8
0
 62
256
370
-1
  6
CONTINUOUS
100
AcDbCircle
 10
-1.3941272079626583
 20
-0.5295330147156936
 30
0.0
 40
0.0619999852846551
100
AcDbArc
 50
270.0001921836362158
 51
2.0002278745421176
  0
LINE
  5
74
100
AcDbEntity
100
AcDbLine
  8
0
 62
256
370
-1
  6
CONTINUOUS
 10
-1.332165
 20
-0.527369
 30
0.0
 11
-1.337215
 21
-0.3827529999999999
 31
0.0
  0
ARC
  5
75
100
AcDbEntity
  8
0
 62
256
370
-1
  6
CONTINUOUS
100
AcDbCircle
 10
-1.3022369043448752
 20
-0.3815314204556739
 30
0.0
 40
0.0349994204558046
100
AcDbArc
 50
90.0001565921629805
 51
182.0001922830690546
  0
LINE
  5
76
100
AcDbEntity
100
AcDbLine
  8
0
 62
256
370
-1
  6
CONTINUOUS
 10
-1.3022370000000001
 20
-0.3465320000000001
 30
0.0
 11
-1.283482
 21
-0.3465320000000001
 31
0.0
  0
ARC
  5
77
100
AcDbEntity
  8
0
 62
256
370
-1
  6
CONTINUOUS
100
AcDbCircle
 10
-1.2834815763511507
 20
-0.3815322454506511
 30
0.0
 40
0.0350002454532152
100
AcDbArc
 50
45.0007745103936259
 51
90.0006935177382843
  0
LINE
  5
78
100
AcDbEntity
100
AcDbLine
  8
0
 62
256
370
-1
  6
CONTINUOUS
 10
-1.2587330000000001
 20
-0.3567830000000001
 30
0.0
 11
-1.0711170000000001
 21
-0.544399
 31
0.0
  0
ARC
  5
79
100
AcDbEntity
  8
0
 62
256
370
-1
  6
CONTINUOUS
100
AcDbCircle
 10
-1.203346341658013
 20
-0.6766280776830425
 30
0.0
 40
0.1870003416580291
100
AcDbArc
 50
0.0000238140106569
 51
44.9999428089612721
  0
LINE
  5
7A
100
AcDbEntity
100
AcDbLine
  8
0
 62
256
370
-1
  6
CONTINUOUS
 10
-1.016346
 20
-0.676628
 30
0.0
 11
-1.016346
 21
-0.826278
 31
0.0
  0
ARC
  5
7B
100
AcDbEntity
  8
0
 62
256
370
-1
  6
CONTINUOUS
100
AcDbCircle
 10
-1.203346343797264
 20
-0.8262779310634765
 30
0.0
 40
0.1870003437972766
100
AcDbArc
 50
312.9758804390190789
 51
359.9999788788064734
  0
LINE
  5
7C
100
AcDbEntity
100
AcDbLine
  8
0
 62
256
370
-1
  6
CONTINUOUS
 10
-1.0758700000000001
 20
-0.963095
 30
0.0
 11
-1.2587110000000001
 21
-1.146261
 31
0.0
  0
ARC
  5
7D
100
AcDbEntity
  8
0
 62
256
370
-1
  6
CONTINUOUS
100
AcDbCircle
 10
-1.2826674290314262
 20
-1.1234645962573895
 30
0.0
 40
0.0330694196431365
100
AcDbArc
 50
270.0561862576441285
 51
316.4213239092104573
  0
LINE
  5
7E
100
AcDbEntity
100
AcDbLine
  8
0
 62
256
370
-1
  6
CONTINUOUS
 10
-1.2826350000000002
 20
-1.156534
 30
0.0
 11
-1.3003410000000002
 21
-1.156534
 31
0.0
  0
ARC
  5
7F
100
AcDbEntity
  8
0
 62
256
370
-1
  6
CONTINUOUS
100
AcDbCircle
 10
-1.3003407857199822
 20
-1.1215344649902967
 30
0.0
 40
0.0349995350103592
100
AcDbArc
 50
178.0000019105895603
 51
269.9996492141781346
  0
LINE
  5
80
100
AcDbEntity
100
AcDbLine
  8
0
 62
256
370
-1
  6
CONTINUOUS
 10
-1.3353190000000001
 20
-1.1203129999999999
 30
0.0
 11
-1.3302700000000001
 21
-0.975696
 31
0.0
  0
ARC
  5
81
100
AcDbEntity
  8
0
 62
256
370
-1
  6
CONTINUOUS
100
AcDbCircle
 10
-1.3922319352543768
 20
-0.9735326882117683
 30
0.0
 40
0.0619996882118021
100
AcDbArc
 50
358.0004125297924134
 51
90.0000598333808455
  0
LINE
  5
82
100
AcDbEntity
100
AcDbLine
  8
0
 62
256
370
-1
  6
CONTINUOUS
 10
-1.3922320000000001
 20
-0.911533
 30
0.0
 11
-1.4282550000000001
 21
-0.911533
 31
0.0
  0
ARC
  5
83
100
AcDbEntity
  8
0
 62
256
370
-1
  6
CONTINUOUS
100
AcDbCircle
 10
-1.4282551018277918
 20
-0.9735326272715273
 30
0.0
 40
0.0619996272716109
100
AcDbArc
 50
89.9999058977779072
 51
178.0010435320101578
  0
LINE
  5
84
100
AcDbEntity
100
AcDbLine
  8
0
 62
256
370
-1
  6
CONTINUOUS
 10
-1.4902170000000001
 20
-0.97137
 30
0.0
 11
-1.4935040000000002
 21
-1.0655510000000001
 31
0.0
  0
ARC
  5
85
100
AcDbEntity
  8
0
 62
256
370
-1
  6
CONTINUOUS
100
AcDbCircle
 10
-1.4945535088612949
 20
-1.0955329298151488
 30
0.0
 40
0.030000293070076
100
AcDbArc
 50
268.0028741302849085
 51
87.9951962386397213
  0
LINE
  5
86
100
AcDbEntity
100
AcDbLine
  8
0
 62
256
370
-1
  6
CONTINUOUS
 10
-1.4955990000000001
 20
-1.125515
 30
0.0
 11
-1.5
 21
-1.2507360000000001
 31
0.0
  0
LINE
  5
87
100
AcDbEntity
100
AcDbLine
  8
0
 62
256
370
-1
  6
CONTINUOUS
 10
-1.5
 20
-1.2507360000000001
 30
0.0
 11
-1.5
 21
-1.3147359999999999
 31
0.0
  0
ARC
  5
88
100
AcDbEntity
  8
0
 62
256
370
-1
  6
CONTINUOUS
100
AcDbCircle
 10
-1.5000000100673292
 20
-1.3447360001340045
 30
0.0
 40
0.0300000001340062
100
AcDbArc
 50
270.0076586644393615
 51
89.9999807728177501
  0
ARC
  5
89
100
AcDbEntity
  8
0
 62
256
370
-1
  6
CONTINUOUS
100
AcDbCircle
 10
-1.3755103708520329
 20
-1.3753266394916235
 30
0.0
 40
0.1244870303259513
100
AcDbArc
 50
179.7281541943491732
 51
270.1879550681029514
  0
ARC
  5
8A
100
AcDbEntity
  8
0
 62
256
370
-1
  6
CONTINUOUS
100
AcDbCircle
 10
-1.3451020030821033
 20
-1.4998610100673171
 30
0.0
 40
0.0300000353339855
100
AcDbArc
 50
359.9159854860514542
 51
179.9083075944772645
  0
LINE
  5
8B
100
AcDbEntity
100
AcDbLine
  8
0
 62
256
370
-1
  6
CONTINUOUS
 10
-1.315102
 20
-1.499905
 30
0.0
 11
-1.2519500000000001
 21
-1.5
 31
0.0
  0
LINE
  5
8C
100
AcDbEntity
100
AcDbLine
  8
0
 62
256
370
-1
  6
CONTINUOUS
 10
-1.2519500000000001
 20
-1.5
 30
0.0
 11
-1.1259250000000001
 21
-1.495784
 31
0.0
  0
ARC
  5
8D
100
AcDbEntity
  8
0
 62
256
370
-1
  6
CONTINUOUS
100
AcDbCircle
 10
-1.095941932763248
 20
-1.4947825089282902
 30
0.0
 40
0.0299997884207591
100
AcDbArc
 50
1.9207538835413613
 51
181.9130759919221703
  0
LINE
  5
8E
100
AcDbEntity
100
AcDbLine
  8
0
 62
256
370
-1
  6
CONTINUOUS
 10
-1.0659590000000001
 20
-1.4937769999999999
 30
0.0
 11
-0.9717720000000001
 21
-1.4906269999999999
 31
0.0
  0
ARC
  5
8F
100
AcDbEntity
  8
0
 62
256
370
-1
  6
CONTINUOUS
100
AcDbCircle
 10
-0.9738446159821682
 20
-1.4286619700930376
 30
0.0
 40
0.061999682808707
100
AcDbArc
 50
271.9157239559656887
 51
359.915876483296131
  0
LINE
  5
90
100
AcDbEntity
100
AcDbLine
  8
0
 62
256
370
-1
  6
CONTINUOUS
 10
-0.9118450000000001
 20
-1.4287529999999999
 30
0.0
 11
-0.9117920000000002
 21
-1.3927320000000001
 31
0.0
  0
ARC
  5
91
100
AcDbEntity
  8
0
 62
256
370
-1
  6
CONTINUOUS
100
AcDbCircle
 10
-0.9737920587111086
 20
-1.3926404961444825
 30
0.0
 40
0.062000126234843
100
AcDbArc
 50
359.9154390974322268
 51
91.915086401022549
  0
LINE
  5
92
100
AcDbEntity
100
AcDbLine
  8
0
 62
256
370
-1
  6
CONTINUOUS
 10
-0.9758640000000001
 20
-1.3306750000000001
 30
0.0
 11
-1.1204870000000002
 21
-1.335512
 31
0.0
  0
ARC
  5
93
100
AcDbEntity
  8
0
 62
256
370
-1
  6
CONTINUOUS
100
AcDbCircle
 10
-1.1216563912327773
 20
-1.300531893782779
 30
0.0
 40
0.034999647238556
100
AcDbArc
 50
179.9150478344724888
 51
271.9146951380611199
  0
LINE
  5
94
100
AcDbEntity
100
AcDbLine
  8
0
 62
256
370
-1
  6
CONTINUOUS
 10
-1.1566560000000001
 20
-1.3004800000000001
 30
0.0
 11
-1.15663
 21
-1.2827740000000001
 31
0.0
  0
ARC
  5
95
100
AcDbEntity
  8
0
 62
256
370
-1
  6
CONTINUOUS
100
AcDbCircle
 10
-1.1216298611872639
 20
-1.2828245322821468
 30
0.0
 40
0.0350001752913087
100
AcDbArc
 50
134.9173589068963963
 51
179.9172779142368768
  0
LINE
  5
96
100
AcDbEntity
100
AcDbLine
  8
0
 62
256
370
-1
  6
CONTINUOUS
 10
-1.1463430000000001
 20
-1.25804
 30
0.0
 11
-0.9584520000000001
 21
-1.0714980000000001
 31
0.0
  0
ARC
  5
97
100
AcDbEntity
  8
0
 62
256
370
-1
  6
CONTINUOUS
100
AcDbCircle
 10
-0.8264174599911662
 20
-1.2039200413182989
 30
0.0
 40
0.1869992427317544
100
AcDbArc
 50
89.9159065857425759
 51
134.9160460534308754
  0
LINE
  5
98
100
AcDbEntity
100
AcDbLine
  8
0
 62
256
370
-1
  6
CONTINUOUS
 10
-0.8261430000000001
 20
-1.016921
 30
0.0
 11
-0.6763330000000001
 21
-1.017142
 31
0.0
  0
ARC
  5
99
100
AcDbEntity
  8
0
 62
256
370
-1
  6
CONTINUOUS
100
AcDbCircle
 10
-0.676607756866744
 20
-1.2041415658132715
 30
0.0
 40
0.1869997676621227
100
AcDbArc
 50
44.9158968531903326
 51
89.9158158605348206
  0
LINE
  5
9A
100
AcDbEntity
100
AcDbLine
  8
0
 62
256
370
-1
  6
CONTINUOUS
 10
-0.5441850000000001
 20
-1.0721069999999999
 30
0.0
 11
-0.3568450000000001
 21
-1.2599990000000001
 31
0.0
  0
ARC
  5
9B
100
AcDbEntity
  8
0
 62
256
370
-1
  6
CONTINUOUS
100
AcDbCircle
 10
-0.3816291449793721
 20
-1.2847111204201545
 30
0.0
 40
0.0349991819621365
100
AcDbArc
 50
359.916707018510067
 51
44.9166260258541499
  0
LINE
  5
9C
100
AcDbEntity
100
AcDbLine
  8
0
 62
256
370
-1
  6
CONTINUOUS
 10
-0.34663
 20
-1.284762
 30
0.0
 11
-0.3466580000000001
 21
-1.303517
 31
0.0
  0
ARC
  5
9D
100
AcDbEntity
  8
0
 62
256
370
-1
  6
CONTINUOUS
100
AcDbCircle
 10
-0.3816578869092047
 20
-1.3034652370549011
 30
0.0
 40
0.0349999251864856
100
AcDbArc
 50
267.9154211966830985
 51
359.915262694004582
  0
LINE
  5
9E
100
AcDbEntity
100
AcDbLine
  8
0
 62
256
370
-1
  6
CONTINUOUS
 10
-0.3829310000000001
 20
-1.3384419999999999
 30
0.0
 11
-0.5275390000000001
 21
-1.33318
 31
0.0
  0
ARC
  5
9F
100
AcDbEntity
  8
0
 62
256
370
-1
  6
CONTINUOUS
100
AcDbCircle
 10
-0.5297938007502173
 20
-1.3951392519928687
 30
0.0
 40
0.0620002664021613
100
AcDbArc
 50
87.9158305432314791
 51
179.9156720405494241
  0
LINE
  5
A0
100
AcDbEntity
100
AcDbLine
  8
0
 62
256
370
-1
  6
CONTINUOUS
 10
-0.5917940000000002
 20
-1.3950480000000001
 30
0.0
 11
-0.5918470000000001
 21
-1.431068
 31
0.0
  0
ARC
  5
A1
100
AcDbEntity
  8
0
 62
256
370
-1
  6
CONTINUOUS
100
AcDbCircle
 10
-0.5298468154189393
 20
-1.4311587773522083
 30
0.0
 40
0.0620002510366956
100
AcDbArc
 50
179.9161106458720951
 51
267.9154750852201232
  0
LINE
  5
A2
100
AcDbEntity
100
AcDbLine
  8
0
 62
256
370
-1
  6
CONTINUOUS
 10
-0.5321020000000001
 20
-1.4931179999999999
 30
0.0
 11
-0.4379240000000002
 21
-1.4965470000000001
 31
0.0
  0
ARC
  5
A3
100
AcDbEntity
  8
0
 62
256
370
-1
  6
CONTINUOUS
100
AcDbCircle
 10
-0.4079440730994477
 20
-1.4976400087272581
 30
0.0
 40
0.0299998447502704
100
AcDbArc
 50
357.9197120778852081
 51
177.9120341863633428
  0
LINE
  5
A4
100
AcDbEntity
100
AcDbLine
  8
0
 62
256
370
-1
  6
CONTINUOUS
 10
-0.3779640000000002
 20
-1.498729
 30
0.0
 11
-0.2519530000000001
 21
-1.503314
 31
0.0
  0
LINE
  5
A5
100
AcDbEntity
100
AcDbLine
  8
0
 62
256
370
-1
  6
CONTINUOUS
 10
-0.2519530000000001
 20
-1.503314
 30
0.0
 11
-0.187953
 21
-1.503409
 31
0.0
  0
ARC
  5
A6
100
AcDbEntity
  8
0
 62
256
370
-1
  6
CONTINUOUS
100
AcDbCircle
 10
-0.1579530029480987
 20
-1.5034550100673023
 30
0.0
 40
0.0300000323339888
100
AcDbArc
 50
359.9198051960633506
 51
179.9121273045438727
  0
LINE
  5
A7
100
AcDbEntity
100
AcDbLine
  8
0
 62
256
370
-1
  6
CONTINUOUS
 10
-0.1279530000000002
 20
-1.5034970000000001
 30
0.0
 11
0.1242209999999999
 21
-1.503868
 31
0.0
  0
ARC
  5
A8
100
AcDbEntity
  8
0
 62
256
370
-1
  6
CONTINUOUS
100
AcDbCircle
 10
0.1542209971859057
 20
-1.5039120100673324
 30
0.0
 40
0.0300000294673252
100
AcDbArc
 50
359.9236249069042515
 51
179.9159470152739573
  0
LINE
  5
A9
100
AcDbEntity
100
AcDbLine
  8
0
 62
256
370
-1
  6
CONTINUOUS
 10
0.184221
 20
-1.503952
 30
0.0
 11
0.2482209999999998
 21
-1.5040500000000001
 31
0.0
  0
LINE
  5
AA
100
AcDbEntity
100
AcDbLine
  8
0
 62
256
370
-1
  6
CONTINUOUS
 10
0.2482209999999998
 20
-1.5040500000000001
 30
0.0
 11
0.3742459999999999
 21
-1.499835
 31
0.0
  0
ARC
  5
AB
100
AcDbEntity
  8
0
 62
256
370
-1
  6
CONTINUOUS
100
AcDbCircle
 10
0.4042290671697499
 20
-1.498834508928292
 30
0.0
 40
0.0299997549871712
100
AcDbArc
 50
1.9188450774204895
 51
181.9111671857950228
  0
LINE
  5
AC
100
AcDbEntity
100
AcDbLine
  8
0
 62
256
370
-1
  6
CONTINUOUS
 10
0.4342119999999998
 20
-1.49783
 30
0.0
 11
0.5284
 21
-1.494678
 31
0.0
  0
ARC
  5
AD
100
AcDbEntity
  8
0
 62
256
370
-1
  6
CONTINUOUS
100
AcDbCircle
 10
0.526326443098009
 20
-1.4327130608186198
 30
0.0
 40
0.0619996235954537
100
AcDbArc
 50
271.9165958060277717
 51
359.9159602453730713
  0
LINE
  5
AE
100
AcDbEntity
100
AcDbLine
  8
0
 62
256
370
-1
  6
CONTINUOUS
 10
0.5883259999999999
 20
-1.432804
 30
0.0
 11
0.5883789999999998
 21
-1.3967830000000001
 31
0.0
  0
ARC
  5
AF
100
AcDbEntity
  8
0
 62
256
370
-1
  6
CONTINUOUS
100
AcDbCircle
 10
0.5263796273715675
 20
-1.3966917863067052
 30
0.0
 40
0.0619994397253477
100
AcDbArc
 50
359.9157063101209246
 51
91.9157420010270414
  0
LINE
  5
B0
100
AcDbEntity
100
AcDbLine
  8
0
 62
256
370
-1
  6
CONTINUOUS
 10
0.5243069999999999
 20
-1.334727
 30
0.0
 11
0.3796839999999999
 21
-1.339564
 31
0.0
  0
ARC
  5
B1
100
AcDbEntity
  8
0
 62
256
370
-1
  6
CONTINUOUS
100
AcDbCircle
 10
0.378513994036342
 20
-1.3045835293932835
 30
0.0
 40
0.0350000319688761
100
AcDbArc
 50
179.9156452821194989
 51
271.915680973023143
  0
LINE
  5
B2
100
AcDbEntity
100
AcDbLine
  8
0
 62
256
370
-1
  6
CONTINUOUS
 10
0.3435139999999999
 20
-1.304532
 30
0.0
 11
0.3435409999999999
 21
-1.2857769999999999
 31
0.0
  0
ARC
  5
B3
100
AcDbEntity
  8
0
 62
256
370
-1
  6
CONTINUOUS
100
AcDbCircle
 10
0.3785404317035417
 20
-1.2858292393913411
 30
0.0
 40
0.0349994706892104
100
AcDbArc
 50
134.9145626205038297
 51
179.9144816278463281
  0
LINE
  5
B4
100
AcDbEntity
100
AcDbLine
  8
0
 62
256
370
-1
  6
CONTINUOUS
 10
0.3538289999999999
 20
-1.2610440000000001
 30
0.0
 11
0.5417199999999998
 21
-1.073704
 31
0.0
  0
ARC
  5
B5
100
AcDbEntity
  8
0
 62
256
370
-1
  6
CONTINUOUS
100
AcDbCircle
 10
0.6737541913901461
 20
-1.2061286175027541
 30
0.0
 40
0.1870008208987346
100
AcDbArc
 50
89.9154940873980308
 51
134.9154130947425188
  0
LINE
  5
B6
100
AcDbEntity
100
AcDbLine
  8
0
 62
256
370
-1
  6
CONTINUOUS
 10
0.6740299999999997
 20
-1.019128
 30
0.0
 11
0.82368
 21
-1.0193479999999999
 31
0.0
  0
ARC
  5
B7
100
AcDbEntity
  8
0
 62
256
370
-1
  6
CONTINUOUS
100
AcDbCircle
 10
0.8234049297470958
 20
-1.2063477088925796
 30
0.0
 40
0.1869999112019938
100
AcDbArc
 50
42.8916214659502799
 51
89.9157199051953882
  0
LINE
  5
B8
100
AcDbEntity
100
AcDbLine
  8
0
 62
256
370
-1
  6
CONTINUOUS
 10
0.9604089999999998
 20
-1.0790729999999999
 30
0.0
 11
1.1433049999999998
 21
-1.257709
 31
0.0
  0
ARC
  5
B9
100
AcDbEntity
  8
0
 62
256
370
-1
  6
CONTINUOUS
100
AcDbCircle
 10
1.1185416582622194
 20
-1.2824436611744394
 30
0.0
 40
0.0350003793898925
100
AcDbArc
 50
359.9159580800032927
 51
44.9668011848376707
  0
LINE
  5
BA
100
AcDbEntity
100
AcDbLine
  8
0
 62
256
370
-1
  6
CONTINUOUS
 10
1.1535419999999998
 20
-1.2824949999999999
 30
0.0
 11
1.1535159999999998
 21
-1.3002009999999999
 31
0.0
  0
ARC
  5
BB
100
AcDbEntity
  8
0
 62
256
370
-1
  6
CONTINUOUS
100
AcDbCircle
 10
1.1185165559004551
 20
-1.3001496605045471
 30
0.0
 40
0.0349994817536055
100
AcDbArc
 50
267.9163075243317849
 51
359.9159548279205865
  0
LINE
  5
BC
100
AcDbEntity
100
AcDbLine
  8
0
 62
256
370
-1
  6
CONTINUOUS
 10
1.1172439999999999
 20
-1.335126
 30
0.0
 11
0.9726349999999999
 21
-1.3298639999999999
 31
0.0
  0
ARC
  5
BD
100
AcDbEntity
  8
0
 62
256
370
-1
  6
CONTINUOUS
100
AcDbCircle
 10
0.9703803005597895
 20
-1.3918233572116325
 30
0.0
 40
0.0620003678670084
100
AcDbArc
 50
87.9159276400958163
 51
179.91557494368638
  0
LINE
  5
BE
100
AcDbEntity
100
AcDbLine
  8
0
 62
256
370
-1
  6
CONTINUOUS
 10
0.9083799999999997
 20
-1.391732
 30
0.0
 11
0.9083269999999999
 21
-1.4277549999999999
 31
0.0
  0
ARC
  5
BF
100
AcDbEntity
  8
0
 62
256
370
-1
  6
CONTINUOUS
100
AcDbCircle
 10
0.9703271897001109
 20
-1.4278456997661155
 30
0.0
 40
0.0620002560421917
100
AcDbArc
 50
179.9161823517087839
 51
267.9173199859429815
  0
LINE
  5
C0
100
AcDbEntity
100
AcDbLine
  8
0
 62
256
370
-1
  6
CONTINUOUS
 10
0.9680740000000001
 20
-1.489805
 30
0.0
 11
1.062249
 21
-1.4932300000000001
 31
0.0
  0
ARC
  5
C1
100
AcDbEntity
  8
0
 62
256
370
-1
  6
CONTINUOUS
100
AcDbCircle
 10
1.0922294268335486
 20
-1.4943240087607925
 30
0.0
 40
0.0300003808024243
100
AcDbArc
 50
357.9178382335591664
 51
177.9101603419101991
  0
LINE
  5
C2
100
AcDbEntity
100
AcDbLine
  8
0
 62
256
370
-1
  6
CONTINUOUS
 10
1.1222099999999999
 20
-1.495414
 30
0.0
 11
1.2488939999999999
 21
-1.5
 31
0.0
  0
LINE
  5
C3
100
AcDbEntity
100
AcDbLine
  8
0
 62
256
370
-1
  6
CONTINUOUS
 10
1.2488939999999999
 20
-1.5
 30
0.0
 11
1.312894
 21
-1.500094
 31
0.0
  0
ARC
  5
C4
100
AcDbEntity
  8
0
 62
256
370
-1
  6
CONTINUOUS
100
AcDbCircle
 10
1.3428939971859055
 20
-1.5001380100673325
 30
0.0
 40
0.0300000294673252
100
AcDbArc
 50
359.9236249069042515
 51
179.9159470152696088
  0
ARC
  5
C5
100
AcDbEntity
  8
0
 62
256
370
-1
  6
CONTINUOUS
100
AcDbCircle
 10
1.3750644135133392
 20
-1.3751967549150201
 30
0.0
 40
0.125000089271211
100
AcDbArc
 50
269.0051064425617824
 51
1.8969523282814313
  0
ARC
  5
C6
100
AcDbEntity
  8
0
 62
256
370
-1
  6
CONTINUOUS
100
AcDbCircle
 10
1.5000000100673563
 20
-1.3410590001340046
 30
0.0
 40
0.0300000001340062
100
AcDbArc
 50
90.0000192272341195
 51
269.99234133550857
  0
LINE
  5
C7
100
AcDbEntity
100
AcDbLine
  8
0
 62
256
370
-1
  6
CONTINUOUS
 10
1.5
 20
-1.311059
 30
0.0
 11
1.5
 21
-1.251533
 31
0.0
  0
LINE
  5
C8
100
AcDbEntity
100
AcDbLine
  8
0
 62
256
370
-1
  6
CONTINUOUS
 10
1.5
 20
-1.251533
 30
0.0
 11
1.4955989999999999
 21
-1.125515
 31
0.0
  0
ARC
  5
C9
100
AcDbEntity
  8
0
 62
256
370
-1
  6
CONTINUOUS
100
AcDbCircle
 10
1.4945535088612947
 20
-1.0955329298151488
 30
0.0
 40
0.030000293070076
100
AcDbArc
 50
92.0048037613603782
 51
271.9971258697153189
  0
LINE
  5
CA
100
AcDbEntity
100
AcDbLine
  8
0
 62
256
370
-1
  6
CONTINUOUS
 10
1.4935039999999997
 20
-1.0655510000000001
 30
0.0
 11
1.4902169999999999
 21
-0.97137
 31
0.0
  0
ARC
  5
CB
100
AcDbEntity
  8
0
 62
256
370
-1
  6
CONTINUOUS
100
AcDbCircle
 10
1.4282551018277916
 20
-0.9735326272715272
 30
0.0
 40
0.0619996272716108
100
AcDbArc
 50
1.9989564679898402
 51
90.000094102222036
  0
LINE
  5
CC
100
AcDbEntity
100
AcDbLine
  8
0
 62
256
370
-1
  6
CONTINUOUS
 10
1.4282550000000001
 20
-0.911533
 30
0.0
 11
1.3922319999999999
 21
-0.911533
 31
0.0
  0
ARC
  5
CD
100
AcDbEntity
  8
0
 62
256
370
-1
  6
CONTINUOUS
100
AcDbCircle
 10
1.3922319352543764
 20
-0.9735326882117683
 30
0.0
 40
0.061999688211802
100
AcDbArc
 50
89.9999401666189414
 51
181.9995874702076151
  0
LINE
  5
CE
100
AcDbEntity
100
AcDbLine
  8
0
 62
256
370
-1
  6
CONTINUOUS
 10
1.3302700000000001
 20
-0.975696
 30
0.0
 11
1.3353189999999997
 21
-1.1203129999999999
 31
0.0
  0
ARC
  5
CF
100
AcDbEntity
  8
0
 62
256
370
-1
  6
CONTINUOUS
100
AcDbCircle
 10
1.3003402857199822
 20
-1.1215339821429353
 30
0.0
 40
0.0350000178582309
100
AcDbArc
 50
269.9995322702640692
 51
1.9991795738530855
  0
LINE
  5
D0
100
AcDbEntity
100
AcDbLine
  8
0
 62
256
370
-1
  6
CONTINUOUS
 10
1.3003399999999998
 20
-1.156534
 30
0.0
 11
1.2826339999999998
 21
-1.156534
 31
0.0
  0
ARC
  5
D1
100
AcDbEntity
  8
0
 62
256
370
-1
  6
CONTINUOUS
100
AcDbCircle
 10
1.2826340625422508
 20
-1.1215349477590248
 30
0.0
 40
0.034999052241031
100
AcDbArc
 50
224.9490545093349283
 51
269.9998976141698108
  0
LINE
  5
D2
100
AcDbEntity
100
AcDbLine
  8
0
 62
256
370
-1
  6
CONTINUOUS
 10
1.2578640000000001
 20
-1.146261
 30
0.0
 11
1.0743489999999998
 21
-0.963095
 31
0.0
  0
ARC
  5
D3
100
AcDbEntity
  8
0
 62
256
370
-1
  6
CONTINUOUS
100
AcDbCircle
 10
1.201825843797264
 20
-0.826279080323757
 30
0.0
 40
0.1869998438003845
100
AcDbArc
 50
179.9996689944788386
 51
227.0237674336648865
  0
LINE
  5
D4
100
AcDbEntity
100
AcDbLine
  8
0
 62
256
370
-1
  6
CONTINUOUS
 10
1.0148259999999998
 20
-0.826278
 30
0.0
 11
1.0148259999999998
 21
-0.676628
 31
0.0
  0
ARC
  5
D5
100
AcDbEntity
  8
0
 62
256
370
-1
  6
CONTINUOUS
100
AcDbCircle
 10
1.2018263416580131
 20
-0.6766280776830426
 30
0.0
 40
0.1870003416580291
100
AcDbArc
 50
135.0000571910387634
 51
179.9999761859893397
  0
LINE
  5
D6
100
AcDbEntity
100
AcDbLine
  8
0
 62
256
370
-1
  6
CONTINUOUS
 10
1.0695969999999999
 20
-0.544399
 30
0.0
 11
1.2572129999999997
 21
-0.3567830000000001
 31
0.0
  0
ARC
  5
D7
100
AcDbEntity
  8
0
 62
256
370
-1
  6
CONTINUOUS
100
AcDbCircle
 10
1.2819610763511506
 20
-0.3815310383414572
 30
0.0
 40
0.0349990383415404
100
AcDbArc
 50
90.0001249919685051
 51
135.0000439993129078
  0
LINE
  5
D8
100
AcDbEntity
100
AcDbLine
  8
0
 62
256
370
-1
  6
CONTINUOUS
 10
1.2819609999999999
 20
-0.3465320000000001
 30
0.0
 11
1.300716
 21
-0.3465320000000001
 31
0.0
  0
ARC
  5
D9
100
AcDbEntity
  8
0
 62
256
370
-1
  6
CONTINUOUS
100
AcDbCircle
 10
1.3007164043448749
 20
-0.3815319032997602
 30
0.0
 40
0.0349999033020959
100
AcDbArc
 50
358.0006262324883437
 51
90.0006619233945031
  0
LINE
  5
DA
100
AcDbEntity
100
AcDbLine
  8
0
 62
256
370
-1
  6
CONTINUOUS
 10
1.3356949999999999
 20
-0.3827529999999999
 30
0.0
 11
1.3306450000000001
 21
-0.527369
 31
0.0
  0
ARC
  5
DB
100
AcDbEntity
  8
0
 62
256
370
-1
  6
CONTINUOUS
100
AcDbCircle
 10
1.3926072079626581
 20
-0.5295330147156937
 30
0.0
 40
0.0619999852846551
100
AcDbArc
 50
177.9997721254578948
 51
269.9998078163638979
  0
LINE
  5
DC
100
AcDbEntity
100
AcDbLine
  8
0
 62
256
370
-1
  6
CONTINUOUS
 10
1.3926069999999999
 20
-0.591533
 30
0.0
 11
1.4286279999999998
 21
-0.591533
 31
0.0
  0
ARC
  5
DD
100
AcDbEntity
  8
0
 62
256
370
-1
  6
CONTINUOUS
100
AcDbCircle
 10
1.4286276601999619
 20
-0.5295328792584739
 30
0.0
 40
0.0620001207424572
100
AcDbArc
 50
270.0003140172602798
 51
357.9996784566078531
  0
LINE
  5
DE
100
AcDbEntity
100
AcDbLine
  8
0
 62
256
370
-1
  6
CONTINUOUS
 10
1.4905900000000001
 20
-0.531697
 30
0.0
 11
1.4938799999999999
 21
-0.4375150000000001
 31
0.0
  0
ARC
  5
DF
100
AcDbEntity
  8
0
 62
256
370
-1
  6
CONTINUOUS
100
AcDbCircle
 10
1.494929008861305
 20
-0.4075330701513502
 30
0.0
 40
0.0300002756160747
100
AcDbArc
 50
88.0038284689186696
 51
267.99615057723463
  0
LINE
  5
E0
100
AcDbEntity
100
AcDbLine
  8
0
 62
256
370
-1
  6
CONTINUOUS
 10
1.4959739999999999
 20
-0.377551
 30
0.0
 11
1.5003739999999999
 21
-0.251533
 31
0.0
  0
LINE
  5
E1
100
AcDbEntity
100
AcDbLine
  8
0
 62
256
370
-1
  6
CONTINUOUS
 10
1.5003739999999999
 20
-0.251533
 30
0.0
 11
1.5003699999999998
 21
-0.1875329999999999
 31
0.0
  0
ARC
  5
E2
100
AcDbEntity
  8
0
 62
256
370
-1
  6
CONTINUOUS
100
AcDbCircle
 10
1.5003740100673562
 20
-0.1575330001340045
 30
0.0
 40
0.0300000001340062
100
AcDbArc
 50
90.0000192272341195
 51
269.99234133550857
  0
LINE
  5
E3
100
AcDbEntity
100
AcDbLine
  8
0
 62
256
370
-1
  6
CONTINUOUS
 10
1.5003739999999999
 20
-0.1275329999999999
 30
0.0
 11
1.5003739999999999
 21
0.1242179999999999
 31
0.0
  0
ARC
  5
E4
100
AcDbEntity
  8
0
 62
256
370
-1
  6
CONTINUOUS
100
AcDbCircle
 10
1.5003760100673604
 20
0.154218
 30
0.0
 40
0.0300000000673395
100
AcDbArc
 50
90.0038389458708252
 51
269.9961610541291748
  0
LINE
  5
E5
100
AcDbEntity
100
AcDbLine
  8
0
 62
256
370
-1
  6
CONTINUOUS
 10
1.5003739999999999
 20
0.184218
 30
0.0
 11
1.5003739999999999
 21
0.248218
 31
0.0
  0
LINE
  5
E6
100
AcDbEntity
100
AcDbLine
  8
0
 62
256
370
-1
  6
CONTINUOUS
 10
1.5003739999999999
 20
0.248218
 30
0.0
 11
1.4959739999999999
 21
0.374236
 31
0.0
  0
ARC
  5
E7
100
AcDbEntity
  8
0
 62
256
370
-1
  6
CONTINUOUS
100
AcDbCircle
 10
1.494929008861305
 20
0.4042180701513503
 30
0.0
 40
0.0300002756160746
100
AcDbArc
 50
92.0038494227653985
 51
271.996171531081302
  0
LINE
  5
E8
100
AcDbEntity
100
AcDbLine
  8
0
 62
256
370
-1
  6
CONTINUOUS
 10
1.4938799999999999
 20
0.4341999999999999
 30
0.0
 11
1.4905900000000001
 21
0.5283829999999998
 31
0.0
  0
ARC
  5
E9
100
AcDbEntity
  8
0
 62
256
370
-1
  6
CONTINUOUS
100
AcDbCircle
 10
1.4286281779708658
 20
0.5262183792584736
 30
0.0
 40
0.0619996207417815
100
AcDbArc
 50
2.000800029069759
 51
90.0001644684173669
  0
LINE
  5
EA
100
AcDbEntity
100
AcDbLine
  8
0
 62
256
370
-1
  6
CONTINUOUS
 10
1.4286279999999998
 20
0.5882179999999999
 30
0.0
 11
1.3926069999999999
 21
0.5882179999999999
 31
0.0
  0
ARC
  5
EB
100
AcDbEntity
  8
0
 62
256
370
-1
  6
CONTINUOUS
100
AcDbCircle
 10
1.392606830186264
 20
0.5262184132521655
 30
0.0
 40
0.0619995867480671
100
AcDbArc
 50
89.9998430697544194
 51
181.9996845670721086
  0
LINE
  5
EC
100
AcDbEntity
100
AcDbLine
  8
0
 62
256
370
-1
  6
CONTINUOUS
 10
1.3306450000000001
 20
0.5240550000000002
 30
0.0
 11
1.3356939999999997
 21
0.3794390000000001
 31
0.0
  0
ARC
  5
ED
100
AcDbEntity
  8
0
 62
256
370
-1
  6
CONTINUOUS
100
AcDbCircle
 10
1.300715362186823
 20
0.3782169777325741
 30
0.0
 40
0.0349999777383856
100
AcDbArc
 50
270.0010441150400311
 51
2.0008856123575116
  0
LINE
  5
EE
100
AcDbEntity
100
AcDbLine
  8
0
 62
256
370
-1
  6
CONTINUOUS
 10
1.300716
 20
0.3432170000000001
 30
0.0
 11
1.2819609999999999
 21
0.3432170000000001
 31
0.0
  0
ARC
  5
EF
100
AcDbEntity
  8
0
 62
256
370
-1
  6
CONTINUOUS
100
AcDbCircle
 10
1.2819610763511502
 20
0.3782160383414572
 30
0.0
 40
0.0349990383415403
100
AcDbArc
 50
224.9999560006878596
 51
269.9998750080322338
  0
LINE
  5
F0
100
AcDbEntity
100
AcDbLine
  8
0
 62
256
370
-1
  6
CONTINUOUS
 10
1.2572129999999997
 20
0.3534679999999999
 30
0.0
 11
1.0695969999999999
 21
0.5410840000000001
 31
0.0
  0
ARC
  5
F1
100
AcDbEntity
  8
0
 62
256
370
-1
  6
CONTINUOUS
100
AcDbCircle
 10
1.2018263416580126
 20
0.6733130776830425
 30
0.0
 40
0.1870003416580287
100
AcDbArc
 50
180.0000238140106319
 51
224.9999428089612934
  0
LINE
  5
F2
100
AcDbEntity
100
AcDbLine
  8
0
 62
256
370
-1
  6
CONTINUOUS
 10
1.0148259999999998
 20
0.6733129999999998
 30
0.0
 11
1.0148259999999998
 21
0.8231229999999998
 31
0.0
  0
ARC
  5
F3
100
AcDbEntity
  8
0
 62
256
370
-1
  6
CONTINUOUS
100
AcDbCircle
 10
1.2018254731082343
 20
0.8231232820817591
 30
0.0
 40
0.1869994731084471
100
AcDbArc
 50
134.9999469608669074
 51
180.0000864253432837
  0
LINE
  5
F4
100
AcDbEntity
100
AcDbLine
  8
0
 62
256
370
-1
  6
CONTINUOUS
 10
1.0695969999999999
 20
0.955352
 30
0.0
 11
1.2572129999999997
 21
1.1429670000000001
 31
0.0
  0
ARC
  5
F5
100
AcDbEntity
  8
0
 62
256
370
-1
  6
CONTINUOUS
100
AcDbCircle
 10
1.2826088051814493
 20
1.1166347746056347
 30
0.0
 40
0.0365832340701831
100
AcDbArc
 50
89.9605404792837504
 51
133.9629014339172954
  0
LINE
  5
F6
100
AcDbEntity
100
AcDbLine
  8
0
 62
256
370
-1
  6
CONTINUOUS
 10
1.2826339999999998
 20
1.1532179999999999
 30
0.0
 11
1.3003399999999998
 21
1.1532179999999999
 31
0.0
  0
ARC
  5
F7
100
AcDbEntity
  8
0
 62
256
370
-1
  6
CONTINUOUS
100
AcDbCircle
 10
1.3003402857199822
 20
1.1182179821429354
 30
0.0
 40
0.0350000178582308
100
AcDbArc
 50
358.0008204261469018
 51
90.000467729735945
  0
LINE
  5
F8
100
AcDbEntity
100
AcDbLine
  8
0
 62
256
370
-1
  6
CONTINUOUS
 10
1.3353189999999997
 20
1.116997
 30
0.0
 11
1.3302700000000001
 21
0.9723809999999999
 31
0.0
  0
ARC
  5
F9
100
AcDbEntity
  8
0
 62
256
370
-1
  6
CONTINUOUS
100
AcDbCircle
 10
1.3922319352543764
 20
0.9702176882117683
 30
0.0
 40
0.0619996882118019
100
AcDbArc
 50
178.0004125297923849
 51
270.0000598333810444
  0
LINE
  5
FA
100
AcDbEntity
100
AcDbLine
  8
0
 62
256
370
-1
  6
CONTINUOUS
 10
1.3922319999999999
 20
0.9082180000000002
 30
0.0
 11
1.4282529999999998
 21
0.9082180000000002
 31
0.0
  0
ARC
  5
FB
100
AcDbEntity
  8
0
 62
256
370
-1
  6
CONTINUOUS
100
AcDbCircle
 10
1.4282530865968095
 20
0.9702176791946071
 30
0.0
 40
0.0619996791946674
100
AcDbArc
 50
269.9999199732679358
 51
358.0000725005997992
  0
LINE
  5
FC
100
AcDbEntity
100
AcDbLine
  8
0
 62
256
370
-1
  6
CONTINUOUS
 10
1.4902150000000001
 20
0.968054
 30
0.0
 11
1.4935039999999997
 21
1.062236
 31
0.0
  0
ARC
  5
FD
100
AcDbEntity
  8
0
 62
256
370
-1
  6
CONTINUOUS
100
AcDbCircle
 10
1.4945535088612676
 20
1.0922179298151495
 30
0.0
 40
0.0300002930700759
100
AcDbArc
 50
88.0028741302329109
 51
267.995196238691392
  0
LINE
  5
FE
100
AcDbEntity
100
AcDbLine
  8
0
 62
256
370
-1
  6
CONTINUOUS
 10
1.4955989999999999
 20
1.1221999999999999
 30
0.0
 11
1.5
 21
1.248218
 31
0.0
  0
LINE
  5
FF
100
AcDbEntity
100
AcDbLine
  8
0
 62
256
370
-1
  6
CONTINUOUS
 10
1.5
 20
1.248218
 30
0.0
 11
1.5
 21
1.312217
 31
0.0
  0
ARC
  5
100
100
AcDbEntity
  8
0
 62
256
370
-1
  6
CONTINUOUS
100
AcDbCircle
 10
1.4994260637181531
 20
1.3416374611198805
 30
0.0
 40
0.0294260587806456
100
AcDbArc
 50
88.8902018512920904
 51
271.1175880611058915
  0
ARC
  5
101
100
AcDbEntity
  8
0
 62
256
370
-1
  6
CONTINUOUS
100
AcDbCircle
 10
1.3750640855977094
 20
1.3751973680202303
 30
0.0
 40
0.1250004704144272
100
AcDbArc
 50
358.1023136621339518
 51
90.9947401960231161
  0
ARC
  5
102
100
AcDbEntity
  8
0
 62
256
370
-1
  6
CONTINUOUS
100
AcDbCircle
 10
1.3428939971524043
 20
1.5001385100673392
 30
0.0
 40
0.0300000301714912
100
AcDbArc
 50
180.0850079125070238
 51
0.0773300208467232
  0
LINE
  5
103
100
AcDbEntity
100
AcDbLine
  8
0
 62
256
370
-1
  6
CONTINUOUS
 10
1.312894
 20
1.5000939999999998
 30
0.0
 11
1.248221
 21
1.5
 31
0.0
  0
LINE
  5
104
100
AcDbEntity
100
AcDbLine
  8
0
 62
256
370
-1
  6
CONTINUOUS
 10
1.248221
 20
1.5
 30
0.0
 11
1.1222099999999999
 21
1.4954139999999998
 31
0.0
  0
ARC
  5
105
100
AcDbEntity
  8
0
 62
256
370
-1
  6
CONTINUOUS
100
AcDbCircle
 10
1.0922294268670498
 20
1.4943245087607981
 30
0.0
 40
0.0300003626068164
100
AcDbArc
 50
182.0888853727891785
 51
2.0812074811185228
  0
LINE
  5
106
100
AcDbEntity
100
AcDbLine
  8
0
 62
256
370
-1
  6
CONTINUOUS
 10
1.062249
 20
1.4932310000000002
 30
0.0
 11
0.9680740000000001
 21
1.489805
 31
0.0
  0
ARC
  5
107
100
AcDbEntity
  8
0
 62
256
370
-1
  6
CONTINUOUS
100
AcDbCircle
 10
0.9703271897001113
 20
1.4278456997661153
 30
0.0
 40
0.0620002560421917
100
AcDbArc
 50
92.0826800140574306
 51
180.0838176482912161
  0
LINE
  5
108
100
AcDbEntity
100
AcDbLine
  8
0
 62
256
370
-1
  6
CONTINUOUS
 10
0.9083269999999999
 20
1.4277549999999999
 30
0.0
 11
0.9083799999999997
 21
1.3917320000000002
 31
0.0
  0
ARC
  5
109
100
AcDbEntity
  8
0
 62
256
370
-1
  6
CONTINUOUS
100
AcDbCircle
 10
0.9694412626153719
 20
1.3920022820855698
 30
0.0
 40
0.0610618608018887
100
AcDbArc
 50
180.2536128632032728
 51
272.9981268956581175
  0
LINE
  5
10A
100
AcDbEntity
100
AcDbLine
  8
0
 62
256
370
-1
  6
CONTINUOUS
 10
0.9726349999999999
 20
1.3310240000000002
 30
0.0
 11
1.1172439999999999
 21
1.3362850000000002
 31
0.0
  0
ARC
  5
10B
100
AcDbEntity
  8
0
 62
256
370
-1
  6
CONTINUOUS
100
AcDbCircle
 10
1.1185165559004551
 20
1.3013086605045472
 30
0.0
 40
0.0349994817536057
100
AcDbArc
 50
0.0840451720794014
 51
92.0836924756682009
  0
LINE
  5
10C
100
AcDbEntity
100
AcDbLine
  8
0
 62
256
370
-1
  6
CONTINUOUS
 10
1.1535159999999998
 20
1.3013599999999999
 30
0.0
 11
1.1535419999999998
 21
1.2836539999999999
 31
0.0
  0
ARC
  5
10D
100
AcDbEntity
  8
0
 62
256
370
-1
  6
CONTINUOUS
100
AcDbCircle
 10
1.1185416582622199
 20
1.2836026611744393
 30
0.0
 40
0.0350003793898922
100
AcDbArc
 50
315.0331988151621658
 51
0.08404191999667
  0
LINE
  5
10E
100
AcDbEntity
100
AcDbLine
  8
0
 62
256
370
-1
  6
CONTINUOUS
 10
1.1433049999999998
 20
1.2588680000000001
 30
0.0
 11
0.9604089999999998
 21
1.075758
 31
0.0
  0
ARC
  5
10F
100
AcDbEntity
  8
0
 62
256
370
-1
  6
CONTINUOUS
100
AcDbCircle
 10
0.8234049297470958
 20
1.2030327088925801
 30
0.0
 40
0.1869999112019937
100
AcDbArc
 50
270.0842800948046261
 51
317.1083785340496206
  0
LINE
  5
110
100
AcDbEntity
100
AcDbLine
  8
0
 62
256
370
-1
  6
CONTINUOUS
 10
0.82368
 20
1.0160330000000002
 30
0.0
 11
0.6740299999999997
 21
1.0158130000000001
 31
0.0
  0
ARC
  5
111
100
AcDbEntity
  8
0
 62
256
370
-1
  6
CONTINUOUS
100
AcDbCircle
 10
0.6737553984993405
 20
1.2028141175027542
 30
0.0
 40
0.1870013191217191
100
AcDbArc
 50
225.0842168306489555
 51
270.0841358379934718
  0
LINE
  5
112
100
AcDbEntity
100
AcDbLine
  8
0
 62
256
370
-1
  6
CONTINUOUS
 10
0.5417199999999998
 20
1.0703900000000002
 30
0.0
 11
0.3538289999999999
 21
1.2577289999999999
 31
0.0
  0
ARC
  5
113
100
AcDbEntity
  8
0
 62
256
370
-1
  6
CONTINUOUS
100
AcDbCircle
 10
0.3785416388127361
 20
1.282514739391341
 30
0.0
 40
0.035000677054369
100
AcDbArc
 50
180.0846969283903718
 51
225.0846159357343765
  0
LINE
  5
114
100
AcDbEntity
100
AcDbLine
  8
0
 62
256
370
-1
  6
CONTINUOUS
 10
0.3435409999999999
 20
1.2824629999999999
 30
0.0
 11
0.3435139999999999
 21
1.301218
 31
0.0
  0
ARC
  5
115
100
AcDbEntity
  8
0
 62
256
370
-1
  6
CONTINUOUS
100
AcDbCircle
 10
0.378513994036342
 20
1.3012695293932839
 30
0.0
 40
0.0350000319688761
100
AcDbArc
 50
88.0843190269768712
 51
180.0843547178805011
  0
LINE
  5
116
100
AcDbEntity
100
AcDbLine
  8
0
 62
256
370
-1
  6
CONTINUOUS
 10
0.3796839999999999
 20
1.3362500000000002
 30
0.0
 11
0.5243069999999999
 21
1.3314119999999998
 31
0.0
  0
ARC
  5
117
100
AcDbEntity
  8
0
 62
256
370
-1
  6
CONTINUOUS
100
AcDbCircle
 10
0.526379144527481
 20
1.3933772863067051
 30
0.0
 40
0.0619999233065231
100
AcDbArc
 50
268.0847194053188787
 51
0.0847550962298799
  0
LINE
  5
118
100
AcDbEntity
100
AcDbLine
  8
0
 62
256
370
-1
  6
CONTINUOUS
 10
0.5883789999999998
 20
1.3934690000000001
 30
0.0
 11
0.5883259999999999
 21
1.4294889999999998
 31
0.0
  0
ARC
  5
119
100
AcDbEntity
  8
0
 62
256
370
-1
  6
CONTINUOUS
100
AcDbCircle
 10
0.5263264430980086
 20
1.4293980608186199
 30
0.0
 40
0.0619996235954539
100
AcDbArc
 50
0.0840397546269246
 51
88.083404193971873
  0
LINE
  5
11A
100
AcDbEntity
100
AcDbLine
  8
0
 62
256
370
-1
  6
CONTINUOUS
 10
0.5284
 20
1.4913630000000002
 30
0.0
 11
0.4342119999999998
 21
1.4945149999999998
 31
0.0
  0
ARC
  5
11B
100
AcDbEntity
  8
0
 62
256
370
-1
  6
CONTINUOUS
100
AcDbCircle
 10
0.4042290672032505
 20
1.4955200089282776
 30
0.0
 40
0.0299997716998031
100
AcDbArc
 50
178.0878784105838122
 51
358.0802005190126351
  0
LINE
  5
11C
100
AcDbEntity
100
AcDbLine
  8
0
 62
256
370
-1
  6
CONTINUOUS
 10
0.3742459999999999
 20
1.496521
 30
0.0
 11
0.2482209999999998
 21
1.5009839999999999
 31
0.0
  0
LINE
  5
11D
100
AcDbEntity
100
AcDbLine
  8
0
 62
256
370
-1
  6
CONTINUOUS
 10
0.2482209999999998
 20
1.5009839999999999
 30
0.0
 11
0.184221
 21
1.5008859999999999
 31
0.0
  0
ARC
  5
11E
100
AcDbEntity
  8
0
 62
256
370
-1
  6
CONTINUOUS
100
AcDbCircle
 10
0.1542209971859057
 20
1.5008460100673324
 30
0.0
 40
0.0300000294673252
100
AcDbArc
 50
180.0840529847260427
 51
0.0763750930957246
  0
LINE
  5
11F
100
AcDbEntity
100
AcDbLine
  8
0
 62
256
370
-1
  6
CONTINUOUS
 10
0.1242209999999999
 20
1.5008020000000002
 30
0.0
 11
-0.1277790000000001
 21
1.5019640000000001
 31
0.0
  0
ARC
  5
120
100
AcDbEntity
  8
0
 62
256
370
-1
  6
CONTINUOUS
100
AcDbCircle
 10
-0.1577790029480988
 20
1.5019220100673025
 30
0.0
 40
0.0300000323339889
100
AcDbArc
 50
180.0878726954561273
 51
0.0801948039366439
  0
LINE
  5
121
100
AcDbEntity
100
AcDbLine
  8
0
 62
256
370
-1
  6
CONTINUOUS
 10
-0.1877790000000001
 20
1.5018760000000002
 30
0.0
 11
-0.2517790000000002
 21
1.501782
 31
0.0
  0
LINE
  5
122
100
AcDbEntity
100
AcDbLine
  8
0
 62
256
370
-1
  6
CONTINUOUS
 10
-0.2517790000000002
 20
1.501782
 30
0.0
 11
-0.3771170000000001
 21
1.4971969999999999
 31
0.0
  0
ARC
  5
123
100
AcDbEntity
  8
0
 62
256
370
-1
  6
CONTINUOUS
100
AcDbCircle
 10
-0.4070970731329508
 20
1.4961075087273068
 30
0.0
 40
0.0299998629378591
100
AcDbArc
 50
182.0889201160714208
 51
2.0812422243632374
  0
LINE
  5
124
100
AcDbEntity
100
AcDbLine
  8
0
 62
256
370
-1
  6
CONTINUOUS
 10
-0.4370770000000002
 20
1.4950139999999998
 30
0.0
 11
-0.5312550000000001
 21
1.4915859999999999
 31
0.0
  0
ARC
  5
125
100
AcDbEntity
  8
0
 62
256
370
-1
  6
CONTINUOUS
100
AcDbCircle
 10
-0.5289998154189396
 20
1.4296267773522087
 30
0.0
 40
0.0620002510366954
100
AcDbArc
 50
92.0845249147797063
 51
180.0838893541279049
  0
LINE
  5
126
100
AcDbEntity
100
AcDbLine
  8
0
 62
256
370
-1
  6
CONTINUOUS
 10
-0.5910000000000001
 20
1.4295360000000001
 30
0.0
 11
-0.5909470000000001
 21
1.3935149999999998
 31
0.0
  0
ARC
  5
127
100
AcDbEntity
  8
0
 62
256
370
-1
  6
CONTINUOUS
100
AcDbCircle
 10
-0.5289468007502172
 20
1.393606251992868
 30
0.0
 40
0.0620002664021613
100
AcDbArc
 50
180.0843279594505759
 51
272.084169456768393
  0
LINE
  5
128
100
AcDbEntity
100
AcDbLine
  8
0
 62
256
370
-1
  6
CONTINUOUS
 10
-0.526692
 20
1.3316469999999998
 30
0.0
 11
-0.3820840000000001
 21
1.33691
 31
0.0
  0
ARC
  5
129
100
AcDbEntity
  8
0
 62
256
370
-1
  6
CONTINUOUS
100
AcDbCircle
 10
-0.3808113697549285
 20
1.3019327370549014
 30
0.0
 40
0.0350004072957909
100
AcDbArc
 50
0.0839176362951878
 51
92.0837591336139951
  0
LINE
  5
12A
100
AcDbEntity
100
AcDbLine
  8
0
 62
256
370
-1
  6
CONTINUOUS
 10
-0.3458110000000001
 20
1.301984
 30
0.0
 11
-0.3457830000000002
 21
1.2832300000000001
 31
0.0
  0
ARC
  5
12B
100
AcDbEntity
  8
0
 62
256
370
-1
  6
CONTINUOUS
100
AcDbCircle
 10
-0.3807833520885668
 20
1.2831786204201543
 30
0.0
 40
0.03500038980047
100
AcDbArc
 50
315.0841896026569771
 51
0.0841086100004453
  0
LINE
  5
12C
100
AcDbEntity
100
AcDbLine
  8
0
 62
256
370
-1
  6
CONTINUOUS
 10
-0.355998
 20
1.2584659999999999
 30
0.0
 11
-0.5433380000000001
 21
1.0705749999999998
 31
0.0
  0
ARC
  5
12D
100
AcDbEntity
  8
0
 62
256
370
-1
  6
CONTINUOUS
100
AcDbCircle
 10
-0.675761963975938
 20
1.2026090658132711
 30
0.0
 40
0.1870002694390676
100
AcDbArc
 50
270.0845537651118775
 51
315.0844727724564223
  0
LINE
  5
12E
100
AcDbEntity
100
AcDbLine
  8
0
 62
256
370
-1
  6
CONTINUOUS
 10
-0.6754860000000001
 20
1.015609
 30
0.0
 11
-0.8252960000000001
 21
1.0153889999999999
 31
0.0
  0
ARC
  5
12F
100
AcDbEntity
  8
0
 62
256
370
-1
  6
CONTINUOUS
100
AcDbCircle
 10
-0.8255704599911662
 20
1.202388041318299
 30
0.0
 40
0.1869992427317545
100
AcDbArc
 50
225.0839539465691246
 51
270.0840934142573815
  0
LINE
  5
130
100
AcDbEntity
100
AcDbLine
  8
0
 62
256
370
-1
  6
CONTINUOUS
 10
-0.9576050000000002
 20
1.069966
 30
0.0
 11
-1.1454960000000001
 21
1.2573050000000001
 31
0.0
  0
ARC
  5
131
100
AcDbEntity
  8
0
 62
256
370
-1
  6
CONTINUOUS
100
AcDbCircle
 10
-1.1190503589219869
 20
1.2827984420185139
 30
0.0
 40
0.0367326492099117
100
AcDbArc
 50
180.0381247919073644
 51
223.9497142966974934
  0
LINE
  5
132
100
AcDbEntity
100
AcDbLine
  8
0
 62
256
370
-1
  6
CONTINUOUS
 10
-1.155783
 20
1.2827739999999999
 30
0.0
 11
-1.1558090000000001
 21
1.3004799999999999
 31
0.0
  0
ARC
  5
133
100
AcDbEntity
  8
0
 62
256
370
-1
  6
CONTINUOUS
100
AcDbCircle
 10
-1.1208093912327772
 20
1.3005318937827788
 30
0.0
 40
0.0349996472385561
100
AcDbArc
 50
88.0853048619390648
 51
180.0849521655275112
  0
LINE
  5
134
100
AcDbEntity
100
AcDbLine
  8
0
 62
256
370
-1
  6
CONTINUOUS
 10
-1.11964
 20
1.335512
 30
0.0
 11
-0.9750170000000001
 21
1.330676
 31
0.0
  0
ARC
  5
135
100
AcDbEntity
  8
0
 62
256
370
-1
  6
CONTINUOUS
100
AcDbCircle
 10
-0.9729445758637472
 20
1.3926409961444826
 30
0.0
 40
0.0619996426520851
100
AcDbArc
 50
268.0844521926314883
 51
0.0840994962181893
  0
LINE
  5
136
100
AcDbEntity
100
AcDbLine
  8
0
 62
256
370
-1
  6
CONTINUOUS
 10
-0.9109450000000001
 20
1.3927320000000001
 30
0.0
 11
-0.9109980000000001
 21
1.4287529999999999
 31
0.0
  0
ARC
  5
137
100
AcDbEntity
  8
0
 62
256
370
-1
  6
CONTINUOUS
100
AcDbCircle
 10
-0.9729976159821683
 20
1.4286619700930379
 30
0.0
 40
0.0619996828087071
100
AcDbArc
 50
0.0841235167038573
 51
88.0842760440342971
  0
LINE
  5
138
100
AcDbEntity
100
AcDbLine
  8
0
 62
256
370
-1
  6
CONTINUOUS
 10
-0.9709250000000001
 20
1.4906269999999999
 30
0.0
 11
-1.0651120000000001
 21
1.4937770000000001
 31
0.0
  0
ARC
  5
139
100
AcDbEntity
  8
0
 62
256
370
-1
  6
CONTINUOUS
100
AcDbCircle
 10
-1.0950949327632471
 20
1.4947825089283175
 30
0.0
 40
0.0299997884207591
100
AcDbArc
 50
178.0869240081298415
 51
358.0792461164070346
  0
LINE
  5
13A
100
AcDbEntity
100
AcDbLine
  8
0
 62
256
370
-1
  6
CONTINUOUS
 10
-1.125078
 20
1.495784
 30
0.0
 11
-1.2511030000000001
 21
1.5
 31
0.0
  0
LINE
  5
13B
100
AcDbEntity
100
AcDbLine
  8
0
 62
256
370
-1
  6
CONTINUOUS
 10
-1.2511030000000001
 20
1.5
 30
0.0
 11
-1.315102
 21
1.4999060000000002
 31
0.0
  0
ARC
  5
13C
100
AcDbEntity
  8
0
 62
256
370
-1
  6
CONTINUOUS
100
AcDbCircle
 10
-1.3451020031156045
 20
1.4998615100673196
 30
0.0
 40
0.0300000361048179
100
AcDbArc
 50
180.0926473329180908
 51
0.0849694413327956
  0
ARC
  5
13D
100
AcDbEntity
  8
0
 62
256
370
-1
  6
CONTINUOUS
100
AcDbCircle
 10
-1.3750004214058407
 20
1.3748134386917394
 30
0.0
 40
0.1249996025812419
100
AcDbArc
 50
90.0465603510297683
 51
180.0354953967767244
  0
ARC
  5
13E
100
AcDbEntity
  8
0
 62
256
370
-1
  6
CONTINUOUS
100
AcDbCircle
 10
-1.4999978748894809
 20
1.3747360004420766
 30
0.0
 40
0.0000021251105652
100
AcDbArc
 50
180.0119189673815185
 51
331.9155940926461881
  0
LINE
  5
13F
100
AcDbEntity
100
AcDbLine
  8
0
 62
256
370
-1
  6
CONTINUOUS
 10
-0.1329020000000001
 20
1.2009720000000002
 30
0.0
 11
-0.4297300000000002
 21
0.90347
 31
0.0
  0
ARC
  5
140
100
AcDbEntity
  8
0
 62
256
370
-1
  6
CONTINUOUS
100
AcDbCircle
 10
-0.297500658341987
 20
0.7712409223169576
 30
0.0
 40
0.1870003416580291
100
AcDbArc
 50
135.0000571910388203
 51
179.9999761859893397
  0
LINE
  5
141
100
AcDbEntity
100
AcDbLine
  8
0
 62
256
370
-1
  6
CONTINUOUS
 10
-0.4845010000000001
 20
0.7712409999999998
 30
0.0
 11
-0.4845010000000001
 21
0.6709990000000001
 31
0.0
  0
ARC
  5
142
100
AcDbEntity
  8
0
 62
256
370
-1
  6
CONTINUOUS
100
AcDbCircle
 10
-0.6715008602969408
 20
0.6709988602969408
 30
0.0
 40
0.1869998602969929
100
AcDbArc
 50
269.9999571957130229
 51
0.0000427995289728
  0
LINE
  5
143
100
AcDbEntity
100
AcDbLine
  8
0
 62
256
370
-1
  6
CONTINUOUS
 10
-0.6715010000000001
 20
0.4839990000000001
 30
0.0
 11
-0.7717430000000001
 21
0.4839990000000001
 31
0.0
  0
ARC
  5
144
100
AcDbEntity
  8
0
 62
256
370
-1
  6
CONTINUOUS
100
AcDbCircle
 10
-0.7717429223169576
 20
0.296998658341987
 30
0.0
 40
0.1870003416580291
100
AcDbArc
 50
90.0000238016167913
 51
134.9999428089612934
  0
LINE
  5
145
100
AcDbEntity
100
AcDbLine
  8
0
 62
256
370
-1
  6
CONTINUOUS
 10
-0.9039720000000001
 20
0.4292279999999999
 30
0.0
 11
-1.2016440000000002
 21
0.1322289999999999
 31
0.0
  0
ARC
  5
146
100
AcDbEntity
  8
0
 62
256
370
-1
  6
CONTINUOUS
100
AcDbCircle
 10
-1.0676460027144521
 20
-0.0008542127027897
 30
0.0
 40
0.1888560424763625
100
AcDbArc
 50
135.1962440218030679
 51
224.7287950643822967
  0
LINE
  5
147
100
AcDbEntity
100
AcDbLine
  8
0
 62
256
370
-1
  6
CONTINUOUS
 10
-1.2018180000000001
 20
-0.1337619999999999
 30
0.0
 11
-0.9048190000000002
 21
-0.4307609999999999
 31
0.0
  0
ARC
  5
148
100
AcDbEntity
  8
0
 62
256
370
-1
  6
CONTINUOUS
100
AcDbCircle
 10
-0.7725899223169576
 20
-0.2985316583419872
 30
0.0
 40
0.1870003416580291
100
AcDbArc
 50
225.0000571910386498
 51
269.9999761983831377
  0
LINE
  5
149
100
AcDbEntity
100
AcDbLine
  8
0
 62
256
370
-1
  6
CONTINUOUS
 10
-0.7725900000000001
 20
-0.4855320000000001
 30
0.0
 11
-0.6723480000000001
 21
-0.4855320000000001
 31
0.0
  0
ARC
  5
14A
100
AcDbEntity
  8
0
 62
256
370
-1
  6
CONTINUOUS
100
AcDbCircle
 10
-0.6723478602969407
 20
-0.6725318602969406
 30
0.0
 40
0.1869998602969928
100
AcDbArc
 50
359.9999572004710444
 51
90.0000428042869913
  0
LINE
  5
14B
100
AcDbEntity
100
AcDbLine
  8
0
 62
256
370
-1
  6
CONTINUOUS
 10
-0.4853480000000001
 20
-0.672532
 30
0.0
 11
-0.4853480000000001
 21
-0.772774
 31
0.0
  0
ARC
  5
14C
100
AcDbEntity
  8
0
 62
256
370
-1
  6
CONTINUOUS
100
AcDbCircle
 10
-0.2983476583419873
 20
-0.7727739223169576
 30
0.0
 40
0.187000341658029
100
AcDbArc
 50
180.0000238140106319
 51
224.9999428089612366
  0
LINE
  5
14D
100
AcDbEntity
100
AcDbLine
  8
0
 62
256
370
-1
  6
CONTINUOUS
 10
-0.4305770000000002
 20
-0.905003
 30
0.0
 11
-0.1330760000000002
 21
-1.2025049999999999
 31
0.0
  0
ARC
  5
14E
100
AcDbEntity
  8
0
 62
256
370
-1
  6
CONTINUOUS
100
AcDbCircle
 10
-0.0007600000000001
 20
-1.0700662516216366
 30
0.0
 40
0.1872098980503635
100
AcDbArc
 50
225.0265640694319984
 51
314.9734359305679732
  0
LINE
  5
14F
100
AcDbEntity
100
AcDbLine
  8
0
 62
256
370
-1
  6
CONTINUOUS
 10
0.131556
 20
-1.2025049999999999
 30
0.0
 11
0.429055
 21
-0.9050049999999999
 31
0.0
  0
ARC
  5
150
100
AcDbEntity
  8
0
 62
256
370
-1
  6
CONTINUOUS
100
AcDbCircle
 10
0.296825658341987
 20
-0.7727759223169576
 30
0.0
 40
0.1870003416580289
100
AcDbArc
 50
315.0000571910387634
 51
359.9999761859893397
  0
LINE
  5
151
100
AcDbEntity
100
AcDbLine
  8
0
 62
256
370
-1
  6
CONTINUOUS
 10
0.4838259999999999
 20
-0.772776
 30
0.0
 11
0.4838259999999999
 21
-0.672532
 31
0.0
  0
ARC
  5
152
100
AcDbEntity
  8
0
 62
256
370
-1
  6
CONTINUOUS
100
AcDbCircle
 10
0.6708258602969406
 20
-0.6725318602969407
 30
0.0
 40
0.1869998602969929
100
AcDbArc
 50
89.9999571957130229
 51
180.0000427995289556
  0
LINE
  5
153
100
AcDbEntity
100
AcDbLine
  8
0
 62
256
370
-1
  6
CONTINUOUS
 10
0.6708259999999999
 20
-0.4855320000000001
 30
0.0
 11
0.7710699999999999
 21
-0.4855320000000001
 31
0.0
  0
ARC
  5
154
100
AcDbEntity
  8
0
 62
256
370
-1
  6
CONTINUOUS
100
AcDbCircle
 10
0.7710699223169573
 20
-0.298531658341987
 30
0.0
 40
0.1870003416580293
100
AcDbArc
 50
270.0000238016168623
 51
314.9999428089613502
  0
LINE
  5
155
100
AcDbEntity
100
AcDbLine
  8
0
 62
256
370
-1
  6
CONTINUOUS
 10
0.9032990000000001
 20
-0.4307609999999999
 30
0.0
 11
1.2002980000000001
 21
-0.1337619999999999
 31
0.0
  0
ARC
  5
156
100
AcDbEntity
  8
0
 62
256
370
-1
  6
CONTINUOUS
100
AcDbCircle
 10
1.068369458694971
 20
-0.0016574999999999
 30
0.0
 40
0.1866995954230292
100
AcDbArc
 50
314.9618165626236532
 51
45.0381834373763041
  0
LINE
  5
157
100
AcDbEntity
100
AcDbLine
  8
0
 62
256
370
-1
  6
CONTINUOUS
 10
1.2002980000000001
 20
0.130447
 30
0.0
 11
0.9032990000000001
 21
0.427446
 31
0.0
  0
ARC
  5
158
100
AcDbEntity
  8
0
 62
256
370
-1
  6
CONTINUOUS
100
AcDbCircle
 10
0.7710699223169573
 20
0.2952166583419871
 30
0.0
 40
0.1870003416580291
100
AcDbArc
 50
45.0000571910386569
 51
89.9999761983831519
  0
LINE
  5
159
100
AcDbEntity
100
AcDbLine
  8
0
 62
256
370
-1
  6
CONTINUOUS
 10
0.7710699999999999
 20
0.4822169999999999
 30
0.0
 11
0.6708259999999999
 21
0.4822169999999999
 31
0.0
  0
ARC
  5
15A
100
AcDbEntity
  8
0
 62
256
370
-1
  6
CONTINUOUS
100
AcDbCircle
 10
0.6708258602969406
 20
0.6692168602969408
 30
0.0
 40
0.186999860296993
100
AcDbArc
 50
179.9999572004710444
 51
270.0000428042869771
  0
LINE
  5
15B
100
AcDbEntity
100
AcDbLine
  8
0
 62
256
370
-1
  6
CONTINUOUS
 10
0.4838259999999999
 20
0.6692170000000002
 30
0.0
 11
0.4838259999999999
 21
0.7694610000000002
 31
0.0
  0
ARC
  5
15C
100
AcDbEntity
  8
0
 62
256
370
-1
  6
CONTINUOUS
100
AcDbCircle
 10
0.2968256583419873
 20
0.7694609223169575
 30
0.0
 40
0.1870003416580286
100
AcDbArc
 50
0.0000238140106569
 51
44.9999428089612934
  0
LINE
  5
15D
100
AcDbEntity
100
AcDbLine
  8
0
 62
256
370
-1
  6
CONTINUOUS
 10
0.429055
 20
0.9016899999999999
 30
0.0
 11
0.131556
 21
1.1994379999999998
 31
0.0
  0
ARC
  5
15E
100
AcDbEntity
  8
0
 62
256
370
-1
  6
CONTINUOUS
100
AcDbCircle
 10
-0.0014395171739272
 20
1.0679725373238069
 30
0.0
 40
0.1870052819174528
100
AcDbArc
 50
44.6685156083163974
 51
134.6672318737327032
  0
ARC
  5
15F
100
AcDbEntity
  8
0
 62
256
370
-1
  6
CONTINUOUS
100
AcDbCircle
 10
-0.1329025710738156
 20
1.2009715000000001
 30
0.0
 40
0.0000007590291845
100
AcDbArc
 50
0.0
 51
0.0
  0
ENDSEC
  0
SECTION
  2
OBJECTS
  0
DICTIONARY
  5
C
100
AcDbDictionary
280
0
281
1
  3
ACAD_GROUP
350
D
  3
ACAD_LAYOUT
350
1A
  3
ACAD_MLINESTYLE
350
17
  3
ACAD_PLOTSETTINGS
350
19
  3
ACAD_PLOTSTYLENAME
350
E
  3
AcDbVariableDictionary
350
160
  0
DICTIONARY
  5
D
100
AcDbDictionary
280
0
281
1
  0
ACDBDICTIONARYWDFLT
  5
E
100
AcDbDictionary
281
1
  3
Normal
350
F
100
AcDbDictionaryWithDefault
340
F
  0
ACDBPLACEHOLDER
  5
F
  0
DICTIONARY
  5
17
100
AcDbDictionary
280
0
281
1
  3
Standard
350
18
  0
MLINESTYLE
  5
18
100
AcDbMlineStyle
  2
STANDARD
 70
0
  3

 62
256
 51
90.0
 52
90.0
 71
2
 49
0.5
 62
256
  6
BYLAYER
 49
-0.5
 62
256
  6
BYLAYER
  0
DICTIONARY
  5
19
100
AcDbDictionary
280
0
281
1
  0
DICTIONARY
  5
1A
100
AcDbDictionary
281
1
  3
Layout1
350
1E
  3
Layout2
350
26
  3
Model
350
22
  0
LAYOUT
  5
1E
100
AcDbPlotSettings
  1

  2
C:\Program Files\AutoCAD 2002\plotters\DWF ePlot (optimized for plotting).pc3
  4

  6

 40
0.0
 41
0.0
 42
0.0
 43
0.0
 44
0.0
 45
0.0
 46
0.0
 47
0.0
 48
0.0
 49
0.0
140
0.0
141
0.0
142
1.0
143
1.0
 70
688
 72
0
 73
0
 74
5
  7

 75
16
147
1.0
148
0.0
149
0.0
100
AcDbLayout
  1
Layout1
 70
1
 71
1
 10
0.0
 20
0.0
 11
420.0
 21
297.0
 12
0.0
 22
0.0
 32
0.0
 14
100000000000000000000.0
 24
100000000000000000000.0
 34
100000000000000000000.0
 15
-100000000000000000000.0
 25
-100000000000000000000.0
 35
-100000000000000000000.0
146
0.0
 13
0.0
 23
0.0
 33
0.0
 16
1.0
 26
0.0
 36
0.0
 17
0.0
 27
1.0
 37
0.0
 76
0
330
1B
  0
LAYOUT
  5
22
100
AcDbPlotSettings
  1

  2
C:\Program Files\AutoCAD 2002\plotters\DWF ePlot (optimized for plotting).pc3
  4

  6

 40
0.0
 41
0.0
 42
0.0
 43
0.0
 44
0.0
 45
0.0
 46
0.0
 47
0.0
 48
0.0
 49
0.0
140
0.0
141
0.0
142
1.0
143
1.0
 70
1712
 72
0
 73
0
 74
0
  7

 75
0
147
1.0
148
0.0
149
0.0
100
AcDbLayout
  1
Model
 70
1
 71
0
 10
0.0
 20
0.0
 11
12.0
 21
9.0
 12
0.0
 22
0.0
 32
0.0
 14
0.0
 24
0.0
 34
0.0
 15
0.0
 25
0.0
 35
0.0
146
0.0
 13
0.0
 23
0.0
 33
0.0
 16
1.0
 26
0.0
 36
0.0
 17
0.0
 27
1.0
 37
0.0
 76
0
330
1F
  0
LAYOUT
  5
26
100
AcDbPlotSettings
  1

  2
C:\Program Files\AutoCAD 2002\plotters\DWF ePlot (optimized for plotting).pc3
  4

  6

 40
0.0
 41
0.0
 42
0.0
 43
0.0
 44
0.0
 45
0.0
 46
0.0
 47
0.0
 48
0.0
 49
0.0
140
0.0
141
0.0
142
1.0
143
1.0
 70
688
 72
0
 73
0
 74
5
  7

 75
16
147
1.0
148
0.0
149
0.0
100
AcDbLayout
  1
Layout2
 70
1
 71
2
 10
0.0
 20
0.0
 11
12.0
 21
9.0
 12
0.0
 22
0.0
 32
0.0
 14
0.0
 24
0.0
 34
0.0
 15
0.0
 25
0.0
 35
0.0
146
0.0
 13
0.0
 23
0.0
 33
0.0
 16
1.0
 26
0.0
 36
0.0
 17
0.0
 27
1.0
 37
0.0
 76
0
330
23
  0
DICTIONARY
  5
160
100
AcDbDictionary
281
1
  3
DIMASSOC
350
162
  3
HIDETEXT
350
161
  0
DICTIONARYVAR
  5
161
100
DictionaryVariables
280
0
  1
2
  0
DICTIONARYVAR
  5
162
100
DictionaryVariables
280
0
  1
1
  0
ENDSEC
  0
EOF
