999
dxflib 2.0.4.8
  0
SECTION
  2
HEADER
  9
$ACADVER
  1
AC1015
  9
$HANDSEED
  5
FFFF
  9
$DIMTAD
 70
0
  9
$DIMTDEC
 70
4
  9
$USERR4
 40
0.0
  9
$CLAYER
  8
0
  9
$DELOBJ
 70
1
  9
$DIMALTZ
 70
0
  9
$DIMUNIT
 70
2
  9
$MENU
  1
acad
  9
$CHAMFERA
 40
0.0
  9
$ATTREQ
 70
1
  9
$UCSYDIR
 10
0.0
 20
1.0
 30
0.0
  9
$USERR5
 40
0.0
  9
$SHADEDIF
 70
70
  9
$TILEMODE
 70
1
  9
$VISRETAIN
 70
0
  9
$CMLSTYLE
  2
STANDARD
  9
$EXTMIN
 10
7.1921590000000002
 20
-1.045804
 30
0.0
  9
$ORTHOMODE
 70
1
  9
$REGENMODE
 70
1
  9
$TRACEWID
 40
0.05
  9
$DIMASZ
 40
1.0
  9
$DIMUPT
 70
0
  9
$CHAMFERB
 40
0.0
  9
$UCSXDIR
 10
1.0
 20
0.0
 30
0.0
  9
$DIMSHO
 70
1
  9
$DIMALT
 70
0
  9
$DIMSAH
 70
0
  9
$DIMTFAC
 40
1.0
  9
$DIMGAP
 40
0.09
  9
$SKETCHINC
 40
0.1
  9
$CHAMFERC
 40
0.0
  9
$USRTIMER
 70
1
  9
$ANGBASE
 50
0.0
  9
$PUCSYDIR
 10
0.0
 20
1.0
 30
0.0
  9
$PICKSTYLE
 70
1
  9
$CMLJUST
 70
0
  9
$LIMMIN
 10
0.0
 20
0.0
  9
$DIMTSZ
 40
0.0
  9
$DIMALTTD
 70
2
  9
$CHAMFERD
 40
0.0
  9
$SPLFRAME
 70
0
  9
$SURFTYPE
 70
6
  9
$PUCSXDIR
 10
1.0
 20
0.0
 30
0.0
  9
$DWGCODEPAGE
  3
ansi_1252
  9
$LUNITS
 70
2
  9
$AUPREC
 70
0
  9
$BLIPMODE
 70
0
  9
$SPLINESEGS
 70
8
  9
$SURFTAB1
 70
6
  9
$INSBASE
 10
0.0
 20
0.0
 30
0.0
  9
$DIMRND
 40
0.0
  9
$DIMCEN
 40
0.09
  9
$ELEVATION
 40
0.0
  9
$SKPOLY
 70
0
  9
$SURFTAB2
 70
6
  9
$USERI1
 70
96
  9
$UNITMODE
 70
0
  9
$INSUNITS
 70
4
  9
$EXTMAX
 10
14.5199099999999994
 20
5.0090960000000004
 30
0.0
  9
$FILLMODE
 70
1
  9
$DRAGMODE
 70
2
  9
$TEXTSIZE
 40
0.09
  9
$DIMEXO
 40
0.063
  9
$PELEVATION
 40
0.0
  9
$UCSORG
 10
0.0
 20
0.0
 30
0.0
  9
$USERI2
 70
0
  9
$DIMSCALE
 40
1.0
  9
$DIMDLE
 40
0.0
  9
$DIMZIN
 70
0
  9
$DIMTOLJ
 70
1
  9
$DIMTZIN
 70
0
  9
$TDUSRTIMER
 40
0.0019135417
  9
$ANGDIR
 70
0
  9
$SURFU
 70
6
  9
$USERI3
 70
0
  9
$LIMMAX
 10
12.0
 20
9.0
  9
$QTEXTMODE
 70
0
  9
$OSMODE
 70
0
  9
$DIMJUST
 70
0
  9
$DIMALTTZ
 70
0
  9
$SURFV
 70
6
  9
$USERI4
 70
0
  9
$WORLDVIEW
 70
1
  9
$ATTMODE
 70
1
  9
$DIMTXT
 40
1.0
  9
$DIMLIM
 70
0
  9
$DIMSE1
 70
0
  9
$THICKNESS
 40
0.0
  9
$LIMCHECK
 70
0
  9
$PDMODE
 70
0
  9
$HANDLING
 70
1
  9
$USERI5
 70
0
  9
$CELTYPE
  6
BYLAYER
  9
$DIMTOH
 70
1
  9
$DIMSE2
 70
0
  9
$DIMLFAC
 40
1.0
  9
$DIMSOXD
 70
0
  9
$LUPREC
 70
3
  9
$TDINDWG
 40
0.0019135417
  9
$SPLINETYPE
 70
6
  9
$PUCSORG
 10
0.0
 20
0.0
 30
0.0
  9
$PEXTMIN
 10
13.266985
 20
6.2390980000000003
 30
0.0
  9
$PEXTMAX
 10
28.4692000000000007
 20
17.9930829999999986
 30
0.0
  9
$CECOLOR
 62
7
  9
$DISPSILH
 70
0
  9
$DIMDLI
 40
0.38
  9
$DIMTM
 40
0.0
  9
$DIMASO
 70
1
  9
$DIMTVP
 40
0.0
  9
$DIMSTYLE
  2
STANDARD
  9
$PLINEWID
 40
0.0
  9
$PLIMCHECK
 70
0
  9
$LTSCALE
 40
1.0
  9
$DIMTIH
 70
1
  9
$DIMALTD
 70
2
  9
$DIMCLRT
 70
0
  9
$DIMDEC
 70
4
  9
$DIMALTU
 70
2
  9
$FILLETRAD
 40
0.0
  9
$TDUPDATE
 40
2450623.388960184995085
  9
$MAXACTVP
 70
16
  9
$PLIMMIN
 10
13.1077820000000003
 20
6.1027829999999996
  9
$PLIMMAX
 10
28.6420509999999986
 20
18.2076400000000014
  9
$TREEDEPTH
 70
3020
  9
$CELTSCALE
 40
1.0
  9
$DIMEXE
 40
0.18
  9
$DIMCLRD
 70
0
  9
$DIMTXSTY
  7
STANDARD
  9
$PDSIZE
 40
0.0
  9
$ATTDIA
 70
0
  9
$USERR1
 40
0.0
  9
$PINSBASE
 10
0.0
 20
0.0
 30
0.0
  9
$CMLSCALE
 40
1.0
  9
$TEXTSTYLE
  7
STANDARD
  9
$DIMTP
 40
0.0
  9
$DIMTOL
 70
0
  9
$DIMALTF
 40
25.3999999999999986
  9
$DIMTOFL
 70
0
  9
$DIMCLRE
 70
0
  9
$DIMSD1
 70
0
  9
$DIMFIT
 70
3
  9
$DIMAUNIT
 70
0
  9
$TDCREATE
 40
2450486.2922849538736045
  9
$COORDS
 70
2
  9
$USERR2
 40
0.0
  9
$SHADEDGE
 70
3
  9
$PLINEGEN
 70
0
  9
$PSLTSCALE
 70
1
  9
$SAVEIMAGES
 70
0
  9
$MIRRTEXT
 70
1
  9
$DIMTIX
 70
0
  9
$DIMSD2
 70
0
  9
$AUNITS
 70
0
  9
$USERR3
 40
0.0
  0
ENDSEC
  0
SECTION
  2
TABLES
  0
TABLE
  2
VPORT
  5
8
100
AcDbSymbolTable
 70
1
  0
VPORT
  5
30
100
AcDbSymbolTableRecord
100
AcDbViewportTableRecord
  2
*Active
 70
0
 10
0.0
 20
0.0
 11
1.0
 21
1.0
 12
286.3055555555554861
 22
148.5
 13
0.0
 23
0.0
 14
10.0
 24
10.0
 15
10.0
 25
10.0
 16
0.0
 26
0.0
 36
1.0
 17
0.0
 27
0.0
 37
0.0
 40
297.0
 41
1.92798353909465
 42
50.0
 43
0.0
 44
0.0
 50
0.0
 51
0.0
 71
0
 72
100
 73
1
 74
3
 75
1
 76
1
 77
0
 78
0
281
0
 65
1
110
0.0
120
0.0
130
0.0
111
1.0
121
0.0
131
0.0
112
0.0
122
1.0
132
0.0
 79
0
146
0.0
  0
ENDTAB
  0
TABLE
  2
LTYPE
  5
5
100
AcDbSymbolTable
 70
21
  0
LTYPE
  5
14
100
AcDbSymbolTableRecord
100
AcDbLinetypeTableRecord
  2
ByBlock
 70
0
  3

 72
65
 73
0
 40
0.0
  0
LTYPE
  5
15
100
AcDbSymbolTableRecord
100
AcDbLinetypeTableRecord
  2
ByLayer
 70
0
  3

 72
65
 73
0
 40
0.0
  0
LTYPE
  5
16
100
AcDbSymbolTableRecord
100
AcDbLinetypeTableRecord
  2
CONTINUOUS
 70
0
  3
Solid line
 72
65
 73
0
 40
0.0
  0
LTYPE
  5
31
100
AcDbSymbolTableRecord
100
AcDbLinetypeTableRecord
  2
DOT
 70
0
  3
Dot . . . . . . . . . . . . . . . . . . . . . .
 72
65
 73
2
 40
6.3499999999999996
 49
0.0
 74
0
 49
-6.3499999999999996
 74
0
  0
LTYPE
  5
32
100
AcDbSymbolTableRecord
100
AcDbLinetypeTableRecord
  2
DOT2
 70
0
  3
Dot (.5x) .....................................
 72
65
 73
2
 40
3.1749999999999998
 49
0.0
 74
0
 49
-3.1749999999999998
 74
0
  0
LTYPE
  5
33
100
AcDbSymbolTableRecord
100
AcDbLinetypeTableRecord
  2
DOTX2
 70
0
  3
Dot (2x) .  .  .  .  .  .  .  .  .  .  .  .  .
 72
65
 73
2
 40
12.6999999999999993
 49
0.0
 74
0
 49
-12.6999999999999993
 74
0
  0
LTYPE
  5
34
100
AcDbSymbolTableRecord
100
AcDbLinetypeTableRecord
  2
DASHED
 70
0
  3
Dashed __ __ __ __ __ __ __ __ __ __ __ __ __ _
 72
65
 73
2
 40
19.0500000000000007
 49
12.6999999999999993
 74
0
 49
-6.3499999999999996
 74
0
  0
LTYPE
  5
35
100
AcDbSymbolTableRecord
100
AcDbLinetypeTableRecord
  2
DASHED2
 70
0
  3
Dashed (.5x) _ _ _ _ _ _ _ _ _ _ _ _ _ _ _ _ _
 72
65
 73
2
 40
9.5250000000000004
 49
6.3499999999999996
 74
0
 49
-3.1749999999999998
 74
0
  0
LTYPE
  5
36
100
AcDbSymbolTableRecord
100
AcDbLinetypeTableRecord
  2
DASHEDX2
 70
0
  3
Dashed (2x) ____  ____  ____  ____  ____  ___
 72
65
 73
2
 40
38.1000000000000014
 49
25.3999999999999986
 74
0
 49
-12.6999999999999993
 74
0
  0
LTYPE
  5
37
100
AcDbSymbolTableRecord
100
AcDbLinetypeTableRecord
  2
DASHDOT
 70
0
  3
Dash dot __ . __ . __ . __ . __ . __ . __ . __
 72
65
 73
4
 40
25.3999999999999986
 49
12.6999999999999993
 74
0
 49
-6.3499999999999996
 74
0
 49
0.0
 74
0
 49
-6.3499999999999996
 74
0
  0
LTYPE
  5
38
100
AcDbSymbolTableRecord
100
AcDbLinetypeTableRecord
  2
DASHDOT2
 70
0
  3
Dash dot (.5x) _._._._._._._._._._._._._._._.
 72
65
 73
4
 40
12.6999999999999993
 49
6.3499999999999996
 74
0
 49
-3.1749999999999998
 74
0
 49
0.0
 74
0
 49
-3.1749999999999998
 74
0
  0
LTYPE
  5
39
100
AcDbSymbolTableRecord
100
AcDbLinetypeTableRecord
  2
DASHDOTX2
 70
0
  3
Dash dot (2x) ____  .  ____  .  ____  .  ___
 72
65
 73
4
 40
50.7999999999999972
 49
25.3999999999999986
 74
0
 49
-12.6999999999999993
 74
0
 49
0.0
 74
0
 49
-12.6999999999999993
 74
0
  0
LTYPE
  5
3A
100
AcDbSymbolTableRecord
100
AcDbLinetypeTableRecord
  2
DIVIDE
 70
0
  3
Divide ____ . . ____ . . ____ . . ____ . . ____
 72
65
 73
6
 40
31.75
 49
12.6999999999999993
 74
0
 49
-6.3499999999999996
 74
0
 49
0.0
 74
0
 49
-6.3499999999999996
 74
0
 49
0.0
 74
0
 49
-6.3499999999999996
 74
0
  0
LTYPE
  5
3B
100
AcDbSymbolTableRecord
100
AcDbLinetypeTableRecord
  2
DIVIDE2
 70
0
  3
Divide (.5x) __..__..__..__..__..__..__..__.._
 72
65
 73
6
 40
15.875
 49
6.3499999999999996
 74
0
 49
-3.1749999999999998
 74
0
 49
0.0
 74
0
 49
-3.1749999999999998
 74
0
 49
0.0
 74
0
 49
-3.1749999999999998
 74
0
  0
LTYPE
  5
3C
100
AcDbSymbolTableRecord
100
AcDbLinetypeTableRecord
  2
DIVIDEX2
 70
0
  3
Divide (2x) ________  .  .  ________  .  .  _
 72
65
 73
6
 40
63.5
 49
25.3999999999999986
 74
0
 49
-12.6999999999999993
 74
0
 49
0.0
 74
0
 49
-12.6999999999999993
 74
0
 49
0.0
 74
0
 49
-12.6999999999999993
 74
0
  0
LTYPE
  5
3D
100
AcDbSymbolTableRecord
100
AcDbLinetypeTableRecord
  2
CENTER
 70
0
  3
Center ____ _ ____ _ ____ _ ____ _ ____ _ ____
 72
65
 73
4
 40
50.7999999999999972
 49
31.75
 74
0
 49
-6.3499999999999996
 74
0
 49
6.3499999999999996
 74
0
 49
-6.3499999999999996
 74
0
  0
LTYPE
  5
3E
100
AcDbSymbolTableRecord
100
AcDbLinetypeTableRecord
  2
CENTER2
 70
0
  3
Center (.5x) ___ _ ___ _ ___ _ ___ _ ___ _ ___
 72
65
 73
4
 40
28.5749999999999993
 49
19.0500000000000007
 74
0
 49
-3.1749999999999998
 74
0
 49
3.1749999999999998
 74
0
 49
-3.1749999999999998
 74
0
  0
LTYPE
  5
3F
100
AcDbSymbolTableRecord
100
AcDbLinetypeTableRecord
  2
CENTERX2
 70
0
  3
Center (2x) ________  __  ________  __  _____
 72
65
 73
4
 40
101.5999999999999943
 49
63.5
 74
0
 49
-12.6999999999999993
 74
0
 49
12.6999999999999993
 74
0
 49
-12.6999999999999993
 74
0
  0
LTYPE
  5
40
100
AcDbSymbolTableRecord
100
AcDbLinetypeTableRecord
  2
BORDER
 70
0
  3
Border __ __ . __ __ . __ __ . __ __ . __ __ .
 72
65
 73
6
 40
44.4500000000000028
 49
12.6999999999999993
 74
0
 49
-6.3499999999999996
 74
0
 49
12.6999999999999993
 74
0
 49
-6.3499999999999996
 74
0
 49
0.0
 74
0
 49
-6.3499999999999996
 74
0
  0
LTYPE
  5
41
100
AcDbSymbolTableRecord
100
AcDbLinetypeTableRecord
  2
BORDER2
 70
0
  3
Border (.5x) __.__.__.__.__.__.__.__.__.__.__.
 72
65
 73
6
 40
22.2250000000000014
 49
6.3499999999999996
 74
0
 49
-3.1749999999999998
 74
0
 49
6.3499999999999996
 74
0
 49
-3.1749999999999998
 74
0
 49
0.0
 74
0
 49
-3.1749999999999998
 74
0
  0
LTYPE
  5
42
100
AcDbSymbolTableRecord
100
AcDbLinetypeTableRecord
  2
BORDERX2
 70
0
  3
Border (2x) ____  ____  .  ____  ____  .  ___
 72
65
 73
6
 40
88.9000000000000057
 49
25.3999999999999986
 74
0
 49
-12.6999999999999993
 74
0
 49
25.3999999999999986
 74
0
 49
-12.6999999999999993
 74
0
 49
0.0
 74
0
 49
-12.6999999999999993
 74
0
  0
ENDTAB
  0
TABLE
  2
LAYER
  5
2
100
AcDbSymbolTable
 70
1
  0
LAYER
  5
10
100
AcDbSymbolTableRecord
100
AcDbLayerTableRecord
  2
0
 70
0
 62
7
  6
CONTINUOUS
390
F
  0
ENDTAB
  0
TABLE
  2
STYLE
  5
3
100
AcDbSymbolTable
 70
1
  0
STYLE
  5
11
100
AcDbSymbolTableRecord
100
AcDbTextStyleTableRecord
  2
Standard
 70
0
 40
0.0
 41
0.75
 50
0.0
 71
0
 42
2.5
  3
txt
  4

  0
ENDTAB
  0
TABLE
  2
VIEW
  5
6
100
AcDbSymbolTable
 70
0
  0
ENDTAB
  0
TABLE
  2
UCS
  5
7
100
AcDbSymbolTable
 70
0
  0
ENDTAB
  0
TABLE
  2
APPID
  5
9
100
AcDbSymbolTable
 70
1
  0
APPID
  5
12
100
AcDbSymbolTableRecord
100
AcDbRegAppTableRecord
  2
ACAD
 70
0
  0
ENDTAB
  0
TABLE
  2
DIMSTYLE
  5
A
100
AcDbSymbolTable
 70
1
100
AcDbDimStyleTable
 71
0
  0
DIMSTYLE
105
27
100
AcDbSymbolTableRecord
100
AcDbDimStyleTableRecord
  2
Standard
 41
1.0
 42
0.063
 43
3.75
 44
0.18
 70
0
 73
0
 74
0
 77
1
 78
8
140
1.0
141
2.5
143
0.03937007874016
147
0.09
171
3
172
1
271
2
272
2
274
3
278
44
283
0
284
8
340
11
  0
ENDTAB
  0
TABLE
  2
BLOCK_RECORD
  5
1
100
AcDbSymbolTable
 70
1
  0
BLOCK_RECORD
  5
1F
100
AcDbSymbolTableRecord
100
AcDbBlockTableRecord
  2
*Model_Space
340
22
  0
BLOCK_RECORD
  5
1B
100
AcDbSymbolTableRecord
100
AcDbBlockTableRecord
  2
*Paper_Space
340
1E
  0
BLOCK_RECORD
  5
23
100
AcDbSymbolTableRecord
100
AcDbBlockTableRecord
  2
*Paper_Space0
340
26
  0
BLOCK_RECORD
  5
43
100
AcDbSymbolTableRecord
100
AcDbBlockTableRecord
  2
AVE_RENDER
340
0
  0
BLOCK_RECORD
  5
44
100
AcDbSymbolTableRecord
100
AcDbBlockTableRecord
  2
3030-2D
340
0
  0
BLOCK_RECORD
  5
45
100
AcDbSymbolTableRecord
100
AcDbBlockTableRecord
  2
AVE_GLOBAL
340
0
  0
ENDTAB
  0
ENDSEC
  0
SECTION
  2
BLOCKS
  0
BLOCK
  5
20
100
AcDbEntity
  8
0
100
AcDbBlockBegin
  2
*Model_Space
 70
0
 10
0.0
 20
0.0
 30
0.0
  3
*Model_Space
  1

  0
ENDBLK
  5
21
100
AcDbEntity
  8
0
100
AcDbBlockEnd
  0
BLOCK
  5
1C
100
AcDbEntity
 67
1
  8
0
100
AcDbBlockBegin
  2
*Paper_Space
 70
0
 10
0.0
 20
0.0
 30
0.0
  3
*Paper_Space
  1

  0
ENDBLK
  5
1D
100
AcDbEntity
 67
1
  8
0
100
AcDbBlockEnd
  0
BLOCK
  5
24
100
AcDbEntity
  8
0
100
AcDbBlockBegin
  2
*Paper_Space0
 70
0
 10
0.0
 20
0.0
 30
0.0
  3
*Paper_Space0
  1

  0
ENDBLK
  5
25
100
AcDbEntity
  8
0
100
AcDbBlockEnd
  0
BLOCK
  5
46
100
AcDbEntity
  8
0
100
AcDbBlockBegin
  2
AVE_RENDER
 70
0
 10
0.0
 20
0.0
 30
0.0
  3
AVE_RENDER
  1

  0
ENDBLK
  5
47
100
AcDbEntity
  8
0
100
AcDbBlockEnd
  0
BLOCK
  5
48
100
AcDbEntity
  8
0
100
AcDbBlockBegin
  2
3030-2D
 70
0
 10
0.0
 20
0.0
 30
0.0
  3
3030-2D
  1

  0
LINE
  5
49
100
AcDbEntity
100
AcDbLine
  8
0
 62
256
370
-1
  6
CONTINUOUS
 10
0.0
 20
4.5378850000000002
 30
0.0
 11
0.0
 21
4.8488870000000004
 31
0.0
  0
LINE
  5
4A
100
AcDbEntity
100
AcDbLine
  8
0
 62
256
370
-1
  6
CONTINUOUS
 10
0.0
 20
3.2373970000000001
 30
0.0
 11
1.5000020000000001
 21
3.2373970000000001
 31
0.0
  0
LINE
  5
4B
100
AcDbEntity
100
AcDbLine
  8
0
 62
256
370
-1
  6
CONTINUOUS
 10
3.0000040000000001
 20
4.537884
 30
0.0
 11
3.0000040000000001
 21
4.8488860000000003
 31
0.0
  0
LINE
  5
4C
100
AcDbEntity
100
AcDbLine
  8
0
 62
256
370
-1
  6
CONTINUOUS
 10
3.0000040000000001
 20
3.2373959999999999
 30
0.0
 11
1.5000020000000001
 21
3.2373959999999999
 31
0.0
  0
LINE
  5
4D
100
AcDbEntity
100
AcDbLine
  8
0
 62
256
370
-1
  6
CONTINUOUS
 10
0.0
 20
5.237393
 30
0.0
 11
1.5000020000000001
 21
5.237393
 31
0.0
  0
LINE
  5
4E
100
AcDbEntity
100
AcDbLine
  8
0
 62
256
370
-1
  6
CONTINUOUS
 10
0.0
 20
5.237393
 30
0.0
 11
0.0
 21
3.2373970000000001
 31
0.0
  0
LINE
  5
4F
100
AcDbEntity
100
AcDbLine
  8
0
 62
256
370
-1
  6
CONTINUOUS
 10
0.125998
 20
5.237393
 30
0.0
 11
0.125998
 21
3.2373970000000001
 31
0.0
  0
LINE
  5
50
100
AcDbEntity
100
AcDbLine
  8
0
 62
256
370
-1
  6
CONTINUOUS
 10
0.185997
 20
5.237393
 30
0.0
 11
0.185997
 21
3.2373970000000001
 31
0.0
  0
LINE
  5
51
100
AcDbEntity
100
AcDbLine
  8
0
 62
256
370
-1
  6
CONTINUOUS
 10
0.376019
 20
5.237393
 30
0.0
 11
0.376019
 21
3.2373970000000001
 31
0.0
  0
LINE
  5
52
100
AcDbEntity
100
AcDbLine
  8
0
 62
256
370
-1
  6
CONTINUOUS
 10
0.43598
 20
5.237393
 30
0.0
 11
0.43598
 21
3.2373970000000001
 31
0.0
  0
LINE
  5
53
100
AcDbEntity
100
AcDbLine
  8
0
 62
256
370
-1
  6
CONTINUOUS
 10
0.590004
 20
5.237393
 30
0.0
 11
0.590004
 21
3.2373970000000001
 31
0.0
  0
LINE
  5
54
100
AcDbEntity
100
AcDbLine
  8
0
 62
256
370
-1
  6
CONTINUOUS
 10
0.910004
 20
5.237393
 30
0.0
 11
0.910004
 21
3.2373970000000001
 31
0.0
  0
LINE
  5
55
100
AcDbEntity
100
AcDbLine
  8
0
 62
256
370
-1
  6
CONTINUOUS
 10
1.064022
 20
5.237393
 30
0.0
 11
1.064022
 21
3.2373970000000001
 31
0.0
  0
LINE
  5
56
100
AcDbEntity
100
AcDbLine
  8
0
 62
256
370
-1
  6
CONTINUOUS
 10
1.1239809999999999
 20
5.237393
 30
0.0
 11
1.1239809999999999
 21
3.2373970000000001
 31
0.0
  0
LINE
  5
57
100
AcDbEntity
100
AcDbLine
  8
0
 62
256
370
-1
  6
CONTINUOUS
 10
1.314001
 20
5.237393
 30
0.0
 11
1.314001
 21
3.2373970000000001
 31
0.0
  0
LINE
  5
58
100
AcDbEntity
100
AcDbLine
  8
0
 62
256
370
-1
  6
CONTINUOUS
 10
1.374001
 20
5.237393
 30
0.0
 11
1.374001
 21
3.2373970000000001
 31
0.0
  0
LINE
  5
59
100
AcDbEntity
100
AcDbLine
  8
0
 62
256
370
-1
  6
CONTINUOUS
 10
0.000002
 20
3.9433829999999999
 30
0.0
 11
0.000002
 21
5.237393
 31
0.0
  0
LINE
  5
5A
100
AcDbEntity
100
AcDbLine
  8
0
 62
256
370
-1
  6
CONTINUOUS
 10
3.0000040000000001
 20
5.2373919999999998
 30
0.0
 11
1.5000020000000001
 21
5.2373919999999998
 31
0.0
  0
LINE
  5
5B
100
AcDbEntity
100
AcDbLine
  8
0
 62
256
370
-1
  6
CONTINUOUS
 10
3.0000040000000001
 20
5.2373919999999998
 30
0.0
 11
3.0000040000000001
 21
3.2373959999999999
 31
0.0
  0
LINE
  5
5C
100
AcDbEntity
100
AcDbLine
  8
0
 62
256
370
-1
  6
CONTINUOUS
 10
2.8740060000000001
 20
5.2373919999999998
 30
0.0
 11
2.8740060000000001
 21
3.2373959999999999
 31
0.0
  0
LINE
  5
5D
100
AcDbEntity
100
AcDbLine
  8
0
 62
256
370
-1
  6
CONTINUOUS
 10
2.8140070000000001
 20
5.2373919999999998
 30
0.0
 11
2.8140070000000001
 21
3.2373959999999999
 31
0.0
  0
LINE
  5
5E
100
AcDbEntity
100
AcDbLine
  8
0
 62
256
370
-1
  6
CONTINUOUS
 10
2.6239849999999998
 20
5.2373919999999998
 30
0.0
 11
2.6239849999999998
 21
3.2373959999999999
 31
0.0
  0
LINE
  5
5F
100
AcDbEntity
100
AcDbLine
  8
0
 62
256
370
-1
  6
CONTINUOUS
 10
2.5640239999999999
 20
5.2373919999999998
 30
0.0
 11
2.5640239999999999
 21
3.2373959999999999
 31
0.0
  0
LINE
  5
60
100
AcDbEntity
100
AcDbLine
  8
0
 62
256
370
-1
  6
CONTINUOUS
 10
2.4100000000000001
 20
5.2373919999999998
 30
0.0
 11
2.4100000000000001
 21
3.2373959999999999
 31
0.0
  0
LINE
  5
61
100
AcDbEntity
100
AcDbLine
  8
0
 62
256
370
-1
  6
CONTINUOUS
 10
2.0899999999999999
 20
5.2373919999999998
 30
0.0
 11
2.0899999999999999
 21
3.2373959999999999
 31
0.0
  0
LINE
  5
62
100
AcDbEntity
100
AcDbLine
  8
0
 62
256
370
-1
  6
CONTINUOUS
 10
1.9359820000000001
 20
5.2373919999999998
 30
0.0
 11
1.9359820000000001
 21
3.2373959999999999
 31
0.0
  0
LINE
  5
63
100
AcDbEntity
100
AcDbLine
  8
0
 62
256
370
-1
  6
CONTINUOUS
 10
1.8760220000000001
 20
5.2373919999999998
 30
0.0
 11
1.8760220000000001
 21
3.2373959999999999
 31
0.0
  0
LINE
  5
64
100
AcDbEntity
100
AcDbLine
  8
0
 62
256
370
-1
  6
CONTINUOUS
 10
1.6860029999999999
 20
5.2373919999999998
 30
0.0
 11
1.6860029999999999
 21
3.2373959999999999
 31
0.0
  0
LINE
  5
65
100
AcDbEntity
100
AcDbLine
  8
0
 62
256
370
-1
  6
CONTINUOUS
 10
1.6260030000000001
 20
5.2373919999999998
 30
0.0
 11
1.6260030000000001
 21
3.2373959999999999
 31
0.0
  0
LINE
  5
66
100
AcDbEntity
100
AcDbLine
  8
0
 62
256
370
-1
  6
CONTINUOUS
 10
3.0000019999999998
 20
3.9433829999999999
 30
0.0
 11
3.0000019999999998
 21
5.2373919999999998
 31
0.0
  0
LWPOLYLINE
  5
67
  8
0
 62
256
370
-1
  6
CONTINUOUS
100
AcDbEntity
100
AcDbPolyline
 90
33
 70
1
 10
1.366924
 20
2.7009720000000002
 10
1.0700959999999999
 20
2.40347
 42
0.1989119999437811
 10
1.0153250000000003
 20
2.2712410000404506
 10
1.015325
 20
2.1709990000000001
 42
-0.4142139999635163
 10
0.8283249999999999
 20
1.9839990000000001
 10
0.728083
 20
1.9839990000000001
 42
0.1989120000000001
 10
0.5958539999999999
 20
1.9292279999999999
 10
0.298182
 20
1.6322289999999999
 42
0.4118260000000001
 10
0.2980079999999998
 20
1.3662380000000001
 10
0.595007
 20
1.0692390000000001
 42
0.1989120000000004
 10
0.7272359999999999
 20
1.0144679999999995
 10
0.827478
 20
1.0144679999999999
 42
-0.4142139999321419
 10
1.014478
 20
0.8274680000433247
 10
1.014478
 20
0.727226
 42
0.1989119999156728
 10
1.0692489999999999
 20
0.5949970000000001
 10
1.3667499999999999
 20
0.297495
 42
0.413942
 10
1.6313820000000001
 20
0.297495
 10
1.9288810000000001
 20
0.5949950000000001
 42
0.1989119999437814
 10
1.9836519999999997
 20
0.7272239999595491
 10
1.983652
 20
0.827468
 42
-0.4142139999635161
 10
2.170652
 20
1.0144679999999999
 10
2.270896
 20
1.0144679999999999
 42
0.1989120000000001
 10
2.4031250000000002
 20
1.0692390000000001
 10
2.7001240000000002
 20
1.3662380000000001
 42
0.4146040000000006
 10
2.7001240000000002
 20
1.6304470000000002
 10
2.4031250000000002
 20
1.927446
 42
0.198912
 10
2.270896
 20
1.9822170000000001
 10
2.170652
 20
1.9822169999999999
 42
-0.4142139999321415
 10
1.9836519999999997
 20
2.1692169999566753
 10
1.983652
 20
2.2694610000000002
 42
0.1989119999156735
 10
1.9288809999999998
 20
2.4016899999999999
 10
1.6313820000000001
 20
2.6994379999999998
 42
0.4142069999999997
 10
1.3669240000000007
 20
2.7009709999999996
 42
-16331239353195370.0
  0
LWPOLYLINE
  5
68
  8
0
 62
256
370
-1
  6
CONTINUOUS
100
AcDbEntity
100
AcDbPolyline
 90
241
 70
1
 10
-0.00017
 20
2.8747349999999998
 42
-0.9999329999976493
 10
-0.000174
 20
2.8147350000000002
 10
-0.000174
 20
2.75
 10
0.004227
 20
2.6239819999999998
 42
-0.9999330000010388
 10
0.006322
 20
2.5640179999999999
 10
0.009611
 20
2.4698359999999999
 42
0.404027
 10
0.071573
 20
2.4100000000000001
 10
0.107594
 20
2.4100000000000001
 42
0.4244729999999999
 10
0.169556
 20
2.4741629999999999
 10
0.164507
 20
2.618779
 42
-0.424472999999999
 10
0.199485
 20
2.6549999999999998
 10
0.217191
 20
2.6549999999999998
 42
-0.1989120000000003
 10
0.24194
 20
2.644749
 10
0.429555
 20
2.4571339999999999
 42
-0.1989130000030972
 10
0.4843270000000001
 20
2.3249049999977718
 10
0.484327
 20
2.1750949999999998
 42
-0.1989119999156735
 10
0.4295559999999998
 20
2.0428660000000001
 10
0.24194
 20
1.8552500000000001
 42
-0.1989119999999985
 10
0.217191
 20
1.8449990000000003
 10
0.198437
 20
1.8449990000000001
 42
-0.4244739999999981
 10
0.163458
 20
1.881221
 10
0.168508
 20
2.0258370000000001
 42
0.4244740000000021
 10
0.106546
 20
2.0899999999999999
 10
0.070525
 20
2.0899999999999999
 42
0.4040229999999996
 10
0.008563
 20
2.0301650000000002
 10
0.005273
 20
1.9359820000000001
 42
-0.9999329999998137
 10
0.003179
 20
1.876018
 10
-0.001894
 20
1.75
 10
-0.001894
 20
1.6859999999999999
 42
-0.9999329999992985
 10
-0.001894
 20
1.6259999999999999
 10
-0.002068
 20
1.3724670000000001
 42
-0.9999329999976493
 10
-0.002064
 20
1.3124670000000001
 10
-0.002068
 20
1.248467
 10
0.002332
 20
1.122449
 42
-0.9999329999998137
 10
0.004426
 20
1.0624850000000001
 10
0.007716
 20
0.968303
 42
0.4040230000000007
 10
0.069678
 20
0.908467
 10
0.105699
 20
0.908467
 42
0.4244749999999995
 10
0.167661
 20
0.9726310000000001
 10
0.162611
 20
1.1172470000000001
 42
-0.424475000000001
 10
0.197589
 20
1.1534679999999999
 10
0.216344
 20
1.1534679999999999
 42
-0.1989120000000016
 10
0.2410930000000002
 20
1.1432169999999999
 10
0.428709
 20
0.955601
 42
-0.1989119999437819
 10
0.48348
 20
0.8233720000404507
 10
0.48348
 20
0.673722
 42
-0.2081100000037027
 10
0.4239559999999999
 20
0.536905
 10
0.241115
 20
0.353739
 42
-0.205112
 10
0.217191
 20
0.343466
 10
0.199485
 20
0.343466
 42
-0.4244730000000002
 10
0.164507
 20
0.3796870000000002
 10
0.169556
 20
0.524304
 42
0.4244729999999992
 10
0.107594
 20
0.588467
 10
0.071571
 20
0.588467
 42
0.4040319999999999
 10
0.009609
 20
0.52863
 10
0.006322
 20
0.434449
 42
-0.9999330000001401
 10
0.004227
 20
0.374485
 10
-0.000174
 20
0.249264
 10
-0.000174
 20
0.185264
 42
-0.999933000000346
 10
-0.00017
 20
0.125264
 42
0.4165660000000032
 10
0.1247239999999999
 20
0.000187
 42
-0.9999330000007968
 10
0.184724
 20
0.0000949999999974
 10
0.247876
 20
0.0
 10
0.373901
 20
0.004216
 42
-0.9999330000003669
 10
0.433867
 20
0.0062230000000001
 10
0.528054
 20
0.009373
 42
0.4040269999999936
 10
0.5879810000000001
 20
0.0712469999999985
 10
0.5880339999999999
 20
0.107268
 42
0.4244730000000135
 10
0.523962
 20
0.169325
 10
0.379339
 20
0.164488
 42
-0.4244730000000003
 10
0.34317
 20
0.19952
 10
0.343196
 20
0.217226
 42
-0.1989119999999725
 10
0.353483
 20
0.24196
 10
0.541374
 20
0.428502
 42
-0.198913
 10
0.673683
 20
0.483079
 10
0.823493
 20
0.482858
 42
-0.1989120000000001
 10
0.955641
 20
0.427893
 10
1.142981
 20
0.240001
 42
-0.1989119999999985
 10
1.1531960000000001
 20
0.2152380000000002
 10
1.153168
 20
0.196483
 42
-0.4244740000000343
 10
1.116895
 20
0.161558
 10
0.972287
 20
0.16682
 42
0.4244740000000037
 10
0.9080320000000001
 20
0.1049519999999991
 10
0.907979
 20
0.068932
 42
0.4040230000000016
 10
0.967724
 20
0.006882
 10
1.0619019999999999
 20
0.003453
 42
-0.999933000001216
 10
1.1218619999999999
 20
0.001271
 10
1.247873
 20
-0.003314
 10
1.3118730000000001
 20
-0.003409
 42
-0.9999330000012373
 10
1.3718730000000001
 20
-0.0034969999999991
 10
1.624047
 20
-0.003868
 42
-0.999933000000232
 10
1.6840470000000001
 20
-0.0039520000000009
 10
1.7480469999999999
 20
-0.00405
 10
1.874072
 20
0.000165
 42
-0.9999330000012109
 10
1.9340380000000001
 20
0.00217
 10
2.0282260000000001
 20
0.005322
 42
0.4040229999999876
 10
2.088152
 20
0.067195999999997
 10
2.0882049999999999
 20
0.103217
 42
0.4244750000000005
 10
2.024133
 20
0.165273
 10
1.87951
 20
0.160436
 42
-0.4244749999999879
 10
1.8433400000000002
 20
0.1954679999999988
 10
1.843367
 20
0.214223
 42
-0.198911999999986
 10
1.8536550000000001
 20
0.238956
 10
2.0415459999999999
 20
0.426296
 42
-0.1989120000000002
 10
2.1738559999999998
 20
0.480872
 10
2.3235060000000001
 20
0.480652
 42
-0.20811
 10
2.4602349999999999
 20
0.420927
 10
2.6431309999999999
 20
0.242291
 42
-0.1991429999999968
 10
2.6533679999999999
 20
0.2175050000000003
 10
2.6533419999999999
 20
0.199799
 42
-0.4244730000000013
 10
2.61707
 20
0.164874
 10
2.472461
 20
0.170136
 42
0.4244730000000103
 10
2.4082059999999998
 20
0.1082679999999976
 10
2.408153
 20
0.072245
 42
0.4040320000000137
 10
2.4679000000000002
 20
0.010195
 10
2.5620750000000001
 20
0.00677
 42
-0.9999330000001077
 10
2.6220359999999996
 20
0.004586
 10
2.7487200000000001
 20
0.0
 10
2.8127200000000001
 20
-0.000094
 42
-0.999933000000232
 10
2.8727199999999997
 20
-0.0001780000000009
 42
0.4290749999999983
 10
2.999822
 20
0.1289409999999995
 42
-0.999932999997648
 10
2.9998260000000001
 20
0.188941
 10
2.9998260000000001
 20
0.248467
 10
2.995425
 20
0.374485
 42
-0.9999330000001414
 10
2.9933299999999998
 20
0.434449
 10
2.990043
 20
0.52863
 42
0.4040319999999997
 10
2.9280810000000002
 20
0.588467
 10
2.892058
 20
0.588467
 42
0.4244729999999995
 10
2.8300959999999997
 20
0.5243040000000002
 10
2.8351449999999998
 20
0.379687
 42
-0.4244730000000023
 10
2.8001659999999999
 20
0.3434659999999999
 10
2.7824599999999999
 20
0.343466
 42
-0.1991429999999988
 10
2.7576900000000006
 20
0.3537390000000002
 10
2.5741749999999999
 20
0.536905
 42
-0.2081099999997303
 10
2.5146520000000003
 20
0.6737219999998072
 10
2.5146519999999999
 20
0.823372
 42
-0.1989119999156727
 10
2.569423
 20
0.9556009999999997
 10
2.7570389999999998
 20
1.1432169999999999
 42
-0.1989119999999996
 10
2.781787
 20
1.1534679999999999
 10
2.8005420000000001
 20
1.1534679999999999
 42
-0.424475000000001
 10
2.835521
 20
1.1172470000000001
 10
2.8304710000000002
 20
0.972631
 42
0.4244750000000002
 10
2.892433
 20
0.908467
 10
2.9284539999999999
 20
0.908467
 42
0.4040229999999992
 10
2.9904160000000002
 20
0.9683030000000001
 10
2.993706
 20
1.0624849999999999
 42
-0.9999329999998008
 10
2.9958
 20
1.1224490000000003
 10
3.0002
 20
1.248467
 10
3.0001959999999999
 20
1.3124670000000001
 42
-0.999932999997648
 10
3.0002
 20
1.3724670000000001
 10
3.0002
 20
1.6242179999999999
 42
-0.9999329999992985
 10
3.0002
 20
1.684218
 10
3.0002
 20
1.748218
 10
2.9958
 20
1.874236
 42
-0.9999329999998008
 10
2.993706
 20
1.9341999999999999
 10
2.9904160000000002
 20
2.0283829999999998
 42
0.4040229999999991
 10
2.9284539999999999
 20
2.0882179999999999
 10
2.892433
 20
2.0882179999999999
 42
0.4244740000000029
 10
2.8304709999999997
 20
2.0240550000000002
 10
2.8355199999999998
 20
1.8794390000000001
 42
-0.4244740000000018
 10
2.8005420000000001
 20
1.8432170000000001
 10
2.781787
 20
1.8432170000000001
 42
-0.1989119999999995
 10
2.7570389999999998
 20
1.8534679999999999
 10
2.569423
 20
2.0410840000000001
 42
-0.1989119999437815
 10
2.5146520000000003
 20
2.1733129999595495
 10
2.5146519999999999
 20
2.3231229999999998
 42
-0.1989129999781465
 10
2.569423
 20
2.455352
 10
2.7570389999999998
 20
2.6429670000000001
 42
-0.1943909999999999
 10
2.7824599999999999
 20
2.6532179999999999
 10
2.8001659999999999
 20
2.6532179999999999
 42
-0.4244730000000023
 10
2.8351449999999998
 20
2.616997
 10
2.8300960000000002
 20
2.4723809999999999
 42
0.4244730000000004
 10
2.892058
 20
2.4082180000000002
 10
2.9280789999999999
 20
2.4082180000000002
 42
0.4040270000000009
 10
2.9900410000000002
 20
2.468054
 10
2.9933299999999998
 20
2.562236
 42
-0.9999330000010446
 10
2.995425
 20
2.6221999999999999
 10
2.9998260000000001
 20
2.748218
 10
2.9998260000000001
 20
2.812217
 42
-1.0196289999999733
 10
2.999822
 20
2.8710580000000001
 42
0.4290780000000006
 10
2.8727200000000002
 20
3.0001790000000006
 42
-0.9999330000000495
 10
2.8127199999999997
 20
3.0000939999999998
 10
2.7480470000000001
 20
3.0
 10
2.622036
 20
2.9954139999999998
 42
-0.9999329999999178
 10
2.5620750000000001
 20
2.9932310000000002
 10
2.4679000000000002
 20
2.989805
 42
0.4040320000000077
 10
2.4081530000000004
 20
2.9277549999999981
 10
2.4082059999999998
 20
2.8917320000000002
 42
0.428313999999992
 10
2.472461
 20
2.8310240000000007
 10
2.61707
 20
2.8362850000000002
 42
-0.4244730000000012
 10
2.6533420000000003
 20
2.8013600000000003
 10
2.6533679999999999
 20
2.7836539999999999
 42
-0.1991429999999972
 10
2.6431309999999999
 20
2.7588680000000001
 10
2.4602349999999999
 20
2.575758
 42
-0.2081099999999994
 10
2.3235060000000001
 20
2.5160330000000006
 10
2.1738559999999998
 20
2.5158130000000001
 42
-0.1989120000000001
 10
2.0415459999999999
 20
2.5703900000000002
 10
1.8536550000000001
 20
2.7577289999999999
 42
-0.198911999999999
 10
1.843367
 20
2.7824629999999995
 10
1.84334
 20
2.801218
 42
-0.4244750000000246
 10
1.87951
 20
2.8362500000000006
 10
2.024133
 20
2.8314119999999998
 42
0.424475000000048
 10
2.0882049999999999
 20
2.8934690000000098
 10
2.088152
 20
2.9294889999999998
 42
0.4040229999999775
 10
2.0282260000000001
 20
2.9913630000000002
 10
1.9340379999999999
 20
2.9945149999999998
 42
-0.9999330000007859
 10
1.874072
 20
2.996521
 10
1.7480469999999999
 20
3.0009839999999999
 10
1.6840470000000001
 20
3.0008859999999999
 42
-0.99993300000027
 10
1.624047
 20
3.0008020000000024
 10
1.372047
 20
3.0019640000000001
 42
-0.9999330000012371
 10
1.312047
 20
3.0018760000000007
 10
1.2480469999999999
 20
3.001782
 10
1.122709
 20
2.9971969999999999
 42
-0.9999329999986841
 10
1.0627489999999997
 20
2.9950139999999998
 10
0.968571
 20
2.9915859999999999
 42
0.4040230000000031
 10
0.908826
 20
2.9295360000000001
 10
0.908879
 20
2.8935149999999998
 42
0.4244740000000047
 10
0.9731340000000001
 20
2.8316469999999994
 10
1.117742
 20
2.83691
 42
-0.4244740000000086
 10
1.154015
 20
2.8019839999999987
 10
1.1540429999999999
 20
2.7832300000000001
 42
-0.1989119999999945
 10
1.1438279999999998
 20
2.7584659999999999
 10
0.956488
 20
2.5705749999999998
 42
-0.1989120000000003
 10
0.82434
 20
2.5156089999999995
 10
0.67453
 20
2.5153889999999999
 42
-0.1989129999999996
 10
0.5422210000000001
 20
2.569966
 10
0.35433
 20
2.7573050000000001
 42
-0.1939799999999557
 10
0.3440429999999999
 20
2.7827739999999936
 10
0.344017
 20
2.8004799999999999
 42
-0.4244729999999989
 10
0.380186
 20
2.835512
 10
0.524809
 20
2.830676
 42
0.4244729999999897
 10
0.5888810000000001
 20
2.8927319999999983
 10
0.588828
 20
2.9287529999999999
 42
0.404026999999989
 10
0.528901
 20
2.9906270000000004
 10
0.434714
 20
2.9937770000000001
 42
-0.9999329999976686
 10
0.374748
 20
2.995784
 10
0.248723
 20
3.0
 10
0.184724
 20
2.9999060000000002
 42
-0.9999330000007002
 10
0.124724
 20
2.9998129999999992
 42
0.4141569999999625
 10
-0.0001740000000001
 20
2.8747360000000159
 42
0.7806090001288905
  0
CIRCLE
  5
69
100
AcDbEntity
100
AcDbCircle
  8
0
 62
256
370
-1
  6
CONTINUOUS
 10
0.749826
 20
2.25
 30
0.0
 40
0.1285
  0
CIRCLE
  5
6A
100
AcDbEntity
100
AcDbCircle
  8
0
 62
256
370
-1
  6
CONTINUOUS
 10
0.749826
 20
0.75
 30
0.0
 40
0.1285
  0
CIRCLE
  5
6B
100
AcDbEntity
100
AcDbCircle
  8
0
 62
256
370
-1
  6
CONTINUOUS
 10
2.2498260000000001
 20
0.75
 30
0.0
 40
0.1285
  0
CIRCLE
  5
6C
100
AcDbEntity
100
AcDbCircle
  8
0
 62
256
370
-1
  6
CONTINUOUS
 10
2.2498260000000001
 20
2.25
 30
0.0
 40
0.1285
  0
ENDBLK
  5
6D
100
AcDbEntity
  8
0
100
AcDbBlockEnd
  0
BLOCK
  5
6E
100
AcDbEntity
  8
0
100
AcDbBlockBegin
  2
AVE_GLOBAL
 70
0
 10
0.0
 20
0.0
 30
0.0
  3
AVE_GLOBAL
  1

  0
ENDBLK
  5
6F
100
AcDbEntity
  8
0
100
AcDbBlockEnd
  0
ENDSEC
  0
SECTION
  2
ENTITIES
  0
CIRCLE
  5
70
100
AcDbEntity
100
AcDbCircle
  8
0
 62
256
370
-1
  6
CONTINUOUS
 10
0.7481624999999994
 20
2.2500005000000005
 30
0.0
 40
0.1285
  0
CIRCLE
  5
71
100
AcDbEntity
100
AcDbCircle
  8
0
 62
256
370
-1
  6
CONTINUOUS
 10
-0.7518385000000007
 20
2.2499995000000004
 30
0.0
 40
0.1285
  0
CIRCLE
  5
72
100
AcDbEntity
100
AcDbCircle
  8
0
 62
256
370
-1
  6
CONTINUOUS
 10
-0.7518385000000007
 20
0.7500005000000001
 30
0.0
 40
0.1285
  0
CIRCLE
  5
73
100
AcDbEntity
100
AcDbCircle
  8
0
 62
256
370
-1
  6
CONTINUOUS
 10
0.7481615000000001
 20
0.7500005000000001
 30
0.0
 40
0.1285
  0
ARC
  5
74
100
AcDbEntity
  8
0
 62
256
370
-1
  6
CONTINUOUS
100
AcDbCircle
 10
1.3428974999999994
 20
3.0000005000000005
 30
0.0
 40
0.03
100
AcDbArc
 50
179.9999919999999918
 51
359.9923529999999801
  0
LINE
  5
75
100
AcDbEntity
100
AcDbLine
  8
0
 62
256
370
-1
  6
CONTINUOUS
 10
1.3128975000000001
 20
3.0000005000000005
 30
0.0
 11
1.2481624999999994
 21
3.0000005000000005
 31
0.0
  0
LINE
  5
76
100
AcDbEntity
100
AcDbLine
  8
0
 62
256
370
-1
  6
CONTINUOUS
 10
1.2481624999999994
 20
3.0000005000000005
 30
0.0
 11
1.1221435
 21
2.9955995
 31
0.0
  0
ARC
  5
77
100
AcDbEntity
  8
0
 62
256
370
-1
  6
CONTINUOUS
100
AcDbCircle
 10
1.0921624999999988
 20
2.9945535000000003
 30
0.0
 40
0.03
100
AcDbArc
 50
182.0047849999999983
 51
1.9971449999999999
  0
LINE
  5
78
100
AcDbEntity
100
AcDbLine
  8
0
 62
256
370
-1
  6
CONTINUOUS
 10
1.0621805000000002
 20
2.9935045000000002
 30
0.0
 11
0.9679985000000002
 21
2.9902155000000006
 31
0.0
  0
ARC
  5
79
100
AcDbEntity
  8
0
 62
256
370
-1
  6
CONTINUOUS
100
AcDbCircle
 10
0.9701624999999989
 20
2.9282535000000003
 30
0.0
 40
0.062
100
AcDbArc
 50
91.999920000000003
 51
180.0
  0
LINE
  5
7A
100
AcDbEntity
100
AcDbLine
  8
0
 62
256
370
-1
  6
CONTINUOUS
 10
0.9081624999999995
 20
2.9282535000000003
 30
0.0
 11
0.9081624999999995
 21
2.8922325000000004
 31
0.0
  0
ARC
  5
7B
100
AcDbEntity
  8
0
 62
256
370
-1
  6
CONTINUOUS
100
AcDbCircle
 10
0.9701624999999989
 20
2.8922325000000004
 30
0.0
 40
0.062
100
AcDbArc
 50
180.0
 51
271.9995779999999854
  0
LINE
  5
7C
100
AcDbEntity
100
AcDbLine
  8
0
 62
256
370
-1
  6
CONTINUOUS
 10
0.9723255000000002
 20
2.8302705000000001
 30
0.0
 11
1.1169405000000001
 21
2.8353195000000007
 31
0.0
  0
ARC
  5
7D
100
AcDbEntity
  8
0
 62
256
370
-1
  6
CONTINUOUS
100
AcDbCircle
 10
1.1181625000000004
 20
2.8003404999999999
 30
0.0
 40
0.035
100
AcDbArc
 50
360.0
 51
91.9995779999999996
  0
LINE
  5
7E
100
AcDbEntity
100
AcDbLine
  8
0
 62
256
370
-1
  6
CONTINUOUS
 10
1.1531624999999988
 20
2.8003404999999999
 30
0.0
 11
1.1531624999999988
 21
2.7826345000000003
 31
0.0
  0
ARC
  5
7F
100
AcDbEntity
  8
0
 62
256
370
-1
  6
CONTINUOUS
100
AcDbCircle
 10
1.1181625000000004
 20
2.7826345000000003
 30
0.0
 40
0.035
100
AcDbArc
 50
315.00014299999998
 51
360.0
  0
LINE
  5
80
100
AcDbEntity
100
AcDbLine
  8
0
 62
256
370
-1
  6
CONTINUOUS
 10
1.1429104999999993
 20
2.7578855000000004
 30
0.0
 11
0.9552964999999993
 21
2.5702705000000003
 31
0.0
  0
ARC
  5
81
100
AcDbEntity
  8
0
 62
256
370
-1
  6
CONTINUOUS
100
AcDbCircle
 10
0.8230674999999987
 20
2.7024995000000001
 30
0.0
 40
0.187
100
AcDbArc
 50
270.0
 51
315.00014299999998
  0
LINE
  5
82
100
AcDbEntity
100
AcDbLine
  8
0
 62
256
370
-1
  6
CONTINUOUS
 10
0.8230674999999987
 20
2.5154995000000007
 30
0.0
 11
0.6732575000000001
 21
2.5154995000000007
 31
0.0
  0
ARC
  5
83
100
AcDbEntity
  8
0
 62
256
370
-1
  6
CONTINUOUS
100
AcDbCircle
 10
0.6732575000000001
 20
2.7024995000000001
 30
0.0
 40
0.187
100
AcDbArc
 50
225.0000100000000032
 51
270.0
  0
LINE
  5
84
100
AcDbEntity
100
AcDbLine
  8
0
 62
256
370
-1
  6
CONTINUOUS
 10
0.5410284999999995
 20
2.5702705000000003
 30
0.0
 11
0.3534124999999992
 21
2.7578855000000004
 31
0.0
  0
ARC
  5
85
100
AcDbEntity
  8
0
 62
256
370
-1
  6
CONTINUOUS
100
AcDbCircle
 10
0.3781614999999992
 20
2.7826345000000003
 30
0.0
 40
0.035
100
AcDbArc
 50
180.0
 51
225.0000100000000032
  0
LINE
  5
86
100
AcDbEntity
100
AcDbLine
  8
0
 62
256
370
-1
  6
CONTINUOUS
 10
0.343161499999999
 20
2.7826345000000003
 30
0.0
 11
0.343161499999999
 21
2.8013895
 31
0.0
  0
ARC
  5
87
100
AcDbEntity
  8
0
 62
256
370
-1
  6
CONTINUOUS
100
AcDbCircle
 10
0.3781614999999992
 20
2.8013895
 30
0.0
 40
0.035
100
AcDbArc
 50
88.0001469999999983
 51
180.0
  0
LINE
  5
88
100
AcDbEntity
100
AcDbLine
  8
0
 62
256
370
-1
  6
CONTINUOUS
 10
0.3793825000000002
 20
2.8363675000000006
 30
0.0
 11
0.5239984999999994
 21
2.8313185000000001
 31
0.0
  0
ARC
  5
89
100
AcDbEntity
  8
0
 62
256
370
-1
  6
CONTINUOUS
100
AcDbCircle
 10
0.5261624999999999
 20
2.8932805000000004
 30
0.0
 40
0.062
100
AcDbArc
 50
268.0001470000000268
 51
360.0
  0
LINE
  5
8A
100
AcDbEntity
100
AcDbLine
  8
0
 62
256
370
-1
  6
CONTINUOUS
 10
0.5881624999999993
 20
2.8932805000000004
 30
0.0
 11
0.5881624999999993
 21
2.9293005000000001
 31
0.0
  0
ARC
  5
8B
100
AcDbEntity
  8
0
 62
256
370
-1
  6
CONTINUOUS
100
AcDbCircle
 10
0.5261624999999999
 20
2.9293005000000001
 30
0.0
 40
0.062
100
AcDbArc
 50
0.0
 51
87.9993580000000009
  0
LINE
  5
8C
100
AcDbEntity
100
AcDbLine
  8
0
 62
256
370
-1
  6
CONTINUOUS
 10
0.5283265000000004
 20
2.9912635000000005
 30
0.0
 11
0.4341434999999993
 21
2.9945535000000003
 31
0.0
  0
ARC
  5
8D
100
AcDbEntity
  8
0
 62
256
370
-1
  6
CONTINUOUS
100
AcDbCircle
 10
0.4041625
 20
2.9956025000000004
 30
0.0
 40
0.03
100
AcDbArc
 50
178.0037759999999878
 51
357.9961359999999786
  0
LINE
  5
8E
100
AcDbEntity
100
AcDbLine
  8
0
 62
256
370
-1
  6
CONTINUOUS
 10
0.3741804999999996
 20
2.9966474999999999
 30
0.0
 11
0.2481624999999994
 21
3.0017205000000002
 31
0.0
  0
LINE
  5
8F
100
AcDbEntity
100
AcDbLine
  8
0
 62
256
370
-1
  6
CONTINUOUS
 10
0.2481624999999994
 20
3.0017205000000002
 30
0.0
 11
0.1841624999999993
 21
3.0017205000000002
 31
0.0
  0
ARC
  5
90
100
AcDbEntity
  8
0
 62
256
370
-1
  6
CONTINUOUS
100
AcDbCircle
 10
0.1541625
 20
3.0017225000000005
 30
0.0
 40
0.03
100
AcDbArc
 50
180.0038199999999904
 51
359.9961799999999812
  0
LINE
  5
91
100
AcDbEntity
100
AcDbLine
  8
0
 62
256
370
-1
  6
CONTINUOUS
 10
0.1241624999999988
 20
3.0017205000000002
 30
0.0
 11
-0.1293705000000003
 21
3.0018945000000006
 31
0.0
  0
ARC
  5
92
100
AcDbEntity
  8
0
 62
256
370
-1
  6
CONTINUOUS
100
AcDbCircle
 10
-0.1593704999999996
 20
3.0018945000000006
 30
0.0
 40
0.03
100
AcDbArc
 50
180.0076400000000092
 51
0.0
  0
LINE
  5
93
100
AcDbEntity
100
AcDbLine
  8
0
 62
256
370
-1
  6
CONTINUOUS
 10
-0.1893705000000008
 20
3.0018905
 30
0.0
 11
-0.2533705000000008
 21
3.0018945000000006
 31
0.0
  0
LINE
  5
94
100
AcDbEntity
100
AcDbLine
  8
0
 62
256
370
-1
  6
CONTINUOUS
 10
-0.2533705000000008
 20
3.0018945000000006
 30
0.0
 11
-0.3793895000000003
 21
2.9974945000000002
 31
0.0
  0
ARC
  5
95
100
AcDbEntity
  8
0
 62
256
370
-1
  6
CONTINUOUS
100
AcDbCircle
 10
-0.4093704999999996
 20
2.9964495000000007
 30
0.0
 40
0.03
100
AcDbArc
 50
182.0038299999999936
 51
1.996191
  0
LINE
  5
96
100
AcDbEntity
100
AcDbLine
  8
0
 62
256
370
-1
  6
CONTINUOUS
 10
-0.4393525
 20
2.9954005000000006
 30
0.0
 11
-0.5335355000000011
 21
2.9921104999999999
 31
0.0
  0
ARC
  5
97
100
AcDbEntity
  8
0
 62
256
370
-1
  6
CONTINUOUS
100
AcDbCircle
 10
-0.5313704999999995
 20
2.9301475000000003
 30
0.0
 40
0.062
100
AcDbArc
 50
92.0006419999999991
 51
180.0
  0
LINE
  5
98
100
AcDbEntity
100
AcDbLine
  8
0
 62
256
370
-1
  6
CONTINUOUS
 10
-0.5933705000000007
 20
2.9301475000000003
 30
0.0
 11
-0.5933705000000007
 21
2.8941275000000006
 31
0.0
  0
ARC
  5
99
100
AcDbEntity
  8
0
 62
256
370
-1
  6
CONTINUOUS
100
AcDbCircle
 10
-0.5313704999999995
 20
2.8941275000000006
 30
0.0
 40
0.062
100
AcDbArc
 50
180.0
 51
271.9999730000000113
  0
LINE
  5
9A
100
AcDbEntity
100
AcDbLine
  8
0
 62
256
370
-1
  6
CONTINUOUS
 10
-0.5292075000000001
 20
2.8321655000000003
 30
0.0
 11
-0.3845915000000009
 21
2.8372155000000001
 31
0.0
  0
ARC
  5
9B
100
AcDbEntity
  8
0
 62
256
370
-1
  6
CONTINUOUS
100
AcDbCircle
 10
-0.3833695000000006
 20
2.8022365000000002
 30
0.0
 40
0.035
100
AcDbArc
 50
0.0
 51
91.9999729999999971
  0
LINE
  5
9C
100
AcDbEntity
100
AcDbLine
  8
0
 62
256
370
-1
  6
CONTINUOUS
 10
-0.3483695000000004
 20
2.8022365000000002
 30
0.0
 11
-0.3483695000000004
 21
2.7834815000000006
 31
0.0
  0
ARC
  5
9D
100
AcDbEntity
  8
0
 62
256
370
-1
  6
CONTINUOUS
100
AcDbCircle
 10
-0.3833695000000006
 20
2.7834815000000006
 30
0.0
 40
0.035
100
AcDbArc
 50
315.0
 51
360.0
  0
LINE
  5
9E
100
AcDbEntity
100
AcDbLine
  8
0
 62
256
370
-1
  6
CONTINUOUS
 10
-0.3586214999999999
 20
2.7587324999999998
 30
0.0
 11
-0.5462365000000009
 21
2.5711175000000006
 31
0.0
  0
ARC
  5
9F
100
AcDbEntity
  8
0
 62
256
370
-1
  6
CONTINUOUS
100
AcDbCircle
 10
-0.6784654999999997
 20
2.7033465000000003
 30
0.0
 40
0.187
100
AcDbArc
 50
270.0
 51
315.0
  0
LINE
  5
A0
100
AcDbEntity
100
AcDbLine
  8
0
 62
256
370
-1
  6
CONTINUOUS
 10
-0.6784654999999997
 20
2.5163465
 30
0.0
 11
-0.8281165000000001
 21
2.5163465
 31
0.0
  0
ARC
  5
A1
100
AcDbEntity
  8
0
 62
256
370
-1
  6
CONTINUOUS
100
AcDbCircle
 10
-0.8281165000000001
 20
2.7033465000000003
 30
0.0
 40
0.187
100
AcDbArc
 50
222.9759620000000098
 51
270.0
  0
LINE
  5
A2
100
AcDbEntity
100
AcDbLine
  8
0
 62
256
370
-1
  6
CONTINUOUS
 10
-0.9649335000000008
 20
2.5758695000000005
 30
0.0
 11
-1.1480985000000006
 21
2.7587105000000003
 31
0.0
  0
ARC
  5
A3
100
AcDbEntity
  8
0
 62
256
370
-1
  6
CONTINUOUS
100
AcDbCircle
 10
-1.1253025000000001
 20
2.7826675000000005
 30
0.0
 40
0.033069
100
AcDbArc
 50
180.0569570000000112
 51
226.4219919999999888
  0
LINE
  5
A4
100
AcDbEntity
100
AcDbLine
  8
0
 62
256
370
-1
  6
CONTINUOUS
 10
-1.1583715000000003
 20
2.7826345000000003
 30
0.0
 11
-1.1583715000000003
 21
2.8003404999999999
 31
0.0
  0
ARC
  5
A5
100
AcDbEntity
  8
0
 62
256
370
-1
  6
CONTINUOUS
100
AcDbCircle
 10
-1.1233715000000002
 20
2.8003404999999999
 30
0.0
 40
0.035
100
AcDbArc
 50
88.0003949999999975
 51
180.0
  0
LINE
  5
A6
100
AcDbEntity
100
AcDbLine
  8
0
 62
256
370
-1
  6
CONTINUOUS
 10
-1.1221505000000001
 20
2.8353195000000007
 30
0.0
 11
-0.9775345
 21
2.8302705000000001
 31
0.0
  0
ARC
  5
A7
100
AcDbEntity
  8
0
 62
256
370
-1
  6
CONTINUOUS
100
AcDbCircle
 10
-0.9753705000000004
 20
2.8922325000000004
 30
0.0
 40
0.062
100
AcDbArc
 50
268.0003950000000259
 51
360.0
  0
LINE
  5
A8
100
AcDbEntity
100
AcDbLine
  8
0
 62
256
370
-1
  6
CONTINUOUS
 10
-0.9133705000000001
 20
2.8922325000000004
 30
0.0
 11
-0.9133705000000001
 21
2.9282545000000004
 31
0.0
  0
ARC
  5
A9
100
AcDbEntity
  8
0
 62
256
370
-1
  6
CONTINUOUS
100
AcDbCircle
 10
-0.9753705000000004
 20
2.9282545000000004
 30
0.0
 40
0.062
100
AcDbArc
 50
0.0
 51
88.0011800000000051
  0
LINE
  5
AA
100
AcDbEntity
100
AcDbLine
  8
0
 62
256
370
-1
  6
CONTINUOUS
 10
-0.9732085000000001
 20
2.9902175
 30
0.0
 11
-1.0673895
 21
2.9935045000000002
 31
0.0
  0
ARC
  5
AB
100
AcDbEntity
  8
0
 62
256
370
-1
  6
CONTINUOUS
100
AcDbCircle
 10
-1.0973705000000002
 20
2.9945535000000003
 30
0.0
 40
0.03
100
AcDbArc
 50
178.002822000000009
 51
357.9951819999999998
  0
LINE
  5
AC
100
AcDbEntity
100
AcDbLine
  8
0
 62
256
370
-1
  6
CONTINUOUS
 10
-1.1273525000000006
 20
2.9955995
 30
0.0
 11
-1.2525735000000005
 21
3.0000005000000005
 31
0.0
  0
LINE
  5
AD
100
AcDbEntity
100
AcDbLine
  8
0
 62
256
370
-1
  6
CONTINUOUS
 10
-1.2525735000000005
 20
3.0000005000000005
 30
0.0
 11
-1.3165735000000005
 21
3.0000005000000005
 31
0.0
  0
ARC
  5
AE
100
AcDbEntity
  8
0
 62
256
370
-1
  6
CONTINUOUS
100
AcDbCircle
 10
-1.3465735000000008
 20
3.0000005000000005
 30
0.0
 40
0.03
100
AcDbArc
 50
180.0076400000000092
 51
360.0
  0
ARC
  5
AF
100
AcDbEntity
  8
0
 62
256
370
-1
  6
CONTINUOUS
100
AcDbCircle
 10
-1.3771645000000001
 20
2.8755095000000006
 30
0.0
 40
0.124487
100
AcDbArc
 50
89.7282199999999932
 51
180.1879629999999963
  0
ARC
  5
B0
100
AcDbEntity
  8
0
 62
256
370
-1
  6
CONTINUOUS
100
AcDbCircle
 10
-1.5016995
 20
2.8451015000000002
 30
0.0
 40
0.03
100
AcDbArc
 50
269.9157129999999825
 51
89.9080739999999992
  0
LINE
  5
B1
100
AcDbEntity
100
AcDbLine
  8
0
 62
256
370
-1
  6
CONTINUOUS
 10
-1.5017435000000008
 20
2.8151014999999999
 30
0.0
 11
-1.5018375000000006
 21
2.7519495000000003
 31
0.0
  0
LINE
  5
B2
100
AcDbEntity
100
AcDbLine
  8
0
 62
256
370
-1
  6
CONTINUOUS
 10
-1.5018375000000006
 20
2.7519495000000003
 30
0.0
 11
-1.4976215000000002
 21
2.6259255000000001
 31
0.0
  0
ARC
  5
B3
100
AcDbEntity
  8
0
 62
256
370
-1
  6
CONTINUOUS
100
AcDbCircle
 10
-1.4966205000000006
 20
2.5959415000000003
 30
0.0
 40
0.03
100
AcDbArc
 50
271.9205049999999915
 51
91.912865999999994
  0
LINE
  5
B4
100
AcDbEntity
100
AcDbLine
  8
0
 62
256
370
-1
  6
CONTINUOUS
 10
-1.4956155000000004
 20
2.5659584999999998
 30
0.0
 11
-1.4924645000000005
 21
2.4717715
 31
0.0
  0
ARC
  5
B5
100
AcDbEntity
  8
0
 62
256
370
-1
  6
CONTINUOUS
100
AcDbCircle
 10
-1.4304995000000007
 20
2.4738445000000002
 30
0.0
 40
0.062
100
AcDbArc
 50
181.9156409999999937
 51
269.9157210000000191
  0
LINE
  5
B6
100
AcDbEntity
100
AcDbLine
  8
0
 62
256
370
-1
  6
CONTINUOUS
 10
-1.4305905000000001
 20
2.4118444999999999
 30
0.0
 11
-1.3945705000000004
 21
2.4117915000000005
 31
0.0
  0
ARC
  5
B7
100
AcDbEntity
  8
0
 62
256
370
-1
  6
CONTINUOUS
100
AcDbCircle
 10
-1.3944785
 20
2.4737914999999999
 30
0.0
 40
0.062
100
AcDbArc
 50
269.9157210000000191
 51
1.9152990000000001
  0
LINE
  5
B8
100
AcDbEntity
100
AcDbLine
  8
0
 62
256
370
-1
  6
CONTINUOUS
 10
-1.3325135000000001
 20
2.4758635
 30
0.0
 11
-1.3373495000000002
 21
2.6204865000000002
 31
0.0
  0
ARC
  5
B9
100
AcDbEntity
  8
0
 62
256
370
-1
  6
CONTINUOUS
100
AcDbCircle
 10
-1.3023695000000002
 20
2.6216565000000003
 30
0.0
 40
0.035
100
AcDbArc
 50
89.9157210000000049
 51
181.9152990000000045
  0
LINE
  5
BA
100
AcDbEntity
100
AcDbLine
  8
0
 62
256
370
-1
  6
CONTINUOUS
 10
-1.3023175
 20
2.6566565000000004
 30
0.0
 11
-1.2846125000000006
 21
2.6566305000000003
 31
0.0
  0
ARC
  5
BB
100
AcDbEntity
  8
0
 62
256
370
-1
  6
CONTINUOUS
100
AcDbCircle
 10
-1.2846635000000006
 20
2.6216305000000002
 30
0.0
 40
0.035
100
AcDbArc
 50
44.9158639999999991
 51
89.9157210000000049
  0
LINE
  5
BC
100
AcDbEntity
100
AcDbLine
  8
0
 62
256
370
-1
  6
CONTINUOUS
 10
-1.2598785000000001
 20
2.6463425000000003
 30
0.0
 11
-1.0733365000000008
 21
2.4584524999999999
 31
0.0
  0
ARC
  5
BD
100
AcDbEntity
  8
0
 62
256
370
-1
  6
CONTINUOUS
100
AcDbCircle
 10
-1.2057595000000001
 20
2.3264174999999998
 30
0.0
 40
0.187
100
AcDbArc
 50
359.9157210000000191
 51
44.9158639999999991
  0
LINE
  5
BE
100
AcDbEntity
100
AcDbLine
  8
0
 62
256
370
-1
  6
CONTINUOUS
 10
-1.0187595000000007
 20
2.3261425000000004
 30
0.0
 11
-1.0189795000000004
 21
2.1763325
 31
0.0
  0
ARC
  5
BF
100
AcDbEntity
  8
0
 62
256
370
-1
  6
CONTINUOUS
100
AcDbCircle
 10
-1.2059795000000006
 20
2.1766075000000003
 30
0.0
 40
0.187
100
AcDbArc
 50
314.9157309999999939
 51
359.9157210000000191
  0
LINE
  5
C0
100
AcDbEntity
100
AcDbLine
  8
0
 62
256
370
-1
  6
CONTINUOUS
 10
-1.0739455000000007
 20
2.0441845000000001
 30
0.0
 11
-1.2618365000000002
 21
1.8568445000000002
 31
0.0
  0
ARC
  5
C1
100
AcDbEntity
  8
0
 62
256
370
-1
  6
CONTINUOUS
100
AcDbCircle
 10
-1.2865495000000005
 20
1.8816295000000003
 30
0.0
 40
0.035
100
AcDbArc
 50
269.9157210000000191
 51
314.9157309999999939
  0
LINE
  5
C2
100
AcDbEntity
100
AcDbLine
  8
0
 62
256
370
-1
  6
CONTINUOUS
 10
-1.2866005000000005
 20
1.8466295000000001
 30
0.0
 11
-1.3053555000000001
 21
1.8466575000000001
 31
0.0
  0
ARC
  5
C3
100
AcDbEntity
  8
0
 62
256
370
-1
  6
CONTINUOUS
100
AcDbCircle
 10
-1.3053034999999999
 20
1.8816575000000002
 30
0.0
 40
0.035
100
AcDbArc
 50
177.915867999999989
 51
269.9157210000000191
  0
LINE
  5
C4
100
AcDbEntity
100
AcDbLine
  8
0
 62
256
370
-1
  6
CONTINUOUS
 10
-1.3402805000000004
 20
1.8829305000000001
 30
0.0
 11
-1.3350175000000002
 21
2.0275385000000004
 31
0.0
  0
ARC
  5
C5
100
AcDbEntity
  8
0
 62
256
370
-1
  6
CONTINUOUS
100
AcDbCircle
 10
-1.3969765000000001
 20
2.0297935000000003
 30
0.0
 40
0.062
100
AcDbArc
 50
357.915867999999989
 51
89.9157210000000049
  0
LINE
  5
C6
100
AcDbEntity
100
AcDbLine
  8
0
 62
256
370
-1
  6
CONTINUOUS
 10
-1.3968855000000007
 20
2.0917935000000005
 30
0.0
 11
-1.4329065000000005
 21
2.0918464999999999
 31
0.0
  0
ARC
  5
C7
100
AcDbEntity
  8
0
 62
256
370
-1
  6
CONTINUOUS
100
AcDbCircle
 10
-1.4329975000000008
 20
2.0298465000000006
 30
0.0
 40
0.062
100
AcDbArc
 50
89.9157210000000049
 51
177.9150789999999915
  0
LINE
  5
C8
100
AcDbEntity
100
AcDbLine
  8
0
 62
256
370
-1
  6
CONTINUOUS
 10
-1.4949565000000007
 20
2.0321025000000006
 30
0.0
 11
-1.4983855000000004
 21
1.9379245000000003
 31
0.0
  0
ARC
  5
C9
100
AcDbEntity
  8
0
 62
256
370
-1
  6
CONTINUOUS
100
AcDbCircle
 10
-1.4994785000000004
 20
1.9079445000000002
 30
0.0
 40
0.03
100
AcDbArc
 50
267.9194969999999785
 51
87.9118569999999977
  0
LINE
  5
CA
100
AcDbEntity
100
AcDbLine
  8
0
 62
256
370
-1
  6
CONTINUOUS
 10
-1.5005675000000007
 20
1.8779645
 30
0.0
 11
-1.5051525000000003
 21
1.7519525000000002
 31
0.0
  0
LINE
  5
CB
100
AcDbEntity
100
AcDbLine
  8
0
 62
256
370
-1
  6
CONTINUOUS
 10
-1.5051525000000003
 20
1.7519525000000002
 30
0.0
 11
-1.5052465000000002
 21
1.6879525000000002
 31
0.0
  0
ARC
  5
CC
100
AcDbEntity
  8
0
 62
256
370
-1
  6
CONTINUOUS
100
AcDbCircle
 10
-1.5052925000000004
 20
1.6579525000000004
 30
0.0
 40
0.03
100
AcDbArc
 50
269.9195409999999811
 51
89.9119010000000003
  0
LINE
  5
CD
100
AcDbEntity
100
AcDbLine
  8
0
 62
256
370
-1
  6
CONTINUOUS
 10
-1.5053345
 20
1.6279525000000001
 30
0.0
 11
-1.5057055000000004
 21
1.3757785
 31
0.0
  0
ARC
  5
CE
100
AcDbEntity
  8
0
 62
256
370
-1
  6
CONTINUOUS
100
AcDbCircle
 10
-1.5057495000000003
 20
1.3457785000000002
 30
0.0
 40
0.03
100
AcDbArc
 50
269.9233600000000024
 51
89.9157210000000049
  0
LINE
  5
CF
100
AcDbEntity
100
AcDbLine
  8
0
 62
256
370
-1
  6
CONTINUOUS
 10
-1.5057895000000006
 20
1.3157785000000004
 30
0.0
 11
-1.5058885000000002
 21
1.2517785000000003
 31
0.0
  0
LINE
  5
D0
100
AcDbEntity
100
AcDbLine
  8
0
 62
256
370
-1
  6
CONTINUOUS
 10
-1.5058885000000002
 20
1.2517785000000003
 30
0.0
 11
-1.5016735000000008
 21
1.1257545000000002
 31
0.0
  0
ARC
  5
D1
100
AcDbEntity
  8
0
 62
256
370
-1
  6
CONTINUOUS
100
AcDbCircle
 10
-1.5006725000000003
 20
1.0957705000000004
 30
0.0
 40
0.03
100
AcDbArc
 50
271.9195510000000127
 51
91.9119120000000009
  0
LINE
  5
D2
100
AcDbEntity
100
AcDbLine
  8
0
 62
256
370
-1
  6
CONTINUOUS
 10
-1.4996675000000002
 20
1.0657875000000003
 30
0.0
 11
-1.4965165000000002
 21
0.9716005000000001
 31
0.0
  0
ARC
  5
D3
100
AcDbEntity
  8
0
 62
256
370
-1
  6
CONTINUOUS
100
AcDbCircle
 10
-1.4345505000000003
 20
0.9736735000000003
 30
0.0
 40
0.062
100
AcDbArc
 50
181.9163629999999898
 51
269.9157210000000191
  0
LINE
  5
D4
100
AcDbEntity
100
AcDbLine
  8
0
 62
256
370
-1
  6
CONTINUOUS
 10
-1.4346425000000007
 20
0.9116735
 30
0.0
 11
-1.3986215
 21
0.9116205000000002
 31
0.0
  0
ARC
  5
D5
100
AcDbEntity
  8
0
 62
256
370
-1
  6
CONTINUOUS
100
AcDbCircle
 10
-1.3985305000000006
 20
0.9736205000000004
 30
0.0
 40
0.062
100
AcDbArc
 50
269.9157210000000191
 51
1.9156939999999998
  0
LINE
  5
D6
100
AcDbEntity
100
AcDbLine
  8
0
 62
256
370
-1
  6
CONTINUOUS
 10
-1.3365645000000006
 20
0.9756935000000002
 30
0.0
 11
-1.3414025000000001
 21
1.1203165000000004
 31
0.0
  0
ARC
  5
D7
100
AcDbEntity
  8
0
 62
256
370
-1
  6
CONTINUOUS
100
AcDbCircle
 10
-1.3064215000000008
 20
1.1214865000000001
 30
0.0
 40
0.035
100
AcDbArc
 50
89.9157210000000049
 51
181.915694000000002
  0
LINE
  5
D8
100
AcDbEntity
100
AcDbLine
  8
0
 62
256
370
-1
  6
CONTINUOUS
 10
-1.3063705000000008
 20
1.1564865000000002
 30
0.0
 11
-1.2876155000000002
 21
1.1564585000000003
 31
0.0
  0
ARC
  5
D9
100
AcDbEntity
  8
0
 62
256
370
-1
  6
CONTINUOUS
100
AcDbCircle
 10
-1.2876665000000003
 20
1.1214585000000001
 30
0.0
 40
0.035
100
AcDbArc
 50
44.9157209999999978
 51
89.9157210000000049
  0
LINE
  5
DA
100
AcDbEntity
100
AcDbLine
  8
0
 62
256
370
-1
  6
CONTINUOUS
 10
-1.2628815000000007
 20
1.1461715000000003
 30
0.0
 11
-1.0755425000000001
 21
0.9582795000000002
 31
0.0
  0
ARC
  5
DB
100
AcDbEntity
  8
0
 62
256
370
-1
  6
CONTINUOUS
100
AcDbCircle
 10
-1.2079655000000002
 20
0.8262455000000002
 30
0.0
 40
0.187
100
AcDbArc
 50
359.9157210000000191
 51
44.9157209999999978
  0
LINE
  5
DC
100
AcDbEntity
100
AcDbLine
  8
0
 62
256
370
-1
  6
CONTINUOUS
 10
-1.0209655
 20
0.8259705000000004
 30
0.0
 11
-1.0211855000000005
 21
0.6763195000000004
 31
0.0
  0
ARC
  5
DD
100
AcDbEntity
  8
0
 62
256
370
-1
  6
CONTINUOUS
100
AcDbCircle
 10
-1.2081855000000008
 20
0.6765945000000002
 30
0.0
 40
0.187
100
AcDbArc
 50
312.8916830000000004
 51
359.9157210000000191
  0
LINE
  5
DE
100
AcDbEntity
100
AcDbLine
  8
0
 62
256
370
-1
  6
CONTINUOUS
 10
-1.0809105000000008
 20
0.5395905000000001
 30
0.0
 11
-1.2595475
 21
0.3566945000000001
 31
0.0
  0
ARC
  5
DF
100
AcDbEntity
  8
0
 62
256
370
-1
  6
CONTINUOUS
100
AcDbCircle
 10
-1.2842815000000005
 20
0.3814575000000002
 30
0.0
 40
0.035
100
AcDbArc
 50
269.9157210000000191
 51
314.9665170000000103
  0
LINE
  5
E0
100
AcDbEntity
100
AcDbLine
  8
0
 62
256
370
-1
  6
CONTINUOUS
 10
-1.2843325000000005
 20
0.3464575000000001
 30
0.0
 11
-1.3020385000000001
 21
0.3464835000000002
 31
0.0
  0
ARC
  5
E1
100
AcDbEntity
  8
0
 62
256
370
-1
  6
CONTINUOUS
100
AcDbCircle
 10
-1.3019875000000001
 20
0.3814835000000003
 30
0.0
 40
0.035
100
AcDbArc
 50
177.9161159999999882
 51
269.9157210000000191
  0
LINE
  5
E2
100
AcDbEntity
100
AcDbLine
  8
0
 62
256
370
-1
  6
CONTINUOUS
 10
-1.3369645000000006
 20
0.3827565000000002
 30
0.0
 11
-1.3317025000000005
 21
0.5273655000000002
 31
0.0
  0
ARC
  5
E3
100
AcDbEntity
  8
0
 62
256
370
-1
  6
CONTINUOUS
100
AcDbCircle
 10
-1.3936615000000003
 20
0.5296195000000004
 30
0.0
 40
0.062
100
AcDbArc
 50
357.9161159999999882
 51
89.9157210000000049
  0
LINE
  5
E4
100
AcDbEntity
100
AcDbLine
  8
0
 62
256
370
-1
  6
CONTINUOUS
 10
-1.3935705
 20
0.5916195000000002
 30
0.0
 11
-1.4295925
 21
0.5916725
 31
0.0
  0
ARC
  5
E5
100
AcDbEntity
  8
0
 62
256
370
-1
  6
CONTINUOUS
100
AcDbCircle
 10
-1.4296835000000003
 20
0.5296725000000002
 30
0.0
 40
0.062
100
AcDbArc
 50
89.9157210000000049
 51
177.9169009999999957
  0
LINE
  5
E6
100
AcDbEntity
100
AcDbLine
  8
0
 62
256
370
-1
  6
CONTINUOUS
 10
-1.4916425000000002
 20
0.5319265000000004
 30
0.0
 11
-1.4950685000000004
 21
0.4377505000000004
 31
0.0
  0
ARC
  5
E7
100
AcDbEntity
  8
0
 62
256
370
-1
  6
CONTINUOUS
100
AcDbCircle
 10
-1.4961625000000005
 20
0.4077705000000003
 30
0.0
 40
0.03
100
AcDbArc
 50
267.9185420000000022
 51
87.9109030000000047
  0
LINE
  5
E8
100
AcDbEntity
100
AcDbLine
  8
0
 62
256
370
-1
  6
CONTINUOUS
 10
-1.4972515
 20
0.3777905000000001
 30
0.0
 11
-1.5018375000000006
 21
0.2511055000000004
 31
0.0
  0
LINE
  5
E9
100
AcDbEntity
100
AcDbLine
  8
0
 62
256
370
-1
  6
CONTINUOUS
 10
-1.5018375000000006
 20
0.2511055000000004
 30
0.0
 11
-1.5019325000000006
 21
0.1871055000000004
 31
0.0
  0
ARC
  5
EA
100
AcDbEntity
  8
0
 62
256
370
-1
  6
CONTINUOUS
100
AcDbCircle
 10
-1.5019765000000005
 20
0.1571055000000001
 30
0.0
 40
0.03
100
AcDbArc
 50
269.9233600000000024
 51
89.9157210000000049
  0
ARC
  5
EB
100
AcDbEntity
  8
0
 62
256
370
-1
  6
CONTINUOUS
100
AcDbCircle
 10
0.6714754999999997
 20
0.2981745
 30
0.0
 40
0.187
100
AcDbArc
 50
90.0
 51
118.4233359999999919
  0
LINE
  5
EC
100
AcDbEntity
100
AcDbLine
  8
0
 62
256
370
-1
  6
CONTINUOUS
 10
0.6714754999999997
 20
0.4851745000000003
 30
0.0
 11
0.8212855000000001
 21
0.4851745000000003
 31
0.0
  0
ARC
  5
ED
100
AcDbEntity
  8
0
 62
256
370
-1
  6
CONTINUOUS
100
AcDbCircle
 10
1.4983004999999991
 20
0.1571055000000001
 30
0.0
 40
0.03
100
AcDbArc
 50
90.0842789999999951
 51
270.0766399999999976
  0
LINE
  5
EE
100
AcDbEntity
100
AcDbLine
  8
0
 62
256
370
-1
  6
CONTINUOUS
 10
1.4982565000000001
 20
0.1871055000000004
 30
0.0
 11
1.4981624999999994
 21
0.2517785000000003
 31
0.0
  0
LINE
  5
EF
100
AcDbEntity
100
AcDbLine
  8
0
 62
256
370
-1
  6
CONTINUOUS
 10
1.4981624999999994
 20
0.2517785000000003
 30
0.0
 11
1.4935755000000004
 21
0.3777905000000001
 31
0.0
  0
ARC
  5
F0
100
AcDbEntity
  8
0
 62
256
370
-1
  6
CONTINUOUS
100
AcDbCircle
 10
1.4924865
 20
0.4077705000000003
 30
0.0
 40
0.03
100
AcDbArc
 50
92.0890969999999953
 51
272.0814579999999978
  0
LINE
  5
F1
100
AcDbEntity
100
AcDbLine
  8
0
 62
256
370
-1
  6
CONTINUOUS
 10
1.4913924999999999
 20
0.4377505000000004
 30
0.0
 11
1.4879674999999999
 21
0.5319265000000004
 31
0.0
  0
ARC
  5
F2
100
AcDbEntity
  8
0
 62
256
370
-1
  6
CONTINUOUS
100
AcDbCircle
 10
1.4260085
 20
0.5296725000000002
 30
0.0
 40
0.062
100
AcDbArc
 50
2.0830989999999998
 51
90.0842789999999951
  0
LINE
  5
F3
100
AcDbEntity
100
AcDbLine
  8
0
 62
256
370
-1
  6
CONTINUOUS
 10
1.4259164999999996
 20
0.5916725
 30
0.0
 11
1.3898945000000005
 21
0.5916195000000002
 31
0.0
  0
ARC
  5
F4
100
AcDbEntity
  8
0
 62
256
370
-1
  6
CONTINUOUS
100
AcDbCircle
 10
1.3901634999999999
 20
0.5305585000000002
 30
0.0
 40
0.061062
100
AcDbArc
 50
90.2529789999999963
 51
182.9974890000000016
  0
LINE
  5
F5
100
AcDbEntity
100
AcDbLine
  8
0
 62
256
370
-1
  6
CONTINUOUS
 10
1.3291854999999995
 20
0.5273655000000002
 30
0.0
 11
1.3344474999999996
 21
0.3827565000000002
 31
0.0
  0
ARC
  5
F6
100
AcDbEntity
  8
0
 62
256
370
-1
  6
CONTINUOUS
100
AcDbCircle
 10
1.2994705
 20
0.3814835000000003
 30
0.0
 40
0.035
100
AcDbArc
 50
270.0842789999999809
 51
2.0838839999999998
  0
LINE
  5
F7
100
AcDbEntity
100
AcDbLine
  8
0
 62
256
370
-1
  6
CONTINUOUS
 10
1.2995225000000001
 20
0.3464835000000002
 30
0.0
 11
1.2818164999999997
 21
0.3464575000000001
 31
0.0
  0
ARC
  5
F8
100
AcDbEntity
  8
0
 62
256
370
-1
  6
CONTINUOUS
100
AcDbCircle
 10
1.2817644999999995
 20
0.3814575000000002
 30
0.0
 40
0.035
100
AcDbArc
 50
225.0334829999999897
 51
270.0842789999999809
  0
LINE
  5
F9
100
AcDbEntity
100
AcDbLine
  8
0
 62
256
370
-1
  6
CONTINUOUS
 10
1.2570304999999991
 20
0.3566945000000001
 30
0.0
 11
1.0739204999999998
 21
0.5395905000000001
 31
0.0
  0
ARC
  5
FA
100
AcDbEntity
  8
0
 62
256
370
-1
  6
CONTINUOUS
100
AcDbCircle
 10
1.2011944999999997
 20
0.6765945000000002
 30
0.0
 40
0.187
100
AcDbArc
 50
180.0842790000000093
 51
227.1083169999999996
  0
LINE
  5
FB
100
AcDbEntity
100
AcDbLine
  8
0
 62
256
370
-1
  6
CONTINUOUS
 10
1.0141954999999996
 20
0.6763195000000004
 30
0.0
 11
1.013975499999999
 21
0.8259705000000004
 31
0.0
  0
ARC
  5
FC
100
AcDbEntity
  8
0
 62
256
370
-1
  6
CONTINUOUS
100
AcDbCircle
 10
1.2009744999999992
 20
0.8262455000000002
 30
0.0
 40
0.187
100
AcDbArc
 50
135.0842790000000093
 51
180.0842790000000093
  0
LINE
  5
FD
100
AcDbEntity
100
AcDbLine
  8
0
 62
256
370
-1
  6
CONTINUOUS
 10
1.0685514999999999
 20
0.9582795000000002
 30
0.0
 11
1.2558914999999988
 21
1.1461715000000003
 31
0.0
  0
ARC
  5
FE
100
AcDbEntity
  8
0
 62
256
370
-1
  6
CONTINUOUS
100
AcDbCircle
 10
1.2806765000000002
 20
1.1214585000000001
 30
0.0
 40
0.035
100
AcDbArc
 50
90.0842789999999951
 51
135.0842790000000093
  0
LINE
  5
FF
100
AcDbEntity
100
AcDbLine
  8
0
 62
256
370
-1
  6
CONTINUOUS
 10
1.2806245000000001
 20
1.1564585000000003
 30
0.0
 11
1.2993794999999988
 21
1.1564865000000002
 31
0.0
  0
ARC
  5
100
100
AcDbEntity
  8
0
 62
256
370
-1
  6
CONTINUOUS
100
AcDbCircle
 10
1.299431499999999
 20
1.1214865000000001
 30
0.0
 40
0.035
100
AcDbArc
 50
358.0843060000000264
 51
90.0842789999999951
  0
LINE
  5
101
100
AcDbEntity
100
AcDbLine
  8
0
 62
256
370
-1
  6
CONTINUOUS
 10
1.3344114999999999
 20
1.1203165000000004
 30
0.0
 11
1.3295744999999997
 21
0.9756935000000002
 31
0.0
  0
ARC
  5
102
100
AcDbEntity
  8
0
 62
256
370
-1
  6
CONTINUOUS
100
AcDbCircle
 10
1.3915395000000004
 20
0.9736205000000004
 30
0.0
 40
0.062
100
AcDbArc
 50
178.084305999999998
 51
270.0842789999999809
  0
LINE
  5
103
100
AcDbEntity
100
AcDbLine
  8
0
 62
256
370
-1
  6
CONTINUOUS
 10
1.3916304999999998
 20
0.9116205000000002
 30
0.0
 11
1.4276514999999996
 21
0.9116735
 31
0.0
  0
ARC
  5
104
100
AcDbEntity
  8
0
 62
256
370
-1
  6
CONTINUOUS
100
AcDbCircle
 10
1.4275605000000002
 20
0.9736735000000003
 30
0.0
 40
0.062
100
AcDbArc
 50
270.0842789999999809
 51
358.0836370000000102
  0
LINE
  5
105
100
AcDbEntity
100
AcDbLine
  8
0
 62
256
370
-1
  6
CONTINUOUS
 10
1.4895254999999992
 20
0.9716005000000001
 30
0.0
 11
1.4926765
 21
1.0657875000000003
 31
0.0
  0
ARC
  5
106
100
AcDbEntity
  8
0
 62
256
370
-1
  6
CONTINUOUS
100
AcDbCircle
 10
1.4936814999999992
 20
1.0957705000000004
 30
0.0
 40
0.03
100
AcDbArc
 50
88.0880879999999991
 51
268.0804489999999873
  0
LINE
  5
107
100
AcDbEntity
100
AcDbLine
  8
0
 62
256
370
-1
  6
CONTINUOUS
 10
1.4946824999999997
 20
1.1257545000000002
 30
0.0
 11
1.4991465000000002
 21
1.2517785000000003
 31
0.0
  0
LINE
  5
108
100
AcDbEntity
100
AcDbLine
  8
0
 62
256
370
-1
  6
CONTINUOUS
 10
1.4991465000000002
 20
1.2517785000000003
 30
0.0
 11
1.4990484999999989
 21
1.3157785000000004
 31
0.0
  0
ARC
  5
109
100
AcDbEntity
  8
0
 62
256
370
-1
  6
CONTINUOUS
100
AcDbCircle
 10
1.4990074999999994
 20
1.3457785000000002
 30
0.0
 40
0.03
100
AcDbArc
 50
90.0842789999999951
 51
270.0766399999999976
  0
LINE
  5
10A
100
AcDbEntity
100
AcDbLine
  8
0
 62
256
370
-1
  6
CONTINUOUS
 10
1.4989635000000003
 20
1.3757785
 30
0.0
 11
1.5001265000000004
 21
1.6277785000000002
 31
0.0
  0
ARC
  5
10B
100
AcDbEntity
  8
0
 62
256
370
-1
  6
CONTINUOUS
100
AcDbCircle
 10
1.5000844999999998
 20
1.6577785
 30
0.0
 40
0.03
100
AcDbArc
 50
90.0880989999999997
 51
270.0804590000000189
  0
LINE
  5
10C
100
AcDbEntity
100
AcDbLine
  8
0
 62
256
370
-1
  6
CONTINUOUS
 10
1.5000374999999995
 20
1.6877785000000003
 30
0.0
 11
1.4999434999999988
 21
1.7517785000000003
 31
0.0
  0
LINE
  5
10D
100
AcDbEntity
100
AcDbLine
  8
0
 62
256
370
-1
  6
CONTINUOUS
 10
1.4999434999999988
 20
1.7517785000000003
 30
0.0
 11
1.4953585
 21
1.8771175000000002
 31
0.0
  0
ARC
  5
10E
100
AcDbEntity
  8
0
 62
256
370
-1
  6
CONTINUOUS
100
AcDbCircle
 10
1.4942694999999997
 20
1.9070975000000003
 30
0.0
 40
0.03
100
AcDbArc
 50
92.0881430000000023
 51
272.0805030000000215
  0
LINE
  5
10F
100
AcDbEntity
100
AcDbLine
  8
0
 62
256
370
-1
  6
CONTINUOUS
 10
1.4931764999999988
 20
1.9370775000000005
 30
0.0
 11
1.4897475
 21
2.0312555000000003
 31
0.0
  0
ARC
  5
110
100
AcDbEntity
  8
0
 62
256
370
-1
  6
CONTINUOUS
100
AcDbCircle
 10
1.4277885000000001
 20
2.0289995000000003
 30
0.0
 40
0.062
100
AcDbArc
 50
2.084921
 51
90.0842789999999951
  0
LINE
  5
111
100
AcDbEntity
100
AcDbLine
  8
0
 62
256
370
-1
  6
CONTINUOUS
 10
1.427697499999999
 20
2.0909995000000006
 30
0.0
 11
1.3916764999999991
 21
2.0909465000000003
 31
0.0
  0
ARC
  5
112
100
AcDbEntity
  8
0
 62
256
370
-1
  6
CONTINUOUS
100
AcDbCircle
 10
1.3917684999999995
 20
2.0289465
 30
0.0
 40
0.062
100
AcDbArc
 50
90.0842789999999951
 51
182.084132000000011
  0
LINE
  5
113
100
AcDbEntity
100
AcDbLine
  8
0
 62
256
370
-1
  6
CONTINUOUS
 10
1.3298094999999996
 20
2.0266915000000001
 30
0.0
 11
1.3350714999999997
 21
1.8820835000000002
 31
0.0
  0
ARC
  5
114
100
AcDbEntity
  8
0
 62
256
370
-1
  6
CONTINUOUS
100
AcDbCircle
 10
1.3000945000000002
 20
1.8808105000000004
 30
0.0
 40
0.035
100
AcDbArc
 50
270.0842789999999809
 51
2.0841319999999999
  0
LINE
  5
115
100
AcDbEntity
100
AcDbLine
  8
0
 62
256
370
-1
  6
CONTINUOUS
 10
1.3001465000000003
 20
1.8458105000000002
 30
0.0
 11
1.2813914999999998
 21
1.8457825000000003
 31
0.0
  0
ARC
  5
116
100
AcDbEntity
  8
0
 62
256
370
-1
  6
CONTINUOUS
100
AcDbCircle
 10
1.2813404999999989
 20
1.8807825
 30
0.0
 40
0.035
100
AcDbArc
 50
225.0842690000000061
 51
270.0842789999999809
  0
LINE
  5
117
100
AcDbEntity
100
AcDbLine
  8
0
 62
256
370
-1
  6
CONTINUOUS
 10
1.2566275000000005
 20
1.8559975000000004
 30
0.0
 11
1.0687365
 21
2.0433374999999998
 31
0.0
  0
ARC
  5
118
100
AcDbEntity
  8
0
 62
256
370
-1
  6
CONTINUOUS
100
AcDbCircle
 10
1.2007704999999991
 20
2.1757605
 30
0.0
 40
0.187
100
AcDbArc
 50
180.0842790000000093
 51
225.0842690000000061
  0
LINE
  5
119
100
AcDbEntity
100
AcDbLine
  8
0
 62
256
370
-1
  6
CONTINUOUS
 10
1.0137704999999997
 20
2.1754855000000006
 30
0.0
 11
1.0135504999999991
 21
2.3252955000000002
 31
0.0
  0
ARC
  5
11A
100
AcDbEntity
  8
0
 62
256
370
-1
  6
CONTINUOUS
100
AcDbCircle
 10
1.2005505000000003
 20
2.3255705000000004
 30
0.0
 40
0.187
100
AcDbArc
 50
135.0841360000000009
 51
180.0842790000000093
  0
LINE
  5
11B
100
AcDbEntity
100
AcDbLine
  8
0
 62
256
370
-1
  6
CONTINUOUS
 10
1.0681274999999992
 20
2.4576055000000006
 30
0.0
 11
1.2554664999999989
 21
2.6454955
 31
0.0
  0
ARC
  5
11C
100
AcDbEntity
  8
0
 62
256
370
-1
  6
CONTINUOUS
100
AcDbCircle
 10
1.2809615000000001
 20
2.6190495
 30
0.0
 40
0.036734
100
AcDbArc
 50
90.038802000000004
 51
133.950443000000007
  0
LINE
  5
11D
100
AcDbEntity
100
AcDbLine
  8
0
 62
256
370
-1
  6
CONTINUOUS
 10
1.2809364999999993
 20
2.6557835000000001
 30
0.0
 11
1.2986424999999997
 21
2.6558095000000002
 31
0.0
  0
ARC
  5
11E
100
AcDbEntity
  8
0
 62
256
370
-1
  6
CONTINUOUS
100
AcDbCircle
 10
1.2986934999999988
 20
2.6208095
 30
0.0
 40
0.035
100
AcDbArc
 50
358.0847009999999955
 51
90.0842789999999951
  0
LINE
  5
11F
100
AcDbEntity
100
AcDbLine
  8
0
 62
256
370
-1
  6
CONTINUOUS
 10
1.333674499999999
 20
2.6196394999999999
 30
0.0
 11
1.3288374999999988
 21
2.4750165000000006
 31
0.0
  0
ARC
  5
120
100
AcDbEntity
  8
0
 62
256
370
-1
  6
CONTINUOUS
100
AcDbCircle
 10
1.3908034999999987
 20
2.4729445000000005
 30
0.0
 40
0.062
100
AcDbArc
 50
178.0847009999999955
 51
270.0842789999999809
  0
LINE
  5
121
100
AcDbEntity
100
AcDbLine
  8
0
 62
256
370
-1
  6
CONTINUOUS
 10
1.3908944999999999
 20
2.4109445000000003
 30
0.0
 11
1.4269154999999998
 21
2.4109975000000006
 31
0.0
  0
ARC
  5
122
100
AcDbEntity
  8
0
 62
256
370
-1
  6
CONTINUOUS
100
AcDbCircle
 10
1.4268234999999994
 20
2.4729975
 30
0.0
 40
0.062
100
AcDbArc
 50
270.0842789999999809
 51
358.0843590000000063
  0
LINE
  5
123
100
AcDbEntity
100
AcDbLine
  8
0
 62
256
370
-1
  6
CONTINUOUS
 10
1.4887894999999993
 20
2.4709245000000006
 30
0.0
 11
1.4919394999999991
 21
2.5651115000000004
 31
0.0
  0
ARC
  5
124
100
AcDbEntity
  8
0
 62
256
370
-1
  6
CONTINUOUS
100
AcDbCircle
 10
1.4929445000000001
 20
2.5950945000000001
 30
0.0
 40
0.03
100
AcDbArc
 50
88.087134000000006
 51
268.0794950000000085
  0
LINE
  5
125
100
AcDbEntity
100
AcDbLine
  8
0
 62
256
370
-1
  6
CONTINUOUS
 10
1.4939464999999998
 20
2.6250784999999999
 30
0.0
 11
1.4981615000000001
 21
2.7511025
 31
0.0
  0
LINE
  5
126
100
AcDbEntity
100
AcDbLine
  8
0
 62
256
370
-1
  6
CONTINUOUS
 10
1.4981615000000001
 20
2.7511025
 30
0.0
 11
1.4980674999999994
 21
2.8151014999999999
 31
0.0
  0
ARC
  5
127
100
AcDbEntity
  8
0
 62
256
370
-1
  6
CONTINUOUS
100
AcDbCircle
 10
1.4980235000000004
 20
2.8451015000000002
 30
0.0
 40
0.03
100
AcDbArc
 50
90.0919260000000008
 51
270.0842870000000175
  0
ARC
  5
128
100
AcDbEntity
  8
0
 62
256
370
-1
  6
CONTINUOUS
100
AcDbCircle
 10
1.372975499999999
 20
2.8750005000000005
 30
0.0
 40
0.125
100
AcDbArc
 50
0.046527
 51
90.0354549999999989
  0
ARC
  5
129
100
AcDbEntity
  8
0
 62
256
370
-1
  6
CONTINUOUS
100
AcDbCircle
 10
1.3728984999999998
 20
2.9999975000000001
 30
0.0
 40
0.000002
100
AcDbArc
 50
90.0354549999999989
 51
241.9391480000000172
  0
LINE
  5
12A
100
AcDbEntity
100
AcDbLine
  8
0
 62
256
370
-1
  6
CONTINUOUS
 10
1.1991344999999995
 20
1.6329015000000004
 30
0.0
 11
0.9016314999999988
 21
1.9297305000000002
 31
0.0
  0
ARC
  5
12B
100
AcDbEntity
  8
0
 62
256
370
-1
  6
CONTINUOUS
100
AcDbCircle
 10
0.7694034999999992
 20
1.7975015000000001
 30
0.0
 40
0.187
100
AcDbArc
 50
45.0000900000000001
 51
90.0
  0
LINE
  5
12C
100
AcDbEntity
100
AcDbLine
  8
0
 62
256
370
-1
  6
CONTINUOUS
 10
0.7694034999999992
 20
1.9845015000000004
 30
0.0
 11
0.6691614999999995
 21
1.9845015000000004
 31
0.0
  0
ARC
  5
12D
100
AcDbEntity
  8
0
 62
256
370
-1
  6
CONTINUOUS
100
AcDbCircle
 10
0.6691614999999995
 20
2.1715015000000006
 30
0.0
 40
0.187
100
AcDbArc
 50
180.0
 51
270.0
  0
LINE
  5
12E
100
AcDbEntity
100
AcDbLine
  8
0
 62
256
370
-1
  6
CONTINUOUS
 10
0.4821615000000001
 20
2.1715015000000006
 30
0.0
 11
0.4821615000000001
 21
2.2717435000000004
 31
0.0
  0
ARC
  5
12F
100
AcDbEntity
  8
0
 62
256
370
-1
  6
CONTINUOUS
100
AcDbCircle
 10
0.295161499999999
 20
2.2717435000000004
 30
0.0
 40
0.187
100
AcDbArc
 50
360.0
 51
45.0
  0
LINE
  5
130
100
AcDbEntity
100
AcDbLine
  8
0
 62
256
370
-1
  6
CONTINUOUS
 10
0.4273904999999996
 20
2.4039725000000001
 30
0.0
 11
0.1303915
 21
2.7016445000000004
 31
0.0
  0
ARC
  5
131
100
AcDbEntity
  8
0
 62
256
370
-1
  6
CONTINUOUS
100
AcDbCircle
 10
-0.0026925000000002
 20
2.5676465000000004
 30
0.0
 40
0.188856
100
AcDbArc
 50
45.1962230000000034
 51
134.7288159999999948
  0
LINE
  5
132
100
AcDbEntity
100
AcDbLine
  8
0
 62
256
370
-1
  6
CONTINUOUS
 10
-0.1355994999999997
 20
2.7018184999999999
 30
0.0
 11
-0.432598500000001
 21
2.4048195000000003
 31
0.0
  0
ARC
  5
133
100
AcDbEntity
  8
0
 62
256
370
-1
  6
CONTINUOUS
100
AcDbCircle
 10
-0.3003695000000004
 20
2.2725905000000006
 30
0.0
 40
0.187
100
AcDbArc
 50
135.0
 51
180.0
  0
LINE
  5
134
100
AcDbEntity
100
AcDbLine
  8
0
 62
256
370
-1
  6
CONTINUOUS
 10
-0.4873694999999998
 20
2.2725905000000006
 30
0.0
 11
-0.4873694999999998
 21
2.1723485
 31
0.0
  0
ARC
  5
135
100
AcDbEntity
  8
0
 62
256
370
-1
  6
CONTINUOUS
100
AcDbCircle
 10
-0.674369500000001
 20
2.1723485
 30
0.0
 40
0.187
100
AcDbArc
 50
270.0
 51
360.0
  0
LINE
  5
136
100
AcDbEntity
100
AcDbLine
  8
0
 62
256
370
-1
  6
CONTINUOUS
 10
-0.674369500000001
 20
1.9853485000000002
 30
0.0
 11
-0.7746125000000008
 21
1.9853485000000002
 31
0.0
  0
ARC
  5
137
100
AcDbEntity
  8
0
 62
256
370
-1
  6
CONTINUOUS
100
AcDbCircle
 10
-0.7746125000000008
 20
1.7983485000000003
 30
0.0
 40
0.187
100
AcDbArc
 50
90.0
 51
134.9999410000000069
  0
LINE
  5
138
100
AcDbEntity
100
AcDbLine
  8
0
 62
256
370
-1
  6
CONTINUOUS
 10
-0.9068415000000005
 20
1.9305775000000001
 30
0.0
 11
-1.2043425000000001
 21
1.6330765
 31
0.0
  0
ARC
  5
139
100
AcDbEntity
  8
0
 62
256
370
-1
  6
CONTINUOUS
100
AcDbCircle
 10
-1.0719035000000003
 20
1.5007605000000002
 30
0.0
 40
0.18721
100
AcDbArc
 50
135.026582999999988
 51
224.9734109999999987
  0
LINE
  5
13A
100
AcDbEntity
100
AcDbLine
  8
0
 62
256
370
-1
  6
CONTINUOUS
 10
-1.2043425000000001
 20
1.3684445000000003
 30
0.0
 11
-0.9068435000000008
 21
1.0709445000000004
 31
0.0
  0
ARC
  5
13B
100
AcDbEntity
  8
0
 62
256
370
-1
  6
CONTINUOUS
100
AcDbCircle
 10
-0.7746145000000002
 20
1.2031745000000003
 30
0.0
 40
0.187
100
AcDbArc
 50
225.0000530000000083
 51
270.0
  0
LINE
  5
13C
100
AcDbEntity
100
AcDbLine
  8
0
 62
256
370
-1
  6
CONTINUOUS
 10
-0.7746145000000002
 20
1.0161745000000004
 30
0.0
 11
-0.674369500000001
 21
1.0161745000000004
 31
0.0
  0
ARC
  5
13D
100
AcDbEntity
  8
0
 62
256
370
-1
  6
CONTINUOUS
100
AcDbCircle
 10
-0.674369500000001
 20
0.8291745000000001
 30
0.0
 40
0.187
100
AcDbArc
 50
0.0
 51
90.0
  0
LINE
  5
13E
100
AcDbEntity
100
AcDbLine
  8
0
 62
256
370
-1
  6
CONTINUOUS
 10
-0.4873694999999998
 20
0.8291745000000001
 30
0.0
 11
-0.4873694999999998
 21
0.7289295000000005
 31
0.0
  0
ARC
  5
13F
100
AcDbEntity
  8
0
 62
256
370
-1
  6
CONTINUOUS
100
AcDbCircle
 10
-0.3003695000000004
 20
0.7289295000000005
 30
0.0
 40
0.187
100
AcDbArc
 50
180.0
 51
225.0
  0
LINE
  5
140
100
AcDbEntity
100
AcDbLine
  8
0
 62
256
370
-1
  6
CONTINUOUS
 10
-0.432598500000001
 20
0.5967015000000004
 30
0.0
 11
-0.1355994999999997
 21
0.2997025000000004
 31
0.0
  0
ARC
  5
141
100
AcDbEntity
  8
0
 62
256
370
-1
  6
CONTINUOUS
100
AcDbCircle
 10
-0.0034954999999997
 20
0.4316305000000003
 30
0.0
 40
0.1867
100
AcDbArc
 50
224.9618230000000096
 51
315.0381709999999771
  0
LINE
  5
142
100
AcDbEntity
100
AcDbLine
  8
0
 62
256
370
-1
  6
CONTINUOUS
 10
0.1286094999999996
 20
0.2997025000000004
 30
0.0
 11
0.4256084999999992
 21
0.5967015000000004
 31
0.0
  0
ARC
  5
143
100
AcDbEntity
  8
0
 62
256
370
-1
  6
CONTINUOUS
100
AcDbCircle
 10
0.2933795000000003
 20
0.7289295000000005
 30
0.0
 40
0.187
100
AcDbArc
 50
314.9999940000000151
 51
0.0
  0
LINE
  5
144
100
AcDbEntity
100
AcDbLine
  8
0
 62
256
370
-1
  6
CONTINUOUS
 10
0.4803794999999997
 20
0.7289295000000005
 30
0.0
 11
0.4803794999999997
 21
0.8291745000000001
 31
0.0
  0
ARC
  5
145
100
AcDbEntity
  8
0
 62
256
370
-1
  6
CONTINUOUS
100
AcDbCircle
 10
0.6673794999999991
 20
0.8291745000000001
 30
0.0
 40
0.187
100
AcDbArc
 50
90.0
 51
180.0
  0
LINE
  5
146
100
AcDbEntity
100
AcDbLine
  8
0
 62
256
370
-1
  6
CONTINUOUS
 10
0.6673794999999991
 20
1.0161745000000004
 30
0.0
 11
0.7676234999999991
 21
1.0161745000000004
 31
0.0
  0
ARC
  5
147
100
AcDbEntity
  8
0
 62
256
370
-1
  6
CONTINUOUS
100
AcDbCircle
 10
0.7676234999999991
 20
1.2031745000000003
 30
0.0
 40
0.187
100
AcDbArc
 50
270.0
 51
315.0
  0
LINE
  5
148
100
AcDbEntity
100
AcDbLine
  8
0
 62
256
370
-1
  6
CONTINUOUS
 10
0.8998524999999997
 20
1.0709455000000001
 30
0.0
 11
1.1976005000000001
 21
1.3684445000000003
 31
0.0
  0
ARC
  5
149
100
AcDbEntity
  8
0
 62
256
370
-1
  6
CONTINUOUS
100
AcDbCircle
 10
1.0661345000000004
 20
1.5014395
 30
0.0
 40
0.187005
100
AcDbArc
 50
314.6684989999999971
 51
44.6672489999999982
  0
ARC
  5
14A
100
AcDbEntity
  8
0
 62
256
370
-1
  6
CONTINUOUS
100
AcDbCircle
 10
1.1991335000000003
 20
1.6329025000000001
 30
0.0
 40
0.000001
100
AcDbArc
 50
307.4071850000000268
 51
225.0000560000000007
  0
LINE
  5
14B
100
AcDbEntity
100
AcDbLine
  8
0
 62
256
370
-1
  6
CONTINUOUS
 10
-0.1319224999999999
 20
-0.2981814999999999
 30
0.0
 11
-0.4289214999999995
 21
-0.5951804999999997
 31
0.0
  0
LINE
  5
14C
100
AcDbEntity
100
AcDbLine
  8
0
 62
256
370
-1
  6
CONTINUOUS
 10
0.4310674999999993
 20
-0.5960274999999997
 30
0.0
 11
0.1340684999999997
 21
-0.2983554999999998
 31
0.0
  0
LINE
  5
14D
100
AcDbEntity
100
AcDbLine
  8
0
 62
256
370
-1
  6
CONTINUOUS
 10
1.492466499999999
 20
-0.5290754999999998
 30
0.0
 11
1.4956164999999988
 21
-0.4348884999999998
 31
0.0
  0
LINE
  5
14E
100
AcDbEntity
100
AcDbLine
  8
0
 62
256
370
-1
  6
CONTINUOUS
 10
1.3373515000000005
 20
-0.3803604999999999
 30
0.0
 11
1.3325145000000003
 21
-0.5249834999999998
 31
0.0
  0
LINE
  5
14F
100
AcDbEntity
100
AcDbLine
  8
0
 62
256
370
-1
  6
CONTINUOUS
 10
1.0718044999999989
 20
-0.5423944999999997
 30
0.0
 11
1.2591435000000004
 21
-0.3545044999999998
 31
0.0
  0
LINE
  5
150
100
AcDbEntity
100
AcDbLine
  8
0
 62
256
370
-1
  6
CONTINUOUS
 10
-1.2562015000000004
 20
-0.3536574999999997
 30
0.0
 11
-1.0696595000000002
 21
-0.5415474999999998
 31
0.0
  0
LINE
  5
151
100
AcDbEntity
100
AcDbLine
  8
0
 62
256
370
-1
  6
CONTINUOUS
 10
-1.3288365000000004
 20
-0.5241364999999998
 30
0.0
 11
-1.3336725000000005
 21
-0.3795134999999998
 31
0.0
  0
LINE
  5
152
100
AcDbEntity
100
AcDbLine
  8
0
 62
256
370
-1
  6
CONTINUOUS
 10
-1.4919385000000007
 20
-0.4340414999999997
 30
0.0
 11
-1.4887875000000008
 21
-0.5282284999999998
 31
0.0
  0
ARC
  5
153
100
AcDbEntity
  8
0
 62
256
370
-1
  6
CONTINUOUS
100
AcDbCircle
 10
0.6769344999999998
 20
-0.2975004999999997
 30
0.0
 40
0.187
100
AcDbArc
 50
239.6616659999999683
 51
270.0
  0
LINE
  5
154
100
AcDbEntity
100
AcDbLine
  8
0
 62
256
370
-1
  6
CONTINUOUS
 10
0.9035294999999994
 20
-1.9290544999999999
 30
0.0
 11
1.2012774999999998
 21
-1.6315554999999997
 31
0.0
  0
LINE
  5
155
100
AcDbEntity
100
AcDbLine
  8
0
 62
256
370
-1
  6
CONTINUOUS
 10
1.2028114999999993
 20
-1.3670984999999998
 30
0.0
 11
0.9053085000000003
 21
-1.0702694999999998
 31
0.0
  0
ARC
  5
156
100
AcDbEntity
  8
0
 62
256
370
-1
  6
CONTINUOUS
100
AcDbCircle
 10
1.2042275
 20
-0.6744294999999998
 30
0.0
 40
0.187
100
AcDbArc
 50
135.0841360000000009
 51
180.0842790000000093
  0
ARC
  5
157
100
AcDbEntity
  8
0
 62
256
370
-1
  6
CONTINUOUS
100
AcDbCircle
 10
1.2044474999999988
 20
-0.8242394999999998
 30
0.0
 40
0.187
100
AcDbArc
 50
180.0842790000000093
 51
225.0842690000000061
  0
ARC
  5
158
100
AcDbEntity
  8
0
 62
256
370
-1
  6
CONTINUOUS
100
AcDbCircle
 10
1.2046514999999989
 20
-2.1737544999999998
 30
0.0
 40
0.187
100
AcDbArc
 50
135.0842790000000093
 51
180.0842790000000093
  0
ARC
  5
159
100
AcDbEntity
  8
0
 62
256
370
-1
  6
CONTINUOUS
100
AcDbCircle
 10
1.2048714999999994
 20
-2.3234054999999998
 30
0.0
 40
0.187
100
AcDbArc
 50
180.0842790000000093
 51
227.1083169999999996
  0
LINE
  5
15A
100
AcDbEntity
100
AcDbLine
  8
0
 62
256
370
-1
  6
CONTINUOUS
 10
0.9698934999999995
 20
-2.9902154999999997
 30
0.0
 11
1.0640754999999995
 21
-2.9935035000000001
 31
0.0
  0
LINE
  5
15B
100
AcDbEntity
100
AcDbLine
  8
0
 62
256
370
-1
  6
CONTINUOUS
 10
1.1188354999999994
 20
-2.8353184999999996
 30
0.0
 11
0.9742204999999995
 21
-2.8302695
 31
0.0
  0
LINE
  5
15C
100
AcDbEntity
100
AcDbLine
  8
0
 62
256
370
-1
  6
CONTINUOUS
 10
0.9571915000000004
 20
-2.5695974999999995
 30
0.0
 11
1.1448055000000004
 21
-2.7572124999999996
 31
0.0
  0
ARC
  5
15D
100
AcDbEntity
  8
0
 62
256
370
-1
  6
CONTINUOUS
100
AcDbCircle
 10
-0.7709375000000005
 20
-1.7968254999999997
 30
0.0
 40
0.187
100
AcDbArc
 50
225.0000530000000083
 51
270.0
  0
ARC
  5
15E
100
AcDbEntity
  8
0
 62
256
370
-1
  6
CONTINUOUS
100
AcDbCircle
 10
-0.7709355000000002
 20
-1.2016514999999997
 30
0.0
 40
0.187
100
AcDbArc
 50
90.0
 51
134.9999410000000069
  0
ARC
  5
15F
100
AcDbEntity
  8
0
 62
256
370
-1
  6
CONTINUOUS
100
AcDbCircle
 10
-0.8244395000000004
 20
-2.7018255
 30
0.0
 40
0.187
100
AcDbArc
 50
90.0
 51
137.0240379999999902
  0
CIRCLE
  5
160
100
AcDbEntity
100
AcDbCircle
  8
0
 62
256
370
-1
  6
CONTINUOUS
 10
-0.7481615000000001
 20
-2.2499994999999999
 30
0.0
 40
0.1285
  0
CIRCLE
  5
161
100
AcDbEntity
100
AcDbCircle
  8
0
 62
256
370
-1
  6
CONTINUOUS
 10
-0.7481615000000001
 20
-0.7500004999999998
 30
0.0
 40
0.1285
  0
LINE
  5
162
100
AcDbEntity
100
AcDbLine
  8
0
 62
256
370
-1
  6
CONTINUOUS
 10
-1.2006655000000004
 20
-1.6315554999999997
 30
0.0
 11
-0.9031665000000002
 21
-1.9290554999999998
 31
0.0
  0
LINE
  5
163
100
AcDbEntity
100
AcDbLine
  8
0
 62
256
370
-1
  6
CONTINUOUS
 10
-1.2592045000000001
 20
-1.8538284999999997
 30
0.0
 11
-1.0718655000000004
 21
-2.0417204999999998
 31
0.0
  0
LINE
  5
164
100
AcDbEntity
100
AcDbLine
  8
0
 62
256
370
-1
  6
CONTINUOUS
 10
-1.3328875
 20
-2.0243064999999998
 30
0.0
 11
-1.3377255000000003
 21
-1.8796834999999998
 31
0.0
  0
ARC
  5
165
100
AcDbEntity
  8
0
 62
256
370
-1
  6
CONTINUOUS
100
AcDbCircle
 10
-1.4969955000000006
 20
-1.9042294999999998
 30
0.0
 40
0.03
100
AcDbArc
 50
271.9195510000000127
 51
91.9119120000000009
  0
LINE
  5
166
100
AcDbEntity
100
AcDbLine
  8
0
 62
256
370
-1
  6
CONTINUOUS
 10
-1.1444215
 20
-2.7578635
 30
0.0
 11
-0.9612565000000002
 21
-2.5743494999999998
 31
0.0
  0
ARC
  5
167
100
AcDbEntity
  8
0
 62
256
370
-1
  6
CONTINUOUS
100
AcDbCircle
 10
-1.4924855000000008
 20
-2.5922294999999997
 30
0.0
 40
0.03
100
AcDbArc
 50
267.9185420000000022
 51
87.9109030000000047
  0
LINE
  5
168
100
AcDbEntity
100
AcDbLine
  8
0
 62
256
370
-1
  6
CONTINUOUS
 10
-1.3332875
 20
-2.6172434999999998
 30
0.0
 11
-1.3280255000000007
 21
-2.4726344999999998
 31
0.0
  0
LINE
  5
169
100
AcDbEntity
100
AcDbLine
  8
0
 62
256
370
-1
  6
CONTINUOUS
 10
-1.0772335000000002
 20
-2.4604094999999999
 30
0.0
 11
-1.2558705000000003
 21
-2.6433054999999999
 31
0.0
  0
ARC
  5
16A
100
AcDbEntity
  8
0
 62
256
370
-1
  6
CONTINUOUS
100
AcDbCircle
 10
-1.3392195000000005
 20
-2.9999994999999995
 30
0.0
 40
0.03
100
AcDbArc
 50
0.0
 51
179.9923599999999908
  0
ARC
  5
16B
100
AcDbEntity
  8
0
 62
256
370
-1
  6
CONTINUOUS
100
AcDbCircle
 10
-1.2983105000000004
 20
-2.6185164999999997
 30
0.0
 40
0.035
100
AcDbArc
 50
177.9161159999999882
 51
269.9157210000000191
  0
ARC
  5
16C
100
AcDbEntity
  8
0
 62
256
370
-1
  6
CONTINUOUS
100
AcDbCircle
 10
-1.3733585000000001
 20
-2.8750644999999997
 30
0.0
 40
0.125
100
AcDbArc
 50
179.005283999999989
 51
271.8972120000000245
  0
LINE
  5
16D
100
AcDbEntity
100
AcDbLine
  8
0
 62
256
370
-1
  6
CONTINUOUS
 10
-1.4981605
 20
-2.7488944999999996
 30
0.0
 11
-1.4982555
 21
-2.8128944999999996
 31
0.0
  0
ARC
  5
16E
100
AcDbEntity
  8
0
 62
256
370
-1
  6
CONTINUOUS
100
AcDbCircle
 10
-1.4982995000000008
 20
-2.8428944999999999
 30
0.0
 40
0.03
100
AcDbArc
 50
269.9233600000000024
 51
89.9157210000000049
  0
LINE
  5
16F
100
AcDbEntity
100
AcDbLine
  8
0
 62
256
370
-1
  6
CONTINUOUS
 10
-1.4935745000000002
 20
-2.6222094999999999
 30
0.0
 11
-1.4981605
 21
-2.7488944999999996
 31
0.0
  0
ARC
  5
170
100
AcDbEntity
  8
0
 62
256
370
-1
  6
CONTINUOUS
100
AcDbCircle
 10
-0.9716935000000007
 20
-2.9282544999999995
 30
0.0
 40
0.062
100
AcDbArc
 50
271.9988200000000234
 51
360.0
  0
ARC
  5
171
100
AcDbEntity
  8
0
 62
256
370
-1
  6
CONTINUOUS
100
AcDbCircle
 10
-1.0936935000000005
 20
-2.9945534999999999
 30
0.0
 40
0.03
100
AcDbArc
 50
2.0048180000000002
 51
181.997177999999991
  0
LINE
  5
172
100
AcDbEntity
100
AcDbLine
  8
0
 62
256
370
-1
  6
CONTINUOUS
 10
-1.2496935000000002
 20
-2.9999994999999995
 30
0.0
 11
-1.1236755
 21
-2.9955984999999998
 31
0.0
  0
LINE
  5
173
100
AcDbEntity
100
AcDbLine
  8
0
 62
256
370
-1
  6
CONTINUOUS
 10
-1.3092195000000002
 20
-2.9999994999999995
 30
0.0
 11
-1.2496935000000002
 21
-2.9999994999999995
 31
0.0
  0
LINE
  5
174
100
AcDbEntity
100
AcDbLine
  8
0
 62
256
370
-1
  6
CONTINUOUS
 10
-1.0637125000000003
 20
-2.9935035000000001
 30
0.0
 11
-0.9695315000000004
 21
-2.9902175
 31
0.0
  0
LINE
  5
175
100
AcDbEntity
100
AcDbLine
  8
0
 62
256
370
-1
  6
CONTINUOUS
 10
-0.9738575000000003
 20
-2.8302695
 30
0.0
 11
-1.1184735000000003
 21
-2.8353184999999996
 31
0.0
  0
ARC
  5
176
100
AcDbEntity
  8
0
 62
256
370
-1
  6
CONTINUOUS
100
AcDbCircle
 10
-1.1196945000000005
 20
-2.7826344999999999
 30
0.0
 40
0.035
100
AcDbArc
 50
134.9492040000000088
 51
180.0
  0
LINE
  5
177
100
AcDbEntity
100
AcDbLine
  8
0
 62
256
370
-1
  6
CONTINUOUS
 10
-1.1546945000000006
 20
-2.8003404999999999
 30
0.0
 11
-1.1546945000000006
 21
-2.7826344999999999
 31
0.0
  0
ARC
  5
178
100
AcDbEntity
  8
0
 62
256
370
-1
  6
CONTINUOUS
100
AcDbCircle
 10
-1.1196945000000005
 20
-2.8003404999999999
 30
0.0
 40
0.035
100
AcDbArc
 50
180.0
 51
271.9996049999999741
  0
LINE
  5
179
100
AcDbEntity
100
AcDbLine
  8
0
 62
256
370
-1
  6
CONTINUOUS
 10
-1.2806555000000008
 20
-2.6535424999999999
 30
0.0
 11
-1.2983615000000004
 21
-2.6535164999999998
 31
0.0
  0
ARC
  5
17A
100
AcDbEntity
  8
0
 62
256
370
-1
  6
CONTINUOUS
100
AcDbCircle
 10
-1.2806045000000008
 20
-2.6185424999999998
 30
0.0
 40
0.035
100
AcDbArc
 50
269.9157210000000191
 51
314.9665170000000103
  0
ARC
  5
17B
100
AcDbEntity
  8
0
 62
256
370
-1
  6
CONTINUOUS
100
AcDbCircle
 10
-0.9716935000000007
 20
-2.8922324999999995
 30
0.0
 40
0.062
100
AcDbArc
 50
0.0
 51
91.9996050000000025
  0
LINE
  5
17C
100
AcDbEntity
100
AcDbLine
  8
0
 62
256
370
-1
  6
CONTINUOUS
 10
-0.9096935000000004
 20
-2.9282544999999995
 30
0.0
 11
-0.9096935000000004
 21
-2.8922324999999995
 31
0.0
  0
ARC
  5
17D
100
AcDbEntity
  8
0
 62
256
370
-1
  6
CONTINUOUS
100
AcDbCircle
 10
-1.4260065000000006
 20
-2.4703274999999998
 30
0.0
 40
0.062
100
AcDbArc
 50
89.9157210000000049
 51
177.9169009999999957
  0
ARC
  5
17E
100
AcDbEntity
  8
0
 62
256
370
-1
  6
CONTINUOUS
100
AcDbCircle
 10
-1.3899845000000006
 20
-2.4703804999999996
 30
0.0
 40
0.062
100
AcDbArc
 50
357.9161159999999882
 51
89.9157210000000049
  0
LINE
  5
17F
100
AcDbEntity
100
AcDbLine
  8
0
 62
256
370
-1
  6
CONTINUOUS
 10
-1.4879655000000005
 20
-2.4680735
 30
0.0
 11
-1.4913915000000006
 21
-2.5622494999999996
 31
0.0
  0
LINE
  5
180
100
AcDbEntity
100
AcDbLine
  8
0
 62
256
370
-1
  6
CONTINUOUS
 10
-1.3898935000000003
 20
-2.4083804999999998
 30
0.0
 11
-1.4259155000000003
 21
-2.4083274999999995
 31
0.0
  0
ARC
  5
181
100
AcDbEntity
  8
0
 62
256
370
-1
  6
CONTINUOUS
100
AcDbCircle
 10
-1.3948535
 20
-2.0263795
 30
0.0
 40
0.062
100
AcDbArc
 50
269.9157210000000191
 51
1.9156939999999998
  0
ARC
  5
182
100
AcDbEntity
  8
0
 62
256
370
-1
  6
CONTINUOUS
100
AcDbCircle
 10
-1.4308735000000006
 20
-2.0263264999999997
 30
0.0
 40
0.062
100
AcDbArc
 50
181.9163629999999898
 51
269.9157210000000191
  0
LINE
  5
183
100
AcDbEntity
100
AcDbLine
  8
0
 62
256
370
-1
  6
CONTINUOUS
 10
-1.4309655000000001
 20
-2.0883265
 30
0.0
 11
-1.3949445000000003
 21
-2.0883794999999998
 31
0.0
  0
LINE
  5
184
100
AcDbEntity
100
AcDbLine
  8
0
 62
256
370
-1
  6
CONTINUOUS
 10
-1.4959905000000004
 20
-1.9342124999999997
 30
0.0
 11
-1.4928395000000005
 21
-2.0283994999999999
 31
0.0
  0
LINE
  5
185
100
AcDbEntity
100
AcDbLine
  8
0
 62
256
370
-1
  6
CONTINUOUS
 10
-1.0172885000000003
 20
-2.1740294999999996
 30
0.0
 11
-1.0175085000000008
 21
-2.3236805
 31
0.0
  0
ARC
  5
186
100
AcDbEntity
  8
0
 62
256
370
-1
  6
CONTINUOUS
100
AcDbCircle
 10
-1.2045085000000002
 20
-2.3234054999999998
 30
0.0
 40
0.187
100
AcDbArc
 50
312.8916830000000004
 51
359.9157210000000191
  0
ARC
  5
187
100
AcDbEntity
  8
0
 62
256
370
-1
  6
CONTINUOUS
100
AcDbCircle
 10
-1.2042885000000005
 20
-2.1737544999999998
 30
0.0
 40
0.187
100
AcDbArc
 50
359.9157210000000191
 51
44.9157209999999978
  0
LINE
  5
188
100
AcDbEntity
100
AcDbLine
  8
0
 62
256
370
-1
  6
CONTINUOUS
 10
-0.9031645000000008
 20
-1.0694224999999997
 30
0.0
 11
-1.2006655000000004
 21
-1.3669234999999997
 31
0.0
  0
LINE
  5
189
100
AcDbEntity
100
AcDbLine
  8
0
 62
256
370
-1
  6
CONTINUOUS
 10
-1.4968905000000001
 20
-1.1220354999999997
 30
0.0
 11
-1.5014755000000006
 21
-1.2480474999999998
 31
0.0
  0
ARC
  5
18A
100
AcDbEntity
  8
0
 62
256
370
-1
  6
CONTINUOUS
100
AcDbCircle
 10
-1.3027445000000002
 20
-1.8785134999999997
 30
0.0
 40
0.035
100
AcDbArc
 50
89.9157210000000049
 51
181.915694000000002
  0
LINE
  5
18B
100
AcDbEntity
100
AcDbLine
  8
0
 62
256
370
-1
  6
CONTINUOUS
 10
-1.5016575000000003
 20
-1.3720474999999999
 30
0.0
 11
-1.5020285000000007
 21
-1.6242214999999998
 31
0.0
  0
LINE
  5
18C
100
AcDbEntity
100
AcDbLine
  8
0
 62
256
370
-1
  6
CONTINUOUS
 10
-1.5021125
 20
-1.6842214999999998
 30
0.0
 11
-1.5022115000000005
 21
-1.7482214999999997
 31
0.0
  0
LINE
  5
18D
100
AcDbEntity
100
AcDbLine
  8
0
 62
256
370
-1
  6
CONTINUOUS
 10
-1.5022115000000005
 20
-1.7482214999999997
 30
0.0
 11
-1.4979965000000002
 21
-1.8742454999999998
 31
0.0
  0
ARC
  5
18E
100
AcDbEntity
  8
0
 62
256
370
-1
  6
CONTINUOUS
100
AcDbCircle
 10
-1.5020725000000006
 20
-1.6542214999999998
 30
0.0
 40
0.03
100
AcDbArc
 50
269.9233600000000024
 51
89.9157210000000049
  0
ARC
  5
18F
100
AcDbEntity
  8
0
 62
256
370
-1
  6
CONTINUOUS
100
AcDbCircle
 10
-1.5016155000000007
 20
-1.3420474999999996
 30
0.0
 40
0.03
100
AcDbArc
 50
269.9195409999999811
 51
89.9119010000000003
  0
LINE
  5
190
100
AcDbEntity
100
AcDbLine
  8
0
 62
256
370
-1
  6
CONTINUOUS
 10
-1.5014755000000006
 20
-1.2480474999999998
 30
0.0
 11
-1.5015695000000004
 21
-1.3120474999999998
 31
0.0
  0
ARC
  5
191
100
AcDbEntity
  8
0
 62
256
370
-1
  6
CONTINUOUS
100
AcDbCircle
 10
-1.0682265000000006
 20
-1.4992394999999998
 30
0.0
 40
0.18721
100
AcDbArc
 50
135.026582999999988
 51
224.9734109999999987
  0
ARC
  5
192
100
AcDbEntity
  8
0
 62
256
370
-1
  6
CONTINUOUS
100
AcDbCircle
 10
-1.2839895000000006
 20
-1.8785414999999999
 30
0.0
 40
0.035
100
AcDbArc
 50
44.9157209999999978
 51
89.9157210000000049
  0
LINE
  5
193
100
AcDbEntity
100
AcDbLine
  8
0
 62
256
370
-1
  6
CONTINUOUS
 10
-1.3026935000000002
 20
-1.8435134999999998
 30
0.0
 11
-1.2839385000000005
 21
-1.8435414999999997
 31
0.0
  0
ARC
  5
194
100
AcDbEntity
  8
0
 62
256
370
-1
  6
CONTINUOUS
100
AcDbCircle
 10
-1.3016265000000002
 20
-1.1183424999999998
 30
0.0
 40
0.035
100
AcDbArc
 50
177.915867999999989
 51
269.9157210000000191
  0
LINE
  5
195
100
AcDbEntity
100
AcDbLine
  8
0
 62
256
370
-1
  6
CONTINUOUS
 10
-1.4912795000000001
 20
-0.9678974999999999
 30
0.0
 11
-1.4947085000000007
 21
-1.0620754999999997
 31
0.0
  0
LINE
  5
196
100
AcDbEntity
100
AcDbLine
  8
0
 62
256
370
-1
  6
CONTINUOUS
 10
-1.3366035000000007
 20
-1.1170694999999997
 30
0.0
 11
-1.3313405000000005
 21
-0.9724614999999999
 31
0.0
  0
ARC
  5
197
100
AcDbEntity
  8
0
 62
256
370
-1
  6
CONTINUOUS
100
AcDbCircle
 10
-1.4958015000000007
 20
-1.0920554999999998
 30
0.0
 40
0.03
100
AcDbArc
 50
267.9194969999999785
 51
87.9118569999999977
  0
LINE
  5
198
100
AcDbEntity
100
AcDbLine
  8
0
 62
256
370
-1
  6
CONTINUOUS
 10
-1.3932085000000001
 20
-0.9082064999999997
 30
0.0
 11
-1.4292295000000008
 21
-0.9081534999999998
 31
0.0
  0
ARC
  5
199
100
AcDbEntity
  8
0
 62
256
370
-1
  6
CONTINUOUS
100
AcDbCircle
 10
-1.4293205000000002
 20
-0.9701534999999997
 30
0.0
 40
0.062
100
AcDbArc
 50
89.9157210000000049
 51
177.9150789999999915
  0
ARC
  5
19A
100
AcDbEntity
  8
0
 62
256
370
-1
  6
CONTINUOUS
100
AcDbCircle
 10
-1.3932995000000004
 20
-0.9702064999999997
 30
0.0
 40
0.062
100
AcDbArc
 50
357.915867999999989
 51
89.9157210000000049
  0
ARC
  5
19B
100
AcDbEntity
  8
0
 62
256
370
-1
  6
CONTINUOUS
100
AcDbCircle
 10
-1.4268225000000001
 20
-0.5261554999999998
 30
0.0
 40
0.062
100
AcDbArc
 50
181.9156409999999937
 51
269.9157210000000191
  0
ARC
  5
19C
100
AcDbEntity
  8
0
 62
256
370
-1
  6
CONTINUOUS
100
AcDbCircle
 10
-1.3908015000000002
 20
-0.5262084999999999
 30
0.0
 40
0.062
100
AcDbArc
 50
269.9157210000000191
 51
1.9152990000000001
  0
LINE
  5
19D
100
AcDbEntity
100
AcDbLine
  8
0
 62
256
370
-1
  6
CONTINUOUS
 10
-1.4269135000000004
 20
-0.5881554999999998
 30
0.0
 11
-1.3908935000000007
 21
-0.5882084999999997
 31
0.0
  0
ARC
  5
19E
100
AcDbEntity
  8
0
 62
256
370
-1
  6
CONTINUOUS
100
AcDbCircle
 10
-1.2023025000000001
 20
-0.8233924999999997
 30
0.0
 40
0.187
100
AcDbArc
 50
314.9157309999999939
 51
359.9157210000000191
  0
LINE
  5
19F
100
AcDbEntity
100
AcDbLine
  8
0
 62
256
370
-1
  6
CONTINUOUS
 10
-1.0702685000000001
 20
-0.9558154999999997
 30
0.0
 11
-1.2581595000000005
 21
-1.1431554999999998
 31
0.0
  0
LINE
  5
1A0
100
AcDbEntity
100
AcDbLine
  8
0
 62
256
370
-1
  6
CONTINUOUS
 10
-1.2829235000000008
 20
-1.1533704999999999
 30
0.0
 11
-1.3016785000000004
 21
-1.1533424999999997
 31
0.0
  0
ARC
  5
1A1
100
AcDbEntity
  8
0
 62
256
370
-1
  6
CONTINUOUS
100
AcDbCircle
 10
-1.2828725000000007
 20
-1.1183704999999997
 30
0.0
 40
0.035
100
AcDbArc
 50
269.9157210000000191
 51
314.9157309999999939
  0
ARC
  5
1A2
100
AcDbEntity
  8
0
 62
256
370
-1
  6
CONTINUOUS
100
AcDbCircle
 10
-1.2020825000000004
 20
-0.6735824999999998
 30
0.0
 40
0.187
100
AcDbArc
 50
359.9157210000000191
 51
44.9158639999999991
  0
LINE
  5
1A3
100
AcDbEntity
100
AcDbLine
  8
0
 62
256
370
-1
  6
CONTINUOUS
 10
-1.0150825000000001
 20
-0.6738574999999998
 30
0.0
 11
-1.0153025000000007
 21
-0.8236674999999998
 31
0.0
  0
ARC
  5
1A4
100
AcDbEntity
  8
0
 62
256
370
-1
  6
CONTINUOUS
100
AcDbCircle
 10
0.0001815000000001
 20
-2.5683694999999997
 30
0.0
 40
0.1867
100
AcDbArc
 50
224.9618230000000096
 51
315.0381709999999771
  0
LINE
  5
1A5
100
AcDbEntity
100
AcDbLine
  8
0
 62
256
370
-1
  6
CONTINUOUS
 10
-0.1256935000000006
 20
-3.0003734999999998
 30
0.0
 11
0.1260574999999999
 21
-3.0003734999999998
 31
0.0
  0
LINE
  5
1A6
100
AcDbEntity
100
AcDbLine
  8
0
 62
256
370
-1
  6
CONTINUOUS
 10
-0.4289214999999995
 20
-2.4032985
 30
0.0
 11
-0.1319224999999999
 21
-2.7002974999999996
 31
0.0
  0
LINE
  5
1A7
100
AcDbEntity
100
AcDbLine
  8
0
 62
256
370
-1
  6
CONTINUOUS
 10
-0.5425595000000012
 20
-2.5695964999999998
 30
0.0
 11
-0.3549445000000002
 21
-2.7572124999999996
 31
0.0
  0
LINE
  5
1A8
100
AcDbEntity
100
AcDbLine
  8
0
 62
256
370
-1
  6
CONTINUOUS
 10
-0.3757125000000006
 20
-2.9959734999999998
 30
0.0
 11
-0.2496935000000011
 21
-3.0003734999999998
 31
0.0
  0
ARC
  5
1A9
100
AcDbEntity
  8
0
 62
256
370
-1
  6
CONTINUOUS
100
AcDbCircle
 10
-0.3796925000000009
 20
-2.8007164999999996
 30
0.0
 40
0.035
100
AcDbArc
 50
268.0000269999999887
 51
0.0
  0
ARC
  5
1AA
100
AcDbEntity
  8
0
 62
256
370
-1
  6
CONTINUOUS
100
AcDbCircle
 10
-0.5276934999999998
 20
-2.9286274999999997
 30
0.0
 40
0.062
100
AcDbArc
 50
180.0
 51
267.9993579999999724
  0
LINE
  5
1AB
100
AcDbEntity
100
AcDbLine
  8
0
 62
256
370
-1
  6
CONTINUOUS
 10
-0.5298584999999996
 20
-2.9905894999999996
 30
0.0
 11
-0.4356755000000003
 21
-2.9938794999999998
 31
0.0
  0
ARC
  5
1AC
100
AcDbEntity
  8
0
 62
256
370
-1
  6
CONTINUOUS
100
AcDbCircle
 10
-0.4056934999999999
 20
-2.9949284999999994
 30
0.0
 40
0.03
100
AcDbArc
 50
358.0038089999999897
 51
177.9961700000000064
  0
LINE
  5
1AD
100
AcDbEntity
100
AcDbLine
  8
0
 62
256
370
-1
  6
CONTINUOUS
 10
-0.3809145000000012
 20
-2.8356944999999998
 30
0.0
 11
-0.5255305000000003
 21
-2.8306445
 31
0.0
  0
LINE
  5
1AE
100
AcDbEntity
100
AcDbLine
  8
0
 62
256
370
-1
  6
CONTINUOUS
 10
-0.589693500000001
 20
-2.8926074999999996
 30
0.0
 11
-0.589693500000001
 21
-2.9286274999999997
 31
0.0
  0
ARC
  5
1AF
100
AcDbEntity
  8
0
 62
256
370
-1
  6
CONTINUOUS
100
AcDbCircle
 10
-0.5276934999999998
 20
-2.8926074999999996
 30
0.0
 40
0.062
100
AcDbArc
 50
88.0000270000000029
 51
180.0
  0
ARC
  5
1B0
100
AcDbEntity
  8
0
 62
256
370
-1
  6
CONTINUOUS
100
AcDbCircle
 10
-0.1556934999999999
 20
-3.0003734999999998
 30
0.0
 40
0.03
100
AcDbArc
 50
0.0
 51
179.9923599999999908
  0
LINE
  5
1B1
100
AcDbEntity
100
AcDbLine
  8
0
 62
256
370
-1
  6
CONTINUOUS
 10
-0.2496935000000011
 20
-3.0003734999999998
 30
0.0
 11
-0.1856935000000011
 21
-3.0003694999999997
 31
0.0
  0
ARC
  5
1B2
100
AcDbEntity
  8
0
 62
256
370
-1
  6
CONTINUOUS
100
AcDbCircle
 10
-0.3796925000000009
 20
-2.7819614999999995
 30
0.0
 40
0.035
100
AcDbArc
 50
0.0
 51
45.0
  0
LINE
  5
1B3
100
AcDbEntity
100
AcDbLine
  8
0
 62
256
370
-1
  6
CONTINUOUS
 10
-0.3446925000000007
 20
-2.7819614999999995
 30
0.0
 11
-0.3446925000000007
 21
-2.8007164999999996
 31
0.0
  0
LINE
  5
1B4
100
AcDbEntity
100
AcDbLine
  8
0
 62
256
370
-1
  6
CONTINUOUS
 10
-0.4836925000000001
 20
-2.1708254999999999
 30
0.0
 11
-0.4836925000000001
 21
-2.2710704999999995
 31
0.0
  0
ARC
  5
1B5
100
AcDbEntity
  8
0
 62
256
370
-1
  6
CONTINUOUS
100
AcDbCircle
 10
-0.6747885
 20
-2.7018255
 30
0.0
 40
0.187
100
AcDbArc
 50
45.0
 51
90.0
  0
LINE
  5
1B6
100
AcDbEntity
100
AcDbLine
  8
0
 62
256
370
-1
  6
CONTINUOUS
 10
-0.8244395000000004
 20
-2.5148254999999997
 30
0.0
 11
-0.6747885
 21
-2.5148254999999997
 31
0.0
  0
ARC
  5
1B7
100
AcDbEntity
  8
0
 62
256
370
-1
  6
CONTINUOUS
100
AcDbCircle
 10
-0.2966925000000007
 20
-2.2710704999999995
 30
0.0
 40
0.187
100
AcDbArc
 50
180.0
 51
225.0
  0
ARC
  5
1B8
100
AcDbEntity
  8
0
 62
256
370
-1
  6
CONTINUOUS
100
AcDbCircle
 10
-0.6706925000000012
 20
-2.1708254999999999
 30
0.0
 40
0.187
100
AcDbArc
 50
0.0
 51
90.0
  0
LINE
  5
1B9
100
AcDbEntity
100
AcDbLine
  8
0
 62
256
370
-1
  6
CONTINUOUS
 10
-0.7709375000000005
 20
-1.9838254999999998
 30
0.0
 11
-0.6706925000000012
 21
-1.9838254999999998
 31
0.0
  0
LINE
  5
1BA
100
AcDbEntity
100
AcDbLine
  8
0
 62
256
370
-1
  6
CONTINUOUS
 10
0.1322864999999993
 20
-2.7002974999999996
 30
0.0
 11
0.4292854999999989
 21
-2.4032985
 31
0.0
  0
LINE
  5
1BB
100
AcDbEntity
100
AcDbLine
  8
0
 62
256
370
-1
  6
CONTINUOUS
 10
0.3553075000000003
 20
-2.7572124999999996
 30
0.0
 11
0.5429234999999988
 21
-2.5695964999999998
 31
0.0
  0
ARC
  5
1BC
100
AcDbEntity
  8
0
 62
256
370
-1
  6
CONTINUOUS
100
AcDbCircle
 10
0.5280574999999992
 20
-2.8926074999999996
 30
0.0
 40
0.062
100
AcDbArc
 50
0.0
 51
91.9998530000000017
  0
ARC
  5
1BD
100
AcDbEntity
  8
0
 62
256
370
-1
  6
CONTINUOUS
100
AcDbCircle
 10
0.5280574999999992
 20
-2.9286274999999997
 30
0.0
 40
0.062
100
AcDbArc
 50
272.0006420000000276
 51
360.0
  0
LINE
  5
1BE
100
AcDbEntity
100
AcDbLine
  8
0
 62
256
370
-1
  6
CONTINUOUS
 10
0.2500575000000005
 20
-3.0003734999999998
 30
0.0
 11
0.3760754999999989
 21
-2.9959734999999998
 31
0.0
  0
LINE
  5
1BF
100
AcDbEntity
100
AcDbLine
  8
0
 62
256
370
-1
  6
CONTINUOUS
 10
0.1860575000000004
 20
-3.0003734999999998
 30
0.0
 11
0.2500575000000005
 21
-3.0003734999999998
 31
0.0
  0
ARC
  5
1C0
100
AcDbEntity
  8
0
 62
256
370
-1
  6
CONTINUOUS
100
AcDbCircle
 10
0.1560574999999993
 20
-3.0003754999999996
 30
0.0
 40
0.03
100
AcDbArc
 50
0.00382
 51
179.9961800000000096
  0
LINE
  5
1C1
100
AcDbEntity
100
AcDbLine
  8
0
 62
256
370
-1
  6
CONTINUOUS
 10
0.4360385000000004
 20
-2.9938794999999998
 30
0.0
 11
0.5302214999999997
 21
-2.9905894999999996
 31
0.0
  0
ARC
  5
1C2
100
AcDbEntity
  8
0
 62
256
370
-1
  6
CONTINUOUS
100
AcDbCircle
 10
0.4060574999999993
 20
-2.9949284999999994
 30
0.0
 40
0.03
100
AcDbArc
 50
2.0038640000000001
 51
181.9962240000000122
  0
ARC
  5
1C3
100
AcDbEntity
  8
0
 62
256
370
-1
  6
CONTINUOUS
100
AcDbCircle
 10
0.3800565000000002
 20
-2.7819614999999995
 30
0.0
 40
0.035
100
AcDbArc
 50
134.9999899999999968
 51
180.0
  0
LINE
  5
1C4
100
AcDbEntity
100
AcDbLine
  8
0
 62
256
370
-1
  6
CONTINUOUS
 10
0.5258935000000005
 20
-2.8306445
 30
0.0
 11
0.3812774999999995
 21
-2.8356944999999998
 31
0.0
  0
LINE
  5
1C5
100
AcDbEntity
100
AcDbLine
  8
0
 62
256
370
-1
  6
CONTINUOUS
 10
0.3450565000000001
 20
-2.8007154999999999
 30
0.0
 11
0.3450565000000001
 21
-2.7819614999999995
 31
0.0
  0
ARC
  5
1C6
100
AcDbEntity
  8
0
 62
256
370
-1
  6
CONTINUOUS
100
AcDbCircle
 10
0.3800565000000002
 20
-2.8007154999999999
 30
0.0
 40
0.035
100
AcDbArc
 50
180.0
 51
271.9998529999999732
  0
ARC
  5
1C7
100
AcDbEntity
  8
0
 62
256
370
-1
  6
CONTINUOUS
100
AcDbCircle
 10
0.9720575
 20
-2.9282524999999997
 30
0.0
 40
0.062
100
AcDbArc
 50
180.0
 51
268.0000800000000254
  0
LINE
  5
1C8
100
AcDbEntity
100
AcDbLine
  8
0
 62
256
370
-1
  6
CONTINUOUS
 10
0.5900575000000003
 20
-2.9286274999999997
 30
0.0
 11
0.5900575000000003
 21
-2.8926074999999996
 31
0.0
  0
ARC
  5
1C9
100
AcDbEntity
  8
0
 62
256
370
-1
  6
CONTINUOUS
100
AcDbCircle
 10
0.9720575
 20
-2.8922324999999995
 30
0.0
 40
0.062
100
AcDbArc
 50
88.0004220000000004
 51
180.0
  0
LINE
  5
1CA
100
AcDbEntity
100
AcDbLine
  8
0
 62
256
370
-1
  6
CONTINUOUS
 10
0.9100574999999989
 20
-2.8922324999999995
 30
0.0
 11
0.9100574999999989
 21
-2.9282524999999997
 31
0.0
  0
ARC
  5
1CB
100
AcDbEntity
  8
0
 62
256
370
-1
  6
CONTINUOUS
100
AcDbCircle
 10
0.6710564999999988
 20
-2.1708254999999999
 30
0.0
 40
0.187
100
AcDbArc
 50
90.0
 51
180.0
  0
ARC
  5
1CC
100
AcDbEntity
  8
0
 62
256
370
-1
  6
CONTINUOUS
100
AcDbCircle
 10
0.6751524999999994
 20
-2.7018255
 30
0.0
 40
0.187
100
AcDbArc
 50
90.0
 51
134.9999899999999968
  0
LINE
  5
1CD
100
AcDbEntity
100
AcDbLine
  8
0
 62
256
370
-1
  6
CONTINUOUS
 10
0.4840564999999994
 20
-2.2710704999999995
 30
0.0
 11
0.4840564999999994
 21
-2.1708254999999999
 31
0.0
  0
ARC
  5
1CE
100
AcDbEntity
  8
0
 62
256
370
-1
  6
CONTINUOUS
100
AcDbCircle
 10
0.2970565000000001
 20
-2.2710704999999995
 30
0.0
 40
0.187
100
AcDbArc
 50
314.9999940000000151
 51
0.0
  0
LINE
  5
1CF
100
AcDbEntity
100
AcDbLine
  8
0
 62
256
370
-1
  6
CONTINUOUS
 10
1.0178724999999993
 20
-2.3236805
 30
0.0
 11
1.0176524999999987
 21
-2.1740294999999996
 31
0.0
  0
CIRCLE
  5
1D0
100
AcDbEntity
100
AcDbCircle
  8
0
 62
256
370
-1
  6
CONTINUOUS
 10
0.7518384999999999
 20
-2.2499994999999999
 30
0.0
 40
0.1285
  0
LINE
  5
1D1
100
AcDbEntity
100
AcDbLine
  8
0
 62
256
370
-1
  6
CONTINUOUS
 10
0.6751524999999994
 20
-2.5148254999999997
 30
0.0
 11
0.8249624999999998
 21
-2.5148254999999997
 31
0.0
  0
ARC
  5
1D2
100
AcDbEntity
  8
0
 62
256
370
-1
  6
CONTINUOUS
100
AcDbCircle
 10
0.8249624999999998
 20
-2.7018255
 30
0.0
 40
0.187
100
AcDbArc
 50
44.9998569999999987
 51
90.0
  0
ARC
  5
1D3
100
AcDbEntity
  8
0
 62
256
370
-1
  6
CONTINUOUS
100
AcDbCircle
 10
0.7713004999999988
 20
-1.7968254999999997
 30
0.0
 40
0.187
100
AcDbArc
 50
270.0
 51
315.0
  0
LINE
  5
1D4
100
AcDbEntity
100
AcDbLine
  8
0
 62
256
370
-1
  6
CONTINUOUS
 10
0.6710564999999988
 20
-1.9838254999999998
 30
0.0
 11
0.7713004999999988
 21
-1.9838254999999998
 31
0.0
  0
ARC
  5
1D5
100
AcDbEntity
  8
0
 62
256
370
-1
  6
CONTINUOUS
100
AcDbCircle
 10
-0.6706925000000012
 20
-0.8276514999999998
 30
0.0
 40
0.187
100
AcDbArc
 50
270.0
 51
360.0
  0
LINE
  5
1D6
100
AcDbEntity
100
AcDbLine
  8
0
 62
256
370
-1
  6
CONTINUOUS
 10
-0.6706925000000012
 20
-1.0146514999999998
 30
0.0
 11
-0.7709355000000002
 21
-1.0146514999999998
 31
0.0
  0
ARC
  5
1D7
100
AcDbEntity
  8
0
 62
256
370
-1
  6
CONTINUOUS
100
AcDbCircle
 10
-0.2966925000000007
 20
-0.7274094999999998
 30
0.0
 40
0.187
100
AcDbArc
 50
135.0
 51
180.0
  0
LINE
  5
1D8
100
AcDbEntity
100
AcDbLine
  8
0
 62
256
370
-1
  6
CONTINUOUS
 10
-0.4836925000000001
 20
-0.7274094999999998
 30
0.0
 11
-0.4836925000000001
 21
-0.8276514999999998
 31
0.0
  0
ARC
  5
1D9
100
AcDbEntity
  8
0
 62
256
370
-1
  6
CONTINUOUS
100
AcDbCircle
 10
0.6728384999999992
 20
-0.8284984999999998
 30
0.0
 40
0.187
100
AcDbArc
 50
180.0
 51
270.0
  0
ARC
  5
1DA
100
AcDbEntity
  8
0
 62
256
370
-1
  6
CONTINUOUS
100
AcDbCircle
 10
0.2988385000000005
 20
-0.7282564999999999
 30
0.0
 40
0.187
100
AcDbArc
 50
360.0
 51
45.0
  0
LINE
  5
1DB
100
AcDbEntity
100
AcDbLine
  8
0
 62
256
370
-1
  6
CONTINUOUS
 10
0.4858384999999998
 20
-0.8284984999999998
 30
0.0
 11
0.4858384999999998
 21
-0.7282564999999999
 31
0.0
  0
CIRCLE
  5
1DC
100
AcDbEntity
100
AcDbCircle
  8
0
 62
256
370
-1
  6
CONTINUOUS
 10
0.7518394999999991
 20
-0.7499994999999997
 30
0.0
 40
0.1285
  0
ARC
  5
1DD
100
AcDbEntity
  8
0
 62
256
370
-1
  6
CONTINUOUS
100
AcDbCircle
 10
0.7730804999999989
 20
-1.2024984999999999
 30
0.0
 40
0.187
100
AcDbArc
 50
45.0000900000000001
 51
90.0
  0
LINE
  5
1DE
100
AcDbEntity
100
AcDbLine
  8
0
 62
256
370
-1
  6
CONTINUOUS
 10
0.7730804999999989
 20
-1.0154984999999996
 30
0.0
 11
0.6728384999999992
 21
-1.0154984999999996
 31
0.0
  0
LINE
  5
1DF
100
AcDbEntity
100
AcDbLine
  8
0
 62
256
370
-1
  6
CONTINUOUS
 10
1.0174474999999994
 20
-0.8245144999999998
 30
0.0
 11
1.0172274999999988
 21
-0.6747044999999998
 31
0.0
  0
ARC
  5
1E0
100
AcDbEntity
  8
0
 62
256
370
-1
  6
CONTINUOUS
100
AcDbCircle
 10
1.4973584999999989
 20
-1.9042294999999998
 30
0.0
 40
0.03
100
AcDbArc
 50
88.0880879999999991
 51
268.0804489999999873
  0
LINE
  5
1E1
100
AcDbEntity
100
AcDbLine
  8
0
 62
256
370
-1
  6
CONTINUOUS
 10
1.3380884999999996
 20
-1.8796834999999998
 30
0.0
 11
1.3332514999999994
 21
-2.0243064999999998
 31
0.0
  0
LINE
  5
1E2
100
AcDbEntity
100
AcDbLine
  8
0
 62
256
370
-1
  6
CONTINUOUS
 10
1.0722284999999996
 20
-2.0417204999999998
 30
0.0
 11
1.2595685000000003
 21
-1.8538284999999997
 31
0.0
  0
LINE
  5
1E3
100
AcDbEntity
100
AcDbLine
  8
0
 62
256
370
-1
  6
CONTINUOUS
 10
1.2607074999999988
 20
-2.6433054999999999
 30
0.0
 11
1.0775974999999995
 21
-2.4604094999999999
 31
0.0
  0
LINE
  5
1E4
100
AcDbEntity
100
AcDbLine
  8
0
 62
256
370
-1
  6
CONTINUOUS
 10
1.3328624999999992
 20
-2.4726344999999998
 30
0.0
 11
1.3381244999999993
 21
-2.6172434999999998
 31
0.0
  0
ARC
  5
1E5
100
AcDbEntity
  8
0
 62
256
370
-1
  6
CONTINUOUS
100
AcDbCircle
 10
1.4961634999999998
 20
-2.5922294999999997
 30
0.0
 40
0.03
100
AcDbArc
 50
92.0890969999999953
 51
272.0814579999999978
  0
ARC
  5
1E6
100
AcDbEntity
  8
0
 62
256
370
-1
  6
CONTINUOUS
100
AcDbCircle
 10
1.3770364999999991
 20
-2.8750644999999997
 30
0.0
 40
0.125
100
AcDbArc
 50
268.1023289999999974
 51
0.9947270000000001
  0
LINE
  5
1E7
100
AcDbEntity
100
AcDbLine
  8
0
 62
256
370
-1
  6
CONTINUOUS
 10
1.2500575000000005
 20
-2.9999994999999995
 30
0.0
 11
1.3140564999999995
 21
-2.9999994999999995
 31
0.0
  0
LINE
  5
1E8
100
AcDbEntity
100
AcDbLine
  8
0
 62
256
370
-1
  6
CONTINUOUS
 10
1.1240384999999993
 20
-2.9955984999999998
 30
0.0
 11
1.2500575000000005
 21
-2.9999994999999995
 31
0.0
  0
ARC
  5
1E9
100
AcDbEntity
  8
0
 62
256
370
-1
  6
CONTINUOUS
100
AcDbCircle
 10
1.0940574999999999
 20
-2.9945534999999999
 30
0.0
 40
0.03
100
AcDbArc
 50
358.0028550000000109
 51
177.9952150000000017
  0
ARC
  5
1EA
100
AcDbEntity
  8
0
 62
256
370
-1
  6
CONTINUOUS
100
AcDbCircle
 10
1.3434764999999995
 20
-2.9994255000000001
 30
0.0
 40
0.029426
100
AcDbArc
 50
358.890199999999993
 51
181.117605999999995
  0
ARC
  5
1EB
100
AcDbEntity
  8
0
 62
256
370
-1
  6
CONTINUOUS
100
AcDbCircle
 10
1.2854414999999992
 20
-2.6185424999999998
 30
0.0
 40
0.035
100
AcDbArc
 50
225.0334829999999897
 51
270.0842789999999809
  0
ARC
  5
1EC
100
AcDbEntity
  8
0
 62
256
370
-1
  6
CONTINUOUS
100
AcDbCircle
 10
1.1184724999999993
 20
-2.7826094999999995
 30
0.0
 40
0.036584
100
AcDbArc
 50
359.9604100000000244
 51
43.9627550000000014
  0
ARC
  5
1ED
100
AcDbEntity
  8
0
 62
256
370
-1
  6
CONTINUOUS
100
AcDbCircle
 10
1.1200574999999997
 20
-2.8003404999999999
 30
0.0
 40
0.035
100
AcDbArc
 50
268.0004220000000146
 51
0.0
  0
LINE
  5
1EE
100
AcDbEntity
100
AcDbLine
  8
0
 62
256
370
-1
  6
CONTINUOUS
 10
1.1550574999999998
 20
-2.7826344999999999
 30
0.0
 11
1.1550574999999998
 21
-2.8003404999999999
 31
0.0
  0
LINE
  5
1EF
100
AcDbEntity
100
AcDbLine
  8
0
 62
256
370
-1
  6
CONTINUOUS
 10
1.5019334999999998
 20
-2.8128944999999996
 30
0.0
 11
1.5018394999999991
 21
-2.7482214999999997
 31
0.0
  0
ARC
  5
1F0
100
AcDbEntity
  8
0
 62
256
370
-1
  6
CONTINUOUS
100
AcDbCircle
 10
1.5019774999999989
 20
-2.8428944999999999
 30
0.0
 40
0.03
100
AcDbArc
 50
90.0842789999999951
 51
270.0766399999999976
  0
LINE
  5
1F1
100
AcDbEntity
100
AcDbLine
  8
0
 62
256
370
-1
  6
CONTINUOUS
 10
1.3031994999999998
 20
-2.6535164999999998
 30
0.0
 11
1.2854934999999994
 21
-2.6535424999999999
 31
0.0
  0
ARC
  5
1F2
100
AcDbEntity
  8
0
 62
256
370
-1
  6
CONTINUOUS
100
AcDbCircle
 10
1.3031474999999997
 20
-2.6185164999999997
 30
0.0
 40
0.035
100
AcDbArc
 50
270.0842789999999809
 51
2.0838839999999998
  0
LINE
  5
1F3
100
AcDbEntity
100
AcDbLine
  8
0
 62
256
370
-1
  6
CONTINUOUS
 10
1.5018394999999991
 20
-2.7482214999999997
 30
0.0
 11
1.4972525000000001
 21
-2.6222094999999999
 31
0.0
  0
ARC
  5
1F4
100
AcDbEntity
  8
0
 62
256
370
-1
  6
CONTINUOUS
100
AcDbCircle
 10
1.4312374999999999
 20
-2.0263264999999997
 30
0.0
 40
0.062
100
AcDbArc
 50
270.0842789999999809
 51
358.0836370000000102
  0
ARC
  5
1F5
100
AcDbEntity
  8
0
 62
256
370
-1
  6
CONTINUOUS
100
AcDbCircle
 10
1.4296854999999997
 20
-2.4703274999999998
 30
0.0
 40
0.062
100
AcDbArc
 50
2.0830989999999998
 51
90.0842789999999951
  0
ARC
  5
1F6
100
AcDbEntity
  8
0
 62
256
370
-1
  6
CONTINUOUS
100
AcDbCircle
 10
1.3938404999999996
 20
-2.4694414999999998
 30
0.0
 40
0.061062
100
AcDbArc
 50
90.2529789999999963
 51
182.9974890000000016
  0
LINE
  5
1F7
100
AcDbEntity
100
AcDbLine
  8
0
 62
256
370
-1
  6
CONTINUOUS
 10
1.4950694999999996
 20
-2.5622494999999996
 30
0.0
 11
1.4916444999999996
 21
-2.4680735
 31
0.0
  0
LINE
  5
1F8
100
AcDbEntity
100
AcDbLine
  8
0
 62
256
370
-1
  6
CONTINUOUS
 10
1.4295934999999993
 20
-2.4083274999999995
 30
0.0
 11
1.3935715000000002
 21
-2.4083804999999998
 31
0.0
  0
ARC
  5
1F9
100
AcDbEntity
  8
0
 62
256
370
-1
  6
CONTINUOUS
100
AcDbCircle
 10
1.3952165000000001
 20
-2.0263795
 30
0.0
 40
0.062
100
AcDbArc
 50
178.084305999999998
 51
270.0842789999999809
  0
LINE
  5
1FA
100
AcDbEntity
100
AcDbLine
  8
0
 62
256
370
-1
  6
CONTINUOUS
 10
1.3953074999999995
 20
-2.0883794999999998
 30
0.0
 11
1.4313284999999993
 21
-2.0883265
 31
0.0
  0
LINE
  5
1FB
100
AcDbEntity
100
AcDbLine
  8
0
 62
256
370
-1
  6
CONTINUOUS
 10
1.4932024999999989
 20
-2.0283994999999999
 30
0.0
 11
1.4963534999999997
 21
-1.9342124999999997
 31
0.0
  0
LINE
  5
1FC
100
AcDbEntity
100
AcDbLine
  8
0
 62
256
370
-1
  6
CONTINUOUS
 10
1.5036205000000002
 20
-1.2482214999999997
 30
0.0
 11
1.4990354999999997
 21
-1.1228824999999998
 31
0.0
  0
ARC
  5
1FD
100
AcDbEntity
  8
0
 62
256
370
-1
  6
CONTINUOUS
100
AcDbCircle
 10
1.5037614999999995
 20
-1.3422214999999997
 30
0.0
 40
0.03
100
AcDbArc
 50
90.0880989999999997
 51
270.0804590000000189
  0
ARC
  5
1FE
100
AcDbEntity
  8
0
 62
256
370
-1
  6
CONTINUOUS
100
AcDbCircle
 10
1.5026844999999991
 20
-1.6542214999999998
 30
0.0
 40
0.03
100
AcDbArc
 50
90.0842789999999951
 51
270.0766399999999976
  0
LINE
  5
1FF
100
AcDbEntity
100
AcDbLine
  8
0
 62
256
370
-1
  6
CONTINUOUS
 10
1.4983594999999994
 20
-1.8742454999999998
 30
0.0
 11
1.5028234999999999
 21
-1.7482214999999997
 31
0.0
  0
ARC
  5
200
100
AcDbEntity
  8
0
 62
256
370
-1
  6
CONTINUOUS
100
AcDbCircle
 10
1.0698115000000001
 20
-1.4985604999999997
 30
0.0
 40
0.187005
100
AcDbArc
 50
314.6684989999999971
 51
44.6672489999999982
  0
ARC
  5
201
100
AcDbEntity
  8
0
 62
256
370
-1
  6
CONTINUOUS
100
AcDbCircle
 10
1.2843534999999999
 20
-1.8785414999999999
 30
0.0
 40
0.035
100
AcDbArc
 50
90.0842789999999951
 51
135.0842790000000093
  0
ARC
  5
202
100
AcDbEntity
  8
0
 62
256
370
-1
  6
CONTINUOUS
100
AcDbCircle
 10
1.3031085000000004
 20
-1.8785134999999997
 30
0.0
 40
0.035
100
AcDbArc
 50
358.0843060000000264
 51
90.0842789999999951
  0
LINE
  5
203
100
AcDbEntity
100
AcDbLine
  8
0
 62
256
370
-1
  6
CONTINUOUS
 10
1.2843014999999998
 20
-1.8435414999999997
 30
0.0
 11
1.3030565000000003
 21
-1.8435134999999998
 31
0.0
  0
ARC
  5
204
100
AcDbEntity
  8
0
 62
256
370
-1
  6
CONTINUOUS
100
AcDbCircle
 10
1.2028105
 20
-1.3670974999999999
 30
0.0
 40
0.000001
100
AcDbArc
 50
307.4071850000000268
 51
225.0000560000000007
  0
LINE
  5
205
100
AcDbEntity
100
AcDbLine
  8
0
 62
256
370
-1
  6
CONTINUOUS
 10
1.5026405
 20
-1.6242214999999998
 30
0.0
 11
1.5038035000000001
 21
-1.3722214999999998
 31
0.0
  0
LINE
  5
206
100
AcDbEntity
100
AcDbLine
  8
0
 62
256
370
-1
  6
CONTINUOUS
 10
1.5028234999999999
 20
-1.7482214999999997
 30
0.0
 11
1.5027255000000004
 21
-1.6842214999999998
 31
0.0
  0
LINE
  5
207
100
AcDbEntity
100
AcDbLine
  8
0
 62
256
370
-1
  6
CONTINUOUS
 10
1.5037144999999992
 20
-1.3122214999999997
 30
0.0
 11
1.5036205000000002
 21
-1.2482214999999997
 31
0.0
  0
ARC
  5
208
100
AcDbEntity
  8
0
 62
256
370
-1
  6
CONTINUOUS
100
AcDbCircle
 10
1.4305004999999991
 20
-0.5270024999999998
 30
0.0
 40
0.062
100
AcDbArc
 50
270.0842789999999809
 51
358.0843590000000063
  0
ARC
  5
209
100
AcDbEntity
  8
0
 62
256
370
-1
  6
CONTINUOUS
100
AcDbCircle
 10
1.4314654999999998
 20
-0.9710004999999997
 30
0.0
 40
0.062
100
AcDbArc
 50
2.084921
 51
90.0842789999999951
  0
ARC
  5
20A
100
AcDbEntity
  8
0
 62
256
370
-1
  6
CONTINUOUS
100
AcDbCircle
 10
1.2850175000000004
 20
-1.1192174999999998
 30
0.0
 40
0.035
100
AcDbArc
 50
225.0842690000000061
 51
270.0842789999999809
  0
LINE
  5
20B
100
AcDbEntity
100
AcDbLine
  8
0
 62
256
370
-1
  6
CONTINUOUS
 10
1.2603045000000002
 20
-1.1440024999999998
 30
0.0
 11
1.0724134999999997
 21
-0.9566624999999997
 31
0.0
  0
LINE
  5
20C
100
AcDbEntity
100
AcDbLine
  8
0
 62
256
370
-1
  6
CONTINUOUS
 10
1.3334864999999994
 20
-0.9733084999999997
 30
0.0
 11
1.3387484999999995
 21
-1.1179164999999998
 31
0.0
  0
LINE
  5
20D
100
AcDbEntity
100
AcDbLine
  8
0
 62
256
370
-1
  6
CONTINUOUS
 10
1.4968535000000003
 20
-1.0629224999999998
 30
0.0
 11
1.4934244999999997
 21
-0.9687444999999997
 31
0.0
  0
LINE
  5
20E
100
AcDbEntity
100
AcDbLine
  8
0
 62
256
370
-1
  6
CONTINUOUS
 10
1.3038235
 20
-1.1541894999999998
 30
0.0
 11
1.2850684999999995
 21
-1.1542174999999997
 31
0.0
  0
ARC
  5
20F
100
AcDbEntity
  8
0
 62
256
370
-1
  6
CONTINUOUS
100
AcDbCircle
 10
1.3037714999999999
 20
-1.1191894999999996
 30
0.0
 40
0.035
100
AcDbArc
 50
270.0842789999999809
 51
2.0841319999999999
  0
ARC
  5
210
100
AcDbEntity
  8
0
 62
256
370
-1
  6
CONTINUOUS
100
AcDbCircle
 10
1.4979464999999994
 20
-1.0929024999999997
 30
0.0
 40
0.03
100
AcDbArc
 50
92.0881430000000023
 51
272.0805030000000215
  0
ARC
  5
211
100
AcDbEntity
  8
0
 62
256
370
-1
  6
CONTINUOUS
100
AcDbCircle
 10
1.3954454999999992
 20
-0.9710534999999998
 30
0.0
 40
0.062
100
AcDbArc
 50
90.0842789999999951
 51
182.084132000000011
  0
LINE
  5
212
100
AcDbEntity
100
AcDbLine
  8
0
 62
256
370
-1
  6
CONTINUOUS
 10
1.4313745000000004
 20
-0.9090004999999999
 30
0.0
 11
1.3953534999999988
 21
-0.9090534999999997
 31
0.0
  0
ARC
  5
213
100
AcDbEntity
  8
0
 62
256
370
-1
  6
CONTINUOUS
100
AcDbCircle
 10
1.3944805000000002
 20
-0.5270554999999997
 30
0.0
 40
0.062
100
AcDbArc
 50
178.0847009999999955
 51
270.0842789999999809
  0
LINE
  5
214
100
AcDbEntity
100
AcDbLine
  8
0
 62
256
370
-1
  6
CONTINUOUS
 10
1.3945714999999996
 20
-0.5890554999999997
 30
0.0
 11
1.4305924999999995
 21
-0.5890024999999999
 31
0.0
  0
ARC
  5
215
100
AcDbEntity
  8
0
 62
256
370
-1
  6
CONTINUOUS
100
AcDbCircle
 10
-1.2986925000000005
 20
-0.3783434999999997
 30
0.0
 40
0.035
100
AcDbArc
 50
89.9157210000000049
 51
181.9152990000000045
  0
ARC
  5
216
100
AcDbEntity
  8
0
 62
256
370
-1
  6
CONTINUOUS
100
AcDbCircle
 10
-1.4980225000000003
 20
-0.1548984999999998
 30
0.0
 40
0.03
100
AcDbArc
 50
269.9157129999999825
 51
89.9080739999999992
  0
LINE
  5
217
100
AcDbEntity
100
AcDbLine
  8
0
 62
256
370
-1
  6
CONTINUOUS
 10
-1.4981605
 20
-0.2480504999999997
 30
0.0
 11
-1.4939445000000005
 21
-0.3740744999999999
 31
0.0
  0
ARC
  5
218
100
AcDbEntity
  8
0
 62
256
370
-1
  6
CONTINUOUS
100
AcDbCircle
 10
-1.4929435
 20
-0.4040584999999999
 30
0.0
 40
0.03
100
AcDbArc
 50
271.9205049999999915
 51
91.912865999999994
  0
LINE
  5
219
100
AcDbEntity
100
AcDbLine
  8
0
 62
256
370
-1
  6
CONTINUOUS
 10
-1.4980665000000002
 20
-0.1848984999999999
 30
0.0
 11
-1.4981605
 21
-0.2480504999999997
 31
0.0
  0
ARC
  5
21A
100
AcDbEntity
  8
0
 62
256
370
-1
  6
CONTINUOUS
100
AcDbCircle
 10
-1.2809865
 20
-0.3783694999999998
 30
0.0
 40
0.035
100
AcDbArc
 50
44.9158639999999991
 51
89.9157210000000049
  0
LINE
  5
21B
100
AcDbEntity
100
AcDbLine
  8
0
 62
256
370
-1
  6
CONTINUOUS
 10
-1.2986405000000003
 20
-0.3433434999999998
 30
0.0
 11
-1.2809355
 21
-0.3433694999999997
 31
0.0
  0
ARC
  5
21C
100
AcDbEntity
  8
0
 62
256
370
-1
  6
CONTINUOUS
100
AcDbCircle
 10
0.0009844999999995
 20
-0.4323534999999998
 30
0.0
 40
0.188856
100
AcDbArc
 50
45.1962230000000034
 51
134.7288159999999948
  0
ARC
  5
21D
100
AcDbEntity
  8
0
 62
256
370
-1
  6
CONTINUOUS
100
AcDbCircle
 10
1.5017005000000001
 20
-0.1548984999999998
 30
0.0
 40
0.03
100
AcDbArc
 50
90.0919260000000008
 51
270.0842870000000175
  0
ARC
  5
21E
100
AcDbEntity
  8
0
 62
256
370
-1
  6
CONTINUOUS
100
AcDbCircle
 10
1.2846384999999998
 20
-0.3809504999999997
 30
0.0
 40
0.036734
100
AcDbArc
 50
90.038802000000004
 51
133.950443000000007
  0
LINE
  5
21F
100
AcDbEntity
100
AcDbLine
  8
0
 62
256
370
-1
  6
CONTINUOUS
 10
1.4976234999999996
 20
-0.3749214999999997
 30
0.0
 11
1.5018384999999999
 21
-0.2488974999999998
 31
0.0
  0
ARC
  5
220
100
AcDbEntity
  8
0
 62
256
370
-1
  6
CONTINUOUS
100
AcDbCircle
 10
1.3023705000000003
 20
-0.3791904999999998
 30
0.0
 40
0.035
100
AcDbArc
 50
358.0847009999999955
 51
90.0842789999999951
  0
LINE
  5
221
100
AcDbEntity
100
AcDbLine
  8
0
 62
256
370
-1
  6
CONTINUOUS
 10
1.284613499999999
 20
-0.3442164999999997
 30
0.0
 11
1.3023194999999994
 21
-0.3441904999999998
 31
0.0
  0
ARC
  5
222
100
AcDbEntity
  8
0
 62
256
370
-1
  6
CONTINUOUS
100
AcDbCircle
 10
1.4966214999999998
 20
-0.4049054999999997
 30
0.0
 40
0.03
100
AcDbArc
 50
88.087134000000006
 51
268.0794950000000085
  0
LINE
  5
223
100
AcDbEntity
100
AcDbLine
  8
0
 62
256
370
-1
  6
CONTINUOUS
 10
1.5018384999999999
 20
-0.2488974999999998
 30
0.0
 11
1.5017444999999991
 21
-0.1848984999999999
 31
0.0
  0
LINE
  5
224
100
AcDbEntity
100
AcDbLine
  8
0
 62
7
370
-1
  6
ByLayer
 10
1.4983404999999994
 20
0.1271055000000003
 30
0.0
 11
1.5016524999999987
 21
-0.1248984999999998
 31
0.0
  0
LINE
  5
225
100
AcDbEntity
100
AcDbLine
  8
0
 62
7
370
-1
  6
ByLayer
 10
-1.5020165000000008
 20
0.1271055000000003
 30
0.0
 11
-1.4987045000000006
 21
-0.1248984999999998
 31
0.0
  0
LINE
  5
226
100
AcDbEntity
100
AcDbLine
  8
0
 62
256
370
-1
  6
CONTINUOUS
 10
0.5824794999999998
 20
-0.4588924999999997
 30
0.0
 11
0.2541954999999998
 21
-0.1308834999999997
 31
0.0
  0
LINE
  5
227
100
AcDbEntity
100
AcDbLine
  8
0
 62
256
370
-1
  6
CONTINUOUS
 10
0.2526615000000003
 20
0.1335745000000004
 30
0.0
 11
0.5824664999999989
 21
0.4626325000000002
 31
0.0
  0
ARC
  5
228
100
AcDbEntity
  8
0
 62
256
370
-1
  6
CONTINUOUS
100
AcDbCircle
 10
0.3856614999999994
 20
0.0021125000000002
 30
0.0
 40
0.187005
100
AcDbArc
 50
135.3327510000000018
 51
225.3315010000000029
  0
ARC
  5
229
100
AcDbEntity
  8
0
 62
256
370
-1
  6
CONTINUOUS
100
AcDbCircle
 10
0.2526624999999996
 20
0.1335755000000001
 30
0.0
 40
0.000001
100
AcDbArc
 50
314.9999440000000277
 51
232.5928150000000016
  0
LINE
  5
22A
100
AcDbEntity
100
AcDbLine
  8
0
 62
256
370
-1
  6
CONTINUOUS
 10
0.9102804999999989
 20
-0.4588924999999997
 30
0.0
 11
1.238564499999999
 21
-0.1308834999999997
 31
0.0
  0
ARC
  5
22B
100
AcDbEntity
  8
0
 62
256
370
-1
  6
CONTINUOUS
100
AcDbCircle
 10
0.8158265
 20
-0.2975004999999997
 30
0.0
 40
0.187
100
AcDbArc
 50
270.0
 51
300.3383339999999748
  0
LINE
  5
22C
100
AcDbEntity
100
AcDbLine
  8
0
 62
256
370
-1
  6
CONTINUOUS
 10
1.2400985000000002
 20
0.1335745000000004
 30
0.0
 11
0.9102934999999999
 21
0.4626325000000002
 31
0.0
  0
ARC
  5
22D
100
AcDbEntity
  8
0
 62
256
370
-1
  6
CONTINUOUS
100
AcDbCircle
 10
0.8212855000000001
 20
0.2981745
 30
0.0
 40
0.187
100
AcDbArc
 50
61.576664000000001
 51
90.0
  0
ARC
  5
22E
100
AcDbEntity
  8
0
 62
256
370
-1
  6
CONTINUOUS
100
AcDbCircle
 10
1.1070995000000003
 20
0.0021125000000002
 30
0.0
 40
0.187005
100
AcDbArc
 50
314.6684989999999971
 51
44.6672489999999982
  0
ARC
  5
22F
100
AcDbEntity
  8
0
 62
256
370
-1
  6
CONTINUOUS
100
AcDbCircle
 10
1.2400985000000002
 20
0.1335755000000001
 30
0.0
 40
0.000001
100
AcDbArc
 50
307.4071850000000268
 51
225.0000560000000007
  0
LINE
  5
230
100
AcDbEntity
100
AcDbLine
  8
0
 62
256
370
-1
  6
CONTINUOUS
 10
-0.9154895000000005
 20
-0.4588924999999997
 30
0.0
 11
-1.2437735000000005
 21
-0.1308834999999997
 31
0.0
  0
LINE
  5
231
100
AcDbEntity
100
AcDbLine
  8
0
 62
256
370
-1
  6
CONTINUOUS
 10
-0.5876885000000005
 20
-0.4588924999999997
 30
0.0
 11
-0.2594045000000005
 21
-0.1308834999999997
 31
0.0
  0
ARC
  5
232
100
AcDbEntity
  8
0
 62
256
370
-1
  6
CONTINUOUS
100
AcDbCircle
 10
-0.6821425000000012
 20
-0.2975004999999997
 30
0.0
 40
0.187
100
AcDbArc
 50
270.0
 51
300.3383339999999748
  0
ARC
  5
233
100
AcDbEntity
  8
0
 62
256
370
-1
  6
CONTINUOUS
100
AcDbCircle
 10
-0.8210345000000006
 20
-0.2975004999999997
 30
0.0
 40
0.187
100
AcDbArc
 50
239.6616659999999683
 51
270.0
  0
LINE
  5
234
100
AcDbEntity
100
AcDbLine
  8
0
 62
256
370
-1
  6
CONTINUOUS
 10
-1.2453075
 20
0.1335745000000004
 30
0.0
 11
-0.9155025000000006
 21
0.4626325000000002
 31
0.0
  0
ARC
  5
235
100
AcDbEntity
  8
0
 62
256
370
-1
  6
CONTINUOUS
100
AcDbCircle
 10
-1.1123075
 20
0.0021125000000002
 30
0.0
 40
0.187005
100
AcDbArc
 50
135.3327510000000018
 51
225.3315010000000029
  0
ARC
  5
236
100
AcDbEntity
  8
0
 62
256
370
-1
  6
CONTINUOUS
100
AcDbCircle
 10
-1.2453065000000008
 20
0.1335755000000001
 30
0.0
 40
0.000001
100
AcDbArc
 50
314.9999440000000277
 51
232.5928150000000016
  0
ARC
  5
237
100
AcDbEntity
  8
0
 62
256
370
-1
  6
CONTINUOUS
100
AcDbCircle
 10
-0.6766835000000011
 20
0.2981745
 30
0.0
 40
0.187
100
AcDbArc
 50
61.576664000000001
 51
90.0
  0
ARC
  5
238
100
AcDbEntity
  8
0
 62
256
370
-1
  6
CONTINUOUS
100
AcDbCircle
 10
-0.8264935000000007
 20
0.2981745
 30
0.0
 40
0.187
100
AcDbArc
 50
90.0
 51
118.4233359999999919
  0
ARC
  5
239
100
AcDbEntity
  8
0
 62
256
370
-1
  6
CONTINUOUS
100
AcDbCircle
 10
-0.3908695000000009
 20
0.0021125000000002
 30
0.0
 40
0.187005
100
AcDbArc
 50
314.6684989999999971
 51
44.6672489999999982
  0
ARC
  5
23A
100
AcDbEntity
  8
0
 62
256
370
-1
  6
CONTINUOUS
100
AcDbCircle
 10
-0.257870500000001
 20
0.1335755000000001
 30
0.0
 40
0.000001
100
AcDbArc
 50
307.4071850000000268
 51
225.0000560000000007
  0
LINE
  5
23B
100
AcDbEntity
100
AcDbLine
  8
0
 62
256
370
-1
  6
ByLayer
 10
-0.8210345000000006
 20
-0.4845004999999997
 30
0.0
 11
-0.6821425000000012
 21
-0.4845004999999997
 31
0.0
  0
LINE
  5
23C
100
AcDbEntity
100
AcDbLine
  8
0
 62
256
370
-1
  6
ByLayer
 10
-0.8264935000000007
 20
0.4851745
 30
0.0
 11
-0.6766835000000011
 21
0.4851745
 31
0.0
  0
LINE
  5
23D
100
AcDbEntity
100
AcDbLine
  8
0
 62
256
370
-1
  6
ByLayer
 10
-0.5876747834005611
 20
0.4626325444044029
 30
0.0
 11
-0.257869892524545
 21
0.1335747056615519
 31
0.0
  0
LINE
  5
23E
100
AcDbEntity
100
AcDbLine
  8
0
 62
256
370
-1
  6
ByLayer
 10
0.6769344999999998
 20
-0.4845004999999997
 30
0.0
 11
0.8158265
 21
-0.4845004999999997
 31
0.0
  0
ENDSEC
  0
SECTION
  2
OBJECTS
  0
DICTIONARY
  5
C
100
AcDbDictionary
280
0
281
1
  3
ACAD_GROUP
350
D
  3
ACAD_LAYOUT
350
1A
  3
ACAD_MLINESTYLE
350
17
  3
ACAD_PLOTSETTINGS
350
19
  3
ACAD_PLOTSTYLENAME
350
E
  3
AcDbVariableDictionary
350
23F
  0
DICTIONARY
  5
D
100
AcDbDictionary
280
0
281
1
  0
ACDBDICTIONARYWDFLT
  5
E
100
AcDbDictionary
281
1
  3
Normal
350
F
100
AcDbDictionaryWithDefault
340
F
  0
ACDBPLACEHOLDER
  5
F
  0
DICTIONARY
  5
17
100
AcDbDictionary
280
0
281
1
  3
Standard
350
18
  0
MLINESTYLE
  5
18
100
AcDbMlineStyle
  2
STANDARD
 70
0
  3

 62
256
 51
90.0
 52
90.0
 71
2
 49
0.5
 62
256
  6
BYLAYER
 49
-0.5
 62
256
  6
BYLAYER
  0
DICTIONARY
  5
19
100
AcDbDictionary
280
0
281
1
  0
DICTIONARY
  5
1A
100
AcDbDictionary
281
1
  3
Layout1
350
1E
  3
Layout2
350
26
  3
Model
350
22
  0
LAYOUT
  5
1E
100
AcDbPlotSettings
  1

  2
C:\Program Files\AutoCAD 2002\plotters\DWF ePlot (optimized for plotting).pc3
  4

  6

 40
0.0
 41
0.0
 42
0.0
 43
0.0
 44
0.0
 45
0.0
 46
0.0
 47
0.0
 48
0.0
 49
0.0
140
0.0
141
0.0
142
1.0
143
1.0
 70
688
 72
0
 73
0
 74
5
  7

 75
16
147
1.0
148
0.0
149
0.0
100
AcDbLayout
  1
Layout1
 70
1
 71
1
 10
0.0
 20
0.0
 11
420.0
 21
297.0
 12
0.0
 22
0.0
 32
0.0
 14
100000000000000000000.0
 24
100000000000000000000.0
 34
100000000000000000000.0
 15
-100000000000000000000.0
 25
-100000000000000000000.0
 35
-100000000000000000000.0
146
0.0
 13
0.0
 23
0.0
 33
0.0
 16
1.0
 26
0.0
 36
0.0
 17
0.0
 27
1.0
 37
0.0
 76
0
330
1B
  0
LAYOUT
  5
22
100
AcDbPlotSettings
  1

  2
C:\Program Files\AutoCAD 2002\plotters\DWF ePlot (optimized for plotting).pc3
  4

  6

 40
0.0
 41
0.0
 42
0.0
 43
0.0
 44
0.0
 45
0.0
 46
0.0
 47
0.0
 48
0.0
 49
0.0
140
0.0
141
0.0
142
1.0
143
1.0
 70
1712
 72
0
 73
0
 74
0
  7

 75
0
147
1.0
148
0.0
149
0.0
100
AcDbLayout
  1
Model
 70
1
 71
0
 10
0.0
 20
0.0
 11
12.0
 21
9.0
 12
0.0
 22
0.0
 32
0.0
 14
0.0
 24
0.0
 34
0.0
 15
0.0
 25
0.0
 35
0.0
146
0.0
 13
0.0
 23
0.0
 33
0.0
 16
1.0
 26
0.0
 36
0.0
 17
0.0
 27
1.0
 37
0.0
 76
0
330
1F
  0
LAYOUT
  5
26
100
AcDbPlotSettings
  1

  2
C:\Program Files\AutoCAD 2002\plotters\DWF ePlot (optimized for plotting).pc3
  4

  6

 40
0.0
 41
0.0
 42
0.0
 43
0.0
 44
0.0
 45
0.0
 46
0.0
 47
0.0
 48
0.0
 49
0.0
140
0.0
141
0.0
142
1.0
143
1.0
 70
688
 72
0
 73
0
 74
5
  7

 75
16
147
1.0
148
0.0
149
0.0
100
AcDbLayout
  1
Layout2
 70
1
 71
2
 10
0.0
 20
0.0
 11
12.0
 21
9.0
 12
0.0
 22
0.0
 32
0.0
 14
0.0
 24
0.0
 34
0.0
 15
0.0
 25
0.0
 35
0.0
146
0.0
 13
0.0
 23
0.0
 33
0.0
 16
1.0
 26
0.0
 36
0.0
 17
0.0
 27
1.0
 37
0.0
 76
0
330
23
  0
DICTIONARY
  5
23F
100
AcDbDictionary
281
1
  3
DIMASSOC
350
241
  3
HIDETEXT
350
240
  0
DICTIONARYVAR
  5
240
100
DictionaryVariables
280
0
  1
2
  0
DICTIONARYVAR
  5
241
100
DictionaryVariables
280
0
  1
1
  0
ENDSEC
  0
EOF
