999
dxflib 2.0.4.8
  0
SECTION
  2
HEADER
  9
$ACADVER
  1
AC1015
  9
$HANDSEED
  5
FFFF
  9
$DIMASZ
 40
2.5
  9
$DIMGAP
 40
0.625
  9
$DIMEXO
 40
0.625
  9
$INSUNITS
 70
4
  9
$DIMTXT
 40
2.5
  9
$DIMSTYLE
  2
Standard
  9
$PLIMMAX
 10
210.0
 20
297.0
  9
$PLIMMIN
 10
0.0
 20
0.0
  9
$DIMEXE
 40
1.25
  0
ENDSEC
  0
SECTION
  2
TABLES
  0
TABLE
  2
VPORT
  5
8
100
AcDbSymbolTable
 70
1
  0
VPORT
  5
30
100
AcDbSymbolTableRecord
100
AcDbViewportTableRecord
  2
*Active
 70
0
 10
0.0
 20
0.0
 11
1.0
 21
1.0
 12
286.3055555555554861
 22
148.5
 13
0.0
 23
0.0
 14
10.0
 24
10.0
 15
10.0
 25
10.0
 16
0.0
 26
0.0
 36
1.0
 17
0.0
 27
0.0
 37
0.0
 40
297.0
 41
1.92798353909465
 42
50.0
 43
0.0
 44
0.0
 50
0.0
 51
0.0
 71
0
 72
100
 73
1
 74
3
 75
1
 76
1
 77
0
 78
0
281
0
 65
1
110
0.0
120
0.0
130
0.0
111
1.0
121
0.0
131
0.0
112
0.0
122
1.0
132
0.0
 79
0
146
0.0
  0
ENDTAB
  0
TABLE
  2
LTYPE
  5
5
100
AcDbSymbolTable
 70
21
  0
LTYPE
  5
14
100
AcDbSymbolTableRecord
100
AcDbLinetypeTableRecord
  2
ByBlock
 70
0
  3

 72
65
 73
0
 40
0.0
  0
LTYPE
  5
15
100
AcDbSymbolTableRecord
100
AcDbLinetypeTableRecord
  2
ByLayer
 70
0
  3

 72
65
 73
0
 40
0.0
  0
LTYPE
  5
16
100
AcDbSymbolTableRecord
100
AcDbLinetypeTableRecord
  2
CONTINUOUS
 70
0
  3
Solid line
 72
65
 73
0
 40
0.0
  0
LTYPE
  5
31
100
AcDbSymbolTableRecord
100
AcDbLinetypeTableRecord
  2
DOT
 70
0
  3
Dot . . . . . . . . . . . . . . . . . . . . . .
 72
65
 73
2
 40
6.3499999999999996
 49
0.0
 74
0
 49
-6.3499999999999996
 74
0
  0
LTYPE
  5
32
100
AcDbSymbolTableRecord
100
AcDbLinetypeTableRecord
  2
DOT2
 70
0
  3
Dot (.5x) .....................................
 72
65
 73
2
 40
3.1749999999999998
 49
0.0
 74
0
 49
-3.1749999999999998
 74
0
  0
LTYPE
  5
33
100
AcDbSymbolTableRecord
100
AcDbLinetypeTableRecord
  2
DOTX2
 70
0
  3
Dot (2x) .  .  .  .  .  .  .  .  .  .  .  .  .
 72
65
 73
2
 40
12.6999999999999993
 49
0.0
 74
0
 49
-12.6999999999999993
 74
0
  0
LTYPE
  5
34
100
AcDbSymbolTableRecord
100
AcDbLinetypeTableRecord
  2
DASHED
 70
0
  3
Dashed __ __ __ __ __ __ __ __ __ __ __ __ __ _
 72
65
 73
2
 40
19.0500000000000007
 49
12.6999999999999993
 74
0
 49
-6.3499999999999996
 74
0
  0
LTYPE
  5
35
100
AcDbSymbolTableRecord
100
AcDbLinetypeTableRecord
  2
DASHED2
 70
0
  3
Dashed (.5x) _ _ _ _ _ _ _ _ _ _ _ _ _ _ _ _ _
 72
65
 73
2
 40
9.5250000000000004
 49
6.3499999999999996
 74
0
 49
-3.1749999999999998
 74
0
  0
LTYPE
  5
36
100
AcDbSymbolTableRecord
100
AcDbLinetypeTableRecord
  2
DASHEDX2
 70
0
  3
Dashed (2x) ____  ____  ____  ____  ____  ___
 72
65
 73
2
 40
38.1000000000000014
 49
25.3999999999999986
 74
0
 49
-12.6999999999999993
 74
0
  0
LTYPE
  5
37
100
AcDbSymbolTableRecord
100
AcDbLinetypeTableRecord
  2
DASHDOT
 70
0
  3
Dash dot __ . __ . __ . __ . __ . __ . __ . __
 72
65
 73
4
 40
25.3999999999999986
 49
12.6999999999999993
 74
0
 49
-6.3499999999999996
 74
0
 49
0.0
 74
0
 49
-6.3499999999999996
 74
0
  0
LTYPE
  5
38
100
AcDbSymbolTableRecord
100
AcDbLinetypeTableRecord
  2
DASHDOT2
 70
0
  3
Dash dot (.5x) _._._._._._._._._._._._._._._.
 72
65
 73
4
 40
12.6999999999999993
 49
6.3499999999999996
 74
0
 49
-3.1749999999999998
 74
0
 49
0.0
 74
0
 49
-3.1749999999999998
 74
0
  0
LTYPE
  5
39
100
AcDbSymbolTableRecord
100
AcDbLinetypeTableRecord
  2
DASHDOTX2
 70
0
  3
Dash dot (2x) ____  .  ____  .  ____  .  ___
 72
65
 73
4
 40
50.7999999999999972
 49
25.3999999999999986
 74
0
 49
-12.6999999999999993
 74
0
 49
0.0
 74
0
 49
-12.6999999999999993
 74
0
  0
LTYPE
  5
3A
100
AcDbSymbolTableRecord
100
AcDbLinetypeTableRecord
  2
DIVIDE
 70
0
  3
Divide ____ . . ____ . . ____ . . ____ . . ____
 72
65
 73
6
 40
31.75
 49
12.6999999999999993
 74
0
 49
-6.3499999999999996
 74
0
 49
0.0
 74
0
 49
-6.3499999999999996
 74
0
 49
0.0
 74
0
 49
-6.3499999999999996
 74
0
  0
LTYPE
  5
3B
100
AcDbSymbolTableRecord
100
AcDbLinetypeTableRecord
  2
DIVIDE2
 70
0
  3
Divide (.5x) __..__..__..__..__..__..__..__.._
 72
65
 73
6
 40
15.875
 49
6.3499999999999996
 74
0
 49
-3.1749999999999998
 74
0
 49
0.0
 74
0
 49
-3.1749999999999998
 74
0
 49
0.0
 74
0
 49
-3.1749999999999998
 74
0
  0
LTYPE
  5
3C
100
AcDbSymbolTableRecord
100
AcDbLinetypeTableRecord
  2
DIVIDEX2
 70
0
  3
Divide (2x) ________  .  .  ________  .  .  _
 72
65
 73
6
 40
63.5
 49
25.3999999999999986
 74
0
 49
-12.6999999999999993
 74
0
 49
0.0
 74
0
 49
-12.6999999999999993
 74
0
 49
0.0
 74
0
 49
-12.6999999999999993
 74
0
  0
LTYPE
  5
3D
100
AcDbSymbolTableRecord
100
AcDbLinetypeTableRecord
  2
CENTER
 70
0
  3
Center ____ _ ____ _ ____ _ ____ _ ____ _ ____
 72
65
 73
4
 40
50.7999999999999972
 49
31.75
 74
0
 49
-6.3499999999999996
 74
0
 49
6.3499999999999996
 74
0
 49
-6.3499999999999996
 74
0
  0
LTYPE
  5
3E
100
AcDbSymbolTableRecord
100
AcDbLinetypeTableRecord
  2
CENTER2
 70
0
  3
Center (.5x) ___ _ ___ _ ___ _ ___ _ ___ _ ___
 72
65
 73
4
 40
28.5749999999999993
 49
19.0500000000000007
 74
0
 49
-3.1749999999999998
 74
0
 49
3.1749999999999998
 74
0
 49
-3.1749999999999998
 74
0
  0
LTYPE
  5
3F
100
AcDbSymbolTableRecord
100
AcDbLinetypeTableRecord
  2
CENTERX2
 70
0
  3
Center (2x) ________  __  ________  __  _____
 72
65
 73
4
 40
101.5999999999999943
 49
63.5
 74
0
 49
-12.6999999999999993
 74
0
 49
12.6999999999999993
 74
0
 49
-12.6999999999999993
 74
0
  0
LTYPE
  5
40
100
AcDbSymbolTableRecord
100
AcDbLinetypeTableRecord
  2
BORDER
 70
0
  3
Border __ __ . __ __ . __ __ . __ __ . __ __ .
 72
65
 73
6
 40
44.4500000000000028
 49
12.6999999999999993
 74
0
 49
-6.3499999999999996
 74
0
 49
12.6999999999999993
 74
0
 49
-6.3499999999999996
 74
0
 49
0.0
 74
0
 49
-6.3499999999999996
 74
0
  0
LTYPE
  5
41
100
AcDbSymbolTableRecord
100
AcDbLinetypeTableRecord
  2
BORDER2
 70
0
  3
Border (.5x) __.__.__.__.__.__.__.__.__.__.__.
 72
65
 73
6
 40
22.2250000000000014
 49
6.3499999999999996
 74
0
 49
-3.1749999999999998
 74
0
 49
6.3499999999999996
 74
0
 49
-3.1749999999999998
 74
0
 49
0.0
 74
0
 49
-3.1749999999999998
 74
0
  0
LTYPE
  5
42
100
AcDbSymbolTableRecord
100
AcDbLinetypeTableRecord
  2
BORDERX2
 70
0
  3
Border (2x) ____  ____  .  ____  ____  .  ___
 72
65
 73
6
 40
88.9000000000000057
 49
25.3999999999999986
 74
0
 49
-12.6999999999999993
 74
0
 49
25.3999999999999986
 74
0
 49
-12.6999999999999993
 74
0
 49
0.0
 74
0
 49
-12.6999999999999993
 74
0
  0
ENDTAB
  0
TABLE
  2
LAYER
  5
2
100
AcDbSymbolTable
 70
1
  0
LAYER
  5
10
100
AcDbSymbolTableRecord
100
AcDbLayerTableRecord
  2
0
 70
0
 62
7
  6
CONTINUOUS
370
0
390
F
  0
ENDTAB
  0
TABLE
  2
STYLE
  5
3
100
AcDbSymbolTable
 70
1
  0
STYLE
  5
11
100
AcDbSymbolTableRecord
100
AcDbTextStyleTableRecord
  2
Standard
 70
0
 40
0.0
 41
0.75
 50
0.0
 71
0
 42
2.5
  3
txt
  4

  0
ENDTAB
  0
TABLE
  2
VIEW
  5
6
100
AcDbSymbolTable
 70
0
  0
ENDTAB
  0
TABLE
  2
UCS
  5
7
100
AcDbSymbolTable
 70
0
  0
ENDTAB
  0
TABLE
  2
APPID
  5
9
100
AcDbSymbolTable
 70
1
  0
APPID
  5
12
100
AcDbSymbolTableRecord
100
AcDbRegAppTableRecord
  2
ACAD
 70
0
  0
ENDTAB
  0
TABLE
  2
DIMSTYLE
  5
A
100
AcDbSymbolTable
 70
1
100
AcDbDimStyleTable
 71
0
  0
DIMSTYLE
105
27
100
AcDbSymbolTableRecord
100
AcDbDimStyleTableRecord
  2
Standard
 41
2.5
 42
0.625
 43
3.75
 44
1.25
 70
0
 73
0
 74
0
 77
1
 78
8
140
2.5
141
2.5
143
0.03937007874016
147
0.625
171
3
172
1
271
2
272
2
274
3
278
44
283
0
284
8
340
11
  0
ENDTAB
  0
TABLE
  2
BLOCK_RECORD
  5
1
100
AcDbSymbolTable
 70
1
  0
BLOCK_RECORD
  5
1F
100
AcDbSymbolTableRecord
100
AcDbBlockTableRecord
  2
*Model_Space
340
22
  0
BLOCK_RECORD
  5
1B
100
AcDbSymbolTableRecord
100
AcDbBlockTableRecord
  2
*Paper_Space
340
1E
  0
BLOCK_RECORD
  5
23
100
AcDbSymbolTableRecord
100
AcDbBlockTableRecord
  2
*Paper_Space0
340
26
  0
ENDTAB
  0
ENDSEC
  0
SECTION
  2
BLOCKS
  0
BLOCK
  5
20
100
AcDbEntity
  8
0
100
AcDbBlockBegin
  2
*Model_Space
 70
0
 10
0.0
 20
0.0
 30
0.0
  3
*Model_Space
  1

  0
ENDBLK
  5
21
100
AcDbEntity
  8
0
100
AcDbBlockEnd
  0
BLOCK
  5
1C
100
AcDbEntity
 67
1
  8
0
100
AcDbBlockBegin
  2
*Paper_Space
 70
0
 10
0.0
 20
0.0
 30
0.0
  3
*Paper_Space
  1

  0
ENDBLK
  5
1D
100
AcDbEntity
 67
1
  8
0
100
AcDbBlockEnd
  0
BLOCK
  5
24
100
AcDbEntity
  8
0
100
AcDbBlockBegin
  2
*Paper_Space0
 70
0
 10
0.0
 20
0.0
 30
0.0
  3
*Paper_Space0
  1

  0
ENDBLK
  5
25
100
AcDbEntity
  8
0
100
AcDbBlockEnd
  0
ENDSEC
  0
SECTION
  2
ENTITIES
  0
LINE
  5
43
100
AcDbEntity
100
AcDbLine
  8
0
 62
256
370
-1
  6
ByLayer
 10
-336.1999999999999886
 20
-6.3499999999999996
 30
0.0
 11
-336.1999999999999886
 21
6.3499999999999996
 31
0.0
  0
LINE
  5
44
100
AcDbEntity
100
AcDbLine
  8
0
 62
256
370
-1
  6
ByLayer
 10
-336.1999999999999886
 20
6.3499999999999996
 30
0.0
 11
-330.1999999999999886
 21
6.3499999999999996
 31
0.0
  0
LINE
  5
45
100
AcDbEntity
100
AcDbLine
  8
0
 62
256
370
-1
  6
ByLayer
 10
-330.1999999999999886
 20
6.3499999999999996
 30
0.0
 11
-330.1999999999999886
 21
50.7999999999999972
 31
0.0
  0
LINE
  5
46
100
AcDbEntity
100
AcDbLine
  8
0
 62
256
370
-1
  6
ByLayer
 10
-330.1999999999999886
 20
50.7999999999999972
 30
0.0
 11
-210.8199999999999932
 21
50.7999999999999972
 31
0.0
  0
LINE
  5
47
100
AcDbEntity
100
AcDbLine
  8
0
 62
256
370
-1
  6
ByLayer
 10
-210.8199999999999932
 20
50.7999999999999972
 30
0.0
 11
-210.8199999999999932
 21
56.7999999999999972
 31
0.0
  0
LINE
  5
48
100
AcDbEntity
100
AcDbLine
  8
0
 62
256
370
-1
  6
ByLayer
 10
-210.8199999999999932
 20
56.7999999999999972
 30
0.0
 11
-185.4199999999999875
 21
56.7999999999999972
 31
0.0
  0
LINE
  5
49
100
AcDbEntity
100
AcDbLine
  8
0
 62
256
370
-1
  6
ByLayer
 10
-185.4199999999999875
 20
56.7999999999999972
 30
0.0
 11
-185.4199999999999875
 21
50.7999999999999972
 31
0.0
  0
LINE
  5
4A
100
AcDbEntity
100
AcDbLine
  8
0
 62
256
370
-1
  6
ByLayer
 10
-185.4199999999999875
 20
50.7999999999999972
 30
0.0
 11
-78.7399999999999949
 21
50.7999999999999972
 31
0.0
  0
LINE
  5
4B
100
AcDbEntity
100
AcDbLine
  8
0
 62
256
370
-1
  6
ByLayer
 10
-78.7399999999999949
 20
50.7999999999999972
 30
0.0
 11
-78.7399999999999949
 21
56.7999999999999972
 31
0.0
  0
LINE
  5
4C
100
AcDbEntity
100
AcDbLine
  8
0
 62
256
370
-1
  6
ByLayer
 10
-78.7399999999999949
 20
56.7999999999999972
 30
0.0
 11
-53.3400000000000034
 21
56.7999999999999972
 31
0.0
  0
LINE
  5
4D
100
AcDbEntity
100
AcDbLine
  8
0
 62
256
370
-1
  6
ByLayer
 10
-53.3400000000000034
 20
56.7999999999999972
 30
0.0
 11
-53.3400000000000034
 21
50.7999999999999972
 31
0.0
  0
LINE
  5
4E
100
AcDbEntity
100
AcDbLine
  8
0
 62
256
370
-1
  6
ByLayer
 10
-53.3400000000000034
 20
50.7999999999999972
 30
0.0
 11
53.3400000000000034
 21
50.7999999999999972
 31
0.0
  0
LINE
  5
4F
100
AcDbEntity
100
AcDbLine
  8
0
 62
256
370
-1
  6
ByLayer
 10
53.3400000000000034
 20
50.7999999999999972
 30
0.0
 11
53.3400000000000034
 21
56.7999999999999972
 31
0.0
  0
LINE
  5
50
100
AcDbEntity
100
AcDbLine
  8
0
 62
256
370
-1
  6
ByLayer
 10
53.3400000000000034
 20
56.7999999999999972
 30
0.0
 11
78.7399999999999949
 21
56.7999999999999972
 31
0.0
  0
LINE
  5
51
100
AcDbEntity
100
AcDbLine
  8
0
 62
256
370
-1
  6
ByLayer
 10
78.7399999999999949
 20
56.7999999999999972
 30
0.0
 11
78.7399999999999949
 21
50.7999999999999972
 31
0.0
  0
LINE
  5
52
100
AcDbEntity
100
AcDbLine
  8
0
 62
256
370
-1
  6
ByLayer
 10
78.7399999999999949
 20
50.7999999999999972
 30
0.0
 11
185.4199999999999875
 21
50.7999999999999972
 31
0.0
  0
LINE
  5
53
100
AcDbEntity
100
AcDbLine
  8
0
 62
256
370
-1
  6
ByLayer
 10
185.4199999999999875
 20
50.7999999999999972
 30
0.0
 11
185.4199999999999875
 21
56.7999999999999972
 31
0.0
  0
LINE
  5
54
100
AcDbEntity
100
AcDbLine
  8
0
 62
256
370
-1
  6
ByLayer
 10
185.4199999999999875
 20
56.7999999999999972
 30
0.0
 11
210.8199999999999932
 21
56.7999999999999972
 31
0.0
  0
LINE
  5
55
100
AcDbEntity
100
AcDbLine
  8
0
 62
256
370
-1
  6
ByLayer
 10
210.8199999999999932
 20
56.7999999999999972
 30
0.0
 11
210.8199999999999932
 21
50.7999999999999972
 31
0.0
  0
LINE
  5
56
100
AcDbEntity
100
AcDbLine
  8
0
 62
256
370
-1
  6
ByLayer
 10
210.8199999999999932
 20
50.7999999999999972
 30
0.0
 11
330.1999999999999886
 21
50.7999999999999972
 31
0.0
  0
LINE
  5
57
100
AcDbEntity
100
AcDbLine
  8
0
 62
256
370
-1
  6
ByLayer
 10
330.1999999999999886
 20
50.7999999999999972
 30
0.0
 11
330.1999999999999886
 21
6.3499999999999996
 31
0.0
  0
LINE
  5
58
100
AcDbEntity
100
AcDbLine
  8
0
 62
256
370
-1
  6
ByLayer
 10
330.1999999999999886
 20
6.3499999999999996
 30
0.0
 11
336.1999999999999886
 21
6.3499999999999996
 31
0.0
  0
LINE
  5
59
100
AcDbEntity
100
AcDbLine
  8
0
 62
256
370
-1
  6
ByLayer
 10
336.1999999999999886
 20
6.3499999999999996
 30
0.0
 11
336.1999999999999886
 21
-6.3499999999999996
 31
0.0
  0
LINE
  5
5A
100
AcDbEntity
100
AcDbLine
  8
0
 62
256
370
-1
  6
ByLayer
 10
336.1999999999999886
 20
-6.3499999999999996
 30
0.0
 11
330.1999999999999886
 21
-6.3499999999999996
 31
0.0
  0
LINE
  5
5B
100
AcDbEntity
100
AcDbLine
  8
0
 62
256
370
-1
  6
ByLayer
 10
330.1999999999999886
 20
-6.3499999999999996
 30
0.0
 11
330.1999999999999886
 21
-50.7999999999999972
 31
0.0
  0
LINE
  5
5C
100
AcDbEntity
100
AcDbLine
  8
0
 62
256
370
-1
  6
ByLayer
 10
330.1999999999999886
 20
-50.7999999999999972
 30
0.0
 11
210.8199999999999932
 21
-50.7999999999999972
 31
0.0
  0
LINE
  5
5D
100
AcDbEntity
100
AcDbLine
  8
0
 62
256
370
-1
  6
ByLayer
 10
210.8199999999999932
 20
-50.7999999999999972
 30
0.0
 11
210.8199999999999932
 21
-56.7999999999999972
 31
0.0
  0
LINE
  5
5E
100
AcDbEntity
100
AcDbLine
  8
0
 62
256
370
-1
  6
ByLayer
 10
210.8199999999999932
 20
-56.7999999999999972
 30
0.0
 11
185.4199999999999875
 21
-56.7999999999999972
 31
0.0
  0
LINE
  5
5F
100
AcDbEntity
100
AcDbLine
  8
0
 62
256
370
-1
  6
ByLayer
 10
185.4199999999999875
 20
-56.7999999999999972
 30
0.0
 11
185.4199999999999875
 21
-50.7999999999999972
 31
0.0
  0
LINE
  5
60
100
AcDbEntity
100
AcDbLine
  8
0
 62
256
370
-1
  6
ByLayer
 10
185.4199999999999875
 20
-50.7999999999999972
 30
0.0
 11
78.7399999999999949
 21
-50.7999999999999972
 31
0.0
  0
LINE
  5
61
100
AcDbEntity
100
AcDbLine
  8
0
 62
256
370
-1
  6
ByLayer
 10
78.7399999999999949
 20
-50.7999999999999972
 30
0.0
 11
78.7399999999999949
 21
-56.7999999999999972
 31
0.0
  0
LINE
  5
62
100
AcDbEntity
100
AcDbLine
  8
0
 62
256
370
-1
  6
ByLayer
 10
78.7399999999999949
 20
-56.7999999999999972
 30
0.0
 11
53.3400000000000034
 21
-56.7999999999999972
 31
0.0
  0
LINE
  5
63
100
AcDbEntity
100
AcDbLine
  8
0
 62
256
370
-1
  6
ByLayer
 10
53.3400000000000034
 20
-56.7999999999999972
 30
0.0
 11
53.3400000000000034
 21
-50.7999999999999972
 31
0.0
  0
LINE
  5
64
100
AcDbEntity
100
AcDbLine
  8
0
 62
256
370
-1
  6
ByLayer
 10
53.3400000000000034
 20
-50.7999999999999972
 30
0.0
 11
-53.3400000000000034
 21
-50.7999999999999972
 31
0.0
  0
LINE
  5
65
100
AcDbEntity
100
AcDbLine
  8
0
 62
256
370
-1
  6
ByLayer
 10
-53.3400000000000034
 20
-50.7999999999999972
 30
0.0
 11
-53.3400000000000034
 21
-56.7999999999999972
 31
0.0
  0
LINE
  5
66
100
AcDbEntity
100
AcDbLine
  8
0
 62
256
370
-1
  6
ByLayer
 10
-53.3400000000000034
 20
-56.7999999999999972
 30
0.0
 11
-78.7399999999999949
 21
-56.7999999999999972
 31
0.0
  0
LINE
  5
67
100
AcDbEntity
100
AcDbLine
  8
0
 62
256
370
-1
  6
ByLayer
 10
-78.7399999999999949
 20
-56.7999999999999972
 30
0.0
 11
-78.7399999999999949
 21
-50.7999999999999972
 31
0.0
  0
LINE
  5
68
100
AcDbEntity
100
AcDbLine
  8
0
 62
256
370
-1
  6
ByLayer
 10
-78.7399999999999949
 20
-50.7999999999999972
 30
0.0
 11
-185.4199999999999875
 21
-50.7999999999999972
 31
0.0
  0
LINE
  5
69
100
AcDbEntity
100
AcDbLine
  8
0
 62
256
370
-1
  6
ByLayer
 10
-185.4199999999999875
 20
-50.7999999999999972
 30
0.0
 11
-185.4199999999999875
 21
-56.7999999999999972
 31
0.0
  0
LINE
  5
6A
100
AcDbEntity
100
AcDbLine
  8
0
 62
256
370
-1
  6
ByLayer
 10
-185.4199999999999875
 20
-56.7999999999999972
 30
0.0
 11
-210.8199999999999932
 21
-56.7999999999999972
 31
0.0
  0
LINE
  5
6B
100
AcDbEntity
100
AcDbLine
  8
0
 62
256
370
-1
  6
ByLayer
 10
-210.8199999999999932
 20
-56.7999999999999972
 30
0.0
 11
-210.8199999999999932
 21
-50.7999999999999972
 31
0.0
  0
LINE
  5
6C
100
AcDbEntity
100
AcDbLine
  8
0
 62
256
370
-1
  6
ByLayer
 10
-210.8199999999999932
 20
-50.7999999999999972
 30
0.0
 11
-330.1999999999999886
 21
-50.7999999999999972
 31
0.0
  0
LINE
  5
6D
100
AcDbEntity
100
AcDbLine
  8
0
 62
256
370
-1
  6
ByLayer
 10
-330.1999999999999886
 20
-50.7999999999999972
 30
0.0
 11
-330.1999999999999886
 21
-6.3499999999999996
 31
0.0
  0
LINE
  5
6E
100
AcDbEntity
100
AcDbLine
  8
0
 62
256
370
-1
  6
ByLayer
 10
-330.1999999999999886
 20
-6.3499999999999996
 30
0.0
 11
-336.1999999999999886
 21
-6.3499999999999996
 31
0.0
  0
LINE
  5
6F
100
AcDbEntity
100
AcDbLine
  8
0
 62
256
370
-1
  6
ByLayer
 10
-126.6880000000000024
 20
-10.0
 30
0.0
 11
-126.679000000000002
 21
-9.8599999999999994
 31
0.0
  0
LINE
  5
70
100
AcDbEntity
100
AcDbLine
  8
0
 62
256
370
-1
  6
ByLayer
 10
-126.679000000000002
 20
-9.8599999999999994
 30
0.0
 11
-126.652000000000001
 21
-9.7219999999999995
 31
0.0
  0
LINE
  5
71
100
AcDbEntity
100
AcDbLine
  8
0
 62
256
370
-1
  6
ByLayer
 10
-126.652000000000001
 20
-9.7219999999999995
 30
0.0
 11
-126.6089999999999947
 21
-9.5890000000000004
 31
0.0
  0
LINE
  5
72
100
AcDbEntity
100
AcDbLine
  8
0
 62
256
370
-1
  6
ByLayer
 10
-126.6089999999999947
 20
-9.5890000000000004
 30
0.0
 11
-126.5490000000000066
 21
-9.4619999999999997
 31
0.0
  0
LINE
  5
73
100
AcDbEntity
100
AcDbLine
  8
0
 62
256
370
-1
  6
ByLayer
 10
-126.5490000000000066
 20
-9.4619999999999997
 30
0.0
 11
-126.4740000000000038
 21
-9.343
 31
0.0
  0
LINE
  5
74
100
AcDbEntity
100
AcDbLine
  8
0
 62
256
370
-1
  6
ByLayer
 10
-126.4740000000000038
 20
-9.343
 30
0.0
 11
-126.3850000000000051
 21
-9.2349999999999994
 31
0.0
  0
LINE
  5
75
100
AcDbEntity
100
AcDbLine
  8
0
 62
256
370
-1
  6
ByLayer
 10
-126.3850000000000051
 20
-9.2349999999999994
 30
0.0
 11
-126.2819999999999965
 21
-9.1389999999999993
 31
0.0
  0
LINE
  5
76
100
AcDbEntity
100
AcDbLine
  8
0
 62
256
370
-1
  6
ByLayer
 10
-126.2819999999999965
 20
-9.1389999999999993
 30
0.0
 11
-126.1689999999999969
 21
-9.0559999999999992
 31
0.0
  0
LINE
  5
77
100
AcDbEntity
100
AcDbLine
  8
0
 62
256
370
-1
  6
ByLayer
 10
-126.1689999999999969
 20
-9.0559999999999992
 30
0.0
 11
-126.0460000000000065
 21
-8.9890000000000008
 31
0.0
  0
LINE
  5
78
100
AcDbEntity
100
AcDbLine
  8
0
 62
256
370
-1
  6
ByLayer
 10
-126.0460000000000065
 20
-8.9890000000000008
 30
0.0
 11
-125.9150000000000063
 21
-8.9369999999999994
 31
0.0
  0
LINE
  5
79
100
AcDbEntity
100
AcDbLine
  8
0
 62
256
370
-1
  6
ByLayer
 10
-125.9150000000000063
 20
-8.9369999999999994
 30
0.0
 11
-125.7789999999999964
 21
-8.9019999999999992
 31
0.0
  0
LINE
  5
7A
100
AcDbEntity
100
AcDbLine
  8
0
 62
256
370
-1
  6
ByLayer
 10
-125.7789999999999964
 20
-8.9019999999999992
 30
0.0
 11
-125.6400000000000006
 21
-8.8849999999999998
 31
0.0
  0
LINE
  5
7B
100
AcDbEntity
100
AcDbLine
  8
0
 62
256
370
-1
  6
ByLayer
 10
-125.6400000000000006
 20
-8.8849999999999998
 30
0.0
 11
-125.5
 21
-8.8849999999999998
 31
0.0
  0
LINE
  5
7C
100
AcDbEntity
100
AcDbLine
  8
0
 62
256
370
-1
  6
ByLayer
 10
-125.5
 20
-8.8849999999999998
 30
0.0
 11
-125.3610000000000042
 21
-8.9019999999999992
 31
0.0
  0
LINE
  5
7D
100
AcDbEntity
100
AcDbLine
  8
0
 62
256
370
-1
  6
ByLayer
 10
-125.3610000000000042
 20
-8.9019999999999992
 30
0.0
 11
-125.2249999999999943
 21
-8.9369999999999994
 31
0.0
  0
LINE
  5
7E
100
AcDbEntity
100
AcDbLine
  8
0
 62
256
370
-1
  6
ByLayer
 10
-125.2249999999999943
 20
-8.9369999999999994
 30
0.0
 11
-125.0939999999999941
 21
-8.9890000000000008
 31
0.0
  0
LINE
  5
7F
100
AcDbEntity
100
AcDbLine
  8
0
 62
256
370
-1
  6
ByLayer
 10
-125.0939999999999941
 20
-8.9890000000000008
 30
0.0
 11
-124.9710000000000036
 21
-9.0559999999999992
 31
0.0
  0
LINE
  5
80
100
AcDbEntity
100
AcDbLine
  8
0
 62
256
370
-1
  6
ByLayer
 10
-124.9710000000000036
 20
-9.0559999999999992
 30
0.0
 11
-124.8580000000000041
 21
-9.1389999999999993
 31
0.0
  0
LINE
  5
81
100
AcDbEntity
100
AcDbLine
  8
0
 62
256
370
-1
  6
ByLayer
 10
-124.8580000000000041
 20
-9.1389999999999993
 30
0.0
 11
-124.7549999999999955
 21
-9.2349999999999994
 31
0.0
  0
LINE
  5
82
100
AcDbEntity
100
AcDbLine
  8
0
 62
256
370
-1
  6
ByLayer
 10
-124.7549999999999955
 20
-9.2349999999999994
 30
0.0
 11
-124.6659999999999968
 21
-9.343
 31
0.0
  0
LINE
  5
83
100
AcDbEntity
100
AcDbLine
  8
0
 62
256
370
-1
  6
ByLayer
 10
-124.6659999999999968
 20
-9.343
 30
0.0
 11
-124.590999999999994
 21
-9.4619999999999997
 31
0.0
  0
LINE
  5
84
100
AcDbEntity
100
AcDbLine
  8
0
 62
256
370
-1
  6
ByLayer
 10
-124.590999999999994
 20
-9.4619999999999997
 30
0.0
 11
-124.5310000000000059
 21
-9.5890000000000004
 31
0.0
  0
LINE
  5
85
100
AcDbEntity
100
AcDbLine
  8
0
 62
256
370
-1
  6
ByLayer
 10
-124.5310000000000059
 20
-9.5890000000000004
 30
0.0
 11
-124.4879999999999995
 21
-9.7219999999999995
 31
0.0
  0
LINE
  5
86
100
AcDbEntity
100
AcDbLine
  8
0
 62
256
370
-1
  6
ByLayer
 10
-124.4879999999999995
 20
-9.7219999999999995
 30
0.0
 11
-124.4609999999999985
 21
-9.8599999999999994
 31
0.0
  0
LINE
  5
87
100
AcDbEntity
100
AcDbLine
  8
0
 62
256
370
-1
  6
ByLayer
 10
-124.4609999999999985
 20
-9.8599999999999994
 30
0.0
 11
-124.4519999999999982
 21
-10.0
 31
0.0
  0
LINE
  5
88
100
AcDbEntity
100
AcDbLine
  8
0
 62
256
370
-1
  6
ByLayer
 10
-124.4519999999999982
 20
-10.0
 30
0.0
 11
-124.4609999999999985
 21
-10.1400000000000006
 31
0.0
  0
LINE
  5
89
100
AcDbEntity
100
AcDbLine
  8
0
 62
256
370
-1
  6
ByLayer
 10
-124.4609999999999985
 20
-10.1400000000000006
 30
0.0
 11
-124.4879999999999995
 21
-10.2780000000000005
 31
0.0
  0
LINE
  5
8A
100
AcDbEntity
100
AcDbLine
  8
0
 62
256
370
-1
  6
ByLayer
 10
-124.4879999999999995
 20
-10.2780000000000005
 30
0.0
 11
-124.5310000000000059
 21
-10.4109999999999996
 31
0.0
  0
LINE
  5
8B
100
AcDbEntity
100
AcDbLine
  8
0
 62
256
370
-1
  6
ByLayer
 10
-124.5310000000000059
 20
-10.4109999999999996
 30
0.0
 11
-124.590999999999994
 21
-10.5380000000000003
 31
0.0
  0
LINE
  5
8C
100
AcDbEntity
100
AcDbLine
  8
0
 62
256
370
-1
  6
ByLayer
 10
-124.590999999999994
 20
-10.5380000000000003
 30
0.0
 11
-124.6659999999999968
 21
-10.657
 31
0.0
  0
LINE
  5
8D
100
AcDbEntity
100
AcDbLine
  8
0
 62
256
370
-1
  6
ByLayer
 10
-124.6659999999999968
 20
-10.657
 30
0.0
 11
-124.7549999999999955
 21
-10.7650000000000006
 31
0.0
  0
LINE
  5
8E
100
AcDbEntity
100
AcDbLine
  8
0
 62
256
370
-1
  6
ByLayer
 10
-124.7549999999999955
 20
-10.7650000000000006
 30
0.0
 11
-124.8580000000000041
 21
-10.8610000000000007
 31
0.0
  0
LINE
  5
8F
100
AcDbEntity
100
AcDbLine
  8
0
 62
256
370
-1
  6
ByLayer
 10
-124.8580000000000041
 20
-10.8610000000000007
 30
0.0
 11
-124.9710000000000036
 21
-10.9440000000000008
 31
0.0
  0
LINE
  5
90
100
AcDbEntity
100
AcDbLine
  8
0
 62
256
370
-1
  6
ByLayer
 10
-124.9710000000000036
 20
-10.9440000000000008
 30
0.0
 11
-125.0939999999999941
 21
-11.0109999999999992
 31
0.0
  0
LINE
  5
91
100
AcDbEntity
100
AcDbLine
  8
0
 62
256
370
-1
  6
ByLayer
 10
-125.0939999999999941
 20
-11.0109999999999992
 30
0.0
 11
-125.2249999999999943
 21
-11.0630000000000006
 31
0.0
  0
LINE
  5
92
100
AcDbEntity
100
AcDbLine
  8
0
 62
256
370
-1
  6
ByLayer
 10
-125.2249999999999943
 20
-11.0630000000000006
 30
0.0
 11
-125.3610000000000042
 21
-11.0980000000000008
 31
0.0
  0
LINE
  5
93
100
AcDbEntity
100
AcDbLine
  8
0
 62
256
370
-1
  6
ByLayer
 10
-125.3610000000000042
 20
-11.0980000000000008
 30
0.0
 11
-125.5
 21
-11.1150000000000002
 31
0.0
  0
LINE
  5
94
100
AcDbEntity
100
AcDbLine
  8
0
 62
256
370
-1
  6
ByLayer
 10
-125.5
 20
-11.1150000000000002
 30
0.0
 11
-125.6400000000000006
 21
-11.1150000000000002
 31
0.0
  0
LINE
  5
95
100
AcDbEntity
100
AcDbLine
  8
0
 62
256
370
-1
  6
ByLayer
 10
-125.6400000000000006
 20
-11.1150000000000002
 30
0.0
 11
-125.7789999999999964
 21
-11.0980000000000008
 31
0.0
  0
LINE
  5
96
100
AcDbEntity
100
AcDbLine
  8
0
 62
256
370
-1
  6
ByLayer
 10
-125.7789999999999964
 20
-11.0980000000000008
 30
0.0
 11
-125.9150000000000063
 21
-11.0630000000000006
 31
0.0
  0
LINE
  5
97
100
AcDbEntity
100
AcDbLine
  8
0
 62
256
370
-1
  6
ByLayer
 10
-125.9150000000000063
 20
-11.0630000000000006
 30
0.0
 11
-126.0460000000000065
 21
-11.0109999999999992
 31
0.0
  0
LINE
  5
98
100
AcDbEntity
100
AcDbLine
  8
0
 62
256
370
-1
  6
ByLayer
 10
-126.0460000000000065
 20
-11.0109999999999992
 30
0.0
 11
-126.1689999999999969
 21
-10.9440000000000008
 31
0.0
  0
LINE
  5
99
100
AcDbEntity
100
AcDbLine
  8
0
 62
256
370
-1
  6
ByLayer
 10
-126.1689999999999969
 20
-10.9440000000000008
 30
0.0
 11
-126.2819999999999965
 21
-10.8610000000000007
 31
0.0
  0
LINE
  5
9A
100
AcDbEntity
100
AcDbLine
  8
0
 62
256
370
-1
  6
ByLayer
 10
-126.2819999999999965
 20
-10.8610000000000007
 30
0.0
 11
-126.3850000000000051
 21
-10.7650000000000006
 31
0.0
  0
LINE
  5
9B
100
AcDbEntity
100
AcDbLine
  8
0
 62
256
370
-1
  6
ByLayer
 10
-126.3850000000000051
 20
-10.7650000000000006
 30
0.0
 11
-126.4740000000000038
 21
-10.657
 31
0.0
  0
LINE
  5
9C
100
AcDbEntity
100
AcDbLine
  8
0
 62
256
370
-1
  6
ByLayer
 10
-126.4740000000000038
 20
-10.657
 30
0.0
 11
-126.5490000000000066
 21
-10.5380000000000003
 31
0.0
  0
LINE
  5
9D
100
AcDbEntity
100
AcDbLine
  8
0
 62
256
370
-1
  6
ByLayer
 10
-126.5490000000000066
 20
-10.5380000000000003
 30
0.0
 11
-126.6089999999999947
 21
-10.4109999999999996
 31
0.0
  0
LINE
  5
9E
100
AcDbEntity
100
AcDbLine
  8
0
 62
256
370
-1
  6
ByLayer
 10
-126.6089999999999947
 20
-10.4109999999999996
 30
0.0
 11
-126.652000000000001
 21
-10.2780000000000005
 31
0.0
  0
LINE
  5
9F
100
AcDbEntity
100
AcDbLine
  8
0
 62
256
370
-1
  6
ByLayer
 10
-126.652000000000001
 20
-10.2780000000000005
 30
0.0
 11
-126.679000000000002
 21
-10.1400000000000006
 31
0.0
  0
LINE
  5
A0
100
AcDbEntity
100
AcDbLine
  8
0
 62
256
370
-1
  6
ByLayer
 10
-126.679000000000002
 20
-10.1400000000000006
 30
0.0
 11
-126.6880000000000024
 21
-10.0
 31
0.0
  0
LINE
  5
A1
100
AcDbEntity
100
AcDbLine
  8
0
 62
256
370
-1
  6
ByLayer
 10
-126.6880000000000024
 20
10.0
 30
0.0
 11
-126.679000000000002
 21
10.1400000000000006
 31
0.0
  0
LINE
  5
A2
100
AcDbEntity
100
AcDbLine
  8
0
 62
256
370
-1
  6
ByLayer
 10
-126.679000000000002
 20
10.1400000000000006
 30
0.0
 11
-126.652000000000001
 21
10.2780000000000005
 31
0.0
  0
LINE
  5
A3
100
AcDbEntity
100
AcDbLine
  8
0
 62
256
370
-1
  6
ByLayer
 10
-126.652000000000001
 20
10.2780000000000005
 30
0.0
 11
-126.6089999999999947
 21
10.4109999999999996
 31
0.0
  0
LINE
  5
A4
100
AcDbEntity
100
AcDbLine
  8
0
 62
256
370
-1
  6
ByLayer
 10
-126.6089999999999947
 20
10.4109999999999996
 30
0.0
 11
-126.5490000000000066
 21
10.5380000000000003
 31
0.0
  0
LINE
  5
A5
100
AcDbEntity
100
AcDbLine
  8
0
 62
256
370
-1
  6
ByLayer
 10
-126.5490000000000066
 20
10.5380000000000003
 30
0.0
 11
-126.4740000000000038
 21
10.657
 31
0.0
  0
LINE
  5
A6
100
AcDbEntity
100
AcDbLine
  8
0
 62
256
370
-1
  6
ByLayer
 10
-126.4740000000000038
 20
10.657
 30
0.0
 11
-126.3850000000000051
 21
10.7650000000000006
 31
0.0
  0
LINE
  5
A7
100
AcDbEntity
100
AcDbLine
  8
0
 62
256
370
-1
  6
ByLayer
 10
-126.3850000000000051
 20
10.7650000000000006
 30
0.0
 11
-126.2819999999999965
 21
10.8610000000000007
 31
0.0
  0
LINE
  5
A8
100
AcDbEntity
100
AcDbLine
  8
0
 62
256
370
-1
  6
ByLayer
 10
-126.2819999999999965
 20
10.8610000000000007
 30
0.0
 11
-126.1689999999999969
 21
10.9440000000000008
 31
0.0
  0
LINE
  5
A9
100
AcDbEntity
100
AcDbLine
  8
0
 62
256
370
-1
  6
ByLayer
 10
-126.1689999999999969
 20
10.9440000000000008
 30
0.0
 11
-126.0460000000000065
 21
11.0109999999999992
 31
0.0
  0
LINE
  5
AA
100
AcDbEntity
100
AcDbLine
  8
0
 62
256
370
-1
  6
ByLayer
 10
-126.0460000000000065
 20
11.0109999999999992
 30
0.0
 11
-125.9150000000000063
 21
11.0630000000000006
 31
0.0
  0
LINE
  5
AB
100
AcDbEntity
100
AcDbLine
  8
0
 62
256
370
-1
  6
ByLayer
 10
-125.9150000000000063
 20
11.0630000000000006
 30
0.0
 11
-125.7789999999999964
 21
11.0980000000000008
 31
0.0
  0
LINE
  5
AC
100
AcDbEntity
100
AcDbLine
  8
0
 62
256
370
-1
  6
ByLayer
 10
-125.7789999999999964
 20
11.0980000000000008
 30
0.0
 11
-125.6400000000000006
 21
11.1150000000000002
 31
0.0
  0
LINE
  5
AD
100
AcDbEntity
100
AcDbLine
  8
0
 62
256
370
-1
  6
ByLayer
 10
-125.6400000000000006
 20
11.1150000000000002
 30
0.0
 11
-125.5
 21
11.1150000000000002
 31
0.0
  0
LINE
  5
AE
100
AcDbEntity
100
AcDbLine
  8
0
 62
256
370
-1
  6
ByLayer
 10
-125.5
 20
11.1150000000000002
 30
0.0
 11
-125.3610000000000042
 21
11.0980000000000008
 31
0.0
  0
LINE
  5
AF
100
AcDbEntity
100
AcDbLine
  8
0
 62
256
370
-1
  6
ByLayer
 10
-125.3610000000000042
 20
11.0980000000000008
 30
0.0
 11
-125.2249999999999943
 21
11.0630000000000006
 31
0.0
  0
LINE
  5
B0
100
AcDbEntity
100
AcDbLine
  8
0
 62
256
370
-1
  6
ByLayer
 10
-125.2249999999999943
 20
11.0630000000000006
 30
0.0
 11
-125.0939999999999941
 21
11.0109999999999992
 31
0.0
  0
LINE
  5
B1
100
AcDbEntity
100
AcDbLine
  8
0
 62
256
370
-1
  6
ByLayer
 10
-125.0939999999999941
 20
11.0109999999999992
 30
0.0
 11
-124.9710000000000036
 21
10.9440000000000008
 31
0.0
  0
LINE
  5
B2
100
AcDbEntity
100
AcDbLine
  8
0
 62
256
370
-1
  6
ByLayer
 10
-124.9710000000000036
 20
10.9440000000000008
 30
0.0
 11
-124.8580000000000041
 21
10.8610000000000007
 31
0.0
  0
LINE
  5
B3
100
AcDbEntity
100
AcDbLine
  8
0
 62
256
370
-1
  6
ByLayer
 10
-124.8580000000000041
 20
10.8610000000000007
 30
0.0
 11
-124.7549999999999955
 21
10.7650000000000006
 31
0.0
  0
LINE
  5
B4
100
AcDbEntity
100
AcDbLine
  8
0
 62
256
370
-1
  6
ByLayer
 10
-124.7549999999999955
 20
10.7650000000000006
 30
0.0
 11
-124.6659999999999968
 21
10.657
 31
0.0
  0
LINE
  5
B5
100
AcDbEntity
100
AcDbLine
  8
0
 62
256
370
-1
  6
ByLayer
 10
-124.6659999999999968
 20
10.657
 30
0.0
 11
-124.590999999999994
 21
10.5380000000000003
 31
0.0
  0
LINE
  5
B6
100
AcDbEntity
100
AcDbLine
  8
0
 62
256
370
-1
  6
ByLayer
 10
-124.590999999999994
 20
10.5380000000000003
 30
0.0
 11
-124.5310000000000059
 21
10.4109999999999996
 31
0.0
  0
LINE
  5
B7
100
AcDbEntity
100
AcDbLine
  8
0
 62
256
370
-1
  6
ByLayer
 10
-124.5310000000000059
 20
10.4109999999999996
 30
0.0
 11
-124.4879999999999995
 21
10.2780000000000005
 31
0.0
  0
LINE
  5
B8
100
AcDbEntity
100
AcDbLine
  8
0
 62
256
370
-1
  6
ByLayer
 10
-124.4879999999999995
 20
10.2780000000000005
 30
0.0
 11
-124.4609999999999985
 21
10.1400000000000006
 31
0.0
  0
LINE
  5
B9
100
AcDbEntity
100
AcDbLine
  8
0
 62
256
370
-1
  6
ByLayer
 10
-124.4609999999999985
 20
10.1400000000000006
 30
0.0
 11
-124.4519999999999982
 21
10.0
 31
0.0
  0
LINE
  5
BA
100
AcDbEntity
100
AcDbLine
  8
0
 62
256
370
-1
  6
ByLayer
 10
-124.4519999999999982
 20
10.0
 30
0.0
 11
-124.4609999999999985
 21
9.8599999999999994
 31
0.0
  0
LINE
  5
BB
100
AcDbEntity
100
AcDbLine
  8
0
 62
256
370
-1
  6
ByLayer
 10
-124.4609999999999985
 20
9.8599999999999994
 30
0.0
 11
-124.4879999999999995
 21
9.7219999999999995
 31
0.0
  0
LINE
  5
BC
100
AcDbEntity
100
AcDbLine
  8
0
 62
256
370
-1
  6
ByLayer
 10
-124.4879999999999995
 20
9.7219999999999995
 30
0.0
 11
-124.5310000000000059
 21
9.5890000000000004
 31
0.0
  0
LINE
  5
BD
100
AcDbEntity
100
AcDbLine
  8
0
 62
256
370
-1
  6
ByLayer
 10
-124.5310000000000059
 20
9.5890000000000004
 30
0.0
 11
-124.590999999999994
 21
9.4619999999999997
 31
0.0
  0
LINE
  5
BE
100
AcDbEntity
100
AcDbLine
  8
0
 62
256
370
-1
  6
ByLayer
 10
-124.590999999999994
 20
9.4619999999999997
 30
0.0
 11
-124.6659999999999968
 21
9.343
 31
0.0
  0
LINE
  5
BF
100
AcDbEntity
100
AcDbLine
  8
0
 62
256
370
-1
  6
ByLayer
 10
-124.6659999999999968
 20
9.343
 30
0.0
 11
-124.7549999999999955
 21
9.2349999999999994
 31
0.0
  0
LINE
  5
C0
100
AcDbEntity
100
AcDbLine
  8
0
 62
256
370
-1
  6
ByLayer
 10
-124.7549999999999955
 20
9.2349999999999994
 30
0.0
 11
-124.8580000000000041
 21
9.1389999999999993
 31
0.0
  0
LINE
  5
C1
100
AcDbEntity
100
AcDbLine
  8
0
 62
256
370
-1
  6
ByLayer
 10
-124.8580000000000041
 20
9.1389999999999993
 30
0.0
 11
-124.9710000000000036
 21
9.0559999999999992
 31
0.0
  0
LINE
  5
C2
100
AcDbEntity
100
AcDbLine
  8
0
 62
256
370
-1
  6
ByLayer
 10
-124.9710000000000036
 20
9.0559999999999992
 30
0.0
 11
-125.0939999999999941
 21
8.9890000000000008
 31
0.0
  0
LINE
  5
C3
100
AcDbEntity
100
AcDbLine
  8
0
 62
256
370
-1
  6
ByLayer
 10
-125.0939999999999941
 20
8.9890000000000008
 30
0.0
 11
-125.2249999999999943
 21
8.9369999999999994
 31
0.0
  0
LINE
  5
C4
100
AcDbEntity
100
AcDbLine
  8
0
 62
256
370
-1
  6
ByLayer
 10
-125.2249999999999943
 20
8.9369999999999994
 30
0.0
 11
-125.3610000000000042
 21
8.9019999999999992
 31
0.0
  0
LINE
  5
C5
100
AcDbEntity
100
AcDbLine
  8
0
 62
256
370
-1
  6
ByLayer
 10
-125.3610000000000042
 20
8.9019999999999992
 30
0.0
 11
-125.5
 21
8.8849999999999998
 31
0.0
  0
LINE
  5
C6
100
AcDbEntity
100
AcDbLine
  8
0
 62
256
370
-1
  6
ByLayer
 10
-125.5
 20
8.8849999999999998
 30
0.0
 11
-125.6400000000000006
 21
8.8849999999999998
 31
0.0
  0
LINE
  5
C7
100
AcDbEntity
100
AcDbLine
  8
0
 62
256
370
-1
  6
ByLayer
 10
-125.6400000000000006
 20
8.8849999999999998
 30
0.0
 11
-125.7789999999999964
 21
8.9019999999999992
 31
0.0
  0
LINE
  5
C8
100
AcDbEntity
100
AcDbLine
  8
0
 62
256
370
-1
  6
ByLayer
 10
-125.7789999999999964
 20
8.9019999999999992
 30
0.0
 11
-125.9150000000000063
 21
8.9369999999999994
 31
0.0
  0
LINE
  5
C9
100
AcDbEntity
100
AcDbLine
  8
0
 62
256
370
-1
  6
ByLayer
 10
-125.9150000000000063
 20
8.9369999999999994
 30
0.0
 11
-126.0460000000000065
 21
8.9890000000000008
 31
0.0
  0
LINE
  5
CA
100
AcDbEntity
100
AcDbLine
  8
0
 62
256
370
-1
  6
ByLayer
 10
-126.0460000000000065
 20
8.9890000000000008
 30
0.0
 11
-126.1689999999999969
 21
9.0559999999999992
 31
0.0
  0
LINE
  5
CB
100
AcDbEntity
100
AcDbLine
  8
0
 62
256
370
-1
  6
ByLayer
 10
-126.1689999999999969
 20
9.0559999999999992
 30
0.0
 11
-126.2819999999999965
 21
9.1389999999999993
 31
0.0
  0
LINE
  5
CC
100
AcDbEntity
100
AcDbLine
  8
0
 62
256
370
-1
  6
ByLayer
 10
-126.2819999999999965
 20
9.1389999999999993
 30
0.0
 11
-126.3850000000000051
 21
9.2349999999999994
 31
0.0
  0
LINE
  5
CD
100
AcDbEntity
100
AcDbLine
  8
0
 62
256
370
-1
  6
ByLayer
 10
-126.3850000000000051
 20
9.2349999999999994
 30
0.0
 11
-126.4740000000000038
 21
9.343
 31
0.0
  0
LINE
  5
CE
100
AcDbEntity
100
AcDbLine
  8
0
 62
256
370
-1
  6
ByLayer
 10
-126.4740000000000038
 20
9.343
 30
0.0
 11
-126.5490000000000066
 21
9.4619999999999997
 31
0.0
  0
LINE
  5
CF
100
AcDbEntity
100
AcDbLine
  8
0
 62
256
370
-1
  6
ByLayer
 10
-126.5490000000000066
 20
9.4619999999999997
 30
0.0
 11
-126.6089999999999947
 21
9.5890000000000004
 31
0.0
  0
LINE
  5
D0
100
AcDbEntity
100
AcDbLine
  8
0
 62
256
370
-1
  6
ByLayer
 10
-126.6089999999999947
 20
9.5890000000000004
 30
0.0
 11
-126.652000000000001
 21
9.7219999999999995
 31
0.0
  0
LINE
  5
D1
100
AcDbEntity
100
AcDbLine
  8
0
 62
256
370
-1
  6
ByLayer
 10
-126.652000000000001
 20
9.7219999999999995
 30
0.0
 11
-126.679000000000002
 21
9.8599999999999994
 31
0.0
  0
LINE
  5
D2
100
AcDbEntity
100
AcDbLine
  8
0
 62
256
370
-1
  6
ByLayer
 10
-126.679000000000002
 20
9.8599999999999994
 30
0.0
 11
-126.6880000000000024
 21
10.0
 31
0.0
  0
LINE
  5
D3
100
AcDbEntity
100
AcDbLine
  8
0
 62
256
370
-1
  6
ByLayer
 10
-123.8199999999999932
 20
0.0
 30
0.0
 11
-123.7549999999999955
 21
1.034
 31
0.0
  0
LINE
  5
D4
100
AcDbEntity
100
AcDbLine
  8
0
 62
256
370
-1
  6
ByLayer
 10
-123.7549999999999955
 20
1.034
 30
0.0
 11
-123.561000000000007
 21
2.052
 31
0.0
  0
LINE
  5
D5
100
AcDbEntity
100
AcDbLine
  8
0
 62
256
370
-1
  6
ByLayer
 10
-123.561000000000007
 20
2.052
 30
0.0
 11
-123.2409999999999997
 21
3.0369999999999999
 31
0.0
  0
LINE
  5
D6
100
AcDbEntity
100
AcDbLine
  8
0
 62
256
370
-1
  6
ByLayer
 10
-123.2409999999999997
 20
3.0369999999999999
 30
0.0
 11
-122.7999999999999972
 21
3.9740000000000002
 31
0.0
  0
LINE
  5
D7
100
AcDbEntity
100
AcDbLine
  8
0
 62
256
370
-1
  6
ByLayer
 10
-122.7999999999999972
 20
3.9740000000000002
 30
0.0
 11
-122.2439999999999998
 21
4.8490000000000002
 31
0.0
  0
LINE
  5
D8
100
AcDbEntity
100
AcDbLine
  8
0
 62
256
370
-1
  6
ByLayer
 10
-122.2439999999999998
 20
4.8490000000000002
 30
0.0
 11
-121.5840000000000032
 21
5.6479999999999997
 31
0.0
  0
LINE
  5
D9
100
AcDbEntity
100
AcDbLine
  8
0
 62
256
370
-1
  6
ByLayer
 10
-121.5840000000000032
 20
5.6479999999999997
 30
0.0
 11
-120.8289999999999935
 21
6.3570000000000002
 31
0.0
  0
LINE
  5
DA
100
AcDbEntity
100
AcDbLine
  8
0
 62
256
370
-1
  6
ByLayer
 10
-120.8289999999999935
 20
6.3570000000000002
 30
0.0
 11
-119.9909999999999997
 21
6.9660000000000002
 31
0.0
  0
LINE
  5
DB
100
AcDbEntity
100
AcDbLine
  8
0
 62
256
370
-1
  6
ByLayer
 10
-119.9909999999999997
 20
6.9660000000000002
 30
0.0
 11
-119.0829999999999984
 21
7.4649999999999999
 31
0.0
  0
LINE
  5
DC
100
AcDbEntity
100
AcDbLine
  8
0
 62
256
370
-1
  6
ByLayer
 10
-119.0829999999999984
 20
7.4649999999999999
 30
0.0
 11
-118.1189999999999998
 21
7.8460000000000001
 31
0.0
  0
LINE
  5
DD
100
AcDbEntity
100
AcDbLine
  8
0
 62
256
370
-1
  6
ByLayer
 10
-118.1189999999999998
 20
7.8460000000000001
 30
0.0
 11
-117.1159999999999997
 21
8.1039999999999992
 31
0.0
  0
LINE
  5
DE
100
AcDbEntity
100
AcDbLine
  8
0
 62
256
370
-1
  6
ByLayer
 10
-117.1159999999999997
 20
8.1039999999999992
 30
0.0
 11
-116.0879999999999939
 21
8.234
 31
0.0
  0
LINE
  5
DF
100
AcDbEntity
100
AcDbLine
  8
0
 62
256
370
-1
  6
ByLayer
 10
-116.0879999999999939
 20
8.234
 30
0.0
 11
-115.0520000000000067
 21
8.234
 31
0.0
  0
LINE
  5
E0
100
AcDbEntity
100
AcDbLine
  8
0
 62
256
370
-1
  6
ByLayer
 10
-115.0520000000000067
 20
8.234
 30
0.0
 11
-114.0240000000000009
 21
8.1039999999999992
 31
0.0
  0
LINE
  5
E1
100
AcDbEntity
100
AcDbLine
  8
0
 62
256
370
-1
  6
ByLayer
 10
-114.0240000000000009
 20
8.1039999999999992
 30
0.0
 11
-113.0210000000000008
 21
7.8460000000000001
 31
0.0
  0
LINE
  5
E2
100
AcDbEntity
100
AcDbLine
  8
0
 62
256
370
-1
  6
ByLayer
 10
-113.0210000000000008
 20
7.8460000000000001
 30
0.0
 11
-112.0570000000000022
 21
7.4649999999999999
 31
0.0
  0
LINE
  5
E3
100
AcDbEntity
100
AcDbLine
  8
0
 62
256
370
-1
  6
ByLayer
 10
-112.0570000000000022
 20
7.4649999999999999
 30
0.0
 11
-111.1490000000000009
 21
6.9660000000000002
 31
0.0
  0
LINE
  5
E4
100
AcDbEntity
100
AcDbLine
  8
0
 62
256
370
-1
  6
ByLayer
 10
-111.1490000000000009
 20
6.9660000000000002
 30
0.0
 11
-110.311000000000007
 21
6.3570000000000002
 31
0.0
  0
LINE
  5
E5
100
AcDbEntity
100
AcDbLine
  8
0
 62
256
370
-1
  6
ByLayer
 10
-110.311000000000007
 20
6.3570000000000002
 30
0.0
 11
-109.5559999999999974
 21
5.6479999999999997
 31
0.0
  0
LINE
  5
E6
100
AcDbEntity
100
AcDbLine
  8
0
 62
256
370
-1
  6
ByLayer
 10
-109.5559999999999974
 20
5.6479999999999997
 30
0.0
 11
-108.8960000000000008
 21
4.8490000000000002
 31
0.0
  0
LINE
  5
E7
100
AcDbEntity
100
AcDbLine
  8
0
 62
256
370
-1
  6
ByLayer
 10
-108.8960000000000008
 20
4.8490000000000002
 30
0.0
 11
-108.3400000000000034
 21
3.9740000000000002
 31
0.0
  0
LINE
  5
E8
100
AcDbEntity
100
AcDbLine
  8
0
 62
256
370
-1
  6
ByLayer
 10
-108.3400000000000034
 20
3.9740000000000002
 30
0.0
 11
-107.8990000000000009
 21
3.0369999999999999
 31
0.0
  0
LINE
  5
E9
100
AcDbEntity
100
AcDbLine
  8
0
 62
256
370
-1
  6
ByLayer
 10
-107.8990000000000009
 20
3.0369999999999999
 30
0.0
 11
-107.5789999999999935
 21
2.052
 31
0.0
  0
LINE
  5
EA
100
AcDbEntity
100
AcDbLine
  8
0
 62
256
370
-1
  6
ByLayer
 10
-107.5789999999999935
 20
2.052
 30
0.0
 11
-107.3850000000000051
 21
1.034
 31
0.0
  0
LINE
  5
EB
100
AcDbEntity
100
AcDbLine
  8
0
 62
256
370
-1
  6
ByLayer
 10
-107.3850000000000051
 20
1.034
 30
0.0
 11
-107.3199999999999932
 21
0.0
 31
0.0
  0
LINE
  5
EC
100
AcDbEntity
100
AcDbLine
  8
0
 62
256
370
-1
  6
ByLayer
 10
-107.3199999999999932
 20
0.0
 30
0.0
 11
-107.3850000000000051
 21
-1.034
 31
0.0
  0
LINE
  5
ED
100
AcDbEntity
100
AcDbLine
  8
0
 62
256
370
-1
  6
ByLayer
 10
-107.3850000000000051
 20
-1.034
 30
0.0
 11
-107.5789999999999935
 21
-2.052
 31
0.0
  0
LINE
  5
EE
100
AcDbEntity
100
AcDbLine
  8
0
 62
256
370
-1
  6
ByLayer
 10
-107.5789999999999935
 20
-2.052
 30
0.0
 11
-107.8990000000000009
 21
-3.0369999999999999
 31
0.0
  0
LINE
  5
EF
100
AcDbEntity
100
AcDbLine
  8
0
 62
256
370
-1
  6
ByLayer
 10
-107.8990000000000009
 20
-3.0369999999999999
 30
0.0
 11
-108.3400000000000034
 21
-3.9740000000000002
 31
0.0
  0
LINE
  5
F0
100
AcDbEntity
100
AcDbLine
  8
0
 62
256
370
-1
  6
ByLayer
 10
-108.3400000000000034
 20
-3.9740000000000002
 30
0.0
 11
-108.8960000000000008
 21
-4.8490000000000002
 31
0.0
  0
LINE
  5
F1
100
AcDbEntity
100
AcDbLine
  8
0
 62
256
370
-1
  6
ByLayer
 10
-108.8960000000000008
 20
-4.8490000000000002
 30
0.0
 11
-109.5559999999999974
 21
-5.6479999999999997
 31
0.0
  0
LINE
  5
F2
100
AcDbEntity
100
AcDbLine
  8
0
 62
256
370
-1
  6
ByLayer
 10
-109.5559999999999974
 20
-5.6479999999999997
 30
0.0
 11
-110.311000000000007
 21
-6.3570000000000002
 31
0.0
  0
LINE
  5
F3
100
AcDbEntity
100
AcDbLine
  8
0
 62
256
370
-1
  6
ByLayer
 10
-110.311000000000007
 20
-6.3570000000000002
 30
0.0
 11
-111.1490000000000009
 21
-6.9660000000000002
 31
0.0
  0
LINE
  5
F4
100
AcDbEntity
100
AcDbLine
  8
0
 62
256
370
-1
  6
ByLayer
 10
-111.1490000000000009
 20
-6.9660000000000002
 30
0.0
 11
-112.0570000000000022
 21
-7.4649999999999999
 31
0.0
  0
LINE
  5
F5
100
AcDbEntity
100
AcDbLine
  8
0
 62
256
370
-1
  6
ByLayer
 10
-112.0570000000000022
 20
-7.4649999999999999
 30
0.0
 11
-113.0210000000000008
 21
-7.8460000000000001
 31
0.0
  0
LINE
  5
F6
100
AcDbEntity
100
AcDbLine
  8
0
 62
256
370
-1
  6
ByLayer
 10
-113.0210000000000008
 20
-7.8460000000000001
 30
0.0
 11
-114.0240000000000009
 21
-8.1039999999999992
 31
0.0
  0
LINE
  5
F7
100
AcDbEntity
100
AcDbLine
  8
0
 62
256
370
-1
  6
ByLayer
 10
-114.0240000000000009
 20
-8.1039999999999992
 30
0.0
 11
-115.0520000000000067
 21
-8.234
 31
0.0
  0
LINE
  5
F8
100
AcDbEntity
100
AcDbLine
  8
0
 62
256
370
-1
  6
ByLayer
 10
-115.0520000000000067
 20
-8.234
 30
0.0
 11
-116.0879999999999939
 21
-8.234
 31
0.0
  0
LINE
  5
F9
100
AcDbEntity
100
AcDbLine
  8
0
 62
256
370
-1
  6
ByLayer
 10
-116.0879999999999939
 20
-8.234
 30
0.0
 11
-117.1159999999999997
 21
-8.1039999999999992
 31
0.0
  0
LINE
  5
FA
100
AcDbEntity
100
AcDbLine
  8
0
 62
256
370
-1
  6
ByLayer
 10
-117.1159999999999997
 20
-8.1039999999999992
 30
0.0
 11
-118.1189999999999998
 21
-7.8460000000000001
 31
0.0
  0
LINE
  5
FB
100
AcDbEntity
100
AcDbLine
  8
0
 62
256
370
-1
  6
ByLayer
 10
-118.1189999999999998
 20
-7.8460000000000001
 30
0.0
 11
-119.0829999999999984
 21
-7.4649999999999999
 31
0.0
  0
LINE
  5
FC
100
AcDbEntity
100
AcDbLine
  8
0
 62
256
370
-1
  6
ByLayer
 10
-119.0829999999999984
 20
-7.4649999999999999
 30
0.0
 11
-119.9909999999999997
 21
-6.9660000000000002
 31
0.0
  0
LINE
  5
FD
100
AcDbEntity
100
AcDbLine
  8
0
 62
256
370
-1
  6
ByLayer
 10
-119.9909999999999997
 20
-6.9660000000000002
 30
0.0
 11
-120.8289999999999935
 21
-6.3570000000000002
 31
0.0
  0
LINE
  5
FE
100
AcDbEntity
100
AcDbLine
  8
0
 62
256
370
-1
  6
ByLayer
 10
-120.8289999999999935
 20
-6.3570000000000002
 30
0.0
 11
-121.5840000000000032
 21
-5.6479999999999997
 31
0.0
  0
LINE
  5
FF
100
AcDbEntity
100
AcDbLine
  8
0
 62
256
370
-1
  6
ByLayer
 10
-121.5840000000000032
 20
-5.6479999999999997
 30
0.0
 11
-122.2439999999999998
 21
-4.8490000000000002
 31
0.0
  0
LINE
  5
100
100
AcDbEntity
100
AcDbLine
  8
0
 62
256
370
-1
  6
ByLayer
 10
-122.2439999999999998
 20
-4.8490000000000002
 30
0.0
 11
-122.7999999999999972
 21
-3.9740000000000002
 31
0.0
  0
LINE
  5
101
100
AcDbEntity
100
AcDbLine
  8
0
 62
256
370
-1
  6
ByLayer
 10
-122.7999999999999972
 20
-3.9740000000000002
 30
0.0
 11
-123.2409999999999997
 21
-3.0369999999999999
 31
0.0
  0
LINE
  5
102
100
AcDbEntity
100
AcDbLine
  8
0
 62
256
370
-1
  6
ByLayer
 10
-123.2409999999999997
 20
-3.0369999999999999
 30
0.0
 11
-123.561000000000007
 21
-2.052
 31
0.0
  0
LINE
  5
103
100
AcDbEntity
100
AcDbLine
  8
0
 62
256
370
-1
  6
ByLayer
 10
-123.561000000000007
 20
-2.052
 30
0.0
 11
-123.7549999999999955
 21
-1.034
 31
0.0
  0
LINE
  5
104
100
AcDbEntity
100
AcDbLine
  8
0
 62
256
370
-1
  6
ByLayer
 10
-123.7549999999999955
 20
-1.034
 30
0.0
 11
-123.8199999999999932
 21
0.0
 31
0.0
  0
LINE
  5
105
100
AcDbEntity
100
AcDbLine
  8
0
 62
256
370
-1
  6
ByLayer
 10
-106.6880000000000024
 20
-10.0
 30
0.0
 11
-106.679000000000002
 21
-9.8599999999999994
 31
0.0
  0
LINE
  5
106
100
AcDbEntity
100
AcDbLine
  8
0
 62
256
370
-1
  6
ByLayer
 10
-106.679000000000002
 20
-9.8599999999999994
 30
0.0
 11
-106.652000000000001
 21
-9.7219999999999995
 31
0.0
  0
LINE
  5
107
100
AcDbEntity
100
AcDbLine
  8
0
 62
256
370
-1
  6
ByLayer
 10
-106.652000000000001
 20
-9.7219999999999995
 30
0.0
 11
-106.6089999999999947
 21
-9.5890000000000004
 31
0.0
  0
LINE
  5
108
100
AcDbEntity
100
AcDbLine
  8
0
 62
256
370
-1
  6
ByLayer
 10
-106.6089999999999947
 20
-9.5890000000000004
 30
0.0
 11
-106.5490000000000066
 21
-9.4619999999999997
 31
0.0
  0
LINE
  5
109
100
AcDbEntity
100
AcDbLine
  8
0
 62
256
370
-1
  6
ByLayer
 10
-106.5490000000000066
 20
-9.4619999999999997
 30
0.0
 11
-106.4740000000000038
 21
-9.343
 31
0.0
  0
LINE
  5
10A
100
AcDbEntity
100
AcDbLine
  8
0
 62
256
370
-1
  6
ByLayer
 10
-106.4740000000000038
 20
-9.343
 30
0.0
 11
-106.3850000000000051
 21
-9.2349999999999994
 31
0.0
  0
LINE
  5
10B
100
AcDbEntity
100
AcDbLine
  8
0
 62
256
370
-1
  6
ByLayer
 10
-106.3850000000000051
 20
-9.2349999999999994
 30
0.0
 11
-106.2819999999999965
 21
-9.1389999999999993
 31
0.0
  0
LINE
  5
10C
100
AcDbEntity
100
AcDbLine
  8
0
 62
256
370
-1
  6
ByLayer
 10
-106.2819999999999965
 20
-9.1389999999999993
 30
0.0
 11
-106.1689999999999969
 21
-9.0559999999999992
 31
0.0
  0
LINE
  5
10D
100
AcDbEntity
100
AcDbLine
  8
0
 62
256
370
-1
  6
ByLayer
 10
-106.1689999999999969
 20
-9.0559999999999992
 30
0.0
 11
-106.0460000000000065
 21
-8.9890000000000008
 31
0.0
  0
LINE
  5
10E
100
AcDbEntity
100
AcDbLine
  8
0
 62
256
370
-1
  6
ByLayer
 10
-106.0460000000000065
 20
-8.9890000000000008
 30
0.0
 11
-105.9150000000000063
 21
-8.9369999999999994
 31
0.0
  0
LINE
  5
10F
100
AcDbEntity
100
AcDbLine
  8
0
 62
256
370
-1
  6
ByLayer
 10
-105.9150000000000063
 20
-8.9369999999999994
 30
0.0
 11
-105.7789999999999964
 21
-8.9019999999999992
 31
0.0
  0
LINE
  5
110
100
AcDbEntity
100
AcDbLine
  8
0
 62
256
370
-1
  6
ByLayer
 10
-105.7789999999999964
 20
-8.9019999999999992
 30
0.0
 11
-105.6400000000000006
 21
-8.8849999999999998
 31
0.0
  0
LINE
  5
111
100
AcDbEntity
100
AcDbLine
  8
0
 62
256
370
-1
  6
ByLayer
 10
-105.6400000000000006
 20
-8.8849999999999998
 30
0.0
 11
-105.5
 21
-8.8849999999999998
 31
0.0
  0
LINE
  5
112
100
AcDbEntity
100
AcDbLine
  8
0
 62
256
370
-1
  6
ByLayer
 10
-105.5
 20
-8.8849999999999998
 30
0.0
 11
-105.3610000000000042
 21
-8.9019999999999992
 31
0.0
  0
LINE
  5
113
100
AcDbEntity
100
AcDbLine
  8
0
 62
256
370
-1
  6
ByLayer
 10
-105.3610000000000042
 20
-8.9019999999999992
 30
0.0
 11
-105.2249999999999943
 21
-8.9369999999999994
 31
0.0
  0
LINE
  5
114
100
AcDbEntity
100
AcDbLine
  8
0
 62
256
370
-1
  6
ByLayer
 10
-105.2249999999999943
 20
-8.9369999999999994
 30
0.0
 11
-105.0939999999999941
 21
-8.9890000000000008
 31
0.0
  0
LINE
  5
115
100
AcDbEntity
100
AcDbLine
  8
0
 62
256
370
-1
  6
ByLayer
 10
-105.0939999999999941
 20
-8.9890000000000008
 30
0.0
 11
-104.9710000000000036
 21
-9.0559999999999992
 31
0.0
  0
LINE
  5
116
100
AcDbEntity
100
AcDbLine
  8
0
 62
256
370
-1
  6
ByLayer
 10
-104.9710000000000036
 20
-9.0559999999999992
 30
0.0
 11
-104.8580000000000041
 21
-9.1389999999999993
 31
0.0
  0
LINE
  5
117
100
AcDbEntity
100
AcDbLine
  8
0
 62
256
370
-1
  6
ByLayer
 10
-104.8580000000000041
 20
-9.1389999999999993
 30
0.0
 11
-104.7549999999999955
 21
-9.2349999999999994
 31
0.0
  0
LINE
  5
118
100
AcDbEntity
100
AcDbLine
  8
0
 62
256
370
-1
  6
ByLayer
 10
-104.7549999999999955
 20
-9.2349999999999994
 30
0.0
 11
-104.6659999999999968
 21
-9.343
 31
0.0
  0
LINE
  5
119
100
AcDbEntity
100
AcDbLine
  8
0
 62
256
370
-1
  6
ByLayer
 10
-104.6659999999999968
 20
-9.343
 30
0.0
 11
-104.590999999999994
 21
-9.4619999999999997
 31
0.0
  0
LINE
  5
11A
100
AcDbEntity
100
AcDbLine
  8
0
 62
256
370
-1
  6
ByLayer
 10
-104.590999999999994
 20
-9.4619999999999997
 30
0.0
 11
-104.5310000000000059
 21
-9.5890000000000004
 31
0.0
  0
LINE
  5
11B
100
AcDbEntity
100
AcDbLine
  8
0
 62
256
370
-1
  6
ByLayer
 10
-104.5310000000000059
 20
-9.5890000000000004
 30
0.0
 11
-104.4879999999999995
 21
-9.7219999999999995
 31
0.0
  0
LINE
  5
11C
100
AcDbEntity
100
AcDbLine
  8
0
 62
256
370
-1
  6
ByLayer
 10
-104.4879999999999995
 20
-9.7219999999999995
 30
0.0
 11
-104.4609999999999985
 21
-9.8599999999999994
 31
0.0
  0
LINE
  5
11D
100
AcDbEntity
100
AcDbLine
  8
0
 62
256
370
-1
  6
ByLayer
 10
-104.4609999999999985
 20
-9.8599999999999994
 30
0.0
 11
-104.4519999999999982
 21
-10.0
 31
0.0
  0
LINE
  5
11E
100
AcDbEntity
100
AcDbLine
  8
0
 62
256
370
-1
  6
ByLayer
 10
-104.4519999999999982
 20
-10.0
 30
0.0
 11
-104.4609999999999985
 21
-10.1400000000000006
 31
0.0
  0
LINE
  5
11F
100
AcDbEntity
100
AcDbLine
  8
0
 62
256
370
-1
  6
ByLayer
 10
-104.4609999999999985
 20
-10.1400000000000006
 30
0.0
 11
-104.4879999999999995
 21
-10.2780000000000005
 31
0.0
  0
LINE
  5
120
100
AcDbEntity
100
AcDbLine
  8
0
 62
256
370
-1
  6
ByLayer
 10
-104.4879999999999995
 20
-10.2780000000000005
 30
0.0
 11
-104.5310000000000059
 21
-10.4109999999999996
 31
0.0
  0
LINE
  5
121
100
AcDbEntity
100
AcDbLine
  8
0
 62
256
370
-1
  6
ByLayer
 10
-104.5310000000000059
 20
-10.4109999999999996
 30
0.0
 11
-104.590999999999994
 21
-10.5380000000000003
 31
0.0
  0
LINE
  5
122
100
AcDbEntity
100
AcDbLine
  8
0
 62
256
370
-1
  6
ByLayer
 10
-104.590999999999994
 20
-10.5380000000000003
 30
0.0
 11
-104.6659999999999968
 21
-10.657
 31
0.0
  0
LINE
  5
123
100
AcDbEntity
100
AcDbLine
  8
0
 62
256
370
-1
  6
ByLayer
 10
-104.6659999999999968
 20
-10.657
 30
0.0
 11
-104.7549999999999955
 21
-10.7650000000000006
 31
0.0
  0
LINE
  5
124
100
AcDbEntity
100
AcDbLine
  8
0
 62
256
370
-1
  6
ByLayer
 10
-104.7549999999999955
 20
-10.7650000000000006
 30
0.0
 11
-104.8580000000000041
 21
-10.8610000000000007
 31
0.0
  0
LINE
  5
125
100
AcDbEntity
100
AcDbLine
  8
0
 62
256
370
-1
  6
ByLayer
 10
-104.8580000000000041
 20
-10.8610000000000007
 30
0.0
 11
-104.9710000000000036
 21
-10.9440000000000008
 31
0.0
  0
LINE
  5
126
100
AcDbEntity
100
AcDbLine
  8
0
 62
256
370
-1
  6
ByLayer
 10
-104.9710000000000036
 20
-10.9440000000000008
 30
0.0
 11
-105.0939999999999941
 21
-11.0109999999999992
 31
0.0
  0
LINE
  5
127
100
AcDbEntity
100
AcDbLine
  8
0
 62
256
370
-1
  6
ByLayer
 10
-105.0939999999999941
 20
-11.0109999999999992
 30
0.0
 11
-105.2249999999999943
 21
-11.0630000000000006
 31
0.0
  0
LINE
  5
128
100
AcDbEntity
100
AcDbLine
  8
0
 62
256
370
-1
  6
ByLayer
 10
-105.2249999999999943
 20
-11.0630000000000006
 30
0.0
 11
-105.3610000000000042
 21
-11.0980000000000008
 31
0.0
  0
LINE
  5
129
100
AcDbEntity
100
AcDbLine
  8
0
 62
256
370
-1
  6
ByLayer
 10
-105.3610000000000042
 20
-11.0980000000000008
 30
0.0
 11
-105.5
 21
-11.1150000000000002
 31
0.0
  0
LINE
  5
12A
100
AcDbEntity
100
AcDbLine
  8
0
 62
256
370
-1
  6
ByLayer
 10
-105.5
 20
-11.1150000000000002
 30
0.0
 11
-105.6400000000000006
 21
-11.1150000000000002
 31
0.0
  0
LINE
  5
12B
100
AcDbEntity
100
AcDbLine
  8
0
 62
256
370
-1
  6
ByLayer
 10
-105.6400000000000006
 20
-11.1150000000000002
 30
0.0
 11
-105.7789999999999964
 21
-11.0980000000000008
 31
0.0
  0
LINE
  5
12C
100
AcDbEntity
100
AcDbLine
  8
0
 62
256
370
-1
  6
ByLayer
 10
-105.7789999999999964
 20
-11.0980000000000008
 30
0.0
 11
-105.9150000000000063
 21
-11.0630000000000006
 31
0.0
  0
LINE
  5
12D
100
AcDbEntity
100
AcDbLine
  8
0
 62
256
370
-1
  6
ByLayer
 10
-105.9150000000000063
 20
-11.0630000000000006
 30
0.0
 11
-106.0460000000000065
 21
-11.0109999999999992
 31
0.0
  0
LINE
  5
12E
100
AcDbEntity
100
AcDbLine
  8
0
 62
256
370
-1
  6
ByLayer
 10
-106.0460000000000065
 20
-11.0109999999999992
 30
0.0
 11
-106.1689999999999969
 21
-10.9440000000000008
 31
0.0
  0
LINE
  5
12F
100
AcDbEntity
100
AcDbLine
  8
0
 62
256
370
-1
  6
ByLayer
 10
-106.1689999999999969
 20
-10.9440000000000008
 30
0.0
 11
-106.2819999999999965
 21
-10.8610000000000007
 31
0.0
  0
LINE
  5
130
100
AcDbEntity
100
AcDbLine
  8
0
 62
256
370
-1
  6
ByLayer
 10
-106.2819999999999965
 20
-10.8610000000000007
 30
0.0
 11
-106.3850000000000051
 21
-10.7650000000000006
 31
0.0
  0
LINE
  5
131
100
AcDbEntity
100
AcDbLine
  8
0
 62
256
370
-1
  6
ByLayer
 10
-106.3850000000000051
 20
-10.7650000000000006
 30
0.0
 11
-106.4740000000000038
 21
-10.657
 31
0.0
  0
LINE
  5
132
100
AcDbEntity
100
AcDbLine
  8
0
 62
256
370
-1
  6
ByLayer
 10
-106.4740000000000038
 20
-10.657
 30
0.0
 11
-106.5490000000000066
 21
-10.5380000000000003
 31
0.0
  0
LINE
  5
133
100
AcDbEntity
100
AcDbLine
  8
0
 62
256
370
-1
  6
ByLayer
 10
-106.5490000000000066
 20
-10.5380000000000003
 30
0.0
 11
-106.6089999999999947
 21
-10.4109999999999996
 31
0.0
  0
LINE
  5
134
100
AcDbEntity
100
AcDbLine
  8
0
 62
256
370
-1
  6
ByLayer
 10
-106.6089999999999947
 20
-10.4109999999999996
 30
0.0
 11
-106.652000000000001
 21
-10.2780000000000005
 31
0.0
  0
LINE
  5
135
100
AcDbEntity
100
AcDbLine
  8
0
 62
256
370
-1
  6
ByLayer
 10
-106.652000000000001
 20
-10.2780000000000005
 30
0.0
 11
-106.679000000000002
 21
-10.1400000000000006
 31
0.0
  0
LINE
  5
136
100
AcDbEntity
100
AcDbLine
  8
0
 62
256
370
-1
  6
ByLayer
 10
-106.679000000000002
 20
-10.1400000000000006
 30
0.0
 11
-106.6880000000000024
 21
-10.0
 31
0.0
  0
LINE
  5
137
100
AcDbEntity
100
AcDbLine
  8
0
 62
256
370
-1
  6
ByLayer
 10
-106.6880000000000024
 20
10.0
 30
0.0
 11
-106.679000000000002
 21
10.1400000000000006
 31
0.0
  0
LINE
  5
138
100
AcDbEntity
100
AcDbLine
  8
0
 62
256
370
-1
  6
ByLayer
 10
-106.679000000000002
 20
10.1400000000000006
 30
0.0
 11
-106.652000000000001
 21
10.2780000000000005
 31
0.0
  0
LINE
  5
139
100
AcDbEntity
100
AcDbLine
  8
0
 62
256
370
-1
  6
ByLayer
 10
-106.652000000000001
 20
10.2780000000000005
 30
0.0
 11
-106.6089999999999947
 21
10.4109999999999996
 31
0.0
  0
LINE
  5
13A
100
AcDbEntity
100
AcDbLine
  8
0
 62
256
370
-1
  6
ByLayer
 10
-106.6089999999999947
 20
10.4109999999999996
 30
0.0
 11
-106.5490000000000066
 21
10.5380000000000003
 31
0.0
  0
LINE
  5
13B
100
AcDbEntity
100
AcDbLine
  8
0
 62
256
370
-1
  6
ByLayer
 10
-106.5490000000000066
 20
10.5380000000000003
 30
0.0
 11
-106.4740000000000038
 21
10.657
 31
0.0
  0
LINE
  5
13C
100
AcDbEntity
100
AcDbLine
  8
0
 62
256
370
-1
  6
ByLayer
 10
-106.4740000000000038
 20
10.657
 30
0.0
 11
-106.3850000000000051
 21
10.7650000000000006
 31
0.0
  0
LINE
  5
13D
100
AcDbEntity
100
AcDbLine
  8
0
 62
256
370
-1
  6
ByLayer
 10
-106.3850000000000051
 20
10.7650000000000006
 30
0.0
 11
-106.2819999999999965
 21
10.8610000000000007
 31
0.0
  0
LINE
  5
13E
100
AcDbEntity
100
AcDbLine
  8
0
 62
256
370
-1
  6
ByLayer
 10
-106.2819999999999965
 20
10.8610000000000007
 30
0.0
 11
-106.1689999999999969
 21
10.9440000000000008
 31
0.0
  0
LINE
  5
13F
100
AcDbEntity
100
AcDbLine
  8
0
 62
256
370
-1
  6
ByLayer
 10
-106.1689999999999969
 20
10.9440000000000008
 30
0.0
 11
-106.0460000000000065
 21
11.0109999999999992
 31
0.0
  0
LINE
  5
140
100
AcDbEntity
100
AcDbLine
  8
0
 62
256
370
-1
  6
ByLayer
 10
-106.0460000000000065
 20
11.0109999999999992
 30
0.0
 11
-105.9150000000000063
 21
11.0630000000000006
 31
0.0
  0
LINE
  5
141
100
AcDbEntity
100
AcDbLine
  8
0
 62
256
370
-1
  6
ByLayer
 10
-105.9150000000000063
 20
11.0630000000000006
 30
0.0
 11
-105.7789999999999964
 21
11.0980000000000008
 31
0.0
  0
LINE
  5
142
100
AcDbEntity
100
AcDbLine
  8
0
 62
256
370
-1
  6
ByLayer
 10
-105.7789999999999964
 20
11.0980000000000008
 30
0.0
 11
-105.6400000000000006
 21
11.1150000000000002
 31
0.0
  0
LINE
  5
143
100
AcDbEntity
100
AcDbLine
  8
0
 62
256
370
-1
  6
ByLayer
 10
-105.6400000000000006
 20
11.1150000000000002
 30
0.0
 11
-105.5
 21
11.1150000000000002
 31
0.0
  0
LINE
  5
144
100
AcDbEntity
100
AcDbLine
  8
0
 62
256
370
-1
  6
ByLayer
 10
-105.5
 20
11.1150000000000002
 30
0.0
 11
-105.3610000000000042
 21
11.0980000000000008
 31
0.0
  0
LINE
  5
145
100
AcDbEntity
100
AcDbLine
  8
0
 62
256
370
-1
  6
ByLayer
 10
-105.3610000000000042
 20
11.0980000000000008
 30
0.0
 11
-105.2249999999999943
 21
11.0630000000000006
 31
0.0
  0
LINE
  5
146
100
AcDbEntity
100
AcDbLine
  8
0
 62
256
370
-1
  6
ByLayer
 10
-105.2249999999999943
 20
11.0630000000000006
 30
0.0
 11
-105.0939999999999941
 21
11.0109999999999992
 31
0.0
  0
LINE
  5
147
100
AcDbEntity
100
AcDbLine
  8
0
 62
256
370
-1
  6
ByLayer
 10
-105.0939999999999941
 20
11.0109999999999992
 30
0.0
 11
-104.9710000000000036
 21
10.9440000000000008
 31
0.0
  0
LINE
  5
148
100
AcDbEntity
100
AcDbLine
  8
0
 62
256
370
-1
  6
ByLayer
 10
-104.9710000000000036
 20
10.9440000000000008
 30
0.0
 11
-104.8580000000000041
 21
10.8610000000000007
 31
0.0
  0
LINE
  5
149
100
AcDbEntity
100
AcDbLine
  8
0
 62
256
370
-1
  6
ByLayer
 10
-104.8580000000000041
 20
10.8610000000000007
 30
0.0
 11
-104.7549999999999955
 21
10.7650000000000006
 31
0.0
  0
LINE
  5
14A
100
AcDbEntity
100
AcDbLine
  8
0
 62
256
370
-1
  6
ByLayer
 10
-104.7549999999999955
 20
10.7650000000000006
 30
0.0
 11
-104.6659999999999968
 21
10.657
 31
0.0
  0
LINE
  5
14B
100
AcDbEntity
100
AcDbLine
  8
0
 62
256
370
-1
  6
ByLayer
 10
-104.6659999999999968
 20
10.657
 30
0.0
 11
-104.590999999999994
 21
10.5380000000000003
 31
0.0
  0
LINE
  5
14C
100
AcDbEntity
100
AcDbLine
  8
0
 62
256
370
-1
  6
ByLayer
 10
-104.590999999999994
 20
10.5380000000000003
 30
0.0
 11
-104.5310000000000059
 21
10.4109999999999996
 31
0.0
  0
LINE
  5
14D
100
AcDbEntity
100
AcDbLine
  8
0
 62
256
370
-1
  6
ByLayer
 10
-104.5310000000000059
 20
10.4109999999999996
 30
0.0
 11
-104.4879999999999995
 21
10.2780000000000005
 31
0.0
  0
LINE
  5
14E
100
AcDbEntity
100
AcDbLine
  8
0
 62
256
370
-1
  6
ByLayer
 10
-104.4879999999999995
 20
10.2780000000000005
 30
0.0
 11
-104.4609999999999985
 21
10.1400000000000006
 31
0.0
  0
LINE
  5
14F
100
AcDbEntity
100
AcDbLine
  8
0
 62
256
370
-1
  6
ByLayer
 10
-104.4609999999999985
 20
10.1400000000000006
 30
0.0
 11
-104.4519999999999982
 21
10.0
 31
0.0
  0
LINE
  5
150
100
AcDbEntity
100
AcDbLine
  8
0
 62
256
370
-1
  6
ByLayer
 10
-104.4519999999999982
 20
10.0
 30
0.0
 11
-104.4609999999999985
 21
9.8599999999999994
 31
0.0
  0
LINE
  5
151
100
AcDbEntity
100
AcDbLine
  8
0
 62
256
370
-1
  6
ByLayer
 10
-104.4609999999999985
 20
9.8599999999999994
 30
0.0
 11
-104.4879999999999995
 21
9.7219999999999995
 31
0.0
  0
LINE
  5
152
100
AcDbEntity
100
AcDbLine
  8
0
 62
256
370
-1
  6
ByLayer
 10
-104.4879999999999995
 20
9.7219999999999995
 30
0.0
 11
-104.5310000000000059
 21
9.5890000000000004
 31
0.0
  0
LINE
  5
153
100
AcDbEntity
100
AcDbLine
  8
0
 62
256
370
-1
  6
ByLayer
 10
-104.5310000000000059
 20
9.5890000000000004
 30
0.0
 11
-104.590999999999994
 21
9.4619999999999997
 31
0.0
  0
LINE
  5
154
100
AcDbEntity
100
AcDbLine
  8
0
 62
256
370
-1
  6
ByLayer
 10
-104.590999999999994
 20
9.4619999999999997
 30
0.0
 11
-104.6659999999999968
 21
9.343
 31
0.0
  0
LINE
  5
155
100
AcDbEntity
100
AcDbLine
  8
0
 62
256
370
-1
  6
ByLayer
 10
-104.6659999999999968
 20
9.343
 30
0.0
 11
-104.7549999999999955
 21
9.2349999999999994
 31
0.0
  0
LINE
  5
156
100
AcDbEntity
100
AcDbLine
  8
0
 62
256
370
-1
  6
ByLayer
 10
-104.7549999999999955
 20
9.2349999999999994
 30
0.0
 11
-104.8580000000000041
 21
9.1389999999999993
 31
0.0
  0
LINE
  5
157
100
AcDbEntity
100
AcDbLine
  8
0
 62
256
370
-1
  6
ByLayer
 10
-104.8580000000000041
 20
9.1389999999999993
 30
0.0
 11
-104.9710000000000036
 21
9.0559999999999992
 31
0.0
  0
LINE
  5
158
100
AcDbEntity
100
AcDbLine
  8
0
 62
256
370
-1
  6
ByLayer
 10
-104.9710000000000036
 20
9.0559999999999992
 30
0.0
 11
-105.0939999999999941
 21
8.9890000000000008
 31
0.0
  0
LINE
  5
159
100
AcDbEntity
100
AcDbLine
  8
0
 62
256
370
-1
  6
ByLayer
 10
-105.0939999999999941
 20
8.9890000000000008
 30
0.0
 11
-105.2249999999999943
 21
8.9369999999999994
 31
0.0
  0
LINE
  5
15A
100
AcDbEntity
100
AcDbLine
  8
0
 62
256
370
-1
  6
ByLayer
 10
-105.2249999999999943
 20
8.9369999999999994
 30
0.0
 11
-105.3610000000000042
 21
8.9019999999999992
 31
0.0
  0
LINE
  5
15B
100
AcDbEntity
100
AcDbLine
  8
0
 62
256
370
-1
  6
ByLayer
 10
-105.3610000000000042
 20
8.9019999999999992
 30
0.0
 11
-105.5
 21
8.8849999999999998
 31
0.0
  0
LINE
  5
15C
100
AcDbEntity
100
AcDbLine
  8
0
 62
256
370
-1
  6
ByLayer
 10
-105.5
 20
8.8849999999999998
 30
0.0
 11
-105.6400000000000006
 21
8.8849999999999998
 31
0.0
  0
LINE
  5
15D
100
AcDbEntity
100
AcDbLine
  8
0
 62
256
370
-1
  6
ByLayer
 10
-105.6400000000000006
 20
8.8849999999999998
 30
0.0
 11
-105.7789999999999964
 21
8.9019999999999992
 31
0.0
  0
LINE
  5
15E
100
AcDbEntity
100
AcDbLine
  8
0
 62
256
370
-1
  6
ByLayer
 10
-105.7789999999999964
 20
8.9019999999999992
 30
0.0
 11
-105.9150000000000063
 21
8.9369999999999994
 31
0.0
  0
LINE
  5
15F
100
AcDbEntity
100
AcDbLine
  8
0
 62
256
370
-1
  6
ByLayer
 10
-105.9150000000000063
 20
8.9369999999999994
 30
0.0
 11
-106.0460000000000065
 21
8.9890000000000008
 31
0.0
  0
LINE
  5
160
100
AcDbEntity
100
AcDbLine
  8
0
 62
256
370
-1
  6
ByLayer
 10
-106.0460000000000065
 20
8.9890000000000008
 30
0.0
 11
-106.1689999999999969
 21
9.0559999999999992
 31
0.0
  0
LINE
  5
161
100
AcDbEntity
100
AcDbLine
  8
0
 62
256
370
-1
  6
ByLayer
 10
-106.1689999999999969
 20
9.0559999999999992
 30
0.0
 11
-106.2819999999999965
 21
9.1389999999999993
 31
0.0
  0
LINE
  5
162
100
AcDbEntity
100
AcDbLine
  8
0
 62
256
370
-1
  6
ByLayer
 10
-106.2819999999999965
 20
9.1389999999999993
 30
0.0
 11
-106.3850000000000051
 21
9.2349999999999994
 31
0.0
  0
LINE
  5
163
100
AcDbEntity
100
AcDbLine
  8
0
 62
256
370
-1
  6
ByLayer
 10
-106.3850000000000051
 20
9.2349999999999994
 30
0.0
 11
-106.4740000000000038
 21
9.343
 31
0.0
  0
LINE
  5
164
100
AcDbEntity
100
AcDbLine
  8
0
 62
256
370
-1
  6
ByLayer
 10
-106.4740000000000038
 20
9.343
 30
0.0
 11
-106.5490000000000066
 21
9.4619999999999997
 31
0.0
  0
LINE
  5
165
100
AcDbEntity
100
AcDbLine
  8
0
 62
256
370
-1
  6
ByLayer
 10
-106.5490000000000066
 20
9.4619999999999997
 30
0.0
 11
-106.6089999999999947
 21
9.5890000000000004
 31
0.0
  0
LINE
  5
166
100
AcDbEntity
100
AcDbLine
  8
0
 62
256
370
-1
  6
ByLayer
 10
-106.6089999999999947
 20
9.5890000000000004
 30
0.0
 11
-106.652000000000001
 21
9.7219999999999995
 31
0.0
  0
LINE
  5
167
100
AcDbEntity
100
AcDbLine
  8
0
 62
256
370
-1
  6
ByLayer
 10
-106.652000000000001
 20
9.7219999999999995
 30
0.0
 11
-106.679000000000002
 21
9.8599999999999994
 31
0.0
  0
LINE
  5
168
100
AcDbEntity
100
AcDbLine
  8
0
 62
256
370
-1
  6
ByLayer
 10
-106.679000000000002
 20
9.8599999999999994
 30
0.0
 11
-106.6880000000000024
 21
10.0
 31
0.0
  0
LINE
  5
169
100
AcDbEntity
100
AcDbLine
  8
0
 62
256
370
-1
  6
ByLayer
 10
-70.9849999999999994
 20
-0.311
 30
0.0
 11
-70.9849999999999994
 21
0.311
 31
0.0
  0
LINE
  5
16A
100
AcDbEntity
100
AcDbLine
  8
0
 62
256
370
-1
  6
ByLayer
 10
-70.9849999999999994
 20
0.311
 30
0.0
 11
-70.9069999999999965
 21
0.928
 31
0.0
  0
LINE
  5
16B
100
AcDbEntity
100
AcDbLine
  8
0
 62
256
370
-1
  6
ByLayer
 10
-70.9069999999999965
 20
0.928
 30
0.0
 11
-70.7519999999999953
 21
1.5309999999999999
 31
0.0
  0
LINE
  5
16C
100
AcDbEntity
100
AcDbLine
  8
0
 62
256
370
-1
  6
ByLayer
 10
-70.7519999999999953
 20
1.5309999999999999
 30
0.0
 11
-70.5229999999999961
 21
2.1099999999999999
 31
0.0
  0
LINE
  5
16D
100
AcDbEntity
100
AcDbLine
  8
0
 62
256
370
-1
  6
ByLayer
 10
-70.5229999999999961
 20
2.1099999999999999
 30
0.0
 11
-70.2240000000000038
 21
2.6549999999999998
 31
0.0
  0
LINE
  5
16E
100
AcDbEntity
100
AcDbLine
  8
0
 62
256
370
-1
  6
ByLayer
 10
-70.2240000000000038
 20
2.6549999999999998
 30
0.0
 11
-69.8580000000000041
 21
3.1579999999999999
 31
0.0
  0
LINE
  5
16F
100
AcDbEntity
100
AcDbLine
  8
0
 62
256
370
-1
  6
ByLayer
 10
-69.8580000000000041
 20
3.1579999999999999
 30
0.0
 11
-69.4320000000000022
 21
3.6120000000000001
 31
0.0
  0
LINE
  5
170
100
AcDbEntity
100
AcDbLine
  8
0
 62
256
370
-1
  6
ByLayer
 10
-69.4320000000000022
 20
3.6120000000000001
 30
0.0
 11
-69.0960000000000036
 21
3.8900000000000001
 31
0.0
  0
LINE
  5
171
100
AcDbEntity
100
AcDbLine
  8
0
 62
256
370
-1
  6
ByLayer
 10
-69.0960000000000036
 20
3.8900000000000001
 30
0.0
 11
-62.9840000000000018
 21
3.8900000000000001
 31
0.0
  0
LINE
  5
172
100
AcDbEntity
100
AcDbLine
  8
0
 62
256
370
-1
  6
ByLayer
 10
-62.9840000000000018
 20
3.8900000000000001
 30
0.0
 11
-62.6480000000000032
 21
3.6120000000000001
 31
0.0
  0
LINE
  5
173
100
AcDbEntity
100
AcDbLine
  8
0
 62
256
370
-1
  6
ByLayer
 10
-62.6480000000000032
 20
3.6120000000000001
 30
0.0
 11
-62.2220000000000013
 21
3.1579999999999999
 31
0.0
  0
LINE
  5
174
100
AcDbEntity
100
AcDbLine
  8
0
 62
256
370
-1
  6
ByLayer
 10
-62.2220000000000013
 20
3.1579999999999999
 30
0.0
 11
-61.8560000000000016
 21
2.6549999999999998
 31
0.0
  0
LINE
  5
175
100
AcDbEntity
100
AcDbLine
  8
0
 62
256
370
-1
  6
ByLayer
 10
-61.8560000000000016
 20
2.6549999999999998
 30
0.0
 11
-61.5570000000000022
 21
2.1099999999999999
 31
0.0
  0
LINE
  5
176
100
AcDbEntity
100
AcDbLine
  8
0
 62
256
370
-1
  6
ByLayer
 10
-61.5570000000000022
 20
2.1099999999999999
 30
0.0
 11
-61.328000000000003
 21
1.5309999999999999
 31
0.0
  0
LINE
  5
177
100
AcDbEntity
100
AcDbLine
  8
0
 62
256
370
-1
  6
ByLayer
 10
-61.328000000000003
 20
1.5309999999999999
 30
0.0
 11
-61.1730000000000018
 21
0.928
 31
0.0
  0
LINE
  5
178
100
AcDbEntity
100
AcDbLine
  8
0
 62
256
370
-1
  6
ByLayer
 10
-61.1730000000000018
 20
0.928
 30
0.0
 11
-61.0949999999999989
 21
0.311
 31
0.0
  0
LINE
  5
179
100
AcDbEntity
100
AcDbLine
  8
0
 62
256
370
-1
  6
ByLayer
 10
-61.0949999999999989
 20
0.311
 30
0.0
 11
-61.0949999999999989
 21
-0.311
 31
0.0
  0
LINE
  5
17A
100
AcDbEntity
100
AcDbLine
  8
0
 62
256
370
-1
  6
ByLayer
 10
-61.0949999999999989
 20
-0.311
 30
0.0
 11
-61.1730000000000018
 21
-0.928
 31
0.0
  0
LINE
  5
17B
100
AcDbEntity
100
AcDbLine
  8
0
 62
256
370
-1
  6
ByLayer
 10
-61.1730000000000018
 20
-0.928
 30
0.0
 11
-61.328000000000003
 21
-1.5309999999999999
 31
0.0
  0
LINE
  5
17C
100
AcDbEntity
100
AcDbLine
  8
0
 62
256
370
-1
  6
ByLayer
 10
-61.328000000000003
 20
-1.5309999999999999
 30
0.0
 11
-61.5570000000000022
 21
-2.1099999999999999
 31
0.0
  0
LINE
  5
17D
100
AcDbEntity
100
AcDbLine
  8
0
 62
256
370
-1
  6
ByLayer
 10
-61.5570000000000022
 20
-2.1099999999999999
 30
0.0
 11
-61.8560000000000016
 21
-2.6549999999999998
 31
0.0
  0
LINE
  5
17E
100
AcDbEntity
100
AcDbLine
  8
0
 62
256
370
-1
  6
ByLayer
 10
-61.8560000000000016
 20
-2.6549999999999998
 30
0.0
 11
-62.2220000000000013
 21
-3.1579999999999999
 31
0.0
  0
LINE
  5
17F
100
AcDbEntity
100
AcDbLine
  8
0
 62
256
370
-1
  6
ByLayer
 10
-62.2220000000000013
 20
-3.1579999999999999
 30
0.0
 11
-62.6480000000000032
 21
-3.6120000000000001
 31
0.0
  0
LINE
  5
180
100
AcDbEntity
100
AcDbLine
  8
0
 62
256
370
-1
  6
ByLayer
 10
-62.6480000000000032
 20
-3.6120000000000001
 30
0.0
 11
-63.1280000000000001
 21
-4.0090000000000003
 31
0.0
  0
LINE
  5
181
100
AcDbEntity
100
AcDbLine
  8
0
 62
256
370
-1
  6
ByLayer
 10
-63.1280000000000001
 20
-4.0090000000000003
 30
0.0
 11
-63.6529999999999987
 21
-4.3419999999999996
 31
0.0
  0
LINE
  5
182
100
AcDbEntity
100
AcDbLine
  8
0
 62
256
370
-1
  6
ByLayer
 10
-63.6529999999999987
 20
-4.3419999999999996
 30
0.0
 11
-64.215999999999994
 21
-4.6070000000000002
 31
0.0
  0
LINE
  5
183
100
AcDbEntity
100
AcDbLine
  8
0
 62
256
370
-1
  6
ByLayer
 10
-64.215999999999994
 20
-4.6070000000000002
 30
0.0
 11
-64.8080000000000069
 21
-4.7990000000000004
 31
0.0
  0
LINE
  5
184
100
AcDbEntity
100
AcDbLine
  8
0
 62
256
370
-1
  6
ByLayer
 10
-64.8080000000000069
 20
-4.7990000000000004
 30
0.0
 11
-65.4189999999999969
 21
-4.9160000000000004
 31
0.0
  0
LINE
  5
185
100
AcDbEntity
100
AcDbLine
  8
0
 62
256
370
-1
  6
ByLayer
 10
-65.4189999999999969
 20
-4.9160000000000004
 30
0.0
 11
-66.0400000000000063
 21
-4.9550000000000001
 31
0.0
  0
LINE
  5
186
100
AcDbEntity
100
AcDbLine
  8
0
 62
256
370
-1
  6
ByLayer
 10
-66.0400000000000063
 20
-4.9550000000000001
 30
0.0
 11
-66.6610000000000014
 21
-4.9160000000000004
 31
0.0
  0
LINE
  5
187
100
AcDbEntity
100
AcDbLine
  8
0
 62
256
370
-1
  6
ByLayer
 10
-66.6610000000000014
 20
-4.9160000000000004
 30
0.0
 11
-67.2720000000000056
 21
-4.7990000000000004
 31
0.0
  0
LINE
  5
188
100
AcDbEntity
100
AcDbLine
  8
0
 62
256
370
-1
  6
ByLayer
 10
-67.2720000000000056
 20
-4.7990000000000004
 30
0.0
 11
-67.8640000000000043
 21
-4.6070000000000002
 31
0.0
  0
LINE
  5
189
100
AcDbEntity
100
AcDbLine
  8
0
 62
256
370
-1
  6
ByLayer
 10
-67.8640000000000043
 20
-4.6070000000000002
 30
0.0
 11
-68.4270000000000067
 21
-4.3419999999999996
 31
0.0
  0
LINE
  5
18A
100
AcDbEntity
100
AcDbLine
  8
0
 62
256
370
-1
  6
ByLayer
 10
-68.4270000000000067
 20
-4.3419999999999996
 30
0.0
 11
-68.9519999999999982
 21
-4.0090000000000003
 31
0.0
  0
LINE
  5
18B
100
AcDbEntity
100
AcDbLine
  8
0
 62
256
370
-1
  6
ByLayer
 10
-68.9519999999999982
 20
-4.0090000000000003
 30
0.0
 11
-69.4320000000000022
 21
-3.6120000000000001
 31
0.0
  0
LINE
  5
18C
100
AcDbEntity
100
AcDbLine
  8
0
 62
256
370
-1
  6
ByLayer
 10
-69.4320000000000022
 20
-3.6120000000000001
 30
0.0
 11
-69.8580000000000041
 21
-3.1579999999999999
 31
0.0
  0
LINE
  5
18D
100
AcDbEntity
100
AcDbLine
  8
0
 62
256
370
-1
  6
ByLayer
 10
-69.8580000000000041
 20
-3.1579999999999999
 30
0.0
 11
-70.2240000000000038
 21
-2.6549999999999998
 31
0.0
  0
LINE
  5
18E
100
AcDbEntity
100
AcDbLine
  8
0
 62
256
370
-1
  6
ByLayer
 10
-70.2240000000000038
 20
-2.6549999999999998
 30
0.0
 11
-70.5229999999999961
 21
-2.1099999999999999
 31
0.0
  0
LINE
  5
18F
100
AcDbEntity
100
AcDbLine
  8
0
 62
256
370
-1
  6
ByLayer
 10
-70.5229999999999961
 20
-2.1099999999999999
 30
0.0
 11
-70.7519999999999953
 21
-1.5309999999999999
 31
0.0
  0
LINE
  5
190
100
AcDbEntity
100
AcDbLine
  8
0
 62
256
370
-1
  6
ByLayer
 10
-70.7519999999999953
 20
-1.5309999999999999
 30
0.0
 11
-70.9069999999999965
 21
-0.928
 31
0.0
  0
LINE
  5
191
100
AcDbEntity
100
AcDbLine
  8
0
 62
256
370
-1
  6
ByLayer
 10
-70.9069999999999965
 20
-0.928
 30
0.0
 11
-70.9849999999999994
 21
-0.311
 31
0.0
  0
LINE
  5
192
100
AcDbEntity
100
AcDbLine
  8
0
 62
256
370
-1
  6
ByLayer
 10
-37.9650000000000034
 20
-0.311
 30
0.0
 11
-37.9650000000000034
 21
0.311
 31
0.0
  0
LINE
  5
193
100
AcDbEntity
100
AcDbLine
  8
0
 62
256
370
-1
  6
ByLayer
 10
-37.9650000000000034
 20
0.311
 30
0.0
 11
-37.8870000000000005
 21
0.928
 31
0.0
  0
LINE
  5
194
100
AcDbEntity
100
AcDbLine
  8
0
 62
256
370
-1
  6
ByLayer
 10
-37.8870000000000005
 20
0.928
 30
0.0
 11
-37.7319999999999993
 21
1.5309999999999999
 31
0.0
  0
LINE
  5
195
100
AcDbEntity
100
AcDbLine
  8
0
 62
256
370
-1
  6
ByLayer
 10
-37.7319999999999993
 20
1.5309999999999999
 30
0.0
 11
-37.5030000000000001
 21
2.1099999999999999
 31
0.0
  0
LINE
  5
196
100
AcDbEntity
100
AcDbLine
  8
0
 62
256
370
-1
  6
ByLayer
 10
-37.5030000000000001
 20
2.1099999999999999
 30
0.0
 11
-37.2040000000000006
 21
2.6549999999999998
 31
0.0
  0
LINE
  5
197
100
AcDbEntity
100
AcDbLine
  8
0
 62
256
370
-1
  6
ByLayer
 10
-37.2040000000000006
 20
2.6549999999999998
 30
0.0
 11
-36.838000000000001
 21
3.1579999999999999
 31
0.0
  0
LINE
  5
198
100
AcDbEntity
100
AcDbLine
  8
0
 62
256
370
-1
  6
ByLayer
 10
-36.838000000000001
 20
3.1579999999999999
 30
0.0
 11
-36.411999999999999
 21
3.6120000000000001
 31
0.0
  0
LINE
  5
199
100
AcDbEntity
100
AcDbLine
  8
0
 62
256
370
-1
  6
ByLayer
 10
-36.411999999999999
 20
3.6120000000000001
 30
0.0
 11
-36.0760000000000005
 21
3.8900000000000001
 31
0.0
  0
LINE
  5
19A
100
AcDbEntity
100
AcDbLine
  8
0
 62
256
370
-1
  6
ByLayer
 10
-36.0760000000000005
 20
3.8900000000000001
 30
0.0
 11
-29.9639999999999986
 21
3.8900000000000001
 31
0.0
  0
LINE
  5
19B
100
AcDbEntity
100
AcDbLine
  8
0
 62
256
370
-1
  6
ByLayer
 10
-29.9639999999999986
 20
3.8900000000000001
 30
0.0
 11
-29.6280000000000001
 21
3.6120000000000001
 31
0.0
  0
LINE
  5
19C
100
AcDbEntity
100
AcDbLine
  8
0
 62
256
370
-1
  6
ByLayer
 10
-29.6280000000000001
 20
3.6120000000000001
 30
0.0
 11
-29.2020000000000017
 21
3.1579999999999999
 31
0.0
  0
LINE
  5
19D
100
AcDbEntity
100
AcDbLine
  8
0
 62
256
370
-1
  6
ByLayer
 10
-29.2020000000000017
 20
3.1579999999999999
 30
0.0
 11
-28.8359999999999985
 21
2.6549999999999998
 31
0.0
  0
LINE
  5
19E
100
AcDbEntity
100
AcDbLine
  8
0
 62
256
370
-1
  6
ByLayer
 10
-28.8359999999999985
 20
2.6549999999999998
 30
0.0
 11
-28.536999999999999
 21
2.1099999999999999
 31
0.0
  0
LINE
  5
19F
100
AcDbEntity
100
AcDbLine
  8
0
 62
256
370
-1
  6
ByLayer
 10
-28.536999999999999
 20
2.1099999999999999
 30
0.0
 11
-28.3079999999999998
 21
1.5309999999999999
 31
0.0
  0
LINE
  5
1A0
100
AcDbEntity
100
AcDbLine
  8
0
 62
256
370
-1
  6
ByLayer
 10
-28.3079999999999998
 20
1.5309999999999999
 30
0.0
 11
-28.1529999999999987
 21
0.928
 31
0.0
  0
LINE
  5
1A1
100
AcDbEntity
100
AcDbLine
  8
0
 62
256
370
-1
  6
ByLayer
 10
-28.1529999999999987
 20
0.928
 30
0.0
 11
-28.0749999999999993
 21
0.311
 31
0.0
  0
LINE
  5
1A2
100
AcDbEntity
100
AcDbLine
  8
0
 62
256
370
-1
  6
ByLayer
 10
-28.0749999999999993
 20
0.311
 30
0.0
 11
-28.0749999999999993
 21
-0.311
 31
0.0
  0
LINE
  5
1A3
100
AcDbEntity
100
AcDbLine
  8
0
 62
256
370
-1
  6
ByLayer
 10
-28.0749999999999993
 20
-0.311
 30
0.0
 11
-28.1529999999999987
 21
-0.928
 31
0.0
  0
LINE
  5
1A4
100
AcDbEntity
100
AcDbLine
  8
0
 62
256
370
-1
  6
ByLayer
 10
-28.1529999999999987
 20
-0.928
 30
0.0
 11
-28.3079999999999998
 21
-1.5309999999999999
 31
0.0
  0
LINE
  5
1A5
100
AcDbEntity
100
AcDbLine
  8
0
 62
256
370
-1
  6
ByLayer
 10
-28.3079999999999998
 20
-1.5309999999999999
 30
0.0
 11
-28.536999999999999
 21
-2.1099999999999999
 31
0.0
  0
LINE
  5
1A6
100
AcDbEntity
100
AcDbLine
  8
0
 62
256
370
-1
  6
ByLayer
 10
-28.536999999999999
 20
-2.1099999999999999
 30
0.0
 11
-28.8359999999999985
 21
-2.6549999999999998
 31
0.0
  0
LINE
  5
1A7
100
AcDbEntity
100
AcDbLine
  8
0
 62
256
370
-1
  6
ByLayer
 10
-28.8359999999999985
 20
-2.6549999999999998
 30
0.0
 11
-29.2020000000000017
 21
-3.1579999999999999
 31
0.0
  0
LINE
  5
1A8
100
AcDbEntity
100
AcDbLine
  8
0
 62
256
370
-1
  6
ByLayer
 10
-29.2020000000000017
 20
-3.1579999999999999
 30
0.0
 11
-29.6280000000000001
 21
-3.6120000000000001
 31
0.0
  0
LINE
  5
1A9
100
AcDbEntity
100
AcDbLine
  8
0
 62
256
370
-1
  6
ByLayer
 10
-29.6280000000000001
 20
-3.6120000000000001
 30
0.0
 11
-30.1080000000000005
 21
-4.0090000000000003
 31
0.0
  0
LINE
  5
1AA
100
AcDbEntity
100
AcDbLine
  8
0
 62
256
370
-1
  6
ByLayer
 10
-30.1080000000000005
 20
-4.0090000000000003
 30
0.0
 11
-30.6329999999999991
 21
-4.3419999999999996
 31
0.0
  0
LINE
  5
1AB
100
AcDbEntity
100
AcDbLine
  8
0
 62
256
370
-1
  6
ByLayer
 10
-30.6329999999999991
 20
-4.3419999999999996
 30
0.0
 11
-31.1960000000000015
 21
-4.6070000000000002
 31
0.0
  0
LINE
  5
1AC
100
AcDbEntity
100
AcDbLine
  8
0
 62
256
370
-1
  6
ByLayer
 10
-31.1960000000000015
 20
-4.6070000000000002
 30
0.0
 11
-31.7880000000000003
 21
-4.7990000000000004
 31
0.0
  0
LINE
  5
1AD
100
AcDbEntity
100
AcDbLine
  8
0
 62
256
370
-1
  6
ByLayer
 10
-31.7880000000000003
 20
-4.7990000000000004
 30
0.0
 11
-32.3990000000000009
 21
-4.9160000000000004
 31
0.0
  0
LINE
  5
1AE
100
AcDbEntity
100
AcDbLine
  8
0
 62
256
370
-1
  6
ByLayer
 10
-32.3990000000000009
 20
-4.9160000000000004
 30
0.0
 11
-33.0200000000000031
 21
-4.9550000000000001
 31
0.0
  0
LINE
  5
1AF
100
AcDbEntity
100
AcDbLine
  8
0
 62
256
370
-1
  6
ByLayer
 10
-33.0200000000000031
 20
-4.9550000000000001
 30
0.0
 11
-33.6409999999999982
 21
-4.9160000000000004
 31
0.0
  0
LINE
  5
1B0
100
AcDbEntity
100
AcDbLine
  8
0
 62
256
370
-1
  6
ByLayer
 10
-33.6409999999999982
 20
-4.9160000000000004
 30
0.0
 11
-34.2520000000000024
 21
-4.7990000000000004
 31
0.0
  0
LINE
  5
1B1
100
AcDbEntity
100
AcDbLine
  8
0
 62
256
370
-1
  6
ByLayer
 10
-34.2520000000000024
 20
-4.7990000000000004
 30
0.0
 11
-34.8440000000000012
 21
-4.6070000000000002
 31
0.0
  0
LINE
  5
1B2
100
AcDbEntity
100
AcDbLine
  8
0
 62
256
370
-1
  6
ByLayer
 10
-34.8440000000000012
 20
-4.6070000000000002
 30
0.0
 11
-35.4069999999999965
 21
-4.3419999999999996
 31
0.0
  0
LINE
  5
1B3
100
AcDbEntity
100
AcDbLine
  8
0
 62
256
370
-1
  6
ByLayer
 10
-35.4069999999999965
 20
-4.3419999999999996
 30
0.0
 11
-35.9320000000000022
 21
-4.0090000000000003
 31
0.0
  0
LINE
  5
1B4
100
AcDbEntity
100
AcDbLine
  8
0
 62
256
370
-1
  6
ByLayer
 10
-35.9320000000000022
 20
-4.0090000000000003
 30
0.0
 11
-36.411999999999999
 21
-3.6120000000000001
 31
0.0
  0
LINE
  5
1B5
100
AcDbEntity
100
AcDbLine
  8
0
 62
256
370
-1
  6
ByLayer
 10
-36.411999999999999
 20
-3.6120000000000001
 30
0.0
 11
-36.838000000000001
 21
-3.1579999999999999
 31
0.0
  0
LINE
  5
1B6
100
AcDbEntity
100
AcDbLine
  8
0
 62
256
370
-1
  6
ByLayer
 10
-36.838000000000001
 20
-3.1579999999999999
 30
0.0
 11
-37.2040000000000006
 21
-2.6549999999999998
 31
0.0
  0
LINE
  5
1B7
100
AcDbEntity
100
AcDbLine
  8
0
 62
256
370
-1
  6
ByLayer
 10
-37.2040000000000006
 20
-2.6549999999999998
 30
0.0
 11
-37.5030000000000001
 21
-2.1099999999999999
 31
0.0
  0
LINE
  5
1B8
100
AcDbEntity
100
AcDbLine
  8
0
 62
256
370
-1
  6
ByLayer
 10
-37.5030000000000001
 20
-2.1099999999999999
 30
0.0
 11
-37.7319999999999993
 21
-1.5309999999999999
 31
0.0
  0
LINE
  5
1B9
100
AcDbEntity
100
AcDbLine
  8
0
 62
256
370
-1
  6
ByLayer
 10
-37.7319999999999993
 20
-1.5309999999999999
 30
0.0
 11
-37.8870000000000005
 21
-0.928
 31
0.0
  0
LINE
  5
1BA
100
AcDbEntity
100
AcDbLine
  8
0
 62
256
370
-1
  6
ByLayer
 10
-37.8870000000000005
 20
-0.928
 30
0.0
 11
-37.9650000000000034
 21
-0.311
 31
0.0
  0
LINE
  5
1BB
100
AcDbEntity
100
AcDbLine
  8
0
 62
256
370
-1
  6
ByLayer
 10
-12.6999999999999993
 20
62.7999999999999972
 30
0.0
 11
-12.6999999999999993
 21
88.2000000000000028
 31
0.0
  0
LINE
  5
1BC
100
AcDbEntity
100
AcDbLine
  8
0
 62
256
370
-1
  6
ByLayer
 10
-12.6999999999999993
 20
88.2000000000000028
 30
0.0
 11
12.6999999999999993
 21
88.2000000000000028
 31
0.0
  0
LINE
  5
1BD
100
AcDbEntity
100
AcDbLine
  8
0
 62
256
370
-1
  6
ByLayer
 10
12.6999999999999993
 20
88.2000000000000028
 30
0.0
 11
12.6999999999999993
 21
62.7999999999999972
 31
0.0
  0
LINE
  5
1BE
100
AcDbEntity
100
AcDbLine
  8
0
 62
256
370
-1
  6
ByLayer
 10
12.6999999999999993
 20
62.7999999999999972
 30
0.0
 11
-12.6999999999999993
 21
62.7999999999999972
 31
0.0
  0
LINE
  5
1BF
100
AcDbEntity
100
AcDbLine
  8
0
 62
256
370
-1
  6
ByLayer
 10
-4.9450000000000003
 20
-0.311
 30
0.0
 11
-4.9450000000000003
 21
0.311
 31
0.0
  0
LINE
  5
1C0
100
AcDbEntity
100
AcDbLine
  8
0
 62
256
370
-1
  6
ByLayer
 10
-4.9450000000000003
 20
0.311
 30
0.0
 11
-4.867
 21
0.928
 31
0.0
  0
LINE
  5
1C1
100
AcDbEntity
100
AcDbLine
  8
0
 62
256
370
-1
  6
ByLayer
 10
-4.867
 20
0.928
 30
0.0
 11
-4.7119999999999997
 21
1.5309999999999999
 31
0.0
  0
LINE
  5
1C2
100
AcDbEntity
100
AcDbLine
  8
0
 62
256
370
-1
  6
ByLayer
 10
-4.7119999999999997
 20
1.5309999999999999
 30
0.0
 11
-4.4829999999999997
 21
2.1099999999999999
 31
0.0
  0
LINE
  5
1C3
100
AcDbEntity
100
AcDbLine
  8
0
 62
256
370
-1
  6
ByLayer
 10
-4.4829999999999997
 20
2.1099999999999999
 30
0.0
 11
-4.1840000000000002
 21
2.6549999999999998
 31
0.0
  0
LINE
  5
1C4
100
AcDbEntity
100
AcDbLine
  8
0
 62
256
370
-1
  6
ByLayer
 10
-4.1840000000000002
 20
2.6549999999999998
 30
0.0
 11
-3.8180000000000001
 21
3.1579999999999999
 31
0.0
  0
LINE
  5
1C5
100
AcDbEntity
100
AcDbLine
  8
0
 62
256
370
-1
  6
ByLayer
 10
-3.8180000000000001
 20
3.1579999999999999
 30
0.0
 11
-3.3919999999999999
 21
3.6120000000000001
 31
0.0
  0
LINE
  5
1C6
100
AcDbEntity
100
AcDbLine
  8
0
 62
256
370
-1
  6
ByLayer
 10
-3.3919999999999999
 20
3.6120000000000001
 30
0.0
 11
-3.056
 21
3.8900000000000001
 31
0.0
  0
LINE
  5
1C7
100
AcDbEntity
100
AcDbLine
  8
0
 62
256
370
-1
  6
ByLayer
 10
-3.056
 20
3.8900000000000001
 30
0.0
 11
3.056
 21
3.8900000000000001
 31
0.0
  0
LINE
  5
1C8
100
AcDbEntity
100
AcDbLine
  8
0
 62
256
370
-1
  6
ByLayer
 10
3.056
 20
3.8900000000000001
 30
0.0
 11
3.3919999999999999
 21
3.6120000000000001
 31
0.0
  0
LINE
  5
1C9
100
AcDbEntity
100
AcDbLine
  8
0
 62
256
370
-1
  6
ByLayer
 10
3.3919999999999999
 20
3.6120000000000001
 30
0.0
 11
3.8180000000000001
 21
3.1579999999999999
 31
0.0
  0
LINE
  5
1CA
100
AcDbEntity
100
AcDbLine
  8
0
 62
256
370
-1
  6
ByLayer
 10
3.8180000000000001
 20
3.1579999999999999
 30
0.0
 11
4.1840000000000002
 21
2.6549999999999998
 31
0.0
  0
LINE
  5
1CB
100
AcDbEntity
100
AcDbLine
  8
0
 62
256
370
-1
  6
ByLayer
 10
4.1840000000000002
 20
2.6549999999999998
 30
0.0
 11
4.4829999999999997
 21
2.1099999999999999
 31
0.0
  0
LINE
  5
1CC
100
AcDbEntity
100
AcDbLine
  8
0
 62
256
370
-1
  6
ByLayer
 10
4.4829999999999997
 20
2.1099999999999999
 30
0.0
 11
4.7119999999999997
 21
1.5309999999999999
 31
0.0
  0
LINE
  5
1CD
100
AcDbEntity
100
AcDbLine
  8
0
 62
256
370
-1
  6
ByLayer
 10
4.7119999999999997
 20
1.5309999999999999
 30
0.0
 11
4.867
 21
0.928
 31
0.0
  0
LINE
  5
1CE
100
AcDbEntity
100
AcDbLine
  8
0
 62
256
370
-1
  6
ByLayer
 10
4.867
 20
0.928
 30
0.0
 11
4.9450000000000003
 21
0.311
 31
0.0
  0
LINE
  5
1CF
100
AcDbEntity
100
AcDbLine
  8
0
 62
256
370
-1
  6
ByLayer
 10
4.9450000000000003
 20
0.311
 30
0.0
 11
4.9450000000000003
 21
-0.311
 31
0.0
  0
LINE
  5
1D0
100
AcDbEntity
100
AcDbLine
  8
0
 62
256
370
-1
  6
ByLayer
 10
4.9450000000000003
 20
-0.311
 30
0.0
 11
4.867
 21
-0.928
 31
0.0
  0
LINE
  5
1D1
100
AcDbEntity
100
AcDbLine
  8
0
 62
256
370
-1
  6
ByLayer
 10
4.867
 20
-0.928
 30
0.0
 11
4.7119999999999997
 21
-1.5309999999999999
 31
0.0
  0
LINE
  5
1D2
100
AcDbEntity
100
AcDbLine
  8
0
 62
256
370
-1
  6
ByLayer
 10
4.7119999999999997
 20
-1.5309999999999999
 30
0.0
 11
4.4829999999999997
 21
-2.1099999999999999
 31
0.0
  0
LINE
  5
1D3
100
AcDbEntity
100
AcDbLine
  8
0
 62
256
370
-1
  6
ByLayer
 10
4.4829999999999997
 20
-2.1099999999999999
 30
0.0
 11
4.1840000000000002
 21
-2.6549999999999998
 31
0.0
  0
LINE
  5
1D4
100
AcDbEntity
100
AcDbLine
  8
0
 62
256
370
-1
  6
ByLayer
 10
4.1840000000000002
 20
-2.6549999999999998
 30
0.0
 11
3.8180000000000001
 21
-3.1579999999999999
 31
0.0
  0
LINE
  5
1D5
100
AcDbEntity
100
AcDbLine
  8
0
 62
256
370
-1
  6
ByLayer
 10
3.8180000000000001
 20
-3.1579999999999999
 30
0.0
 11
3.3919999999999999
 21
-3.6120000000000001
 31
0.0
  0
LINE
  5
1D6
100
AcDbEntity
100
AcDbLine
  8
0
 62
256
370
-1
  6
ByLayer
 10
3.3919999999999999
 20
-3.6120000000000001
 30
0.0
 11
2.9119999999999999
 21
-4.0090000000000003
 31
0.0
  0
LINE
  5
1D7
100
AcDbEntity
100
AcDbLine
  8
0
 62
256
370
-1
  6
ByLayer
 10
2.9119999999999999
 20
-4.0090000000000003
 30
0.0
 11
2.387
 21
-4.3419999999999996
 31
0.0
  0
LINE
  5
1D8
100
AcDbEntity
100
AcDbLine
  8
0
 62
256
370
-1
  6
ByLayer
 10
2.387
 20
-4.3419999999999996
 30
0.0
 11
1.8240000000000001
 21
-4.6070000000000002
 31
0.0
  0
LINE
  5
1D9
100
AcDbEntity
100
AcDbLine
  8
0
 62
256
370
-1
  6
ByLayer
 10
1.8240000000000001
 20
-4.6070000000000002
 30
0.0
 11
1.232
 21
-4.7990000000000004
 31
0.0
  0
LINE
  5
1DA
100
AcDbEntity
100
AcDbLine
  8
0
 62
256
370
-1
  6
ByLayer
 10
1.232
 20
-4.7990000000000004
 30
0.0
 11
0.621
 21
-4.9160000000000004
 31
0.0
  0
LINE
  5
1DB
100
AcDbEntity
100
AcDbLine
  8
0
 62
256
370
-1
  6
ByLayer
 10
0.621
 20
-4.9160000000000004
 30
0.0
 11
0.0
 21
-4.9550000000000001
 31
0.0
  0
LINE
  5
1DC
100
AcDbEntity
100
AcDbLine
  8
0
 62
256
370
-1
  6
ByLayer
 10
0.0
 20
-4.9550000000000001
 30
0.0
 11
-0.621
 21
-4.9160000000000004
 31
0.0
  0
LINE
  5
1DD
100
AcDbEntity
100
AcDbLine
  8
0
 62
256
370
-1
  6
ByLayer
 10
-0.621
 20
-4.9160000000000004
 30
0.0
 11
-1.232
 21
-4.7990000000000004
 31
0.0
  0
LINE
  5
1DE
100
AcDbEntity
100
AcDbLine
  8
0
 62
256
370
-1
  6
ByLayer
 10
-1.232
 20
-4.7990000000000004
 30
0.0
 11
-1.8240000000000001
 21
-4.6070000000000002
 31
0.0
  0
LINE
  5
1DF
100
AcDbEntity
100
AcDbLine
  8
0
 62
256
370
-1
  6
ByLayer
 10
-1.8240000000000001
 20
-4.6070000000000002
 30
0.0
 11
-2.387
 21
-4.3419999999999996
 31
0.0
  0
LINE
  5
1E0
100
AcDbEntity
100
AcDbLine
  8
0
 62
256
370
-1
  6
ByLayer
 10
-2.387
 20
-4.3419999999999996
 30
0.0
 11
-2.9119999999999999
 21
-4.0090000000000003
 31
0.0
  0
LINE
  5
1E1
100
AcDbEntity
100
AcDbLine
  8
0
 62
256
370
-1
  6
ByLayer
 10
-2.9119999999999999
 20
-4.0090000000000003
 30
0.0
 11
-3.3919999999999999
 21
-3.6120000000000001
 31
0.0
  0
LINE
  5
1E2
100
AcDbEntity
100
AcDbLine
  8
0
 62
256
370
-1
  6
ByLayer
 10
-3.3919999999999999
 20
-3.6120000000000001
 30
0.0
 11
-3.8180000000000001
 21
-3.1579999999999999
 31
0.0
  0
LINE
  5
1E3
100
AcDbEntity
100
AcDbLine
  8
0
 62
256
370
-1
  6
ByLayer
 10
-3.8180000000000001
 20
-3.1579999999999999
 30
0.0
 11
-4.1840000000000002
 21
-2.6549999999999998
 31
0.0
  0
LINE
  5
1E4
100
AcDbEntity
100
AcDbLine
  8
0
 62
256
370
-1
  6
ByLayer
 10
-4.1840000000000002
 20
-2.6549999999999998
 30
0.0
 11
-4.4829999999999997
 21
-2.1099999999999999
 31
0.0
  0
LINE
  5
1E5
100
AcDbEntity
100
AcDbLine
  8
0
 62
256
370
-1
  6
ByLayer
 10
-4.4829999999999997
 20
-2.1099999999999999
 30
0.0
 11
-4.7119999999999997
 21
-1.5309999999999999
 31
0.0
  0
LINE
  5
1E6
100
AcDbEntity
100
AcDbLine
  8
0
 62
256
370
-1
  6
ByLayer
 10
-4.7119999999999997
 20
-1.5309999999999999
 30
0.0
 11
-4.867
 21
-0.928
 31
0.0
  0
LINE
  5
1E7
100
AcDbEntity
100
AcDbLine
  8
0
 62
256
370
-1
  6
ByLayer
 10
-4.867
 20
-0.928
 30
0.0
 11
-4.9450000000000003
 21
-0.311
 31
0.0
  0
LINE
  5
1E8
100
AcDbEntity
100
AcDbLine
  8
0
 62
256
370
-1
  6
ByLayer
 10
52.4260000000000019
 20
0.0
 30
0.0
 11
52.4339999999999975
 21
0.14
 31
0.0
  0
LINE
  5
1E9
100
AcDbEntity
100
AcDbLine
  8
0
 62
256
370
-1
  6
ByLayer
 10
52.4339999999999975
 20
0.14
 30
0.0
 11
52.4609999999999985
 21
0.278
 31
0.0
  0
LINE
  5
1EA
100
AcDbEntity
100
AcDbLine
  8
0
 62
256
370
-1
  6
ByLayer
 10
52.4609999999999985
 20
0.278
 30
0.0
 11
52.5039999999999978
 21
0.411
 31
0.0
  0
LINE
  5
1EB
100
AcDbEntity
100
AcDbLine
  8
0
 62
256
370
-1
  6
ByLayer
 10
52.5039999999999978
 20
0.411
 30
0.0
 11
52.5640000000000001
 21
0.538
 31
0.0
  0
LINE
  5
1EC
100
AcDbEntity
100
AcDbLine
  8
0
 62
256
370
-1
  6
ByLayer
 10
52.5640000000000001
 20
0.538
 30
0.0
 11
52.6390000000000029
 21
0.657
 31
0.0
  0
LINE
  5
1ED
100
AcDbEntity
100
AcDbLine
  8
0
 62
256
370
-1
  6
ByLayer
 10
52.6390000000000029
 20
0.657
 30
0.0
 11
52.7289999999999992
 21
0.765
 31
0.0
  0
LINE
  5
1EE
100
AcDbEntity
100
AcDbLine
  8
0
 62
256
370
-1
  6
ByLayer
 10
52.7289999999999992
 20
0.765
 30
0.0
 11
52.8310000000000031
 21
0.861
 31
0.0
  0
LINE
  5
1EF
100
AcDbEntity
100
AcDbLine
  8
0
 62
256
370
-1
  6
ByLayer
 10
52.8310000000000031
 20
0.861
 30
0.0
 11
52.9440000000000026
 21
0.944
 31
0.0
  0
LINE
  5
1F0
100
AcDbEntity
100
AcDbLine
  8
0
 62
256
370
-1
  6
ByLayer
 10
52.9440000000000026
 20
0.944
 30
0.0
 11
53.0670000000000002
 21
1.0109999999999999
 31
0.0
  0
LINE
  5
1F1
100
AcDbEntity
100
AcDbLine
  8
0
 62
256
370
-1
  6
ByLayer
 10
53.0670000000000002
 20
1.0109999999999999
 30
0.0
 11
53.1980000000000004
 21
1.0629999999999999
 31
0.0
  0
LINE
  5
1F2
100
AcDbEntity
100
AcDbLine
  8
0
 62
256
370
-1
  6
ByLayer
 10
53.1980000000000004
 20
1.0629999999999999
 30
0.0
 11
53.3340000000000032
 21
1.0980000000000001
 31
0.0
  0
LINE
  5
1F3
100
AcDbEntity
100
AcDbLine
  8
0
 62
256
370
-1
  6
ByLayer
 10
53.3340000000000032
 20
1.0980000000000001
 30
0.0
 11
53.472999999999999
 21
1.115
 31
0.0
  0
LINE
  5
1F4
100
AcDbEntity
100
AcDbLine
  8
0
 62
256
370
-1
  6
ByLayer
 10
53.472999999999999
 20
1.115
 30
0.0
 11
53.6129999999999995
 21
1.115
 31
0.0
  0
LINE
  5
1F5
100
AcDbEntity
100
AcDbLine
  8
0
 62
256
370
-1
  6
ByLayer
 10
53.6129999999999995
 20
1.115
 30
0.0
 11
53.7530000000000001
 21
1.0980000000000001
 31
0.0
  0
LINE
  5
1F6
100
AcDbEntity
100
AcDbLine
  8
0
 62
256
370
-1
  6
ByLayer
 10
53.7530000000000001
 20
1.0980000000000001
 30
0.0
 11
53.8890000000000029
 21
1.0629999999999999
 31
0.0
  0
LINE
  5
1F7
100
AcDbEntity
100
AcDbLine
  8
0
 62
256
370
-1
  6
ByLayer
 10
53.8890000000000029
 20
1.0629999999999999
 30
0.0
 11
54.0189999999999984
 21
1.0109999999999999
 31
0.0
  0
LINE
  5
1F8
100
AcDbEntity
100
AcDbLine
  8
0
 62
256
370
-1
  6
ByLayer
 10
54.0189999999999984
 20
1.0109999999999999
 30
0.0
 11
54.142000000000003
 21
0.944
 31
0.0
  0
LINE
  5
1F9
100
AcDbEntity
100
AcDbLine
  8
0
 62
256
370
-1
  6
ByLayer
 10
54.142000000000003
 20
0.944
 30
0.0
 11
54.2560000000000002
 21
0.861
 31
0.0
  0
LINE
  5
1FA
100
AcDbEntity
100
AcDbLine
  8
0
 62
256
370
-1
  6
ByLayer
 10
54.2560000000000002
 20
0.861
 30
0.0
 11
54.357999999999997
 21
0.765
 31
0.0
  0
LINE
  5
1FB
100
AcDbEntity
100
AcDbLine
  8
0
 62
256
370
-1
  6
ByLayer
 10
54.357999999999997
 20
0.765
 30
0.0
 11
54.4470000000000027
 21
0.657
 31
0.0
  0
LINE
  5
1FC
100
AcDbEntity
100
AcDbLine
  8
0
 62
256
370
-1
  6
ByLayer
 10
54.4470000000000027
 20
0.657
 30
0.0
 11
54.5230000000000032
 21
0.538
 31
0.0
  0
LINE
  5
1FD
100
AcDbEntity
100
AcDbLine
  8
0
 62
256
370
-1
  6
ByLayer
 10
54.5230000000000032
 20
0.538
 30
0.0
 11
54.5820000000000007
 21
0.411
 31
0.0
  0
LINE
  5
1FE
100
AcDbEntity
100
AcDbLine
  8
0
 62
256
370
-1
  6
ByLayer
 10
54.5820000000000007
 20
0.411
 30
0.0
 11
54.6259999999999977
 21
0.278
 31
0.0
  0
LINE
  5
1FF
100
AcDbEntity
100
AcDbLine
  8
0
 62
256
370
-1
  6
ByLayer
 10
54.6259999999999977
 20
0.278
 30
0.0
 11
54.652000000000001
 21
0.14
 31
0.0
  0
LINE
  5
200
100
AcDbEntity
100
AcDbLine
  8
0
 62
256
370
-1
  6
ByLayer
 10
54.652000000000001
 20
0.14
 30
0.0
 11
54.6610000000000014
 21
0.0
 31
0.0
  0
LINE
  5
201
100
AcDbEntity
100
AcDbLine
  8
0
 62
256
370
-1
  6
ByLayer
 10
54.6610000000000014
 20
0.0
 30
0.0
 11
54.652000000000001
 21
-0.14
 31
0.0
  0
LINE
  5
202
100
AcDbEntity
100
AcDbLine
  8
0
 62
256
370
-1
  6
ByLayer
 10
54.652000000000001
 20
-0.14
 30
0.0
 11
54.6259999999999977
 21
-0.278
 31
0.0
  0
LINE
  5
203
100
AcDbEntity
100
AcDbLine
  8
0
 62
256
370
-1
  6
ByLayer
 10
54.6259999999999977
 20
-0.278
 30
0.0
 11
54.5820000000000007
 21
-0.411
 31
0.0
  0
LINE
  5
204
100
AcDbEntity
100
AcDbLine
  8
0
 62
256
370
-1
  6
ByLayer
 10
54.5820000000000007
 20
-0.411
 30
0.0
 11
54.5230000000000032
 21
-0.538
 31
0.0
  0
LINE
  5
205
100
AcDbEntity
100
AcDbLine
  8
0
 62
256
370
-1
  6
ByLayer
 10
54.5230000000000032
 20
-0.538
 30
0.0
 11
54.4470000000000027
 21
-0.657
 31
0.0
  0
LINE
  5
206
100
AcDbEntity
100
AcDbLine
  8
0
 62
256
370
-1
  6
ByLayer
 10
54.4470000000000027
 20
-0.657
 30
0.0
 11
54.357999999999997
 21
-0.765
 31
0.0
  0
LINE
  5
207
100
AcDbEntity
100
AcDbLine
  8
0
 62
256
370
-1
  6
ByLayer
 10
54.357999999999997
 20
-0.765
 30
0.0
 11
54.2560000000000002
 21
-0.861
 31
0.0
  0
LINE
  5
208
100
AcDbEntity
100
AcDbLine
  8
0
 62
256
370
-1
  6
ByLayer
 10
54.2560000000000002
 20
-0.861
 30
0.0
 11
54.142000000000003
 21
-0.944
 31
0.0
  0
LINE
  5
209
100
AcDbEntity
100
AcDbLine
  8
0
 62
256
370
-1
  6
ByLayer
 10
54.142000000000003
 20
-0.944
 30
0.0
 11
54.0189999999999984
 21
-1.0109999999999999
 31
0.0
  0
LINE
  5
20A
100
AcDbEntity
100
AcDbLine
  8
0
 62
256
370
-1
  6
ByLayer
 10
54.0189999999999984
 20
-1.0109999999999999
 30
0.0
 11
53.8890000000000029
 21
-1.0629999999999999
 31
0.0
  0
LINE
  5
20B
100
AcDbEntity
100
AcDbLine
  8
0
 62
256
370
-1
  6
ByLayer
 10
53.8890000000000029
 20
-1.0629999999999999
 30
0.0
 11
53.7530000000000001
 21
-1.0980000000000001
 31
0.0
  0
LINE
  5
20C
100
AcDbEntity
100
AcDbLine
  8
0
 62
256
370
-1
  6
ByLayer
 10
53.7530000000000001
 20
-1.0980000000000001
 30
0.0
 11
53.6129999999999995
 21
-1.115
 31
0.0
  0
LINE
  5
20D
100
AcDbEntity
100
AcDbLine
  8
0
 62
256
370
-1
  6
ByLayer
 10
53.6129999999999995
 20
-1.115
 30
0.0
 11
53.472999999999999
 21
-1.115
 31
0.0
  0
LINE
  5
20E
100
AcDbEntity
100
AcDbLine
  8
0
 62
256
370
-1
  6
ByLayer
 10
53.472999999999999
 20
-1.115
 30
0.0
 11
53.3340000000000032
 21
-1.0980000000000001
 31
0.0
  0
LINE
  5
20F
100
AcDbEntity
100
AcDbLine
  8
0
 62
256
370
-1
  6
ByLayer
 10
53.3340000000000032
 20
-1.0980000000000001
 30
0.0
 11
53.1980000000000004
 21
-1.0629999999999999
 31
0.0
  0
LINE
  5
210
100
AcDbEntity
100
AcDbLine
  8
0
 62
256
370
-1
  6
ByLayer
 10
53.1980000000000004
 20
-1.0629999999999999
 30
0.0
 11
53.0670000000000002
 21
-1.0109999999999999
 31
0.0
  0
LINE
  5
211
100
AcDbEntity
100
AcDbLine
  8
0
 62
256
370
-1
  6
ByLayer
 10
53.0670000000000002
 20
-1.0109999999999999
 30
0.0
 11
52.9440000000000026
 21
-0.944
 31
0.0
  0
LINE
  5
212
100
AcDbEntity
100
AcDbLine
  8
0
 62
256
370
-1
  6
ByLayer
 10
52.9440000000000026
 20
-0.944
 30
0.0
 11
52.8310000000000031
 21
-0.861
 31
0.0
  0
LINE
  5
213
100
AcDbEntity
100
AcDbLine
  8
0
 62
256
370
-1
  6
ByLayer
 10
52.8310000000000031
 20
-0.861
 30
0.0
 11
52.7289999999999992
 21
-0.765
 31
0.0
  0
LINE
  5
214
100
AcDbEntity
100
AcDbLine
  8
0
 62
256
370
-1
  6
ByLayer
 10
52.7289999999999992
 20
-0.765
 30
0.0
 11
52.6390000000000029
 21
-0.657
 31
0.0
  0
LINE
  5
215
100
AcDbEntity
100
AcDbLine
  8
0
 62
256
370
-1
  6
ByLayer
 10
52.6390000000000029
 20
-0.657
 30
0.0
 11
52.5640000000000001
 21
-0.538
 31
0.0
  0
LINE
  5
216
100
AcDbEntity
100
AcDbLine
  8
0
 62
256
370
-1
  6
ByLayer
 10
52.5640000000000001
 20
-0.538
 30
0.0
 11
52.5039999999999978
 21
-0.411
 31
0.0
  0
LINE
  5
217
100
AcDbEntity
100
AcDbLine
  8
0
 62
256
370
-1
  6
ByLayer
 10
52.5039999999999978
 20
-0.411
 30
0.0
 11
52.4609999999999985
 21
-0.278
 31
0.0
  0
LINE
  5
218
100
AcDbEntity
100
AcDbLine
  8
0
 62
256
370
-1
  6
ByLayer
 10
52.4609999999999985
 20
-0.278
 30
0.0
 11
52.4339999999999975
 21
-0.14
 31
0.0
  0
LINE
  5
219
100
AcDbEntity
100
AcDbLine
  8
0
 62
256
370
-1
  6
ByLayer
 10
52.4339999999999975
 20
-0.14
 30
0.0
 11
52.4260000000000019
 21
0.0
 31
0.0
  0
LINE
  5
21A
100
AcDbEntity
100
AcDbLine
  8
0
 62
256
370
-1
  6
ByLayer
 10
55.8800000000000026
 20
-6.2229999999999999
 30
0.0
 11
55.8800000000000026
 21
6.2229999999999999
 31
0.0
  0
LINE
  5
21B
100
AcDbEntity
100
AcDbLine
  8
0
 62
256
370
-1
  6
ByLayer
 10
55.8800000000000026
 20
6.2229999999999999
 30
0.0
 11
76.2000000000000028
 21
6.2229999999999999
 31
0.0
  0
LINE
  5
21C
100
AcDbEntity
100
AcDbLine
  8
0
 62
256
370
-1
  6
ByLayer
 10
76.2000000000000028
 20
6.2229999999999999
 30
0.0
 11
76.2000000000000028
 21
-6.2229999999999999
 31
0.0
  0
LINE
  5
21D
100
AcDbEntity
100
AcDbLine
  8
0
 62
256
370
-1
  6
ByLayer
 10
76.2000000000000028
 20
-6.2229999999999999
 30
0.0
 11
55.8800000000000026
 21
-6.2229999999999999
 31
0.0
  0
LINE
  5
21E
100
AcDbEntity
100
AcDbLine
  8
0
 62
256
370
-1
  6
ByLayer
 10
77.4189999999999969
 20
0.0
 30
0.0
 11
77.4279999999999973
 21
0.14
 31
0.0
  0
LINE
  5
21F
100
AcDbEntity
100
AcDbLine
  8
0
 62
256
370
-1
  6
ByLayer
 10
77.4279999999999973
 20
0.14
 30
0.0
 11
77.4539999999999935
 21
0.278
 31
0.0
  0
LINE
  5
220
100
AcDbEntity
100
AcDbLine
  8
0
 62
256
370
-1
  6
ByLayer
 10
77.4539999999999935
 20
0.278
 30
0.0
 11
77.4980000000000047
 21
0.411
 31
0.0
  0
LINE
  5
221
100
AcDbEntity
100
AcDbLine
  8
0
 62
256
370
-1
  6
ByLayer
 10
77.4980000000000047
 20
0.411
 30
0.0
 11
77.5570000000000022
 21
0.538
 31
0.0
  0
LINE
  5
222
100
AcDbEntity
100
AcDbLine
  8
0
 62
256
370
-1
  6
ByLayer
 10
77.5570000000000022
 20
0.538
 30
0.0
 11
77.6329999999999956
 21
0.657
 31
0.0
  0
LINE
  5
223
100
AcDbEntity
100
AcDbLine
  8
0
 62
256
370
-1
  6
ByLayer
 10
77.6329999999999956
 20
0.657
 30
0.0
 11
77.7219999999999942
 21
0.765
 31
0.0
  0
LINE
  5
224
100
AcDbEntity
100
AcDbLine
  8
0
 62
256
370
-1
  6
ByLayer
 10
77.7219999999999942
 20
0.765
 30
0.0
 11
77.8239999999999981
 21
0.861
 31
0.0
  0
LINE
  5
225
100
AcDbEntity
100
AcDbLine
  8
0
 62
256
370
-1
  6
ByLayer
 10
77.8239999999999981
 20
0.861
 30
0.0
 11
77.9380000000000024
 21
0.944
 31
0.0
  0
LINE
  5
226
100
AcDbEntity
100
AcDbLine
  8
0
 62
256
370
-1
  6
ByLayer
 10
77.9380000000000024
 20
0.944
 30
0.0
 11
78.061000000000007
 21
1.0109999999999999
 31
0.0
  0
LINE
  5
227
100
AcDbEntity
100
AcDbLine
  8
0
 62
256
370
-1
  6
ByLayer
 10
78.061000000000007
 20
1.0109999999999999
 30
0.0
 11
78.1910000000000025
 21
1.0629999999999999
 31
0.0
  0
LINE
  5
228
100
AcDbEntity
100
AcDbLine
  8
0
 62
256
370
-1
  6
ByLayer
 10
78.1910000000000025
 20
1.0629999999999999
 30
0.0
 11
78.3269999999999982
 21
1.0980000000000001
 31
0.0
  0
LINE
  5
229
100
AcDbEntity
100
AcDbLine
  8
0
 62
256
370
-1
  6
ByLayer
 10
78.3269999999999982
 20
1.0980000000000001
 30
0.0
 11
78.4669999999999987
 21
1.115
 31
0.0
  0
LINE
  5
22A
100
AcDbEntity
100
AcDbLine
  8
0
 62
256
370
-1
  6
ByLayer
 10
78.4669999999999987
 20
1.115
 30
0.0
 11
78.6069999999999993
 21
1.115
 31
0.0
  0
LINE
  5
22B
100
AcDbEntity
100
AcDbLine
  8
0
 62
256
370
-1
  6
ByLayer
 10
78.6069999999999993
 20
1.115
 30
0.0
 11
78.7459999999999951
 21
1.0980000000000001
 31
0.0
  0
LINE
  5
22C
100
AcDbEntity
100
AcDbLine
  8
0
 62
256
370
-1
  6
ByLayer
 10
78.7459999999999951
 20
1.0980000000000001
 30
0.0
 11
78.882000000000005
 21
1.0629999999999999
 31
0.0
  0
LINE
  5
22D
100
AcDbEntity
100
AcDbLine
  8
0
 62
256
370
-1
  6
ByLayer
 10
78.882000000000005
 20
1.0629999999999999
 30
0.0
 11
79.0130000000000052
 21
1.0109999999999999
 31
0.0
  0
LINE
  5
22E
100
AcDbEntity
100
AcDbLine
  8
0
 62
256
370
-1
  6
ByLayer
 10
79.0130000000000052
 20
1.0109999999999999
 30
0.0
 11
79.1359999999999957
 21
0.944
 31
0.0
  0
LINE
  5
22F
100
AcDbEntity
100
AcDbLine
  8
0
 62
256
370
-1
  6
ByLayer
 10
79.1359999999999957
 20
0.944
 30
0.0
 11
79.2489999999999952
 21
0.861
 31
0.0
  0
LINE
  5
230
100
AcDbEntity
100
AcDbLine
  8
0
 62
256
370
-1
  6
ByLayer
 10
79.2489999999999952
 20
0.861
 30
0.0
 11
79.3509999999999991
 21
0.765
 31
0.0
  0
LINE
  5
231
100
AcDbEntity
100
AcDbLine
  8
0
 62
256
370
-1
  6
ByLayer
 10
79.3509999999999991
 20
0.765
 30
0.0
 11
79.4410000000000025
 21
0.657
 31
0.0
  0
LINE
  5
232
100
AcDbEntity
100
AcDbLine
  8
0
 62
256
370
-1
  6
ByLayer
 10
79.4410000000000025
 20
0.657
 30
0.0
 11
79.5160000000000053
 21
0.538
 31
0.0
  0
LINE
  5
233
100
AcDbEntity
100
AcDbLine
  8
0
 62
256
370
-1
  6
ByLayer
 10
79.5160000000000053
 20
0.538
 30
0.0
 11
79.5759999999999934
 21
0.411
 31
0.0
  0
LINE
  5
234
100
AcDbEntity
100
AcDbLine
  8
0
 62
256
370
-1
  6
ByLayer
 10
79.5759999999999934
 20
0.411
 30
0.0
 11
79.6189999999999998
 21
0.278
 31
0.0
  0
LINE
  5
235
100
AcDbEntity
100
AcDbLine
  8
0
 62
256
370
-1
  6
ByLayer
 10
79.6189999999999998
 20
0.278
 30
0.0
 11
79.6460000000000008
 21
0.14
 31
0.0
  0
LINE
  5
236
100
AcDbEntity
100
AcDbLine
  8
0
 62
256
370
-1
  6
ByLayer
 10
79.6460000000000008
 20
0.14
 30
0.0
 11
79.6539999999999964
 21
0.0
 31
0.0
  0
LINE
  5
237
100
AcDbEntity
100
AcDbLine
  8
0
 62
256
370
-1
  6
ByLayer
 10
79.6539999999999964
 20
0.0
 30
0.0
 11
79.6460000000000008
 21
-0.14
 31
0.0
  0
LINE
  5
238
100
AcDbEntity
100
AcDbLine
  8
0
 62
256
370
-1
  6
ByLayer
 10
79.6460000000000008
 20
-0.14
 30
0.0
 11
79.6189999999999998
 21
-0.278
 31
0.0
  0
LINE
  5
239
100
AcDbEntity
100
AcDbLine
  8
0
 62
256
370
-1
  6
ByLayer
 10
79.6189999999999998
 20
-0.278
 30
0.0
 11
79.5759999999999934
 21
-0.411
 31
0.0
  0
LINE
  5
23A
100
AcDbEntity
100
AcDbLine
  8
0
 62
256
370
-1
  6
ByLayer
 10
79.5759999999999934
 20
-0.411
 30
0.0
 11
79.5160000000000053
 21
-0.538
 31
0.0
  0
LINE
  5
23B
100
AcDbEntity
100
AcDbLine
  8
0
 62
256
370
-1
  6
ByLayer
 10
79.5160000000000053
 20
-0.538
 30
0.0
 11
79.4410000000000025
 21
-0.657
 31
0.0
  0
LINE
  5
23C
100
AcDbEntity
100
AcDbLine
  8
0
 62
256
370
-1
  6
ByLayer
 10
79.4410000000000025
 20
-0.657
 30
0.0
 11
79.3509999999999991
 21
-0.765
 31
0.0
  0
LINE
  5
23D
100
AcDbEntity
100
AcDbLine
  8
0
 62
256
370
-1
  6
ByLayer
 10
79.3509999999999991
 20
-0.765
 30
0.0
 11
79.2489999999999952
 21
-0.861
 31
0.0
  0
LINE
  5
23E
100
AcDbEntity
100
AcDbLine
  8
0
 62
256
370
-1
  6
ByLayer
 10
79.2489999999999952
 20
-0.861
 30
0.0
 11
79.1359999999999957
 21
-0.944
 31
0.0
  0
LINE
  5
23F
100
AcDbEntity
100
AcDbLine
  8
0
 62
256
370
-1
  6
ByLayer
 10
79.1359999999999957
 20
-0.944
 30
0.0
 11
79.0130000000000052
 21
-1.0109999999999999
 31
0.0
  0
LINE
  5
240
100
AcDbEntity
100
AcDbLine
  8
0
 62
256
370
-1
  6
ByLayer
 10
79.0130000000000052
 20
-1.0109999999999999
 30
0.0
 11
78.882000000000005
 21
-1.0629999999999999
 31
0.0
  0
LINE
  5
241
100
AcDbEntity
100
AcDbLine
  8
0
 62
256
370
-1
  6
ByLayer
 10
78.882000000000005
 20
-1.0629999999999999
 30
0.0
 11
78.7459999999999951
 21
-1.0980000000000001
 31
0.0
  0
LINE
  5
242
100
AcDbEntity
100
AcDbLine
  8
0
 62
256
370
-1
  6
ByLayer
 10
78.7459999999999951
 20
-1.0980000000000001
 30
0.0
 11
78.6069999999999993
 21
-1.115
 31
0.0
  0
LINE
  5
243
100
AcDbEntity
100
AcDbLine
  8
0
 62
256
370
-1
  6
ByLayer
 10
78.6069999999999993
 20
-1.115
 30
0.0
 11
78.4669999999999987
 21
-1.115
 31
0.0
  0
LINE
  5
244
100
AcDbEntity
100
AcDbLine
  8
0
 62
256
370
-1
  6
ByLayer
 10
78.4669999999999987
 20
-1.115
 30
0.0
 11
78.3269999999999982
 21
-1.0980000000000001
 31
0.0
  0
LINE
  5
245
100
AcDbEntity
100
AcDbLine
  8
0
 62
256
370
-1
  6
ByLayer
 10
78.3269999999999982
 20
-1.0980000000000001
 30
0.0
 11
78.1910000000000025
 21
-1.0629999999999999
 31
0.0
  0
LINE
  5
246
100
AcDbEntity
100
AcDbLine
  8
0
 62
256
370
-1
  6
ByLayer
 10
78.1910000000000025
 20
-1.0629999999999999
 30
0.0
 11
78.061000000000007
 21
-1.0109999999999999
 31
0.0
  0
LINE
  5
247
100
AcDbEntity
100
AcDbLine
  8
0
 62
256
370
-1
  6
ByLayer
 10
78.061000000000007
 20
-1.0109999999999999
 30
0.0
 11
77.9380000000000024
 21
-0.944
 31
0.0
  0
LINE
  5
248
100
AcDbEntity
100
AcDbLine
  8
0
 62
256
370
-1
  6
ByLayer
 10
77.9380000000000024
 20
-0.944
 30
0.0
 11
77.8239999999999981
 21
-0.861
 31
0.0
  0
LINE
  5
249
100
AcDbEntity
100
AcDbLine
  8
0
 62
256
370
-1
  6
ByLayer
 10
77.8239999999999981
 20
-0.861
 30
0.0
 11
77.7219999999999942
 21
-0.765
 31
0.0
  0
LINE
  5
24A
100
AcDbEntity
100
AcDbLine
  8
0
 62
256
370
-1
  6
ByLayer
 10
77.7219999999999942
 20
-0.765
 30
0.0
 11
77.6329999999999956
 21
-0.657
 31
0.0
  0
LINE
  5
24B
100
AcDbEntity
100
AcDbLine
  8
0
 62
256
370
-1
  6
ByLayer
 10
77.6329999999999956
 20
-0.657
 30
0.0
 11
77.5570000000000022
 21
-0.538
 31
0.0
  0
LINE
  5
24C
100
AcDbEntity
100
AcDbLine
  8
0
 62
256
370
-1
  6
ByLayer
 10
77.5570000000000022
 20
-0.538
 30
0.0
 11
77.4980000000000047
 21
-0.411
 31
0.0
  0
LINE
  5
24D
100
AcDbEntity
100
AcDbLine
  8
0
 62
256
370
-1
  6
ByLayer
 10
77.4980000000000047
 20
-0.411
 30
0.0
 11
77.4539999999999935
 21
-0.278
 31
0.0
  0
LINE
  5
24E
100
AcDbEntity
100
AcDbLine
  8
0
 62
256
370
-1
  6
ByLayer
 10
77.4539999999999935
 20
-0.278
 30
0.0
 11
77.4279999999999973
 21
-0.14
 31
0.0
  0
LINE
  5
24F
100
AcDbEntity
100
AcDbLine
  8
0
 62
256
370
-1
  6
ByLayer
 10
77.4279999999999973
 20
-0.14
 30
0.0
 11
77.4189999999999969
 21
0.0
 31
0.0
  0
LINE
  5
250
100
AcDbEntity
100
AcDbLine
  8
0
 62
256
370
-1
  6
ByLayer
 10
121.4120000000000061
 20
0.0
 30
0.0
 11
121.4959999999999951
 21
1.337
 31
0.0
  0
LINE
  5
251
100
AcDbEntity
100
AcDbLine
  8
0
 62
256
370
-1
  6
ByLayer
 10
121.4959999999999951
 20
1.337
 30
0.0
 11
121.7469999999999999
 21
2.653
 31
0.0
  0
LINE
  5
252
100
AcDbEntity
100
AcDbLine
  8
0
 62
256
370
-1
  6
ByLayer
 10
121.7469999999999999
 20
2.653
 30
0.0
 11
122.1610000000000014
 21
3.927
 31
0.0
  0
LINE
  5
253
100
AcDbEntity
100
AcDbLine
  8
0
 62
256
370
-1
  6
ByLayer
 10
122.1610000000000014
 20
3.927
 30
0.0
 11
122.7319999999999993
 21
5.1390000000000002
 31
0.0
  0
LINE
  5
254
100
AcDbEntity
100
AcDbLine
  8
0
 62
256
370
-1
  6
ByLayer
 10
122.7319999999999993
 20
5.1390000000000002
 30
0.0
 11
123.4489999999999981
 21
6.2699999999999996
 31
0.0
  0
LINE
  5
255
100
AcDbEntity
100
AcDbLine
  8
0
 62
256
370
-1
  6
ByLayer
 10
123.4489999999999981
 20
6.2699999999999996
 30
0.0
 11
124.3029999999999973
 21
7.3029999999999999
 31
0.0
  0
LINE
  5
256
100
AcDbEntity
100
AcDbLine
  8
0
 62
256
370
-1
  6
ByLayer
 10
124.3029999999999973
 20
7.3029999999999999
 30
0.0
 11
125.2800000000000011
 21
8.2200000000000006
 31
0.0
  0
LINE
  5
257
100
AcDbEntity
100
AcDbLine
  8
0
 62
256
370
-1
  6
ByLayer
 10
125.2800000000000011
 20
8.2200000000000006
 30
0.0
 11
126.3640000000000043
 21
9.0069999999999997
 31
0.0
  0
LINE
  5
258
100
AcDbEntity
100
AcDbLine
  8
0
 62
256
370
-1
  6
ByLayer
 10
126.3640000000000043
 20
9.0069999999999997
 30
0.0
 11
127.5379999999999967
 21
9.6530000000000005
 31
0.0
  0
LINE
  5
259
100
AcDbEntity
100
AcDbLine
  8
0
 62
256
370
-1
  6
ByLayer
 10
127.5379999999999967
 20
9.6530000000000005
 30
0.0
 11
128.782999999999987
 21
10.1460000000000008
 31
0.0
  0
LINE
  5
25A
100
AcDbEntity
100
AcDbLine
  8
0
 62
256
370
-1
  6
ByLayer
 10
128.782999999999987
 20
10.1460000000000008
 30
0.0
 11
130.0809999999999889
 21
10.4789999999999992
 31
0.0
  0
LINE
  5
25B
100
AcDbEntity
100
AcDbLine
  8
0
 62
256
370
-1
  6
ByLayer
 10
130.0809999999999889
 20
10.4789999999999992
 30
0.0
 11
131.4099999999999966
 21
10.6470000000000002
 31
0.0
  0
LINE
  5
25C
100
AcDbEntity
100
AcDbLine
  8
0
 62
256
370
-1
  6
ByLayer
 10
131.4099999999999966
 20
10.6470000000000002
 30
0.0
 11
132.75
 21
10.6470000000000002
 31
0.0
  0
LINE
  5
25D
100
AcDbEntity
100
AcDbLine
  8
0
 62
256
370
-1
  6
ByLayer
 10
132.75
 20
10.6470000000000002
 30
0.0
 11
134.0790000000000077
 21
10.4789999999999992
 31
0.0
  0
LINE
  5
25E
100
AcDbEntity
100
AcDbLine
  8
0
 62
256
370
-1
  6
ByLayer
 10
134.0790000000000077
 20
10.4789999999999992
 30
0.0
 11
135.3770000000000095
 21
10.1460000000000008
 31
0.0
  0
LINE
  5
25F
100
AcDbEntity
100
AcDbLine
  8
0
 62
256
370
-1
  6
ByLayer
 10
135.3770000000000095
 20
10.1460000000000008
 30
0.0
 11
136.6220000000000141
 21
9.6530000000000005
 31
0.0
  0
LINE
  5
260
100
AcDbEntity
100
AcDbLine
  8
0
 62
256
370
-1
  6
ByLayer
 10
136.6220000000000141
 20
9.6530000000000005
 30
0.0
 11
137.7959999999999923
 21
9.0069999999999997
 31
0.0
  0
LINE
  5
261
100
AcDbEntity
100
AcDbLine
  8
0
 62
256
370
-1
  6
ByLayer
 10
137.7959999999999923
 20
9.0069999999999997
 30
0.0
 11
138.8799999999999955
 21
8.2200000000000006
 31
0.0
  0
LINE
  5
262
100
AcDbEntity
100
AcDbLine
  8
0
 62
256
370
-1
  6
ByLayer
 10
138.8799999999999955
 20
8.2200000000000006
 30
0.0
 11
139.8569999999999993
 21
7.3029999999999999
 31
0.0
  0
LINE
  5
263
100
AcDbEntity
100
AcDbLine
  8
0
 62
256
370
-1
  6
ByLayer
 10
139.8569999999999993
 20
7.3029999999999999
 30
0.0
 11
140.7110000000000127
 21
6.2699999999999996
 31
0.0
  0
LINE
  5
264
100
AcDbEntity
100
AcDbLine
  8
0
 62
256
370
-1
  6
ByLayer
 10
140.7110000000000127
 20
6.2699999999999996
 30
0.0
 11
141.4279999999999973
 21
5.1390000000000002
 31
0.0
  0
LINE
  5
265
100
AcDbEntity
100
AcDbLine
  8
0
 62
256
370
-1
  6
ByLayer
 10
141.4279999999999973
 20
5.1390000000000002
 30
0.0
 11
141.9989999999999952
 21
3.927
 31
0.0
  0
LINE
  5
266
100
AcDbEntity
100
AcDbLine
  8
0
 62
256
370
-1
  6
ByLayer
 10
141.9989999999999952
 20
3.927
 30
0.0
 11
142.4130000000000109
 21
2.653
 31
0.0
  0
LINE
  5
267
100
AcDbEntity
100
AcDbLine
  8
0
 62
256
370
-1
  6
ByLayer
 10
142.4130000000000109
 20
2.653
 30
0.0
 11
142.6639999999999873
 21
1.337
 31
0.0
  0
LINE
  5
268
100
AcDbEntity
100
AcDbLine
  8
0
 62
256
370
-1
  6
ByLayer
 10
142.6639999999999873
 20
1.337
 30
0.0
 11
142.7479999999999905
 21
0.0
 31
0.0
  0
LINE
  5
269
100
AcDbEntity
100
AcDbLine
  8
0
 62
256
370
-1
  6
ByLayer
 10
142.7479999999999905
 20
0.0
 30
0.0
 11
142.6639999999999873
 21
-1.337
 31
0.0
  0
LINE
  5
26A
100
AcDbEntity
100
AcDbLine
  8
0
 62
256
370
-1
  6
ByLayer
 10
142.6639999999999873
 20
-1.337
 30
0.0
 11
142.4130000000000109
 21
-2.653
 31
0.0
  0
LINE
  5
26B
100
AcDbEntity
100
AcDbLine
  8
0
 62
256
370
-1
  6
ByLayer
 10
142.4130000000000109
 20
-2.653
 30
0.0
 11
141.9989999999999952
 21
-3.927
 31
0.0
  0
LINE
  5
26C
100
AcDbEntity
100
AcDbLine
  8
0
 62
256
370
-1
  6
ByLayer
 10
141.9989999999999952
 20
-3.927
 30
0.0
 11
141.4279999999999973
 21
-5.1390000000000002
 31
0.0
  0
LINE
  5
26D
100
AcDbEntity
100
AcDbLine
  8
0
 62
256
370
-1
  6
ByLayer
 10
141.4279999999999973
 20
-5.1390000000000002
 30
0.0
 11
140.7110000000000127
 21
-6.2699999999999996
 31
0.0
  0
LINE
  5
26E
100
AcDbEntity
100
AcDbLine
  8
0
 62
256
370
-1
  6
ByLayer
 10
140.7110000000000127
 20
-6.2699999999999996
 30
0.0
 11
139.8569999999999993
 21
-7.3029999999999999
 31
0.0
  0
LINE
  5
26F
100
AcDbEntity
100
AcDbLine
  8
0
 62
256
370
-1
  6
ByLayer
 10
139.8569999999999993
 20
-7.3029999999999999
 30
0.0
 11
138.8799999999999955
 21
-8.2200000000000006
 31
0.0
  0
LINE
  5
270
100
AcDbEntity
100
AcDbLine
  8
0
 62
256
370
-1
  6
ByLayer
 10
138.8799999999999955
 20
-8.2200000000000006
 30
0.0
 11
137.7959999999999923
 21
-9.0069999999999997
 31
0.0
  0
LINE
  5
271
100
AcDbEntity
100
AcDbLine
  8
0
 62
256
370
-1
  6
ByLayer
 10
137.7959999999999923
 20
-9.0069999999999997
 30
0.0
 11
136.6220000000000141
 21
-9.6530000000000005
 31
0.0
  0
LINE
  5
272
100
AcDbEntity
100
AcDbLine
  8
0
 62
256
370
-1
  6
ByLayer
 10
136.6220000000000141
 20
-9.6530000000000005
 30
0.0
 11
135.3770000000000095
 21
-10.1460000000000008
 31
0.0
  0
LINE
  5
273
100
AcDbEntity
100
AcDbLine
  8
0
 62
256
370
-1
  6
ByLayer
 10
135.3770000000000095
 20
-10.1460000000000008
 30
0.0
 11
134.0790000000000077
 21
-10.4789999999999992
 31
0.0
  0
LINE
  5
274
100
AcDbEntity
100
AcDbLine
  8
0
 62
256
370
-1
  6
ByLayer
 10
134.0790000000000077
 20
-10.4789999999999992
 30
0.0
 11
132.75
 21
-10.6470000000000002
 31
0.0
  0
LINE
  5
275
100
AcDbEntity
100
AcDbLine
  8
0
 62
256
370
-1
  6
ByLayer
 10
132.75
 20
-10.6470000000000002
 30
0.0
 11
131.4099999999999966
 21
-10.6470000000000002
 31
0.0
  0
LINE
  5
276
100
AcDbEntity
100
AcDbLine
  8
0
 62
256
370
-1
  6
ByLayer
 10
131.4099999999999966
 20
-10.6470000000000002
 30
0.0
 11
130.0809999999999889
 21
-10.4789999999999992
 31
0.0
  0
LINE
  5
277
100
AcDbEntity
100
AcDbLine
  8
0
 62
256
370
-1
  6
ByLayer
 10
130.0809999999999889
 20
-10.4789999999999992
 30
0.0
 11
128.782999999999987
 21
-10.1460000000000008
 31
0.0
  0
LINE
  5
278
100
AcDbEntity
100
AcDbLine
  8
0
 62
256
370
-1
  6
ByLayer
 10
128.782999999999987
 20
-10.1460000000000008
 30
0.0
 11
127.5379999999999967
 21
-9.6530000000000005
 31
0.0
  0
LINE
  5
279
100
AcDbEntity
100
AcDbLine
  8
0
 62
256
370
-1
  6
ByLayer
 10
127.5379999999999967
 20
-9.6530000000000005
 30
0.0
 11
126.3640000000000043
 21
-9.0069999999999997
 31
0.0
  0
LINE
  5
27A
100
AcDbEntity
100
AcDbLine
  8
0
 62
256
370
-1
  6
ByLayer
 10
126.3640000000000043
 20
-9.0069999999999997
 30
0.0
 11
125.2800000000000011
 21
-8.2200000000000006
 31
0.0
  0
LINE
  5
27B
100
AcDbEntity
100
AcDbLine
  8
0
 62
256
370
-1
  6
ByLayer
 10
125.2800000000000011
 20
-8.2200000000000006
 30
0.0
 11
124.3029999999999973
 21
-7.3029999999999999
 31
0.0
  0
LINE
  5
27C
100
AcDbEntity
100
AcDbLine
  8
0
 62
256
370
-1
  6
ByLayer
 10
124.3029999999999973
 20
-7.3029999999999999
 30
0.0
 11
123.4489999999999981
 21
-6.2699999999999996
 31
0.0
  0
LINE
  5
27D
100
AcDbEntity
100
AcDbLine
  8
0
 62
256
370
-1
  6
ByLayer
 10
123.4489999999999981
 20
-6.2699999999999996
 30
0.0
 11
122.7319999999999993
 21
-5.1390000000000002
 31
0.0
  0
LINE
  5
27E
100
AcDbEntity
100
AcDbLine
  8
0
 62
256
370
-1
  6
ByLayer
 10
122.7319999999999993
 20
-5.1390000000000002
 30
0.0
 11
122.1610000000000014
 21
-3.927
 31
0.0
  0
LINE
  5
27F
100
AcDbEntity
100
AcDbLine
  8
0
 62
256
370
-1
  6
ByLayer
 10
122.1610000000000014
 20
-3.927
 30
0.0
 11
121.7469999999999999
 21
-2.653
 31
0.0
  0
LINE
  5
280
100
AcDbEntity
100
AcDbLine
  8
0
 62
256
370
-1
  6
ByLayer
 10
121.7469999999999999
 20
-2.653
 30
0.0
 11
121.4959999999999951
 21
-1.337
 31
0.0
  0
LINE
  5
281
100
AcDbEntity
100
AcDbLine
  8
0
 62
256
370
-1
  6
ByLayer
 10
121.4959999999999951
 20
-1.337
 30
0.0
 11
121.4120000000000061
 21
0.0
 31
0.0
  0
LINE
  5
282
100
AcDbEntity
100
AcDbLine
  8
0
 62
256
370
-1
  6
ByLayer
 10
187.4519999999999982
 20
0.0
 30
0.0
 11
187.5360000000000014
 21
1.337
 31
0.0
  0
LINE
  5
283
100
AcDbEntity
100
AcDbLine
  8
0
 62
256
370
-1
  6
ByLayer
 10
187.5360000000000014
 20
1.337
 30
0.0
 11
187.7870000000000061
 21
2.653
 31
0.0
  0
LINE
  5
284
100
AcDbEntity
100
AcDbLine
  8
0
 62
256
370
-1
  6
ByLayer
 10
187.7870000000000061
 20
2.653
 30
0.0
 11
188.2009999999999934
 21
3.927
 31
0.0
  0
LINE
  5
285
100
AcDbEntity
100
AcDbLine
  8
0
 62
256
370
-1
  6
ByLayer
 10
188.2009999999999934
 20
3.927
 30
0.0
 11
188.7719999999999914
 21
5.1390000000000002
 31
0.0
  0
LINE
  5
286
100
AcDbEntity
100
AcDbLine
  8
0
 62
256
370
-1
  6
ByLayer
 10
188.7719999999999914
 20
5.1390000000000002
 30
0.0
 11
189.4890000000000043
 21
6.2699999999999996
 31
0.0
  0
LINE
  5
287
100
AcDbEntity
100
AcDbLine
  8
0
 62
256
370
-1
  6
ByLayer
 10
189.4890000000000043
 20
6.2699999999999996
 30
0.0
 11
190.3429999999999893
 21
7.3029999999999999
 31
0.0
  0
LINE
  5
288
100
AcDbEntity
100
AcDbLine
  8
0
 62
256
370
-1
  6
ByLayer
 10
190.3429999999999893
 20
7.3029999999999999
 30
0.0
 11
191.3199999999999932
 21
8.2200000000000006
 31
0.0
  0
LINE
  5
289
100
AcDbEntity
100
AcDbLine
  8
0
 62
256
370
-1
  6
ByLayer
 10
191.3199999999999932
 20
8.2200000000000006
 30
0.0
 11
192.4039999999999964
 21
9.0069999999999997
 31
0.0
  0
LINE
  5
28A
100
AcDbEntity
100
AcDbLine
  8
0
 62
256
370
-1
  6
ByLayer
 10
192.4039999999999964
 20
9.0069999999999997
 30
0.0
 11
193.578000000000003
 21
9.6530000000000005
 31
0.0
  0
LINE
  5
28B
100
AcDbEntity
100
AcDbLine
  8
0
 62
256
370
-1
  6
ByLayer
 10
193.578000000000003
 20
9.6530000000000005
 30
0.0
 11
194.8230000000000075
 21
10.1460000000000008
 31
0.0
  0
LINE
  5
28C
100
AcDbEntity
100
AcDbLine
  8
0
 62
256
370
-1
  6
ByLayer
 10
194.8230000000000075
 20
10.1460000000000008
 30
0.0
 11
196.1210000000000093
 21
10.4789999999999992
 31
0.0
  0
LINE
  5
28D
100
AcDbEntity
100
AcDbLine
  8
0
 62
256
370
-1
  6
ByLayer
 10
196.1210000000000093
 20
10.4789999999999992
 30
0.0
 11
197.4499999999999886
 21
10.6470000000000002
 31
0.0
  0
LINE
  5
28E
100
AcDbEntity
100
AcDbLine
  8
0
 62
256
370
-1
  6
ByLayer
 10
197.4499999999999886
 20
10.6470000000000002
 30
0.0
 11
198.789999999999992
 21
10.6470000000000002
 31
0.0
  0
LINE
  5
28F
100
AcDbEntity
100
AcDbLine
  8
0
 62
256
370
-1
  6
ByLayer
 10
198.789999999999992
 20
10.6470000000000002
 30
0.0
 11
200.1189999999999998
 21
10.4789999999999992
 31
0.0
  0
LINE
  5
290
100
AcDbEntity
100
AcDbLine
  8
0
 62
256
370
-1
  6
ByLayer
 10
200.1189999999999998
 20
10.4789999999999992
 30
0.0
 11
201.4170000000000016
 21
10.1460000000000008
 31
0.0
  0
LINE
  5
291
100
AcDbEntity
100
AcDbLine
  8
0
 62
256
370
-1
  6
ByLayer
 10
201.4170000000000016
 20
10.1460000000000008
 30
0.0
 11
202.6620000000000061
 21
9.6530000000000005
 31
0.0
  0
LINE
  5
292
100
AcDbEntity
100
AcDbLine
  8
0
 62
256
370
-1
  6
ByLayer
 10
202.6620000000000061
 20
9.6530000000000005
 30
0.0
 11
203.8360000000000127
 21
9.0069999999999997
 31
0.0
  0
LINE
  5
293
100
AcDbEntity
100
AcDbLine
  8
0
 62
256
370
-1
  6
ByLayer
 10
203.8360000000000127
 20
9.0069999999999997
 30
0.0
 11
204.9199999999999875
 21
8.2200000000000006
 31
0.0
  0
LINE
  5
294
100
AcDbEntity
100
AcDbLine
  8
0
 62
256
370
-1
  6
ByLayer
 10
204.9199999999999875
 20
8.2200000000000006
 30
0.0
 11
205.8969999999999914
 21
7.3029999999999999
 31
0.0
  0
LINE
  5
295
100
AcDbEntity
100
AcDbLine
  8
0
 62
256
370
-1
  6
ByLayer
 10
205.8969999999999914
 20
7.3029999999999999
 30
0.0
 11
206.7510000000000048
 21
6.2699999999999996
 31
0.0
  0
LINE
  5
296
100
AcDbEntity
100
AcDbLine
  8
0
 62
256
370
-1
  6
ByLayer
 10
206.7510000000000048
 20
6.2699999999999996
 30
0.0
 11
207.4679999999999893
 21
5.1390000000000002
 31
0.0
  0
LINE
  5
297
100
AcDbEntity
100
AcDbLine
  8
0
 62
256
370
-1
  6
ByLayer
 10
207.4679999999999893
 20
5.1390000000000002
 30
0.0
 11
208.0389999999999873
 21
3.927
 31
0.0
  0
LINE
  5
298
100
AcDbEntity
100
AcDbLine
  8
0
 62
256
370
-1
  6
ByLayer
 10
208.0389999999999873
 20
3.927
 30
0.0
 11
208.453000000000003
 21
2.653
 31
0.0
  0
LINE
  5
299
100
AcDbEntity
100
AcDbLine
  8
0
 62
256
370
-1
  6
ByLayer
 10
208.453000000000003
 20
2.653
 30
0.0
 11
208.7040000000000077
 21
1.337
 31
0.0
  0
LINE
  5
29A
100
AcDbEntity
100
AcDbLine
  8
0
 62
256
370
-1
  6
ByLayer
 10
208.7040000000000077
 20
1.337
 30
0.0
 11
208.7880000000000109
 21
0.0
 31
0.0
  0
LINE
  5
29B
100
AcDbEntity
100
AcDbLine
  8
0
 62
256
370
-1
  6
ByLayer
 10
208.7880000000000109
 20
0.0
 30
0.0
 11
208.7040000000000077
 21
-1.337
 31
0.0
  0
LINE
  5
29C
100
AcDbEntity
100
AcDbLine
  8
0
 62
256
370
-1
  6
ByLayer
 10
208.7040000000000077
 20
-1.337
 30
0.0
 11
208.453000000000003
 21
-2.653
 31
0.0
  0
LINE
  5
29D
100
AcDbEntity
100
AcDbLine
  8
0
 62
256
370
-1
  6
ByLayer
 10
208.453000000000003
 20
-2.653
 30
0.0
 11
208.0389999999999873
 21
-3.927
 31
0.0
  0
LINE
  5
29E
100
AcDbEntity
100
AcDbLine
  8
0
 62
256
370
-1
  6
ByLayer
 10
208.0389999999999873
 20
-3.927
 30
0.0
 11
207.4679999999999893
 21
-5.1390000000000002
 31
0.0
  0
LINE
  5
29F
100
AcDbEntity
100
AcDbLine
  8
0
 62
256
370
-1
  6
ByLayer
 10
207.4679999999999893
 20
-5.1390000000000002
 30
0.0
 11
206.7510000000000048
 21
-6.2699999999999996
 31
0.0
  0
LINE
  5
2A0
100
AcDbEntity
100
AcDbLine
  8
0
 62
256
370
-1
  6
ByLayer
 10
206.7510000000000048
 20
-6.2699999999999996
 30
0.0
 11
205.8969999999999914
 21
-7.3029999999999999
 31
0.0
  0
LINE
  5
2A1
100
AcDbEntity
100
AcDbLine
  8
0
 62
256
370
-1
  6
ByLayer
 10
205.8969999999999914
 20
-7.3029999999999999
 30
0.0
 11
204.9199999999999875
 21
-8.2200000000000006
 31
0.0
  0
LINE
  5
2A2
100
AcDbEntity
100
AcDbLine
  8
0
 62
256
370
-1
  6
ByLayer
 10
204.9199999999999875
 20
-8.2200000000000006
 30
0.0
 11
203.8360000000000127
 21
-9.0069999999999997
 31
0.0
  0
LINE
  5
2A3
100
AcDbEntity
100
AcDbLine
  8
0
 62
256
370
-1
  6
ByLayer
 10
203.8360000000000127
 20
-9.0069999999999997
 30
0.0
 11
202.6620000000000061
 21
-9.6530000000000005
 31
0.0
  0
LINE
  5
2A4
100
AcDbEntity
100
AcDbLine
  8
0
 62
256
370
-1
  6
ByLayer
 10
202.6620000000000061
 20
-9.6530000000000005
 30
0.0
 11
201.4170000000000016
 21
-10.1460000000000008
 31
0.0
  0
LINE
  5
2A5
100
AcDbEntity
100
AcDbLine
  8
0
 62
256
370
-1
  6
ByLayer
 10
201.4170000000000016
 20
-10.1460000000000008
 30
0.0
 11
200.1189999999999998
 21
-10.4789999999999992
 31
0.0
  0
LINE
  5
2A6
100
AcDbEntity
100
AcDbLine
  8
0
 62
256
370
-1
  6
ByLayer
 10
200.1189999999999998
 20
-10.4789999999999992
 30
0.0
 11
198.789999999999992
 21
-10.6470000000000002
 31
0.0
  0
LINE
  5
2A7
100
AcDbEntity
100
AcDbLine
  8
0
 62
256
370
-1
  6
ByLayer
 10
198.789999999999992
 20
-10.6470000000000002
 30
0.0
 11
197.4499999999999886
 21
-10.6470000000000002
 31
0.0
  0
LINE
  5
2A8
100
AcDbEntity
100
AcDbLine
  8
0
 62
256
370
-1
  6
ByLayer
 10
197.4499999999999886
 20
-10.6470000000000002
 30
0.0
 11
196.1210000000000093
 21
-10.4789999999999992
 31
0.0
  0
LINE
  5
2A9
100
AcDbEntity
100
AcDbLine
  8
0
 62
256
370
-1
  6
ByLayer
 10
196.1210000000000093
 20
-10.4789999999999992
 30
0.0
 11
194.8230000000000075
 21
-10.1460000000000008
 31
0.0
  0
LINE
  5
2AA
100
AcDbEntity
100
AcDbLine
  8
0
 62
256
370
-1
  6
ByLayer
 10
194.8230000000000075
 20
-10.1460000000000008
 30
0.0
 11
193.578000000000003
 21
-9.6530000000000005
 31
0.0
  0
LINE
  5
2AB
100
AcDbEntity
100
AcDbLine
  8
0
 62
256
370
-1
  6
ByLayer
 10
193.578000000000003
 20
-9.6530000000000005
 30
0.0
 11
192.4039999999999964
 21
-9.0069999999999997
 31
0.0
  0
LINE
  5
2AC
100
AcDbEntity
100
AcDbLine
  8
0
 62
256
370
-1
  6
ByLayer
 10
192.4039999999999964
 20
-9.0069999999999997
 30
0.0
 11
191.3199999999999932
 21
-8.2200000000000006
 31
0.0
  0
LINE
  5
2AD
100
AcDbEntity
100
AcDbLine
  8
0
 62
256
370
-1
  6
ByLayer
 10
191.3199999999999932
 20
-8.2200000000000006
 30
0.0
 11
190.3429999999999893
 21
-7.3029999999999999
 31
0.0
  0
LINE
  5
2AE
100
AcDbEntity
100
AcDbLine
  8
0
 62
256
370
-1
  6
ByLayer
 10
190.3429999999999893
 20
-7.3029999999999999
 30
0.0
 11
189.4890000000000043
 21
-6.2699999999999996
 31
0.0
  0
LINE
  5
2AF
100
AcDbEntity
100
AcDbLine
  8
0
 62
256
370
-1
  6
ByLayer
 10
189.4890000000000043
 20
-6.2699999999999996
 30
0.0
 11
188.7719999999999914
 21
-5.1390000000000002
 31
0.0
  0
LINE
  5
2B0
100
AcDbEntity
100
AcDbLine
  8
0
 62
256
370
-1
  6
ByLayer
 10
188.7719999999999914
 20
-5.1390000000000002
 30
0.0
 11
188.2009999999999934
 21
-3.927
 31
0.0
  0
LINE
  5
2B1
100
AcDbEntity
100
AcDbLine
  8
0
 62
256
370
-1
  6
ByLayer
 10
188.2009999999999934
 20
-3.927
 30
0.0
 11
187.7870000000000061
 21
-2.653
 31
0.0
  0
LINE
  5
2B2
100
AcDbEntity
100
AcDbLine
  8
0
 62
256
370
-1
  6
ByLayer
 10
187.7870000000000061
 20
-2.653
 30
0.0
 11
187.5360000000000014
 21
-1.337
 31
0.0
  0
LINE
  5
2B3
100
AcDbEntity
100
AcDbLine
  8
0
 62
256
370
-1
  6
ByLayer
 10
187.5360000000000014
 20
-1.337
 30
0.0
 11
187.4519999999999982
 21
0.0
 31
0.0
  0
MTEXT
  5
2B4
100
AcDbEntity
100
AcDbMText
  8
0
 62
256
370
-1
  6
ByLayer
 10
-34.0719637113402243
 20
98.1971466962728385
 30
0.0
 40
5.0
 41
100.0
 71
1
 72
0
  1
1\~inch\~reference\~cube
  7
standard
 50
0.0
 73
1
 44
1.0
  0
ENDSEC
  0
SECTION
  2
OBJECTS
  0
DICTIONARY
  5
C
100
AcDbDictionary
280
0
281
1
  3
ACAD_GROUP
350
D
  3
ACAD_LAYOUT
350
1A
  3
ACAD_MLINESTYLE
350
17
  3
ACAD_PLOTSETTINGS
350
19
  3
ACAD_PLOTSTYLENAME
350
E
  3
AcDbVariableDictionary
350
2B5
  0
DICTIONARY
  5
D
100
AcDbDictionary
280
0
281
1
  0
ACDBDICTIONARYWDFLT
  5
E
100
AcDbDictionary
281
1
  3
Normal
350
F
100
AcDbDictionaryWithDefault
340
F
  0
ACDBPLACEHOLDER
  5
F
  0
DICTIONARY
  5
17
100
AcDbDictionary
280
0
281
1
  3
Standard
350
18
  0
MLINESTYLE
  5
18
100
AcDbMlineStyle
  2
STANDARD
 70
0
  3

 62
256
 51
90.0
 52
90.0
 71
2
 49
0.5
 62
256
  6
BYLAYER
 49
-0.5
 62
256
  6
BYLAYER
  0
DICTIONARY
  5
19
100
AcDbDictionary
280
0
281
1
  0
DICTIONARY
  5
1A
100
AcDbDictionary
281
1
  3
Layout1
350
1E
  3
Layout2
350
26
  3
Model
350
22
  0
LAYOUT
  5
1E
100
AcDbPlotSettings
  1

  2
C:\Program Files\AutoCAD 2002\plotters\DWF ePlot (optimized for plotting).pc3
  4

  6

 40
0.0
 41
0.0
 42
0.0
 43
0.0
 44
0.0
 45
0.0
 46
0.0
 47
0.0
 48
0.0
 49
0.0
140
0.0
141
0.0
142
1.0
143
1.0
 70
688
 72
0
 73
0
 74
5
  7

 75
16
147
1.0
148
0.0
149
0.0
100
AcDbLayout
  1
Layout1
 70
1
 71
1
 10
0.0
 20
0.0
 11
420.0
 21
297.0
 12
0.0
 22
0.0
 32
0.0
 14
100000000000000000000.0
 24
100000000000000000000.0
 34
100000000000000000000.0
 15
-100000000000000000000.0
 25
-100000000000000000000.0
 35
-100000000000000000000.0
146
0.0
 13
0.0
 23
0.0
 33
0.0
 16
1.0
 26
0.0
 36
0.0
 17
0.0
 27
1.0
 37
0.0
 76
0
330
1B
  0
LAYOUT
  5
22
100
AcDbPlotSettings
  1

  2
C:\Program Files\AutoCAD 2002\plotters\DWF ePlot (optimized for plotting).pc3
  4

  6

 40
0.0
 41
0.0
 42
0.0
 43
0.0
 44
0.0
 45
0.0
 46
0.0
 47
0.0
 48
0.0
 49
0.0
140
0.0
141
0.0
142
1.0
143
1.0
 70
1712
 72
0
 73
0
 74
0
  7

 75
0
147
1.0
148
0.0
149
0.0
100
AcDbLayout
  1
Model
 70
1
 71
0
 10
0.0
 20
0.0
 11
12.0
 21
9.0
 12
0.0
 22
0.0
 32
0.0
 14
0.0
 24
0.0
 34
0.0
 15
0.0
 25
0.0
 35
0.0
146
0.0
 13
0.0
 23
0.0
 33
0.0
 16
1.0
 26
0.0
 36
0.0
 17
0.0
 27
1.0
 37
0.0
 76
0
330
1F
  0
LAYOUT
  5
26
100
AcDbPlotSettings
  1

  2
C:\Program Files\AutoCAD 2002\plotters\DWF ePlot (optimized for plotting).pc3
  4

  6

 40
0.0
 41
0.0
 42
0.0
 43
0.0
 44
0.0
 45
0.0
 46
0.0
 47
0.0
 48
0.0
 49
0.0
140
0.0
141
0.0
142
1.0
143
1.0
 70
688
 72
0
 73
0
 74
5
  7

 75
16
147
1.0
148
0.0
149
0.0
100
AcDbLayout
  1
Layout2
 70
1
 71
2
 10
0.0
 20
0.0
 11
12.0
 21
9.0
 12
0.0
 22
0.0
 32
0.0
 14
0.0
 24
0.0
 34
0.0
 15
0.0
 25
0.0
 35
0.0
146
0.0
 13
0.0
 23
0.0
 33
0.0
 16
1.0
 26
0.0
 36
0.0
 17
0.0
 27
1.0
 37
0.0
 76
0
330
23
  0
DICTIONARY
  5
2B5
100
AcDbDictionary
281
1
  3
DIMASSOC
350
2B7
  3
HIDETEXT
350
2B6
  0
DICTIONARYVAR
  5
2B6
100
DictionaryVariables
280
0
  1
2
  0
DICTIONARYVAR
  5
2B7
100
DictionaryVariables
280
0
  1
1
  0
ENDSEC
  0
EOF
