999
dxflib 2.0.4.8
  0
SECTION
  2
HEADER
  9
$ACADVER
  1
AC1015
  9
$HANDSEED
  5
FFFF
  9
$DIMADEC
 70
2
  9
$GRIDUNIT
 10
0.0
 20
0.0
  9
$DIMASZ
 40
2.5
  9
$MEASUREMENT
 70
1
  9
$DIMGAP
 40
0.625
  9
$LUNITS
 70
2
  9
$AUPREC
 70
2
  9
$SPLINESEGS
 70
8
  9
$INSUNITS
 70
1
  9
$DIMEXO
 40
0.625
  9
$DIMLUNIT
 70
2
  9
$GRIDMODE
 70
1
  9
$DIMTXT
 40
2.5
  9
$LUPREC
 70
4
  9
$DIMSTYLE
  2
Standard
  9
$PLIMMIN
 10
0.0
 20
0.0
  9
$PLIMMAX
 10
8.2677165354330722
 20
11.6929133858267722
  9
$DIMEXE
 40
1.25
  9
$DIMAUNIT
 70
0
  9
$AUNITS
 70
0
  0
ENDSEC
  0
SECTION
  2
TABLES
  0
TABLE
  2
VPORT
  5
8
100
AcDbSymbolTable
 70
1
  0
VPORT
  5
30
100
AcDbSymbolTableRecord
100
AcDbViewportTableRecord
  2
*Active
 70
0
 10
0.0
 20
0.0
 11
1.0
 21
1.0
 12
286.3055555555554861
 22
148.5
 13
0.0
 23
0.0
 14
10.0
 24
10.0
 15
10.0
 25
10.0
 16
0.0
 26
0.0
 36
1.0
 17
0.0
 27
0.0
 37
0.0
 40
297.0
 41
1.92798353909465
 42
50.0
 43
0.0
 44
0.0
 50
0.0
 51
0.0
 71
0
 72
100
 73
1
 74
3
 75
1
 76
1
 77
0
 78
0
281
0
 65
1
110
0.0
120
0.0
130
0.0
111
1.0
121
0.0
131
0.0
112
0.0
122
1.0
132
0.0
 79
0
146
0.0
  0
ENDTAB
  0
TABLE
  2
LTYPE
  5
5
100
AcDbSymbolTable
 70
21
  0
LTYPE
  5
14
100
AcDbSymbolTableRecord
100
AcDbLinetypeTableRecord
  2
ByBlock
 70
0
  3

 72
65
 73
0
 40
0.0
  0
LTYPE
  5
15
100
AcDbSymbolTableRecord
100
AcDbLinetypeTableRecord
  2
ByLayer
 70
0
  3

 72
65
 73
0
 40
0.0
  0
LTYPE
  5
16
100
AcDbSymbolTableRecord
100
AcDbLinetypeTableRecord
  2
CONTINUOUS
 70
0
  3
Solid line
 72
65
 73
0
 40
0.0
  0
LTYPE
  5
31
100
AcDbSymbolTableRecord
100
AcDbLinetypeTableRecord
  2
DOT
 70
0
  3
Dot . . . . . . . . . . . . . . . . . . . . . .
 72
65
 73
2
 40
6.3499999999999996
 49
0.0
 74
0
 49
-6.3499999999999996
 74
0
  0
LTYPE
  5
32
100
AcDbSymbolTableRecord
100
AcDbLinetypeTableRecord
  2
DOT2
 70
0
  3
Dot (.5x) .....................................
 72
65
 73
2
 40
3.1749999999999998
 49
0.0
 74
0
 49
-3.1749999999999998
 74
0
  0
LTYPE
  5
33
100
AcDbSymbolTableRecord
100
AcDbLinetypeTableRecord
  2
DOTX2
 70
0
  3
Dot (2x) .  .  .  .  .  .  .  .  .  .  .  .  .
 72
65
 73
2
 40
12.6999999999999993
 49
0.0
 74
0
 49
-12.6999999999999993
 74
0
  0
LTYPE
  5
34
100
AcDbSymbolTableRecord
100
AcDbLinetypeTableRecord
  2
DASHED
 70
0
  3
Dashed __ __ __ __ __ __ __ __ __ __ __ __ __ _
 72
65
 73
2
 40
19.0500000000000007
 49
12.6999999999999993
 74
0
 49
-6.3499999999999996
 74
0
  0
LTYPE
  5
35
100
AcDbSymbolTableRecord
100
AcDbLinetypeTableRecord
  2
DASHED2
 70
0
  3
Dashed (.5x) _ _ _ _ _ _ _ _ _ _ _ _ _ _ _ _ _
 72
65
 73
2
 40
9.5250000000000004
 49
6.3499999999999996
 74
0
 49
-3.1749999999999998
 74
0
  0
LTYPE
  5
36
100
AcDbSymbolTableRecord
100
AcDbLinetypeTableRecord
  2
DASHEDX2
 70
0
  3
Dashed (2x) ____  ____  ____  ____  ____  ___
 72
65
 73
2
 40
38.1000000000000014
 49
25.3999999999999986
 74
0
 49
-12.6999999999999993
 74
0
  0
LTYPE
  5
37
100
AcDbSymbolTableRecord
100
AcDbLinetypeTableRecord
  2
DASHDOT
 70
0
  3
Dash dot __ . __ . __ . __ . __ . __ . __ . __
 72
65
 73
4
 40
25.3999999999999986
 49
12.6999999999999993
 74
0
 49
-6.3499999999999996
 74
0
 49
0.0
 74
0
 49
-6.3499999999999996
 74
0
  0
LTYPE
  5
38
100
AcDbSymbolTableRecord
100
AcDbLinetypeTableRecord
  2
DASHDOT2
 70
0
  3
Dash dot (.5x) _._._._._._._._._._._._._._._.
 72
65
 73
4
 40
12.6999999999999993
 49
6.3499999999999996
 74
0
 49
-3.1749999999999998
 74
0
 49
0.0
 74
0
 49
-3.1749999999999998
 74
0
  0
LTYPE
  5
39
100
AcDbSymbolTableRecord
100
AcDbLinetypeTableRecord
  2
DASHDOTX2
 70
0
  3
Dash dot (2x) ____  .  ____  .  ____  .  ___
 72
65
 73
4
 40
50.7999999999999972
 49
25.3999999999999986
 74
0
 49
-12.6999999999999993
 74
0
 49
0.0
 74
0
 49
-12.6999999999999993
 74
0
  0
LTYPE
  5
3A
100
AcDbSymbolTableRecord
100
AcDbLinetypeTableRecord
  2
DIVIDE
 70
0
  3
Divide ____ . . ____ . . ____ . . ____ . . ____
 72
65
 73
6
 40
31.75
 49
12.6999999999999993
 74
0
 49
-6.3499999999999996
 74
0
 49
0.0
 74
0
 49
-6.3499999999999996
 74
0
 49
0.0
 74
0
 49
-6.3499999999999996
 74
0
  0
LTYPE
  5
3B
100
AcDbSymbolTableRecord
100
AcDbLinetypeTableRecord
  2
DIVIDE2
 70
0
  3
Divide (.5x) __..__..__..__..__..__..__..__.._
 72
65
 73
6
 40
15.875
 49
6.3499999999999996
 74
0
 49
-3.1749999999999998
 74
0
 49
0.0
 74
0
 49
-3.1749999999999998
 74
0
 49
0.0
 74
0
 49
-3.1749999999999998
 74
0
  0
LTYPE
  5
3C
100
AcDbSymbolTableRecord
100
AcDbLinetypeTableRecord
  2
DIVIDEX2
 70
0
  3
Divide (2x) ________  .  .  ________  .  .  _
 72
65
 73
6
 40
63.5
 49
25.3999999999999986
 74
0
 49
-12.6999999999999993
 74
0
 49
0.0
 74
0
 49
-12.6999999999999993
 74
0
 49
0.0
 74
0
 49
-12.6999999999999993
 74
0
  0
LTYPE
  5
3D
100
AcDbSymbolTableRecord
100
AcDbLinetypeTableRecord
  2
CENTER
 70
0
  3
Center ____ _ ____ _ ____ _ ____ _ ____ _ ____
 72
65
 73
4
 40
50.7999999999999972
 49
31.75
 74
0
 49
-6.3499999999999996
 74
0
 49
6.3499999999999996
 74
0
 49
-6.3499999999999996
 74
0
  0
LTYPE
  5
3E
100
AcDbSymbolTableRecord
100
AcDbLinetypeTableRecord
  2
CENTER2
 70
0
  3
Center (.5x) ___ _ ___ _ ___ _ ___ _ ___ _ ___
 72
65
 73
4
 40
28.5749999999999993
 49
19.0500000000000007
 74
0
 49
-3.1749999999999998
 74
0
 49
3.1749999999999998
 74
0
 49
-3.1749999999999998
 74
0
  0
LTYPE
  5
3F
100
AcDbSymbolTableRecord
100
AcDbLinetypeTableRecord
  2
CENTERX2
 70
0
  3
Center (2x) ________  __  ________  __  _____
 72
65
 73
4
 40
101.5999999999999943
 49
63.5
 74
0
 49
-12.6999999999999993
 74
0
 49
12.6999999999999993
 74
0
 49
-12.6999999999999993
 74
0
  0
LTYPE
  5
40
100
AcDbSymbolTableRecord
100
AcDbLinetypeTableRecord
  2
BORDER
 70
0
  3
Border __ __ . __ __ . __ __ . __ __ . __ __ .
 72
65
 73
6
 40
44.4500000000000028
 49
12.6999999999999993
 74
0
 49
-6.3499999999999996
 74
0
 49
12.6999999999999993
 74
0
 49
-6.3499999999999996
 74
0
 49
0.0
 74
0
 49
-6.3499999999999996
 74
0
  0
LTYPE
  5
41
100
AcDbSymbolTableRecord
100
AcDbLinetypeTableRecord
  2
BORDER2
 70
0
  3
Border (.5x) __.__.__.__.__.__.__.__.__.__.__.
 72
65
 73
6
 40
22.2250000000000014
 49
6.3499999999999996
 74
0
 49
-3.1749999999999998
 74
0
 49
6.3499999999999996
 74
0
 49
-3.1749999999999998
 74
0
 49
0.0
 74
0
 49
-3.1749999999999998
 74
0
  0
LTYPE
  5
42
100
AcDbSymbolTableRecord
100
AcDbLinetypeTableRecord
  2
BORDERX2
 70
0
  3
Border (2x) ____  ____  .  ____  ____  .  ___
 72
65
 73
6
 40
88.9000000000000057
 49
25.3999999999999986
 74
0
 49
-12.6999999999999993
 74
0
 49
25.3999999999999986
 74
0
 49
-12.6999999999999993
 74
0
 49
0.0
 74
0
 49
-12.6999999999999993
 74
0
  0
ENDTAB
  0
TABLE
  2
LAYER
  5
2
100
AcDbSymbolTable
 70
1
  0
LAYER
  5
10
100
AcDbSymbolTableRecord
100
AcDbLayerTableRecord
  2
0
 70
0
 62
7
  6
CONTINUOUS
390
F
  0
ENDTAB
  0
TABLE
  2
STYLE
  5
3
100
AcDbSymbolTable
 70
1
  0
STYLE
  5
11
100
AcDbSymbolTableRecord
100
AcDbTextStyleTableRecord
  2
Standard
 70
0
 40
0.0
 41
0.75
 50
0.0
 71
0
 42
2.5
  3
txt
  4

  0
ENDTAB
  0
TABLE
  2
VIEW
  5
6
100
AcDbSymbolTable
 70
0
  0
ENDTAB
  0
TABLE
  2
UCS
  5
7
100
AcDbSymbolTable
 70
0
  0
ENDTAB
  0
TABLE
  2
APPID
  5
9
100
AcDbSymbolTable
 70
1
  0
APPID
  5
12
100
AcDbSymbolTableRecord
100
AcDbRegAppTableRecord
  2
ACAD
 70
0
  0
ENDTAB
  0
TABLE
  2
DIMSTYLE
  5
A
100
AcDbSymbolTable
 70
1
100
AcDbDimStyleTable
 71
0
  0
DIMSTYLE
105
27
100
AcDbSymbolTableRecord
100
AcDbDimStyleTableRecord
  2
Standard
 41
2.5
 42
0.625
 43
3.75
 44
1.25
 70
0
 73
0
 74
0
 77
1
 78
8
140
2.5
141
2.5
143
0.03937007874016
147
0.625
171
3
172
1
271
2
272
2
274
3
278
44
283
0
284
8
340
11
  0
ENDTAB
  0
TABLE
  2
BLOCK_RECORD
  5
1
100
AcDbSymbolTable
 70
1
  0
BLOCK_RECORD
  5
1F
100
AcDbSymbolTableRecord
100
AcDbBlockTableRecord
  2
*Model_Space
340
22
  0
BLOCK_RECORD
  5
1B
100
AcDbSymbolTableRecord
100
AcDbBlockTableRecord
  2
*Paper_Space
340
1E
  0
BLOCK_RECORD
  5
23
100
AcDbSymbolTableRecord
100
AcDbBlockTableRecord
  2
*Paper_Space0
340
26
  0
ENDTAB
  0
ENDSEC
  0
SECTION
  2
BLOCKS
  0
BLOCK
  5
20
100
AcDbEntity
  8
0
100
AcDbBlockBegin
  2
*Model_Space
 70
0
 10
0.0
 20
0.0
 30
0.0
  3
*Model_Space
  1

  0
ENDBLK
  5
21
100
AcDbEntity
  8
0
100
AcDbBlockEnd
  0
BLOCK
  5
1C
100
AcDbEntity
 67
1
  8
0
100
AcDbBlockBegin
  2
*Paper_Space
 70
0
 10
0.0
 20
0.0
 30
0.0
  3
*Paper_Space
  1

  0
ENDBLK
  5
1D
100
AcDbEntity
 67
1
  8
0
100
AcDbBlockEnd
  0
BLOCK
  5
24
100
AcDbEntity
  8
0
100
AcDbBlockBegin
  2
*Paper_Space0
 70
0
 10
0.0
 20
0.0
 30
0.0
  3
*Paper_Space0
  1

  0
ENDBLK
  5
25
100
AcDbEntity
  8
0
100
AcDbBlockEnd
  0
ENDSEC
  0
SECTION
  2
ENTITIES
  0
LINE
  5
43
100
AcDbEntity
100
AcDbLine
  8
0
 62
2
370
-1
  6
ByLayer
 10
2.3430377733069996
 20
1.7500300589880011
 30
0.0
 11
0.5092610125570003
 21
1.7500300589880016
 31
0.0
  0
LINE
  5
44
100
AcDbEntity
100
AcDbLine
  8
0
 62
2
370
-1
  6
ByLayer
 10
0.5092610125570003
 20
1.7500300589880016
 30
0.0
 11
0.3427809674410006
 21
1.6483959999999998
 31
0.0
  0
LINE
  5
45
100
AcDbEntity
100
AcDbLine
  8
0
 62
2
370
-1
  6
ByLayer
 10
0.3427809674410006
 20
1.6483959999999998
 30
0.0
 11
-0.3427809674410004
 21
1.6483960000000002
 31
0.0
  0
LINE
  5
46
100
AcDbEntity
100
AcDbLine
  8
0
 62
2
370
-1
  6
ByLayer
 10
-0.3427809674410004
 20
1.6483960000000002
 30
0.0
 11
-0.3427809674410004
 21
1.6483960000000002
 31
0.0
  0
LINE
  5
47
100
AcDbEntity
100
AcDbLine
  8
0
 62
2
370
-1
  6
ByLayer
 10
-0.0000001380830002
 20
0.8000170858260075
 30
0.0
 11
0.0424883309311274
 21
0.7989082899595594
 31
0.0
  0
LINE
  5
48
100
AcDbEntity
100
AcDbLine
  8
0
 62
2
370
-1
  6
ByLayer
 10
0.0424883309311274
 20
0.7989082899595594
 30
0.0
 11
0.0843988997996769
 21
0.7956187493621775
 31
0.0
  0
LINE
  5
49
100
AcDbEntity
100
AcDbLine
  8
0
 62
2
370
-1
  6
ByLayer
 10
0.0843988997996769
 20
0.7956187493621775
 30
0.0
 11
0.125676298019705
 21
0.7902037345368048
 31
0.0
  0
LINE
  5
4A
100
AcDbEntity
100
AcDbLine
  8
0
 62
2
370
-1
  6
ByLayer
 10
0.125676298019705
 20
0.7902037345368048
 30
0.0
 11
0.1662652550882685
 21
0.7827185159863849
 31
0.0
  0
LINE
  5
4B
100
AcDbEntity
100
AcDbLine
  8
0
 62
2
370
-1
  6
ByLayer
 10
0.1662652550882685
 20
0.7827185159863849
 30
0.0
 11
0.206110500502424
 21
0.7732183642138607
 31
0.0
  0
LINE
  5
4C
100
AcDbEntity
100
AcDbLine
  8
0
 62
2
370
-1
  6
ByLayer
 10
0.206110500502424
 20
0.7732183642138607
 30
0.0
 11
0.2451567637592282
 21
0.761758549722176
 31
0.0
  0
LINE
  5
4D
100
AcDbEntity
100
AcDbLine
  8
0
 62
2
370
-1
  6
ByLayer
 10
0.2451567637592282
 20
0.761758549722176
 30
0.0
 11
0.2833487743557377
 21
0.7483943430142738
 31
0.0
  0
LINE
  5
4E
100
AcDbEntity
100
AcDbLine
  8
0
 62
2
370
-1
  6
ByLayer
 10
0.2833487743557377
 20
0.7483943430142738
 30
0.0
 11
0.3206312617890095
 21
0.7331810145930977
 31
0.0
  0
LINE
  5
4F
100
AcDbEntity
100
AcDbLine
  8
0
 62
2
370
-1
  6
ByLayer
 10
0.3206312617890095
 20
0.7331810145930977
 30
0.0
 11
0.3569489555560999
 21
0.7161738349615905
 31
0.0
  0
LINE
  5
50
100
AcDbEntity
100
AcDbLine
  8
0
 62
2
370
-1
  6
ByLayer
 10
0.3569489555560999
 20
0.7161738349615905
 30
0.0
 11
0.3922465851540659
 21
0.697428074622696
 31
0.0
  0
LINE
  5
51
100
AcDbEntity
100
AcDbLine
  8
0
 62
2
370
-1
  6
ByLayer
 10
0.3922465851540659
 20
0.697428074622696
 30
0.0
 11
0.4264688800799641
 21
0.6769990040793574
 31
0.0
  0
LINE
  5
52
100
AcDbEntity
100
AcDbLine
  8
0
 62
2
370
-1
  6
ByLayer
 10
0.4264688800799641
 20
0.6769990040793574
 30
0.0
 11
0.4595605698308513
 21
0.654941893834518
 31
0.0
  0
LINE
  5
53
100
AcDbEntity
100
AcDbLine
  8
0
 62
2
370
-1
  6
ByLayer
 10
0.4595605698308513
 20
0.654941893834518
 30
0.0
 11
0.4914663839037839
 21
0.6313120143911207
 31
0.0
  0
LINE
  5
54
100
AcDbEntity
100
AcDbLine
  8
0
 62
2
370
-1
  6
ByLayer
 10
0.4914663839037839
 20
0.6313120143911207
 30
0.0
 11
0.5221310517958189
 21
0.6061646362521094
 31
0.0
  0
LINE
  5
55
100
AcDbEntity
100
AcDbLine
  8
0
 62
2
370
-1
  6
ByLayer
 10
0.5221310517958189
 20
0.6061646362521094
 30
0.0
 11
0.5514993030040128
 21
0.579555029920427
 31
0.0
  0
LINE
  5
56
100
AcDbEntity
100
AcDbLine
  8
0
 62
2
370
-1
  6
ByLayer
 10
0.5514993030040128
 20
0.579555029920427
 30
0.0
 11
0.5795158670254222
 21
0.5515384658990169
 31
0.0
  0
LINE
  5
57
100
AcDbEntity
100
AcDbLine
  8
0
 62
2
370
-1
  6
ByLayer
 10
0.5795158670254222
 20
0.5515384658990169
 30
0.0
 11
0.6061254733571042
 21
0.5221702146908226
 31
0.0
  0
LINE
  5
58
100
AcDbEntity
100
AcDbLine
  8
0
 62
2
370
-1
  6
ByLayer
 10
0.6061254733571042
 20
0.5221702146908226
 30
0.0
 11
0.6312728514961153
 21
0.4915055467987872
 31
0.0
  0
LINE
  5
59
100
AcDbEntity
100
AcDbLine
  8
0
 62
2
370
-1
  6
ByLayer
 10
0.6312728514961153
 20
0.4915055467987872
 30
0.0
 11
0.6549027309395121
 21
0.459599732725854
 31
0.0
  0
LINE
  5
5A
100
AcDbEntity
100
AcDbLine
  8
0
 62
2
370
-1
  6
ByLayer
 10
0.6549027309395121
 20
0.459599732725854
 30
0.0
 11
0.6769598411843513
 21
0.4265080429749664
 31
0.0
  0
LINE
  5
5B
100
AcDbEntity
100
AcDbLine
  8
0
 62
2
370
-1
  6
ByLayer
 10
0.6769598411843513
 20
0.4265080429749664
 30
0.0
 11
0.6973889117276897
 21
0.3922857480490678
 31
0.0
  0
LINE
  5
5C
100
AcDbEntity
100
AcDbLine
  8
0
 62
2
370
-1
  6
ByLayer
 10
0.6973889117276897
 20
0.3922857480490678
 30
0.0
 11
0.7161346720665839
 21
0.3569881184511012
 31
0.0
  0
LINE
  5
5D
100
AcDbEntity
100
AcDbLine
  8
0
 62
2
370
-1
  6
ByLayer
 10
0.7161346720665839
 20
0.3569881184511012
 30
0.0
 11
0.7331418516980905
 21
0.3206704246840101
 31
0.0
  0
LINE
  5
5E
100
AcDbEntity
100
AcDbLine
  8
0
 62
2
370
-1
  6
ByLayer
 10
0.7331418516980905
 20
0.3206704246840101
 30
0.0
 11
0.7483551801192666
 21
0.283387937250738
 31
0.0
  0
LINE
  5
5F
100
AcDbEntity
100
AcDbLine
  8
0
 62
2
370
-1
  6
ByLayer
 10
0.7483551801192666
 20
0.283387937250738
 30
0.0
 11
0.7617193868271684
 21
0.2451959266542278
 31
0.0
  0
LINE
  5
60
100
AcDbEntity
100
AcDbLine
  8
0
 62
2
370
-1
  6
ByLayer
 10
0.7617193868271684
 20
0.2451959266542278
 30
0.0
 11
0.773179201318853
 21
0.206149663397423
 31
0.0
  0
LINE
  5
61
100
AcDbEntity
100
AcDbLine
  8
0
 62
2
370
-1
  6
ByLayer
 10
0.773179201318853
 20
0.206149663397423
 30
0.0
 11
0.7826793530913769
 21
0.1663044179832671
 31
0.0
  0
LINE
  5
62
100
AcDbEntity
100
AcDbLine
  8
0
 62
2
370
-1
  6
ByLayer
 10
0.7826793530913769
 20
0.1663044179832671
 30
0.0
 11
0.7901645716417968
 21
0.1257154609147031
 31
0.0
  0
LINE
  5
63
100
AcDbEntity
100
AcDbLine
  8
0
 62
2
370
-1
  6
ByLayer
 10
0.7901645716417968
 20
0.1257154609147031
 30
0.0
 11
0.7955795864671692
 21
0.0844380626946744
 31
0.0
  0
LINE
  5
64
100
AcDbEntity
100
AcDbLine
  8
0
 62
2
370
-1
  6
ByLayer
 10
0.7955795864671692
 20
0.0844380626946744
 30
0.0
 11
0.7988691270645513
 21
0.0425274938261243
 31
0.0
  0
LINE
  5
65
100
AcDbEntity
100
AcDbLine
  8
0
 62
2
370
-1
  6
ByLayer
 10
0.7988691270645513
 20
0.0425274938261243
 30
0.0
 11
0.7999779229309993
 21
0.0000390248119953
 31
0.0
  0
LINE
  5
66
100
AcDbEntity
100
AcDbLine
  8
0
 62
2
370
-1
  6
ByLayer
 10
-0.7913267468150008
 20
-0.1174168604819907
 30
0.0
 11
-0.796472962396929
 21
-0.0752299015732998
 31
0.0
  0
LINE
  5
67
100
AcDbEntity
100
AcDbLine
  8
0
 62
2
370
-1
  6
ByLayer
 10
-0.796472962396929
 20
-0.0752299015732998
 30
0.0
 11
-0.79937669578288
 21
-0.0332936131596529
 31
0.0
  0
LINE
  5
68
100
AcDbEntity
100
AcDbLine
  8
0
 62
2
370
-1
  6
ByLayer
 10
-0.79937669578288
 20
-0.0332936131596529
 30
0.0
 11
-0.8000845211251675
 21
0.0083291679509527
 31
0.0
  0
LINE
  5
69
100
AcDbEntity
100
AcDbLine
  8
0
 62
2
370
-1
  6
ByLayer
 10
-0.8000845211251675
 20
0.0083291679509527
 30
0.0
 11
-0.7986430125761059
 21
0.0495756049505195
 31
0.0
  0
LINE
  5
6A
100
AcDbEntity
100
AcDbLine
  8
0
 62
2
370
-1
  6
ByLayer
 10
-0.7986430125761059
 20
0.0495756049505195
 30
0.0
 11
-0.7950987442880091
 21
0.0903828610310504
 31
0.0
  0
LINE
  5
6B
100
AcDbEntity
100
AcDbLine
  8
0
 62
2
370
-1
  6
ByLayer
 10
-0.7950987442880091
 20
0.0903828610310504
 30
0.0
 11
-0.7894982904131914
 21
0.130688099384548
 31
0.0
  0
LINE
  5
6C
100
AcDbEntity
100
AcDbLine
  8
0
 62
2
370
-1
  6
ByLayer
 10
-0.7894982904131914
 20
0.130688099384548
 30
0.0
 11
-0.7818882251039664
 21
0.1704284832030149
 31
0.0
  0
LINE
  5
6D
100
AcDbEntity
100
AcDbLine
  8
0
 62
2
370
-1
  6
ByLayer
 10
-0.7818882251039664
 20
0.1704284832030149
 30
0.0
 11
-0.7723151225126486
 21
0.2095411756784538
 31
0.0
  0
LINE
  5
6E
100
AcDbEntity
100
AcDbLine
  8
0
 62
2
370
-1
  6
ByLayer
 10
-0.7723151225126486
 20
0.2095411756784538
 30
0.0
 11
-0.7608255567915516
 21
0.2479633400028674
 31
0.0
  0
LINE
  5
6F
100
AcDbEntity
100
AcDbLine
  8
0
 62
2
370
-1
  6
ByLayer
 10
-0.7608255567915516
 20
0.2479633400028674
 30
0.0
 11
-0.74746610209299
 21
0.2856321393682585
 31
0.0
  0
LINE
  5
70
100
AcDbEntity
100
AcDbLine
  8
0
 62
2
370
-1
  6
ByLayer
 10
-0.74746610209299
 20
0.2856321393682585
 30
0.0
 11
-0.7322833325692776
 21
0.3224847369666297
 31
0.0
  0
LINE
  5
71
100
AcDbEntity
100
AcDbLine
  8
0
 62
2
370
-1
  6
ByLayer
 10
-0.7322833325692776
 20
0.3224847369666297
 30
0.0
 11
-0.7153238223727284
 21
0.3584582959899836
 31
0.0
  0
LINE
  5
72
100
AcDbEntity
100
AcDbLine
  8
0
 62
2
370
-1
  6
ByLayer
 10
-0.7153238223727284
 20
0.3584582959899836
 30
0.0
 11
-0.6966341456556563
 21
0.3934899796303229
 31
0.0
  0
LINE
  5
73
100
AcDbEntity
100
AcDbLine
  8
0
 62
2
370
-1
  6
ByLayer
 10
-0.6966341456556563
 20
0.3934899796303229
 30
0.0
 11
-0.6762608765703756
 21
0.4275169510796504
 31
0.0
  0
LINE
  5
74
100
AcDbEntity
100
AcDbLine
  8
0
 62
2
370
-1
  6
ByLayer
 10
-0.6762608765703756
 20
0.4275169510796504
 30
0.0
 11
-0.6542505892692005
 21
0.4604763735299687
 31
0.0
  0
LINE
  5
75
100
AcDbEntity
100
AcDbLine
  8
0
 62
2
370
-1
  6
ByLayer
 10
-0.6542505892692005
 20
0.4604763735299687
 30
0.0
 11
-0.6306498579044447
 21
0.4923054101732804
 31
0.0
  0
LINE
  5
76
100
AcDbEntity
100
AcDbLine
  8
0
 62
2
370
-1
  6
ByLayer
 10
-0.6306498579044447
 20
0.4923054101732804
 30
0.0
 11
-0.6055052566284226
 21
0.5229412242015885
 31
0.0
  0
LINE
  5
77
100
AcDbEntity
100
AcDbLine
  8
0
 62
2
370
-1
  6
ByLayer
 10
-0.6055052566284226
 20
0.5229412242015885
 30
0.0
 11
-0.5788633595934479
 21
0.5523209788068952
 31
0.0
  0
LINE
  5
78
100
AcDbEntity
100
AcDbLine
  8
0
 62
2
370
-1
  6
ByLayer
 10
-0.5788633595934479
 20
0.5523209788068952
 30
0.0
 11
-0.5507707409518348
 21
0.5803818371812035
 31
0.0
  0
LINE
  5
79
100
AcDbEntity
100
AcDbLine
  8
0
 62
2
370
-1
  6
ByLayer
 10
-0.5507707409518348
 20
0.5803818371812035
 30
0.0
 11
-0.5212739748558973
 21
0.6070609625165161
 31
0.0
  0
LINE
  5
7A
100
AcDbEntity
100
AcDbLine
  8
0
 62
2
370
-1
  6
ByLayer
 10
-0.5212739748558973
 20
0.6070609625165161
 30
0.0
 11
-0.4904196354579499
 21
0.6322955180048355
 31
0.0
  0
LINE
  5
7B
100
AcDbEntity
100
AcDbLine
  8
0
 62
2
370
-1
  6
ByLayer
 10
-0.4904196354579499
 20
0.6322955180048355
 30
0.0
 11
-0.458254296910306
 21
0.6560226668381645
 31
0.0
  0
LINE
  5
7C
100
AcDbEntity
100
AcDbLine
  8
0
 62
2
370
-1
  6
ByLayer
 10
-0.458254296910306
 20
0.6560226668381645
 30
0.0
 11
-0.42482453336528
 21
0.6781795722085058
 31
0.0
  0
LINE
  5
7D
100
AcDbEntity
100
AcDbLine
  8
0
 62
2
370
-1
  6
ByLayer
 10
-0.42482453336528
 20
0.6781795722085058
 30
0.0
 11
-0.3901769189751859
 21
0.6987033973078618
 31
0.0
  0
LINE
  5
7E
100
AcDbEntity
100
AcDbLine
  8
0
 62
2
370
-1
  6
ByLayer
 10
-0.3901769189751859
 20
0.6987033973078618
 30
0.0
 11
-0.3543580278923377
 21
0.7175313053282357
 31
0.0
  0
LINE
  5
7F
100
AcDbEntity
100
AcDbLine
  8
0
 62
2
370
-1
  6
ByLayer
 10
-0.3543580278923377
 20
0.7175313053282357
 30
0.0
 11
-0.3174144342690496
 21
0.7346004594616297
 31
0.0
  0
LINE
  5
80
100
AcDbEntity
100
AcDbLine
  8
0
 62
2
370
-1
  6
ByLayer
 10
-0.3174144342690496
 20
0.7346004594616297
 30
0.0
 11
-0.2793927122576355
 21
0.7498480229000468
 31
0.0
  0
LINE
  5
81
100
AcDbEntity
100
AcDbLine
  8
0
 62
2
370
-1
  6
ByLayer
 10
-0.2793927122576355
 20
0.7498480229000468
 30
0.0
 11
-0.2403394360104096
 21
0.7632111588354893
 31
0.0
  0
LINE
  5
82
100
AcDbEntity
100
AcDbLine
  8
0
 62
2
370
-1
  6
ByLayer
 10
-0.2403394360104096
 20
0.7632111588354893
 30
0.0
 11
-0.2003011796796858
 21
0.7746270304599604
 31
0.0
  0
LINE
  5
83
100
AcDbEntity
100
AcDbLine
  8
0
 62
2
370
-1
  6
ByLayer
 10
-0.2003011796796858
 20
0.7746270304599604
 30
0.0
 11
-0.1593245174177783
 21
0.7840328009654624
 31
0.0
  0
LINE
  5
84
100
AcDbEntity
100
AcDbLine
  8
0
 62
2
370
-1
  6
ByLayer
 10
-0.1593245174177783
 20
0.7840328009654624
 30
0.0
 11
-0.1174560233770002
 21
0.7913656335439982
 31
0.0
  0
LINE
  5
85
100
AcDbEntity
100
AcDbLine
  8
0
 62
2
370
-1
  6
ByLayer
 10
-2.3429598944949981
 20
1.7500300589880056
 30
0.0
 11
-2.344661221696605
 21
1.749985658807472
 31
0.0
  0
LINE
  5
86
100
AcDbEntity
100
AcDbLine
  8
0
 62
2
370
-1
  6
ByLayer
 10
-2.344661221696605
 20
1.749985658807472
 30
0.0
 11
-2.3463394118588687
 21
1.7498539338086383
 31
0.0
  0
LINE
  5
87
100
AcDbEntity
100
AcDbLine
  8
0
 62
2
370
-1
  6
ByLayer
 10
-2.3463394118588687
 20
1.7498539338086383
 30
0.0
 11
-2.347992251612018
 21
1.7496370973056539
 31
0.0
  0
LINE
  5
88
100
AcDbEntity
100
AcDbLine
  8
0
 62
2
370
-1
  6
ByLayer
 10
-2.347992251612018
 20
1.7496370973056539
 30
0.0
 11
-2.3496175275862834
 21
1.7493373626126687
 31
0.0
  0
LINE
  5
89
100
AcDbEntity
100
AcDbLine
  8
0
 62
2
370
-1
  6
ByLayer
 10
-2.3496175275862834
 20
1.7493373626126687
 30
0.0
 11
-2.3512130264118944
 21
1.7489569430438316
 31
0.0
  0
LINE
  5
8A
100
AcDbEntity
100
AcDbLine
  8
0
 62
2
370
-1
  6
ByLayer
 10
-2.3512130264118944
 20
1.7489569430438316
 30
0.0
 11
-2.3527765347190814
 21
1.7484980519132929
 31
0.0
  0
LINE
  5
8B
100
AcDbEntity
100
AcDbLine
  8
0
 62
2
370
-1
  6
ByLayer
 10
-2.3527765347190814
 20
1.7484980519132929
 30
0.0
 11
-2.3543058391380733
 21
1.7479629025352019
 31
0.0
  0
LINE
  5
8C
100
AcDbEntity
100
AcDbLine
  8
0
 62
2
370
-1
  6
ByLayer
 10
-2.3543058391380733
 20
1.7479629025352019
 30
0.0
 11
-2.3557987262991009
 21
1.7473537082237078
 31
0.0
  0
LINE
  5
8D
100
AcDbEntity
100
AcDbLine
  8
0
 62
2
370
-1
  6
ByLayer
 10
-2.3557987262991009
 20
1.7473537082237078
 30
0.0
 11
-2.3572529828323932
 21
1.7466726822929601
 31
0.0
  0
LINE
  5
8E
100
AcDbEntity
100
AcDbLine
  8
0
 62
2
370
-1
  6
ByLayer
 10
-2.3572529828323932
 20
1.7466726822929601
 30
0.0
 11
-2.3586663953681808
 21
1.7459220380571083
 31
0.0
  0
LINE
  5
8F
100
AcDbEntity
100
AcDbLine
  8
0
 62
2
370
-1
  6
ByLayer
 10
-2.3586663953681808
 20
1.7459220380571083
 30
0.0
 11
-2.3600367505366928
 21
1.7451039888303028
 31
0.0
  0
LINE
  5
90
100
AcDbEntity
100
AcDbLine
  8
0
 62
2
370
-1
  6
ByLayer
 10
-2.3600367505366928
 20
1.7451039888303028
 30
0.0
 11
-2.3613618349681591
 21
1.744220747926692
 31
0.0
  0
LINE
  5
91
100
AcDbEntity
100
AcDbLine
  8
0
 62
2
370
-1
  6
ByLayer
 10
-2.3613618349681591
 20
1.744220747926692
 30
0.0
 11
-2.3626394352928095
 21
1.7432745286604259
 31
0.0
  0
LINE
  5
92
100
AcDbEntity
100
AcDbLine
  8
0
 62
2
370
-1
  6
ByLayer
 10
-2.3626394352928095
 20
1.7432745286604259
 30
0.0
 11
-2.3638673381408744
 21
1.7422675443456539
 31
0.0
  0
LINE
  5
93
100
AcDbEntity
100
AcDbLine
  8
0
 62
2
370
-1
  6
ByLayer
 10
-2.3638673381408744
 20
1.7422675443456539
 30
0.0
 11
-2.3650433301425831
 21
1.7412020082965252
 31
0.0
  0
LINE
  5
94
100
AcDbEntity
100
AcDbLine
  8
0
 62
2
370
-1
  6
ByLayer
 10
-2.3650433301425831
 20
1.7412020082965252
 30
0.0
 11
-2.3661651979281646
 21
1.7400801338271901
 31
0.0
  0
LINE
  5
95
100
AcDbEntity
100
AcDbLine
  8
0
 62
2
370
-1
  6
ByLayer
 10
-2.3661651979281646
 20
1.7400801338271901
 30
0.0
 11
-2.3672307281278502
 21
1.7389041342517975
 31
0.0
  0
LINE
  5
96
100
AcDbEntity
100
AcDbLine
  8
0
 62
2
370
-1
  6
ByLayer
 10
-2.3672307281278502
 20
1.7389041342517975
 30
0.0
 11
-2.3682377073718692
 21
1.7376762228844969
 31
0.0
  0
LINE
  5
97
100
AcDbEntity
100
AcDbLine
  8
0
 62
2
370
-1
  6
ByLayer
 10
-2.3682377073718692
 20
1.7376762228844969
 30
0.0
 11
-2.3691839222904507
 21
1.736398613039438
 31
0.0
  0
LINE
  5
98
100
AcDbEntity
100
AcDbLine
  8
0
 62
2
370
-1
  6
ByLayer
 10
-2.3691839222904507
 20
1.736398613039438
 30
0.0
 11
-2.3700671595138254
 21
1.7350735180307704
 31
0.0
  0
LINE
  5
99
100
AcDbEntity
100
AcDbLine
  8
0
 62
2
370
-1
  6
ByLayer
 10
-2.3700671595138254
 20
1.7350735180307704
 30
0.0
 11
-2.3708852056722232
 21
1.7337031511726435
 31
0.0
  0
LINE
  5
9A
100
AcDbEntity
100
AcDbLine
  8
0
 62
2
370
-1
  6
ByLayer
 10
-2.3708852056722232
 20
1.7337031511726435
 30
0.0
 11
-2.371635847395873
 21
1.7322897257792067
 31
0.0
  0
LINE
  5
9B
100
AcDbEntity
100
AcDbLine
  8
0
 62
2
370
-1
  6
ByLayer
 10
-2.371635847395873
 20
1.7322897257792067
 30
0.0
 11
-2.3723168713150047
 21
1.7308354551646095
 31
0.0
  0
LINE
  5
9C
100
AcDbEntity
100
AcDbLine
  8
0
 62
2
370
-1
  6
ByLayer
 10
-2.3723168713150047
 20
1.7308354551646095
 30
0.0
 11
-2.3729260640598491
 21
1.7293425526430015
 31
0.0
  0
LINE
  5
9D
100
AcDbEntity
100
AcDbLine
  8
0
 62
2
370
-1
  6
ByLayer
 10
-2.3729260640598491
 20
1.7293425526430015
 30
0.0
 11
-2.3734612122606351
 21
1.7278132315285322
 31
0.0
  0
LINE
  5
9E
100
AcDbEntity
100
AcDbLine
  8
0
 62
2
370
-1
  6
ByLayer
 10
-2.3734612122606351
 20
1.7278132315285322
 30
0.0
 11
-2.3739201025475927
 21
1.7262497051353514
 31
0.0
  0
LINE
  5
9F
100
AcDbEntity
100
AcDbLine
  8
0
 62
2
370
-1
  6
ByLayer
 10
-2.3739201025475927
 20
1.7262497051353514
 30
0.0
 11
-2.3743005215509521
 21
1.7246541867776084
 31
0.0
  0
LINE
  5
A0
100
AcDbEntity
100
AcDbLine
  8
0
 62
2
370
-1
  6
ByLayer
 10
-2.3743005215509521
 20
1.7246541867776084
 30
0.0
 11
-2.3746002559009423
 21
1.7230288897694521
 31
0.0
  0
LINE
  5
A1
100
AcDbEntity
100
AcDbLine
  8
0
 62
2
370
-1
  6
ByLayer
 10
-2.3746002559009423
 20
1.7230288897694521
 30
0.0
 11
-2.3748170922277936
 21
1.7213760274250329
 31
0.0
  0
LINE
  5
A2
100
AcDbEntity
100
AcDbLine
  8
0
 62
2
370
-1
  6
ByLayer
 10
-2.3748170922277936
 20
1.7213760274250329
 30
0.0
 11
-2.3749488171617363
 21
1.7196978130585001
 31
0.0
  0
LINE
  5
A3
100
AcDbEntity
100
AcDbLine
  8
0
 62
2
370
-1
  6
ByLayer
 10
-2.3749488171617363
 20
1.7196978130585001
 30
0.0
 11
-2.3749932173329995
 21
1.717996459984003
 31
0.0
  0
LINE
  5
A4
100
AcDbEntity
100
AcDbLine
  8
0
 62
2
370
-1
  6
ByLayer
 10
-0.3427809674410004
 20
1.6483960000000002
 30
0.0
 11
-0.5092612887229994
 21
1.750030058988002
 31
0.0
  0
LINE
  5
A5
100
AcDbEntity
100
AcDbLine
  8
0
 62
2
370
-1
  6
ByLayer
 10
-0.5092612887229994
 20
1.750030058988002
 30
0.0
 11
-1.6022942814669989
 21
1.7500300589880033
 31
0.0
  0
LINE
  5
A6
100
AcDbEntity
100
AcDbLine
  8
0
 62
2
370
-1
  6
ByLayer
 10
-1.6022942814669989
 20
1.7500300589880033
 30
0.0
 11
-2.3429598944949981
 21
1.7500300589880056
 31
0.0
  0
LINE
  5
A7
100
AcDbEntity
100
AcDbLine
  8
0
 62
2
370
-1
  6
ByLayer
 10
-2.3749932173329991
 20
1.3080313469760052
 30
0.0
 11
-2.3749488171617359
 21
1.3063302317912016
 31
0.0
  0
LINE
  5
A8
100
AcDbEntity
100
AcDbLine
  8
0
 62
2
370
-1
  6
ByLayer
 10
-2.3749488171617359
 20
1.3063302317912016
 30
0.0
 11
-2.374817092227794
 21
1.3046527101803713
 31
0.0
  0
LINE
  5
A9
100
AcDbEntity
100
AcDbLine
  8
0
 62
2
370
-1
  6
ByLayer
 10
-2.374817092227794
 20
1.3046527101803713
 30
0.0
 11
-2.3746002559009427
 21
1.3030009640875944
 31
0.0
  0
LINE
  5
AA
100
AcDbEntity
100
AcDbLine
  8
0
 62
2
370
-1
  6
ByLayer
 10
-2.3746002559009427
 20
1.3030009640875944
 30
0.0
 11
-2.3743005215509521
 21
1.3013771754569514
 31
0.0
  0
LINE
  5
AB
100
AcDbEntity
100
AcDbLine
  8
0
 62
2
370
-1
  6
ByLayer
 10
-2.3743005215509521
 20
1.3013771754569514
 30
0.0
 11
-2.3739201025475927
 21
1.2997835262325217
 31
0.0
  0
LINE
  5
AC
100
AcDbEntity
100
AcDbLine
  8
0
 62
2
370
-1
  6
ByLayer
 10
-2.3739201025475927
 20
1.2997835262325217
 30
0.0
 11
-2.3734612122606356
 21
1.2982221983583857
 31
0.0
  0
LINE
  5
AD
100
AcDbEntity
100
AcDbLine
  8
0
 62
2
370
-1
  6
ByLayer
 10
-2.3734612122606356
 20
1.2982221983583857
 30
0.0
 11
-2.3729260640598491
 21
1.2966953737786227
 31
0.0
  0
LINE
  5
AE
100
AcDbEntity
100
AcDbLine
  8
0
 62
2
370
-1
  6
ByLayer
 10
-2.3729260640598491
 20
1.2966953737786227
 30
0.0
 11
-2.3723168713150047
 21
1.2952052344373128
 31
0.0
  0
LINE
  5
AF
100
AcDbEntity
100
AcDbLine
  8
0
 62
2
370
-1
  6
ByLayer
 10
-2.3723168713150047
 20
1.2952052344373128
 30
0.0
 11
-2.3716358473958725
 21
1.2937539622785359
 31
0.0
  0
LINE
  5
B0
100
AcDbEntity
100
AcDbLine
  8
0
 62
2
370
-1
  6
ByLayer
 10
-2.3716358473958725
 20
1.2937539622785359
 30
0.0
 11
-2.3708852056722223
 21
1.2923437392463721
 31
0.0
  0
LINE
  5
B1
100
AcDbEntity
100
AcDbLine
  8
0
 62
2
370
-1
  6
ByLayer
 10
-2.3708852056722223
 20
1.2923437392463721
 30
0.0
 11
-2.3700671595138254
 21
1.2909767472849014
 31
0.0
  0
LINE
  5
B2
100
AcDbEntity
100
AcDbLine
  8
0
 62
2
370
-1
  6
ByLayer
 10
-2.3700671595138254
 20
1.2909767472849014
 30
0.0
 11
-2.3691839222904507
 21
1.2896551683382029
 31
0.0
  0
LINE
  5
B3
100
AcDbEntity
100
AcDbLine
  8
0
 62
2
370
-1
  6
ByLayer
 10
-2.3691839222904507
 20
1.2896551683382029
 30
0.0
 11
-2.3682377073718692
 21
1.288381184350357
 31
0.0
  0
LINE
  5
B4
100
AcDbEntity
100
AcDbLine
  8
0
 62
2
370
-1
  6
ByLayer
 10
-2.3682377073718692
 20
1.288381184350357
 30
0.0
 11
-2.3672307281278502
 21
1.2871569772654436
 31
0.0
  0
LINE
  5
B5
100
AcDbEntity
100
AcDbLine
  8
0
 62
2
370
-1
  6
ByLayer
 10
-2.3672307281278502
 20
1.2871569772654436
 30
0.0
 11
-2.366165197928165
 21
1.2859847290275426
 31
0.0
  0
LINE
  5
B6
100
AcDbEntity
100
AcDbLine
  8
0
 62
2
370
-1
  6
ByLayer
 10
-2.366165197928165
 20
1.2859847290275426
 30
0.0
 11
-2.3650433301425826
 21
1.2848666215807336
 31
0.0
  0
LINE
  5
B7
100
AcDbEntity
100
AcDbLine
  8
0
 62
2
370
-1
  6
ByLayer
 10
-2.3650433301425826
 20
1.2848666215807336
 30
0.0
 11
-2.3638673381408744
 21
1.2838048368690971
 31
0.0
  0
LINE
  5
B8
100
AcDbEntity
100
AcDbLine
  8
0
 62
2
370
-1
  6
ByLayer
 10
-2.3638673381408744
 20
1.2838048368690971
 30
0.0
 11
-2.36263943529281
 21
1.2828015568367124
 31
0.0
  0
LINE
  5
B9
100
AcDbEntity
100
AcDbLine
  8
0
 62
2
370
-1
  6
ByLayer
 10
-2.36263943529281
 20
1.2828015568367124
 30
0.0
 11
-2.3613618349681591
 21
1.2818589634276596
 31
0.0
  0
LINE
  5
BA
100
AcDbEntity
100
AcDbLine
  8
0
 62
2
370
-1
  6
ByLayer
 10
-2.3613618349681591
 20
1.2818589634276596
 30
0.0
 11
-2.3600367505366928
 21
1.2809792385860186
 31
0.0
  0
LINE
  5
BB
100
AcDbEntity
100
AcDbLine
  8
0
 62
2
370
-1
  6
ByLayer
 10
-2.3600367505366928
 20
1.2809792385860186
 30
0.0
 11
-2.3586663953681812
 21
1.2801645642558692
 31
0.0
  0
LINE
  5
BC
100
AcDbEntity
100
AcDbLine
  8
0
 62
2
370
-1
  6
ByLayer
 10
-2.3586663953681812
 20
1.2801645642558692
 30
0.0
 11
-2.357252982832394
 21
1.2794171223812916
 31
0.0
  0
LINE
  5
BD
100
AcDbEntity
100
AcDbLine
  8
0
 62
2
370
-1
  6
ByLayer
 10
-2.357252982832394
 20
1.2794171223812916
 30
0.0
 11
-2.3557987262991018
 21
1.2787390949063653
 31
0.0
  0
LINE
  5
BE
100
AcDbEntity
100
AcDbLine
  8
0
 62
2
370
-1
  6
ByLayer
 10
-2.3557987262991018
 20
1.2787390949063653
 30
0.0
 11
-2.3543058391380738
 21
1.2781326637751704
 31
0.0
  0
LINE
  5
BF
100
AcDbEntity
100
AcDbLine
  8
0
 62
2
370
-1
  6
ByLayer
 10
-2.3543058391380738
 20
1.2781326637751704
 30
0.0
 11
-2.3527765347190819
 21
1.2776000109317867
 31
0.0
  0
LINE
  5
C0
100
AcDbEntity
100
AcDbLine
  8
0
 62
2
370
-1
  6
ByLayer
 10
-2.3527765347190819
 20
1.2776000109317867
 30
0.0
 11
-2.3512130264118953
 21
1.2771433183202938
 31
0.0
  0
LINE
  5
C1
100
AcDbEntity
100
AcDbLine
  8
0
 62
2
370
-1
  6
ByLayer
 10
-2.3512130264118953
 20
1.2771433183202938
 30
0.0
 11
-2.3496175275862847
 21
1.2767647678847724
 31
0.0
  0
LINE
  5
C2
100
AcDbEntity
100
AcDbLine
  8
0
 62
2
370
-1
  6
ByLayer
 10
-2.3496175275862847
 20
1.2767647678847724
 30
0.0
 11
-2.3479922516120193
 21
1.2764665415693017
 31
0.0
  0
LINE
  5
C3
100
AcDbEntity
100
AcDbLine
  8
0
 62
2
370
-1
  6
ByLayer
 10
-2.3479922516120193
 20
1.2764665415693017
 30
0.0
 11
-2.3463394118588701
 21
1.2762508213179617
 31
0.0
  0
LINE
  5
C4
100
AcDbEntity
100
AcDbLine
  8
0
 62
2
370
-1
  6
ByLayer
 10
-2.3463394118588701
 20
1.2762508213179617
 30
0.0
 11
-2.3446612216966072
 21
1.2761197890748326
 31
0.0
  0
LINE
  5
C5
100
AcDbEntity
100
AcDbLine
  8
0
 62
2
370
-1
  6
ByLayer
 10
-2.3446612216966072
 20
1.2761197890748326
 30
0.0
 11
-2.3429598944950007
 21
1.2760756267839939
 31
0.0
  0
LINE
  5
C6
100
AcDbEntity
100
AcDbLine
  8
0
 62
2
370
-1
  6
ByLayer
 10
-2.3749932173329995
 20
1.717996459984003
 30
0.0
 11
-2.3749932173329991
 21
1.3080313469760052
 31
0.0
  0
LINE
  5
C7
100
AcDbEntity
100
AcDbLine
  8
0
 62
2
370
-1
  6
ByLayer
 10
-1.5226394459209998
 20
1.2760756267839939
 30
0.0
 11
-1.52138648483004
 21
1.2760899967788115
 31
0.0
  0
LINE
  5
C8
100
AcDbEntity
100
AcDbLine
  8
0
 62
2
370
-1
  6
ByLayer
 10
-1.52138648483004
 20
1.2760899967788115
 30
0.0
 11
-1.5201330687062091
 21
1.2760435227437419
 31
0.0
  0
LINE
  5
C9
100
AcDbEntity
100
AcDbLine
  8
0
 62
2
370
-1
  6
ByLayer
 10
-1.5201330687062091
 20
1.2760435227437419
 30
0.0
 11
-1.5188811754212712
 21
1.2759376488700223
 31
0.0
  0
LINE
  5
CA
100
AcDbEntity
100
AcDbLine
  8
0
 62
2
370
-1
  6
ByLayer
 10
-1.5188811754212712
 20
1.2759376488700223
 30
0.0
 11
-1.5176327828469929
 21
1.2757738193488897
 31
0.0
  0
LINE
  5
CB
100
AcDbEntity
100
AcDbLine
  8
0
 62
2
370
-1
  6
ByLayer
 10
-1.5176327828469929
 20
1.2757738193488897
 30
0.0
 11
-1.5163898688551387
 21
1.2755534783715805
 31
0.0
  0
LINE
  5
CC
100
AcDbEntity
100
AcDbLine
  8
0
 62
2
370
-1
  6
ByLayer
 10
-1.5163898688551387
 20
1.2755534783715805
 30
0.0
 11
-1.5151544113174742
 21
1.2752780701293327
 31
0.0
  0
LINE
  5
CD
100
AcDbEntity
100
AcDbLine
  8
0
 62
2
370
-1
  6
ByLayer
 10
-1.5151544113174742
 20
1.2752780701293327
 30
0.0
 11
-1.5139283881057648
 21
1.2749490388133822
 31
0.0
  0
LINE
  5
CE
100
AcDbEntity
100
AcDbLine
  8
0
 62
2
370
-1
  6
ByLayer
 10
-1.5139283881057648
 20
1.2749490388133822
 30
0.0
 11
-1.512713777091776
 21
1.2745678286149664
 31
0.0
  0
LINE
  5
CF
100
AcDbEntity
100
AcDbLine
  8
0
 62
2
370
-1
  6
ByLayer
 10
-1.512713777091776
 20
1.2745678286149664
 30
0.0
 11
-1.5115125561472722
 21
1.2741358837253225
 31
0.0
  0
LINE
  5
D0
100
AcDbEntity
100
AcDbLine
  8
0
 62
2
370
-1
  6
ByLayer
 10
-1.5115125561472722
 20
1.2741358837253225
 30
0.0
 11
-1.5103267031440193
 21
1.273654648335687
 31
0.0
  0
LINE
  5
D1
100
AcDbEntity
100
AcDbLine
  8
0
 62
2
370
-1
  6
ByLayer
 10
-1.5103267031440193
 20
1.273654648335687
 30
0.0
 11
-1.509158195953783
 21
1.2731255666372978
 31
0.0
  0
LINE
  5
D2
100
AcDbEntity
100
AcDbLine
  8
0
 62
2
370
-1
  6
ByLayer
 10
-1.509158195953783
 20
1.2731255666372978
 30
0.0
 11
-1.5080090124483279
 21
1.2725500828213905
 31
0.0
  0
LINE
  5
D3
100
AcDbEntity
100
AcDbLine
  8
0
 62
2
370
-1
  6
ByLayer
 10
-1.5080090124483279
 20
1.2725500828213905
 30
0.0
 11
-1.5068811304994194
 21
1.2719296410792031
 31
0.0
  0
LINE
  5
D4
100
AcDbEntity
100
AcDbLine
  8
0
 62
2
370
-1
  6
ByLayer
 10
-1.5068811304994194
 20
1.2719296410792031
 30
0.0
 11
-1.5057765279788231
 21
1.2712656856019724
 31
0.0
  0
LINE
  5
D5
100
AcDbEntity
100
AcDbLine
  8
0
 62
2
370
-1
  6
ByLayer
 10
-1.5057765279788231
 20
1.2712656856019724
 30
0.0
 11
-1.5046971827583042
 21
1.2705596605809348
 31
0.0
  0
LINE
  5
D6
100
AcDbEntity
100
AcDbLine
  8
0
 62
2
370
-1
  6
ByLayer
 10
-1.5046971827583042
 20
1.2705596605809348
 30
0.0
 11
-1.5036450727096276
 21
1.2698130102073273
 31
0.0
  0
LINE
  5
D7
100
AcDbEntity
100
AcDbLine
  8
0
 62
2
370
-1
  6
ByLayer
 10
-1.5036450727096276
 20
1.2698130102073273
 30
0.0
 11
-1.502622175704559
 21
1.2690271786723877
 31
0.0
  0
LINE
  5
D8
100
AcDbEntity
100
AcDbLine
  8
0
 62
2
370
-1
  6
ByLayer
 10
-1.502622175704559
 20
1.2690271786723877
 30
0.0
 11
-1.5016304696148641
 21
1.2682036101673522
 31
0.0
  0
LINE
  5
D9
100
AcDbEntity
100
AcDbLine
  8
0
 62
2
370
-1
  6
ByLayer
 10
-1.5016304696148641
 20
1.2682036101673522
 30
0.0
 11
-1.5006719323123072
 21
1.267343748883458
 31
0.0
  0
LINE
  5
DA
100
AcDbEntity
100
AcDbLine
  8
0
 62
2
370
-1
  6
ByLayer
 10
-1.5006719323123072
 20
1.267343748883458
 30
0.0
 11
-1.4997485416686545
 21
1.2664490390119421
 31
0.0
  0
LINE
  5
DB
100
AcDbEntity
100
AcDbLine
  8
0
 62
2
370
-1
  6
ByLayer
 10
-1.4997485416686545
 20
1.2664490390119421
 30
0.0
 11
-1.4988622755556709
 21
1.2655209247440413
 31
0.0
  0
LINE
  5
DC
100
AcDbEntity
100
AcDbLine
  8
0
 62
2
370
-1
  6
ByLayer
 10
-1.4988622755556709
 20
1.2655209247440413
 30
0.0
 11
-1.4980151118451215
 21
1.2645608502709926
 31
0.0
  0
LINE
  5
DD
100
AcDbEntity
100
AcDbLine
  8
0
 62
2
370
-1
  6
ByLayer
 10
-1.4980151118451215
 20
1.2645608502709926
 30
0.0
 11
-1.497209028408772
 21
1.2635702597840335
 31
0.0
  0
LINE
  5
DE
100
AcDbEntity
100
AcDbLine
  8
0
 62
2
370
-1
  6
ByLayer
 10
-1.497209028408772
 20
1.2635702597840335
 30
0.0
 11
-1.4964460031183875
 21
1.2625505974744
 31
0.0
  0
LINE
  5
DF
100
AcDbEntity
100
AcDbLine
  8
0
 62
2
370
-1
  6
ByLayer
 10
-1.4964460031183875
 20
1.2625505974744
 30
0.0
 11
-1.4957280138457332
 21
1.2615033075333297
 31
0.0
  0
LINE
  5
E0
100
AcDbEntity
100
AcDbLine
  8
0
 62
2
370
-1
  6
ByLayer
 10
-1.4957280138457332
 20
1.2615033075333297
 30
0.0
 11
-1.4950570384625745
 21
1.2604298341520592
 31
0.0
  0
LINE
  5
E1
100
AcDbEntity
100
AcDbLine
  8
0
 62
2
370
-1
  6
ByLayer
 10
-1.4950570384625745
 20
1.2604298341520592
 30
0.0
 11
-1.4944350548406766
 21
1.2593316215218262
 31
0.0
  0
LINE
  5
E2
100
AcDbEntity
100
AcDbLine
  8
0
 62
2
370
-1
  6
ByLayer
 10
-1.4944350548406766
 20
1.2593316215218262
 30
0.0
 11
-1.4938640408518051
 21
1.2582101138338668
 31
0.0
  0
LINE
  5
E3
100
AcDbEntity
100
AcDbLine
  8
0
 62
2
370
-1
  6
ByLayer
 10
-1.4938640408518051
 20
1.2582101138338668
 30
0.0
 11
-1.4933459743677249
 21
1.2570667552794184
 31
0.0
  0
LINE
  5
E4
100
AcDbEntity
100
AcDbLine
  8
0
 62
2
370
-1
  6
ByLayer
 10
-1.4933459743677249
 20
1.2570667552794184
 30
0.0
 11
-1.492882833260202
 21
1.2559029900497176
 31
0.0
  0
LINE
  5
E5
100
AcDbEntity
100
AcDbLine
  8
0
 62
2
370
-1
  6
ByLayer
 10
-1.492882833260202
 20
1.2559029900497176
 30
0.0
 11
-1.4924765954010009
 21
1.2547202623360019
 31
0.0
  0
LINE
  5
E6
100
AcDbEntity
100
AcDbLine
  8
0
 62
2
370
-1
  6
ByLayer
 10
-2.3429598944950007
 20
1.2760756267839939
 30
0.0
 11
-1.6022942814670005
 21
1.2760756267839943
 31
0.0
  0
LINE
  5
E7
100
AcDbEntity
100
AcDbLine
  8
0
 62
2
370
-1
  6
ByLayer
 10
-1.6022942814670005
 20
1.2760756267839943
 30
0.0
 11
-1.5226394459209998
 21
1.2760756267839939
 31
0.0
  0
LINE
  5
E8
100
AcDbEntity
100
AcDbLine
  8
0
 62
2
370
-1
  6
ByLayer
 10
-1.2344165906930007
 20
0.5285514311459849
 30
0.0
 11
-1.2339395525333952
 21
0.5271774070049556
 31
0.0
  0
LINE
  5
E9
100
AcDbEntity
100
AcDbLine
  8
0
 62
2
370
-1
  6
ByLayer
 10
-1.2339395525333952
 20
0.5271774070049556
 30
0.0
 11
-1.2335336080177173
 21
0.5257874490933875
 31
0.0
  0
LINE
  5
EA
100
AcDbEntity
100
AcDbLine
  8
0
 62
2
370
-1
  6
ByLayer
 10
-1.2335336080177173
 20
0.5257874490933875
 30
0.0
 11
-1.2331978309502238
 21
0.5243841161299201
 31
0.0
  0
LINE
  5
EB
100
AcDbEntity
100
AcDbLine
  8
0
 62
2
370
-1
  6
ByLayer
 10
-1.2331978309502238
 20
0.5243841161299201
 30
0.0
 11
-1.2329312951351712
 21
0.5229699668331932
 31
0.0
  0
LINE
  5
EC
100
AcDbEntity
100
AcDbLine
  8
0
 62
2
370
-1
  6
ByLayer
 10
-1.2329312951351712
 20
0.5229699668331932
 30
0.0
 11
-1.2327330743768161
 21
0.521547559921846
 31
0.0
  0
LINE
  5
ED
100
AcDbEntity
100
AcDbLine
  8
0
 62
2
370
-1
  6
ByLayer
 10
-1.2327330743768161
 20
0.521547559921846
 30
0.0
 11
-1.2326022424794154
 21
0.520119454114518
 31
0.0
  0
LINE
  5
EE
100
AcDbEntity
100
AcDbLine
  8
0
 62
2
370
-1
  6
ByLayer
 10
-1.2326022424794154
 20
0.520119454114518
 30
0.0
 11
-1.2325378732472247
 21
0.5186882081298485
 31
0.0
  0
LINE
  5
EF
100
AcDbEntity
100
AcDbLine
  8
0
 62
2
370
-1
  6
ByLayer
 10
-1.2325378732472247
 20
0.5186882081298485
 30
0.0
 11
-1.2325390404845022
 21
0.5172563806864774
 31
0.0
  0
LINE
  5
F0
100
AcDbEntity
100
AcDbLine
  8
0
 62
2
370
-1
  6
ByLayer
 10
-1.2325390404845022
 20
0.5172563806864774
 30
0.0
 11
-1.2326048179955031
 21
0.5158265305030436
 31
0.0
  0
LINE
  5
F1
100
AcDbEntity
100
AcDbLine
  8
0
 62
2
370
-1
  6
ByLayer
 10
-1.2326048179955031
 20
0.5158265305030436
 30
0.0
 11
-1.2327342795844844
 21
0.514401216298187
 31
0.0
  0
LINE
  5
F2
100
AcDbEntity
100
AcDbLine
  8
0
 62
2
370
-1
  6
ByLayer
 10
-1.2327342795844844
 20
0.514401216298187
 30
0.0
 11
-1.2329264990557032
 21
0.512982996790547
 31
0.0
  0
LINE
  5
F3
100
AcDbEntity
100
AcDbLine
  8
0
 62
2
370
-1
  6
ByLayer
 10
-1.2329264990557032
 20
0.512982996790547
 30
0.0
 11
-1.2331805502134154
 21
0.511574430698763
 31
0.0
  0
LINE
  5
F4
100
AcDbEntity
100
AcDbLine
  8
0
 62
2
370
-1
  6
ByLayer
 10
-1.2331805502134154
 20
0.511574430698763
 30
0.0
 11
-1.2334955068618778
 21
0.5101780767414743
 31
0.0
  0
LINE
  5
F5
100
AcDbEntity
100
AcDbLine
  8
0
 62
2
370
-1
  6
ByLayer
 10
-1.2334955068618778
 20
0.5101780767414743
 30
0.0
 11
-1.2338704428053471
 21
0.5087964936373206
 31
0.0
  0
LINE
  5
F6
100
AcDbEntity
100
AcDbLine
  8
0
 62
2
370
-1
  6
ByLayer
 10
-1.2338704428053471
 20
0.5087964936373206
 30
0.0
 11
-1.2343044318480798
 21
0.5074322401049414
 31
0.0
  0
LINE
  5
F7
100
AcDbEntity
100
AcDbLine
  8
0
 62
2
370
-1
  6
ByLayer
 10
-1.2343044318480798
 20
0.5074322401049414
 30
0.0
 11
-1.2347965477943323
 21
0.5060878748629758
 31
0.0
  0
LINE
  5
F8
100
AcDbEntity
100
AcDbLine
  8
0
 62
2
370
-1
  6
ByLayer
 10
-1.2347965477943323
 20
0.5060878748629758
 30
0.0
 11
-1.2353458644483615
 21
0.5047659566300637
 31
0.0
  0
LINE
  5
F9
100
AcDbEntity
100
AcDbLine
  8
0
 62
2
370
-1
  6
ByLayer
 10
-1.2353458644483615
 20
0.5047659566300637
 30
0.0
 11
-1.235951455614424
 21
0.5034690441248443
 31
0.0
  0
LINE
  5
FA
100
AcDbEntity
100
AcDbLine
  8
0
 62
2
370
-1
  6
ByLayer
 10
-1.235951455614424
 20
0.5034690441248443
 30
0.0
 11
-1.2366123950967762
 21
0.5021996960659572
 31
0.0
  0
LINE
  5
FB
100
AcDbEntity
100
AcDbLine
  8
0
 62
2
370
-1
  6
ByLayer
 10
-1.2366123950967762
 20
0.5021996960659572
 30
0.0
 11
-1.2373277566996745
 21
0.5009604711720417
 31
0.0
  0
LINE
  5
FC
100
AcDbEntity
100
AcDbLine
  8
0
 62
2
370
-1
  6
ByLayer
 10
-1.2373277566996745
 20
0.5009604711720417
 30
0.0
 11
-1.2380966142273759
 21
0.4997539281617375
 31
0.0
  0
LINE
  5
FD
100
AcDbEntity
100
AcDbLine
  8
0
 62
2
370
-1
  6
ByLayer
 10
-1.2380966142273759
 20
0.4997539281617375
 30
0.0
 11
-1.238918041484137
 21
0.4985826257536838
 31
0.0
  0
LINE
  5
FE
100
AcDbEntity
100
AcDbLine
  8
0
 62
2
370
-1
  6
ByLayer
 10
-1.238918041484137
 20
0.4985826257536838
 30
0.0
 11
-1.239791112274214
 21
0.4974491226665202
 31
0.0
  0
LINE
  5
FF
100
AcDbEntity
100
AcDbLine
  8
0
 62
2
370
-1
  6
ByLayer
 10
-1.239791112274214
 20
0.4974491226665202
 30
0.0
 11
-1.2407149004018638
 21
0.4963559776188862
 31
0.0
  0
LINE
  5
100
100
AcDbEntity
100
AcDbLine
  8
0
 62
2
370
-1
  6
ByLayer
 10
-1.2407149004018638
 20
0.4963559776188862
 30
0.0
 11
-1.2416884796713425
 21
0.4953057493294212
 31
0.0
  0
LINE
  5
101
100
AcDbEntity
100
AcDbLine
  8
0
 62
2
370
-1
  6
ByLayer
 10
-1.2416884796713425
 20
0.4953057493294212
 30
0.0
 11
-1.2427109238869072
 21
0.4943009965167647
 31
0.0
  0
LINE
  5
102
100
AcDbEntity
100
AcDbLine
  8
0
 62
2
370
-1
  6
ByLayer
 10
-1.2427109238869072
 20
0.4943009965167647
 30
0.0
 11
-1.2437813068528147
 21
0.4933442778995563
 31
0.0
  0
LINE
  5
103
100
AcDbEntity
100
AcDbLine
  8
0
 62
2
370
-1
  6
ByLayer
 10
-1.2437813068528147
 20
0.4933442778995563
 30
0.0
 11
-1.2448987023733211
 21
0.4924381521964352
 31
0.0
  0
LINE
  5
104
100
AcDbEntity
100
AcDbLine
  8
0
 62
2
370
-1
  6
ByLayer
 10
-1.2448987023733211
 20
0.4924381521964352
 30
0.0
 11
-1.2460621842526829
 21
0.4915851781260409
 31
0.0
  0
LINE
  5
105
100
AcDbEntity
100
AcDbLine
  8
0
 62
2
370
-1
  6
ByLayer
 10
-1.2460621842526829
 20
0.4915851781260409
 30
0.0
 11
-1.2472708262951571
 21
0.490787914407013
 31
0.0
  0
LINE
  5
106
100
AcDbEntity
100
AcDbLine
  8
0
 62
2
370
-1
  6
ByLayer
 10
-1.2472708262951571
 20
0.490787914407013
 30
0.0
 11
-1.248523702305
 21
0.4900489197579909
 31
0.0
  0
LINE
  5
107
100
AcDbEntity
100
AcDbLine
  8
0
 62
2
370
-1
  6
ByLayer
 10
-1.4924765954010009
 20
1.2547202623360019
 30
0.0
 11
-1.2344165906930007
 21
0.5285514311459849
 31
0.0
  0
LINE
  5
108
100
AcDbEntity
100
AcDbLine
  8
0
 62
2
370
-1
  6
ByLayer
 10
-1.8590292417070007
 20
0.1376033850639933
 30
0.0
 11
-1.8599271280576286
 21
0.1371197760613782
 31
0.0
  0
LINE
  5
109
100
AcDbEntity
100
AcDbLine
  8
0
 62
2
370
-1
  6
ByLayer
 10
-1.8599271280576286
 20
0.1371197760613782
 30
0.0
 11
-1.8608098341312167
 21
0.1365903930657069
 31
0.0
  0
LINE
  5
10A
100
AcDbEntity
100
AcDbLine
  8
0
 62
2
370
-1
  6
ByLayer
 10
-1.8608098341312167
 20
0.1365903930657069
 30
0.0
 11
-1.8616762925667079
 21
0.1360171511529848
 31
0.0
  0
LINE
  5
10B
100
AcDbEntity
100
AcDbLine
  8
0
 62
2
370
-1
  6
ByLayer
 10
-1.8616762925667079
 20
0.1360171511529848
 30
0.0
 11
-1.8625254360030454
 21
0.1354019653992174
 31
0.0
  0
LINE
  5
10C
100
AcDbEntity
100
AcDbLine
  8
0
 62
2
370
-1
  6
ByLayer
 10
-1.8625254360030454
 20
0.1354019653992174
 30
0.0
 11
-1.8633561970791725
 21
0.1347467508804099
 31
0.0
  0
LINE
  5
10D
100
AcDbEntity
100
AcDbLine
  8
0
 62
2
370
-1
  6
ByLayer
 10
-1.8633561970791725
 20
0.1347467508804099
 30
0.0
 11
-1.8641675084340339
 21
0.1340534226725678
 31
0.0
  0
LINE
  5
10E
100
AcDbEntity
100
AcDbLine
  8
0
 62
2
370
-1
  6
ByLayer
 10
-1.8641675084340339
 20
0.1340534226725678
 30
0.0
 11
-1.8649583027065706
 21
0.1333238958516965
 31
0.0
  0
LINE
  5
10F
100
AcDbEntity
100
AcDbLine
  8
0
 62
2
370
-1
  6
ByLayer
 10
-1.8649583027065706
 20
0.1333238958516965
 30
0.0
 11
-1.865727512535728
 21
0.1325600854938013
 31
0.0
  0
LINE
  5
110
100
AcDbEntity
100
AcDbLine
  8
0
 62
2
370
-1
  6
ByLayer
 10
-1.865727512535728
 20
0.1325600854938013
 30
0.0
 11
-1.8664740705604479
 21
0.1317639066748875
 31
0.0
  0
LINE
  5
111
100
AcDbEntity
100
AcDbLine
  8
0
 62
2
370
-1
  6
ByLayer
 10
-1.8664740705604479
 20
0.1317639066748875
 30
0.0
 11
-1.8671969094196743
 21
0.1309372744709607
 31
0.0
  0
LINE
  5
112
100
AcDbEntity
100
AcDbLine
  8
0
 62
2
370
-1
  6
ByLayer
 10
-1.8671969094196743
 20
0.1309372744709607
 30
0.0
 11
-1.8678949617523506
 21
0.1300821039580262
 31
0.0
  0
LINE
  5
113
100
AcDbEntity
100
AcDbLine
  8
0
 62
2
370
-1
  6
ByLayer
 10
-1.8678949617523506
 20
0.1300821039580262
 30
0.0
 11
-1.8685671601974196
 21
0.1292003102120892
 31
0.0
  0
LINE
  5
114
100
AcDbEntity
100
AcDbLine
  8
0
 62
2
370
-1
  6
ByLayer
 10
-1.8685671601974196
 20
0.1292003102120892
 30
0.0
 11
-1.8692124373938255
 21
0.1282938083091553
 31
0.0
  0
LINE
  5
115
100
AcDbEntity
100
AcDbLine
  8
0
 62
2
370
-1
  6
ByLayer
 10
-1.8692124373938255
 20
0.1282938083091553
 30
0.0
 11
-1.8698297259805103
 21
0.1273645133252298
 31
0.0
  0
LINE
  5
116
100
AcDbEntity
100
AcDbLine
  8
0
 62
2
370
-1
  6
ByLayer
 10
-1.8698297259805103
 20
0.1273645133252298
 30
0.0
 11
-1.8704179585964185
 21
0.1264143403363181
 31
0.0
  0
LINE
  5
117
100
AcDbEntity
100
AcDbLine
  8
0
 62
2
370
-1
  6
ByLayer
 10
-1.8704179585964185
 20
0.1264143403363181
 30
0.0
 11
-1.8709760678804925
 21
0.1254452044184255
 31
0.0
  0
LINE
  5
118
100
AcDbEntity
100
AcDbLine
  8
0
 62
2
370
-1
  6
ByLayer
 10
-1.8709760678804925
 20
0.1254452044184255
 30
0.0
 11
-1.8715029864716763
 21
0.1244590206475575
 31
0.0
  0
LINE
  5
119
100
AcDbEntity
100
AcDbLine
  8
0
 62
2
370
-1
  6
ByLayer
 10
-1.8715029864716763
 20
0.1244590206475575
 30
0.0
 11
-1.871997647008913
 21
0.1234577040997193
 31
0.0
  0
LINE
  5
11A
100
AcDbEntity
100
AcDbLine
  8
0
 62
2
370
-1
  6
ByLayer
 10
-1.871997647008913
 20
0.1234577040997193
 30
0.0
 11
-1.8724589821311459
 21
0.1224431698509165
 31
0.0
  0
LINE
  5
11B
100
AcDbEntity
100
AcDbLine
  8
0
 62
2
370
-1
  6
ByLayer
 10
-1.8724589821311459
 20
0.1224431698509165
 30
0.0
 11
-1.8728859244773179
 21
0.1214173329771543
 31
0.0
  0
LINE
  5
11C
100
AcDbEntity
100
AcDbLine
  8
0
 62
2
370
-1
  6
ByLayer
 10
-1.8728859244773179
 20
0.1214173329771543
 30
0.0
 11
-1.8732774066863731
 21
0.1203821085544382
 31
0.0
  0
LINE
  5
11D
100
AcDbEntity
100
AcDbLine
  8
0
 62
2
370
-1
  6
ByLayer
 10
-1.8732774066863731
 20
0.1203821085544382
 30
0.0
 11
-1.8736323613972541
 21
0.1193394116587735
 31
0.0
  0
LINE
  5
11E
100
AcDbEntity
100
AcDbLine
  8
0
 62
2
370
-1
  6
ByLayer
 10
-1.8736323613972541
 20
0.1193394116587735
 30
0.0
 11
-1.8739497212489045
 21
0.1182911573661656
 31
0.0
  0
LINE
  5
11F
100
AcDbEntity
100
AcDbLine
  8
0
 62
2
370
-1
  6
ByLayer
 10
-1.8739497212489045
 20
0.1182911573661656
 30
0.0
 11
-1.8742284188802674
 21
0.1172392607526199
 31
0.0
  0
LINE
  5
120
100
AcDbEntity
100
AcDbLine
  8
0
 62
2
370
-1
  6
ByLayer
 10
-1.8742284188802674
 20
0.1172392607526199
 30
0.0
 11
-1.8744673869302864
 21
0.1161856368941418
 31
0.0
  0
LINE
  5
121
100
AcDbEntity
100
AcDbLine
  8
0
 62
2
370
-1
  6
ByLayer
 10
-1.8744673869302864
 20
0.1161856368941418
 30
0.0
 11
-1.8746655580379046
 21
0.1151322008667366
 31
0.0
  0
LINE
  5
122
100
AcDbEntity
100
AcDbLine
  8
0
 62
2
370
-1
  6
ByLayer
 10
-1.8746655580379046
 20
0.1151322008667366
 30
0.0
 11
-1.8748218648420658
 21
0.1140808677464097
 31
0.0
  0
LINE
  5
123
100
AcDbEntity
100
AcDbLine
  8
0
 62
2
370
-1
  6
ByLayer
 10
-1.8748218648420658
 20
0.1140808677464097
 30
0.0
 11
-1.8749352399817123
 21
0.1130335526091665
 31
0.0
  0
LINE
  5
124
100
AcDbEntity
100
AcDbLine
  8
0
 62
2
370
-1
  6
ByLayer
 10
-1.8749352399817123
 20
0.1130335526091665
 30
0.0
 11
-1.8750046160957881
 21
0.1119921705310124
 31
0.0
  0
LINE
  5
125
100
AcDbEntity
100
AcDbLine
  8
0
 62
2
370
-1
  6
ByLayer
 10
-1.8750046160957881
 20
0.1119921705310124
 30
0.0
 11
-1.8750289258232367
 21
0.1109586365879527
 31
0.0
  0
LINE
  5
126
100
AcDbEntity
100
AcDbLine
  8
0
 62
2
370
-1
  6
ByLayer
 10
-1.8750289258232367
 20
0.1109586365879527
 30
0.0
 11
-1.8750071018030008
 21
0.1099348658559929
 31
0.0
  0
LINE
  5
127
100
AcDbEntity
100
AcDbLine
  8
0
 62
2
370
-1
  6
ByLayer
 10
-1.248523702305
 20
0.4900489197579909
 30
0.0
 11
-1.8590292417070007
 21
0.1376033850639933
 31
0.0
  0
LINE
  5
128
100
AcDbEntity
100
AcDbLine
  8
0
 62
2
370
-1
  6
ByLayer
 10
-1.8750071018030012
 20
-0.5179514569219852
 30
0.0
 11
-1.8749627016224684
 21
-0.5196527841235924
 31
0.0
  0
LINE
  5
129
100
AcDbEntity
100
AcDbLine
  8
0
 62
2
370
-1
  6
ByLayer
 10
-1.8749627016224684
 20
-0.5196527841235924
 30
0.0
 11
-1.8748309766236351
 21
-0.5213309742858561
 31
0.0
  0
LINE
  5
12A
100
AcDbEntity
100
AcDbLine
  8
0
 62
2
370
-1
  6
ByLayer
 10
-1.8748309766236351
 20
-0.5213309742858561
 30
0.0
 11
-1.8746141401206513
 21
-0.5229838140390058
 31
0.0
  0
LINE
  5
12B
100
AcDbEntity
100
AcDbLine
  8
0
 62
2
370
-1
  6
ByLayer
 10
-1.8746141401206513
 20
-0.5229838140390058
 30
0.0
 11
-1.8743144054276666
 21
-0.5246090900132715
 31
0.0
  0
LINE
  5
12C
100
AcDbEntity
100
AcDbLine
  8
0
 62
2
370
-1
  6
ByLayer
 10
-1.8743144054276666
 20
-0.5246090900132715
 30
0.0
 11
-1.87393398585883
 21
-0.5262045888388828
 31
0.0
  0
LINE
  5
12D
100
AcDbEntity
100
AcDbLine
  8
0
 62
2
370
-1
  6
ByLayer
 10
-1.87393398585883
 20
-0.5262045888388828
 30
0.0
 11
-1.8734750947282921
 21
-0.5277680971460699
 31
0.0
  0
LINE
  5
12E
100
AcDbEntity
100
AcDbLine
  8
0
 62
2
370
-1
  6
ByLayer
 10
-1.8734750947282921
 20
-0.5277680971460699
 30
0.0
 11
-1.8729399453502009
 21
-0.5292974015650622
 31
0.0
  0
LINE
  5
12F
100
AcDbEntity
100
AcDbLine
  8
0
 62
2
370
-1
  6
ByLayer
 10
-1.8729399453502009
 20
-0.5292974015650622
 30
0.0
 11
-1.8723307510387073
 21
-0.5307902887260898
 31
0.0
  0
LINE
  5
130
100
AcDbEntity
100
AcDbLine
  8
0
 62
2
370
-1
  6
ByLayer
 10
-1.8723307510387073
 20
-0.5307902887260898
 30
0.0
 11
-1.87164972510796
 21
-0.5322445452593824
 31
0.0
  0
LINE
  5
131
100
AcDbEntity
100
AcDbLine
  8
0
 62
2
370
-1
  6
ByLayer
 10
-1.87164972510796
 20
-0.5322445452593824
 30
0.0
 11
-1.8708990808721087
 21
-0.5336579577951696
 31
0.0
  0
LINE
  5
132
100
AcDbEntity
100
AcDbLine
  8
0
 62
2
370
-1
  6
ByLayer
 10
-1.8708990808721087
 20
-0.5336579577951696
 30
0.0
 11
-1.8700810316453036
 21
-0.5350283129636816
 31
0.0
  0
LINE
  5
133
100
AcDbEntity
100
AcDbLine
  8
0
 62
2
370
-1
  6
ByLayer
 10
-1.8700810316453036
 20
-0.5350283129636816
 30
0.0
 11
-1.869197790741693
 21
-0.536353397395148
 31
0.0
  0
LINE
  5
134
100
AcDbEntity
100
AcDbLine
  8
0
 62
2
370
-1
  6
ByLayer
 10
-1.869197790741693
 20
-0.536353397395148
 30
0.0
 11
-1.8682515714754271
 21
-0.5376309977197984
 31
0.0
  0
LINE
  5
135
100
AcDbEntity
100
AcDbLine
  8
0
 62
2
370
-1
  6
ByLayer
 10
-1.8682515714754271
 20
-0.5376309977197984
 30
0.0
 11
-1.8672445871606553
 21
-0.538858900567863
 31
0.0
  0
LINE
  5
136
100
AcDbEntity
100
AcDbLine
  8
0
 62
2
370
-1
  6
ByLayer
 10
-1.8672445871606553
 20
-0.538858900567863
 30
0.0
 11
-1.866179051111527
 21
-0.5400348925695715
 31
0.0
  0
LINE
  5
137
100
AcDbEntity
100
AcDbLine
  8
0
 62
2
370
-1
  6
ByLayer
 10
-1.866179051111527
 20
-0.5400348925695715
 30
0.0
 11
-1.8650571766421917
 21
-0.5411567603551534
 31
0.0
  0
LINE
  5
138
100
AcDbEntity
100
AcDbLine
  8
0
 62
2
370
-1
  6
ByLayer
 10
-1.8650571766421917
 20
-0.5411567603551534
 30
0.0
 11
-1.8638811770667991
 21
-0.5422222905548388
 31
0.0
  0
LINE
  5
139
100
AcDbEntity
100
AcDbLine
  8
0
 62
2
370
-1
  6
ByLayer
 10
-1.8638811770667991
 20
-0.5422222905548388
 30
0.0
 11
-1.8626532656994987
 21
-0.5432292697988576
 31
0.0
  0
LINE
  5
13A
100
AcDbEntity
100
AcDbLine
  8
0
 62
2
370
-1
  6
ByLayer
 10
-1.8626532656994987
 20
-0.5432292697988576
 30
0.0
 11
-1.8613756558544399
 21
-0.5441754847174392
 31
0.0
  0
LINE
  5
13B
100
AcDbEntity
100
AcDbLine
  8
0
 62
2
370
-1
  6
ByLayer
 10
-1.8613756558544399
 20
-0.5441754847174392
 30
0.0
 11
-1.8600505608457722
 21
-0.5450587219408137
 31
0.0
  0
LINE
  5
13C
100
AcDbEntity
100
AcDbLine
  8
0
 62
2
370
-1
  6
ByLayer
 10
-1.8600505608457722
 20
-0.5450587219408137
 30
0.0
 11
-1.8586801939876452
 21
-0.545876768099211
 31
0.0
  0
LINE
  5
13D
100
AcDbEntity
100
AcDbLine
  8
0
 62
2
370
-1
  6
ByLayer
 10
-1.8586801939876452
 20
-0.545876768099211
 30
0.0
 11
-1.8572667685942084
 21
-0.5466274098228607
 31
0.0
  0
LINE
  5
13E
100
AcDbEntity
100
AcDbLine
  8
0
 62
2
370
-1
  6
ByLayer
 10
-1.8572667685942084
 20
-0.5466274098228607
 30
0.0
 11
-1.8558124979796109
 21
-0.5473084337419927
 31
0.0
  0
LINE
  5
13F
100
AcDbEntity
100
AcDbLine
  8
0
 62
2
370
-1
  6
ByLayer
 10
-1.8558124979796109
 20
-0.5473084337419927
 30
0.0
 11
-1.8543195954580027
 21
-0.5479176264868366
 31
0.0
  0
LINE
  5
140
100
AcDbEntity
100
AcDbLine
  8
0
 62
2
370
-1
  6
ByLayer
 10
-1.8543195954580027
 20
-0.5479176264868366
 30
0.0
 11
-1.8527902743435334
 21
-0.5484527746876227
 31
0.0
  0
LINE
  5
141
100
AcDbEntity
100
AcDbLine
  8
0
 62
2
370
-1
  6
ByLayer
 10
-1.8527902743435334
 20
-0.5484527746876227
 30
0.0
 11
-1.8512267479503517
 21
-0.5489116649745802
 31
0.0
  0
LINE
  5
142
100
AcDbEntity
100
AcDbLine
  8
0
 62
2
370
-1
  6
ByLayer
 10
-1.8512267479503517
 20
-0.5489116649745802
 30
0.0
 11
-1.8496312295926083
 21
-0.5492920839779394
 31
0.0
  0
LINE
  5
143
100
AcDbEntity
100
AcDbLine
  8
0
 62
2
370
-1
  6
ByLayer
 10
-1.8496312295926083
 20
-0.5492920839779394
 30
0.0
 11
-1.848005932584452
 21
-0.5495918183279297
 31
0.0
  0
LINE
  5
144
100
AcDbEntity
100
AcDbLine
  8
0
 62
2
370
-1
  6
ByLayer
 10
-1.848005932584452
 20
-0.5495918183279297
 30
0.0
 11
-1.8463530702400321
 21
-0.5498086546547811
 31
0.0
  0
LINE
  5
145
100
AcDbEntity
100
AcDbLine
  8
0
 62
2
370
-1
  6
ByLayer
 10
-1.8463530702400321
 20
-0.5498086546547811
 30
0.0
 11
-1.8446748558734987
 21
-0.5499403795887235
 31
0.0
  0
LINE
  5
146
100
AcDbEntity
100
AcDbLine
  8
0
 62
2
370
-1
  6
ByLayer
 10
-1.8446748558734987
 20
-0.5499403795887235
 30
0.0
 11
-1.8429735027990009
 21
-0.5499847797599867
 31
0.0
  0
LINE
  5
147
100
AcDbEntity
100
AcDbLine
  8
0
 62
2
370
-1
  6
ByLayer
 10
-1.8750071018030008
 20
0.1099348658559929
 30
0.0
 11
-1.8750071018030012
 21
-0.5179514569219852
 31
0.0
  0
LINE
  5
148
100
AcDbEntity
100
AcDbLine
  8
0
 62
2
370
-1
  6
ByLayer
 10
-1.5086102131210004
 20
-0.5499847797599864
 30
0.0
 11
-1.5081493567816744
 21
-0.5500006554625244
 31
0.0
  0
LINE
  5
149
100
AcDbEntity
100
AcDbLine
  8
0
 62
2
370
-1
  6
ByLayer
 10
-1.5081493567816744
 20
-0.5500006554625244
 30
0.0
 11
-1.5076727084489505
 21
-0.5500032185195785
 31
0.0
  0
LINE
  5
14A
100
AcDbEntity
100
AcDbLine
  8
0
 62
2
370
-1
  6
ByLayer
 10
-1.5076727084489505
 20
-0.5500032185195785
 30
0.0
 11
-1.5071815081861306
 21
-0.5499927829655691
 31
0.0
  0
LINE
  5
14B
100
AcDbEntity
100
AcDbLine
  8
0
 62
2
370
-1
  6
ByLayer
 10
-1.5071815081861306
 20
-0.5499927829655691
 30
0.0
 11
-1.5066769960565167
 21
-0.5499696628349163
 31
0.0
  0
LINE
  5
14C
100
AcDbEntity
100
AcDbLine
  8
0
 62
2
370
-1
  6
ByLayer
 10
-1.5066769960565167
 20
-0.5499696628349163
 30
0.0
 11
-1.50616041212341
 21
-0.5499341721620407
 31
0.0
  0
LINE
  5
14D
100
AcDbEntity
100
AcDbLine
  8
0
 62
2
370
-1
  6
ByLayer
 10
-1.50616041212341
 20
-0.5499341721620407
 30
0.0
 11
-1.5056329964501127
 21
-0.5498866249813628
 31
0.0
  0
LINE
  5
14E
100
AcDbEntity
100
AcDbLine
  8
0
 62
2
370
-1
  6
ByLayer
 10
-1.5056329964501127
 20
-0.5498866249813628
 30
0.0
 11
-1.5050959890999256
 21
-0.5498273353273024
 31
0.0
  0
LINE
  5
14F
100
AcDbEntity
100
AcDbLine
  8
0
 62
2
370
-1
  6
ByLayer
 10
-1.5050959890999256
 20
-0.5498273353273024
 30
0.0
 11
-1.5045506301361511
 21
-0.54975661723428
 31
0.0
  0
LINE
  5
150
100
AcDbEntity
100
AcDbLine
  8
0
 62
2
370
-1
  6
ByLayer
 10
-1.5045506301361511
 20
-0.54975661723428
 30
0.0
 11
-1.5039981596220906
 21
-0.5496747847367162
 31
0.0
  0
LINE
  5
151
100
AcDbEntity
100
AcDbLine
  8
0
 62
2
370
-1
  6
ByLayer
 10
-1.5039981596220906
 20
-0.5496747847367162
 30
0.0
 11
-1.5034398176210459
 21
-0.5495821518690308
 31
0.0
  0
LINE
  5
152
100
AcDbEntity
100
AcDbLine
  8
0
 62
2
370
-1
  6
ByLayer
 10
-1.5034398176210459
 20
-0.5495821518690308
 30
0.0
 11
-1.5028768441963192
 21
-0.5494790326656447
 31
0.0
  0
LINE
  5
153
100
AcDbEntity
100
AcDbLine
  8
0
 62
2
370
-1
  6
ByLayer
 10
-1.5028768441963192
 20
-0.5494790326656447
 30
0.0
 11
-1.502310479411211
 21
-0.5493657411609779
 31
0.0
  0
LINE
  5
154
100
AcDbEntity
100
AcDbLine
  8
0
 62
2
370
-1
  6
ByLayer
 10
-1.502310479411211
 20
-0.5493657411609779
 30
0.0
 11
-1.5017419633290234
 21
-0.5492425913894506
 31
0.0
  0
LINE
  5
155
100
AcDbEntity
100
AcDbLine
  8
0
 62
2
370
-1
  6
ByLayer
 10
-1.5017419633290234
 20
-0.5492425913894506
 30
0.0
 11
-1.5011725360130586
 21
-0.5491098973854835
 31
0.0
  0
LINE
  5
156
100
AcDbEntity
100
AcDbLine
  8
0
 62
2
370
-1
  6
ByLayer
 10
-1.5011725360130586
 20
-0.5491098973854835
 30
0.0
 11
-1.5006034375266177
 21
-0.5489679731834967
 31
0.0
  0
LINE
  5
157
100
AcDbEntity
100
AcDbLine
  8
0
 62
2
370
-1
  6
ByLayer
 10
-1.5006034375266177
 20
-0.5489679731834967
 30
0.0
 11
-1.5000359079330026
 21
-0.5488171328179103
 31
0.0
  0
LINE
  5
158
100
AcDbEntity
100
AcDbLine
  8
0
 62
2
370
-1
  6
ByLayer
 10
-1.5000359079330026
 20
-0.5488171328179103
 30
0.0
 11
-1.4994711872955151
 21
-0.548657690323145
 31
0.0
  0
LINE
  5
159
100
AcDbEntity
100
AcDbLine
  8
0
 62
2
370
-1
  6
ByLayer
 10
-1.4994711872955151
 20
-0.548657690323145
 30
0.0
 11
-1.4989105156774565
 21
-0.548489959733621
 31
0.0
  0
LINE
  5
15A
100
AcDbEntity
100
AcDbLine
  8
0
 62
2
370
-1
  6
ByLayer
 10
-1.4989105156774565
 20
-0.548489959733621
 30
0.0
 11
-1.4983551331421283
 21
-0.5483142550837585
 31
0.0
  0
LINE
  5
15B
100
AcDbEntity
100
AcDbLine
  8
0
 62
2
370
-1
  6
ByLayer
 10
-1.4983551331421283
 20
-0.5483142550837585
 30
0.0
 11
-1.4978062797528331
 21
-0.548130890407978
 31
0.0
  0
LINE
  5
15C
100
AcDbEntity
100
AcDbLine
  8
0
 62
2
370
-1
  6
ByLayer
 10
-1.4978062797528331
 20
-0.548130890407978
 30
0.0
 11
-1.4972651955728717
 21
-0.5479401797406996
 31
0.0
  0
LINE
  5
15D
100
AcDbEntity
100
AcDbLine
  8
0
 62
2
370
-1
  6
ByLayer
 10
-1.4972651955728717
 20
-0.5479401797406996
 30
0.0
 11
-1.4967331206655463
 21
-0.5477424371163438
 31
0.0
  0
LINE
  5
15E
100
AcDbEntity
100
AcDbLine
  8
0
 62
2
370
-1
  6
ByLayer
 10
-1.4967331206655463
 20
-0.5477424371163438
 30
0.0
 11
-1.4962112950941582
 21
-0.5475379765693309
 31
0.0
  0
LINE
  5
15F
100
AcDbEntity
100
AcDbLine
  8
0
 62
2
370
-1
  6
ByLayer
 10
-1.4962112950941582
 20
-0.5475379765693309
 30
0.0
 11
-1.4957009589220092
 21
-0.5473271121340813
 31
0.0
  0
LINE
  5
160
100
AcDbEntity
100
AcDbLine
  8
0
 62
2
370
-1
  6
ByLayer
 10
-1.4957009589220092
 20
-0.5473271121340813
 30
0.0
 11
-1.4952033522124006
 21
-0.5471101578450149
 31
0.0
  0
LINE
  5
161
100
AcDbEntity
100
AcDbLine
  8
0
 62
2
370
-1
  6
ByLayer
 10
-1.4952033522124006
 20
-0.5471101578450149
 30
0.0
 11
-1.4947197150286349
 21
-0.5468874277365525
 31
0.0
  0
LINE
  5
162
100
AcDbEntity
100
AcDbLine
  8
0
 62
2
370
-1
  6
ByLayer
 10
-1.4947197150286349
 20
-0.5468874277365525
 30
0.0
 11
-1.4942512874340133
 21
-0.5466592358431142
 31
0.0
  0
LINE
  5
163
100
AcDbEntity
100
AcDbLine
  8
0
 62
2
370
-1
  6
ByLayer
 10
-1.4942512874340133
 20
-0.5466592358431142
 30
0.0
 11
-1.4937993094918371
 21
-0.5464258961991204
 31
0.0
  0
LINE
  5
164
100
AcDbEntity
100
AcDbLine
  8
0
 62
2
370
-1
  6
ByLayer
 10
-1.4937993094918371
 20
-0.5464258961991204
 30
0.0
 11
-1.4933650212654088
 21
-0.5461877228389913
 31
0.0
  0
LINE
  5
165
100
AcDbEntity
100
AcDbLine
  8
0
 62
2
370
-1
  6
ByLayer
 10
-1.4933650212654088
 20
-0.5461877228389913
 30
0.0
 11
-1.4929496628180292
 21
-0.5459450297971474
 31
0.0
  0
LINE
  5
166
100
AcDbEntity
100
AcDbLine
  8
0
 62
2
370
-1
  6
ByLayer
 10
-1.4929496628180292
 20
-0.5459450297971474
 30
0.0
 11
-1.4925544742130008
 21
-0.5456981311080089
 31
0.0
  0
LINE
  5
167
100
AcDbEntity
100
AcDbLine
  8
0
 62
2
370
-1
  6
ByLayer
 10
-1.8429735027990009
 20
-0.5499847797599867
 30
0.0
 11
-1.5086102131210004
 21
-0.5499847797599864
 31
0.0
  0
LINE
  5
168
100
AcDbEntity
100
AcDbLine
  8
0
 62
2
370
-1
  6
ByLayer
 10
-0.8069928154970004
 20
-0.1498398535460124
 30
0.0
 11
-0.8059418812048369
 21
-0.1492550691533708
 31
0.0
  0
LINE
  5
169
100
AcDbEntity
100
AcDbLine
  8
0
 62
2
370
-1
  6
ByLayer
 10
-0.8059418812048369
 20
-0.1492550691533708
 30
0.0
 11
-0.804916848745316
 21
-0.1486184513939953
 31
0.0
  0
LINE
  5
16A
100
AcDbEntity
100
AcDbLine
  8
0
 62
2
370
-1
  6
ByLayer
 10
-0.804916848745316
 20
-0.1486184513939953
 30
0.0
 11
-0.8039188012201496
 21
-0.1479321822119658
 31
0.0
  0
LINE
  5
16B
100
AcDbEntity
100
AcDbLine
  8
0
 62
2
370
-1
  6
ByLayer
 10
-0.8039188012201496
 20
-0.1479321822119658
 30
0.0
 11
-0.8029488217310502
 21
-0.1471984435513623
 31
0.0
  0
LINE
  5
16C
100
AcDbEntity
100
AcDbLine
  8
0
 62
2
370
-1
  6
ByLayer
 10
-0.8029488217310502
 20
-0.1471984435513623
 30
0.0
 11
-0.8020079933797296
 21
-0.1464194173562645
 31
0.0
  0
LINE
  5
16D
100
AcDbEntity
100
AcDbLine
  8
0
 62
2
370
-1
  6
ByLayer
 10
-0.8020079933797296
 20
-0.1464194173562645
 30
0.0
 11
-0.8010973992679008
 21
-0.1455972855707524
 31
0.0
  0
LINE
  5
16E
100
AcDbEntity
100
AcDbLine
  8
0
 62
2
370
-1
  6
ByLayer
 10
-0.8010973992679008
 20
-0.1455972855707524
 30
0.0
 11
-0.800218122497275
 21
-0.1447342301389058
 31
0.0
  0
LINE
  5
16F
100
AcDbEntity
100
AcDbLine
  8
0
 62
2
370
-1
  6
ByLayer
 10
-0.800218122497275
 20
-0.1447342301389058
 30
0.0
 11
-0.7993712461695649
 21
-0.1438324330048048
 31
0.0
  0
LINE
  5
170
100
AcDbEntity
100
AcDbLine
  8
0
 62
2
370
-1
  6
ByLayer
 10
-0.7993712461695649
 20
-0.1438324330048048
 30
0.0
 11
-0.7985578533864826
 21
-0.1428940761125291
 31
0.0
  0
LINE
  5
171
100
AcDbEntity
100
AcDbLine
  8
0
 62
2
370
-1
  6
ByLayer
 10
-0.7985578533864826
 20
-0.1428940761125291
 30
0.0
 11
-0.7977790272497405
 21
-0.1419213414061586
 31
0.0
  0
LINE
  5
172
100
AcDbEntity
100
AcDbLine
  8
0
 62
2
370
-1
  6
ByLayer
 10
-0.7977790272497405
 20
-0.1419213414061586
 30
0.0
 11
-0.7970358508610507
 21
-0.1409164108297734
 31
0.0
  0
LINE
  5
173
100
AcDbEntity
100
AcDbLine
  8
0
 62
2
370
-1
  6
ByLayer
 10
-0.7970358508610507
 20
-0.1409164108297734
 30
0.0
 11
-0.7963294073221252
 21
-0.1398814663274532
 31
0.0
  0
LINE
  5
174
100
AcDbEntity
100
AcDbLine
  8
0
 62
2
370
-1
  6
ByLayer
 10
-0.7963294073221252
 20
-0.1398814663274532
 30
0.0
 11
-0.7956607797346763
 21
-0.138818689843278
 31
0.0
  0
LINE
  5
175
100
AcDbEntity
100
AcDbLine
  8
0
 62
2
370
-1
  6
ByLayer
 10
-0.7956607797346763
 20
-0.138818689843278
 30
0.0
 11
-0.7950310512004162
 21
-0.1377302633213276
 31
0.0
  0
LINE
  5
176
100
AcDbEntity
100
AcDbLine
  8
0
 62
2
370
-1
  6
ByLayer
 10
-0.7950310512004162
 20
-0.1377302633213276
 30
0.0
 11
-0.7944413048210572
 21
-0.1366183687056819
 31
0.0
  0
LINE
  5
177
100
AcDbEntity
100
AcDbLine
  8
0
 62
2
370
-1
  6
ByLayer
 10
-0.7944413048210572
 20
-0.1366183687056819
 30
0.0
 11
-0.7938926236983113
 21
-0.1354851879404209
 31
0.0
  0
LINE
  5
178
100
AcDbEntity
100
AcDbLine
  8
0
 62
2
370
-1
  6
ByLayer
 10
-0.7938926236983113
 20
-0.1354851879404209
 30
0.0
 11
-0.7933860909338909
 21
-0.1343329029696244
 31
0.0
  0
LINE
  5
179
100
AcDbEntity
100
AcDbLine
  8
0
 62
2
370
-1
  6
ByLayer
 10
-0.7933860909338909
 20
-0.1343329029696244
 30
0.0
 11
-0.7929227896295081
 21
-0.1331636957373724
 31
0.0
  0
LINE
  5
17A
100
AcDbEntity
100
AcDbLine
  8
0
 62
2
370
-1
  6
ByLayer
 10
-0.7929227896295081
 20
-0.1331636957373724
 30
0.0
 11
-0.7925038028868749
 21
-0.1319797481877446
 31
0.0
  0
LINE
  5
17B
100
AcDbEntity
100
AcDbLine
  8
0
 62
2
370
-1
  6
ByLayer
 10
-0.7925038028868749
 20
-0.1319797481877446
 30
0.0
 11
-0.7921302138077039
 21
-0.1307832422648211
 31
0.0
  0
LINE
  5
17C
100
AcDbEntity
100
AcDbLine
  8
0
 62
2
370
-1
  6
ByLayer
 10
-0.7921302138077039
 20
-0.1307832422648211
 30
0.0
 11
-0.7918031054937071
 21
-0.1295763599126817
 31
0.0
  0
LINE
  5
17D
100
AcDbEntity
100
AcDbLine
  8
0
 62
2
370
-1
  6
ByLayer
 10
-0.7918031054937071
 20
-0.1295763599126817
 30
0.0
 11
-0.7915235610465966
 21
-0.1283612830754063
 31
0.0
  0
LINE
  5
17E
100
AcDbEntity
100
AcDbLine
  8
0
 62
2
370
-1
  6
ByLayer
 10
-0.7915235610465966
 20
-0.1283612830754063
 30
0.0
 11
-0.7912926635680846
 21
-0.1271401936970748
 31
0.0
  0
LINE
  5
17F
100
AcDbEntity
100
AcDbLine
  8
0
 62
2
370
-1
  6
ByLayer
 10
-0.7912926635680846
 20
-0.1271401936970748
 30
0.0
 11
-0.7911114961598834
 21
-0.1259152737217671
 31
0.0
  0
LINE
  5
180
100
AcDbEntity
100
AcDbLine
  8
0
 62
2
370
-1
  6
ByLayer
 10
-0.7911114961598834
 20
-0.1259152737217671
 30
0.0
 11
-0.7909811419237052
 21
-0.1246887050935631
 31
0.0
  0
LINE
  5
181
100
AcDbEntity
100
AcDbLine
  8
0
 62
2
370
-1
  6
ByLayer
 10
-0.7909811419237052
 20
-0.1246887050935631
 30
0.0
 11
-0.7909026839612621
 21
-0.1234626697565426
 31
0.0
  0
LINE
  5
182
100
AcDbEntity
100
AcDbLine
  8
0
 62
2
370
-1
  6
ByLayer
 10
-0.7909026839612621
 20
-0.1234626697565426
 30
0.0
 11
-0.7908772053742663
 21
-0.1222393496547857
 31
0.0
  0
LINE
  5
183
100
AcDbEntity
100
AcDbLine
  8
0
 62
2
370
-1
  6
ByLayer
 10
-0.7908772053742663
 20
-0.1222393496547857
 30
0.0
 11
-0.7909057892644302
 21
-0.1210209267323722
 31
0.0
  0
LINE
  5
184
100
AcDbEntity
100
AcDbLine
  8
0
 62
2
370
-1
  6
ByLayer
 10
-0.7909057892644302
 20
-0.1210209267323722
 30
0.0
 11
-0.7909895187334657
 21
-0.1198095829333819
 31
0.0
  0
LINE
  5
185
100
AcDbEntity
100
AcDbLine
  8
0
 62
2
370
-1
  6
ByLayer
 10
-0.7909895187334657
 20
-0.1198095829333819
 30
0.0
 11
-0.7911294768830852
 21
-0.1186075002018948
 31
0.0
  0
LINE
  5
186
100
AcDbEntity
100
AcDbLine
  8
0
 62
2
370
-1
  6
ByLayer
 10
-0.7911294768830852
 20
-0.1186075002018948
 30
0.0
 11
-0.7913267468150008
 21
-0.1174168604819907
 31
0.0
  0
LINE
  5
187
100
AcDbEntity
100
AcDbLine
  8
0
 62
2
370
-1
  6
ByLayer
 10
-0.1174560233770002
 20
0.7913656335439982
 30
0.0
 11
-0.1144831313909549
 21
0.7918533422457629
 31
0.0
  0
LINE
  5
188
100
AcDbEntity
100
AcDbLine
  8
0
 62
2
370
-1
  6
ByLayer
 10
-0.1144831313909549
 20
0.7918533422457629
 30
0.0
 11
-0.1113494690773916
 21
0.7923353358103052
 31
0.0
  0
LINE
  5
189
100
AcDbEntity
100
AcDbLine
  8
0
 62
2
370
-1
  6
ByLayer
 10
-0.1113494690773916
 20
0.7923353358103052
 30
0.0
 11
-0.1080660402112977
 21
0.7928107666339175
 31
0.0
  0
LINE
  5
18A
100
AcDbEntity
100
AcDbLine
  8
0
 62
2
370
-1
  6
ByLayer
 10
-0.1080660402112977
 20
0.7928107666339175
 30
0.0
 11
-0.104643848567661
 21
0.793278787112893
 31
0.0
  0
LINE
  5
18B
100
AcDbEntity
100
AcDbLine
  8
0
 62
2
370
-1
  6
ByLayer
 10
-0.104643848567661
 20
0.793278787112893
 30
0.0
 11
-0.101093897921469
 21
0.793738549643524
 31
0.0
  0
LINE
  5
18C
100
AcDbEntity
100
AcDbLine
  8
0
 62
2
370
-1
  6
ByLayer
 10
-0.101093897921469
 20
0.793738549643524
 30
0.0
 11
-0.0974271920477093
 21
0.7941892066221037
 31
0.0
  0
LINE
  5
18D
100
AcDbEntity
100
AcDbLine
  8
0
 62
2
370
-1
  6
ByLayer
 10
-0.0974271920477093
 20
0.7941892066221037
 30
0.0
 11
-0.0936547347213696
 21
0.7946299104449244
 31
0.0
  0
LINE
  5
18E
100
AcDbEntity
100
AcDbLine
  8
0
 62
2
370
-1
  6
ByLayer
 10
-0.0936547347213696
 20
0.7946299104449244
 30
0.0
 11
-0.0897875297174375
 21
0.7950598135082788
 31
0.0
  0
LINE
  5
18F
100
AcDbEntity
100
AcDbLine
  8
0
 62
2
370
-1
  6
ByLayer
 10
-0.0897875297174375
 20
0.7950598135082788
 30
0.0
 11
-0.0858365808109005
 21
0.7954780682084598
 31
0.0
  0
LINE
  5
190
100
AcDbEntity
100
AcDbLine
  8
0
 62
2
370
-1
  6
ByLayer
 10
-0.0858365808109005
 20
0.7954780682084598
 30
0.0
 11
-0.0818128917767464
 21
0.7958838269417601
 31
0.0
  0
LINE
  5
191
100
AcDbEntity
100
AcDbLine
  8
0
 62
2
370
-1
  6
ByLayer
 10
-0.0818128917767464
 20
0.7958838269417601
 30
0.0
 11
-0.0777274663899626
 21
0.7962762421044725
 31
0.0
  0
LINE
  5
192
100
AcDbEntity
100
AcDbLine
  8
0
 62
2
370
-1
  6
ByLayer
 10
-0.0777274663899626
 20
0.7962762421044725
 30
0.0
 11
-0.073591308425537
 21
0.7966544660928895
 31
0.0
  0
LINE
  5
193
100
AcDbEntity
100
AcDbLine
  8
0
 62
2
370
-1
  6
ByLayer
 10
-0.073591308425537
 20
0.7966544660928895
 30
0.0
 11
-0.0694154216584569
 21
0.7970176513033037
 31
0.0
  0
LINE
  5
194
100
AcDbEntity
100
AcDbLine
  8
0
 62
2
370
-1
  6
ByLayer
 10
-0.0694154216584569
 20
0.7970176513033037
 30
0.0
 11
-0.0652108098637101
 21
0.7973649501320081
 31
0.0
  0
LINE
  5
195
100
AcDbEntity
100
AcDbLine
  8
0
 62
2
370
-1
  6
ByLayer
 10
-0.0652108098637101
 20
0.7973649501320081
 30
0.0
 11
-0.0609884768162842
 21
0.7976955149752954
 31
0.0
  0
LINE
  5
196
100
AcDbEntity
100
AcDbLine
  8
0
 62
2
370
-1
  6
ByLayer
 10
-0.0609884768162842
 20
0.7976955149752954
 30
0.0
 11
-0.0567594262911667
 21
0.7980084982294582
 31
0.0
  0
LINE
  5
197
100
AcDbEntity
100
AcDbLine
  8
0
 62
2
370
-1
  6
ByLayer
 10
-0.0567594262911667
 20
0.7980084982294582
 30
0.0
 11
-0.0525346620633454
 21
0.7983030522907894
 31
0.0
  0
LINE
  5
198
100
AcDbEntity
100
AcDbLine
  8
0
 62
2
370
-1
  6
ByLayer
 10
-0.0525346620633454
 20
0.7983030522907894
 30
0.0
 11
-0.0483251879078077
 21
0.7985783295555813
 31
0.0
  0
LINE
  5
199
100
AcDbEntity
100
AcDbLine
  8
0
 62
2
370
-1
  6
ByLayer
 10
-0.0483251879078077
 20
0.7985783295555813
 30
0.0
 11
-0.0441420075995414
 21
0.7988334824201269
 31
0.0
  0
LINE
  5
19A
100
AcDbEntity
100
AcDbLine
  8
0
 62
2
370
-1
  6
ByLayer
 10
-0.0441420075995414
 20
0.7988334824201269
 30
0.0
 11
-0.039996124913534
 21
0.799067663280719
 31
0.0
  0
LINE
  5
19B
100
AcDbEntity
100
AcDbLine
  8
0
 62
2
370
-1
  6
ByLayer
 10
-0.039996124913534
 20
0.799067663280719
 30
0.0
 11
-0.0358985436247732
 21
0.7992800245336501
 31
0.0
  0
LINE
  5
19C
100
AcDbEntity
100
AcDbLine
  8
0
 62
2
370
-1
  6
ByLayer
 10
-0.0358985436247732
 20
0.7992800245336501
 30
0.0
 11
-0.0318602675082465
 21
0.799469718575213
 31
0.0
  0
LINE
  5
19D
100
AcDbEntity
100
AcDbLine
  8
0
 62
2
370
-1
  6
ByLayer
 10
-0.0318602675082465
 20
0.799469718575213
 30
0.0
 11
-0.0278923003389417
 21
0.7996358978017004
 31
0.0
  0
LINE
  5
19E
100
AcDbEntity
100
AcDbLine
  8
0
 62
2
370
-1
  6
ByLayer
 10
-0.0278923003389417
 20
0.7996358978017004
 30
0.0
 11
-0.0240056458918462
 21
0.7997777146094051
 31
0.0
  0
LINE
  5
19F
100
AcDbEntity
100
AcDbLine
  8
0
 62
2
370
-1
  6
ByLayer
 10
-0.0240056458918462
 20
0.7997777146094051
 30
0.0
 11
-0.0202113079419477
 21
0.7998943213946197
 31
0.0
  0
LINE
  5
1A0
100
AcDbEntity
100
AcDbLine
  8
0
 62
2
370
-1
  6
ByLayer
 10
-0.0202113079419477
 20
0.7998943213946197
 30
0.0
 11
-0.0165202902642338
 21
0.7999848705536368
 31
0.0
  0
LINE
  5
1A1
100
AcDbEntity
100
AcDbLine
  8
0
 62
2
370
-1
  6
ByLayer
 10
-0.0165202902642338
 20
0.7999848705536368
 30
0.0
 11
-0.0129435966336922
 21
0.8000485144827495
 31
0.0
  0
LINE
  5
1A2
100
AcDbEntity
100
AcDbLine
  8
0
 62
2
370
-1
  6
ByLayer
 10
-0.0129435966336922
 20
0.8000485144827495
 30
0.0
 11
-0.0094922308253104
 21
0.80008440557825
 31
0.0
  0
LINE
  5
1A3
100
AcDbEntity
100
AcDbLine
  8
0
 62
2
370
-1
  6
ByLayer
 10
-0.0094922308253104
 20
0.80008440557825
 30
0.0
 11
-0.0061771966140761
 21
0.8000916962364314
 31
0.0
  0
LINE
  5
1A4
100
AcDbEntity
100
AcDbLine
  8
0
 62
2
370
-1
  6
ByLayer
 10
-0.0061771966140761
 20
0.8000916962364314
 30
0.0
 11
-0.0030094977749768
 21
0.8000695388535863
 31
0.0
  0
LINE
  5
1A5
100
AcDbEntity
100
AcDbLine
  8
0
 62
2
370
-1
  6
ByLayer
 10
-0.0030094977749768
 20
0.8000695388535863
 30
0.0
 11
-0.0000001380830002
 21
0.8000170858260075
 31
0.0
  0
LINE
  5
1A6
100
AcDbEntity
100
AcDbLine
  8
0
 62
2
370
-1
  6
ByLayer
 10
0.7999779229309993
 20
0.0000390248119953
 30
0.0
 11
0.8000306112433717
 21
-0.0029703357142917
 31
0.0
  0
LINE
  5
1A7
100
AcDbEntity
100
AcDbLine
  8
0
 62
2
370
-1
  6
ByLayer
 10
0.8000306112433717
 20
-0.0029703357142917
 30
0.0
 11
0.8000534431476056
 21
-0.0061380369450806
 31
0.0
  0
LINE
  5
1A8
100
AcDbEntity
100
AcDbLine
  8
0
 62
2
370
-1
  6
ByLayer
 10
0.8000534431476056
 20
-0.0061380369450806
 30
0.0
 11
0.8000472192479243
 21
-0.009453074938522
 31
0.0
  0
LINE
  5
1A9
100
AcDbEntity
100
AcDbLine
  8
0
 62
2
370
-1
  6
ByLayer
 10
0.8000472192479243
 20
-0.009453074938522
 30
0.0
 11
0.8000127401485516
 21
-0.0129044457527659
 31
0.0
  0
LINE
  5
1AA
100
AcDbEntity
100
AcDbLine
  8
0
 62
2
370
-1
  6
ByLayer
 10
0.8000127401485516
 20
-0.0129044457527659
 30
0.0
 11
0.799950806453711
 21
-0.0164811454459629
 31
0.0
  0
LINE
  5
1AB
100
AcDbEntity
100
AcDbLine
  8
0
 62
2
370
-1
  6
ByLayer
 10
0.799950806453711
 20
-0.0164811454459629
 30
0.0
 11
0.7998622187676262
 21
-0.0201721700762631
 31
0.0
  0
LINE
  5
1AC
100
AcDbEntity
100
AcDbLine
  8
0
 62
2
370
-1
  6
ByLayer
 10
0.7998622187676262
 20
-0.0201721700762631
 30
0.0
 11
0.7997477776945205
 21
-0.0239665157018169
 31
0.0
  0
LINE
  5
1AD
100
AcDbEntity
100
AcDbLine
  8
0
 62
2
370
-1
  6
ByLayer
 10
0.7997477776945205
 20
-0.0239665157018169
 30
0.0
 11
0.7996082838386177
 21
-0.0278531783807746
 31
0.0
  0
LINE
  5
1AE
100
AcDbEntity
100
AcDbLine
  8
0
 62
2
370
-1
  6
ByLayer
 10
0.7996082838386177
 20
-0.0278531783807746
 30
0.0
 11
0.799444537804141
 21
-0.0318211541712864
 31
0.0
  0
LINE
  5
1AF
100
AcDbEntity
100
AcDbLine
  8
0
 62
2
370
-1
  6
ByLayer
 10
0.799444537804141
 20
-0.0318211541712864
 30
0.0
 11
0.7992573401953141
 21
-0.0358594391315028
 31
0.0
  0
LINE
  5
1B0
100
AcDbEntity
100
AcDbLine
  8
0
 62
2
370
-1
  6
ByLayer
 10
0.7992573401953141
 20
-0.0358594391315028
 30
0.0
 11
0.7990474916163611
 21
-0.039957029319574
 31
0.0
  0
LINE
  5
1B1
100
AcDbEntity
100
AcDbLine
  8
0
 62
2
370
-1
  6
ByLayer
 10
0.7990474916163611
 20
-0.039957029319574
 30
0.0
 11
0.7988157926715049
 21
-0.0441029207936504
 31
0.0
  0
LINE
  5
1B2
100
AcDbEntity
100
AcDbLine
  8
0
 62
2
370
-1
  6
ByLayer
 10
0.7988157926715049
 20
-0.0441029207936504
 30
0.0
 11
0.7985630439649692
 21
-0.0482861096118822
 31
0.0
  0
LINE
  5
1B3
100
AcDbEntity
100
AcDbLine
  8
0
 62
2
370
-1
  6
ByLayer
 10
0.7985630439649692
 20
-0.0482861096118822
 30
0.0
 11
0.7982900461009778
 21
-0.0524955918324198
 31
0.0
  0
LINE
  5
1B4
100
AcDbEntity
100
AcDbLine
  8
0
 62
2
370
-1
  6
ByLayer
 10
0.7982900461009778
 20
-0.0524955918324198
 30
0.0
 11
0.7979975996837538
 21
-0.0567203635134134
 31
0.0
  0
LINE
  5
1B5
100
AcDbEntity
100
AcDbLine
  8
0
 62
2
370
-1
  6
ByLayer
 10
0.7979975996837538
 20
-0.0567203635134134
 30
0.0
 11
0.7976865053175213
 21
-0.0609494207130134
 31
0.0
  0
LINE
  5
1B6
100
AcDbEntity
100
AcDbLine
  8
0
 62
2
370
-1
  6
ByLayer
 10
0.7976865053175213
 20
-0.0609494207130134
 30
0.0
 11
0.7973575636065033
 21
-0.0651717594893701
 31
0.0
  0
LINE
  5
1B7
100
AcDbEntity
100
AcDbLine
  8
0
 62
2
370
-1
  6
ByLayer
 10
0.7973575636065033
 20
-0.0651717594893701
 30
0.0
 11
0.7970115751549239
 21
-0.0693763759006338
 31
0.0
  0
LINE
  5
1B8
100
AcDbEntity
100
AcDbLine
  8
0
 62
2
370
-1
  6
ByLayer
 10
0.7970115751549239
 20
-0.0693763759006338
 30
0.0
 11
0.7966493405670063
 21
-0.0735522660049548
 31
0.0
  0
LINE
  5
1B9
100
AcDbEntity
100
AcDbLine
  8
0
 62
2
370
-1
  6
ByLayer
 10
0.7966493405670063
 20
-0.0735522660049548
 30
0.0
 11
0.7962716604469743
 21
-0.0776884258604835
 31
0.0
  0
LINE
  5
1BA
100
AcDbEntity
100
AcDbLine
  8
0
 62
2
370
-1
  6
ByLayer
 10
0.7962716604469743
 20
-0.0776884258604835
 30
0.0
 11
0.7958793353990513
 21
-0.08177385152537
 31
0.0
  0
LINE
  5
1BB
100
AcDbEntity
100
AcDbLine
  8
0
 62
2
370
-1
  6
ByLayer
 10
0.7958793353990513
 20
-0.08177385152537
 30
0.0
 11
0.7954731660274607
 21
-0.0857975390577649
 31
0.0
  0
LINE
  5
1BC
100
AcDbEntity
100
AcDbLine
  8
0
 62
2
370
-1
  6
ByLayer
 10
0.7954731660274607
 20
-0.0857975390577649
 30
0.0
 11
0.7950539529364264
 21
-0.0897484845158182
 31
0.0
  0
LINE
  5
1BD
100
AcDbEntity
100
AcDbLine
  8
0
 62
2
370
-1
  6
ByLayer
 10
0.7950539529364264
 20
-0.0897484845158182
 30
0.0
 11
0.7946224967301717
 21
-0.0936156839576805
 31
0.0
  0
LINE
  5
1BE
100
AcDbEntity
100
AcDbLine
  8
0
 62
2
370
-1
  6
ByLayer
 10
0.7946224967301717
 20
-0.0936156839576805
 30
0.0
 11
0.7941795980129203
 21
-0.0973881334415019
 31
0.0
  0
LINE
  5
1BF
100
AcDbEntity
100
AcDbLine
  8
0
 62
2
370
-1
  6
ByLayer
 10
0.7941795980129203
 20
-0.0973881334415019
 30
0.0
 11
0.7937260573888956
 21
-0.1010548290254328
 31
0.0
  0
LINE
  5
1C0
100
AcDbEntity
100
AcDbLine
  8
0
 62
2
370
-1
  6
ByLayer
 10
0.7937260573888956
 20
-0.1010548290254328
 30
0.0
 11
0.7932626754623215
 21
-0.1046047667676235
 31
0.0
  0
LINE
  5
1C1
100
AcDbEntity
100
AcDbLine
  8
0
 62
2
370
-1
  6
ByLayer
 10
0.7932626754623215
 20
-0.1046047667676235
 30
0.0
 11
0.7927902528374211
 21
-0.1080269427262243
 31
0.0
  0
LINE
  5
1C2
100
AcDbEntity
100
AcDbLine
  8
0
 62
2
370
-1
  6
ByLayer
 10
0.7927902528374211
 20
-0.1080269427262243
 30
0.0
 11
0.7923095901184183
 21
-0.1113103529593855
 31
0.0
  0
LINE
  5
1C3
100
AcDbEntity
100
AcDbLine
  8
0
 62
2
370
-1
  6
ByLayer
 10
0.7923095901184183
 20
-0.1113103529593855
 30
0.0
 11
0.7918214879095365
 21
-0.1144439935252575
 31
0.0
  0
LINE
  5
1C4
100
AcDbEntity
100
AcDbLine
  8
0
 62
2
370
-1
  6
ByLayer
 10
0.7918214879095365
 20
-0.1144439935252575
 30
0.0
 11
0.7913267468149994
 21
-0.1174168604819906
 31
0.0
  0
LINE
  5
1C5
100
AcDbEntity
100
AcDbLine
  8
0
 62
2
370
-1
  6
ByLayer
 10
0.7913267468149994
 20
-0.1174168604819906
 30
0.0
 11
0.7911294768738137
 21
-0.1186075002018946
 31
0.0
  0
LINE
  5
1C6
100
AcDbEntity
100
AcDbLine
  8
0
 62
2
370
-1
  6
ByLayer
 10
0.7911294768738137
 20
-0.1186075002018946
 30
0.0
 11
0.7909895186593036
 21
-0.1198095829333817
 31
0.0
  0
LINE
  5
1C7
100
AcDbEntity
100
AcDbLine
  8
0
 62
2
370
-1
  6
ByLayer
 10
0.7909895186593036
 20
-0.1198095829333817
 30
0.0
 11
0.7909057890141358
 21
-0.121020926732372
 31
0.0
  0
LINE
  5
1C8
100
AcDbEntity
100
AcDbLine
  8
0
 62
2
370
-1
  6
ByLayer
 10
0.7909057890141358
 20
-0.121020926732372
 30
0.0
 11
0.7908772047809776
 21
-0.1222393496547855
 31
0.0
  0
LINE
  5
1C9
100
AcDbEntity
100
AcDbLine
  8
0
 62
2
370
-1
  6
ByLayer
 10
0.7908772047809776
 20
-0.1222393496547855
 30
0.0
 11
0.7909026828024964
 21
-0.1234626697565424
 31
0.0
  0
LINE
  5
1CA
100
AcDbEntity
100
AcDbLine
  8
0
 62
2
370
-1
  6
ByLayer
 10
0.7909026828024964
 20
-0.1234626697565424
 30
0.0
 11
0.7909811399213591
 21
-0.1246887050935629
 31
0.0
  0
LINE
  5
1CB
100
AcDbEntity
100
AcDbLine
  8
0
 62
2
370
-1
  6
ByLayer
 10
0.7909811399213591
 20
-0.1246887050935629
 30
0.0
 11
0.7911114929802326
 21
-0.1259152737217668
 31
0.0
  0
LINE
  5
1CC
100
AcDbEntity
100
AcDbLine
  8
0
 62
2
370
-1
  6
ByLayer
 10
0.7911114929802326
 20
-0.1259152737217668
 30
0.0
 11
0.7912926588217845
 21
-0.1271401936970745
 31
0.0
  0
LINE
  5
1CD
100
AcDbEntity
100
AcDbLine
  8
0
 62
2
370
-1
  6
ByLayer
 10
0.7912926588217845
 20
-0.1271401936970745
 30
0.0
 11
0.7915235542886815
 21
-0.1283612830754061
 31
0.0
  0
LINE
  5
1CE
100
AcDbEntity
100
AcDbLine
  8
0
 62
2
370
-1
  6
ByLayer
 10
0.7915235542886815
 20
-0.1283612830754061
 30
0.0
 11
0.7918030962235907
 21
-0.1295763599126815
 31
0.0
  0
LINE
  5
1CF
100
AcDbEntity
100
AcDbLine
  8
0
 62
2
370
-1
  6
ByLayer
 10
0.7918030962235907
 20
-0.1295763599126815
 30
0.0
 11
0.7921302014691796
 21
-0.1307832422648209
 31
0.0
  0
LINE
  5
1D0
100
AcDbEntity
100
AcDbLine
  8
0
 62
2
370
-1
  6
ByLayer
 10
0.7921302014691796
 20
-0.1307832422648209
 30
0.0
 11
0.792503786868115
 21
-0.1319797481877444
 31
0.0
  0
LINE
  5
1D1
100
AcDbEntity
100
AcDbLine
  8
0
 62
2
370
-1
  6
ByLayer
 10
0.792503786868115
 20
-0.1319797481877444
 30
0.0
 11
0.792922769263064
 21
-0.1331636957373722
 31
0.0
  0
LINE
  5
1D2
100
AcDbEntity
100
AcDbLine
  8
0
 62
2
370
-1
  6
ByLayer
 10
0.792922769263064
 20
-0.1331636957373722
 30
0.0
 11
0.793386065496694
 21
-0.1343329029696243
 31
0.0
  0
LINE
  5
1D3
100
AcDbEntity
100
AcDbLine
  8
0
 62
2
370
-1
  6
ByLayer
 10
0.793386065496694
 20
-0.1343329029696243
 30
0.0
 11
0.7938925924116719
 21
-0.1354851879404208
 31
0.0
  0
LINE
  5
1D4
100
AcDbEntity
100
AcDbLine
  8
0
 62
2
370
-1
  6
ByLayer
 10
0.7938925924116719
 20
-0.1354851879404208
 30
0.0
 11
0.7944412668506646
 21
-0.1366183687056819
 31
0.0
  0
LINE
  5
1D5
100
AcDbEntity
100
AcDbLine
  8
0
 62
2
370
-1
  6
ByLayer
 10
0.7944412668506646
 20
-0.1366183687056819
 30
0.0
 11
0.7950310056563397
 21
-0.1377302633213275
 31
0.0
  0
LINE
  5
1D6
100
AcDbEntity
100
AcDbLine
  8
0
 62
2
370
-1
  6
ByLayer
 10
0.7950310056563397
 20
-0.1377302633213275
 30
0.0
 11
0.7956607256713639
 21
-0.138818689843278
 31
0.0
  0
LINE
  5
1D7
100
AcDbEntity
100
AcDbLine
  8
0
 62
2
370
-1
  6
ByLayer
 10
0.7956607256713639
 20
-0.138818689843278
 30
0.0
 11
0.7963293437384047
 21
-0.1398814663274532
 31
0.0
  0
LINE
  5
1D8
100
AcDbEntity
100
AcDbLine
  8
0
 62
2
370
-1
  6
ByLayer
 10
0.7963293437384047
 20
-0.1398814663274532
 30
0.0
 11
0.7970357767001288
 21
-0.1409164108297735
 31
0.0
  0
LINE
  5
1D9
100
AcDbEntity
100
AcDbLine
  8
0
 62
2
370
-1
  6
ByLayer
 10
0.7970357767001288
 20
-0.1409164108297735
 30
0.0
 11
0.7977789413992036
 21
-0.1419213414061588
 31
0.0
  0
LINE
  5
1DA
100
AcDbEntity
100
AcDbLine
  8
0
 62
2
370
-1
  6
ByLayer
 10
0.7977789413992036
 20
-0.1419213414061588
 30
0.0
 11
0.798557754678296
 21
-0.1428940761125292
 31
0.0
  0
LINE
  5
1DB
100
AcDbEntity
100
AcDbLine
  8
0
 62
2
370
-1
  6
ByLayer
 10
0.798557754678296
 20
-0.1428940761125292
 30
0.0
 11
0.7993711333800733
 21
-0.1438324330048049
 31
0.0
  0
LINE
  5
1DC
100
AcDbEntity
100
AcDbLine
  8
0
 62
2
370
-1
  6
ByLayer
 10
0.7993711333800733
 20
-0.1438324330048049
 30
0.0
 11
0.8002179943472025
 21
-0.144734230138906
 31
0.0
  0
LINE
  5
1DD
100
AcDbEntity
100
AcDbLine
  8
0
 62
2
370
-1
  6
ByLayer
 10
0.8002179943472025
 20
-0.144734230138906
 30
0.0
 11
0.8010972544223509
 21
-0.1455972855707525
 31
0.0
  0
LINE
  5
1DE
100
AcDbEntity
100
AcDbLine
  8
0
 62
2
370
-1
  6
ByLayer
 10
0.8010972544223509
 20
-0.1455972855707525
 30
0.0
 11
0.8020078304481852
 21
-0.1464194173562646
 31
0.0
  0
LINE
  5
1DF
100
AcDbEntity
100
AcDbLine
  8
0
 62
2
370
-1
  6
ByLayer
 10
0.8020078304481852
 20
-0.1464194173562646
 30
0.0
 11
0.8029486392673733
 21
-0.1471984435513625
 31
0.0
  0
LINE
  5
1E0
100
AcDbEntity
100
AcDbLine
  8
0
 62
2
370
-1
  6
ByLayer
 10
0.8029486392673733
 20
-0.1471984435513625
 30
0.0
 11
0.8039185977225813
 21
-0.147932182211966
 31
0.0
  0
LINE
  5
1E1
100
AcDbEntity
100
AcDbLine
  8
0
 62
2
370
-1
  6
ByLayer
 10
0.8039185977225813
 20
-0.147932182211966
 30
0.0
 11
0.804916622656477
 21
-0.1486184513939955
 31
0.0
  0
LINE
  5
1E2
100
AcDbEntity
100
AcDbLine
  8
0
 62
2
370
-1
  6
ByLayer
 10
0.804916622656477
 20
-0.1486184513939955
 30
0.0
 11
0.8059416309117274
 21
-0.149255069153371
 31
0.0
  0
LINE
  5
1E3
100
AcDbEntity
100
AcDbLine
  8
0
 62
2
370
-1
  6
ByLayer
 10
0.8059416309117274
 20
-0.149255069153371
 30
0.0
 11
0.8069925393309996
 21
-0.1498398535460126
 31
0.0
  0
LINE
  5
1E4
100
AcDbEntity
100
AcDbLine
  8
0
 62
2
370
-1
  6
ByLayer
 10
-1.4925544742130008
 20
-0.5456981311080089
 30
0.0
 11
-0.8069928154970004
 21
-0.1498398535460124
 31
0.0
  0
LINE
  5
1E5
100
AcDbEntity
100
AcDbLine
  8
0
 62
2
370
-1
  6
ByLayer
 10
1.4925544742129992
 20
-0.5456981311080101
 30
0.0
 11
1.4929425786887429
 21
-0.5459450297971487
 31
0.0
  0
LINE
  5
1E6
100
AcDbEntity
100
AcDbLine
  8
0
 62
2
370
-1
  6
ByLayer
 10
1.4929425786887429
 20
-0.5459450297971487
 30
0.0
 11
1.4933517801481322
 21
-0.5461877228389925
 31
0.0
  0
LINE
  5
1E7
100
AcDbEntity
100
AcDbLine
  8
0
 62
2
370
-1
  6
ByLayer
 10
1.4933517801481322
 20
-0.5461877228389925
 30
0.0
 11
1.493780791472761
 21
-0.5464258961991216
 31
0.0
  0
LINE
  5
1E8
100
AcDbEntity
100
AcDbLine
  8
0
 62
2
370
-1
  6
ByLayer
 10
1.493780791472761
 20
-0.5464258961991216
 30
0.0
 11
1.4942283255442237
 21
-0.5466592358431153
 31
0.0
  0
LINE
  5
1E9
100
AcDbEntity
100
AcDbLine
  8
0
 62
2
370
-1
  6
ByLayer
 10
1.4942283255442237
 20
-0.5466592358431153
 30
0.0
 11
1.4946930952441142
 21
-0.5468874277365534
 31
0.0
  0
LINE
  5
1EA
100
AcDbEntity
100
AcDbLine
  8
0
 62
2
370
-1
  6
ByLayer
 10
1.4946930952441142
 20
-0.5468874277365534
 30
0.0
 11
1.4951738134540264
 21
-0.5471101578450158
 31
0.0
  0
LINE
  5
1EB
100
AcDbEntity
100
AcDbLine
  8
0
 62
2
370
-1
  6
ByLayer
 10
1.4951738134540264
 20
-0.5471101578450158
 30
0.0
 11
1.4956691930555537
 21
-0.547327112134082
 31
0.0
  0
LINE
  5
1EC
100
AcDbEntity
100
AcDbLine
  8
0
 62
2
370
-1
  6
ByLayer
 10
1.4956691930555537
 20
-0.547327112134082
 30
0.0
 11
1.4961779469302907
 21
-0.5475379765693317
 31
0.0
  0
LINE
  5
1ED
100
AcDbEntity
100
AcDbLine
  8
0
 62
2
370
-1
  6
ByLayer
 10
1.4961779469302907
 20
-0.5475379765693317
 30
0.0
 11
1.4966987879598304
 21
-0.5477424371163445
 31
0.0
  0
LINE
  5
1EE
100
AcDbEntity
100
AcDbLine
  8
0
 62
2
370
-1
  6
ByLayer
 10
1.4966987879598304
 20
-0.5477424371163445
 30
0.0
 11
1.4972304290257679
 21
-0.5479401797407001
 31
0.0
  0
LINE
  5
1EF
100
AcDbEntity
100
AcDbLine
  8
0
 62
2
370
-1
  6
ByLayer
 10
1.4972304290257679
 20
-0.5479401797407001
 30
0.0
 11
1.4977715830096965
 21
-0.5481308904079785
 31
0.0
  0
LINE
  5
1F0
100
AcDbEntity
100
AcDbLine
  8
0
 62
2
370
-1
  6
ByLayer
 10
1.4977715830096965
 20
-0.5481308904079785
 30
0.0
 11
1.4983209627932095
 21
-0.548314255083759
 31
0.0
  0
LINE
  5
1F1
100
AcDbEntity
100
AcDbLine
  8
0
 62
2
370
-1
  6
ByLayer
 10
1.4983209627932095
 20
-0.548314255083759
 30
0.0
 11
1.4988772812579017
 21
-0.5484899597336215
 31
0.0
  0
LINE
  5
1F2
100
AcDbEntity
100
AcDbLine
  8
0
 62
2
370
-1
  6
ByLayer
 10
1.4988772812579017
 20
-0.5484899597336215
 30
0.0
 11
1.4994392512853667
 21
-0.5486576903231454
 31
0.0
  0
LINE
  5
1F3
100
AcDbEntity
100
AcDbLine
  8
0
 62
2
370
-1
  6
ByLayer
 10
1.4994392512853667
 20
-0.5486576903231454
 30
0.0
 11
1.5000055857571983
 21
-0.5488171328179107
 31
0.0
  0
LINE
  5
1F4
100
AcDbEntity
100
AcDbLine
  8
0
 62
2
370
-1
  6
ByLayer
 10
1.5000055857571983
 20
-0.5488171328179107
 30
0.0
 11
1.5005749975549907
 21
-0.5489679731834969
 31
0.0
  0
LINE
  5
1F5
100
AcDbEntity
100
AcDbLine
  8
0
 62
2
370
-1
  6
ByLayer
 10
1.5005749975549907
 20
-0.5489679731834969
 30
0.0
 11
1.5011461995603372
 21
-0.5491098973854838
 31
0.0
  0
LINE
  5
1F6
100
AcDbEntity
100
AcDbLine
  8
0
 62
2
370
-1
  6
ByLayer
 10
1.5011461995603372
 20
-0.5491098973854838
 30
0.0
 11
1.5017179046548326
 21
-0.549242591389451
 31
0.0
  0
LINE
  5
1F7
100
AcDbEntity
100
AcDbLine
  8
0
 62
2
370
-1
  6
ByLayer
 10
1.5017179046548326
 20
-0.549242591389451
 30
0.0
 11
1.5022888257200699
 21
-0.549365741160978
 31
0.0
  0
LINE
  5
1F8
100
AcDbEntity
100
AcDbLine
  8
0
 62
2
370
-1
  6
ByLayer
 10
1.5022888257200699
 20
-0.549365741160978
 30
0.0
 11
1.5028576756376433
 21
-0.5494790326656448
 31
0.0
  0
LINE
  5
1F9
100
AcDbEntity
100
AcDbLine
  8
0
 62
2
370
-1
  6
ByLayer
 10
1.5028576756376433
 20
-0.5494790326656448
 30
0.0
 11
1.5034231672891474
 21
-0.5495821518690311
 31
0.0
  0
LINE
  5
1FA
100
AcDbEntity
100
AcDbLine
  8
0
 62
2
370
-1
  6
ByLayer
 10
1.5034231672891474
 20
-0.5495821518690311
 30
0.0
 11
1.5039840135561753
 21
-0.5496747847367163
 31
0.0
  0
LINE
  5
1FB
100
AcDbEntity
100
AcDbLine
  8
0
 62
2
370
-1
  6
ByLayer
 10
1.5039840135561753
 20
-0.5496747847367163
 30
0.0
 11
1.5045389273203207
 21
-0.5497566172342803
 31
0.0
  0
LINE
  5
1FC
100
AcDbEntity
100
AcDbLine
  8
0
 62
2
370
-1
  6
ByLayer
 10
1.5045389273203207
 20
-0.5497566172342803
 30
0.0
 11
1.5050866214631782
 21
-0.5498273353273025
 31
0.0
  0
LINE
  5
1FD
100
AcDbEntity
100
AcDbLine
  8
0
 62
2
370
-1
  6
ByLayer
 10
1.5050866214631782
 20
-0.5498273353273025
 30
0.0
 11
1.5056258088663412
 21
-0.549886624981363
 31
0.0
  0
LINE
  5
1FE
100
AcDbEntity
100
AcDbLine
  8
0
 62
2
370
-1
  6
ByLayer
 10
1.5056258088663412
 20
-0.549886624981363
 30
0.0
 11
1.5061552024114042
 21
-0.5499341721620411
 31
0.0
  0
LINE
  5
1FF
100
AcDbEntity
100
AcDbLine
  8
0
 62
2
370
-1
  6
ByLayer
 10
1.5061552024114042
 20
-0.5499341721620411
 30
0.0
 11
1.5066735149799608
 21
-0.5499696628349168
 31
0.0
  0
LINE
  5
200
100
AcDbEntity
100
AcDbLine
  8
0
 62
2
370
-1
  6
ByLayer
 10
1.5066735149799608
 20
-0.5499696628349168
 30
0.0
 11
1.5071794594536045
 21
-0.5499927829655695
 31
0.0
  0
LINE
  5
201
100
AcDbEntity
100
AcDbLine
  8
0
 62
2
370
-1
  6
ByLayer
 10
1.5071794594536045
 20
-0.5499927829655695
 30
0.0
 11
1.5076717487139297
 21
-0.5500032185195789
 31
0.0
  0
LINE
  5
202
100
AcDbEntity
100
AcDbLine
  8
0
 62
2
370
-1
  6
ByLayer
 10
1.5076717487139297
 20
-0.5500032185195789
 30
0.0
 11
1.5081490956425301
 21
-0.550000655462525
 31
0.0
  0
LINE
  5
203
100
AcDbEntity
100
AcDbLine
  8
0
 62
2
370
-1
  6
ByLayer
 10
1.5081490956425301
 20
-0.550000655462525
 30
0.0
 11
1.5086102131209997
 21
-0.5499847797599872
 31
0.0
  0
LINE
  5
204
100
AcDbEntity
100
AcDbLine
  8
0
 62
2
370
-1
  6
ByLayer
 10
0.8069925393309996
 20
-0.1498398535460126
 30
0.0
 11
1.4925544742129992
 21
-0.5456981311080101
 31
0.0
  0
LINE
  5
205
100
AcDbEntity
100
AcDbLine
  8
0
 62
2
370
-1
  6
ByLayer
 10
1.8430513816109995
 20
-0.5499847797599874
 30
0.0
 11
1.8447454126572473
 21
-0.5499403795887243
 31
0.0
  0
LINE
  5
206
100
AcDbEntity
100
AcDbLine
  8
0
 62
2
370
-1
  6
ByLayer
 10
1.8447454126572473
 20
-0.5499403795887243
 30
0.0
 11
1.846416777215196
 21
-0.5498086546547821
 31
0.0
  0
LINE
  5
207
100
AcDbEntity
100
AcDbLine
  8
0
 62
2
370
-1
  6
ByLayer
 10
1.846416777215196
 20
-0.5498086546547821
 30
0.0
 11
1.8480632462300399
 21
-0.5495918183279305
 31
0.0
  0
LINE
  5
208
100
AcDbEntity
100
AcDbLine
  8
0
 62
2
370
-1
  6
ByLayer
 10
1.8480632462300399
 20
-0.5495918183279305
 30
0.0
 11
1.8496825906469749
 21
-0.54929208397794
 31
0.0
  0
LINE
  5
209
100
AcDbEntity
100
AcDbLine
  8
0
 62
2
370
-1
  6
ByLayer
 10
1.8496825906469749
 20
-0.54929208397794
 30
0.0
 11
1.8512725814111948
 21
-0.548911664974581
 31
0.0
  0
LINE
  5
20A
100
AcDbEntity
100
AcDbLine
  8
0
 62
2
370
-1
  6
ByLayer
 10
1.8512725814111948
 20
-0.548911664974581
 30
0.0
 11
1.8528309894678965
 21
-0.5484527746876235
 31
0.0
  0
LINE
  5
20B
100
AcDbEntity
100
AcDbLine
  8
0
 62
2
370
-1
  6
ByLayer
 10
1.8528309894678965
 20
-0.5484527746876235
 30
0.0
 11
1.8543555857622733
 21
-0.5479176264868376
 31
0.0
  0
LINE
  5
20C
100
AcDbEntity
100
AcDbLine
  8
0
 62
2
370
-1
  6
ByLayer
 10
1.8543555857622733
 20
-0.5479176264868376
 30
0.0
 11
1.855844141239521
 21
-0.5473084337419936
 31
0.0
  0
LINE
  5
20D
100
AcDbEntity
100
AcDbLine
  8
0
 62
2
370
-1
  6
ByLayer
 10
1.855844141239521
 20
-0.5473084337419936
 30
0.0
 11
1.8572944268448341
 21
-0.5466274098228615
 31
0.0
  0
LINE
  5
20E
100
AcDbEntity
100
AcDbLine
  8
0
 62
2
370
-1
  6
ByLayer
 10
1.8572944268448341
 20
-0.5466274098228615
 30
0.0
 11
1.8587042135234078
 21
-0.5458767680992118
 31
0.0
  0
LINE
  5
20F
100
AcDbEntity
100
AcDbLine
  8
0
 62
2
370
-1
  6
ByLayer
 10
1.8587042135234078
 20
-0.5458767680992118
 30
0.0
 11
1.8600712722204376
 21
-0.5450587219408147
 31
0.0
  0
LINE
  5
210
100
AcDbEntity
100
AcDbLine
  8
0
 62
2
370
-1
  6
ByLayer
 10
1.8600712722204376
 20
-0.5450587219408147
 30
0.0
 11
1.8613933738811177
 21
-0.54417548471744
 31
0.0
  0
LINE
  5
211
100
AcDbEntity
100
AcDbLine
  8
0
 62
2
370
-1
  6
ByLayer
 10
1.8613933738811177
 20
-0.54417548471744
 30
0.0
 11
1.8626682894506434
 21
-0.5432292697988582
 31
0.0
  0
LINE
  5
212
100
AcDbEntity
100
AcDbLine
  8
0
 62
2
370
-1
  6
ByLayer
 10
1.8626682894506434
 20
-0.5432292697988582
 30
0.0
 11
1.8638937898742101
 21
-0.5422222905548396
 31
0.0
  0
LINE
  5
213
100
AcDbEntity
100
AcDbLine
  8
0
 62
2
370
-1
  6
ByLayer
 10
1.8638937898742101
 20
-0.5422222905548396
 30
0.0
 11
1.8650676460970119
 21
-0.5411567603551541
 31
0.0
  0
LINE
  5
214
100
AcDbEntity
100
AcDbLine
  8
0
 62
2
370
-1
  6
ByLayer
 10
1.8650676460970119
 20
-0.5411567603551541
 30
0.0
 11
1.8661876290642445
 21
-0.5400348925695722
 31
0.0
  0
LINE
  5
215
100
AcDbEntity
100
AcDbLine
  8
0
 62
2
370
-1
  6
ByLayer
 10
1.8661876290642445
 20
-0.5400348925695722
 30
0.0
 11
1.8672515097211027
 21
-0.5388589005678638
 31
0.0
  0
LINE
  5
216
100
AcDbEntity
100
AcDbLine
  8
0
 62
2
370
-1
  6
ByLayer
 10
1.8672515097211027
 20
-0.5388589005678638
 30
0.0
 11
1.8682570590127816
 21
-0.5376309977197992
 31
0.0
  0
LINE
  5
217
100
AcDbEntity
100
AcDbLine
  8
0
 62
2
370
-1
  6
ByLayer
 10
1.8682570590127816
 20
-0.5376309977197992
 30
0.0
 11
1.8692020478844757
 21
-0.5363533973951486
 31
0.0
  0
LINE
  5
218
100
AcDbEntity
100
AcDbLine
  8
0
 62
2
370
-1
  6
ByLayer
 10
1.8692020478844757
 20
-0.5363533973951486
 30
0.0
 11
1.8700842472813806
 21
-0.5350283129636823
 31
0.0
  0
LINE
  5
219
100
AcDbEntity
100
AcDbLine
  8
0
 62
2
370
-1
  6
ByLayer
 10
1.8700842472813806
 20
-0.5350283129636823
 30
0.0
 11
1.8709014281486913
 21
-0.5336579577951703
 31
0.0
  0
LINE
  5
21A
100
AcDbEntity
100
AcDbLine
  8
0
 62
2
370
-1
  6
ByLayer
 10
1.8709014281486913
 20
-0.5336579577951703
 30
0.0
 11
1.8716513614316024
 21
-0.5322445452593831
 31
0.0
  0
LINE
  5
21B
100
AcDbEntity
100
AcDbLine
  8
0
 62
2
370
-1
  6
ByLayer
 10
1.8716513614316024
 20
-0.5322445452593831
 30
0.0
 11
1.8723318180753088
 21
-0.5307902887260906
 31
0.0
  0
LINE
  5
21C
100
AcDbEntity
100
AcDbLine
  8
0
 62
2
370
-1
  6
ByLayer
 10
1.8723318180753088
 20
-0.5307902887260906
 30
0.0
 11
1.8729405690250061
 21
-0.529297401565063
 31
0.0
  0
LINE
  5
21D
100
AcDbEntity
100
AcDbLine
  8
0
 62
2
370
-1
  6
ByLayer
 10
1.8729405690250061
 20
-0.529297401565063
 30
0.0
 11
1.8734753852258883
 21
-0.5277680971460706
 31
0.0
  0
LINE
  5
21E
100
AcDbEntity
100
AcDbLine
  8
0
 62
2
370
-1
  6
ByLayer
 10
1.8734753852258883
 20
-0.5277680971460706
 30
0.0
 11
1.8739340376231515
 21
-0.5262045888388837
 31
0.0
  0
LINE
  5
21F
100
AcDbEntity
100
AcDbLine
  8
0
 62
2
370
-1
  6
ByLayer
 10
1.8739340376231515
 20
-0.5262045888388837
 30
0.0
 11
1.8743142971619902
 21
-0.5246090900132724
 31
0.0
  0
LINE
  5
220
100
AcDbEntity
100
AcDbLine
  8
0
 62
2
370
-1
  6
ByLayer
 10
1.8743142971619902
 20
-0.5246090900132724
 30
0.0
 11
1.8746139347875994
 21
-0.5229838140390067
 31
0.0
  0
LINE
  5
221
100
AcDbEntity
100
AcDbLine
  8
0
 62
2
370
-1
  6
ByLayer
 10
1.8746139347875994
 20
-0.5229838140390067
 30
0.0
 11
1.8748307214451738
 21
-0.521330974285857
 31
0.0
  0
LINE
  5
222
100
AcDbEntity
100
AcDbLine
  8
0
 62
2
370
-1
  6
ByLayer
 10
1.8748307214451738
 20
-0.521330974285857
 30
0.0
 11
1.8749624280799089
 21
-0.5196527841235935
 31
0.0
  0
LINE
  5
223
100
AcDbEntity
100
AcDbLine
  8
0
 62
2
370
-1
  6
ByLayer
 10
1.8749624280799089
 20
-0.5196527841235935
 30
0.0
 11
1.8750068256369996
 21
-0.5179514569219864
 31
0.0
  0
LINE
  5
224
100
AcDbEntity
100
AcDbLine
  8
0
 62
2
370
-1
  6
ByLayer
 10
1.5086102131209997
 20
-0.5499847797599872
 30
0.0
 11
1.8430513816109995
 21
-0.5499847797599874
 31
0.0
  0
LINE
  5
225
100
AcDbEntity
100
AcDbLine
  8
0
 62
2
370
-1
  6
ByLayer
 10
1.8750068256369998
 20
0.1099348658559903
 30
0.0
 11
1.8750357329614808
 21
0.1109586365879503
 31
0.0
  0
LINE
  5
226
100
AcDbEntity
100
AcDbLine
  8
0
 62
2
370
-1
  6
ByLayer
 10
1.8750357329614808
 20
0.1109586365879503
 30
0.0
 11
1.8750175778952238
 21
0.1119921705310102
 31
0.0
  0
LINE
  5
227
100
AcDbEntity
100
AcDbLine
  8
0
 62
2
370
-1
  6
ByLayer
 10
1.8750175778952238
 20
0.1119921705310102
 30
0.0
 11
1.8749534750768726
 21
0.1130335526091644
 31
0.0
  0
LINE
  5
228
100
AcDbEntity
100
AcDbLine
  8
0
 62
2
370
-1
  6
ByLayer
 10
1.8749534750768726
 20
0.1130335526091644
 30
0.0
 11
1.8748445391450712
 21
0.1140808677464078
 31
0.0
  0
LINE
  5
229
100
AcDbEntity
100
AcDbLine
  8
0
 62
2
370
-1
  6
ByLayer
 10
1.8748445391450712
 20
0.1140808677464078
 30
0.0
 11
1.874691884738463
 21
0.1151322008667348
 31
0.0
  0
LINE
  5
22A
100
AcDbEntity
100
AcDbLine
  8
0
 62
2
370
-1
  6
ByLayer
 10
1.874691884738463
 20
0.1151322008667348
 30
0.0
 11
1.8744966264956928
 21
0.1161856368941402
 31
0.0
  0
LINE
  5
22B
100
AcDbEntity
100
AcDbLine
  8
0
 62
2
370
-1
  6
ByLayer
 10
1.8744966264956928
 20
0.1161856368941402
 30
0.0
 11
1.8742598790554037
 21
0.1172392607526185
 31
0.0
  0
LINE
  5
22C
100
AcDbEntity
100
AcDbLine
  8
0
 62
2
370
-1
  6
ByLayer
 10
1.8742598790554037
 20
0.1172392607526185
 30
0.0
 11
1.8739827570562402
 21
0.1182911573661643
 31
0.0
  0
LINE
  5
22D
100
AcDbEntity
100
AcDbLine
  8
0
 62
2
370
-1
  6
ByLayer
 10
1.8739827570562402
 20
0.1182911573661643
 30
0.0
 11
1.8736663751368459
 21
0.1193394116587723
 31
0.0
  0
LINE
  5
22E
100
AcDbEntity
100
AcDbLine
  8
0
 62
2
370
-1
  6
ByLayer
 10
1.8736663751368459
 20
0.1193394116587723
 30
0.0
 11
1.8733118479358644
 21
0.1203821085544371
 31
0.0
  0
LINE
  5
22F
100
AcDbEntity
100
AcDbLine
  8
0
 62
2
370
-1
  6
ByLayer
 10
1.8733118479358644
 20
0.1203821085544371
 30
0.0
 11
1.8729202900919402
 21
0.1214173329771533
 31
0.0
  0
LINE
  5
230
100
AcDbEntity
100
AcDbLine
  8
0
 62
2
370
-1
  6
ByLayer
 10
1.8729202900919402
 20
0.1214173329771533
 30
0.0
 11
1.8724928162437169
 21
0.1224431698509156
 31
0.0
  0
LINE
  5
231
100
AcDbEntity
100
AcDbLine
  8
0
 62
2
370
-1
  6
ByLayer
 10
1.8724928162437169
 20
0.1224431698509156
 30
0.0
 11
1.8720305410298379
 21
0.1234577040997186
 31
0.0
  0
LINE
  5
232
100
AcDbEntity
100
AcDbLine
  8
0
 62
2
370
-1
  6
ByLayer
 10
1.8720305410298379
 20
0.1234577040997186
 30
0.0
 11
1.8715345790889479
 21
0.1244590206475568
 31
0.0
  0
LINE
  5
233
100
AcDbEntity
100
AcDbLine
  8
0
 62
2
370
-1
  6
ByLayer
 10
1.8715345790889479
 20
0.1244590206475568
 30
0.0
 11
1.8710060450596901
 21
0.1254452044184249
 31
0.0
  0
LINE
  5
234
100
AcDbEntity
100
AcDbLine
  8
0
 62
2
370
-1
  6
ByLayer
 10
1.8710060450596901
 20
0.1254452044184249
 30
0.0
 11
1.870446053580709
 21
0.1264143403363175
 31
0.0
  0
LINE
  5
235
100
AcDbEntity
100
AcDbLine
  8
0
 62
2
370
-1
  6
ByLayer
 10
1.870446053580709
 20
0.1264143403363175
 30
0.0
 11
1.869855719290648
 21
0.1273645133252293
 31
0.0
  0
LINE
  5
236
100
AcDbEntity
100
AcDbLine
  8
0
 62
2
370
-1
  6
ByLayer
 10
1.869855719290648
 20
0.1273645133252293
 30
0.0
 11
1.8692361568281513
 21
0.1282938083091548
 31
0.0
  0
LINE
  5
237
100
AcDbEntity
100
AcDbLine
  8
0
 62
2
370
-1
  6
ByLayer
 10
1.8692361568281513
 20
0.1282938083091548
 30
0.0
 11
1.8685884808318627
 21
0.1292003102120887
 31
0.0
  0
LINE
  5
238
100
AcDbEntity
100
AcDbLine
  8
0
 62
2
370
-1
  6
ByLayer
 10
1.8685884808318627
 20
0.1292003102120887
 30
0.0
 11
1.8679138059404257
 21
0.1300821039580257
 31
0.0
  0
LINE
  5
239
100
AcDbEntity
100
AcDbLine
  8
0
 62
2
370
-1
  6
ByLayer
 10
1.8679138059404257
 20
0.1300821039580257
 30
0.0
 11
1.8672132467924847
 21
0.1309372744709603
 31
0.0
  0
LINE
  5
23A
100
AcDbEntity
100
AcDbLine
  8
0
 62
2
370
-1
  6
ByLayer
 10
1.8672132467924847
 20
0.1309372744709603
 30
0.0
 11
1.8664879180266833
 21
0.1317639066748871
 31
0.0
  0
LINE
  5
23B
100
AcDbEntity
100
AcDbLine
  8
0
 62
2
370
-1
  6
ByLayer
 10
1.8664879180266833
 20
0.1317639066748871
 30
0.0
 11
1.8657389342816659
 21
0.1325600854938008
 31
0.0
  0
LINE
  5
23C
100
AcDbEntity
100
AcDbLine
  8
0
 62
2
370
-1
  6
ByLayer
 10
1.8657389342816659
 20
0.1325600854938008
 30
0.0
 11
1.8649674101960756
 21
0.133323895851696
 31
0.0
  0
LINE
  5
23D
100
AcDbEntity
100
AcDbLine
  8
0
 62
2
370
-1
  6
ByLayer
 10
1.8649674101960756
 20
0.133323895851696
 30
0.0
 11
1.8641744604085564
 21
0.1340534226725673
 31
0.0
  0
LINE
  5
23E
100
AcDbEntity
100
AcDbLine
  8
0
 62
2
370
-1
  6
ByLayer
 10
1.8641744604085564
 20
0.1340534226725673
 30
0.0
 11
1.863361199557753
 21
0.1347467508804093
 31
0.0
  0
LINE
  5
23F
100
AcDbEntity
100
AcDbLine
  8
0
 62
2
370
-1
  6
ByLayer
 10
1.863361199557753
 20
0.1347467508804093
 30
0.0
 11
1.8625287422823085
 21
0.1354019653992167
 31
0.0
  0
LINE
  5
240
100
AcDbEntity
100
AcDbLine
  8
0
 62
2
370
-1
  6
ByLayer
 10
1.8625287422823085
 20
0.1354019653992167
 30
0.0
 11
1.8616782032208672
 21
0.136017151152984
 31
0.0
  0
LINE
  5
241
100
AcDbEntity
100
AcDbLine
  8
0
 62
2
370
-1
  6
ByLayer
 10
1.8616782032208672
 20
0.136017151152984
 30
0.0
 11
1.8608106970120724
 21
0.136590393065706
 31
0.0
  0
LINE
  5
242
100
AcDbEntity
100
AcDbLine
  8
0
 62
2
370
-1
  6
ByLayer
 10
1.8608106970120724
 20
0.136590393065706
 30
0.0
 11
1.8599273382945689
 21
0.1371197760613772
 31
0.0
  0
LINE
  5
243
100
AcDbEntity
100
AcDbLine
  8
0
 62
2
370
-1
  6
ByLayer
 10
1.8599273382945689
 20
0.1371197760613772
 30
0.0
 11
1.8590292417069998
 21
0.1376033850639922
 31
0.0
  0
LINE
  5
244
100
AcDbEntity
100
AcDbLine
  8
0
 62
2
370
-1
  6
ByLayer
 10
1.8750068256369996
 20
-0.5179514569219864
 30
0.0
 11
1.8750068256369998
 21
0.1099348658559903
 31
0.0
  0
LINE
  5
245
100
AcDbEntity
100
AcDbLine
  8
0
 62
2
370
-1
  6
ByLayer
 10
1.248523702305
 20
0.4900489197579904
 30
0.0
 11
1.2472705910196349
 21
0.4907879144070125
 31
0.0
  0
LINE
  5
246
100
AcDbEntity
100
AcDbLine
  8
0
 62
2
370
-1
  6
ByLayer
 10
1.2472705910196349
 20
0.4907879144070125
 30
0.0
 11
1.2460612745206643
 21
0.4915851781260404
 31
0.0
  0
LINE
  5
247
100
AcDbEntity
100
AcDbLine
  8
0
 62
2
370
-1
  6
ByLayer
 10
1.2460612745206643
 20
0.4915851781260404
 30
0.0
 11
1.244896726058935
 21
0.4924381521964344
 31
0.0
  0
LINE
  5
248
100
AcDbEntity
100
AcDbLine
  8
0
 62
2
370
-1
  6
ByLayer
 10
1.244896726058935
 20
0.4924381521964344
 30
0.0
 11
1.2437779188852958
 21
0.4933442778995555
 31
0.0
  0
LINE
  5
249
100
AcDbEntity
100
AcDbLine
  8
0
 62
2
370
-1
  6
ByLayer
 10
1.2437779188852958
 20
0.4933442778995555
 30
0.0
 11
1.2427058262505939
 21
0.4943009965167638
 31
0.0
  0
LINE
  5
24A
100
AcDbEntity
100
AcDbLine
  8
0
 62
2
370
-1
  6
ByLayer
 10
1.2427058262505939
 20
0.4943009965167638
 30
0.0
 11
1.2416814214056784
 21
0.4953057493294204
 31
0.0
  0
LINE
  5
24B
100
AcDbEntity
100
AcDbLine
  8
0
 62
2
370
-1
  6
ByLayer
 10
1.2416814214056784
 20
0.4953057493294204
 30
0.0
 11
1.2407056776013956
 21
0.4963559776188852
 31
0.0
  0
LINE
  5
24C
100
AcDbEntity
100
AcDbLine
  8
0
 62
2
370
-1
  6
ByLayer
 10
1.2407056776013956
 20
0.4963559776188852
 30
0.0
 11
1.2397795680885941
 21
0.4974491226665191
 31
0.0
  0
LINE
  5
24D
100
AcDbEntity
100
AcDbLine
  8
0
 62
2
370
-1
  6
ByLayer
 10
1.2397795680885941
 20
0.4974491226665191
 30
0.0
 11
1.2389040661181216
 21
0.4985826257536825
 31
0.0
  0
LINE
  5
24E
100
AcDbEntity
100
AcDbLine
  8
0
 62
2
370
-1
  6
ByLayer
 10
1.2389040661181216
 20
0.4985826257536825
 30
0.0
 11
1.2380801449408259
 21
0.499753928161736
 31
0.0
  0
LINE
  5
24F
100
AcDbEntity
100
AcDbLine
  8
0
 62
2
370
-1
  6
ByLayer
 10
1.2380801449408259
 20
0.499753928161736
 30
0.0
 11
1.2373087778075553
 21
0.5009604711720403
 31
0.0
  0
LINE
  5
250
100
AcDbEntity
100
AcDbLine
  8
0
 62
2
370
-1
  6
ByLayer
 10
1.2373087778075553
 20
0.5009604711720403
 30
0.0
 11
1.2365909379691569
 21
0.5021996960659556
 31
0.0
  0
LINE
  5
251
100
AcDbEntity
100
AcDbLine
  8
0
 62
2
370
-1
  6
ByLayer
 10
1.2365909379691569
 20
0.5021996960659556
 30
0.0
 11
1.2359275986764793
 21
0.5034690441248428
 31
0.0
  0
LINE
  5
252
100
AcDbEntity
100
AcDbLine
  8
0
 62
2
370
-1
  6
ByLayer
 10
1.2359275986764793
 20
0.5034690441248428
 30
0.0
 11
1.2353197331803696
 21
0.5047659566300621
 31
0.0
  0
LINE
  5
253
100
AcDbEntity
100
AcDbLine
  8
0
 62
2
370
-1
  6
ByLayer
 10
1.2353197331803696
 20
0.5047659566300621
 30
0.0
 11
1.2347683147316759
 21
0.5060878748629741
 31
0.0
  0
LINE
  5
254
100
AcDbEntity
100
AcDbLine
  8
0
 62
2
370
-1
  6
ByLayer
 10
1.2347683147316759
 20
0.5060878748629741
 30
0.0
 11
1.2342743165812462
 21
0.5074322401049396
 31
0.0
  0
LINE
  5
255
100
AcDbEntity
100
AcDbLine
  8
0
 62
2
370
-1
  6
ByLayer
 10
1.2342743165812462
 20
0.5074322401049396
 30
0.0
 11
1.2338387119799281
 21
0.5087964936373188
 31
0.0
  0
LINE
  5
256
100
AcDbEntity
100
AcDbLine
  8
0
 62
2
370
-1
  6
ByLayer
 10
1.2338387119799281
 20
0.5087964936373188
 30
0.0
 11
1.2334624741785698
 21
0.5101780767414725
 31
0.0
  0
LINE
  5
257
100
AcDbEntity
100
AcDbLine
  8
0
 62
2
370
-1
  6
ByLayer
 10
1.2334624741785698
 20
0.5101780767414725
 30
0.0
 11
1.2331465764280187
 21
0.5115744306987611
 31
0.0
  0
LINE
  5
258
100
AcDbEntity
100
AcDbLine
  8
0
 62
2
370
-1
  6
ByLayer
 10
1.2331465764280187
 20
0.5115744306987611
 30
0.0
 11
1.2328919919791232
 21
0.512982996790545
 31
0.0
  0
LINE
  5
259
100
AcDbEntity
100
AcDbLine
  8
0
 62
2
370
-1
  6
ByLayer
 10
1.2328919919791232
 20
0.512982996790545
 30
0.0
 11
1.2326996940827306
 21
0.5144012162981852
 31
0.0
  0
LINE
  5
25A
100
AcDbEntity
100
AcDbLine
  8
0
 62
2
370
-1
  6
ByLayer
 10
1.2326996940827306
 20
0.5144012162981852
 30
0.0
 11
1.2325706559896887
 21
0.5158265305030417
 31
0.0
  0
LINE
  5
25B
100
AcDbEntity
100
AcDbLine
  8
0
 62
2
370
-1
  6
ByLayer
 10
1.2325706559896887
 20
0.5158265305030417
 30
0.0
 11
1.232505850950846
 21
0.5172563806864754
 31
0.0
  0
LINE
  5
25C
100
AcDbEntity
100
AcDbLine
  8
0
 62
2
370
-1
  6
ByLayer
 10
1.232505850950846
 20
0.5172563806864754
 30
0.0
 11
1.2325062522170498
 21
0.5186882081298467
 31
0.0
  0
LINE
  5
25D
100
AcDbEntity
100
AcDbLine
  8
0
 62
2
370
-1
  6
ByLayer
 10
1.2325062522170498
 20
0.5186882081298467
 30
0.0
 11
1.2325728330391479
 21
0.5201194541145161
 31
0.0
  0
LINE
  5
25E
100
AcDbEntity
100
AcDbLine
  8
0
 62
2
370
-1
  6
ByLayer
 10
1.2325728330391479
 20
0.5201194541145161
 30
0.0
 11
1.2327065666679884
 21
0.5215475599218442
 31
0.0
  0
LINE
  5
25F
100
AcDbEntity
100
AcDbLine
  8
0
 62
2
370
-1
  6
ByLayer
 10
1.2327065666679884
 20
0.5215475599218442
 30
0.0
 11
1.2329084263544192
 21
0.5229699668331915
 31
0.0
  0
LINE
  5
260
100
AcDbEntity
100
AcDbLine
  8
0
 62
2
370
-1
  6
ByLayer
 10
1.2329084263544192
 20
0.5229699668331915
 30
0.0
 11
1.2331793853492876
 21
0.5243841161299186
 31
0.0
  0
LINE
  5
261
100
AcDbEntity
100
AcDbLine
  8
0
 62
2
370
-1
  6
ByLayer
 10
1.2331793853492876
 20
0.5243841161299186
 30
0.0
 11
1.2335204169034422
 21
0.525787449093386
 31
0.0
  0
LINE
  5
262
100
AcDbEntity
100
AcDbLine
  8
0
 62
2
370
-1
  6
ByLayer
 10
1.2335204169034422
 20
0.525787449093386
 30
0.0
 11
1.2339324942677301
 21
0.5271774070049543
 31
0.0
  0
LINE
  5
263
100
AcDbEntity
100
AcDbLine
  8
0
 62
2
370
-1
  6
ByLayer
 10
1.2339324942677301
 20
0.5271774070049543
 30
0.0
 11
1.2344165906929998
 21
0.5285514311459839
 31
0.0
  0
LINE
  5
264
100
AcDbEntity
100
AcDbLine
  8
0
 62
2
370
-1
  6
ByLayer
 10
1.8590292417069998
 20
0.1376033850639922
 30
0.0
 11
1.248523702305
 21
0.4900489197579904
 31
0.0
  0
LINE
  5
265
100
AcDbEntity
100
AcDbLine
  8
0
 62
2
370
-1
  6
ByLayer
 10
1.4924765954010002
 20
1.2547202623360023
 30
0.0
 11
1.4928757749945374
 21
1.2559029900497183
 31
0.0
  0
LINE
  5
266
100
AcDbEntity
100
AcDbLine
  8
0
 62
2
370
-1
  6
ByLayer
 10
1.4928757749945374
 20
1.2559029900497183
 30
0.0
 11
1.4933327832534502
 21
1.257066755279419
 31
0.0
  0
LINE
  5
267
100
AcDbEntity
100
AcDbLine
  8
0
 62
2
370
-1
  6
ByLayer
 10
1.4933327832534502
 20
1.257066755279419
 30
0.0
 11
1.4938455952508689
 21
1.2582101138338673
 31
0.0
  0
LINE
  5
268
100
AcDbEntity
100
AcDbLine
  8
0
 62
2
370
-1
  6
ByLayer
 10
1.4938455952508689
 20
1.2582101138338673
 30
0.0
 11
1.494412186059924
 21
1.2593316215218264
 31
0.0
  0
LINE
  5
269
100
AcDbEntity
100
AcDbLine
  8
0
 62
2
370
-1
  6
ByLayer
 10
1.494412186059924
 20
1.2593316215218264
 30
0.0
 11
1.4950305307537459
 21
1.2604298341520597
 31
0.0
  0
LINE
  5
26A
100
AcDbEntity
100
AcDbLine
  8
0
 62
2
370
-1
  6
ByLayer
 10
1.4950305307537459
 20
1.2604298341520597
 30
0.0
 11
1.4956986044054652
 21
1.2615033075333297
 31
0.0
  0
LINE
  5
26B
100
AcDbEntity
100
AcDbLine
  8
0
 62
2
370
-1
  6
ByLayer
 10
1.4956986044054652
 20
1.2615033075333297
 30
0.0
 11
1.4964143820882114
 21
1.2625505974744
 31
0.0
  0
LINE
  5
26C
100
AcDbEntity
100
AcDbLine
  8
0
 62
2
370
-1
  6
ByLayer
 10
1.4964143820882114
 20
1.2625505974744
 30
0.0
 11
1.4971758388751151
 21
1.2635702597840335
 31
0.0
  0
LINE
  5
26D
100
AcDbEntity
100
AcDbLine
  8
0
 62
2
370
-1
  6
ByLayer
 10
1.4971758388751151
 20
1.2635702597840335
 30
0.0
 11
1.4979809498393062
 21
1.2645608502709924
 31
0.0
  0
LINE
  5
26E
100
AcDbEntity
100
AcDbLine
  8
0
 62
2
370
-1
  6
ByLayer
 10
1.4979809498393062
 20
1.2645608502709924
 30
0.0
 11
1.4988276900539157
 21
1.2655209247440409
 31
0.0
  0
LINE
  5
26F
100
AcDbEntity
100
AcDbLine
  8
0
 62
2
370
-1
  6
ByLayer
 10
1.4988276900539157
 20
1.2655209247440409
 30
0.0
 11
1.4997140345920739
 21
1.2664490390119416
 31
0.0
  0
LINE
  5
270
100
AcDbEntity
100
AcDbLine
  8
0
 62
2
370
-1
  6
ByLayer
 10
1.4997140345920739
 20
1.2664490390119416
 30
0.0
 11
1.5006379585269103
 21
1.2673437488834576
 31
0.0
  0
LINE
  5
271
100
AcDbEntity
100
AcDbLine
  8
0
 62
2
370
-1
  6
ByLayer
 10
1.5006379585269103
 20
1.2673437488834576
 30
0.0
 11
1.5015974369315555
 21
1.2682036101673517
 31
0.0
  0
LINE
  5
272
100
AcDbEntity
100
AcDbLine
  8
0
 62
2
370
-1
  6
ByLayer
 10
1.5015974369315555
 20
1.2682036101673517
 30
0.0
 11
1.5025904448791401
 21
1.269027178672387
 31
0.0
  0
LINE
  5
273
100
AcDbEntity
100
AcDbLine
  8
0
 62
2
370
-1
  6
ByLayer
 10
1.5025904448791401
 20
1.269027178672387
 30
0.0
 11
1.5036149574427937
 21
1.2698130102073266
 31
0.0
  0
LINE
  5
274
100
AcDbEntity
100
AcDbLine
  8
0
 62
2
370
-1
  6
ByLayer
 10
1.5036149574427937
 20
1.2698130102073266
 30
0.0
 11
1.5046689496956474
 21
1.2705596605809337
 31
0.0
  0
LINE
  5
275
100
AcDbEntity
100
AcDbLine
  8
0
 62
2
370
-1
  6
ByLayer
 10
1.5046689496956474
 20
1.2705596605809337
 30
0.0
 11
1.5057503967108308
 21
1.2712656856019713
 31
0.0
  0
LINE
  5
276
100
AcDbEntity
100
AcDbLine
  8
0
 62
2
370
-1
  6
ByLayer
 10
1.5057503967108308
 20
1.2712656856019713
 30
0.0
 11
1.5068572735614747
 21
1.2719296410792025
 31
0.0
  0
LINE
  5
277
100
AcDbEntity
100
AcDbLine
  8
0
 62
2
370
-1
  6
ByLayer
 10
1.5068572735614747
 20
1.2719296410792025
 30
0.0
 11
1.5079875553207089
 21
1.2725500828213898
 31
0.0
  0
LINE
  5
278
100
AcDbEntity
100
AcDbLine
  8
0
 62
2
370
-1
  6
ByLayer
 10
1.5079875553207089
 20
1.2725500828213898
 30
0.0
 11
1.509139217061664
 21
1.2731255666372967
 31
0.0
  0
LINE
  5
279
100
AcDbEntity
100
AcDbLine
  8
0
 62
2
370
-1
  6
ByLayer
 10
1.509139217061664
 20
1.2731255666372967
 30
0.0
 11
1.5103102338574703
 21
1.2736546483356865
 31
0.0
  0
LINE
  5
27A
100
AcDbEntity
100
AcDbLine
  8
0
 62
2
370
-1
  6
ByLayer
 10
1.5103102338574703
 20
1.2736546483356865
 30
0.0
 11
1.5114985807812578
 21
1.2741358837253216
 31
0.0
  0
LINE
  5
27B
100
AcDbEntity
100
AcDbLine
  8
0
 62
2
370
-1
  6
ByLayer
 10
1.5114985807812578
 20
1.2741358837253216
 30
0.0
 11
1.5127022329061566
 21
1.2745678286149653
 31
0.0
  0
LINE
  5
27C
100
AcDbEntity
100
AcDbLine
  8
0
 62
2
370
-1
  6
ByLayer
 10
1.5127022329061566
 20
1.2745678286149653
 30
0.0
 11
1.5139191653052979
 21
1.2749490388133808
 31
0.0
  0
LINE
  5
27D
100
AcDbEntity
100
AcDbLine
  8
0
 62
2
370
-1
  6
ByLayer
 10
1.5139191653052979
 20
1.2749490388133808
 30
0.0
 11
1.5151473530518107
 21
1.2752780701293311
 31
0.0
  0
LINE
  5
27E
100
AcDbEntity
100
AcDbLine
  8
0
 62
2
370
-1
  6
ByLayer
 10
1.5151473530518107
 20
1.2752780701293311
 30
0.0
 11
1.5163847712188261
 21
1.2755534783715792
 31
0.0
  0
LINE
  5
27F
100
AcDbEntity
100
AcDbLine
  8
0
 62
2
370
-1
  6
ByLayer
 10
1.5163847712188261
 20
1.2755534783715792
 30
0.0
 11
1.5176293948794746
 21
1.2757738193488883
 31
0.0
  0
LINE
  5
280
100
AcDbEntity
100
AcDbLine
  8
0
 62
2
370
-1
  6
ByLayer
 10
1.5176293948794746
 20
1.2757738193488883
 30
0.0
 11
1.518879199106886
 21
1.2759376488700209
 31
0.0
  0
LINE
  5
281
100
AcDbEntity
100
AcDbLine
  8
0
 62
2
370
-1
  6
ByLayer
 10
1.518879199106886
 20
1.2759376488700209
 30
0.0
 11
1.5201321589741901
 21
1.2760435227437406
 31
0.0
  0
LINE
  5
282
100
AcDbEntity
100
AcDbLine
  8
0
 62
2
370
-1
  6
ByLayer
 10
1.5201321589741901
 20
1.2760435227437406
 30
0.0
 11
1.5213862495545183
 21
1.2760899967788104
 31
0.0
  0
LINE
  5
283
100
AcDbEntity
100
AcDbLine
  8
0
 62
2
370
-1
  6
ByLayer
 10
1.5213862495545183
 20
1.2760899967788104
 30
0.0
 11
1.5226394459210002
 21
1.276075626783993
 31
0.0
  0
LINE
  5
284
100
AcDbEntity
100
AcDbLine
  8
0
 62
2
370
-1
  6
ByLayer
 10
1.2344165906929998
 20
0.5285514311459839
 30
0.0
 11
1.4924765954010002
 21
1.2547202623360023
 31
0.0
  0
LINE
  5
285
100
AcDbEntity
100
AcDbLine
  8
0
 62
2
370
-1
  6
ByLayer
 10
2.343037773307
 20
1.2760756267839921
 30
0.0
 11
2.3447318043532479
 21
1.2761197890748306
 31
0.0
  0
LINE
  5
286
100
AcDbEntity
100
AcDbLine
  8
0
 62
2
370
-1
  6
ByLayer
 10
2.3447318043532479
 20
1.2761197890748306
 30
0.0
 11
2.346403168911197
 21
1.2762508213179602
 31
0.0
  0
LINE
  5
287
100
AcDbEntity
100
AcDbLine
  8
0
 62
2
370
-1
  6
ByLayer
 10
2.346403168911197
 20
1.2762508213179602
 30
0.0
 11
2.3480496379260405
 21
1.2764665415693002
 31
0.0
  0
LINE
  5
288
100
AcDbEntity
100
AcDbLine
  8
0
 62
2
370
-1
  6
ByLayer
 10
2.3480496379260405
 20
1.2764665415693002
 30
0.0
 11
2.3496689823429757
 21
1.2767647678847709
 31
0.0
  0
LINE
  5
289
100
AcDbEntity
100
AcDbLine
  8
0
 62
2
370
-1
  6
ByLayer
 10
2.3496689823429757
 20
1.2767647678847709
 30
0.0
 11
2.3512589731071958
 21
1.2771433183202923
 31
0.0
  0
LINE
  5
28A
100
AcDbEntity
100
AcDbLine
  8
0
 62
2
370
-1
  6
ByLayer
 10
2.3512589731071958
 20
1.2771433183202923
 30
0.0
 11
2.3528173811638973
 21
1.2776000109317851
 31
0.0
  0
LINE
  5
28B
100
AcDbEntity
100
AcDbLine
  8
0
 62
2
370
-1
  6
ByLayer
 10
2.3528173811638973
 20
1.2776000109317851
 30
0.0
 11
2.3543419774582741
 21
1.2781326637751689
 31
0.0
  0
LINE
  5
28C
100
AcDbEntity
100
AcDbLine
  8
0
 62
2
370
-1
  6
ByLayer
 10
2.3543419774582741
 20
1.2781326637751689
 30
0.0
 11
2.3558305329355216
 21
1.2787390949063637
 31
0.0
  0
LINE
  5
28D
100
AcDbEntity
100
AcDbLine
  8
0
 62
2
370
-1
  6
ByLayer
 10
2.3558305329355216
 20
1.2787390949063637
 30
0.0
 11
2.357280818540834
 21
1.2794171223812898
 31
0.0
  0
LINE
  5
28E
100
AcDbEntity
100
AcDbLine
  8
0
 62
2
370
-1
  6
ByLayer
 10
2.357280818540834
 20
1.2794171223812898
 30
0.0
 11
2.3586906052194081
 21
1.2801645642558677
 31
0.0
  0
LINE
  5
28F
100
AcDbEntity
100
AcDbLine
  8
0
 62
2
370
-1
  6
ByLayer
 10
2.3586906052194081
 20
1.2801645642558677
 30
0.0
 11
2.3600576639164381
 21
1.280979238586017
 31
0.0
  0
LINE
  5
290
100
AcDbEntity
100
AcDbLine
  8
0
 62
2
370
-1
  6
ByLayer
 10
2.3600576639164381
 20
1.280979238586017
 30
0.0
 11
2.361379765577118
 21
1.2818589634276578
 31
0.0
  0
LINE
  5
291
100
AcDbEntity
100
AcDbLine
  8
0
 62
2
370
-1
  6
ByLayer
 10
2.361379765577118
 20
1.2818589634276578
 30
0.0
 11
2.362654681146644
 21
1.2828015568367106
 31
0.0
  0
LINE
  5
292
100
AcDbEntity
100
AcDbLine
  8
0
 62
2
370
-1
  6
ByLayer
 10
2.362654681146644
 20
1.2828015568367106
 30
0.0
 11
2.36388018157021
 21
1.2838048368690955
 31
0.0
  0
LINE
  5
293
100
AcDbEntity
100
AcDbLine
  8
0
 62
2
370
-1
  6
ByLayer
 10
2.36388018157021
 20
1.2838048368690955
 30
0.0
 11
2.3650540377930125
 21
1.2848666215807321
 31
0.0
  0
LINE
  5
294
100
AcDbEntity
100
AcDbLine
  8
0
 62
2
370
-1
  6
ByLayer
 10
2.3650540377930125
 20
1.2848666215807321
 30
0.0
 11
2.3661740207602446
 21
1.2859847290275408
 31
0.0
  0
LINE
  5
295
100
AcDbEntity
100
AcDbLine
  8
0
 62
2
370
-1
  6
ByLayer
 10
2.3661740207602446
 20
1.2859847290275408
 30
0.0
 11
2.367237901417103
 21
1.2871569772654419
 31
0.0
  0
LINE
  5
296
100
AcDbEntity
100
AcDbLine
  8
0
 62
2
370
-1
  6
ByLayer
 10
2.367237901417103
 20
1.2871569772654419
 30
0.0
 11
2.3682434507087815
 21
1.2883811843503552
 31
0.0
  0
LINE
  5
297
100
AcDbEntity
100
AcDbLine
  8
0
 62
2
370
-1
  6
ByLayer
 10
2.3682434507087815
 20
1.2883811843503552
 30
0.0
 11
2.3691884395804759
 21
1.2896551683382009
 31
0.0
  0
LINE
  5
298
100
AcDbEntity
100
AcDbLine
  8
0
 62
2
370
-1
  6
ByLayer
 10
2.3691884395804759
 20
1.2896551683382009
 30
0.0
 11
2.3700706389773805
 21
1.2909767472848992
 31
0.0
  0
LINE
  5
299
100
AcDbEntity
100
AcDbLine
  8
0
 62
2
370
-1
  6
ByLayer
 10
2.3700706389773805
 20
1.2909767472848992
 30
0.0
 11
2.3708878198446914
 21
1.2923437392463704
 31
0.0
  0
LINE
  5
29A
100
AcDbEntity
100
AcDbLine
  8
0
 62
2
370
-1
  6
ByLayer
 10
2.3708878198446914
 20
1.2923437392463704
 30
0.0
 11
2.3716377531276027
 21
1.2937539622785339
 31
0.0
  0
LINE
  5
29B
100
AcDbEntity
100
AcDbLine
  8
0
 62
2
370
-1
  6
ByLayer
 10
2.3716377531276027
 20
1.2937539622785339
 30
0.0
 11
2.3723182097713087
 21
1.2952052344373106
 31
0.0
  0
LINE
  5
29C
100
AcDbEntity
100
AcDbLine
  8
0
 62
2
370
-1
  6
ByLayer
 10
2.3723182097713087
 20
1.2952052344373106
 30
0.0
 11
2.372926960721006
 21
1.2966953737786204
 31
0.0
  0
LINE
  5
29D
100
AcDbEntity
100
AcDbLine
  8
0
 62
2
370
-1
  6
ByLayer
 10
2.372926960721006
 20
1.2966953737786204
 30
0.0
 11
2.3734617769218884
 21
1.2982221983583833
 31
0.0
  0
LINE
  5
29E
100
AcDbEntity
100
AcDbLine
  8
0
 62
2
370
-1
  6
ByLayer
 10
2.3734617769218884
 20
1.2982221983583833
 30
0.0
 11
2.3739204293191514
 21
1.299783526232519
 31
0.0
  0
LINE
  5
29F
100
AcDbEntity
100
AcDbLine
  8
0
 62
2
370
-1
  6
ByLayer
 10
2.3739204293191514
 20
1.299783526232519
 30
0.0
 11
2.3743006888579905
 21
1.3013771754569488
 31
0.0
  0
LINE
  5
2A0
100
AcDbEntity
100
AcDbLine
  8
0
 62
2
370
-1
  6
ByLayer
 10
2.3743006888579905
 20
1.3013771754569488
 30
0.0
 11
2.3746003264835993
 21
1.3030009640875915
 31
0.0
  0
LINE
  5
2A1
100
AcDbEntity
100
AcDbLine
  8
0
 62
2
370
-1
  6
ByLayer
 10
2.3746003264835993
 20
1.3030009640875915
 30
0.0
 11
2.3748171131411739
 21
1.3046527101803675
 31
0.0
  0
LINE
  5
2A2
100
AcDbEntity
100
AcDbLine
  8
0
 62
2
370
-1
  6
ByLayer
 10
2.3748171131411739
 20
1.3046527101803675
 30
0.0
 11
2.3749488197759092
 21
1.3063302317911978
 31
0.0
  0
LINE
  5
2A3
100
AcDbEntity
100
AcDbLine
  8
0
 62
2
370
-1
  6
ByLayer
 10
2.3749488197759092
 20
1.3063302317911978
 30
0.0
 11
2.374993217333
 21
1.3080313469760017
 31
0.0
  0
LINE
  5
2A4
100
AcDbEntity
100
AcDbLine
  8
0
 62
2
370
-1
  6
ByLayer
 10
1.5226394459210002
 20
1.276075626783993
 30
0.0
 11
2.343037773307
 21
1.2760756267839921
 31
0.0
  0
LINE
  5
2A5
100
AcDbEntity
100
AcDbLine
  8
0
 62
2
370
-1
  6
ByLayer
 10
2.3749932173329995
 20
1.7179964599840012
 30
0.0
 11
2.3749488197759092
 21
1.7196978130584983
 31
0.0
  0
LINE
  5
2A6
100
AcDbEntity
100
AcDbLine
  8
0
 62
2
370
-1
  6
ByLayer
 10
2.3749488197759092
 20
1.7196978130584983
 30
0.0
 11
2.3748171131411744
 21
1.7213760274250312
 31
0.0
  0
LINE
  5
2A7
100
AcDbEntity
100
AcDbLine
  8
0
 62
2
370
-1
  6
ByLayer
 10
2.3748171131411744
 20
1.7213760274250312
 30
0.0
 11
2.3746003264835998
 21
1.7230288897694499
 31
0.0
  0
LINE
  5
2A8
100
AcDbEntity
100
AcDbLine
  8
0
 62
2
370
-1
  6
ByLayer
 10
2.3746003264835998
 20
1.7230288897694499
 30
0.0
 11
2.3743006888579905
 21
1.724654186777606
 31
0.0
  0
LINE
  5
2A9
100
AcDbEntity
100
AcDbLine
  8
0
 62
2
370
-1
  6
ByLayer
 10
2.3743006888579905
 20
1.724654186777606
 30
0.0
 11
2.3739204293191514
 21
1.7262497051353494
 31
0.0
  0
LINE
  5
2AA
100
AcDbEntity
100
AcDbLine
  8
0
 62
2
370
-1
  6
ByLayer
 10
2.3739204293191514
 20
1.7262497051353494
 30
0.0
 11
2.3734617769218889
 21
1.7278132315285302
 31
0.0
  0
LINE
  5
2AB
100
AcDbEntity
100
AcDbLine
  8
0
 62
2
370
-1
  6
ByLayer
 10
2.3734617769218889
 20
1.7278132315285302
 30
0.0
 11
2.372926960721006
 21
1.7293425526429993
 31
0.0
  0
LINE
  5
2AC
100
AcDbEntity
100
AcDbLine
  8
0
 62
2
370
-1
  6
ByLayer
 10
2.372926960721006
 20
1.7293425526429993
 30
0.0
 11
2.3723182097713096
 21
1.7308354551646075
 31
0.0
  0
LINE
  5
2AD
100
AcDbEntity
100
AcDbLine
  8
0
 62
2
370
-1
  6
ByLayer
 10
2.3723182097713096
 20
1.7308354551646075
 30
0.0
 11
2.3716377531276023
 21
1.7322897257792038
 31
0.0
  0
LINE
  5
2AE
100
AcDbEntity
100
AcDbLine
  8
0
 62
2
370
-1
  6
ByLayer
 10
2.3716377531276023
 20
1.7322897257792038
 30
0.0
 11
2.3708878198446914
 21
1.7337031511726411
 31
0.0
  0
LINE
  5
2AF
100
AcDbEntity
100
AcDbLine
  8
0
 62
2
370
-1
  6
ByLayer
 10
2.3708878198446914
 20
1.7337031511726411
 30
0.0
 11
2.3700706389773813
 21
1.7350735180307681
 31
0.0
  0
LINE
  5
2B0
100
AcDbEntity
100
AcDbLine
  8
0
 62
2
370
-1
  6
ByLayer
 10
2.3700706389773813
 20
1.7350735180307681
 30
0.0
 11
2.3691884395804763
 21
1.736398613039436
 31
0.0
  0
LINE
  5
2B1
100
AcDbEntity
100
AcDbLine
  8
0
 62
2
370
-1
  6
ByLayer
 10
2.3691884395804763
 20
1.736398613039436
 30
0.0
 11
2.3682434507087819
 21
1.7376762228844951
 31
0.0
  0
LINE
  5
2B2
100
AcDbEntity
100
AcDbLine
  8
0
 62
2
370
-1
  6
ByLayer
 10
2.3682434507087819
 20
1.7376762228844951
 30
0.0
 11
2.3672379014171034
 21
1.7389041342517955
 31
0.0
  0
LINE
  5
2B3
100
AcDbEntity
100
AcDbLine
  8
0
 62
2
370
-1
  6
ByLayer
 10
2.3672379014171034
 20
1.7389041342517955
 30
0.0
 11
2.3661740207602451
 21
1.7400801338271883
 31
0.0
  0
LINE
  5
2B4
100
AcDbEntity
100
AcDbLine
  8
0
 62
2
370
-1
  6
ByLayer
 10
2.3661740207602451
 20
1.7400801338271883
 30
0.0
 11
2.3650540377930129
 21
1.7412020082965236
 31
0.0
  0
LINE
  5
2B5
100
AcDbEntity
100
AcDbLine
  8
0
 62
2
370
-1
  6
ByLayer
 10
2.3650540377930129
 20
1.7412020082965236
 30
0.0
 11
2.3638801815702108
 21
1.7422675443456521
 31
0.0
  0
LINE
  5
2B6
100
AcDbEntity
100
AcDbLine
  8
0
 62
2
370
-1
  6
ByLayer
 10
2.3638801815702108
 20
1.7422675443456521
 30
0.0
 11
2.3626546811466445
 21
1.7432745286604243
 31
0.0
  0
LINE
  5
2B7
100
AcDbEntity
100
AcDbLine
  8
0
 62
2
370
-1
  6
ByLayer
 10
2.3626546811466445
 20
1.7432745286604243
 30
0.0
 11
2.3613797655771185
 21
1.7442207479266905
 31
0.0
  0
LINE
  5
2B8
100
AcDbEntity
100
AcDbLine
  8
0
 62
2
370
-1
  6
ByLayer
 10
2.3613797655771185
 20
1.7442207479266905
 30
0.0
 11
2.3600576639164386
 21
1.745103988830301
 31
0.0
  0
LINE
  5
2B9
100
AcDbEntity
100
AcDbLine
  8
0
 62
2
370
-1
  6
ByLayer
 10
2.3600576639164386
 20
1.745103988830301
 30
0.0
 11
2.358690605219409
 21
1.745922038057107
 31
0.0
  0
LINE
  5
2BA
100
AcDbEntity
100
AcDbLine
  8
0
 62
2
370
-1
  6
ByLayer
 10
2.358690605219409
 20
1.745922038057107
 30
0.0
 11
2.3572808185408354
 21
1.7466726822929584
 31
0.0
  0
LINE
  5
2BB
100
AcDbEntity
100
AcDbLine
  8
0
 62
2
370
-1
  6
ByLayer
 10
2.3572808185408354
 20
1.7466726822929584
 30
0.0
 11
2.355830532935522
 21
1.7473537082237058
 31
0.0
  0
LINE
  5
2BC
100
AcDbEntity
100
AcDbLine
  8
0
 62
2
370
-1
  6
ByLayer
 10
2.355830532935522
 20
1.7473537082237058
 30
0.0
 11
2.3543419774582741
 21
1.7479629025351997
 31
0.0
  0
LINE
  5
2BD
100
AcDbEntity
100
AcDbLine
  8
0
 62
2
370
-1
  6
ByLayer
 10
2.3543419774582741
 20
1.7479629025351997
 30
0.0
 11
2.3528173811638973
 21
1.7484980519132907
 31
0.0
  0
LINE
  5
2BE
100
AcDbEntity
100
AcDbLine
  8
0
 62
2
370
-1
  6
ByLayer
 10
2.3528173811638973
 20
1.7484980519132907
 30
0.0
 11
2.3512589731071958
 21
1.748956943043829
 31
0.0
  0
LINE
  5
2BF
100
AcDbEntity
100
AcDbLine
  8
0
 62
2
370
-1
  6
ByLayer
 10
2.3512589731071958
 20
1.748956943043829
 30
0.0
 11
2.3496689823429753
 21
1.7493373626126658
 31
0.0
  0
LINE
  5
2C0
100
AcDbEntity
100
AcDbLine
  8
0
 62
2
370
-1
  6
ByLayer
 10
2.3496689823429753
 20
1.7493373626126658
 30
0.0
 11
2.34804963792604
 21
1.7496370973056505
 31
0.0
  0
LINE
  5
2C1
100
AcDbEntity
100
AcDbLine
  8
0
 62
2
370
-1
  6
ByLayer
 10
2.34804963792604
 20
1.7496370973056505
 30
0.0
 11
2.3464031689111962
 21
1.7498539338086345
 31
0.0
  0
LINE
  5
2C2
100
AcDbEntity
100
AcDbLine
  8
0
 62
2
370
-1
  6
ByLayer
 10
2.3464031689111962
 20
1.7498539338086345
 30
0.0
 11
2.3447318043532475
 21
1.7499856588074678
 31
0.0
  0
LINE
  5
2C3
100
AcDbEntity
100
AcDbLine
  8
0
 62
2
370
-1
  6
ByLayer
 10
2.3447318043532475
 20
1.7499856588074678
 30
0.0
 11
2.3430377733069996
 21
1.7500300589880011
 31
0.0
  0
LINE
  5
2C4
100
AcDbEntity
100
AcDbLine
  8
0
 62
2
370
-1
  6
ByLayer
 10
2.374993217333
 20
1.3080313469760017
 30
0.0
 11
2.3749932173329995
 21
1.7179964599840012
 31
0.0
  0
ENDSEC
  0
SECTION
  2
OBJECTS
  0
DICTIONARY
  5
C
100
AcDbDictionary
280
0
281
1
  3
ACAD_GROUP
350
D
  3
ACAD_LAYOUT
350
1A
  3
ACAD_MLINESTYLE
350
17
  3
ACAD_PLOTSETTINGS
350
19
  3
ACAD_PLOTSTYLENAME
350
E
  3
AcDbVariableDictionary
350
2C5
  0
DICTIONARY
  5
D
100
AcDbDictionary
280
0
281
1
  0
ACDBDICTIONARYWDFLT
  5
E
100
AcDbDictionary
281
1
  3
Normal
350
F
100
AcDbDictionaryWithDefault
340
F
  0
ACDBPLACEHOLDER
  5
F
  0
DICTIONARY
  5
17
100
AcDbDictionary
280
0
281
1
  3
Standard
350
18
  0
MLINESTYLE
  5
18
100
AcDbMlineStyle
  2
STANDARD
 70
0
  3

 62
256
 51
90.0
 52
90.0
 71
2
 49
0.5
 62
256
  6
BYLAYER
 49
-0.5
 62
256
  6
BYLAYER
  0
DICTIONARY
  5
19
100
AcDbDictionary
280
0
281
1
  0
DICTIONARY
  5
1A
100
AcDbDictionary
281
1
  3
Layout1
350
1E
  3
Layout2
350
26
  3
Model
350
22
  0
LAYOUT
  5
1E
100
AcDbPlotSettings
  1

  2
C:\Program Files\AutoCAD 2002\plotters\DWF ePlot (optimized for plotting).pc3
  4

  6

 40
0.0
 41
0.0
 42
0.0
 43
0.0
 44
0.0
 45
0.0
 46
0.0
 47
0.0
 48
0.0
 49
0.0
140
0.0
141
0.0
142
1.0
143
1.0
 70
688
 72
0
 73
0
 74
5
  7

 75
16
147
1.0
148
0.0
149
0.0
100
AcDbLayout
  1
Layout1
 70
1
 71
1
 10
0.0
 20
0.0
 11
420.0
 21
297.0
 12
0.0
 22
0.0
 32
0.0
 14
100000000000000000000.0
 24
100000000000000000000.0
 34
100000000000000000000.0
 15
-100000000000000000000.0
 25
-100000000000000000000.0
 35
-100000000000000000000.0
146
0.0
 13
0.0
 23
0.0
 33
0.0
 16
1.0
 26
0.0
 36
0.0
 17
0.0
 27
1.0
 37
0.0
 76
0
330
1B
  0
LAYOUT
  5
22
100
AcDbPlotSettings
  1

  2
C:\Program Files\AutoCAD 2002\plotters\DWF ePlot (optimized for plotting).pc3
  4

  6

 40
0.0
 41
0.0
 42
0.0
 43
0.0
 44
0.0
 45
0.0
 46
0.0
 47
0.0
 48
0.0
 49
0.0
140
0.0
141
0.0
142
1.0
143
1.0
 70
1712
 72
0
 73
0
 74
0
  7

 75
0
147
1.0
148
0.0
149
0.0
100
AcDbLayout
  1
Model
 70
1
 71
0
 10
0.0
 20
0.0
 11
12.0
 21
9.0
 12
0.0
 22
0.0
 32
0.0
 14
0.0
 24
0.0
 34
0.0
 15
0.0
 25
0.0
 35
0.0
146
0.0
 13
0.0
 23
0.0
 33
0.0
 16
1.0
 26
0.0
 36
0.0
 17
0.0
 27
1.0
 37
0.0
 76
0
330
1F
  0
LAYOUT
  5
26
100
AcDbPlotSettings
  1

  2
C:\Program Files\AutoCAD 2002\plotters\DWF ePlot (optimized for plotting).pc3
  4

  6

 40
0.0
 41
0.0
 42
0.0
 43
0.0
 44
0.0
 45
0.0
 46
0.0
 47
0.0
 48
0.0
 49
0.0
140
0.0
141
0.0
142
1.0
143
1.0
 70
688
 72
0
 73
0
 74
5
  7

 75
16
147
1.0
148
0.0
149
0.0
100
AcDbLayout
  1
Layout2
 70
1
 71
2
 10
0.0
 20
0.0
 11
12.0
 21
9.0
 12
0.0
 22
0.0
 32
0.0
 14
0.0
 24
0.0
 34
0.0
 15
0.0
 25
0.0
 35
0.0
146
0.0
 13
0.0
 23
0.0
 33
0.0
 16
1.0
 26
0.0
 36
0.0
 17
0.0
 27
1.0
 37
0.0
 76
0
330
23
  0
DICTIONARY
  5
2C5
100
AcDbDictionary
281
1
  3
DIMASSOC
350
2C7
  3
HIDETEXT
350
2C6
  0
DICTIONARYVAR
  5
2C6
100
DictionaryVariables
280
0
  1
2
  0
DICTIONARYVAR
  5
2C7
100
DictionaryVariables
280
0
  1
1
  0
ENDSEC
  0
EOF
